%TF.GenerationSoftware,KiCad,Pcbnew,(5.1.9)-1*%
%TF.CreationDate,2021-01-18T22:58:22-06:00*%
%TF.ProjectId,TempPCB11,54656d70-5043-4423-9131-2e6b69636164,rev?*%
%TF.SameCoordinates,Original*%
%TF.FileFunction,Copper,L2,Bot*%
%TF.FilePolarity,Positive*%
%FSLAX46Y46*%
G04 Gerber Fmt 4.6, Leading zero omitted, Abs format (unit mm)*
G04 Created by KiCad (PCBNEW (5.1.9)-1) date 2021-01-18 22:58:22*
%MOMM*%
%LPD*%
G01*
G04 APERTURE LIST*
%TA.AperFunction,ComponentPad*%
%ADD10C,2.600000*%
%TD*%
%TA.AperFunction,ComponentPad*%
%ADD11R,2.600000X2.600000*%
%TD*%
%TA.AperFunction,ComponentPad*%
%ADD12C,4.000000*%
%TD*%
%TA.AperFunction,ComponentPad*%
%ADD13R,3.000000X3.000000*%
%TD*%
%TA.AperFunction,ComponentPad*%
%ADD14O,2.200000X2.200000*%
%TD*%
%TA.AperFunction,ComponentPad*%
%ADD15R,2.200000X2.200000*%
%TD*%
%TA.AperFunction,ComponentPad*%
%ADD16O,2.000000X4.500000*%
%TD*%
%TA.AperFunction,ComponentPad*%
%ADD17O,4.500000X2.000000*%
%TD*%
%TA.AperFunction,ComponentPad*%
%ADD18R,4.500000X2.000000*%
%TD*%
%TA.AperFunction,ComponentPad*%
%ADD19O,1.600000X2.000000*%
%TD*%
%TA.AperFunction,ComponentPad*%
%ADD20R,2.000000X2.000000*%
%TD*%
%TA.AperFunction,ComponentPad*%
%ADD21O,1.600000X1.600000*%
%TD*%
%TA.AperFunction,ComponentPad*%
%ADD22C,1.600000*%
%TD*%
%TA.AperFunction,ComponentPad*%
%ADD23C,1.700000*%
%TD*%
%TA.AperFunction,Conductor*%
%ADD24C,0.254000*%
%TD*%
%TA.AperFunction,Conductor*%
%ADD25C,0.100000*%
%TD*%
G04 APERTURE END LIST*
D10*
%TO.P,J2,2*%
%TO.N,GND*%
X64262000Y-55452000D03*
D11*
%TO.P,J2,1*%
X64262000Y-60452000D03*
%TD*%
D10*
%TO.P,J1,5*%
%TO.N,Net-(AK1-Pad6)*%
X88204000Y-96012000D03*
%TO.P,J1,4*%
%TO.N,Net-(AK1-Pad3)*%
X93204000Y-96012000D03*
%TO.P,J1,3*%
%TO.N,Net-(AK1-Pad2)*%
X98204000Y-96012000D03*
%TO.P,J1,2*%
%TO.N,Net-(AK1-Pad1)*%
X103204000Y-96012000D03*
D11*
%TO.P,J1,1*%
%TO.N,Net-(B1-Pad2)*%
X108204000Y-96012000D03*
%TD*%
D12*
%TO.P,B1,*%
%TO.N,*%
X130260000Y-57980000D03*
X113760000Y-87480000D03*
D13*
%TO.P,B1,1*%
%TO.N,GND*%
X130760000Y-92480000D03*
%TO.P,B1,3*%
X130760000Y-52480000D03*
%TO.P,B1,4*%
%TO.N,Net-(B1-Pad4)*%
X113260000Y-52480000D03*
%TO.P,B1,2*%
%TO.N,Net-(B1-Pad2)*%
X113260000Y-92480000D03*
%TD*%
D14*
%TO.P,D1,2*%
%TO.N,Net-(B1-Pad4)*%
X82296000Y-69088000D03*
D15*
%TO.P,D1,1*%
%TO.N,Net-(C1-Pad1)*%
X82296000Y-79248000D03*
%TD*%
D16*
%TO.P,J3,3*%
%TO.N,N/C*%
X133122000Y-98084000D03*
D17*
%TO.P,J3,2*%
%TO.N,GND*%
X137922000Y-94584000D03*
D18*
%TO.P,J3,1*%
%TO.N,Net-(B1-Pad2)*%
X137922000Y-100584000D03*
%TD*%
D19*
%TO.P,U1,16*%
%TO.N,Net-(U1-Pad16)*%
X58674000Y-68072000D03*
%TO.P,U1,15*%
%TO.N,Net-(U1-Pad15)*%
X61214000Y-68072000D03*
%TO.P,U1,14*%
%TO.N,Net-(AK1-Pad2)*%
X63754000Y-68072000D03*
%TO.P,U1,13*%
%TO.N,Net-(AK1-Pad3)*%
X66294000Y-68072000D03*
%TO.P,U1,12*%
%TO.N,Net-(U1-Pad12)*%
X68834000Y-68072000D03*
%TO.P,U1,11*%
%TO.N,Net-(U1-Pad11)*%
X71374000Y-68072000D03*
%TO.P,U1,10*%
%TO.N,GND*%
X73914000Y-68072000D03*
%TO.P,U1,9*%
%TO.N,Net-(C1-Pad1)*%
X76454000Y-68072000D03*
%TO.P,U1,8*%
%TO.N,Net-(AK1-Pad1)*%
X76454000Y-90932000D03*
%TO.P,U1,7*%
%TO.N,Net-(U1-Pad7)*%
X73914000Y-90932000D03*
%TO.P,U1,6*%
%TO.N,Net-(U1-Pad6)*%
X71374000Y-90932000D03*
%TO.P,U1,5*%
%TO.N,Net-(U1-Pad5)*%
X68834000Y-90932000D03*
%TO.P,U1,4*%
%TO.N,Net-(U1-Pad4)*%
X66294000Y-90932000D03*
%TO.P,U1,3*%
%TO.N,Net-(U1-Pad3)*%
X63754000Y-90932000D03*
D20*
%TO.P,U1,1*%
%TO.N,Net-(U1-Pad1)*%
X58674000Y-90932000D03*
D19*
%TO.P,U1,2*%
%TO.N,Net-(U1-Pad2)*%
X61214000Y-90932000D03*
%TD*%
D21*
%TO.P,R2,2*%
%TO.N,Net-(AK1-Pad2)*%
X62230000Y-74168000D03*
D22*
%TO.P,R2,1*%
%TO.N,Net-(AK1-Pad1)*%
X62230000Y-84328000D03*
%TD*%
D21*
%TO.P,R1,2*%
%TO.N,Net-(AK1-Pad3)*%
X67310000Y-74168000D03*
D22*
%TO.P,R1,1*%
%TO.N,Net-(AK1-Pad1)*%
X67310000Y-84328000D03*
%TD*%
%TO.P,C2,2*%
%TO.N,GND*%
X106466000Y-60198000D03*
%TO.P,C2,1*%
%TO.N,Net-(AK1-Pad1)*%
X108966000Y-60198000D03*
%TD*%
%TO.P,C1,2*%
%TO.N,GND*%
X73700000Y-73406000D03*
%TO.P,C1,1*%
%TO.N,Net-(C1-Pad1)*%
X76200000Y-73406000D03*
%TD*%
D23*
%TO.P,AK1,7*%
%TO.N,GND*%
X93634000Y-54072000D03*
%TO.P,AK1,6*%
%TO.N,Net-(AK1-Pad6)*%
X96174000Y-54072000D03*
%TO.P,AK1,5*%
%TO.N,Net-(AK1-Pad5)*%
X98714000Y-54072000D03*
%TO.P,AK1,4*%
%TO.N,Net-(AK1-Pad4)*%
X101254000Y-54072000D03*
%TO.P,AK1,3*%
%TO.N,Net-(AK1-Pad3)*%
X103794000Y-54072000D03*
%TO.P,AK1,2*%
%TO.N,Net-(AK1-Pad2)*%
X106334000Y-54072000D03*
%TO.P,AK1,1*%
%TO.N,Net-(AK1-Pad1)*%
X108874000Y-54072000D03*
%TD*%
D24*
%TO.N,GND*%
X111170498Y-50735820D02*
X111134188Y-50855518D01*
X111121928Y-50980000D01*
X111121928Y-53980000D01*
X111134188Y-54104482D01*
X111170498Y-54224180D01*
X111229463Y-54334494D01*
X111308815Y-54431185D01*
X111405506Y-54510537D01*
X111515820Y-54569502D01*
X111635518Y-54605812D01*
X111760000Y-54618072D01*
X114760000Y-54618072D01*
X114884482Y-54605812D01*
X115004180Y-54569502D01*
X115114494Y-54510537D01*
X115211185Y-54431185D01*
X115290537Y-54334494D01*
X115349502Y-54224180D01*
X115385812Y-54104482D01*
X115398072Y-53980000D01*
X128621928Y-53980000D01*
X128634188Y-54104482D01*
X128670498Y-54224180D01*
X128729463Y-54334494D01*
X128808815Y-54431185D01*
X128905506Y-54510537D01*
X129015820Y-54569502D01*
X129135518Y-54605812D01*
X129260000Y-54618072D01*
X130474250Y-54615000D01*
X130633000Y-54456250D01*
X130633000Y-52607000D01*
X130887000Y-52607000D01*
X130887000Y-54456250D01*
X131045750Y-54615000D01*
X132260000Y-54618072D01*
X132384482Y-54605812D01*
X132504180Y-54569502D01*
X132614494Y-54510537D01*
X132711185Y-54431185D01*
X132790537Y-54334494D01*
X132849502Y-54224180D01*
X132885812Y-54104482D01*
X132898072Y-53980000D01*
X132895000Y-52765750D01*
X132736250Y-52607000D01*
X130887000Y-52607000D01*
X130633000Y-52607000D01*
X128783750Y-52607000D01*
X128625000Y-52765750D01*
X128621928Y-53980000D01*
X115398072Y-53980000D01*
X115398072Y-50980000D01*
X115385812Y-50855518D01*
X115349502Y-50735820D01*
X115308975Y-50660000D01*
X128711025Y-50660000D01*
X128670498Y-50735820D01*
X128634188Y-50855518D01*
X128621928Y-50980000D01*
X128625000Y-52194250D01*
X128783750Y-52353000D01*
X130633000Y-52353000D01*
X130633000Y-52333000D01*
X130887000Y-52333000D01*
X130887000Y-52353000D01*
X132736250Y-52353000D01*
X132895000Y-52194250D01*
X132898072Y-50980000D01*
X132885812Y-50855518D01*
X132849502Y-50735820D01*
X132808975Y-50660000D01*
X134261133Y-50660000D01*
X134262984Y-50679588D01*
X134264937Y-50710625D01*
X134422331Y-51956531D01*
X134422331Y-51956533D01*
X134437862Y-52037949D01*
X134750170Y-53254306D01*
X134773985Y-53327601D01*
X134775782Y-53333132D01*
X135238074Y-54500750D01*
X135238076Y-54500756D01*
X135242679Y-54510537D01*
X135273366Y-54575750D01*
X135273367Y-54575751D01*
X135878352Y-55676213D01*
X135878358Y-55676226D01*
X135903310Y-55715543D01*
X135922770Y-55746207D01*
X135922776Y-55746214D01*
X136289399Y-56250828D01*
X136540982Y-56703677D01*
X136555148Y-56724150D01*
X136570697Y-56739564D01*
X136855111Y-56976575D01*
X137573402Y-57741478D01*
X137573409Y-57741487D01*
X137633829Y-57798225D01*
X138601438Y-58598701D01*
X138601447Y-58598709D01*
X138668501Y-58647426D01*
X139472130Y-59157425D01*
X139618697Y-59279564D01*
X139639293Y-59293551D01*
X139664165Y-59303839D01*
X139738715Y-59325766D01*
X139801449Y-59360253D01*
X140937739Y-59894951D01*
X141014803Y-59925463D01*
X141014818Y-59925467D01*
X142209136Y-60313524D01*
X142209150Y-60313530D01*
X142273028Y-60329931D01*
X142289429Y-60334142D01*
X142289432Y-60334142D01*
X143522993Y-60569456D01*
X143522996Y-60569457D01*
X143605226Y-60579845D01*
X144846940Y-60657967D01*
X144867581Y-60660000D01*
X152340000Y-60660000D01*
X152340001Y-92361133D01*
X152320412Y-92362984D01*
X152289375Y-92364937D01*
X151059729Y-92520277D01*
X151240926Y-92339080D01*
X151556654Y-91866560D01*
X151774131Y-91341523D01*
X151885000Y-90784148D01*
X151885000Y-90215852D01*
X151774131Y-89658477D01*
X151556654Y-89133440D01*
X151240926Y-88660920D01*
X150839080Y-88259074D01*
X150366560Y-87943346D01*
X149841523Y-87725869D01*
X149284148Y-87615000D01*
X148715852Y-87615000D01*
X148158477Y-87725869D01*
X147633440Y-87943346D01*
X147160920Y-88259074D01*
X146759074Y-88660920D01*
X146443346Y-89133440D01*
X146225869Y-89658477D01*
X146115000Y-90215852D01*
X146115000Y-90784148D01*
X146225869Y-91341523D01*
X146443346Y-91866560D01*
X146759074Y-92339080D01*
X147160920Y-92740926D01*
X147633440Y-93056654D01*
X148158477Y-93274131D01*
X148493512Y-93340774D01*
X148424250Y-93373366D01*
X148424238Y-93373373D01*
X147323781Y-93978355D01*
X147323775Y-93978358D01*
X147321188Y-93980000D01*
X147253793Y-94022770D01*
X147253786Y-94022776D01*
X146237833Y-94760909D01*
X146237822Y-94760916D01*
X146173959Y-94813749D01*
X145258522Y-95673402D01*
X145258513Y-95673409D01*
X145201775Y-95733829D01*
X144915881Y-96079416D01*
X144451302Y-96417291D01*
X144432700Y-96433837D01*
X144417683Y-96453694D01*
X144405517Y-96479839D01*
X144261415Y-96912146D01*
X143679684Y-97828806D01*
X143679676Y-97828817D01*
X143639747Y-97901449D01*
X143105049Y-99037740D01*
X143074537Y-99114803D01*
X143074533Y-99114818D01*
X142686476Y-100309136D01*
X142686470Y-100309150D01*
X142665858Y-100389429D01*
X142430544Y-101622993D01*
X142430543Y-101622996D01*
X142420155Y-101705226D01*
X142380218Y-102340000D01*
X68738867Y-102340000D01*
X68737016Y-102320412D01*
X68735063Y-102289375D01*
X68577669Y-101043467D01*
X68562138Y-100962052D01*
X68562138Y-100962051D01*
X68249830Y-99745694D01*
X68224218Y-99666867D01*
X68224216Y-99666862D01*
X68124229Y-99414321D01*
X131487000Y-99414321D01*
X131510657Y-99654515D01*
X131604148Y-99962714D01*
X131755969Y-100246751D01*
X131960286Y-100495714D01*
X132209248Y-100700031D01*
X132493285Y-100851852D01*
X132801484Y-100945343D01*
X133122000Y-100976911D01*
X133442515Y-100945343D01*
X133750714Y-100851852D01*
X134034751Y-100700031D01*
X134283714Y-100495714D01*
X134488031Y-100246752D01*
X134639852Y-99962715D01*
X134733343Y-99654516D01*
X134740288Y-99584000D01*
X135033928Y-99584000D01*
X135033928Y-101584000D01*
X135046188Y-101708482D01*
X135082498Y-101828180D01*
X135141463Y-101938494D01*
X135220815Y-102035185D01*
X135317506Y-102114537D01*
X135427820Y-102173502D01*
X135547518Y-102209812D01*
X135672000Y-102222072D01*
X140172000Y-102222072D01*
X140296482Y-102209812D01*
X140416180Y-102173502D01*
X140526494Y-102114537D01*
X140623185Y-102035185D01*
X140702537Y-101938494D01*
X140761502Y-101828180D01*
X140797812Y-101708482D01*
X140810072Y-101584000D01*
X140810072Y-99584000D01*
X140797812Y-99459518D01*
X140761502Y-99339820D01*
X140702537Y-99229506D01*
X140623185Y-99132815D01*
X140526494Y-99053463D01*
X140416180Y-98994498D01*
X140296482Y-98958188D01*
X140172000Y-98945928D01*
X135672000Y-98945928D01*
X135547518Y-98958188D01*
X135427820Y-98994498D01*
X135317506Y-99053463D01*
X135220815Y-99132815D01*
X135141463Y-99229506D01*
X135082498Y-99339820D01*
X135046188Y-99459518D01*
X135033928Y-99584000D01*
X134740288Y-99584000D01*
X134757000Y-99414322D01*
X134757000Y-96753678D01*
X134733343Y-96513484D01*
X134639852Y-96205285D01*
X134488031Y-95921248D01*
X134283714Y-95672286D01*
X134034752Y-95467969D01*
X133750715Y-95316148D01*
X133442516Y-95222657D01*
X133122000Y-95191089D01*
X132801485Y-95222657D01*
X132493286Y-95316148D01*
X132209249Y-95467969D01*
X131960287Y-95672286D01*
X131755970Y-95921248D01*
X131604149Y-96205285D01*
X131510658Y-96513484D01*
X131487001Y-96753678D01*
X131487000Y-99414321D01*
X68124229Y-99414321D01*
X67761924Y-98499245D01*
X67726634Y-98424250D01*
X67726627Y-98424238D01*
X67412690Y-97853190D01*
X67178525Y-96994584D01*
X67169652Y-96971323D01*
X67156411Y-96950239D01*
X67140374Y-96933079D01*
X66285680Y-96173351D01*
X65955194Y-95821419D01*
X86269000Y-95821419D01*
X86269000Y-96202581D01*
X86343361Y-96576419D01*
X86489225Y-96928566D01*
X86700987Y-97245491D01*
X86970509Y-97515013D01*
X87287434Y-97726775D01*
X87639581Y-97872639D01*
X88013419Y-97947000D01*
X88394581Y-97947000D01*
X88768419Y-97872639D01*
X89120566Y-97726775D01*
X89437491Y-97515013D01*
X89707013Y-97245491D01*
X89918775Y-96928566D01*
X90064639Y-96576419D01*
X90139000Y-96202581D01*
X90139000Y-95821419D01*
X91269000Y-95821419D01*
X91269000Y-96202581D01*
X91343361Y-96576419D01*
X91489225Y-96928566D01*
X91700987Y-97245491D01*
X91970509Y-97515013D01*
X92287434Y-97726775D01*
X92639581Y-97872639D01*
X93013419Y-97947000D01*
X93394581Y-97947000D01*
X93768419Y-97872639D01*
X94120566Y-97726775D01*
X94437491Y-97515013D01*
X94707013Y-97245491D01*
X94918775Y-96928566D01*
X95064639Y-96576419D01*
X95139000Y-96202581D01*
X95139000Y-95821419D01*
X96269000Y-95821419D01*
X96269000Y-96202581D01*
X96343361Y-96576419D01*
X96489225Y-96928566D01*
X96700987Y-97245491D01*
X96970509Y-97515013D01*
X97287434Y-97726775D01*
X97639581Y-97872639D01*
X98013419Y-97947000D01*
X98394581Y-97947000D01*
X98768419Y-97872639D01*
X99120566Y-97726775D01*
X99437491Y-97515013D01*
X99707013Y-97245491D01*
X99918775Y-96928566D01*
X100064639Y-96576419D01*
X100139000Y-96202581D01*
X100139000Y-95821419D01*
X101269000Y-95821419D01*
X101269000Y-96202581D01*
X101343361Y-96576419D01*
X101489225Y-96928566D01*
X101700987Y-97245491D01*
X101970509Y-97515013D01*
X102287434Y-97726775D01*
X102639581Y-97872639D01*
X103013419Y-97947000D01*
X103394581Y-97947000D01*
X103768419Y-97872639D01*
X104120566Y-97726775D01*
X104437491Y-97515013D01*
X104707013Y-97245491D01*
X104918775Y-96928566D01*
X105064639Y-96576419D01*
X105139000Y-96202581D01*
X105139000Y-95821419D01*
X105064639Y-95447581D01*
X104918775Y-95095434D01*
X104707013Y-94778509D01*
X104640504Y-94712000D01*
X106265928Y-94712000D01*
X106265928Y-97312000D01*
X106278188Y-97436482D01*
X106314498Y-97556180D01*
X106373463Y-97666494D01*
X106452815Y-97763185D01*
X106549506Y-97842537D01*
X106659820Y-97901502D01*
X106779518Y-97937812D01*
X106904000Y-97950072D01*
X109504000Y-97950072D01*
X109628482Y-97937812D01*
X109748180Y-97901502D01*
X109858494Y-97842537D01*
X109955185Y-97763185D01*
X110034537Y-97666494D01*
X110093502Y-97556180D01*
X110129812Y-97436482D01*
X110142072Y-97312000D01*
X110142072Y-94964434D01*
X135081876Y-94964434D01*
X135112856Y-95092355D01*
X135241990Y-95386761D01*
X135426078Y-95650317D01*
X135658046Y-95872895D01*
X135928980Y-96045942D01*
X136228468Y-96162807D01*
X136545000Y-96219000D01*
X137795000Y-96219000D01*
X137795000Y-94711000D01*
X138049000Y-94711000D01*
X138049000Y-96219000D01*
X139299000Y-96219000D01*
X139615532Y-96162807D01*
X139915020Y-96045942D01*
X140185954Y-95872895D01*
X140417922Y-95650317D01*
X140602010Y-95386761D01*
X140731144Y-95092355D01*
X140762124Y-94964434D01*
X140642777Y-94711000D01*
X138049000Y-94711000D01*
X137795000Y-94711000D01*
X135201223Y-94711000D01*
X135081876Y-94964434D01*
X110142072Y-94964434D01*
X110142072Y-94712000D01*
X110129812Y-94587518D01*
X110093502Y-94467820D01*
X110034537Y-94357506D01*
X109955185Y-94260815D01*
X109858494Y-94181463D01*
X109748180Y-94122498D01*
X109628482Y-94086188D01*
X109504000Y-94073928D01*
X106904000Y-94073928D01*
X106779518Y-94086188D01*
X106659820Y-94122498D01*
X106549506Y-94181463D01*
X106452815Y-94260815D01*
X106373463Y-94357506D01*
X106314498Y-94467820D01*
X106278188Y-94587518D01*
X106265928Y-94712000D01*
X104640504Y-94712000D01*
X104437491Y-94508987D01*
X104120566Y-94297225D01*
X103768419Y-94151361D01*
X103394581Y-94077000D01*
X103013419Y-94077000D01*
X102639581Y-94151361D01*
X102287434Y-94297225D01*
X101970509Y-94508987D01*
X101700987Y-94778509D01*
X101489225Y-95095434D01*
X101343361Y-95447581D01*
X101269000Y-95821419D01*
X100139000Y-95821419D01*
X100064639Y-95447581D01*
X99918775Y-95095434D01*
X99707013Y-94778509D01*
X99437491Y-94508987D01*
X99120566Y-94297225D01*
X98768419Y-94151361D01*
X98394581Y-94077000D01*
X98013419Y-94077000D01*
X97639581Y-94151361D01*
X97287434Y-94297225D01*
X96970509Y-94508987D01*
X96700987Y-94778509D01*
X96489225Y-95095434D01*
X96343361Y-95447581D01*
X96269000Y-95821419D01*
X95139000Y-95821419D01*
X95064639Y-95447581D01*
X94918775Y-95095434D01*
X94707013Y-94778509D01*
X94437491Y-94508987D01*
X94120566Y-94297225D01*
X93768419Y-94151361D01*
X93394581Y-94077000D01*
X93013419Y-94077000D01*
X92639581Y-94151361D01*
X92287434Y-94297225D01*
X91970509Y-94508987D01*
X91700987Y-94778509D01*
X91489225Y-95095434D01*
X91343361Y-95447581D01*
X91269000Y-95821419D01*
X90139000Y-95821419D01*
X90064639Y-95447581D01*
X89918775Y-95095434D01*
X89707013Y-94778509D01*
X89437491Y-94508987D01*
X89120566Y-94297225D01*
X88768419Y-94151361D01*
X88394581Y-94077000D01*
X88013419Y-94077000D01*
X87639581Y-94151361D01*
X87287434Y-94297225D01*
X86970509Y-94508987D01*
X86700987Y-94778509D01*
X86489225Y-95095434D01*
X86343361Y-95447581D01*
X86269000Y-95821419D01*
X65955194Y-95821419D01*
X65426598Y-95258522D01*
X65426591Y-95258513D01*
X65366171Y-95201775D01*
X64398553Y-94401291D01*
X64331499Y-94352573D01*
X64331487Y-94352567D01*
X64002215Y-94143605D01*
X62568374Y-92869079D01*
X62548235Y-92854442D01*
X62525627Y-92844016D01*
X62489287Y-92837110D01*
X61072825Y-92778091D01*
X60790864Y-92686476D01*
X60790850Y-92686470D01*
X60710571Y-92665858D01*
X59927556Y-92516490D01*
X60028494Y-92462537D01*
X60125185Y-92383185D01*
X60204537Y-92286494D01*
X60251559Y-92198523D01*
X60412900Y-92330932D01*
X60662193Y-92464182D01*
X60932692Y-92546236D01*
X61214000Y-92573943D01*
X61495309Y-92546236D01*
X61765808Y-92464182D01*
X62015101Y-92330932D01*
X62233608Y-92151608D01*
X62412932Y-91933101D01*
X62484000Y-91800142D01*
X62555068Y-91933101D01*
X62734393Y-92151608D01*
X62952900Y-92330932D01*
X63202193Y-92464182D01*
X63472692Y-92546236D01*
X63754000Y-92573943D01*
X64035309Y-92546236D01*
X64305808Y-92464182D01*
X64555101Y-92330932D01*
X64773608Y-92151608D01*
X64952932Y-91933101D01*
X65024000Y-91800142D01*
X65095068Y-91933101D01*
X65274393Y-92151608D01*
X65492900Y-92330932D01*
X65742193Y-92464182D01*
X66012692Y-92546236D01*
X66294000Y-92573943D01*
X66575309Y-92546236D01*
X66845808Y-92464182D01*
X67095101Y-92330932D01*
X67313608Y-92151608D01*
X67492932Y-91933101D01*
X67564000Y-91800142D01*
X67635068Y-91933101D01*
X67814393Y-92151608D01*
X68032900Y-92330932D01*
X68282193Y-92464182D01*
X68552692Y-92546236D01*
X68834000Y-92573943D01*
X69115309Y-92546236D01*
X69385808Y-92464182D01*
X69635101Y-92330932D01*
X69853608Y-92151608D01*
X70032932Y-91933101D01*
X70104000Y-91800142D01*
X70175068Y-91933101D01*
X70354393Y-92151608D01*
X70572900Y-92330932D01*
X70822193Y-92464182D01*
X71092692Y-92546236D01*
X71374000Y-92573943D01*
X71655309Y-92546236D01*
X71925808Y-92464182D01*
X72175101Y-92330932D01*
X72393608Y-92151608D01*
X72572932Y-91933101D01*
X72644000Y-91800142D01*
X72715068Y-91933101D01*
X72894393Y-92151608D01*
X73112900Y-92330932D01*
X73362193Y-92464182D01*
X73632692Y-92546236D01*
X73914000Y-92573943D01*
X74195309Y-92546236D01*
X74465808Y-92464182D01*
X74715101Y-92330932D01*
X74933608Y-92151608D01*
X75112932Y-91933101D01*
X75184000Y-91800142D01*
X75255068Y-91933101D01*
X75434393Y-92151608D01*
X75652900Y-92330932D01*
X75902193Y-92464182D01*
X76172692Y-92546236D01*
X76454000Y-92573943D01*
X76735309Y-92546236D01*
X77005808Y-92464182D01*
X77255101Y-92330932D01*
X77473608Y-92151608D01*
X77652932Y-91933101D01*
X77786182Y-91683807D01*
X77868236Y-91413308D01*
X77889000Y-91202491D01*
X77889000Y-90980000D01*
X111121928Y-90980000D01*
X111121928Y-93980000D01*
X111134188Y-94104482D01*
X111170498Y-94224180D01*
X111229463Y-94334494D01*
X111308815Y-94431185D01*
X111405506Y-94510537D01*
X111515820Y-94569502D01*
X111635518Y-94605812D01*
X111760000Y-94618072D01*
X114760000Y-94618072D01*
X114884482Y-94605812D01*
X115004180Y-94569502D01*
X115114494Y-94510537D01*
X115211185Y-94431185D01*
X115290537Y-94334494D01*
X115349502Y-94224180D01*
X115385812Y-94104482D01*
X115398072Y-93980000D01*
X128621928Y-93980000D01*
X128634188Y-94104482D01*
X128670498Y-94224180D01*
X128729463Y-94334494D01*
X128808815Y-94431185D01*
X128905506Y-94510537D01*
X129015820Y-94569502D01*
X129135518Y-94605812D01*
X129260000Y-94618072D01*
X130474250Y-94615000D01*
X130633000Y-94456250D01*
X130633000Y-92607000D01*
X130887000Y-92607000D01*
X130887000Y-94456250D01*
X131045750Y-94615000D01*
X132260000Y-94618072D01*
X132384482Y-94605812D01*
X132504180Y-94569502D01*
X132614494Y-94510537D01*
X132711185Y-94431185D01*
X132790537Y-94334494D01*
X132849502Y-94224180D01*
X132855755Y-94203566D01*
X135081876Y-94203566D01*
X135201223Y-94457000D01*
X137795000Y-94457000D01*
X137795000Y-92949000D01*
X138049000Y-92949000D01*
X138049000Y-94457000D01*
X140642777Y-94457000D01*
X140762124Y-94203566D01*
X140731144Y-94075645D01*
X140602010Y-93781239D01*
X140417922Y-93517683D01*
X140185954Y-93295105D01*
X139915020Y-93122058D01*
X139615532Y-93005193D01*
X139299000Y-92949000D01*
X138049000Y-92949000D01*
X137795000Y-92949000D01*
X136545000Y-92949000D01*
X136228468Y-93005193D01*
X135928980Y-93122058D01*
X135658046Y-93295105D01*
X135426078Y-93517683D01*
X135241990Y-93781239D01*
X135112856Y-94075645D01*
X135081876Y-94203566D01*
X132855755Y-94203566D01*
X132885812Y-94104482D01*
X132898072Y-93980000D01*
X132895000Y-92765750D01*
X132736250Y-92607000D01*
X130887000Y-92607000D01*
X130633000Y-92607000D01*
X128783750Y-92607000D01*
X128625000Y-92765750D01*
X128621928Y-93980000D01*
X115398072Y-93980000D01*
X115398072Y-90980000D01*
X128621928Y-90980000D01*
X128625000Y-92194250D01*
X128783750Y-92353000D01*
X130633000Y-92353000D01*
X130633000Y-90503750D01*
X130887000Y-90503750D01*
X130887000Y-92353000D01*
X132736250Y-92353000D01*
X132895000Y-92194250D01*
X132898072Y-90980000D01*
X132885812Y-90855518D01*
X132849502Y-90735820D01*
X132790537Y-90625506D01*
X132711185Y-90528815D01*
X132614494Y-90449463D01*
X132504180Y-90390498D01*
X132384482Y-90354188D01*
X132260000Y-90341928D01*
X131045750Y-90345000D01*
X130887000Y-90503750D01*
X130633000Y-90503750D01*
X130474250Y-90345000D01*
X129260000Y-90341928D01*
X129135518Y-90354188D01*
X129015820Y-90390498D01*
X128905506Y-90449463D01*
X128808815Y-90528815D01*
X128729463Y-90625506D01*
X128670498Y-90735820D01*
X128634188Y-90855518D01*
X128621928Y-90980000D01*
X115398072Y-90980000D01*
X115385812Y-90855518D01*
X115349502Y-90735820D01*
X115290537Y-90625506D01*
X115211185Y-90528815D01*
X115114494Y-90449463D01*
X115004180Y-90390498D01*
X114884482Y-90354188D01*
X114760000Y-90341928D01*
X111760000Y-90341928D01*
X111635518Y-90354188D01*
X111515820Y-90390498D01*
X111405506Y-90449463D01*
X111308815Y-90528815D01*
X111229463Y-90625506D01*
X111170498Y-90735820D01*
X111134188Y-90855518D01*
X111121928Y-90980000D01*
X77889000Y-90980000D01*
X77889000Y-90661508D01*
X77868236Y-90450691D01*
X77786182Y-90180192D01*
X77652932Y-89930899D01*
X77473607Y-89712392D01*
X77255100Y-89533068D01*
X77005807Y-89399818D01*
X76735308Y-89317764D01*
X76454000Y-89290057D01*
X76172691Y-89317764D01*
X75902192Y-89399818D01*
X75652899Y-89533068D01*
X75434392Y-89712393D01*
X75255068Y-89930900D01*
X75184000Y-90063858D01*
X75112932Y-89930899D01*
X74933607Y-89712392D01*
X74715100Y-89533068D01*
X74465807Y-89399818D01*
X74195308Y-89317764D01*
X73914000Y-89290057D01*
X73632691Y-89317764D01*
X73362192Y-89399818D01*
X73112899Y-89533068D01*
X72894392Y-89712393D01*
X72715068Y-89930900D01*
X72644000Y-90063858D01*
X72572932Y-89930899D01*
X72393607Y-89712392D01*
X72175100Y-89533068D01*
X71925807Y-89399818D01*
X71655308Y-89317764D01*
X71374000Y-89290057D01*
X71092691Y-89317764D01*
X70822192Y-89399818D01*
X70572899Y-89533068D01*
X70354392Y-89712393D01*
X70175068Y-89930900D01*
X70104000Y-90063858D01*
X70032932Y-89930899D01*
X69853607Y-89712392D01*
X69635100Y-89533068D01*
X69385807Y-89399818D01*
X69115308Y-89317764D01*
X68834000Y-89290057D01*
X68552691Y-89317764D01*
X68282192Y-89399818D01*
X68032899Y-89533068D01*
X67814392Y-89712393D01*
X67635068Y-89930900D01*
X67564000Y-90063858D01*
X67492932Y-89930899D01*
X67313607Y-89712392D01*
X67095100Y-89533068D01*
X66845807Y-89399818D01*
X66575308Y-89317764D01*
X66294000Y-89290057D01*
X66012691Y-89317764D01*
X65742192Y-89399818D01*
X65492899Y-89533068D01*
X65274392Y-89712393D01*
X65095068Y-89930900D01*
X65024000Y-90063858D01*
X64952932Y-89930899D01*
X64773607Y-89712392D01*
X64555100Y-89533068D01*
X64305807Y-89399818D01*
X64035308Y-89317764D01*
X63754000Y-89290057D01*
X63472691Y-89317764D01*
X63202192Y-89399818D01*
X62952899Y-89533068D01*
X62734392Y-89712393D01*
X62555068Y-89930900D01*
X62484000Y-90063858D01*
X62412932Y-89930899D01*
X62233607Y-89712392D01*
X62015100Y-89533068D01*
X61765807Y-89399818D01*
X61495308Y-89317764D01*
X61214000Y-89290057D01*
X60932691Y-89317764D01*
X60662192Y-89399818D01*
X60412899Y-89533068D01*
X60251559Y-89665477D01*
X60204537Y-89577506D01*
X60125185Y-89480815D01*
X60028494Y-89401463D01*
X59918180Y-89342498D01*
X59798482Y-89306188D01*
X59674000Y-89293928D01*
X57674000Y-89293928D01*
X57549518Y-89306188D01*
X57429820Y-89342498D01*
X57319506Y-89401463D01*
X57222815Y-89480815D01*
X57143463Y-89577506D01*
X57084498Y-89687820D01*
X57048188Y-89807518D01*
X57035928Y-89932000D01*
X57035928Y-91932000D01*
X57048188Y-92056482D01*
X57084498Y-92176180D01*
X57143463Y-92286494D01*
X57187374Y-92340000D01*
X50660000Y-92340000D01*
X50660000Y-87220475D01*
X111125000Y-87220475D01*
X111125000Y-87739525D01*
X111226261Y-88248601D01*
X111424893Y-88728141D01*
X111713262Y-89159715D01*
X112080285Y-89526738D01*
X112511859Y-89815107D01*
X112991399Y-90013739D01*
X113500475Y-90115000D01*
X114019525Y-90115000D01*
X114528601Y-90013739D01*
X115008141Y-89815107D01*
X115439715Y-89526738D01*
X115806738Y-89159715D01*
X116095107Y-88728141D01*
X116293739Y-88248601D01*
X116395000Y-87739525D01*
X116395000Y-87220475D01*
X116293739Y-86711399D01*
X116095107Y-86231859D01*
X115806738Y-85800285D01*
X115439715Y-85433262D01*
X115008141Y-85144893D01*
X114528601Y-84946261D01*
X114019525Y-84845000D01*
X113500475Y-84845000D01*
X112991399Y-84946261D01*
X112511859Y-85144893D01*
X112080285Y-85433262D01*
X111713262Y-85800285D01*
X111424893Y-86231859D01*
X111226261Y-86711399D01*
X111125000Y-87220475D01*
X50660000Y-87220475D01*
X50660000Y-84186665D01*
X60795000Y-84186665D01*
X60795000Y-84469335D01*
X60850147Y-84746574D01*
X60958320Y-85007727D01*
X61115363Y-85242759D01*
X61315241Y-85442637D01*
X61550273Y-85599680D01*
X61811426Y-85707853D01*
X62088665Y-85763000D01*
X62371335Y-85763000D01*
X62648574Y-85707853D01*
X62909727Y-85599680D01*
X63144759Y-85442637D01*
X63344637Y-85242759D01*
X63501680Y-85007727D01*
X63609853Y-84746574D01*
X63665000Y-84469335D01*
X63665000Y-84186665D01*
X65875000Y-84186665D01*
X65875000Y-84469335D01*
X65930147Y-84746574D01*
X66038320Y-85007727D01*
X66195363Y-85242759D01*
X66395241Y-85442637D01*
X66630273Y-85599680D01*
X66891426Y-85707853D01*
X67168665Y-85763000D01*
X67451335Y-85763000D01*
X67728574Y-85707853D01*
X67989727Y-85599680D01*
X68224759Y-85442637D01*
X68424637Y-85242759D01*
X68581680Y-85007727D01*
X68689853Y-84746574D01*
X68745000Y-84469335D01*
X68745000Y-84186665D01*
X68689853Y-83909426D01*
X68581680Y-83648273D01*
X68424637Y-83413241D01*
X68224759Y-83213363D01*
X67989727Y-83056320D01*
X67728574Y-82948147D01*
X67451335Y-82893000D01*
X67168665Y-82893000D01*
X66891426Y-82948147D01*
X66630273Y-83056320D01*
X66395241Y-83213363D01*
X66195363Y-83413241D01*
X66038320Y-83648273D01*
X65930147Y-83909426D01*
X65875000Y-84186665D01*
X63665000Y-84186665D01*
X63609853Y-83909426D01*
X63501680Y-83648273D01*
X63344637Y-83413241D01*
X63144759Y-83213363D01*
X62909727Y-83056320D01*
X62648574Y-82948147D01*
X62371335Y-82893000D01*
X62088665Y-82893000D01*
X61811426Y-82948147D01*
X61550273Y-83056320D01*
X61315241Y-83213363D01*
X61115363Y-83413241D01*
X60958320Y-83648273D01*
X60850147Y-83909426D01*
X60795000Y-84186665D01*
X50660000Y-84186665D01*
X50660000Y-78148000D01*
X80557928Y-78148000D01*
X80557928Y-80348000D01*
X80570188Y-80472482D01*
X80606498Y-80592180D01*
X80665463Y-80702494D01*
X80744815Y-80799185D01*
X80841506Y-80878537D01*
X80951820Y-80937502D01*
X81071518Y-80973812D01*
X81196000Y-80986072D01*
X83396000Y-80986072D01*
X83520482Y-80973812D01*
X83640180Y-80937502D01*
X83750494Y-80878537D01*
X83847185Y-80799185D01*
X83926537Y-80702494D01*
X83985502Y-80592180D01*
X84021812Y-80472482D01*
X84034072Y-80348000D01*
X84034072Y-78148000D01*
X84021812Y-78023518D01*
X83985502Y-77903820D01*
X83926537Y-77793506D01*
X83847185Y-77696815D01*
X83750494Y-77617463D01*
X83640180Y-77558498D01*
X83520482Y-77522188D01*
X83396000Y-77509928D01*
X81196000Y-77509928D01*
X81071518Y-77522188D01*
X80951820Y-77558498D01*
X80841506Y-77617463D01*
X80744815Y-77696815D01*
X80665463Y-77793506D01*
X80606498Y-77903820D01*
X80570188Y-78023518D01*
X80557928Y-78148000D01*
X50660000Y-78148000D01*
X50660000Y-74026665D01*
X60795000Y-74026665D01*
X60795000Y-74309335D01*
X60850147Y-74586574D01*
X60958320Y-74847727D01*
X61115363Y-75082759D01*
X61315241Y-75282637D01*
X61550273Y-75439680D01*
X61811426Y-75547853D01*
X62088665Y-75603000D01*
X62371335Y-75603000D01*
X62648574Y-75547853D01*
X62909727Y-75439680D01*
X63144759Y-75282637D01*
X63344637Y-75082759D01*
X63501680Y-74847727D01*
X63609853Y-74586574D01*
X63665000Y-74309335D01*
X63665000Y-74026665D01*
X65875000Y-74026665D01*
X65875000Y-74309335D01*
X65930147Y-74586574D01*
X66038320Y-74847727D01*
X66195363Y-75082759D01*
X66395241Y-75282637D01*
X66630273Y-75439680D01*
X66891426Y-75547853D01*
X67168665Y-75603000D01*
X67451335Y-75603000D01*
X67728574Y-75547853D01*
X67989727Y-75439680D01*
X68224759Y-75282637D01*
X68424637Y-75082759D01*
X68581680Y-74847727D01*
X68689853Y-74586574D01*
X68727223Y-74398702D01*
X72886903Y-74398702D01*
X72958486Y-74642671D01*
X73213996Y-74763571D01*
X73488184Y-74832300D01*
X73770512Y-74846217D01*
X74050130Y-74804787D01*
X74316292Y-74709603D01*
X74441514Y-74642671D01*
X74513097Y-74398702D01*
X73700000Y-73585605D01*
X72886903Y-74398702D01*
X68727223Y-74398702D01*
X68745000Y-74309335D01*
X68745000Y-74026665D01*
X68689853Y-73749426D01*
X68581680Y-73488273D01*
X68573822Y-73476512D01*
X72259783Y-73476512D01*
X72301213Y-73756130D01*
X72396397Y-74022292D01*
X72463329Y-74147514D01*
X72707298Y-74219097D01*
X73520395Y-73406000D01*
X73879605Y-73406000D01*
X74692702Y-74219097D01*
X74936671Y-74147514D01*
X74950324Y-74118659D01*
X75085363Y-74320759D01*
X75285241Y-74520637D01*
X75520273Y-74677680D01*
X75781426Y-74785853D01*
X76058665Y-74841000D01*
X76341335Y-74841000D01*
X76618574Y-74785853D01*
X76879727Y-74677680D01*
X77114759Y-74520637D01*
X77314637Y-74320759D01*
X77471680Y-74085727D01*
X77579853Y-73824574D01*
X77635000Y-73547335D01*
X77635000Y-73264665D01*
X77579853Y-72987426D01*
X77471680Y-72726273D01*
X77314637Y-72491241D01*
X77114759Y-72291363D01*
X76879727Y-72134320D01*
X76618574Y-72026147D01*
X76341335Y-71971000D01*
X76058665Y-71971000D01*
X75781426Y-72026147D01*
X75520273Y-72134320D01*
X75285241Y-72291363D01*
X75085363Y-72491241D01*
X74951308Y-72691869D01*
X74936671Y-72664486D01*
X74692702Y-72592903D01*
X73879605Y-73406000D01*
X73520395Y-73406000D01*
X72707298Y-72592903D01*
X72463329Y-72664486D01*
X72342429Y-72919996D01*
X72273700Y-73194184D01*
X72259783Y-73476512D01*
X68573822Y-73476512D01*
X68424637Y-73253241D01*
X68224759Y-73053363D01*
X67989727Y-72896320D01*
X67728574Y-72788147D01*
X67451335Y-72733000D01*
X67168665Y-72733000D01*
X66891426Y-72788147D01*
X66630273Y-72896320D01*
X66395241Y-73053363D01*
X66195363Y-73253241D01*
X66038320Y-73488273D01*
X65930147Y-73749426D01*
X65875000Y-74026665D01*
X63665000Y-74026665D01*
X63609853Y-73749426D01*
X63501680Y-73488273D01*
X63344637Y-73253241D01*
X63144759Y-73053363D01*
X62909727Y-72896320D01*
X62648574Y-72788147D01*
X62371335Y-72733000D01*
X62088665Y-72733000D01*
X61811426Y-72788147D01*
X61550273Y-72896320D01*
X61315241Y-73053363D01*
X61115363Y-73253241D01*
X60958320Y-73488273D01*
X60850147Y-73749426D01*
X60795000Y-74026665D01*
X50660000Y-74026665D01*
X50660000Y-72413298D01*
X72886903Y-72413298D01*
X73700000Y-73226395D01*
X74513097Y-72413298D01*
X74441514Y-72169329D01*
X74186004Y-72048429D01*
X73911816Y-71979700D01*
X73629488Y-71965783D01*
X73349870Y-72007213D01*
X73083708Y-72102397D01*
X72958486Y-72169329D01*
X72886903Y-72413298D01*
X50660000Y-72413298D01*
X50660000Y-67801509D01*
X57239000Y-67801509D01*
X57239000Y-68342492D01*
X57259764Y-68553309D01*
X57341818Y-68823808D01*
X57475068Y-69073101D01*
X57654393Y-69291608D01*
X57872900Y-69470932D01*
X58122193Y-69604182D01*
X58392692Y-69686236D01*
X58674000Y-69713943D01*
X58955309Y-69686236D01*
X59225808Y-69604182D01*
X59475101Y-69470932D01*
X59693608Y-69291608D01*
X59872932Y-69073101D01*
X59944000Y-68940142D01*
X60015068Y-69073101D01*
X60194393Y-69291608D01*
X60412900Y-69470932D01*
X60662193Y-69604182D01*
X60932692Y-69686236D01*
X61214000Y-69713943D01*
X61495309Y-69686236D01*
X61765808Y-69604182D01*
X62015101Y-69470932D01*
X62233608Y-69291608D01*
X62412932Y-69073101D01*
X62484000Y-68940142D01*
X62555068Y-69073101D01*
X62734393Y-69291608D01*
X62952900Y-69470932D01*
X63202193Y-69604182D01*
X63472692Y-69686236D01*
X63754000Y-69713943D01*
X64035309Y-69686236D01*
X64305808Y-69604182D01*
X64555101Y-69470932D01*
X64773608Y-69291608D01*
X64952932Y-69073101D01*
X65024000Y-68940142D01*
X65095068Y-69073101D01*
X65274393Y-69291608D01*
X65492900Y-69470932D01*
X65742193Y-69604182D01*
X66012692Y-69686236D01*
X66294000Y-69713943D01*
X66575309Y-69686236D01*
X66845808Y-69604182D01*
X67095101Y-69470932D01*
X67313608Y-69291608D01*
X67492932Y-69073101D01*
X67564000Y-68940142D01*
X67635068Y-69073101D01*
X67814393Y-69291608D01*
X68032900Y-69470932D01*
X68282193Y-69604182D01*
X68552692Y-69686236D01*
X68834000Y-69713943D01*
X69115309Y-69686236D01*
X69385808Y-69604182D01*
X69635101Y-69470932D01*
X69853608Y-69291608D01*
X70032932Y-69073101D01*
X70104000Y-68940142D01*
X70175068Y-69073101D01*
X70354393Y-69291608D01*
X70572900Y-69470932D01*
X70822193Y-69604182D01*
X71092692Y-69686236D01*
X71374000Y-69713943D01*
X71655309Y-69686236D01*
X71925808Y-69604182D01*
X72175101Y-69470932D01*
X72393608Y-69291608D01*
X72572932Y-69073101D01*
X72642122Y-68943655D01*
X72649570Y-68961227D01*
X72808327Y-69194662D01*
X73009575Y-69392639D01*
X73245579Y-69547551D01*
X73507270Y-69653444D01*
X73564961Y-69663904D01*
X73787000Y-69541915D01*
X73787000Y-68199000D01*
X73767000Y-68199000D01*
X73767000Y-67945000D01*
X73787000Y-67945000D01*
X73787000Y-66602085D01*
X74041000Y-66602085D01*
X74041000Y-67945000D01*
X74061000Y-67945000D01*
X74061000Y-68199000D01*
X74041000Y-68199000D01*
X74041000Y-69541915D01*
X74263039Y-69663904D01*
X74320730Y-69653444D01*
X74582421Y-69547551D01*
X74818425Y-69392639D01*
X75019673Y-69194662D01*
X75178430Y-68961227D01*
X75185878Y-68943655D01*
X75255068Y-69073101D01*
X75434393Y-69291608D01*
X75652900Y-69470932D01*
X75902193Y-69604182D01*
X76172692Y-69686236D01*
X76454000Y-69713943D01*
X76735309Y-69686236D01*
X77005808Y-69604182D01*
X77255101Y-69470932D01*
X77473608Y-69291608D01*
X77652932Y-69073101D01*
X77736306Y-68917117D01*
X80561000Y-68917117D01*
X80561000Y-69258883D01*
X80627675Y-69594081D01*
X80758463Y-69909831D01*
X80948337Y-70193998D01*
X81190002Y-70435663D01*
X81474169Y-70625537D01*
X81789919Y-70756325D01*
X82125117Y-70823000D01*
X82466883Y-70823000D01*
X82802081Y-70756325D01*
X83117831Y-70625537D01*
X83401998Y-70435663D01*
X83643663Y-70193998D01*
X83833537Y-69909831D01*
X83964325Y-69594081D01*
X84031000Y-69258883D01*
X84031000Y-68917117D01*
X83964325Y-68581919D01*
X83833537Y-68266169D01*
X83643663Y-67982002D01*
X83401998Y-67740337D01*
X83117831Y-67550463D01*
X82802081Y-67419675D01*
X82466883Y-67353000D01*
X82125117Y-67353000D01*
X81789919Y-67419675D01*
X81474169Y-67550463D01*
X81190002Y-67740337D01*
X80948337Y-67982002D01*
X80758463Y-68266169D01*
X80627675Y-68581919D01*
X80561000Y-68917117D01*
X77736306Y-68917117D01*
X77786182Y-68823807D01*
X77868236Y-68553308D01*
X77889000Y-68342491D01*
X77889000Y-67801508D01*
X77868236Y-67590691D01*
X77786182Y-67320192D01*
X77652932Y-67070899D01*
X77473607Y-66852392D01*
X77255100Y-66673068D01*
X77005807Y-66539818D01*
X76735308Y-66457764D01*
X76454000Y-66430057D01*
X76172691Y-66457764D01*
X75902192Y-66539818D01*
X75652899Y-66673068D01*
X75434392Y-66852393D01*
X75255068Y-67070900D01*
X75185878Y-67200345D01*
X75178430Y-67182773D01*
X75019673Y-66949338D01*
X74818425Y-66751361D01*
X74582421Y-66596449D01*
X74320730Y-66490556D01*
X74263039Y-66480096D01*
X74041000Y-66602085D01*
X73787000Y-66602085D01*
X73564961Y-66480096D01*
X73507270Y-66490556D01*
X73245579Y-66596449D01*
X73009575Y-66751361D01*
X72808327Y-66949338D01*
X72649570Y-67182773D01*
X72642122Y-67200345D01*
X72572932Y-67070899D01*
X72393607Y-66852392D01*
X72175100Y-66673068D01*
X71925807Y-66539818D01*
X71655308Y-66457764D01*
X71374000Y-66430057D01*
X71092691Y-66457764D01*
X70822192Y-66539818D01*
X70572899Y-66673068D01*
X70354392Y-66852393D01*
X70175068Y-67070900D01*
X70104000Y-67203858D01*
X70032932Y-67070899D01*
X69853607Y-66852392D01*
X69635100Y-66673068D01*
X69385807Y-66539818D01*
X69115308Y-66457764D01*
X68834000Y-66430057D01*
X68552691Y-66457764D01*
X68282192Y-66539818D01*
X68032899Y-66673068D01*
X67814392Y-66852393D01*
X67635068Y-67070900D01*
X67564000Y-67203858D01*
X67492932Y-67070899D01*
X67313607Y-66852392D01*
X67095100Y-66673068D01*
X66845807Y-66539818D01*
X66575308Y-66457764D01*
X66294000Y-66430057D01*
X66012691Y-66457764D01*
X65742192Y-66539818D01*
X65492899Y-66673068D01*
X65274392Y-66852393D01*
X65095068Y-67070900D01*
X65024000Y-67203858D01*
X64952932Y-67070899D01*
X64773607Y-66852392D01*
X64555100Y-66673068D01*
X64305807Y-66539818D01*
X64035308Y-66457764D01*
X63754000Y-66430057D01*
X63472691Y-66457764D01*
X63202192Y-66539818D01*
X62952899Y-66673068D01*
X62734392Y-66852393D01*
X62555068Y-67070900D01*
X62484000Y-67203858D01*
X62412932Y-67070899D01*
X62233607Y-66852392D01*
X62015100Y-66673068D01*
X61765807Y-66539818D01*
X61495308Y-66457764D01*
X61214000Y-66430057D01*
X60932691Y-66457764D01*
X60662192Y-66539818D01*
X60412899Y-66673068D01*
X60194392Y-66852393D01*
X60015068Y-67070900D01*
X59944000Y-67203858D01*
X59872932Y-67070899D01*
X59693607Y-66852392D01*
X59475100Y-66673068D01*
X59225807Y-66539818D01*
X58955308Y-66457764D01*
X58674000Y-66430057D01*
X58392691Y-66457764D01*
X58122192Y-66539818D01*
X57872899Y-66673068D01*
X57654392Y-66852393D01*
X57475068Y-67070900D01*
X57341818Y-67320193D01*
X57259764Y-67590692D01*
X57239000Y-67801509D01*
X50660000Y-67801509D01*
X50660000Y-60707318D01*
X50937527Y-60606399D01*
X51940271Y-60479723D01*
X51759074Y-60660920D01*
X51443346Y-61133440D01*
X51225869Y-61658477D01*
X51115000Y-62215852D01*
X51115000Y-62784148D01*
X51225869Y-63341523D01*
X51443346Y-63866560D01*
X51759074Y-64339080D01*
X52160920Y-64740926D01*
X52633440Y-65056654D01*
X53158477Y-65274131D01*
X53715852Y-65385000D01*
X54284148Y-65385000D01*
X54841523Y-65274131D01*
X55366560Y-65056654D01*
X55839080Y-64740926D01*
X56240926Y-64339080D01*
X56556654Y-63866560D01*
X56774131Y-63341523D01*
X56885000Y-62784148D01*
X56885000Y-62215852D01*
X56792734Y-61752000D01*
X62323928Y-61752000D01*
X62336188Y-61876482D01*
X62372498Y-61996180D01*
X62431463Y-62106494D01*
X62510815Y-62203185D01*
X62607506Y-62282537D01*
X62717820Y-62341502D01*
X62837518Y-62377812D01*
X62962000Y-62390072D01*
X63976250Y-62387000D01*
X64135000Y-62228250D01*
X64135000Y-60579000D01*
X64389000Y-60579000D01*
X64389000Y-62228250D01*
X64547750Y-62387000D01*
X65562000Y-62390072D01*
X65686482Y-62377812D01*
X65806180Y-62341502D01*
X65916494Y-62282537D01*
X66013185Y-62203185D01*
X66092537Y-62106494D01*
X66151502Y-61996180D01*
X66187812Y-61876482D01*
X66200072Y-61752000D01*
X66198372Y-61190702D01*
X105652903Y-61190702D01*
X105724486Y-61434671D01*
X105979996Y-61555571D01*
X106254184Y-61624300D01*
X106536512Y-61638217D01*
X106816130Y-61596787D01*
X107082292Y-61501603D01*
X107207514Y-61434671D01*
X107279097Y-61190702D01*
X106466000Y-60377605D01*
X105652903Y-61190702D01*
X66198372Y-61190702D01*
X66197000Y-60737750D01*
X66038250Y-60579000D01*
X64389000Y-60579000D01*
X64135000Y-60579000D01*
X62485750Y-60579000D01*
X62327000Y-60737750D01*
X62323928Y-61752000D01*
X56792734Y-61752000D01*
X56774131Y-61658477D01*
X56556654Y-61133440D01*
X56240926Y-60660920D01*
X55839080Y-60259074D01*
X55366560Y-59943346D01*
X54841523Y-59725869D01*
X54506489Y-59659226D01*
X54536046Y-59645317D01*
X54575750Y-59626634D01*
X54575755Y-59626631D01*
X55439104Y-59152000D01*
X62323928Y-59152000D01*
X62327000Y-60166250D01*
X62485750Y-60325000D01*
X64135000Y-60325000D01*
X64135000Y-58675750D01*
X64389000Y-58675750D01*
X64389000Y-60325000D01*
X66038250Y-60325000D01*
X66094738Y-60268512D01*
X105025783Y-60268512D01*
X105067213Y-60548130D01*
X105162397Y-60814292D01*
X105229329Y-60939514D01*
X105473298Y-61011097D01*
X106286395Y-60198000D01*
X106645605Y-60198000D01*
X107458702Y-61011097D01*
X107702671Y-60939514D01*
X107716324Y-60910659D01*
X107851363Y-61112759D01*
X108051241Y-61312637D01*
X108286273Y-61469680D01*
X108547426Y-61577853D01*
X108824665Y-61633000D01*
X109107335Y-61633000D01*
X109384574Y-61577853D01*
X109645727Y-61469680D01*
X109880759Y-61312637D01*
X110080637Y-61112759D01*
X110237680Y-60877727D01*
X110345853Y-60616574D01*
X110401000Y-60339335D01*
X110401000Y-60056665D01*
X110345853Y-59779426D01*
X110237680Y-59518273D01*
X110080637Y-59283241D01*
X109880759Y-59083363D01*
X109645727Y-58926320D01*
X109384574Y-58818147D01*
X109107335Y-58763000D01*
X108824665Y-58763000D01*
X108547426Y-58818147D01*
X108286273Y-58926320D01*
X108051241Y-59083363D01*
X107851363Y-59283241D01*
X107717308Y-59483869D01*
X107702671Y-59456486D01*
X107458702Y-59384903D01*
X106645605Y-60198000D01*
X106286395Y-60198000D01*
X105473298Y-59384903D01*
X105229329Y-59456486D01*
X105108429Y-59711996D01*
X105039700Y-59986184D01*
X105025783Y-60268512D01*
X66094738Y-60268512D01*
X66197000Y-60166250D01*
X66199910Y-59205298D01*
X105652903Y-59205298D01*
X106466000Y-60018395D01*
X107279097Y-59205298D01*
X107207514Y-58961329D01*
X106952004Y-58840429D01*
X106677816Y-58771700D01*
X106395488Y-58757783D01*
X106115870Y-58799213D01*
X105849708Y-58894397D01*
X105724486Y-58961329D01*
X105652903Y-59205298D01*
X66199910Y-59205298D01*
X66200072Y-59152000D01*
X66187812Y-59027518D01*
X66151502Y-58907820D01*
X66092537Y-58797506D01*
X66013185Y-58700815D01*
X65916494Y-58621463D01*
X65806180Y-58562498D01*
X65686482Y-58526188D01*
X65562000Y-58513928D01*
X64547750Y-58517000D01*
X64389000Y-58675750D01*
X64135000Y-58675750D01*
X63976250Y-58517000D01*
X62962000Y-58513928D01*
X62837518Y-58526188D01*
X62717820Y-58562498D01*
X62607506Y-58621463D01*
X62510815Y-58700815D01*
X62431463Y-58797506D01*
X62372498Y-58907820D01*
X62336188Y-59027518D01*
X62323928Y-59152000D01*
X55439104Y-59152000D01*
X55676213Y-59021648D01*
X55676226Y-59021642D01*
X55719037Y-58994472D01*
X55746207Y-58977230D01*
X55746214Y-58977224D01*
X56762179Y-58239083D01*
X56826042Y-58186251D01*
X56826049Y-58186243D01*
X57295609Y-57745297D01*
X57327877Y-57720475D01*
X127625000Y-57720475D01*
X127625000Y-58239525D01*
X127726261Y-58748601D01*
X127924893Y-59228141D01*
X128213262Y-59659715D01*
X128580285Y-60026738D01*
X129011859Y-60315107D01*
X129491399Y-60513739D01*
X130000475Y-60615000D01*
X130519525Y-60615000D01*
X131028601Y-60513739D01*
X131508141Y-60315107D01*
X131939715Y-60026738D01*
X132306738Y-59659715D01*
X132595107Y-59228141D01*
X132793739Y-58748601D01*
X132895000Y-58239525D01*
X132895000Y-57720475D01*
X132793739Y-57211399D01*
X132595107Y-56731859D01*
X132306738Y-56300285D01*
X131939715Y-55933262D01*
X131508141Y-55644893D01*
X131028601Y-55446261D01*
X130519525Y-55345000D01*
X130000475Y-55345000D01*
X129491399Y-55446261D01*
X129011859Y-55644893D01*
X128580285Y-55933262D01*
X128213262Y-56300285D01*
X127924893Y-56731859D01*
X127726261Y-57211399D01*
X127625000Y-57720475D01*
X57327877Y-57720475D01*
X58522903Y-56801224D01*
X63092381Y-56801224D01*
X63224317Y-57096312D01*
X63565045Y-57267159D01*
X63932557Y-57368250D01*
X64312729Y-57395701D01*
X64690951Y-57348457D01*
X65052690Y-57228333D01*
X65299683Y-57096312D01*
X65431619Y-56801224D01*
X64262000Y-55631605D01*
X63092381Y-56801224D01*
X58522903Y-56801224D01*
X59259433Y-56234663D01*
X59277584Y-56217623D01*
X59292061Y-56197368D01*
X59302309Y-56174679D01*
X59307272Y-56154879D01*
X59415963Y-55502729D01*
X62318299Y-55502729D01*
X62365543Y-55880951D01*
X62485667Y-56242690D01*
X62617688Y-56489683D01*
X62912776Y-56621619D01*
X64082395Y-55452000D01*
X64441605Y-55452000D01*
X65611224Y-56621619D01*
X65906312Y-56489683D01*
X66077159Y-56148955D01*
X66178250Y-55781443D01*
X66205701Y-55401271D01*
X66168119Y-55100397D01*
X92785208Y-55100397D01*
X92862843Y-55349472D01*
X93126883Y-55475371D01*
X93410411Y-55547339D01*
X93702531Y-55562611D01*
X93992019Y-55520599D01*
X94267747Y-55422919D01*
X94405157Y-55349472D01*
X94482792Y-55100397D01*
X93634000Y-54251605D01*
X92785208Y-55100397D01*
X66168119Y-55100397D01*
X66158457Y-55023049D01*
X66038333Y-54661310D01*
X65906312Y-54414317D01*
X65611224Y-54282381D01*
X64441605Y-55452000D01*
X64082395Y-55452000D01*
X62912776Y-54282381D01*
X62617688Y-54414317D01*
X62446841Y-54755045D01*
X62345750Y-55122557D01*
X62318299Y-55502729D01*
X59415963Y-55502729D01*
X59550824Y-54693568D01*
X59828829Y-54102776D01*
X63092381Y-54102776D01*
X64262000Y-55272395D01*
X65393864Y-54140531D01*
X92143389Y-54140531D01*
X92185401Y-54430019D01*
X92283081Y-54705747D01*
X92356528Y-54843157D01*
X92605603Y-54920792D01*
X93454395Y-54072000D01*
X93813605Y-54072000D01*
X94662397Y-54920792D01*
X94904689Y-54845271D01*
X95020525Y-55018632D01*
X95227368Y-55225475D01*
X95470589Y-55387990D01*
X95740842Y-55499932D01*
X96027740Y-55557000D01*
X96320260Y-55557000D01*
X96607158Y-55499932D01*
X96877411Y-55387990D01*
X97120632Y-55225475D01*
X97327475Y-55018632D01*
X97444000Y-54844240D01*
X97560525Y-55018632D01*
X97767368Y-55225475D01*
X98010589Y-55387990D01*
X98280842Y-55499932D01*
X98567740Y-55557000D01*
X98860260Y-55557000D01*
X99147158Y-55499932D01*
X99417411Y-55387990D01*
X99660632Y-55225475D01*
X99867475Y-55018632D01*
X99984000Y-54844240D01*
X100100525Y-55018632D01*
X100307368Y-55225475D01*
X100550589Y-55387990D01*
X100820842Y-55499932D01*
X101107740Y-55557000D01*
X101400260Y-55557000D01*
X101687158Y-55499932D01*
X101957411Y-55387990D01*
X102200632Y-55225475D01*
X102407475Y-55018632D01*
X102524000Y-54844240D01*
X102640525Y-55018632D01*
X102847368Y-55225475D01*
X103090589Y-55387990D01*
X103360842Y-55499932D01*
X103647740Y-55557000D01*
X103940260Y-55557000D01*
X104227158Y-55499932D01*
X104497411Y-55387990D01*
X104740632Y-55225475D01*
X104947475Y-55018632D01*
X105064000Y-54844240D01*
X105180525Y-55018632D01*
X105387368Y-55225475D01*
X105630589Y-55387990D01*
X105900842Y-55499932D01*
X106187740Y-55557000D01*
X106480260Y-55557000D01*
X106767158Y-55499932D01*
X107037411Y-55387990D01*
X107280632Y-55225475D01*
X107487475Y-55018632D01*
X107604000Y-54844240D01*
X107720525Y-55018632D01*
X107927368Y-55225475D01*
X108170589Y-55387990D01*
X108440842Y-55499932D01*
X108727740Y-55557000D01*
X109020260Y-55557000D01*
X109307158Y-55499932D01*
X109577411Y-55387990D01*
X109820632Y-55225475D01*
X110027475Y-55018632D01*
X110189990Y-54775411D01*
X110301932Y-54505158D01*
X110359000Y-54218260D01*
X110359000Y-53925740D01*
X110301932Y-53638842D01*
X110189990Y-53368589D01*
X110027475Y-53125368D01*
X109820632Y-52918525D01*
X109577411Y-52756010D01*
X109307158Y-52644068D01*
X109020260Y-52587000D01*
X108727740Y-52587000D01*
X108440842Y-52644068D01*
X108170589Y-52756010D01*
X107927368Y-52918525D01*
X107720525Y-53125368D01*
X107604000Y-53299760D01*
X107487475Y-53125368D01*
X107280632Y-52918525D01*
X107037411Y-52756010D01*
X106767158Y-52644068D01*
X106480260Y-52587000D01*
X106187740Y-52587000D01*
X105900842Y-52644068D01*
X105630589Y-52756010D01*
X105387368Y-52918525D01*
X105180525Y-53125368D01*
X105064000Y-53299760D01*
X104947475Y-53125368D01*
X104740632Y-52918525D01*
X104497411Y-52756010D01*
X104227158Y-52644068D01*
X103940260Y-52587000D01*
X103647740Y-52587000D01*
X103360842Y-52644068D01*
X103090589Y-52756010D01*
X102847368Y-52918525D01*
X102640525Y-53125368D01*
X102524000Y-53299760D01*
X102407475Y-53125368D01*
X102200632Y-52918525D01*
X101957411Y-52756010D01*
X101687158Y-52644068D01*
X101400260Y-52587000D01*
X101107740Y-52587000D01*
X100820842Y-52644068D01*
X100550589Y-52756010D01*
X100307368Y-52918525D01*
X100100525Y-53125368D01*
X99984000Y-53299760D01*
X99867475Y-53125368D01*
X99660632Y-52918525D01*
X99417411Y-52756010D01*
X99147158Y-52644068D01*
X98860260Y-52587000D01*
X98567740Y-52587000D01*
X98280842Y-52644068D01*
X98010589Y-52756010D01*
X97767368Y-52918525D01*
X97560525Y-53125368D01*
X97444000Y-53299760D01*
X97327475Y-53125368D01*
X97120632Y-52918525D01*
X96877411Y-52756010D01*
X96607158Y-52644068D01*
X96320260Y-52587000D01*
X96027740Y-52587000D01*
X95740842Y-52644068D01*
X95470589Y-52756010D01*
X95227368Y-52918525D01*
X95020525Y-53125368D01*
X94904689Y-53298729D01*
X94662397Y-53223208D01*
X93813605Y-54072000D01*
X93454395Y-54072000D01*
X92605603Y-53223208D01*
X92356528Y-53300843D01*
X92230629Y-53564883D01*
X92158661Y-53848411D01*
X92143389Y-54140531D01*
X65393864Y-54140531D01*
X65431619Y-54102776D01*
X65299683Y-53807688D01*
X64958955Y-53636841D01*
X64591443Y-53535750D01*
X64211271Y-53508299D01*
X63833049Y-53555543D01*
X63471310Y-53675667D01*
X63224317Y-53807688D01*
X63092381Y-54102776D01*
X59828829Y-54102776D01*
X59894951Y-53962261D01*
X59925463Y-53885197D01*
X59925467Y-53885182D01*
X60198912Y-53043603D01*
X92785208Y-53043603D01*
X93634000Y-53892395D01*
X94482792Y-53043603D01*
X94405157Y-52794528D01*
X94141117Y-52668629D01*
X93857589Y-52596661D01*
X93565469Y-52581389D01*
X93275981Y-52623401D01*
X93000253Y-52721081D01*
X92862843Y-52794528D01*
X92785208Y-53043603D01*
X60198912Y-53043603D01*
X60313524Y-52690864D01*
X60313530Y-52690850D01*
X60334142Y-52610570D01*
X60569457Y-51377003D01*
X60579845Y-51294773D01*
X60619782Y-50660000D01*
X111211025Y-50660000D01*
X111170498Y-50735820D01*
%TA.AperFunction,Conductor*%
D25*
G36*
X111170498Y-50735820D02*
G01*
X111134188Y-50855518D01*
X111121928Y-50980000D01*
X111121928Y-53980000D01*
X111134188Y-54104482D01*
X111170498Y-54224180D01*
X111229463Y-54334494D01*
X111308815Y-54431185D01*
X111405506Y-54510537D01*
X111515820Y-54569502D01*
X111635518Y-54605812D01*
X111760000Y-54618072D01*
X114760000Y-54618072D01*
X114884482Y-54605812D01*
X115004180Y-54569502D01*
X115114494Y-54510537D01*
X115211185Y-54431185D01*
X115290537Y-54334494D01*
X115349502Y-54224180D01*
X115385812Y-54104482D01*
X115398072Y-53980000D01*
X128621928Y-53980000D01*
X128634188Y-54104482D01*
X128670498Y-54224180D01*
X128729463Y-54334494D01*
X128808815Y-54431185D01*
X128905506Y-54510537D01*
X129015820Y-54569502D01*
X129135518Y-54605812D01*
X129260000Y-54618072D01*
X130474250Y-54615000D01*
X130633000Y-54456250D01*
X130633000Y-52607000D01*
X130887000Y-52607000D01*
X130887000Y-54456250D01*
X131045750Y-54615000D01*
X132260000Y-54618072D01*
X132384482Y-54605812D01*
X132504180Y-54569502D01*
X132614494Y-54510537D01*
X132711185Y-54431185D01*
X132790537Y-54334494D01*
X132849502Y-54224180D01*
X132885812Y-54104482D01*
X132898072Y-53980000D01*
X132895000Y-52765750D01*
X132736250Y-52607000D01*
X130887000Y-52607000D01*
X130633000Y-52607000D01*
X128783750Y-52607000D01*
X128625000Y-52765750D01*
X128621928Y-53980000D01*
X115398072Y-53980000D01*
X115398072Y-50980000D01*
X115385812Y-50855518D01*
X115349502Y-50735820D01*
X115308975Y-50660000D01*
X128711025Y-50660000D01*
X128670498Y-50735820D01*
X128634188Y-50855518D01*
X128621928Y-50980000D01*
X128625000Y-52194250D01*
X128783750Y-52353000D01*
X130633000Y-52353000D01*
X130633000Y-52333000D01*
X130887000Y-52333000D01*
X130887000Y-52353000D01*
X132736250Y-52353000D01*
X132895000Y-52194250D01*
X132898072Y-50980000D01*
X132885812Y-50855518D01*
X132849502Y-50735820D01*
X132808975Y-50660000D01*
X134261133Y-50660000D01*
X134262984Y-50679588D01*
X134264937Y-50710625D01*
X134422331Y-51956531D01*
X134422331Y-51956533D01*
X134437862Y-52037949D01*
X134750170Y-53254306D01*
X134773985Y-53327601D01*
X134775782Y-53333132D01*
X135238074Y-54500750D01*
X135238076Y-54500756D01*
X135242679Y-54510537D01*
X135273366Y-54575750D01*
X135273367Y-54575751D01*
X135878352Y-55676213D01*
X135878358Y-55676226D01*
X135903310Y-55715543D01*
X135922770Y-55746207D01*
X135922776Y-55746214D01*
X136289399Y-56250828D01*
X136540982Y-56703677D01*
X136555148Y-56724150D01*
X136570697Y-56739564D01*
X136855111Y-56976575D01*
X137573402Y-57741478D01*
X137573409Y-57741487D01*
X137633829Y-57798225D01*
X138601438Y-58598701D01*
X138601447Y-58598709D01*
X138668501Y-58647426D01*
X139472130Y-59157425D01*
X139618697Y-59279564D01*
X139639293Y-59293551D01*
X139664165Y-59303839D01*
X139738715Y-59325766D01*
X139801449Y-59360253D01*
X140937739Y-59894951D01*
X141014803Y-59925463D01*
X141014818Y-59925467D01*
X142209136Y-60313524D01*
X142209150Y-60313530D01*
X142273028Y-60329931D01*
X142289429Y-60334142D01*
X142289432Y-60334142D01*
X143522993Y-60569456D01*
X143522996Y-60569457D01*
X143605226Y-60579845D01*
X144846940Y-60657967D01*
X144867581Y-60660000D01*
X152340000Y-60660000D01*
X152340001Y-92361133D01*
X152320412Y-92362984D01*
X152289375Y-92364937D01*
X151059729Y-92520277D01*
X151240926Y-92339080D01*
X151556654Y-91866560D01*
X151774131Y-91341523D01*
X151885000Y-90784148D01*
X151885000Y-90215852D01*
X151774131Y-89658477D01*
X151556654Y-89133440D01*
X151240926Y-88660920D01*
X150839080Y-88259074D01*
X150366560Y-87943346D01*
X149841523Y-87725869D01*
X149284148Y-87615000D01*
X148715852Y-87615000D01*
X148158477Y-87725869D01*
X147633440Y-87943346D01*
X147160920Y-88259074D01*
X146759074Y-88660920D01*
X146443346Y-89133440D01*
X146225869Y-89658477D01*
X146115000Y-90215852D01*
X146115000Y-90784148D01*
X146225869Y-91341523D01*
X146443346Y-91866560D01*
X146759074Y-92339080D01*
X147160920Y-92740926D01*
X147633440Y-93056654D01*
X148158477Y-93274131D01*
X148493512Y-93340774D01*
X148424250Y-93373366D01*
X148424238Y-93373373D01*
X147323781Y-93978355D01*
X147323775Y-93978358D01*
X147321188Y-93980000D01*
X147253793Y-94022770D01*
X147253786Y-94022776D01*
X146237833Y-94760909D01*
X146237822Y-94760916D01*
X146173959Y-94813749D01*
X145258522Y-95673402D01*
X145258513Y-95673409D01*
X145201775Y-95733829D01*
X144915881Y-96079416D01*
X144451302Y-96417291D01*
X144432700Y-96433837D01*
X144417683Y-96453694D01*
X144405517Y-96479839D01*
X144261415Y-96912146D01*
X143679684Y-97828806D01*
X143679676Y-97828817D01*
X143639747Y-97901449D01*
X143105049Y-99037740D01*
X143074537Y-99114803D01*
X143074533Y-99114818D01*
X142686476Y-100309136D01*
X142686470Y-100309150D01*
X142665858Y-100389429D01*
X142430544Y-101622993D01*
X142430543Y-101622996D01*
X142420155Y-101705226D01*
X142380218Y-102340000D01*
X68738867Y-102340000D01*
X68737016Y-102320412D01*
X68735063Y-102289375D01*
X68577669Y-101043467D01*
X68562138Y-100962052D01*
X68562138Y-100962051D01*
X68249830Y-99745694D01*
X68224218Y-99666867D01*
X68224216Y-99666862D01*
X68124229Y-99414321D01*
X131487000Y-99414321D01*
X131510657Y-99654515D01*
X131604148Y-99962714D01*
X131755969Y-100246751D01*
X131960286Y-100495714D01*
X132209248Y-100700031D01*
X132493285Y-100851852D01*
X132801484Y-100945343D01*
X133122000Y-100976911D01*
X133442515Y-100945343D01*
X133750714Y-100851852D01*
X134034751Y-100700031D01*
X134283714Y-100495714D01*
X134488031Y-100246752D01*
X134639852Y-99962715D01*
X134733343Y-99654516D01*
X134740288Y-99584000D01*
X135033928Y-99584000D01*
X135033928Y-101584000D01*
X135046188Y-101708482D01*
X135082498Y-101828180D01*
X135141463Y-101938494D01*
X135220815Y-102035185D01*
X135317506Y-102114537D01*
X135427820Y-102173502D01*
X135547518Y-102209812D01*
X135672000Y-102222072D01*
X140172000Y-102222072D01*
X140296482Y-102209812D01*
X140416180Y-102173502D01*
X140526494Y-102114537D01*
X140623185Y-102035185D01*
X140702537Y-101938494D01*
X140761502Y-101828180D01*
X140797812Y-101708482D01*
X140810072Y-101584000D01*
X140810072Y-99584000D01*
X140797812Y-99459518D01*
X140761502Y-99339820D01*
X140702537Y-99229506D01*
X140623185Y-99132815D01*
X140526494Y-99053463D01*
X140416180Y-98994498D01*
X140296482Y-98958188D01*
X140172000Y-98945928D01*
X135672000Y-98945928D01*
X135547518Y-98958188D01*
X135427820Y-98994498D01*
X135317506Y-99053463D01*
X135220815Y-99132815D01*
X135141463Y-99229506D01*
X135082498Y-99339820D01*
X135046188Y-99459518D01*
X135033928Y-99584000D01*
X134740288Y-99584000D01*
X134757000Y-99414322D01*
X134757000Y-96753678D01*
X134733343Y-96513484D01*
X134639852Y-96205285D01*
X134488031Y-95921248D01*
X134283714Y-95672286D01*
X134034752Y-95467969D01*
X133750715Y-95316148D01*
X133442516Y-95222657D01*
X133122000Y-95191089D01*
X132801485Y-95222657D01*
X132493286Y-95316148D01*
X132209249Y-95467969D01*
X131960287Y-95672286D01*
X131755970Y-95921248D01*
X131604149Y-96205285D01*
X131510658Y-96513484D01*
X131487001Y-96753678D01*
X131487000Y-99414321D01*
X68124229Y-99414321D01*
X67761924Y-98499245D01*
X67726634Y-98424250D01*
X67726627Y-98424238D01*
X67412690Y-97853190D01*
X67178525Y-96994584D01*
X67169652Y-96971323D01*
X67156411Y-96950239D01*
X67140374Y-96933079D01*
X66285680Y-96173351D01*
X65955194Y-95821419D01*
X86269000Y-95821419D01*
X86269000Y-96202581D01*
X86343361Y-96576419D01*
X86489225Y-96928566D01*
X86700987Y-97245491D01*
X86970509Y-97515013D01*
X87287434Y-97726775D01*
X87639581Y-97872639D01*
X88013419Y-97947000D01*
X88394581Y-97947000D01*
X88768419Y-97872639D01*
X89120566Y-97726775D01*
X89437491Y-97515013D01*
X89707013Y-97245491D01*
X89918775Y-96928566D01*
X90064639Y-96576419D01*
X90139000Y-96202581D01*
X90139000Y-95821419D01*
X91269000Y-95821419D01*
X91269000Y-96202581D01*
X91343361Y-96576419D01*
X91489225Y-96928566D01*
X91700987Y-97245491D01*
X91970509Y-97515013D01*
X92287434Y-97726775D01*
X92639581Y-97872639D01*
X93013419Y-97947000D01*
X93394581Y-97947000D01*
X93768419Y-97872639D01*
X94120566Y-97726775D01*
X94437491Y-97515013D01*
X94707013Y-97245491D01*
X94918775Y-96928566D01*
X95064639Y-96576419D01*
X95139000Y-96202581D01*
X95139000Y-95821419D01*
X96269000Y-95821419D01*
X96269000Y-96202581D01*
X96343361Y-96576419D01*
X96489225Y-96928566D01*
X96700987Y-97245491D01*
X96970509Y-97515013D01*
X97287434Y-97726775D01*
X97639581Y-97872639D01*
X98013419Y-97947000D01*
X98394581Y-97947000D01*
X98768419Y-97872639D01*
X99120566Y-97726775D01*
X99437491Y-97515013D01*
X99707013Y-97245491D01*
X99918775Y-96928566D01*
X100064639Y-96576419D01*
X100139000Y-96202581D01*
X100139000Y-95821419D01*
X101269000Y-95821419D01*
X101269000Y-96202581D01*
X101343361Y-96576419D01*
X101489225Y-96928566D01*
X101700987Y-97245491D01*
X101970509Y-97515013D01*
X102287434Y-97726775D01*
X102639581Y-97872639D01*
X103013419Y-97947000D01*
X103394581Y-97947000D01*
X103768419Y-97872639D01*
X104120566Y-97726775D01*
X104437491Y-97515013D01*
X104707013Y-97245491D01*
X104918775Y-96928566D01*
X105064639Y-96576419D01*
X105139000Y-96202581D01*
X105139000Y-95821419D01*
X105064639Y-95447581D01*
X104918775Y-95095434D01*
X104707013Y-94778509D01*
X104640504Y-94712000D01*
X106265928Y-94712000D01*
X106265928Y-97312000D01*
X106278188Y-97436482D01*
X106314498Y-97556180D01*
X106373463Y-97666494D01*
X106452815Y-97763185D01*
X106549506Y-97842537D01*
X106659820Y-97901502D01*
X106779518Y-97937812D01*
X106904000Y-97950072D01*
X109504000Y-97950072D01*
X109628482Y-97937812D01*
X109748180Y-97901502D01*
X109858494Y-97842537D01*
X109955185Y-97763185D01*
X110034537Y-97666494D01*
X110093502Y-97556180D01*
X110129812Y-97436482D01*
X110142072Y-97312000D01*
X110142072Y-94964434D01*
X135081876Y-94964434D01*
X135112856Y-95092355D01*
X135241990Y-95386761D01*
X135426078Y-95650317D01*
X135658046Y-95872895D01*
X135928980Y-96045942D01*
X136228468Y-96162807D01*
X136545000Y-96219000D01*
X137795000Y-96219000D01*
X137795000Y-94711000D01*
X138049000Y-94711000D01*
X138049000Y-96219000D01*
X139299000Y-96219000D01*
X139615532Y-96162807D01*
X139915020Y-96045942D01*
X140185954Y-95872895D01*
X140417922Y-95650317D01*
X140602010Y-95386761D01*
X140731144Y-95092355D01*
X140762124Y-94964434D01*
X140642777Y-94711000D01*
X138049000Y-94711000D01*
X137795000Y-94711000D01*
X135201223Y-94711000D01*
X135081876Y-94964434D01*
X110142072Y-94964434D01*
X110142072Y-94712000D01*
X110129812Y-94587518D01*
X110093502Y-94467820D01*
X110034537Y-94357506D01*
X109955185Y-94260815D01*
X109858494Y-94181463D01*
X109748180Y-94122498D01*
X109628482Y-94086188D01*
X109504000Y-94073928D01*
X106904000Y-94073928D01*
X106779518Y-94086188D01*
X106659820Y-94122498D01*
X106549506Y-94181463D01*
X106452815Y-94260815D01*
X106373463Y-94357506D01*
X106314498Y-94467820D01*
X106278188Y-94587518D01*
X106265928Y-94712000D01*
X104640504Y-94712000D01*
X104437491Y-94508987D01*
X104120566Y-94297225D01*
X103768419Y-94151361D01*
X103394581Y-94077000D01*
X103013419Y-94077000D01*
X102639581Y-94151361D01*
X102287434Y-94297225D01*
X101970509Y-94508987D01*
X101700987Y-94778509D01*
X101489225Y-95095434D01*
X101343361Y-95447581D01*
X101269000Y-95821419D01*
X100139000Y-95821419D01*
X100064639Y-95447581D01*
X99918775Y-95095434D01*
X99707013Y-94778509D01*
X99437491Y-94508987D01*
X99120566Y-94297225D01*
X98768419Y-94151361D01*
X98394581Y-94077000D01*
X98013419Y-94077000D01*
X97639581Y-94151361D01*
X97287434Y-94297225D01*
X96970509Y-94508987D01*
X96700987Y-94778509D01*
X96489225Y-95095434D01*
X96343361Y-95447581D01*
X96269000Y-95821419D01*
X95139000Y-95821419D01*
X95064639Y-95447581D01*
X94918775Y-95095434D01*
X94707013Y-94778509D01*
X94437491Y-94508987D01*
X94120566Y-94297225D01*
X93768419Y-94151361D01*
X93394581Y-94077000D01*
X93013419Y-94077000D01*
X92639581Y-94151361D01*
X92287434Y-94297225D01*
X91970509Y-94508987D01*
X91700987Y-94778509D01*
X91489225Y-95095434D01*
X91343361Y-95447581D01*
X91269000Y-95821419D01*
X90139000Y-95821419D01*
X90064639Y-95447581D01*
X89918775Y-95095434D01*
X89707013Y-94778509D01*
X89437491Y-94508987D01*
X89120566Y-94297225D01*
X88768419Y-94151361D01*
X88394581Y-94077000D01*
X88013419Y-94077000D01*
X87639581Y-94151361D01*
X87287434Y-94297225D01*
X86970509Y-94508987D01*
X86700987Y-94778509D01*
X86489225Y-95095434D01*
X86343361Y-95447581D01*
X86269000Y-95821419D01*
X65955194Y-95821419D01*
X65426598Y-95258522D01*
X65426591Y-95258513D01*
X65366171Y-95201775D01*
X64398553Y-94401291D01*
X64331499Y-94352573D01*
X64331487Y-94352567D01*
X64002215Y-94143605D01*
X62568374Y-92869079D01*
X62548235Y-92854442D01*
X62525627Y-92844016D01*
X62489287Y-92837110D01*
X61072825Y-92778091D01*
X60790864Y-92686476D01*
X60790850Y-92686470D01*
X60710571Y-92665858D01*
X59927556Y-92516490D01*
X60028494Y-92462537D01*
X60125185Y-92383185D01*
X60204537Y-92286494D01*
X60251559Y-92198523D01*
X60412900Y-92330932D01*
X60662193Y-92464182D01*
X60932692Y-92546236D01*
X61214000Y-92573943D01*
X61495309Y-92546236D01*
X61765808Y-92464182D01*
X62015101Y-92330932D01*
X62233608Y-92151608D01*
X62412932Y-91933101D01*
X62484000Y-91800142D01*
X62555068Y-91933101D01*
X62734393Y-92151608D01*
X62952900Y-92330932D01*
X63202193Y-92464182D01*
X63472692Y-92546236D01*
X63754000Y-92573943D01*
X64035309Y-92546236D01*
X64305808Y-92464182D01*
X64555101Y-92330932D01*
X64773608Y-92151608D01*
X64952932Y-91933101D01*
X65024000Y-91800142D01*
X65095068Y-91933101D01*
X65274393Y-92151608D01*
X65492900Y-92330932D01*
X65742193Y-92464182D01*
X66012692Y-92546236D01*
X66294000Y-92573943D01*
X66575309Y-92546236D01*
X66845808Y-92464182D01*
X67095101Y-92330932D01*
X67313608Y-92151608D01*
X67492932Y-91933101D01*
X67564000Y-91800142D01*
X67635068Y-91933101D01*
X67814393Y-92151608D01*
X68032900Y-92330932D01*
X68282193Y-92464182D01*
X68552692Y-92546236D01*
X68834000Y-92573943D01*
X69115309Y-92546236D01*
X69385808Y-92464182D01*
X69635101Y-92330932D01*
X69853608Y-92151608D01*
X70032932Y-91933101D01*
X70104000Y-91800142D01*
X70175068Y-91933101D01*
X70354393Y-92151608D01*
X70572900Y-92330932D01*
X70822193Y-92464182D01*
X71092692Y-92546236D01*
X71374000Y-92573943D01*
X71655309Y-92546236D01*
X71925808Y-92464182D01*
X72175101Y-92330932D01*
X72393608Y-92151608D01*
X72572932Y-91933101D01*
X72644000Y-91800142D01*
X72715068Y-91933101D01*
X72894393Y-92151608D01*
X73112900Y-92330932D01*
X73362193Y-92464182D01*
X73632692Y-92546236D01*
X73914000Y-92573943D01*
X74195309Y-92546236D01*
X74465808Y-92464182D01*
X74715101Y-92330932D01*
X74933608Y-92151608D01*
X75112932Y-91933101D01*
X75184000Y-91800142D01*
X75255068Y-91933101D01*
X75434393Y-92151608D01*
X75652900Y-92330932D01*
X75902193Y-92464182D01*
X76172692Y-92546236D01*
X76454000Y-92573943D01*
X76735309Y-92546236D01*
X77005808Y-92464182D01*
X77255101Y-92330932D01*
X77473608Y-92151608D01*
X77652932Y-91933101D01*
X77786182Y-91683807D01*
X77868236Y-91413308D01*
X77889000Y-91202491D01*
X77889000Y-90980000D01*
X111121928Y-90980000D01*
X111121928Y-93980000D01*
X111134188Y-94104482D01*
X111170498Y-94224180D01*
X111229463Y-94334494D01*
X111308815Y-94431185D01*
X111405506Y-94510537D01*
X111515820Y-94569502D01*
X111635518Y-94605812D01*
X111760000Y-94618072D01*
X114760000Y-94618072D01*
X114884482Y-94605812D01*
X115004180Y-94569502D01*
X115114494Y-94510537D01*
X115211185Y-94431185D01*
X115290537Y-94334494D01*
X115349502Y-94224180D01*
X115385812Y-94104482D01*
X115398072Y-93980000D01*
X128621928Y-93980000D01*
X128634188Y-94104482D01*
X128670498Y-94224180D01*
X128729463Y-94334494D01*
X128808815Y-94431185D01*
X128905506Y-94510537D01*
X129015820Y-94569502D01*
X129135518Y-94605812D01*
X129260000Y-94618072D01*
X130474250Y-94615000D01*
X130633000Y-94456250D01*
X130633000Y-92607000D01*
X130887000Y-92607000D01*
X130887000Y-94456250D01*
X131045750Y-94615000D01*
X132260000Y-94618072D01*
X132384482Y-94605812D01*
X132504180Y-94569502D01*
X132614494Y-94510537D01*
X132711185Y-94431185D01*
X132790537Y-94334494D01*
X132849502Y-94224180D01*
X132855755Y-94203566D01*
X135081876Y-94203566D01*
X135201223Y-94457000D01*
X137795000Y-94457000D01*
X137795000Y-92949000D01*
X138049000Y-92949000D01*
X138049000Y-94457000D01*
X140642777Y-94457000D01*
X140762124Y-94203566D01*
X140731144Y-94075645D01*
X140602010Y-93781239D01*
X140417922Y-93517683D01*
X140185954Y-93295105D01*
X139915020Y-93122058D01*
X139615532Y-93005193D01*
X139299000Y-92949000D01*
X138049000Y-92949000D01*
X137795000Y-92949000D01*
X136545000Y-92949000D01*
X136228468Y-93005193D01*
X135928980Y-93122058D01*
X135658046Y-93295105D01*
X135426078Y-93517683D01*
X135241990Y-93781239D01*
X135112856Y-94075645D01*
X135081876Y-94203566D01*
X132855755Y-94203566D01*
X132885812Y-94104482D01*
X132898072Y-93980000D01*
X132895000Y-92765750D01*
X132736250Y-92607000D01*
X130887000Y-92607000D01*
X130633000Y-92607000D01*
X128783750Y-92607000D01*
X128625000Y-92765750D01*
X128621928Y-93980000D01*
X115398072Y-93980000D01*
X115398072Y-90980000D01*
X128621928Y-90980000D01*
X128625000Y-92194250D01*
X128783750Y-92353000D01*
X130633000Y-92353000D01*
X130633000Y-90503750D01*
X130887000Y-90503750D01*
X130887000Y-92353000D01*
X132736250Y-92353000D01*
X132895000Y-92194250D01*
X132898072Y-90980000D01*
X132885812Y-90855518D01*
X132849502Y-90735820D01*
X132790537Y-90625506D01*
X132711185Y-90528815D01*
X132614494Y-90449463D01*
X132504180Y-90390498D01*
X132384482Y-90354188D01*
X132260000Y-90341928D01*
X131045750Y-90345000D01*
X130887000Y-90503750D01*
X130633000Y-90503750D01*
X130474250Y-90345000D01*
X129260000Y-90341928D01*
X129135518Y-90354188D01*
X129015820Y-90390498D01*
X128905506Y-90449463D01*
X128808815Y-90528815D01*
X128729463Y-90625506D01*
X128670498Y-90735820D01*
X128634188Y-90855518D01*
X128621928Y-90980000D01*
X115398072Y-90980000D01*
X115385812Y-90855518D01*
X115349502Y-90735820D01*
X115290537Y-90625506D01*
X115211185Y-90528815D01*
X115114494Y-90449463D01*
X115004180Y-90390498D01*
X114884482Y-90354188D01*
X114760000Y-90341928D01*
X111760000Y-90341928D01*
X111635518Y-90354188D01*
X111515820Y-90390498D01*
X111405506Y-90449463D01*
X111308815Y-90528815D01*
X111229463Y-90625506D01*
X111170498Y-90735820D01*
X111134188Y-90855518D01*
X111121928Y-90980000D01*
X77889000Y-90980000D01*
X77889000Y-90661508D01*
X77868236Y-90450691D01*
X77786182Y-90180192D01*
X77652932Y-89930899D01*
X77473607Y-89712392D01*
X77255100Y-89533068D01*
X77005807Y-89399818D01*
X76735308Y-89317764D01*
X76454000Y-89290057D01*
X76172691Y-89317764D01*
X75902192Y-89399818D01*
X75652899Y-89533068D01*
X75434392Y-89712393D01*
X75255068Y-89930900D01*
X75184000Y-90063858D01*
X75112932Y-89930899D01*
X74933607Y-89712392D01*
X74715100Y-89533068D01*
X74465807Y-89399818D01*
X74195308Y-89317764D01*
X73914000Y-89290057D01*
X73632691Y-89317764D01*
X73362192Y-89399818D01*
X73112899Y-89533068D01*
X72894392Y-89712393D01*
X72715068Y-89930900D01*
X72644000Y-90063858D01*
X72572932Y-89930899D01*
X72393607Y-89712392D01*
X72175100Y-89533068D01*
X71925807Y-89399818D01*
X71655308Y-89317764D01*
X71374000Y-89290057D01*
X71092691Y-89317764D01*
X70822192Y-89399818D01*
X70572899Y-89533068D01*
X70354392Y-89712393D01*
X70175068Y-89930900D01*
X70104000Y-90063858D01*
X70032932Y-89930899D01*
X69853607Y-89712392D01*
X69635100Y-89533068D01*
X69385807Y-89399818D01*
X69115308Y-89317764D01*
X68834000Y-89290057D01*
X68552691Y-89317764D01*
X68282192Y-89399818D01*
X68032899Y-89533068D01*
X67814392Y-89712393D01*
X67635068Y-89930900D01*
X67564000Y-90063858D01*
X67492932Y-89930899D01*
X67313607Y-89712392D01*
X67095100Y-89533068D01*
X66845807Y-89399818D01*
X66575308Y-89317764D01*
X66294000Y-89290057D01*
X66012691Y-89317764D01*
X65742192Y-89399818D01*
X65492899Y-89533068D01*
X65274392Y-89712393D01*
X65095068Y-89930900D01*
X65024000Y-90063858D01*
X64952932Y-89930899D01*
X64773607Y-89712392D01*
X64555100Y-89533068D01*
X64305807Y-89399818D01*
X64035308Y-89317764D01*
X63754000Y-89290057D01*
X63472691Y-89317764D01*
X63202192Y-89399818D01*
X62952899Y-89533068D01*
X62734392Y-89712393D01*
X62555068Y-89930900D01*
X62484000Y-90063858D01*
X62412932Y-89930899D01*
X62233607Y-89712392D01*
X62015100Y-89533068D01*
X61765807Y-89399818D01*
X61495308Y-89317764D01*
X61214000Y-89290057D01*
X60932691Y-89317764D01*
X60662192Y-89399818D01*
X60412899Y-89533068D01*
X60251559Y-89665477D01*
X60204537Y-89577506D01*
X60125185Y-89480815D01*
X60028494Y-89401463D01*
X59918180Y-89342498D01*
X59798482Y-89306188D01*
X59674000Y-89293928D01*
X57674000Y-89293928D01*
X57549518Y-89306188D01*
X57429820Y-89342498D01*
X57319506Y-89401463D01*
X57222815Y-89480815D01*
X57143463Y-89577506D01*
X57084498Y-89687820D01*
X57048188Y-89807518D01*
X57035928Y-89932000D01*
X57035928Y-91932000D01*
X57048188Y-92056482D01*
X57084498Y-92176180D01*
X57143463Y-92286494D01*
X57187374Y-92340000D01*
X50660000Y-92340000D01*
X50660000Y-87220475D01*
X111125000Y-87220475D01*
X111125000Y-87739525D01*
X111226261Y-88248601D01*
X111424893Y-88728141D01*
X111713262Y-89159715D01*
X112080285Y-89526738D01*
X112511859Y-89815107D01*
X112991399Y-90013739D01*
X113500475Y-90115000D01*
X114019525Y-90115000D01*
X114528601Y-90013739D01*
X115008141Y-89815107D01*
X115439715Y-89526738D01*
X115806738Y-89159715D01*
X116095107Y-88728141D01*
X116293739Y-88248601D01*
X116395000Y-87739525D01*
X116395000Y-87220475D01*
X116293739Y-86711399D01*
X116095107Y-86231859D01*
X115806738Y-85800285D01*
X115439715Y-85433262D01*
X115008141Y-85144893D01*
X114528601Y-84946261D01*
X114019525Y-84845000D01*
X113500475Y-84845000D01*
X112991399Y-84946261D01*
X112511859Y-85144893D01*
X112080285Y-85433262D01*
X111713262Y-85800285D01*
X111424893Y-86231859D01*
X111226261Y-86711399D01*
X111125000Y-87220475D01*
X50660000Y-87220475D01*
X50660000Y-84186665D01*
X60795000Y-84186665D01*
X60795000Y-84469335D01*
X60850147Y-84746574D01*
X60958320Y-85007727D01*
X61115363Y-85242759D01*
X61315241Y-85442637D01*
X61550273Y-85599680D01*
X61811426Y-85707853D01*
X62088665Y-85763000D01*
X62371335Y-85763000D01*
X62648574Y-85707853D01*
X62909727Y-85599680D01*
X63144759Y-85442637D01*
X63344637Y-85242759D01*
X63501680Y-85007727D01*
X63609853Y-84746574D01*
X63665000Y-84469335D01*
X63665000Y-84186665D01*
X65875000Y-84186665D01*
X65875000Y-84469335D01*
X65930147Y-84746574D01*
X66038320Y-85007727D01*
X66195363Y-85242759D01*
X66395241Y-85442637D01*
X66630273Y-85599680D01*
X66891426Y-85707853D01*
X67168665Y-85763000D01*
X67451335Y-85763000D01*
X67728574Y-85707853D01*
X67989727Y-85599680D01*
X68224759Y-85442637D01*
X68424637Y-85242759D01*
X68581680Y-85007727D01*
X68689853Y-84746574D01*
X68745000Y-84469335D01*
X68745000Y-84186665D01*
X68689853Y-83909426D01*
X68581680Y-83648273D01*
X68424637Y-83413241D01*
X68224759Y-83213363D01*
X67989727Y-83056320D01*
X67728574Y-82948147D01*
X67451335Y-82893000D01*
X67168665Y-82893000D01*
X66891426Y-82948147D01*
X66630273Y-83056320D01*
X66395241Y-83213363D01*
X66195363Y-83413241D01*
X66038320Y-83648273D01*
X65930147Y-83909426D01*
X65875000Y-84186665D01*
X63665000Y-84186665D01*
X63609853Y-83909426D01*
X63501680Y-83648273D01*
X63344637Y-83413241D01*
X63144759Y-83213363D01*
X62909727Y-83056320D01*
X62648574Y-82948147D01*
X62371335Y-82893000D01*
X62088665Y-82893000D01*
X61811426Y-82948147D01*
X61550273Y-83056320D01*
X61315241Y-83213363D01*
X61115363Y-83413241D01*
X60958320Y-83648273D01*
X60850147Y-83909426D01*
X60795000Y-84186665D01*
X50660000Y-84186665D01*
X50660000Y-78148000D01*
X80557928Y-78148000D01*
X80557928Y-80348000D01*
X80570188Y-80472482D01*
X80606498Y-80592180D01*
X80665463Y-80702494D01*
X80744815Y-80799185D01*
X80841506Y-80878537D01*
X80951820Y-80937502D01*
X81071518Y-80973812D01*
X81196000Y-80986072D01*
X83396000Y-80986072D01*
X83520482Y-80973812D01*
X83640180Y-80937502D01*
X83750494Y-80878537D01*
X83847185Y-80799185D01*
X83926537Y-80702494D01*
X83985502Y-80592180D01*
X84021812Y-80472482D01*
X84034072Y-80348000D01*
X84034072Y-78148000D01*
X84021812Y-78023518D01*
X83985502Y-77903820D01*
X83926537Y-77793506D01*
X83847185Y-77696815D01*
X83750494Y-77617463D01*
X83640180Y-77558498D01*
X83520482Y-77522188D01*
X83396000Y-77509928D01*
X81196000Y-77509928D01*
X81071518Y-77522188D01*
X80951820Y-77558498D01*
X80841506Y-77617463D01*
X80744815Y-77696815D01*
X80665463Y-77793506D01*
X80606498Y-77903820D01*
X80570188Y-78023518D01*
X80557928Y-78148000D01*
X50660000Y-78148000D01*
X50660000Y-74026665D01*
X60795000Y-74026665D01*
X60795000Y-74309335D01*
X60850147Y-74586574D01*
X60958320Y-74847727D01*
X61115363Y-75082759D01*
X61315241Y-75282637D01*
X61550273Y-75439680D01*
X61811426Y-75547853D01*
X62088665Y-75603000D01*
X62371335Y-75603000D01*
X62648574Y-75547853D01*
X62909727Y-75439680D01*
X63144759Y-75282637D01*
X63344637Y-75082759D01*
X63501680Y-74847727D01*
X63609853Y-74586574D01*
X63665000Y-74309335D01*
X63665000Y-74026665D01*
X65875000Y-74026665D01*
X65875000Y-74309335D01*
X65930147Y-74586574D01*
X66038320Y-74847727D01*
X66195363Y-75082759D01*
X66395241Y-75282637D01*
X66630273Y-75439680D01*
X66891426Y-75547853D01*
X67168665Y-75603000D01*
X67451335Y-75603000D01*
X67728574Y-75547853D01*
X67989727Y-75439680D01*
X68224759Y-75282637D01*
X68424637Y-75082759D01*
X68581680Y-74847727D01*
X68689853Y-74586574D01*
X68727223Y-74398702D01*
X72886903Y-74398702D01*
X72958486Y-74642671D01*
X73213996Y-74763571D01*
X73488184Y-74832300D01*
X73770512Y-74846217D01*
X74050130Y-74804787D01*
X74316292Y-74709603D01*
X74441514Y-74642671D01*
X74513097Y-74398702D01*
X73700000Y-73585605D01*
X72886903Y-74398702D01*
X68727223Y-74398702D01*
X68745000Y-74309335D01*
X68745000Y-74026665D01*
X68689853Y-73749426D01*
X68581680Y-73488273D01*
X68573822Y-73476512D01*
X72259783Y-73476512D01*
X72301213Y-73756130D01*
X72396397Y-74022292D01*
X72463329Y-74147514D01*
X72707298Y-74219097D01*
X73520395Y-73406000D01*
X73879605Y-73406000D01*
X74692702Y-74219097D01*
X74936671Y-74147514D01*
X74950324Y-74118659D01*
X75085363Y-74320759D01*
X75285241Y-74520637D01*
X75520273Y-74677680D01*
X75781426Y-74785853D01*
X76058665Y-74841000D01*
X76341335Y-74841000D01*
X76618574Y-74785853D01*
X76879727Y-74677680D01*
X77114759Y-74520637D01*
X77314637Y-74320759D01*
X77471680Y-74085727D01*
X77579853Y-73824574D01*
X77635000Y-73547335D01*
X77635000Y-73264665D01*
X77579853Y-72987426D01*
X77471680Y-72726273D01*
X77314637Y-72491241D01*
X77114759Y-72291363D01*
X76879727Y-72134320D01*
X76618574Y-72026147D01*
X76341335Y-71971000D01*
X76058665Y-71971000D01*
X75781426Y-72026147D01*
X75520273Y-72134320D01*
X75285241Y-72291363D01*
X75085363Y-72491241D01*
X74951308Y-72691869D01*
X74936671Y-72664486D01*
X74692702Y-72592903D01*
X73879605Y-73406000D01*
X73520395Y-73406000D01*
X72707298Y-72592903D01*
X72463329Y-72664486D01*
X72342429Y-72919996D01*
X72273700Y-73194184D01*
X72259783Y-73476512D01*
X68573822Y-73476512D01*
X68424637Y-73253241D01*
X68224759Y-73053363D01*
X67989727Y-72896320D01*
X67728574Y-72788147D01*
X67451335Y-72733000D01*
X67168665Y-72733000D01*
X66891426Y-72788147D01*
X66630273Y-72896320D01*
X66395241Y-73053363D01*
X66195363Y-73253241D01*
X66038320Y-73488273D01*
X65930147Y-73749426D01*
X65875000Y-74026665D01*
X63665000Y-74026665D01*
X63609853Y-73749426D01*
X63501680Y-73488273D01*
X63344637Y-73253241D01*
X63144759Y-73053363D01*
X62909727Y-72896320D01*
X62648574Y-72788147D01*
X62371335Y-72733000D01*
X62088665Y-72733000D01*
X61811426Y-72788147D01*
X61550273Y-72896320D01*
X61315241Y-73053363D01*
X61115363Y-73253241D01*
X60958320Y-73488273D01*
X60850147Y-73749426D01*
X60795000Y-74026665D01*
X50660000Y-74026665D01*
X50660000Y-72413298D01*
X72886903Y-72413298D01*
X73700000Y-73226395D01*
X74513097Y-72413298D01*
X74441514Y-72169329D01*
X74186004Y-72048429D01*
X73911816Y-71979700D01*
X73629488Y-71965783D01*
X73349870Y-72007213D01*
X73083708Y-72102397D01*
X72958486Y-72169329D01*
X72886903Y-72413298D01*
X50660000Y-72413298D01*
X50660000Y-67801509D01*
X57239000Y-67801509D01*
X57239000Y-68342492D01*
X57259764Y-68553309D01*
X57341818Y-68823808D01*
X57475068Y-69073101D01*
X57654393Y-69291608D01*
X57872900Y-69470932D01*
X58122193Y-69604182D01*
X58392692Y-69686236D01*
X58674000Y-69713943D01*
X58955309Y-69686236D01*
X59225808Y-69604182D01*
X59475101Y-69470932D01*
X59693608Y-69291608D01*
X59872932Y-69073101D01*
X59944000Y-68940142D01*
X60015068Y-69073101D01*
X60194393Y-69291608D01*
X60412900Y-69470932D01*
X60662193Y-69604182D01*
X60932692Y-69686236D01*
X61214000Y-69713943D01*
X61495309Y-69686236D01*
X61765808Y-69604182D01*
X62015101Y-69470932D01*
X62233608Y-69291608D01*
X62412932Y-69073101D01*
X62484000Y-68940142D01*
X62555068Y-69073101D01*
X62734393Y-69291608D01*
X62952900Y-69470932D01*
X63202193Y-69604182D01*
X63472692Y-69686236D01*
X63754000Y-69713943D01*
X64035309Y-69686236D01*
X64305808Y-69604182D01*
X64555101Y-69470932D01*
X64773608Y-69291608D01*
X64952932Y-69073101D01*
X65024000Y-68940142D01*
X65095068Y-69073101D01*
X65274393Y-69291608D01*
X65492900Y-69470932D01*
X65742193Y-69604182D01*
X66012692Y-69686236D01*
X66294000Y-69713943D01*
X66575309Y-69686236D01*
X66845808Y-69604182D01*
X67095101Y-69470932D01*
X67313608Y-69291608D01*
X67492932Y-69073101D01*
X67564000Y-68940142D01*
X67635068Y-69073101D01*
X67814393Y-69291608D01*
X68032900Y-69470932D01*
X68282193Y-69604182D01*
X68552692Y-69686236D01*
X68834000Y-69713943D01*
X69115309Y-69686236D01*
X69385808Y-69604182D01*
X69635101Y-69470932D01*
X69853608Y-69291608D01*
X70032932Y-69073101D01*
X70104000Y-68940142D01*
X70175068Y-69073101D01*
X70354393Y-69291608D01*
X70572900Y-69470932D01*
X70822193Y-69604182D01*
X71092692Y-69686236D01*
X71374000Y-69713943D01*
X71655309Y-69686236D01*
X71925808Y-69604182D01*
X72175101Y-69470932D01*
X72393608Y-69291608D01*
X72572932Y-69073101D01*
X72642122Y-68943655D01*
X72649570Y-68961227D01*
X72808327Y-69194662D01*
X73009575Y-69392639D01*
X73245579Y-69547551D01*
X73507270Y-69653444D01*
X73564961Y-69663904D01*
X73787000Y-69541915D01*
X73787000Y-68199000D01*
X73767000Y-68199000D01*
X73767000Y-67945000D01*
X73787000Y-67945000D01*
X73787000Y-66602085D01*
X74041000Y-66602085D01*
X74041000Y-67945000D01*
X74061000Y-67945000D01*
X74061000Y-68199000D01*
X74041000Y-68199000D01*
X74041000Y-69541915D01*
X74263039Y-69663904D01*
X74320730Y-69653444D01*
X74582421Y-69547551D01*
X74818425Y-69392639D01*
X75019673Y-69194662D01*
X75178430Y-68961227D01*
X75185878Y-68943655D01*
X75255068Y-69073101D01*
X75434393Y-69291608D01*
X75652900Y-69470932D01*
X75902193Y-69604182D01*
X76172692Y-69686236D01*
X76454000Y-69713943D01*
X76735309Y-69686236D01*
X77005808Y-69604182D01*
X77255101Y-69470932D01*
X77473608Y-69291608D01*
X77652932Y-69073101D01*
X77736306Y-68917117D01*
X80561000Y-68917117D01*
X80561000Y-69258883D01*
X80627675Y-69594081D01*
X80758463Y-69909831D01*
X80948337Y-70193998D01*
X81190002Y-70435663D01*
X81474169Y-70625537D01*
X81789919Y-70756325D01*
X82125117Y-70823000D01*
X82466883Y-70823000D01*
X82802081Y-70756325D01*
X83117831Y-70625537D01*
X83401998Y-70435663D01*
X83643663Y-70193998D01*
X83833537Y-69909831D01*
X83964325Y-69594081D01*
X84031000Y-69258883D01*
X84031000Y-68917117D01*
X83964325Y-68581919D01*
X83833537Y-68266169D01*
X83643663Y-67982002D01*
X83401998Y-67740337D01*
X83117831Y-67550463D01*
X82802081Y-67419675D01*
X82466883Y-67353000D01*
X82125117Y-67353000D01*
X81789919Y-67419675D01*
X81474169Y-67550463D01*
X81190002Y-67740337D01*
X80948337Y-67982002D01*
X80758463Y-68266169D01*
X80627675Y-68581919D01*
X80561000Y-68917117D01*
X77736306Y-68917117D01*
X77786182Y-68823807D01*
X77868236Y-68553308D01*
X77889000Y-68342491D01*
X77889000Y-67801508D01*
X77868236Y-67590691D01*
X77786182Y-67320192D01*
X77652932Y-67070899D01*
X77473607Y-66852392D01*
X77255100Y-66673068D01*
X77005807Y-66539818D01*
X76735308Y-66457764D01*
X76454000Y-66430057D01*
X76172691Y-66457764D01*
X75902192Y-66539818D01*
X75652899Y-66673068D01*
X75434392Y-66852393D01*
X75255068Y-67070900D01*
X75185878Y-67200345D01*
X75178430Y-67182773D01*
X75019673Y-66949338D01*
X74818425Y-66751361D01*
X74582421Y-66596449D01*
X74320730Y-66490556D01*
X74263039Y-66480096D01*
X74041000Y-66602085D01*
X73787000Y-66602085D01*
X73564961Y-66480096D01*
X73507270Y-66490556D01*
X73245579Y-66596449D01*
X73009575Y-66751361D01*
X72808327Y-66949338D01*
X72649570Y-67182773D01*
X72642122Y-67200345D01*
X72572932Y-67070899D01*
X72393607Y-66852392D01*
X72175100Y-66673068D01*
X71925807Y-66539818D01*
X71655308Y-66457764D01*
X71374000Y-66430057D01*
X71092691Y-66457764D01*
X70822192Y-66539818D01*
X70572899Y-66673068D01*
X70354392Y-66852393D01*
X70175068Y-67070900D01*
X70104000Y-67203858D01*
X70032932Y-67070899D01*
X69853607Y-66852392D01*
X69635100Y-66673068D01*
X69385807Y-66539818D01*
X69115308Y-66457764D01*
X68834000Y-66430057D01*
X68552691Y-66457764D01*
X68282192Y-66539818D01*
X68032899Y-66673068D01*
X67814392Y-66852393D01*
X67635068Y-67070900D01*
X67564000Y-67203858D01*
X67492932Y-67070899D01*
X67313607Y-66852392D01*
X67095100Y-66673068D01*
X66845807Y-66539818D01*
X66575308Y-66457764D01*
X66294000Y-66430057D01*
X66012691Y-66457764D01*
X65742192Y-66539818D01*
X65492899Y-66673068D01*
X65274392Y-66852393D01*
X65095068Y-67070900D01*
X65024000Y-67203858D01*
X64952932Y-67070899D01*
X64773607Y-66852392D01*
X64555100Y-66673068D01*
X64305807Y-66539818D01*
X64035308Y-66457764D01*
X63754000Y-66430057D01*
X63472691Y-66457764D01*
X63202192Y-66539818D01*
X62952899Y-66673068D01*
X62734392Y-66852393D01*
X62555068Y-67070900D01*
X62484000Y-67203858D01*
X62412932Y-67070899D01*
X62233607Y-66852392D01*
X62015100Y-66673068D01*
X61765807Y-66539818D01*
X61495308Y-66457764D01*
X61214000Y-66430057D01*
X60932691Y-66457764D01*
X60662192Y-66539818D01*
X60412899Y-66673068D01*
X60194392Y-66852393D01*
X60015068Y-67070900D01*
X59944000Y-67203858D01*
X59872932Y-67070899D01*
X59693607Y-66852392D01*
X59475100Y-66673068D01*
X59225807Y-66539818D01*
X58955308Y-66457764D01*
X58674000Y-66430057D01*
X58392691Y-66457764D01*
X58122192Y-66539818D01*
X57872899Y-66673068D01*
X57654392Y-66852393D01*
X57475068Y-67070900D01*
X57341818Y-67320193D01*
X57259764Y-67590692D01*
X57239000Y-67801509D01*
X50660000Y-67801509D01*
X50660000Y-60707318D01*
X50937527Y-60606399D01*
X51940271Y-60479723D01*
X51759074Y-60660920D01*
X51443346Y-61133440D01*
X51225869Y-61658477D01*
X51115000Y-62215852D01*
X51115000Y-62784148D01*
X51225869Y-63341523D01*
X51443346Y-63866560D01*
X51759074Y-64339080D01*
X52160920Y-64740926D01*
X52633440Y-65056654D01*
X53158477Y-65274131D01*
X53715852Y-65385000D01*
X54284148Y-65385000D01*
X54841523Y-65274131D01*
X55366560Y-65056654D01*
X55839080Y-64740926D01*
X56240926Y-64339080D01*
X56556654Y-63866560D01*
X56774131Y-63341523D01*
X56885000Y-62784148D01*
X56885000Y-62215852D01*
X56792734Y-61752000D01*
X62323928Y-61752000D01*
X62336188Y-61876482D01*
X62372498Y-61996180D01*
X62431463Y-62106494D01*
X62510815Y-62203185D01*
X62607506Y-62282537D01*
X62717820Y-62341502D01*
X62837518Y-62377812D01*
X62962000Y-62390072D01*
X63976250Y-62387000D01*
X64135000Y-62228250D01*
X64135000Y-60579000D01*
X64389000Y-60579000D01*
X64389000Y-62228250D01*
X64547750Y-62387000D01*
X65562000Y-62390072D01*
X65686482Y-62377812D01*
X65806180Y-62341502D01*
X65916494Y-62282537D01*
X66013185Y-62203185D01*
X66092537Y-62106494D01*
X66151502Y-61996180D01*
X66187812Y-61876482D01*
X66200072Y-61752000D01*
X66198372Y-61190702D01*
X105652903Y-61190702D01*
X105724486Y-61434671D01*
X105979996Y-61555571D01*
X106254184Y-61624300D01*
X106536512Y-61638217D01*
X106816130Y-61596787D01*
X107082292Y-61501603D01*
X107207514Y-61434671D01*
X107279097Y-61190702D01*
X106466000Y-60377605D01*
X105652903Y-61190702D01*
X66198372Y-61190702D01*
X66197000Y-60737750D01*
X66038250Y-60579000D01*
X64389000Y-60579000D01*
X64135000Y-60579000D01*
X62485750Y-60579000D01*
X62327000Y-60737750D01*
X62323928Y-61752000D01*
X56792734Y-61752000D01*
X56774131Y-61658477D01*
X56556654Y-61133440D01*
X56240926Y-60660920D01*
X55839080Y-60259074D01*
X55366560Y-59943346D01*
X54841523Y-59725869D01*
X54506489Y-59659226D01*
X54536046Y-59645317D01*
X54575750Y-59626634D01*
X54575755Y-59626631D01*
X55439104Y-59152000D01*
X62323928Y-59152000D01*
X62327000Y-60166250D01*
X62485750Y-60325000D01*
X64135000Y-60325000D01*
X64135000Y-58675750D01*
X64389000Y-58675750D01*
X64389000Y-60325000D01*
X66038250Y-60325000D01*
X66094738Y-60268512D01*
X105025783Y-60268512D01*
X105067213Y-60548130D01*
X105162397Y-60814292D01*
X105229329Y-60939514D01*
X105473298Y-61011097D01*
X106286395Y-60198000D01*
X106645605Y-60198000D01*
X107458702Y-61011097D01*
X107702671Y-60939514D01*
X107716324Y-60910659D01*
X107851363Y-61112759D01*
X108051241Y-61312637D01*
X108286273Y-61469680D01*
X108547426Y-61577853D01*
X108824665Y-61633000D01*
X109107335Y-61633000D01*
X109384574Y-61577853D01*
X109645727Y-61469680D01*
X109880759Y-61312637D01*
X110080637Y-61112759D01*
X110237680Y-60877727D01*
X110345853Y-60616574D01*
X110401000Y-60339335D01*
X110401000Y-60056665D01*
X110345853Y-59779426D01*
X110237680Y-59518273D01*
X110080637Y-59283241D01*
X109880759Y-59083363D01*
X109645727Y-58926320D01*
X109384574Y-58818147D01*
X109107335Y-58763000D01*
X108824665Y-58763000D01*
X108547426Y-58818147D01*
X108286273Y-58926320D01*
X108051241Y-59083363D01*
X107851363Y-59283241D01*
X107717308Y-59483869D01*
X107702671Y-59456486D01*
X107458702Y-59384903D01*
X106645605Y-60198000D01*
X106286395Y-60198000D01*
X105473298Y-59384903D01*
X105229329Y-59456486D01*
X105108429Y-59711996D01*
X105039700Y-59986184D01*
X105025783Y-60268512D01*
X66094738Y-60268512D01*
X66197000Y-60166250D01*
X66199910Y-59205298D01*
X105652903Y-59205298D01*
X106466000Y-60018395D01*
X107279097Y-59205298D01*
X107207514Y-58961329D01*
X106952004Y-58840429D01*
X106677816Y-58771700D01*
X106395488Y-58757783D01*
X106115870Y-58799213D01*
X105849708Y-58894397D01*
X105724486Y-58961329D01*
X105652903Y-59205298D01*
X66199910Y-59205298D01*
X66200072Y-59152000D01*
X66187812Y-59027518D01*
X66151502Y-58907820D01*
X66092537Y-58797506D01*
X66013185Y-58700815D01*
X65916494Y-58621463D01*
X65806180Y-58562498D01*
X65686482Y-58526188D01*
X65562000Y-58513928D01*
X64547750Y-58517000D01*
X64389000Y-58675750D01*
X64135000Y-58675750D01*
X63976250Y-58517000D01*
X62962000Y-58513928D01*
X62837518Y-58526188D01*
X62717820Y-58562498D01*
X62607506Y-58621463D01*
X62510815Y-58700815D01*
X62431463Y-58797506D01*
X62372498Y-58907820D01*
X62336188Y-59027518D01*
X62323928Y-59152000D01*
X55439104Y-59152000D01*
X55676213Y-59021648D01*
X55676226Y-59021642D01*
X55719037Y-58994472D01*
X55746207Y-58977230D01*
X55746214Y-58977224D01*
X56762179Y-58239083D01*
X56826042Y-58186251D01*
X56826049Y-58186243D01*
X57295609Y-57745297D01*
X57327877Y-57720475D01*
X127625000Y-57720475D01*
X127625000Y-58239525D01*
X127726261Y-58748601D01*
X127924893Y-59228141D01*
X128213262Y-59659715D01*
X128580285Y-60026738D01*
X129011859Y-60315107D01*
X129491399Y-60513739D01*
X130000475Y-60615000D01*
X130519525Y-60615000D01*
X131028601Y-60513739D01*
X131508141Y-60315107D01*
X131939715Y-60026738D01*
X132306738Y-59659715D01*
X132595107Y-59228141D01*
X132793739Y-58748601D01*
X132895000Y-58239525D01*
X132895000Y-57720475D01*
X132793739Y-57211399D01*
X132595107Y-56731859D01*
X132306738Y-56300285D01*
X131939715Y-55933262D01*
X131508141Y-55644893D01*
X131028601Y-55446261D01*
X130519525Y-55345000D01*
X130000475Y-55345000D01*
X129491399Y-55446261D01*
X129011859Y-55644893D01*
X128580285Y-55933262D01*
X128213262Y-56300285D01*
X127924893Y-56731859D01*
X127726261Y-57211399D01*
X127625000Y-57720475D01*
X57327877Y-57720475D01*
X58522903Y-56801224D01*
X63092381Y-56801224D01*
X63224317Y-57096312D01*
X63565045Y-57267159D01*
X63932557Y-57368250D01*
X64312729Y-57395701D01*
X64690951Y-57348457D01*
X65052690Y-57228333D01*
X65299683Y-57096312D01*
X65431619Y-56801224D01*
X64262000Y-55631605D01*
X63092381Y-56801224D01*
X58522903Y-56801224D01*
X59259433Y-56234663D01*
X59277584Y-56217623D01*
X59292061Y-56197368D01*
X59302309Y-56174679D01*
X59307272Y-56154879D01*
X59415963Y-55502729D01*
X62318299Y-55502729D01*
X62365543Y-55880951D01*
X62485667Y-56242690D01*
X62617688Y-56489683D01*
X62912776Y-56621619D01*
X64082395Y-55452000D01*
X64441605Y-55452000D01*
X65611224Y-56621619D01*
X65906312Y-56489683D01*
X66077159Y-56148955D01*
X66178250Y-55781443D01*
X66205701Y-55401271D01*
X66168119Y-55100397D01*
X92785208Y-55100397D01*
X92862843Y-55349472D01*
X93126883Y-55475371D01*
X93410411Y-55547339D01*
X93702531Y-55562611D01*
X93992019Y-55520599D01*
X94267747Y-55422919D01*
X94405157Y-55349472D01*
X94482792Y-55100397D01*
X93634000Y-54251605D01*
X92785208Y-55100397D01*
X66168119Y-55100397D01*
X66158457Y-55023049D01*
X66038333Y-54661310D01*
X65906312Y-54414317D01*
X65611224Y-54282381D01*
X64441605Y-55452000D01*
X64082395Y-55452000D01*
X62912776Y-54282381D01*
X62617688Y-54414317D01*
X62446841Y-54755045D01*
X62345750Y-55122557D01*
X62318299Y-55502729D01*
X59415963Y-55502729D01*
X59550824Y-54693568D01*
X59828829Y-54102776D01*
X63092381Y-54102776D01*
X64262000Y-55272395D01*
X65393864Y-54140531D01*
X92143389Y-54140531D01*
X92185401Y-54430019D01*
X92283081Y-54705747D01*
X92356528Y-54843157D01*
X92605603Y-54920792D01*
X93454395Y-54072000D01*
X93813605Y-54072000D01*
X94662397Y-54920792D01*
X94904689Y-54845271D01*
X95020525Y-55018632D01*
X95227368Y-55225475D01*
X95470589Y-55387990D01*
X95740842Y-55499932D01*
X96027740Y-55557000D01*
X96320260Y-55557000D01*
X96607158Y-55499932D01*
X96877411Y-55387990D01*
X97120632Y-55225475D01*
X97327475Y-55018632D01*
X97444000Y-54844240D01*
X97560525Y-55018632D01*
X97767368Y-55225475D01*
X98010589Y-55387990D01*
X98280842Y-55499932D01*
X98567740Y-55557000D01*
X98860260Y-55557000D01*
X99147158Y-55499932D01*
X99417411Y-55387990D01*
X99660632Y-55225475D01*
X99867475Y-55018632D01*
X99984000Y-54844240D01*
X100100525Y-55018632D01*
X100307368Y-55225475D01*
X100550589Y-55387990D01*
X100820842Y-55499932D01*
X101107740Y-55557000D01*
X101400260Y-55557000D01*
X101687158Y-55499932D01*
X101957411Y-55387990D01*
X102200632Y-55225475D01*
X102407475Y-55018632D01*
X102524000Y-54844240D01*
X102640525Y-55018632D01*
X102847368Y-55225475D01*
X103090589Y-55387990D01*
X103360842Y-55499932D01*
X103647740Y-55557000D01*
X103940260Y-55557000D01*
X104227158Y-55499932D01*
X104497411Y-55387990D01*
X104740632Y-55225475D01*
X104947475Y-55018632D01*
X105064000Y-54844240D01*
X105180525Y-55018632D01*
X105387368Y-55225475D01*
X105630589Y-55387990D01*
X105900842Y-55499932D01*
X106187740Y-55557000D01*
X106480260Y-55557000D01*
X106767158Y-55499932D01*
X107037411Y-55387990D01*
X107280632Y-55225475D01*
X107487475Y-55018632D01*
X107604000Y-54844240D01*
X107720525Y-55018632D01*
X107927368Y-55225475D01*
X108170589Y-55387990D01*
X108440842Y-55499932D01*
X108727740Y-55557000D01*
X109020260Y-55557000D01*
X109307158Y-55499932D01*
X109577411Y-55387990D01*
X109820632Y-55225475D01*
X110027475Y-55018632D01*
X110189990Y-54775411D01*
X110301932Y-54505158D01*
X110359000Y-54218260D01*
X110359000Y-53925740D01*
X110301932Y-53638842D01*
X110189990Y-53368589D01*
X110027475Y-53125368D01*
X109820632Y-52918525D01*
X109577411Y-52756010D01*
X109307158Y-52644068D01*
X109020260Y-52587000D01*
X108727740Y-52587000D01*
X108440842Y-52644068D01*
X108170589Y-52756010D01*
X107927368Y-52918525D01*
X107720525Y-53125368D01*
X107604000Y-53299760D01*
X107487475Y-53125368D01*
X107280632Y-52918525D01*
X107037411Y-52756010D01*
X106767158Y-52644068D01*
X106480260Y-52587000D01*
X106187740Y-52587000D01*
X105900842Y-52644068D01*
X105630589Y-52756010D01*
X105387368Y-52918525D01*
X105180525Y-53125368D01*
X105064000Y-53299760D01*
X104947475Y-53125368D01*
X104740632Y-52918525D01*
X104497411Y-52756010D01*
X104227158Y-52644068D01*
X103940260Y-52587000D01*
X103647740Y-52587000D01*
X103360842Y-52644068D01*
X103090589Y-52756010D01*
X102847368Y-52918525D01*
X102640525Y-53125368D01*
X102524000Y-53299760D01*
X102407475Y-53125368D01*
X102200632Y-52918525D01*
X101957411Y-52756010D01*
X101687158Y-52644068D01*
X101400260Y-52587000D01*
X101107740Y-52587000D01*
X100820842Y-52644068D01*
X100550589Y-52756010D01*
X100307368Y-52918525D01*
X100100525Y-53125368D01*
X99984000Y-53299760D01*
X99867475Y-53125368D01*
X99660632Y-52918525D01*
X99417411Y-52756010D01*
X99147158Y-52644068D01*
X98860260Y-52587000D01*
X98567740Y-52587000D01*
X98280842Y-52644068D01*
X98010589Y-52756010D01*
X97767368Y-52918525D01*
X97560525Y-53125368D01*
X97444000Y-53299760D01*
X97327475Y-53125368D01*
X97120632Y-52918525D01*
X96877411Y-52756010D01*
X96607158Y-52644068D01*
X96320260Y-52587000D01*
X96027740Y-52587000D01*
X95740842Y-52644068D01*
X95470589Y-52756010D01*
X95227368Y-52918525D01*
X95020525Y-53125368D01*
X94904689Y-53298729D01*
X94662397Y-53223208D01*
X93813605Y-54072000D01*
X93454395Y-54072000D01*
X92605603Y-53223208D01*
X92356528Y-53300843D01*
X92230629Y-53564883D01*
X92158661Y-53848411D01*
X92143389Y-54140531D01*
X65393864Y-54140531D01*
X65431619Y-54102776D01*
X65299683Y-53807688D01*
X64958955Y-53636841D01*
X64591443Y-53535750D01*
X64211271Y-53508299D01*
X63833049Y-53555543D01*
X63471310Y-53675667D01*
X63224317Y-53807688D01*
X63092381Y-54102776D01*
X59828829Y-54102776D01*
X59894951Y-53962261D01*
X59925463Y-53885197D01*
X59925467Y-53885182D01*
X60198912Y-53043603D01*
X92785208Y-53043603D01*
X93634000Y-53892395D01*
X94482792Y-53043603D01*
X94405157Y-52794528D01*
X94141117Y-52668629D01*
X93857589Y-52596661D01*
X93565469Y-52581389D01*
X93275981Y-52623401D01*
X93000253Y-52721081D01*
X92862843Y-52794528D01*
X92785208Y-53043603D01*
X60198912Y-53043603D01*
X60313524Y-52690864D01*
X60313530Y-52690850D01*
X60334142Y-52610570D01*
X60569457Y-51377003D01*
X60579845Y-51294773D01*
X60619782Y-50660000D01*
X111211025Y-50660000D01*
X111170498Y-50735820D01*
G37*
%TD.AperFunction*%
%TD*%
M02*
