G04 #@! TF.GenerationSoftware,KiCad,Pcbnew,(5.1.2)-2*
G04 #@! TF.CreationDate,2020-12-01T22:27:08-06:00*
G04 #@! TF.ProjectId,TempMonitor10PCB,54656d70-4d6f-46e6-9974-6f7231305043,rev?*
G04 #@! TF.SameCoordinates,Original*
G04 #@! TF.FileFunction,Soldermask,Top*
G04 #@! TF.FilePolarity,Negative*
%FSLAX46Y46*%
G04 Gerber Fmt 4.6, Leading zero omitted, Abs format (unit mm)*
G04 Created by KiCad (PCBNEW (5.1.2)-2) date 2020-12-01 22:27:08*
%MOMM*%
%LPD*%
G04 APERTURE LIST*
%ADD10C,0.100000*%
G04 APERTURE END LIST*
D10*
G36*
X66935692Y-83969956D02*
G01*
X67272661Y-84109533D01*
X67575926Y-84312168D01*
X67833832Y-84570074D01*
X68036467Y-84873339D01*
X68176044Y-85210308D01*
X68247200Y-85568033D01*
X68247200Y-85932767D01*
X68176044Y-86290492D01*
X68036467Y-86627461D01*
X67833832Y-86930726D01*
X67575926Y-87188632D01*
X67272661Y-87391267D01*
X66935692Y-87530844D01*
X66756829Y-87566422D01*
X66577968Y-87602000D01*
X66213232Y-87602000D01*
X66034371Y-87566422D01*
X65855508Y-87530844D01*
X65518539Y-87391267D01*
X65215274Y-87188632D01*
X64957368Y-86930726D01*
X64754733Y-86627461D01*
X64615156Y-86290492D01*
X64544000Y-85932767D01*
X64544000Y-85568033D01*
X64615156Y-85210308D01*
X64754733Y-84873339D01*
X64957368Y-84570074D01*
X65215274Y-84312168D01*
X65518539Y-84109533D01*
X65855508Y-83969956D01*
X66213232Y-83898800D01*
X66577968Y-83898800D01*
X66935692Y-83969956D01*
X66935692Y-83969956D01*
G37*
G36*
X59417607Y-81119382D02*
G01*
X59818163Y-81285298D01*
X59818165Y-81285299D01*
X60178656Y-81526171D01*
X60485229Y-81832744D01*
X60726101Y-82193235D01*
X60726102Y-82193237D01*
X60892018Y-82593793D01*
X60976600Y-83019019D01*
X60976600Y-83452581D01*
X60892018Y-83877807D01*
X60726102Y-84278363D01*
X60726101Y-84278365D01*
X60485229Y-84638856D01*
X60178656Y-84945429D01*
X59818165Y-85186301D01*
X59818164Y-85186302D01*
X59818163Y-85186302D01*
X59417607Y-85352218D01*
X58992381Y-85436800D01*
X58558819Y-85436800D01*
X58133593Y-85352218D01*
X57733037Y-85186302D01*
X57733036Y-85186302D01*
X57733035Y-85186301D01*
X57372544Y-84945429D01*
X57065971Y-84638856D01*
X56825099Y-84278365D01*
X56825098Y-84278363D01*
X56659182Y-83877807D01*
X56574600Y-83452581D01*
X56574600Y-83019019D01*
X56659182Y-82593793D01*
X56825098Y-82193237D01*
X56825099Y-82193235D01*
X57065971Y-81832744D01*
X57372544Y-81526171D01*
X57733035Y-81285299D01*
X57733037Y-81285298D01*
X58133593Y-81119382D01*
X58558819Y-81034800D01*
X58992381Y-81034800D01*
X59417607Y-81119382D01*
X59417607Y-81119382D01*
G37*
G36*
X83774000Y-82554800D02*
G01*
X81072000Y-82554800D01*
X81072000Y-79852800D01*
X83774000Y-79852800D01*
X83774000Y-82554800D01*
X83774000Y-82554800D01*
G37*
G36*
X61431623Y-76021713D02*
G01*
X61592042Y-76070376D01*
X61659161Y-76106252D01*
X61739878Y-76149396D01*
X61869459Y-76255741D01*
X61975804Y-76385322D01*
X61975805Y-76385324D01*
X62054824Y-76533158D01*
X62103487Y-76693577D01*
X62119917Y-76860400D01*
X62103487Y-77027223D01*
X62054824Y-77187642D01*
X62014277Y-77263500D01*
X61975804Y-77335478D01*
X61869459Y-77465059D01*
X61739878Y-77571404D01*
X61739876Y-77571405D01*
X61592042Y-77650424D01*
X61431623Y-77699087D01*
X61306604Y-77711400D01*
X61222996Y-77711400D01*
X61097977Y-77699087D01*
X60937558Y-77650424D01*
X60789724Y-77571405D01*
X60789722Y-77571404D01*
X60660141Y-77465059D01*
X60553796Y-77335478D01*
X60515323Y-77263500D01*
X60474776Y-77187642D01*
X60426113Y-77027223D01*
X60409683Y-76860400D01*
X60426113Y-76693577D01*
X60474776Y-76533158D01*
X60553795Y-76385324D01*
X60553796Y-76385322D01*
X60660141Y-76255741D01*
X60789722Y-76149396D01*
X60870439Y-76106252D01*
X60937558Y-76070376D01*
X61097977Y-76021713D01*
X61222996Y-76009400D01*
X61306604Y-76009400D01*
X61431623Y-76021713D01*
X61431623Y-76021713D01*
G37*
G36*
X71469828Y-76042103D02*
G01*
X71624700Y-76106253D01*
X71764081Y-76199385D01*
X71882615Y-76317919D01*
X71975747Y-76457300D01*
X72039897Y-76612172D01*
X72072600Y-76776584D01*
X72072600Y-76944216D01*
X72039897Y-77108628D01*
X71975747Y-77263500D01*
X71882615Y-77402881D01*
X71764081Y-77521415D01*
X71624700Y-77614547D01*
X71469828Y-77678697D01*
X71305416Y-77711400D01*
X71137784Y-77711400D01*
X70973372Y-77678697D01*
X70818500Y-77614547D01*
X70679119Y-77521415D01*
X70560585Y-77402881D01*
X70467453Y-77263500D01*
X70403303Y-77108628D01*
X70370600Y-76944216D01*
X70370600Y-76776584D01*
X70403303Y-76612172D01*
X70467453Y-76457300D01*
X70560585Y-76317919D01*
X70679119Y-76199385D01*
X70818500Y-76106253D01*
X70973372Y-76042103D01*
X71137784Y-76009400D01*
X71305416Y-76009400D01*
X71469828Y-76042103D01*
X71469828Y-76042103D01*
G37*
G36*
X52360623Y-76021713D02*
G01*
X52521042Y-76070376D01*
X52588161Y-76106252D01*
X52668878Y-76149396D01*
X52798459Y-76255741D01*
X52904804Y-76385322D01*
X52904805Y-76385324D01*
X52983824Y-76533158D01*
X53032487Y-76693577D01*
X53048917Y-76860400D01*
X53032487Y-77027223D01*
X52983824Y-77187642D01*
X52943277Y-77263500D01*
X52904804Y-77335478D01*
X52798459Y-77465059D01*
X52668878Y-77571404D01*
X52668876Y-77571405D01*
X52521042Y-77650424D01*
X52360623Y-77699087D01*
X52235604Y-77711400D01*
X51751996Y-77711400D01*
X51626977Y-77699087D01*
X51466558Y-77650424D01*
X51318724Y-77571405D01*
X51318722Y-77571404D01*
X51189141Y-77465059D01*
X51082796Y-77335478D01*
X51044323Y-77263500D01*
X51003776Y-77187642D01*
X50955113Y-77027223D01*
X50938683Y-76860400D01*
X50955113Y-76693577D01*
X51003776Y-76533158D01*
X51082795Y-76385324D01*
X51082796Y-76385322D01*
X51189141Y-76255741D01*
X51318722Y-76149396D01*
X51399439Y-76106252D01*
X51466558Y-76070376D01*
X51626977Y-76021713D01*
X51751996Y-76009400D01*
X52235604Y-76009400D01*
X52360623Y-76021713D01*
X52360623Y-76021713D01*
G37*
G36*
X75220623Y-76021713D02*
G01*
X75381042Y-76070376D01*
X75448161Y-76106252D01*
X75528878Y-76149396D01*
X75658459Y-76255741D01*
X75764804Y-76385322D01*
X75764805Y-76385324D01*
X75843824Y-76533158D01*
X75892487Y-76693577D01*
X75908917Y-76860400D01*
X75892487Y-77027223D01*
X75843824Y-77187642D01*
X75803277Y-77263500D01*
X75764804Y-77335478D01*
X75658459Y-77465059D01*
X75528878Y-77571404D01*
X75528876Y-77571405D01*
X75381042Y-77650424D01*
X75220623Y-77699087D01*
X75095604Y-77711400D01*
X74611996Y-77711400D01*
X74486977Y-77699087D01*
X74326558Y-77650424D01*
X74178724Y-77571405D01*
X74178722Y-77571404D01*
X74049141Y-77465059D01*
X73942796Y-77335478D01*
X73904323Y-77263500D01*
X73863776Y-77187642D01*
X73815113Y-77027223D01*
X73798683Y-76860400D01*
X73815113Y-76693577D01*
X73863776Y-76533158D01*
X73942795Y-76385324D01*
X73942796Y-76385322D01*
X74049141Y-76255741D01*
X74178722Y-76149396D01*
X74259439Y-76106252D01*
X74326558Y-76070376D01*
X74486977Y-76021713D01*
X74611996Y-76009400D01*
X75095604Y-76009400D01*
X75220623Y-76021713D01*
X75220623Y-76021713D01*
G37*
G36*
X56631023Y-76021713D02*
G01*
X56791442Y-76070376D01*
X56858561Y-76106252D01*
X56939278Y-76149396D01*
X57068859Y-76255741D01*
X57175204Y-76385322D01*
X57175205Y-76385324D01*
X57254224Y-76533158D01*
X57302887Y-76693577D01*
X57319317Y-76860400D01*
X57302887Y-77027223D01*
X57254224Y-77187642D01*
X57213677Y-77263500D01*
X57175204Y-77335478D01*
X57068859Y-77465059D01*
X56939278Y-77571404D01*
X56939276Y-77571405D01*
X56791442Y-77650424D01*
X56631023Y-77699087D01*
X56506004Y-77711400D01*
X56422396Y-77711400D01*
X56297377Y-77699087D01*
X56136958Y-77650424D01*
X55989124Y-77571405D01*
X55989122Y-77571404D01*
X55859541Y-77465059D01*
X55753196Y-77335478D01*
X55714723Y-77263500D01*
X55674176Y-77187642D01*
X55625513Y-77027223D01*
X55609083Y-76860400D01*
X55625513Y-76693577D01*
X55674176Y-76533158D01*
X55753195Y-76385324D01*
X55753196Y-76385322D01*
X55859541Y-76255741D01*
X55989122Y-76149396D01*
X56069839Y-76106252D01*
X56136958Y-76070376D01*
X56297377Y-76021713D01*
X56422396Y-76009400D01*
X56506004Y-76009400D01*
X56631023Y-76021713D01*
X56631023Y-76021713D01*
G37*
G36*
X82807832Y-74902880D02*
G01*
X82817072Y-74904718D01*
X83062939Y-75006559D01*
X83085172Y-75021415D01*
X83284211Y-75154409D01*
X83472391Y-75342589D01*
X83620242Y-75563863D01*
X83722082Y-75809728D01*
X83774000Y-76070737D01*
X83774000Y-76336863D01*
X83722082Y-76597872D01*
X83620242Y-76843737D01*
X83472391Y-77065011D01*
X83284211Y-77253191D01*
X83174328Y-77326613D01*
X83062939Y-77401041D01*
X83062938Y-77401042D01*
X83062937Y-77401042D01*
X82817072Y-77502882D01*
X82556063Y-77554800D01*
X82289937Y-77554800D01*
X82028928Y-77502882D01*
X81783063Y-77401042D01*
X81783062Y-77401042D01*
X81783061Y-77401041D01*
X81671672Y-77326613D01*
X81561789Y-77253191D01*
X81373609Y-77065011D01*
X81225758Y-76843737D01*
X81123918Y-76597872D01*
X81072000Y-76336863D01*
X81072000Y-76070737D01*
X81123918Y-75809728D01*
X81225758Y-75563863D01*
X81373609Y-75342589D01*
X81561789Y-75154409D01*
X81760828Y-75021415D01*
X81783061Y-75006559D01*
X82028928Y-74904718D01*
X82038168Y-74902880D01*
X82289937Y-74852800D01*
X82556063Y-74852800D01*
X82807832Y-74902880D01*
X82807832Y-74902880D01*
G37*
G36*
X71469828Y-73542103D02*
G01*
X71624700Y-73606253D01*
X71764081Y-73699385D01*
X71882615Y-73817919D01*
X71975747Y-73957300D01*
X72039897Y-74112172D01*
X72072600Y-74276584D01*
X72072600Y-74444216D01*
X72039897Y-74608628D01*
X71975747Y-74763500D01*
X71882615Y-74902881D01*
X71764081Y-75021415D01*
X71624700Y-75114547D01*
X71469828Y-75178697D01*
X71305416Y-75211400D01*
X71137784Y-75211400D01*
X70973372Y-75178697D01*
X70818500Y-75114547D01*
X70679119Y-75021415D01*
X70560585Y-74902881D01*
X70467453Y-74763500D01*
X70403303Y-74608628D01*
X70370600Y-74444216D01*
X70370600Y-74276584D01*
X70403303Y-74112172D01*
X70467453Y-73957300D01*
X70560585Y-73817919D01*
X70679119Y-73699385D01*
X70818500Y-73606253D01*
X70973372Y-73542103D01*
X71137784Y-73509400D01*
X71305416Y-73509400D01*
X71469828Y-73542103D01*
X71469828Y-73542103D01*
G37*
G36*
X75220623Y-73481713D02*
G01*
X75381042Y-73530376D01*
X75513706Y-73601286D01*
X75528878Y-73609396D01*
X75658459Y-73715741D01*
X75764804Y-73845322D01*
X75764805Y-73845324D01*
X75843824Y-73993158D01*
X75892487Y-74153577D01*
X75908917Y-74320400D01*
X75892487Y-74487223D01*
X75843824Y-74647642D01*
X75772914Y-74780306D01*
X75764804Y-74795478D01*
X75658459Y-74925059D01*
X75528878Y-75031404D01*
X75528876Y-75031405D01*
X75381042Y-75110424D01*
X75381039Y-75110425D01*
X75367447Y-75114548D01*
X75220623Y-75159087D01*
X75095604Y-75171400D01*
X74611996Y-75171400D01*
X74486977Y-75159087D01*
X74340153Y-75114548D01*
X74326561Y-75110425D01*
X74326558Y-75110424D01*
X74178724Y-75031405D01*
X74178722Y-75031404D01*
X74049141Y-74925059D01*
X73942796Y-74795478D01*
X73934686Y-74780306D01*
X73863776Y-74647642D01*
X73815113Y-74487223D01*
X73798683Y-74320400D01*
X73815113Y-74153577D01*
X73863776Y-73993158D01*
X73942795Y-73845324D01*
X73942796Y-73845322D01*
X74049141Y-73715741D01*
X74178722Y-73609396D01*
X74193894Y-73601286D01*
X74326558Y-73530376D01*
X74486977Y-73481713D01*
X74611996Y-73469400D01*
X75095604Y-73469400D01*
X75220623Y-73481713D01*
X75220623Y-73481713D01*
G37*
G36*
X52360623Y-73481713D02*
G01*
X52521042Y-73530376D01*
X52653706Y-73601286D01*
X52668878Y-73609396D01*
X52798459Y-73715741D01*
X52904804Y-73845322D01*
X52904805Y-73845324D01*
X52983824Y-73993158D01*
X53032487Y-74153577D01*
X53048917Y-74320400D01*
X53032487Y-74487223D01*
X52983824Y-74647642D01*
X52912914Y-74780306D01*
X52904804Y-74795478D01*
X52798459Y-74925059D01*
X52668878Y-75031404D01*
X52668876Y-75031405D01*
X52521042Y-75110424D01*
X52521039Y-75110425D01*
X52507447Y-75114548D01*
X52360623Y-75159087D01*
X52235604Y-75171400D01*
X51751996Y-75171400D01*
X51626977Y-75159087D01*
X51480153Y-75114548D01*
X51466561Y-75110425D01*
X51466558Y-75110424D01*
X51318724Y-75031405D01*
X51318722Y-75031404D01*
X51189141Y-74925059D01*
X51082796Y-74795478D01*
X51074686Y-74780306D01*
X51003776Y-74647642D01*
X50955113Y-74487223D01*
X50938683Y-74320400D01*
X50955113Y-74153577D01*
X51003776Y-73993158D01*
X51082795Y-73845324D01*
X51082796Y-73845322D01*
X51189141Y-73715741D01*
X51318722Y-73609396D01*
X51333894Y-73601286D01*
X51466558Y-73530376D01*
X51626977Y-73481713D01*
X51751996Y-73469400D01*
X52235604Y-73469400D01*
X52360623Y-73481713D01*
X52360623Y-73481713D01*
G37*
G36*
X75220623Y-70941713D02*
G01*
X75381042Y-70990376D01*
X75493509Y-71050491D01*
X75528878Y-71069396D01*
X75658459Y-71175741D01*
X75764804Y-71305322D01*
X75764805Y-71305324D01*
X75843824Y-71453158D01*
X75892487Y-71613577D01*
X75908917Y-71780400D01*
X75892487Y-71947223D01*
X75843824Y-72107642D01*
X75820506Y-72151267D01*
X75764804Y-72255478D01*
X75658459Y-72385059D01*
X75528878Y-72491404D01*
X75528876Y-72491405D01*
X75381042Y-72570424D01*
X75220623Y-72619087D01*
X75095604Y-72631400D01*
X74611996Y-72631400D01*
X74486977Y-72619087D01*
X74326558Y-72570424D01*
X74178724Y-72491405D01*
X74178722Y-72491404D01*
X74049141Y-72385059D01*
X73942796Y-72255478D01*
X73887094Y-72151267D01*
X73863776Y-72107642D01*
X73815113Y-71947223D01*
X73798683Y-71780400D01*
X73815113Y-71613577D01*
X73863776Y-71453158D01*
X73942795Y-71305324D01*
X73942796Y-71305322D01*
X74049141Y-71175741D01*
X74178722Y-71069396D01*
X74214091Y-71050491D01*
X74326558Y-70990376D01*
X74486977Y-70941713D01*
X74611996Y-70929400D01*
X75095604Y-70929400D01*
X75220623Y-70941713D01*
X75220623Y-70941713D01*
G37*
G36*
X52360623Y-70941713D02*
G01*
X52521042Y-70990376D01*
X52633509Y-71050491D01*
X52668878Y-71069396D01*
X52798459Y-71175741D01*
X52904804Y-71305322D01*
X52904805Y-71305324D01*
X52983824Y-71453158D01*
X53032487Y-71613577D01*
X53048917Y-71780400D01*
X53032487Y-71947223D01*
X52983824Y-72107642D01*
X52960506Y-72151267D01*
X52904804Y-72255478D01*
X52798459Y-72385059D01*
X52668878Y-72491404D01*
X52668876Y-72491405D01*
X52521042Y-72570424D01*
X52360623Y-72619087D01*
X52235604Y-72631400D01*
X51751996Y-72631400D01*
X51626977Y-72619087D01*
X51466558Y-72570424D01*
X51318724Y-72491405D01*
X51318722Y-72491404D01*
X51189141Y-72385059D01*
X51082796Y-72255478D01*
X51027094Y-72151267D01*
X51003776Y-72107642D01*
X50955113Y-71947223D01*
X50938683Y-71780400D01*
X50955113Y-71613577D01*
X51003776Y-71453158D01*
X51082795Y-71305324D01*
X51082796Y-71305322D01*
X51189141Y-71175741D01*
X51318722Y-71069396D01*
X51354091Y-71050491D01*
X51466558Y-70990376D01*
X51626977Y-70941713D01*
X51751996Y-70929400D01*
X52235604Y-70929400D01*
X52360623Y-70941713D01*
X52360623Y-70941713D01*
G37*
G36*
X82817072Y-69904718D02*
G01*
X82975424Y-69970309D01*
X83062939Y-70006559D01*
X83171484Y-70079087D01*
X83284211Y-70154409D01*
X83472391Y-70342589D01*
X83620242Y-70563863D01*
X83722082Y-70809728D01*
X83774000Y-71070737D01*
X83774000Y-71336863D01*
X83763935Y-71387461D01*
X83722082Y-71597872D01*
X83620241Y-71843739D01*
X83472390Y-72065012D01*
X83284212Y-72253190D01*
X83062939Y-72401041D01*
X83062938Y-72401042D01*
X83062937Y-72401042D01*
X82817072Y-72502882D01*
X82556063Y-72554800D01*
X82289937Y-72554800D01*
X82028928Y-72502882D01*
X81783063Y-72401042D01*
X81783062Y-72401042D01*
X81783061Y-72401041D01*
X81561788Y-72253190D01*
X81373610Y-72065012D01*
X81225759Y-71843739D01*
X81123918Y-71597872D01*
X81082065Y-71387461D01*
X81072000Y-71336863D01*
X81072000Y-71070737D01*
X81123918Y-70809728D01*
X81225758Y-70563863D01*
X81373609Y-70342589D01*
X81561789Y-70154409D01*
X81674516Y-70079087D01*
X81783061Y-70006559D01*
X81870577Y-69970309D01*
X82028928Y-69904718D01*
X82289937Y-69852800D01*
X82556063Y-69852800D01*
X82817072Y-69904718D01*
X82817072Y-69904718D01*
G37*
G36*
X66935692Y-68729956D02*
G01*
X67272661Y-68869533D01*
X67575926Y-69072168D01*
X67833832Y-69330074D01*
X68036467Y-69633339D01*
X68176044Y-69970308D01*
X68247200Y-70328033D01*
X68247200Y-70692767D01*
X68176044Y-71050492D01*
X68036467Y-71387461D01*
X67833832Y-71690726D01*
X67575926Y-71948632D01*
X67272661Y-72151267D01*
X66935692Y-72290844D01*
X66756829Y-72326422D01*
X66577968Y-72362000D01*
X66213232Y-72362000D01*
X66034371Y-72326422D01*
X65855508Y-72290844D01*
X65518539Y-72151267D01*
X65215274Y-71948632D01*
X64957368Y-71690726D01*
X64754733Y-71387461D01*
X64615156Y-71050492D01*
X64544000Y-70692767D01*
X64544000Y-70328033D01*
X64615156Y-69970308D01*
X64754733Y-69633339D01*
X64957368Y-69330074D01*
X65215274Y-69072168D01*
X65518539Y-68869533D01*
X65855508Y-68729956D01*
X66213232Y-68658800D01*
X66577968Y-68658800D01*
X66935692Y-68729956D01*
X66935692Y-68729956D01*
G37*
G36*
X75220623Y-68401713D02*
G01*
X75381042Y-68450376D01*
X75513706Y-68521286D01*
X75528878Y-68529396D01*
X75658459Y-68635741D01*
X75764804Y-68765322D01*
X75764805Y-68765324D01*
X75843824Y-68913158D01*
X75892487Y-69073577D01*
X75908917Y-69240400D01*
X75892487Y-69407223D01*
X75843824Y-69567642D01*
X75772914Y-69700306D01*
X75764804Y-69715478D01*
X75658459Y-69845059D01*
X75528878Y-69951404D01*
X75528876Y-69951405D01*
X75381042Y-70030424D01*
X75220623Y-70079087D01*
X75095604Y-70091400D01*
X74611996Y-70091400D01*
X74486977Y-70079087D01*
X74326558Y-70030424D01*
X74178724Y-69951405D01*
X74178722Y-69951404D01*
X74049141Y-69845059D01*
X73942796Y-69715478D01*
X73934686Y-69700306D01*
X73863776Y-69567642D01*
X73815113Y-69407223D01*
X73798683Y-69240400D01*
X73815113Y-69073577D01*
X73863776Y-68913158D01*
X73942795Y-68765324D01*
X73942796Y-68765322D01*
X74049141Y-68635741D01*
X74178722Y-68529396D01*
X74193894Y-68521286D01*
X74326558Y-68450376D01*
X74486977Y-68401713D01*
X74611996Y-68389400D01*
X75095604Y-68389400D01*
X75220623Y-68401713D01*
X75220623Y-68401713D01*
G37*
G36*
X52360623Y-68401713D02*
G01*
X52521042Y-68450376D01*
X52653706Y-68521286D01*
X52668878Y-68529396D01*
X52798459Y-68635741D01*
X52904804Y-68765322D01*
X52904805Y-68765324D01*
X52983824Y-68913158D01*
X53032487Y-69073577D01*
X53048917Y-69240400D01*
X53032487Y-69407223D01*
X52983824Y-69567642D01*
X52912914Y-69700306D01*
X52904804Y-69715478D01*
X52798459Y-69845059D01*
X52668878Y-69951404D01*
X52668876Y-69951405D01*
X52521042Y-70030424D01*
X52360623Y-70079087D01*
X52235604Y-70091400D01*
X51751996Y-70091400D01*
X51626977Y-70079087D01*
X51466558Y-70030424D01*
X51318724Y-69951405D01*
X51318722Y-69951404D01*
X51189141Y-69845059D01*
X51082796Y-69715478D01*
X51074686Y-69700306D01*
X51003776Y-69567642D01*
X50955113Y-69407223D01*
X50938683Y-69240400D01*
X50955113Y-69073577D01*
X51003776Y-68913158D01*
X51082795Y-68765324D01*
X51082796Y-68765322D01*
X51189141Y-68635741D01*
X51318722Y-68529396D01*
X51333894Y-68521286D01*
X51466558Y-68450376D01*
X51626977Y-68401713D01*
X51751996Y-68389400D01*
X52235604Y-68389400D01*
X52360623Y-68401713D01*
X52360623Y-68401713D01*
G37*
G36*
X82817072Y-64904718D02*
G01*
X82960352Y-64964066D01*
X83062939Y-65006559D01*
X83070184Y-65011400D01*
X83284211Y-65154409D01*
X83472391Y-65342589D01*
X83620242Y-65563863D01*
X83722082Y-65809728D01*
X83774000Y-66070737D01*
X83774000Y-66336863D01*
X83734871Y-66533575D01*
X83722082Y-66597872D01*
X83620241Y-66843739D01*
X83472390Y-67065012D01*
X83284212Y-67253190D01*
X83062939Y-67401041D01*
X83062938Y-67401042D01*
X83062937Y-67401042D01*
X82817072Y-67502882D01*
X82556063Y-67554800D01*
X82289937Y-67554800D01*
X82028928Y-67502882D01*
X81783063Y-67401042D01*
X81783062Y-67401042D01*
X81783061Y-67401041D01*
X81561788Y-67253190D01*
X81373610Y-67065012D01*
X81225759Y-66843739D01*
X81123918Y-66597872D01*
X81111129Y-66533575D01*
X81072000Y-66336863D01*
X81072000Y-66070737D01*
X81123918Y-65809728D01*
X81225758Y-65563863D01*
X81373609Y-65342589D01*
X81561789Y-65154409D01*
X81775816Y-65011400D01*
X81783061Y-65006559D01*
X81885649Y-64964066D01*
X82028928Y-64904718D01*
X82289937Y-64852800D01*
X82556063Y-64852800D01*
X82817072Y-64904718D01*
X82817072Y-64904718D01*
G37*
G36*
X52360623Y-65861713D02*
G01*
X52521042Y-65910376D01*
X52588161Y-65946252D01*
X52668878Y-65989396D01*
X52798459Y-66095741D01*
X52904804Y-66225322D01*
X52904805Y-66225324D01*
X52983824Y-66373158D01*
X53032487Y-66533577D01*
X53048917Y-66700400D01*
X53032487Y-66867223D01*
X52983824Y-67027642D01*
X52943277Y-67103500D01*
X52904804Y-67175478D01*
X52798459Y-67305059D01*
X52668878Y-67411404D01*
X52668876Y-67411405D01*
X52521042Y-67490424D01*
X52360623Y-67539087D01*
X52235604Y-67551400D01*
X51751996Y-67551400D01*
X51626977Y-67539087D01*
X51466558Y-67490424D01*
X51318724Y-67411405D01*
X51318722Y-67411404D01*
X51189141Y-67305059D01*
X51082796Y-67175478D01*
X51044323Y-67103500D01*
X51003776Y-67027642D01*
X50955113Y-66867223D01*
X50938683Y-66700400D01*
X50955113Y-66533577D01*
X51003776Y-66373158D01*
X51082795Y-66225324D01*
X51082796Y-66225322D01*
X51189141Y-66095741D01*
X51318722Y-65989396D01*
X51399439Y-65946252D01*
X51466558Y-65910376D01*
X51626977Y-65861713D01*
X51751996Y-65849400D01*
X52235604Y-65849400D01*
X52360623Y-65861713D01*
X52360623Y-65861713D01*
G37*
G36*
X56712428Y-65882103D02*
G01*
X56867300Y-65946253D01*
X57006681Y-66039385D01*
X57125215Y-66157919D01*
X57218347Y-66297300D01*
X57282497Y-66452172D01*
X57315200Y-66616584D01*
X57315200Y-66784216D01*
X57282497Y-66948628D01*
X57218347Y-67103500D01*
X57125215Y-67242881D01*
X57006681Y-67361415D01*
X56867300Y-67454547D01*
X56712428Y-67518697D01*
X56548016Y-67551400D01*
X56380384Y-67551400D01*
X56215972Y-67518697D01*
X56061100Y-67454547D01*
X55921719Y-67361415D01*
X55803185Y-67242881D01*
X55710053Y-67103500D01*
X55645903Y-66948628D01*
X55613200Y-66784216D01*
X55613200Y-66616584D01*
X55645903Y-66452172D01*
X55710053Y-66297300D01*
X55803185Y-66157919D01*
X55921719Y-66039385D01*
X56061100Y-65946253D01*
X56215972Y-65882103D01*
X56380384Y-65849400D01*
X56548016Y-65849400D01*
X56712428Y-65882103D01*
X56712428Y-65882103D01*
G37*
G36*
X75220623Y-65861713D02*
G01*
X75381042Y-65910376D01*
X75448161Y-65946252D01*
X75528878Y-65989396D01*
X75658459Y-66095741D01*
X75764804Y-66225322D01*
X75764805Y-66225324D01*
X75843824Y-66373158D01*
X75892487Y-66533577D01*
X75908917Y-66700400D01*
X75892487Y-66867223D01*
X75843824Y-67027642D01*
X75803277Y-67103500D01*
X75764804Y-67175478D01*
X75658459Y-67305059D01*
X75528878Y-67411404D01*
X75528876Y-67411405D01*
X75381042Y-67490424D01*
X75220623Y-67539087D01*
X75095604Y-67551400D01*
X74611996Y-67551400D01*
X74486977Y-67539087D01*
X74326558Y-67490424D01*
X74178724Y-67411405D01*
X74178722Y-67411404D01*
X74049141Y-67305059D01*
X73942796Y-67175478D01*
X73904323Y-67103500D01*
X73863776Y-67027642D01*
X73815113Y-66867223D01*
X73798683Y-66700400D01*
X73815113Y-66533577D01*
X73863776Y-66373158D01*
X73942795Y-66225324D01*
X73942796Y-66225322D01*
X74049141Y-66095741D01*
X74178722Y-65989396D01*
X74259439Y-65946252D01*
X74326558Y-65910376D01*
X74486977Y-65861713D01*
X74611996Y-65849400D01*
X75095604Y-65849400D01*
X75220623Y-65861713D01*
X75220623Y-65861713D01*
G37*
G36*
X61513028Y-65882103D02*
G01*
X61667900Y-65946253D01*
X61807281Y-66039385D01*
X61925815Y-66157919D01*
X62018947Y-66297300D01*
X62083097Y-66452172D01*
X62115800Y-66616584D01*
X62115800Y-66784216D01*
X62083097Y-66948628D01*
X62018947Y-67103500D01*
X61925815Y-67242881D01*
X61807281Y-67361415D01*
X61667900Y-67454547D01*
X61513028Y-67518697D01*
X61348616Y-67551400D01*
X61180984Y-67551400D01*
X61016572Y-67518697D01*
X60861700Y-67454547D01*
X60722319Y-67361415D01*
X60603785Y-67242881D01*
X60510653Y-67103500D01*
X60446503Y-66948628D01*
X60413800Y-66784216D01*
X60413800Y-66616584D01*
X60446503Y-66452172D01*
X60510653Y-66297300D01*
X60603785Y-66157919D01*
X60722319Y-66039385D01*
X60861700Y-65946253D01*
X61016572Y-65882103D01*
X61180984Y-65849400D01*
X61348616Y-65849400D01*
X61513028Y-65882103D01*
X61513028Y-65882103D01*
G37*
G36*
X65921843Y-63723119D02*
G01*
X65988027Y-63729637D01*
X66157866Y-63781157D01*
X66314391Y-63864822D01*
X66350129Y-63894152D01*
X66451586Y-63977414D01*
X66534848Y-64078871D01*
X66564178Y-64114609D01*
X66647843Y-64271134D01*
X66699363Y-64440973D01*
X66716759Y-64617600D01*
X66699363Y-64794227D01*
X66647843Y-64964066D01*
X66564178Y-65120591D01*
X66536424Y-65154409D01*
X66451586Y-65257786D01*
X66350129Y-65341048D01*
X66314391Y-65370378D01*
X66157866Y-65454043D01*
X65988027Y-65505563D01*
X65921843Y-65512081D01*
X65855660Y-65518600D01*
X65767140Y-65518600D01*
X65700957Y-65512081D01*
X65634773Y-65505563D01*
X65464934Y-65454043D01*
X65308409Y-65370378D01*
X65272671Y-65341048D01*
X65171214Y-65257786D01*
X65086376Y-65154409D01*
X65058622Y-65120591D01*
X64974957Y-64964066D01*
X64923437Y-64794227D01*
X64906041Y-64617600D01*
X64923437Y-64440973D01*
X64974957Y-64271134D01*
X65058622Y-64114609D01*
X65087952Y-64078871D01*
X65171214Y-63977414D01*
X65272671Y-63894152D01*
X65308409Y-63864822D01*
X65464934Y-63781157D01*
X65634773Y-63729637D01*
X65700957Y-63723119D01*
X65767140Y-63716600D01*
X65855660Y-63716600D01*
X65921843Y-63723119D01*
X65921843Y-63723119D01*
G37*
G36*
X75220623Y-63321713D02*
G01*
X75381042Y-63370376D01*
X75513706Y-63441286D01*
X75528878Y-63449396D01*
X75658459Y-63555741D01*
X75764804Y-63685322D01*
X75764805Y-63685324D01*
X75843824Y-63833158D01*
X75892487Y-63993577D01*
X75908917Y-64160400D01*
X75892487Y-64327223D01*
X75843824Y-64487642D01*
X75774360Y-64617600D01*
X75764804Y-64635478D01*
X75658459Y-64765059D01*
X75528878Y-64871404D01*
X75528876Y-64871405D01*
X75381042Y-64950424D01*
X75220623Y-64999087D01*
X75095604Y-65011400D01*
X74611996Y-65011400D01*
X74486977Y-64999087D01*
X74326558Y-64950424D01*
X74178724Y-64871405D01*
X74178722Y-64871404D01*
X74049141Y-64765059D01*
X73942796Y-64635478D01*
X73933240Y-64617600D01*
X73863776Y-64487642D01*
X73815113Y-64327223D01*
X73798683Y-64160400D01*
X73815113Y-63993577D01*
X73863776Y-63833158D01*
X73942795Y-63685324D01*
X73942796Y-63685322D01*
X74049141Y-63555741D01*
X74178722Y-63449396D01*
X74193894Y-63441286D01*
X74326558Y-63370376D01*
X74486977Y-63321713D01*
X74611996Y-63309400D01*
X75095604Y-63309400D01*
X75220623Y-63321713D01*
X75220623Y-63321713D01*
G37*
G36*
X52360623Y-63321713D02*
G01*
X52521042Y-63370376D01*
X52653706Y-63441286D01*
X52668878Y-63449396D01*
X52798459Y-63555741D01*
X52904804Y-63685322D01*
X52904805Y-63685324D01*
X52983824Y-63833158D01*
X53032487Y-63993577D01*
X53048917Y-64160400D01*
X53032487Y-64327223D01*
X52983824Y-64487642D01*
X52914360Y-64617600D01*
X52904804Y-64635478D01*
X52798459Y-64765059D01*
X52668878Y-64871404D01*
X52668876Y-64871405D01*
X52521042Y-64950424D01*
X52360623Y-64999087D01*
X52235604Y-65011400D01*
X51751996Y-65011400D01*
X51626977Y-64999087D01*
X51466558Y-64950424D01*
X51318724Y-64871405D01*
X51318722Y-64871404D01*
X51189141Y-64765059D01*
X51082796Y-64635478D01*
X51073240Y-64617600D01*
X51003776Y-64487642D01*
X50955113Y-64327223D01*
X50938683Y-64160400D01*
X50955113Y-63993577D01*
X51003776Y-63833158D01*
X51082795Y-63685324D01*
X51082796Y-63685322D01*
X51189141Y-63555741D01*
X51318722Y-63449396D01*
X51333894Y-63441286D01*
X51466558Y-63370376D01*
X51626977Y-63321713D01*
X51751996Y-63309400D01*
X52235604Y-63309400D01*
X52360623Y-63321713D01*
X52360623Y-63321713D01*
G37*
G36*
X66712400Y-62978600D02*
G01*
X64910400Y-62978600D01*
X64910400Y-61176600D01*
X66712400Y-61176600D01*
X66712400Y-62978600D01*
X66712400Y-62978600D01*
G37*
G36*
X82817072Y-59904718D02*
G01*
X83062939Y-60006559D01*
X83174328Y-60080987D01*
X83284211Y-60154409D01*
X83472391Y-60342589D01*
X83620242Y-60563863D01*
X83722082Y-60809728D01*
X83774000Y-61070737D01*
X83774000Y-61336863D01*
X83750784Y-61453577D01*
X83722082Y-61597872D01*
X83620241Y-61843739D01*
X83472390Y-62065012D01*
X83284212Y-62253190D01*
X83062939Y-62401041D01*
X83062938Y-62401042D01*
X83062937Y-62401042D01*
X82817072Y-62502882D01*
X82556063Y-62554800D01*
X82289937Y-62554800D01*
X82028928Y-62502882D01*
X81783063Y-62401042D01*
X81783062Y-62401042D01*
X81783061Y-62401041D01*
X81561788Y-62253190D01*
X81373610Y-62065012D01*
X81225759Y-61843739D01*
X81123918Y-61597872D01*
X81095216Y-61453577D01*
X81072000Y-61336863D01*
X81072000Y-61070737D01*
X81123918Y-60809728D01*
X81225758Y-60563863D01*
X81373609Y-60342589D01*
X81561789Y-60154409D01*
X81671672Y-60080987D01*
X81783061Y-60006559D01*
X82028928Y-59904718D01*
X82289937Y-59852800D01*
X82556063Y-59852800D01*
X82817072Y-59904718D01*
X82817072Y-59904718D01*
G37*
G36*
X75220623Y-60781713D02*
G01*
X75381042Y-60830376D01*
X75513706Y-60901286D01*
X75528878Y-60909396D01*
X75658459Y-61015741D01*
X75764804Y-61145322D01*
X75764805Y-61145324D01*
X75843824Y-61293158D01*
X75892487Y-61453577D01*
X75908917Y-61620400D01*
X75892487Y-61787223D01*
X75843824Y-61947642D01*
X75781089Y-62065011D01*
X75764804Y-62095478D01*
X75658459Y-62225059D01*
X75528878Y-62331404D01*
X75528876Y-62331405D01*
X75381042Y-62410424D01*
X75220623Y-62459087D01*
X75095604Y-62471400D01*
X74611996Y-62471400D01*
X74486977Y-62459087D01*
X74326558Y-62410424D01*
X74178724Y-62331405D01*
X74178722Y-62331404D01*
X74049141Y-62225059D01*
X73942796Y-62095478D01*
X73926511Y-62065011D01*
X73863776Y-61947642D01*
X73815113Y-61787223D01*
X73798683Y-61620400D01*
X73815113Y-61453577D01*
X73863776Y-61293158D01*
X73942795Y-61145324D01*
X73942796Y-61145322D01*
X74049141Y-61015741D01*
X74178722Y-60909396D01*
X74193894Y-60901286D01*
X74326558Y-60830376D01*
X74486977Y-60781713D01*
X74611996Y-60769400D01*
X75095604Y-60769400D01*
X75220623Y-60781713D01*
X75220623Y-60781713D01*
G37*
G36*
X52360623Y-60781713D02*
G01*
X52521042Y-60830376D01*
X52653706Y-60901286D01*
X52668878Y-60909396D01*
X52798459Y-61015741D01*
X52904804Y-61145322D01*
X52904805Y-61145324D01*
X52983824Y-61293158D01*
X53032487Y-61453577D01*
X53048917Y-61620400D01*
X53032487Y-61787223D01*
X52983824Y-61947642D01*
X52921089Y-62065011D01*
X52904804Y-62095478D01*
X52798459Y-62225059D01*
X52668878Y-62331404D01*
X52668876Y-62331405D01*
X52521042Y-62410424D01*
X52360623Y-62459087D01*
X52235604Y-62471400D01*
X51751996Y-62471400D01*
X51626977Y-62459087D01*
X51466558Y-62410424D01*
X51318724Y-62331405D01*
X51318722Y-62331404D01*
X51189141Y-62225059D01*
X51082796Y-62095478D01*
X51066511Y-62065011D01*
X51003776Y-61947642D01*
X50955113Y-61787223D01*
X50938683Y-61620400D01*
X50955113Y-61453577D01*
X51003776Y-61293158D01*
X51082795Y-61145324D01*
X51082796Y-61145322D01*
X51189141Y-61015741D01*
X51318722Y-60909396D01*
X51333894Y-60901286D01*
X51466558Y-60830376D01*
X51626977Y-60781713D01*
X51751996Y-60769400D01*
X52235604Y-60769400D01*
X52360623Y-60781713D01*
X52360623Y-60781713D01*
G37*
G36*
X53044800Y-60131400D02*
G01*
X50942800Y-60131400D01*
X50942800Y-58029400D01*
X53044800Y-58029400D01*
X53044800Y-60131400D01*
X53044800Y-60131400D01*
G37*
G36*
X75220623Y-58241713D02*
G01*
X75381042Y-58290376D01*
X75513706Y-58361286D01*
X75528878Y-58369396D01*
X75658459Y-58475741D01*
X75764804Y-58605322D01*
X75764805Y-58605324D01*
X75843824Y-58753158D01*
X75892487Y-58913577D01*
X75908917Y-59080400D01*
X75892487Y-59247223D01*
X75843824Y-59407642D01*
X75772914Y-59540306D01*
X75764804Y-59555478D01*
X75658459Y-59685059D01*
X75528878Y-59791404D01*
X75528876Y-59791405D01*
X75381042Y-59870424D01*
X75220623Y-59919087D01*
X75095604Y-59931400D01*
X74611996Y-59931400D01*
X74486977Y-59919087D01*
X74326558Y-59870424D01*
X74178724Y-59791405D01*
X74178722Y-59791404D01*
X74049141Y-59685059D01*
X73942796Y-59555478D01*
X73934686Y-59540306D01*
X73863776Y-59407642D01*
X73815113Y-59247223D01*
X73798683Y-59080400D01*
X73815113Y-58913577D01*
X73863776Y-58753158D01*
X73942795Y-58605324D01*
X73942796Y-58605322D01*
X74049141Y-58475741D01*
X74178722Y-58369396D01*
X74193894Y-58361286D01*
X74326558Y-58290376D01*
X74486977Y-58241713D01*
X74611996Y-58229400D01*
X75095604Y-58229400D01*
X75220623Y-58241713D01*
X75220623Y-58241713D01*
G37*
G36*
X82817072Y-54904718D02*
G01*
X83062939Y-55006559D01*
X83174328Y-55080987D01*
X83250047Y-55131581D01*
X83284212Y-55154410D01*
X83472390Y-55342588D01*
X83620241Y-55563861D01*
X83722082Y-55809728D01*
X83774000Y-56070738D01*
X83774000Y-56336862D01*
X83722082Y-56597872D01*
X83620241Y-56843739D01*
X83472390Y-57065012D01*
X83284212Y-57253190D01*
X83062939Y-57401041D01*
X83062938Y-57401042D01*
X83062937Y-57401042D01*
X82817072Y-57502882D01*
X82556063Y-57554800D01*
X82289937Y-57554800D01*
X82028928Y-57502882D01*
X81783063Y-57401042D01*
X81783062Y-57401042D01*
X81783061Y-57401041D01*
X81561788Y-57253190D01*
X81373610Y-57065012D01*
X81225759Y-56843739D01*
X81123918Y-56597872D01*
X81072000Y-56336862D01*
X81072000Y-56070738D01*
X81123918Y-55809728D01*
X81225759Y-55563861D01*
X81373610Y-55342588D01*
X81561788Y-55154410D01*
X81595954Y-55131581D01*
X81671672Y-55080987D01*
X81783061Y-55006559D01*
X82028928Y-54904718D01*
X82289937Y-54852800D01*
X82556063Y-54852800D01*
X82817072Y-54904718D01*
X82817072Y-54904718D01*
G37*
G36*
X69298207Y-52798382D02*
G01*
X69698763Y-52964298D01*
X69698765Y-52964299D01*
X70059256Y-53205171D01*
X70365829Y-53511744D01*
X70606701Y-53872235D01*
X70606702Y-53872237D01*
X70772618Y-54272793D01*
X70857200Y-54698019D01*
X70857200Y-55131581D01*
X70772618Y-55556807D01*
X70606702Y-55957363D01*
X70606701Y-55957365D01*
X70365829Y-56317856D01*
X70059256Y-56624429D01*
X69698765Y-56865301D01*
X69698764Y-56865302D01*
X69698763Y-56865302D01*
X69298207Y-57031218D01*
X68872981Y-57115800D01*
X68439419Y-57115800D01*
X68014193Y-57031218D01*
X67613637Y-56865302D01*
X67613636Y-56865302D01*
X67613635Y-56865301D01*
X67253144Y-56624429D01*
X66946571Y-56317856D01*
X66705699Y-55957365D01*
X66705698Y-55957363D01*
X66539782Y-55556807D01*
X66455200Y-55131581D01*
X66455200Y-54698019D01*
X66539782Y-54272793D01*
X66705698Y-53872237D01*
X66705699Y-53872235D01*
X66946571Y-53511744D01*
X67253144Y-53205171D01*
X67613635Y-52964299D01*
X67613637Y-52964298D01*
X68014193Y-52798382D01*
X68439419Y-52713800D01*
X68872981Y-52713800D01*
X69298207Y-52798382D01*
X69298207Y-52798382D01*
G37*
M02*
