M48
; DRILL file {KiCad (5.1.2)-2} date 12/1/2020 10:27:05 PM
; FORMAT={-:-/ absolute / inch / decimal}
; #@! TF.CreationDate,2020-12-01T22:27:05-06:00
; #@! TF.GenerationSoftware,Kicad,Pcbnew,(5.1.2)-2
; #@! TF.FileFunction,Plated,1,2,PTH
FMAT,2
INCH
T1C0.0315
T2C0.0394
T3C0.0492
T4C0.0512
%
G90
G05
T1
X2.412Y-2.626
X2.412Y-3.026
X2.223Y-2.626
X2.223Y-3.026
X2.804Y-2.9276
X2.804Y-3.026
T2
X2.591Y-2.444
X2.591Y-2.544
X2.047Y-2.326
X2.047Y-2.426
X2.047Y-2.526
X2.047Y-2.626
X2.047Y-2.726
X2.047Y-2.826
X2.047Y-2.926
X2.047Y-3.026
X2.947Y-2.326
X2.947Y-2.426
X2.947Y-2.526
X2.947Y-2.626
X2.947Y-2.726
X2.947Y-2.826
X2.947Y-2.926
X2.947Y-3.026
T3
X2.614Y-2.776
X2.614Y-3.376
T4
X3.245Y-2.2127
X3.245Y-2.4096
X3.245Y-2.6064
X3.245Y-2.8033
X3.245Y-3.0001
X3.245Y-3.197
T0
M30
