%TF.GenerationSoftware,KiCad,Pcbnew,(5.1.9)-1*%
%TF.CreationDate,2021-01-18T22:12:50-06:00*%
%TF.ProjectId,TMS1,544d5331-2e6b-4696-9361-645f70636258,rev?*%
%TF.SameCoordinates,Original*%
%TF.FileFunction,Copper,L1,Top*%
%TF.FilePolarity,Positive*%
%FSLAX46Y46*%
G04 Gerber Fmt 4.6, Leading zero omitted, Abs format (unit mm)*
G04 Created by KiCad (PCBNEW (5.1.9)-1) date 2021-01-18 22:12:50*
%MOMM*%
%LPD*%
G01*
G04 APERTURE LIST*
%TA.AperFunction,ComponentPad*%
%ADD10C,2.600000*%
%TD*%
%TA.AperFunction,ComponentPad*%
%ADD11R,2.600000X2.600000*%
%TD*%
%TA.AperFunction,ComponentPad*%
%ADD12C,3.000000*%
%TD*%
%TA.AperFunction,ComponentPad*%
%ADD13O,2.200000X2.200000*%
%TD*%
%TA.AperFunction,ComponentPad*%
%ADD14R,2.200000X2.200000*%
%TD*%
%TA.AperFunction,ComponentPad*%
%ADD15O,1.700000X1.700000*%
%TD*%
%TA.AperFunction,ComponentPad*%
%ADD16R,1.700000X1.700000*%
%TD*%
%TA.AperFunction,ComponentPad*%
%ADD17O,4.500000X2.000000*%
%TD*%
%TA.AperFunction,ComponentPad*%
%ADD18O,2.000000X4.500000*%
%TD*%
%TA.AperFunction,ComponentPad*%
%ADD19R,2.000000X4.500000*%
%TD*%
%TA.AperFunction,ComponentPad*%
%ADD20O,1.600000X2.000000*%
%TD*%
%TA.AperFunction,ComponentPad*%
%ADD21R,2.000000X2.000000*%
%TD*%
%TA.AperFunction,ComponentPad*%
%ADD22C,1.590000*%
%TD*%
%TA.AperFunction,ComponentPad*%
%ADD23R,2.800000X2.800000*%
%TD*%
%TA.AperFunction,ComponentPad*%
%ADD24O,1.600000X1.600000*%
%TD*%
%TA.AperFunction,ComponentPad*%
%ADD25C,1.600000*%
%TD*%
%TA.AperFunction,ComponentPad*%
%ADD26C,1.700000*%
%TD*%
%TA.AperFunction,Conductor*%
%ADD27C,1.270000*%
%TD*%
G04 APERTURE END LIST*
D10*
%TO.P,J5,2*%
%TO.N,Net-(J5-Pad2)*%
X83486000Y-56388000D03*
D11*
%TO.P,J5,1*%
%TO.N,Net-(J5-Pad1)*%
X78486000Y-56388000D03*
%TD*%
D10*
%TO.P,J2,7*%
%TO.N,Net-(J2-Pad7)*%
X114808000Y-91666000D03*
%TO.P,J2,6*%
%TO.N,GND*%
X114808000Y-96666000D03*
%TO.P,J2,5*%
X114808000Y-101666000D03*
%TO.P,J2,4*%
%TO.N,Net-(AK1-Pad6)*%
X114808000Y-106666000D03*
%TO.P,J2,3*%
%TO.N,Net-(AK1-Pad3)*%
X114808000Y-111666000D03*
%TO.P,J2,2*%
%TO.N,Net-(AK1-Pad2)*%
X114808000Y-116666000D03*
D11*
%TO.P,J2,1*%
%TO.N,Net-(AK1-Pad1)*%
X114808000Y-121666000D03*
%TD*%
D12*
%TO.P, ,1*%
%TO.N,N/C*%
X135282000Y-61554000D03*
%TD*%
D13*
%TO.P,D1,2*%
%TO.N,Net-(D1-Pad2)*%
X92710000Y-89408000D03*
D14*
%TO.P,D1,1*%
%TO.N,Net-(C1-Pad1)*%
X82550000Y-89408000D03*
%TD*%
D15*
%TO.P,J3,2*%
%TO.N,Net-(D1-Pad2)*%
X98806000Y-89408000D03*
D16*
%TO.P,J3,1*%
%TO.N,Net-(J2-Pad7)*%
X101346000Y-89408000D03*
%TD*%
D17*
%TO.P,J4,3*%
%TO.N,N/C*%
X102576000Y-74194000D03*
D18*
%TO.P,J4,2*%
%TO.N,GND*%
X106076000Y-78994000D03*
D19*
%TO.P,J4,1*%
%TO.N,Net-(J2-Pad7)*%
X100076000Y-78994000D03*
%TD*%
D20*
%TO.P,U1,16*%
%TO.N,Net-(U1-Pad16)*%
X59690000Y-94488000D03*
%TO.P,U1,15*%
%TO.N,Net-(U1-Pad15)*%
X62230000Y-94488000D03*
%TO.P,U1,14*%
%TO.N,Net-(AK1-Pad2)*%
X64770000Y-94488000D03*
%TO.P,U1,13*%
%TO.N,Net-(AK1-Pad3)*%
X67310000Y-94488000D03*
%TO.P,U1,12*%
%TO.N,Net-(U1-Pad12)*%
X69850000Y-94488000D03*
%TO.P,U1,11*%
%TO.N,Net-(U1-Pad11)*%
X72390000Y-94488000D03*
%TO.P,U1,10*%
%TO.N,GND*%
X74930000Y-94488000D03*
%TO.P,U1,9*%
%TO.N,Net-(C1-Pad1)*%
X77470000Y-94488000D03*
%TO.P,U1,8*%
%TO.N,Net-(AK1-Pad1)*%
X77470000Y-117348000D03*
%TO.P,U1,7*%
%TO.N,Net-(U1-Pad7)*%
X74930000Y-117348000D03*
%TO.P,U1,6*%
%TO.N,Net-(U1-Pad6)*%
X72390000Y-117348000D03*
%TO.P,U1,5*%
%TO.N,Net-(U1-Pad5)*%
X69850000Y-117348000D03*
%TO.P,U1,4*%
%TO.N,Net-(U1-Pad4)*%
X67310000Y-117348000D03*
%TO.P,U1,3*%
%TO.N,Net-(J1-Pad1)*%
X64770000Y-117348000D03*
D21*
%TO.P,U1,1*%
%TO.N,Net-(J1-Pad2)*%
X59690000Y-117348000D03*
D20*
%TO.P,U1,2*%
%TO.N,Net-(U1-Pad2)*%
X62230000Y-117348000D03*
%TD*%
D22*
%TO.P,U2,3*%
%TO.N,Net-(T1-Pad1)*%
X95114000Y-76403200D03*
%TO.P,U2,2*%
%TO.N,GND*%
X95114000Y-78943200D03*
%TO.P,U2,1*%
%TO.N,Net-(J2-Pad7)*%
X95114000Y-81483200D03*
%TD*%
D23*
%TO.P,T1,1*%
%TO.N,Net-(T1-Pad1)*%
X70436000Y-54024000D03*
%TO.P,T1,2*%
%TO.N,GND*%
X56236000Y-54024000D03*
%TO.P,T1,3*%
%TO.N,Net-(D1-Pad2)*%
X70436000Y-76924000D03*
%TO.P,T1,4*%
%TO.N,GND*%
X55936000Y-76924000D03*
%TO.P,T1,5*%
%TO.N,Net-(J5-Pad2)*%
X66936000Y-76924000D03*
%TO.P,T1,6*%
%TO.N,Net-(J5-Pad1)*%
X59336000Y-76924000D03*
%TD*%
D24*
%TO.P,R2,2*%
%TO.N,Net-(AK1-Pad2)*%
X63500000Y-98552000D03*
D25*
%TO.P,R2,1*%
%TO.N,Net-(AK1-Pad1)*%
X63500000Y-108712000D03*
%TD*%
D24*
%TO.P,R1,2*%
%TO.N,Net-(AK1-Pad3)*%
X68580000Y-98552000D03*
D25*
%TO.P,R1,1*%
%TO.N,Net-(AK1-Pad1)*%
X68580000Y-108712000D03*
%TD*%
D15*
%TO.P,J1,2*%
%TO.N,Net-(J1-Pad2)*%
X61722000Y-122682000D03*
D16*
%TO.P,J1,1*%
%TO.N,Net-(J1-Pad1)*%
X64262000Y-122682000D03*
%TD*%
D25*
%TO.P,C2,2*%
%TO.N,GND*%
X93178000Y-118618000D03*
%TO.P,C2,1*%
%TO.N,Net-(AK1-Pad1)*%
X90678000Y-118618000D03*
%TD*%
%TO.P,C1,2*%
%TO.N,GND*%
X74970000Y-89408000D03*
%TO.P,C1,1*%
%TO.N,Net-(C1-Pad1)*%
X77470000Y-89408000D03*
%TD*%
D26*
%TO.P,AK1,7*%
%TO.N,GND*%
X105756000Y-114584000D03*
%TO.P,AK1,6*%
%TO.N,Net-(AK1-Pad6)*%
X103216000Y-114584000D03*
%TO.P,AK1,5*%
%TO.N,Net-(AK1-Pad5)*%
X100676000Y-114584000D03*
%TO.P,AK1,4*%
%TO.N,Net-(AK1-Pad4)*%
X98136000Y-114584000D03*
%TO.P,AK1,3*%
%TO.N,Net-(AK1-Pad3)*%
X95596000Y-114584000D03*
%TO.P,AK1,2*%
%TO.N,Net-(AK1-Pad2)*%
X93056000Y-114584000D03*
%TO.P,AK1,1*%
%TO.N,Net-(AK1-Pad1)*%
X90516000Y-114584000D03*
%TD*%
D27*
%TO.N,Net-(AK1-Pad6)*%
X111134000Y-106666000D02*
X114808000Y-106666000D01*
X103216000Y-114584000D02*
X111134000Y-106666000D01*
%TO.N,Net-(AK1-Pad3)*%
X67310000Y-97282000D02*
X68580000Y-98552000D01*
X67310000Y-94488000D02*
X67310000Y-97282000D01*
X97281001Y-116269001D02*
X95596000Y-114584000D01*
X111167802Y-111666000D02*
X106564801Y-116269001D01*
X114808000Y-111666000D02*
X111167802Y-111666000D01*
X106564801Y-116269001D02*
X97281001Y-116269001D01*
X79564000Y-98552000D02*
X68580000Y-98552000D01*
X95596000Y-114584000D02*
X79564000Y-98552000D01*
%TO.N,Net-(AK1-Pad2)*%
X64770000Y-97282000D02*
X63500000Y-98552000D01*
X64770000Y-94488000D02*
X64770000Y-97282000D01*
X114808000Y-116666000D02*
X113508001Y-117965999D01*
X113508001Y-117965999D02*
X96437999Y-117965999D01*
X96437999Y-117965999D02*
X93056000Y-114584000D01*
X77846999Y-112898999D02*
X63500000Y-98552000D01*
X91370999Y-112898999D02*
X77846999Y-112898999D01*
X93056000Y-114584000D02*
X91370999Y-112898999D01*
%TO.N,Net-(AK1-Pad1)*%
X68834000Y-108712000D02*
X68580000Y-108712000D01*
X77470000Y-117348000D02*
X68834000Y-108712000D01*
X68580000Y-108712000D02*
X63500000Y-108712000D01*
X89408000Y-117348000D02*
X90678000Y-118618000D01*
X77470000Y-117348000D02*
X89408000Y-117348000D01*
X90678000Y-114746000D02*
X90516000Y-114584000D01*
X90678000Y-118618000D02*
X90678000Y-114746000D01*
X93726000Y-121666000D02*
X114808000Y-121666000D01*
X90678000Y-118618000D02*
X93726000Y-121666000D01*
%TO.N,Net-(C1-Pad1)*%
X77470000Y-94488000D02*
X77470000Y-89408000D01*
X77470000Y-89408000D02*
X82550000Y-89408000D01*
%TO.N,Net-(J1-Pad2)*%
X59690000Y-120650000D02*
X61722000Y-122682000D01*
X59690000Y-117348000D02*
X59690000Y-120650000D01*
%TO.N,Net-(J1-Pad1)*%
X64770000Y-122174000D02*
X64262000Y-122682000D01*
X64770000Y-117348000D02*
X64770000Y-122174000D01*
%TO.N,Net-(T1-Pad1)*%
X95114000Y-76403200D02*
X95046800Y-76403200D01*
X84281802Y-54024000D02*
X70436000Y-54024000D01*
X95114000Y-64856198D02*
X84281802Y-54024000D01*
X95114000Y-76403200D02*
X95114000Y-64856198D01*
%TO.N,Net-(D1-Pad2)*%
X92710000Y-89408000D02*
X98806000Y-89408000D01*
X80226000Y-76924000D02*
X70436000Y-76924000D01*
X92710000Y-89408000D02*
X80226000Y-76924000D01*
%TO.N,Net-(J2-Pad7)*%
X103604000Y-91666000D02*
X101346000Y-89408000D01*
X114808000Y-91666000D02*
X103604000Y-91666000D01*
X101346000Y-87715200D02*
X95114000Y-81483200D01*
X101346000Y-89408000D02*
X101346000Y-87715200D01*
X97586800Y-81483200D02*
X100076000Y-78994000D01*
X95114000Y-81483200D02*
X97586800Y-81483200D01*
%TO.N,Net-(J5-Pad2)*%
X66936000Y-72938000D02*
X66936000Y-76924000D01*
X83486000Y-56388000D02*
X66936000Y-72938000D01*
%TO.N,Net-(J5-Pad1)*%
X78486000Y-57774000D02*
X59336000Y-76924000D01*
X78486000Y-56388000D02*
X78486000Y-57774000D01*
%TD*%
M02*
