M48
; DRILL file {KiCad (5.1.9)-1} date 01/18/21 22:12:48
; FORMAT={-:-/ absolute / inch / decimal}
; #@! TF.CreationDate,2021-01-18T22:12:48-06:00
; #@! TF.GenerationSoftware,Kicad,Pcbnew,(5.1.9)-1
; #@! TF.FileFunction,Plated,1,2,PTH
FMAT,2
INCH
T1C0.0315
T2C0.0350
T3C0.0394
T4C0.0433
T5C0.0512
T6C0.0606
T7C0.1181
%
G90
G05
T1
X2.5Y-3.88
X2.5Y-4.28
X2.7Y-3.88
X2.7Y-4.28
X2.9516Y-3.52
X3.05Y-3.52
X3.57Y-4.67
X3.6684Y-4.67
T2
X3.7446Y-3.008
X3.7446Y-3.108
X3.7446Y-3.208
T3
X2.35Y-3.72
X2.35Y-4.62
X2.43Y-4.83
X2.45Y-3.72
X2.45Y-4.62
X2.53Y-4.83
X2.55Y-3.72
X2.55Y-4.62
X2.65Y-3.72
X2.65Y-4.62
X2.75Y-3.72
X2.75Y-4.62
X2.85Y-3.72
X2.85Y-4.62
X2.95Y-3.72
X2.95Y-4.62
X3.05Y-3.72
X3.05Y-4.62
X3.5636Y-4.5112
X3.6636Y-4.5112
X3.7636Y-4.5112
X3.8636Y-4.5112
X3.89Y-3.52
X3.9636Y-4.5112
X3.99Y-3.52
X4.0636Y-4.5112
X4.1636Y-4.5112
T4
X3.25Y-3.52
X3.65Y-3.52
T5
X3.09Y-2.22
X3.2869Y-2.22
X4.52Y-3.6089
X4.52Y-3.8057
X4.52Y-4.0026
X4.52Y-4.1994
X4.52Y-4.3963
X4.52Y-4.5931
X4.52Y-4.79
T6
X2.2022Y-3.0285
X2.214Y-2.1269
X2.3361Y-3.0285
X2.6353Y-3.0285
X2.7731Y-2.1269
X2.7731Y-3.0285
T7
X5.3261Y-2.4234
T3
G00X3.94Y-3.1592
M15
G01X3.94Y-3.0608
M16
G05
G00X3.9892Y-2.921
M15
G01X4.0876Y-2.921
M16
G05
G00X4.1762Y-3.1592
M15
G01X4.1762Y-3.0608
M16
G05
T0
M30
