%TF.GenerationSoftware,KiCad,Pcbnew,(5.1.9)-1*%
%TF.CreationDate,2021-01-18T22:12:50-06:00*%
%TF.ProjectId,TMS1,544d5331-2e6b-4696-9361-645f70636258,rev?*%
%TF.SameCoordinates,Original*%
%TF.FileFunction,Soldermask,Bot*%
%TF.FilePolarity,Negative*%
%FSLAX46Y46*%
G04 Gerber Fmt 4.6, Leading zero omitted, Abs format (unit mm)*
G04 Created by KiCad (PCBNEW (5.1.9)-1) date 2021-01-18 22:12:50*
%MOMM*%
%LPD*%
G01*
G04 APERTURE LIST*
%ADD10C,2.600000*%
%ADD11R,2.600000X2.600000*%
%ADD12C,4.300000*%
%ADD13C,3.000000*%
%ADD14O,2.200000X2.200000*%
%ADD15R,2.200000X2.200000*%
%ADD16O,1.700000X1.700000*%
%ADD17R,1.700000X1.700000*%
%ADD18O,4.500000X2.000000*%
%ADD19O,2.000000X4.500000*%
%ADD20R,2.000000X4.500000*%
%ADD21O,1.600000X2.000000*%
%ADD22R,2.000000X2.000000*%
%ADD23C,1.590000*%
%ADD24R,2.800000X2.800000*%
%ADD25O,1.600000X1.600000*%
%ADD26C,1.600000*%
%ADD27C,1.700000*%
G04 APERTURE END LIST*
D10*
%TO.C,J5*%
X83486000Y-56388000D03*
D11*
X78486000Y-56388000D03*
%TD*%
D10*
%TO.C,J2*%
X114808000Y-91666000D03*
X114808000Y-96666000D03*
X114808000Y-101666000D03*
X114808000Y-106666000D03*
X114808000Y-111666000D03*
X114808000Y-116666000D03*
D11*
X114808000Y-121666000D03*
%TD*%
D12*
%TO.C, *%
X163000000Y-88000000D03*
%TD*%
%TO.C, *%
X63000000Y-88000000D03*
%TD*%
D13*
%TO.C, *%
X135282000Y-61554000D03*
%TD*%
D14*
%TO.C,D1*%
X92710000Y-89408000D03*
D15*
X82550000Y-89408000D03*
%TD*%
D16*
%TO.C,J3*%
X98806000Y-89408000D03*
D17*
X101346000Y-89408000D03*
%TD*%
D18*
%TO.C,J4*%
X102576000Y-74194000D03*
D19*
X106076000Y-78994000D03*
D20*
X100076000Y-78994000D03*
%TD*%
D21*
%TO.C,U1*%
X59690000Y-94488000D03*
X62230000Y-94488000D03*
X64770000Y-94488000D03*
X67310000Y-94488000D03*
X69850000Y-94488000D03*
X72390000Y-94488000D03*
X74930000Y-94488000D03*
X77470000Y-94488000D03*
X77470000Y-117348000D03*
X74930000Y-117348000D03*
X72390000Y-117348000D03*
X69850000Y-117348000D03*
X67310000Y-117348000D03*
X64770000Y-117348000D03*
D22*
X59690000Y-117348000D03*
D21*
X62230000Y-117348000D03*
%TD*%
D23*
%TO.C,U2*%
X95114000Y-76403200D03*
X95114000Y-78943200D03*
X95114000Y-81483200D03*
%TD*%
D24*
%TO.C,T1*%
X70436000Y-54024000D03*
X56236000Y-54024000D03*
X70436000Y-76924000D03*
X55936000Y-76924000D03*
X66936000Y-76924000D03*
X59336000Y-76924000D03*
%TD*%
D25*
%TO.C,R2*%
X63500000Y-98552000D03*
D26*
X63500000Y-108712000D03*
%TD*%
D25*
%TO.C,R1*%
X68580000Y-98552000D03*
D26*
X68580000Y-108712000D03*
%TD*%
D16*
%TO.C,J1*%
X61722000Y-122682000D03*
D17*
X64262000Y-122682000D03*
%TD*%
D26*
%TO.C,C2*%
X93178000Y-118618000D03*
X90678000Y-118618000D03*
%TD*%
%TO.C,C1*%
X74970000Y-89408000D03*
X77470000Y-89408000D03*
%TD*%
D27*
%TO.C,AK1*%
X105756000Y-114584000D03*
X103216000Y-114584000D03*
X100676000Y-114584000D03*
X98136000Y-114584000D03*
X95596000Y-114584000D03*
X93056000Y-114584000D03*
X90516000Y-114584000D03*
%TD*%
M02*
