G04 #@! TF.GenerationSoftware,KiCad,Pcbnew,(5.1.2)-2*
G04 #@! TF.CreationDate,2020-11-27T11:43:39-06:00*
G04 #@! TF.ProjectId,TempMonitor10PCB,54656d70-4d6f-46e6-9974-6f7231305043,rev?*
G04 #@! TF.SameCoordinates,Original*
G04 #@! TF.FileFunction,Legend,Bot*
G04 #@! TF.FilePolarity,Positive*
%FSLAX46Y46*%
G04 Gerber Fmt 4.6, Leading zero omitted, Abs format (unit mm)*
G04 Created by KiCad (PCBNEW (5.1.2)-2) date 2020-11-27 11:43:39*
%MOMM*%
%LPD*%
G04 APERTURE LIST*
%ADD10C,0.250000*%
%ADD11C,0.150000*%
G04 APERTURE END LIST*
D10*
X66881628Y-95930614D02*
X67595914Y-96430614D01*
X66881628Y-96787757D02*
X68381628Y-96787757D01*
X68381628Y-96216328D01*
X68310200Y-96073471D01*
X68238771Y-96002042D01*
X68095914Y-95930614D01*
X67881628Y-95930614D01*
X67738771Y-96002042D01*
X67667342Y-96073471D01*
X67595914Y-96216328D01*
X67595914Y-96787757D01*
X68381628Y-94859185D02*
X67310200Y-94859185D01*
X67095914Y-94930614D01*
X66953057Y-95073471D01*
X66881628Y-95287757D01*
X66881628Y-95430614D01*
X67881628Y-93502042D02*
X66881628Y-93502042D01*
X68453057Y-93859185D02*
X67381628Y-94216328D01*
X67381628Y-93287757D01*
X68381628Y-92002042D02*
X68381628Y-92716328D01*
X67667342Y-92787757D01*
X67738771Y-92716328D01*
X67810200Y-92573471D01*
X67810200Y-92216328D01*
X67738771Y-92073471D01*
X67667342Y-92002042D01*
X67524485Y-91930614D01*
X67167342Y-91930614D01*
X67024485Y-92002042D01*
X66953057Y-92073471D01*
X66881628Y-92216328D01*
X66881628Y-92573471D01*
X66953057Y-92716328D01*
X67024485Y-92787757D01*
X66881628Y-90144900D02*
X68381628Y-90144900D01*
X68381628Y-89573471D01*
X68310200Y-89430614D01*
X68238771Y-89359185D01*
X68095914Y-89287757D01*
X67881628Y-89287757D01*
X67738771Y-89359185D01*
X67667342Y-89430614D01*
X67595914Y-89573471D01*
X67595914Y-90144900D01*
X66881628Y-88430614D02*
X66953057Y-88573471D01*
X67024485Y-88644900D01*
X67167342Y-88716328D01*
X67595914Y-88716328D01*
X67738771Y-88644900D01*
X67810200Y-88573471D01*
X67881628Y-88430614D01*
X67881628Y-88216328D01*
X67810200Y-88073471D01*
X67738771Y-88002042D01*
X67595914Y-87930614D01*
X67167342Y-87930614D01*
X67024485Y-88002042D01*
X66953057Y-88073471D01*
X66881628Y-88216328D01*
X66881628Y-88430614D01*
X67881628Y-87430614D02*
X66881628Y-87144900D01*
X67595914Y-86859185D01*
X66881628Y-86573471D01*
X67881628Y-86287757D01*
X66953057Y-85144900D02*
X66881628Y-85287757D01*
X66881628Y-85573471D01*
X66953057Y-85716328D01*
X67095914Y-85787757D01*
X67667342Y-85787757D01*
X67810200Y-85716328D01*
X67881628Y-85573471D01*
X67881628Y-85287757D01*
X67810200Y-85144900D01*
X67667342Y-85073471D01*
X67524485Y-85073471D01*
X67381628Y-85787757D01*
X66881628Y-84430614D02*
X67881628Y-84430614D01*
X67595914Y-84430614D02*
X67738771Y-84359185D01*
X67810200Y-84287757D01*
X67881628Y-84144900D01*
X67881628Y-84002042D01*
X67024485Y-83502042D02*
X66953057Y-83430614D01*
X66881628Y-83502042D01*
X66953057Y-83573471D01*
X67024485Y-83502042D01*
X66881628Y-83502042D01*
X67810200Y-83502042D02*
X67738771Y-83430614D01*
X67667342Y-83502042D01*
X67738771Y-83573471D01*
X67810200Y-83502042D01*
X67667342Y-83502042D01*
X65381628Y-96144900D02*
X64381628Y-96144900D01*
X65953057Y-96502042D02*
X64881628Y-96859185D01*
X64881628Y-95930614D01*
X65381628Y-94216328D02*
X63881628Y-94216328D01*
X65310200Y-94216328D02*
X65381628Y-94073471D01*
X65381628Y-93787757D01*
X65310200Y-93644900D01*
X65238771Y-93573471D01*
X65095914Y-93502042D01*
X64667342Y-93502042D01*
X64524485Y-93573471D01*
X64453057Y-93644900D01*
X64381628Y-93787757D01*
X64381628Y-94073471D01*
X64453057Y-94216328D01*
X64381628Y-92644900D02*
X64453057Y-92787757D01*
X64524485Y-92859185D01*
X64667342Y-92930614D01*
X65095914Y-92930614D01*
X65238771Y-92859185D01*
X65310200Y-92787757D01*
X65381628Y-92644900D01*
X65381628Y-92430614D01*
X65310200Y-92287757D01*
X65238771Y-92216328D01*
X65095914Y-92144900D01*
X64667342Y-92144900D01*
X64524485Y-92216328D01*
X64453057Y-92287757D01*
X64381628Y-92430614D01*
X64381628Y-92644900D01*
X65381628Y-91644900D02*
X64381628Y-91359185D01*
X65095914Y-91073471D01*
X64381628Y-90787757D01*
X65381628Y-90502042D01*
X64453057Y-89359185D02*
X64381628Y-89502042D01*
X64381628Y-89787757D01*
X64453057Y-89930614D01*
X64595914Y-90002042D01*
X65167342Y-90002042D01*
X65310200Y-89930614D01*
X65381628Y-89787757D01*
X65381628Y-89502042D01*
X65310200Y-89359185D01*
X65167342Y-89287757D01*
X65024485Y-89287757D01*
X64881628Y-90002042D01*
X64381628Y-88644900D02*
X65381628Y-88644900D01*
X65095914Y-88644900D02*
X65238771Y-88573471D01*
X65310200Y-88502042D01*
X65381628Y-88359185D01*
X65381628Y-88216328D01*
X65738771Y-86644900D02*
X65810200Y-86573471D01*
X65881628Y-86430614D01*
X65881628Y-86073471D01*
X65810200Y-85930614D01*
X65738771Y-85859185D01*
X65595914Y-85787757D01*
X65453057Y-85787757D01*
X65238771Y-85859185D01*
X64381628Y-86716328D01*
X64381628Y-85787757D01*
X65381628Y-84502042D02*
X64381628Y-84502042D01*
X65953057Y-84859185D02*
X64881628Y-85216328D01*
X64881628Y-84287757D01*
X65881628Y-83930614D02*
X64381628Y-83430614D01*
X65881628Y-82930614D01*
X63381628Y-96073471D02*
X63381628Y-96787757D01*
X62667342Y-96859185D01*
X62738771Y-96787757D01*
X62810200Y-96644900D01*
X62810200Y-96287757D01*
X62738771Y-96144900D01*
X62667342Y-96073471D01*
X62524485Y-96002042D01*
X62167342Y-96002042D01*
X62024485Y-96073471D01*
X61953057Y-96144900D01*
X61881628Y-96287757D01*
X61881628Y-96644900D01*
X61953057Y-96787757D01*
X62024485Y-96859185D01*
X62881628Y-94216328D02*
X61381628Y-94216328D01*
X62810200Y-94216328D02*
X62881628Y-94073471D01*
X62881628Y-93787757D01*
X62810200Y-93644900D01*
X62738771Y-93573471D01*
X62595914Y-93502042D01*
X62167342Y-93502042D01*
X62024485Y-93573471D01*
X61953057Y-93644900D01*
X61881628Y-93787757D01*
X61881628Y-94073471D01*
X61953057Y-94216328D01*
X61881628Y-92644900D02*
X61953057Y-92787757D01*
X62024485Y-92859185D01*
X62167342Y-92930614D01*
X62595914Y-92930614D01*
X62738771Y-92859185D01*
X62810200Y-92787757D01*
X62881628Y-92644900D01*
X62881628Y-92430614D01*
X62810200Y-92287757D01*
X62738771Y-92216328D01*
X62595914Y-92144900D01*
X62167342Y-92144900D01*
X62024485Y-92216328D01*
X61953057Y-92287757D01*
X61881628Y-92430614D01*
X61881628Y-92644900D01*
X62881628Y-91644900D02*
X61881628Y-91359185D01*
X62595914Y-91073471D01*
X61881628Y-90787757D01*
X62881628Y-90502042D01*
X61953057Y-89359185D02*
X61881628Y-89502042D01*
X61881628Y-89787757D01*
X61953057Y-89930614D01*
X62095914Y-90002042D01*
X62667342Y-90002042D01*
X62810200Y-89930614D01*
X62881628Y-89787757D01*
X62881628Y-89502042D01*
X62810200Y-89359185D01*
X62667342Y-89287757D01*
X62524485Y-89287757D01*
X62381628Y-90002042D01*
X61881628Y-88644900D02*
X62881628Y-88644900D01*
X62595914Y-88644900D02*
X62738771Y-88573471D01*
X62810200Y-88502042D01*
X62881628Y-88359185D01*
X62881628Y-88216328D01*
X63238771Y-86644900D02*
X63310200Y-86573471D01*
X63381628Y-86430614D01*
X63381628Y-86073471D01*
X63310200Y-85930614D01*
X63238771Y-85859185D01*
X63095914Y-85787757D01*
X62953057Y-85787757D01*
X62738771Y-85859185D01*
X61881628Y-86716328D01*
X61881628Y-85787757D01*
X62881628Y-84502042D02*
X61881628Y-84502042D01*
X63453057Y-84859185D02*
X62381628Y-85216328D01*
X62381628Y-84287757D01*
X63381628Y-83930614D02*
X61881628Y-83430614D01*
X63381628Y-82930614D01*
X60881628Y-96930614D02*
X60881628Y-95930614D01*
X59381628Y-96573471D01*
X60810200Y-93430614D02*
X60881628Y-93573471D01*
X60881628Y-93787757D01*
X60810200Y-94002042D01*
X60667342Y-94144900D01*
X60524485Y-94216328D01*
X60238771Y-94287757D01*
X60024485Y-94287757D01*
X59738771Y-94216328D01*
X59595914Y-94144900D01*
X59453057Y-94002042D01*
X59381628Y-93787757D01*
X59381628Y-93644900D01*
X59453057Y-93430614D01*
X59524485Y-93359185D01*
X60024485Y-93359185D01*
X60024485Y-93644900D01*
X59381628Y-92716328D02*
X60881628Y-92716328D01*
X59381628Y-91859185D01*
X60881628Y-91859185D01*
X59381628Y-91144900D02*
X60881628Y-91144900D01*
X60881628Y-90787757D01*
X60810200Y-90573471D01*
X60667342Y-90430614D01*
X60524485Y-90359185D01*
X60238771Y-90287757D01*
X60024485Y-90287757D01*
X59738771Y-90359185D01*
X59595914Y-90430614D01*
X59453057Y-90573471D01*
X59381628Y-90787757D01*
X59381628Y-91144900D01*
X57738771Y-96573471D02*
X57810200Y-96716328D01*
X57881628Y-96787757D01*
X58024485Y-96859185D01*
X58095914Y-96859185D01*
X58238771Y-96787757D01*
X58310200Y-96716328D01*
X58381628Y-96573471D01*
X58381628Y-96287757D01*
X58310200Y-96144900D01*
X58238771Y-96073471D01*
X58095914Y-96002042D01*
X58024485Y-96002042D01*
X57881628Y-96073471D01*
X57810200Y-96144900D01*
X57738771Y-96287757D01*
X57738771Y-96573471D01*
X57667342Y-96716328D01*
X57595914Y-96787757D01*
X57453057Y-96859185D01*
X57167342Y-96859185D01*
X57024485Y-96787757D01*
X56953057Y-96716328D01*
X56881628Y-96573471D01*
X56881628Y-96287757D01*
X56953057Y-96144900D01*
X57024485Y-96073471D01*
X57167342Y-96002042D01*
X57453057Y-96002042D01*
X57595914Y-96073471D01*
X57667342Y-96144900D01*
X57738771Y-96287757D01*
X58310200Y-93430614D02*
X58381628Y-93573471D01*
X58381628Y-93787757D01*
X58310200Y-94002042D01*
X58167342Y-94144900D01*
X58024485Y-94216328D01*
X57738771Y-94287757D01*
X57524485Y-94287757D01*
X57238771Y-94216328D01*
X57095914Y-94144900D01*
X56953057Y-94002042D01*
X56881628Y-93787757D01*
X56881628Y-93644900D01*
X56953057Y-93430614D01*
X57024485Y-93359185D01*
X57524485Y-93359185D01*
X57524485Y-93644900D01*
X56881628Y-92716328D02*
X58381628Y-92716328D01*
X56881628Y-91859185D01*
X58381628Y-91859185D01*
X56881628Y-91144900D02*
X58381628Y-91144900D01*
X58381628Y-90787757D01*
X58310200Y-90573471D01*
X58167342Y-90430614D01*
X58024485Y-90359185D01*
X57738771Y-90287757D01*
X57524485Y-90287757D01*
X57238771Y-90359185D01*
X57095914Y-90430614D01*
X56953057Y-90573471D01*
X56881628Y-90787757D01*
X56881628Y-91144900D01*
X68070028Y-64053614D02*
X68784314Y-64553614D01*
X68070028Y-64910757D02*
X69570028Y-64910757D01*
X69570028Y-64339328D01*
X69498600Y-64196471D01*
X69427171Y-64125042D01*
X69284314Y-64053614D01*
X69070028Y-64053614D01*
X68927171Y-64125042D01*
X68855742Y-64196471D01*
X68784314Y-64339328D01*
X68784314Y-64910757D01*
X69570028Y-62982185D02*
X68498600Y-62982185D01*
X68284314Y-63053614D01*
X68141457Y-63196471D01*
X68070028Y-63410757D01*
X68070028Y-63553614D01*
X69070028Y-61625042D02*
X68070028Y-61625042D01*
X69641457Y-61982185D02*
X68570028Y-62339328D01*
X68570028Y-61410757D01*
X69570028Y-60125042D02*
X69570028Y-60839328D01*
X68855742Y-60910757D01*
X68927171Y-60839328D01*
X68998600Y-60696471D01*
X68998600Y-60339328D01*
X68927171Y-60196471D01*
X68855742Y-60125042D01*
X68712885Y-60053614D01*
X68355742Y-60053614D01*
X68212885Y-60125042D01*
X68141457Y-60196471D01*
X68070028Y-60339328D01*
X68070028Y-60696471D01*
X68141457Y-60839328D01*
X68212885Y-60910757D01*
X68141457Y-58339328D02*
X68070028Y-58196471D01*
X68070028Y-57910757D01*
X68141457Y-57767900D01*
X68284314Y-57696471D01*
X68355742Y-57696471D01*
X68498600Y-57767900D01*
X68570028Y-57910757D01*
X68570028Y-58125042D01*
X68641457Y-58267900D01*
X68784314Y-58339328D01*
X68855742Y-58339328D01*
X68998600Y-58267900D01*
X69070028Y-58125042D01*
X69070028Y-57910757D01*
X68998600Y-57767900D01*
X68070028Y-57053614D02*
X69070028Y-57053614D01*
X69570028Y-57053614D02*
X69498600Y-57125042D01*
X69427171Y-57053614D01*
X69498600Y-56982185D01*
X69570028Y-57053614D01*
X69427171Y-57053614D01*
X69070028Y-55696471D02*
X67855742Y-55696471D01*
X67712885Y-55767900D01*
X67641457Y-55839328D01*
X67570028Y-55982185D01*
X67570028Y-56196471D01*
X67641457Y-56339328D01*
X68141457Y-55696471D02*
X68070028Y-55839328D01*
X68070028Y-56125042D01*
X68141457Y-56267900D01*
X68212885Y-56339328D01*
X68355742Y-56410757D01*
X68784314Y-56410757D01*
X68927171Y-56339328D01*
X68998600Y-56267900D01*
X69070028Y-56125042D01*
X69070028Y-55839328D01*
X68998600Y-55696471D01*
X69070028Y-54982185D02*
X68070028Y-54982185D01*
X68927171Y-54982185D02*
X68998600Y-54910757D01*
X69070028Y-54767900D01*
X69070028Y-54553614D01*
X68998600Y-54410757D01*
X68855742Y-54339328D01*
X68070028Y-54339328D01*
X68070028Y-52982185D02*
X68855742Y-52982185D01*
X68998600Y-53053614D01*
X69070028Y-53196471D01*
X69070028Y-53482185D01*
X68998600Y-53625042D01*
X68141457Y-52982185D02*
X68070028Y-53125042D01*
X68070028Y-53482185D01*
X68141457Y-53625042D01*
X68284314Y-53696471D01*
X68427171Y-53696471D01*
X68570028Y-53625042D01*
X68641457Y-53482185D01*
X68641457Y-53125042D01*
X68712885Y-52982185D01*
X68070028Y-52053614D02*
X68141457Y-52196471D01*
X68284314Y-52267900D01*
X69570028Y-52267900D01*
X68212885Y-51482185D02*
X68141457Y-51410757D01*
X68070028Y-51482185D01*
X68141457Y-51553614D01*
X68212885Y-51482185D01*
X68070028Y-51482185D01*
X68998600Y-51482185D02*
X68927171Y-51410757D01*
X68855742Y-51482185D01*
X68927171Y-51553614D01*
X68998600Y-51482185D01*
X68855742Y-51482185D01*
X66927171Y-64982185D02*
X66998600Y-64910757D01*
X67070028Y-64767900D01*
X67070028Y-64410757D01*
X66998600Y-64267900D01*
X66927171Y-64196471D01*
X66784314Y-64125042D01*
X66641457Y-64125042D01*
X66427171Y-64196471D01*
X65570028Y-65053614D01*
X65570028Y-64125042D01*
X66570028Y-62339328D02*
X65070028Y-62339328D01*
X66498600Y-62339328D02*
X66570028Y-62196471D01*
X66570028Y-61910757D01*
X66498600Y-61767900D01*
X66427171Y-61696471D01*
X66284314Y-61625042D01*
X65855742Y-61625042D01*
X65712885Y-61696471D01*
X65641457Y-61767900D01*
X65570028Y-61910757D01*
X65570028Y-62196471D01*
X65641457Y-62339328D01*
X65570028Y-60767900D02*
X65641457Y-60910757D01*
X65712885Y-60982185D01*
X65855742Y-61053614D01*
X66284314Y-61053614D01*
X66427171Y-60982185D01*
X66498600Y-60910757D01*
X66570028Y-60767900D01*
X66570028Y-60553614D01*
X66498600Y-60410757D01*
X66427171Y-60339328D01*
X66284314Y-60267900D01*
X65855742Y-60267900D01*
X65712885Y-60339328D01*
X65641457Y-60410757D01*
X65570028Y-60553614D01*
X65570028Y-60767900D01*
X66570028Y-59767900D02*
X65570028Y-59482185D01*
X66284314Y-59196471D01*
X65570028Y-58910757D01*
X66570028Y-58625042D01*
X65641457Y-57482185D02*
X65570028Y-57625042D01*
X65570028Y-57910757D01*
X65641457Y-58053614D01*
X65784314Y-58125042D01*
X66355742Y-58125042D01*
X66498600Y-58053614D01*
X66570028Y-57910757D01*
X66570028Y-57625042D01*
X66498600Y-57482185D01*
X66355742Y-57410757D01*
X66212885Y-57410757D01*
X66070028Y-58125042D01*
X65570028Y-56767900D02*
X66570028Y-56767900D01*
X66284314Y-56767900D02*
X66427171Y-56696471D01*
X66498600Y-56625042D01*
X66570028Y-56482185D01*
X66570028Y-56339328D01*
X67070028Y-54839328D02*
X67070028Y-53910757D01*
X66498600Y-54410757D01*
X66498600Y-54196471D01*
X66427171Y-54053614D01*
X66355742Y-53982185D01*
X66212885Y-53910757D01*
X65855742Y-53910757D01*
X65712885Y-53982185D01*
X65641457Y-54053614D01*
X65570028Y-54196471D01*
X65570028Y-54625042D01*
X65641457Y-54767900D01*
X65712885Y-54839328D01*
X67070028Y-53482185D02*
X65570028Y-52982185D01*
X67070028Y-52482185D01*
X67070028Y-52125042D02*
X67070028Y-51196471D01*
X66498600Y-51696471D01*
X66498600Y-51482185D01*
X66427171Y-51339328D01*
X66355742Y-51267900D01*
X66212885Y-51196471D01*
X65855742Y-51196471D01*
X65712885Y-51267900D01*
X65641457Y-51339328D01*
X65570028Y-51482185D01*
X65570028Y-51910757D01*
X65641457Y-52053614D01*
X65712885Y-52125042D01*
X64570028Y-65053614D02*
X64570028Y-64125042D01*
X63998600Y-64625042D01*
X63998600Y-64410757D01*
X63927171Y-64267900D01*
X63855742Y-64196471D01*
X63712885Y-64125042D01*
X63355742Y-64125042D01*
X63212885Y-64196471D01*
X63141457Y-64267900D01*
X63070028Y-64410757D01*
X63070028Y-64839328D01*
X63141457Y-64982185D01*
X63212885Y-65053614D01*
X63141457Y-62410757D02*
X63070028Y-62267900D01*
X63070028Y-61982185D01*
X63141457Y-61839328D01*
X63284314Y-61767900D01*
X63355742Y-61767900D01*
X63498600Y-61839328D01*
X63570028Y-61982185D01*
X63570028Y-62196471D01*
X63641457Y-62339328D01*
X63784314Y-62410757D01*
X63855742Y-62410757D01*
X63998600Y-62339328D01*
X64070028Y-62196471D01*
X64070028Y-61982185D01*
X63998600Y-61839328D01*
X63070028Y-61125042D02*
X64070028Y-61125042D01*
X64570028Y-61125042D02*
X64498600Y-61196471D01*
X64427171Y-61125042D01*
X64498600Y-61053614D01*
X64570028Y-61125042D01*
X64427171Y-61125042D01*
X64070028Y-59767900D02*
X62855742Y-59767900D01*
X62712885Y-59839328D01*
X62641457Y-59910757D01*
X62570028Y-60053614D01*
X62570028Y-60267900D01*
X62641457Y-60410757D01*
X63141457Y-59767900D02*
X63070028Y-59910757D01*
X63070028Y-60196471D01*
X63141457Y-60339328D01*
X63212885Y-60410757D01*
X63355742Y-60482185D01*
X63784314Y-60482185D01*
X63927171Y-60410757D01*
X63998600Y-60339328D01*
X64070028Y-60196471D01*
X64070028Y-59910757D01*
X63998600Y-59767900D01*
X64070028Y-59053614D02*
X63070028Y-59053614D01*
X63927171Y-59053614D02*
X63998600Y-58982185D01*
X64070028Y-58839328D01*
X64070028Y-58625042D01*
X63998600Y-58482185D01*
X63855742Y-58410757D01*
X63070028Y-58410757D01*
X63070028Y-57053614D02*
X63855742Y-57053614D01*
X63998600Y-57125042D01*
X64070028Y-57267900D01*
X64070028Y-57553614D01*
X63998600Y-57696471D01*
X63141457Y-57053614D02*
X63070028Y-57196471D01*
X63070028Y-57553614D01*
X63141457Y-57696471D01*
X63284314Y-57767900D01*
X63427171Y-57767900D01*
X63570028Y-57696471D01*
X63641457Y-57553614D01*
X63641457Y-57196471D01*
X63712885Y-57053614D01*
X63070028Y-56125042D02*
X63141457Y-56267900D01*
X63284314Y-56339328D01*
X64570028Y-56339328D01*
X62070028Y-64267900D02*
X62070028Y-64553614D01*
X61998600Y-64696471D01*
X61927171Y-64767900D01*
X61712885Y-64910757D01*
X61427171Y-64982185D01*
X60855742Y-64982185D01*
X60712885Y-64910757D01*
X60641457Y-64839328D01*
X60570028Y-64696471D01*
X60570028Y-64410757D01*
X60641457Y-64267900D01*
X60712885Y-64196471D01*
X60855742Y-64125042D01*
X61212885Y-64125042D01*
X61355742Y-64196471D01*
X61427171Y-64267900D01*
X61498600Y-64410757D01*
X61498600Y-64696471D01*
X61427171Y-64839328D01*
X61355742Y-64910757D01*
X61212885Y-64982185D01*
X61998600Y-61553614D02*
X62070028Y-61696471D01*
X62070028Y-61910757D01*
X61998600Y-62125042D01*
X61855742Y-62267900D01*
X61712885Y-62339328D01*
X61427171Y-62410757D01*
X61212885Y-62410757D01*
X60927171Y-62339328D01*
X60784314Y-62267900D01*
X60641457Y-62125042D01*
X60570028Y-61910757D01*
X60570028Y-61767900D01*
X60641457Y-61553614D01*
X60712885Y-61482185D01*
X61212885Y-61482185D01*
X61212885Y-61767900D01*
X60570028Y-60839328D02*
X62070028Y-60839328D01*
X60570028Y-59982185D01*
X62070028Y-59982185D01*
X60570028Y-59267900D02*
X62070028Y-59267900D01*
X62070028Y-58910757D01*
X61998600Y-58696471D01*
X61855742Y-58553614D01*
X61712885Y-58482185D01*
X61427171Y-58410757D01*
X61212885Y-58410757D01*
X60927171Y-58482185D01*
X60784314Y-58553614D01*
X60641457Y-58696471D01*
X60570028Y-58910757D01*
X60570028Y-59267900D01*
X74929628Y-117165014D02*
X75643914Y-117665014D01*
X74929628Y-118022157D02*
X76429628Y-118022157D01*
X76429628Y-117450728D01*
X76358200Y-117307871D01*
X76286771Y-117236442D01*
X76143914Y-117165014D01*
X75929628Y-117165014D01*
X75786771Y-117236442D01*
X75715342Y-117307871D01*
X75643914Y-117450728D01*
X75643914Y-118022157D01*
X76429628Y-116093585D02*
X75358200Y-116093585D01*
X75143914Y-116165014D01*
X75001057Y-116307871D01*
X74929628Y-116522157D01*
X74929628Y-116665014D01*
X75929628Y-114736442D02*
X74929628Y-114736442D01*
X76501057Y-115093585D02*
X75429628Y-115450728D01*
X75429628Y-114522157D01*
X76429628Y-113236442D02*
X76429628Y-113950728D01*
X75715342Y-114022157D01*
X75786771Y-113950728D01*
X75858200Y-113807871D01*
X75858200Y-113450728D01*
X75786771Y-113307871D01*
X75715342Y-113236442D01*
X75572485Y-113165014D01*
X75215342Y-113165014D01*
X75072485Y-113236442D01*
X75001057Y-113307871D01*
X74929628Y-113450728D01*
X74929628Y-113807871D01*
X75001057Y-113950728D01*
X75072485Y-114022157D01*
X74929628Y-111379300D02*
X76429628Y-111379300D01*
X76429628Y-110807871D01*
X76358200Y-110665014D01*
X76286771Y-110593585D01*
X76143914Y-110522157D01*
X75929628Y-110522157D01*
X75786771Y-110593585D01*
X75715342Y-110665014D01*
X75643914Y-110807871D01*
X75643914Y-111379300D01*
X74929628Y-109665014D02*
X75001057Y-109807871D01*
X75072485Y-109879300D01*
X75215342Y-109950728D01*
X75643914Y-109950728D01*
X75786771Y-109879300D01*
X75858200Y-109807871D01*
X75929628Y-109665014D01*
X75929628Y-109450728D01*
X75858200Y-109307871D01*
X75786771Y-109236442D01*
X75643914Y-109165014D01*
X75215342Y-109165014D01*
X75072485Y-109236442D01*
X75001057Y-109307871D01*
X74929628Y-109450728D01*
X74929628Y-109665014D01*
X75929628Y-108665014D02*
X74929628Y-108379300D01*
X75643914Y-108093585D01*
X74929628Y-107807871D01*
X75929628Y-107522157D01*
X75001057Y-106379300D02*
X74929628Y-106522157D01*
X74929628Y-106807871D01*
X75001057Y-106950728D01*
X75143914Y-107022157D01*
X75715342Y-107022157D01*
X75858200Y-106950728D01*
X75929628Y-106807871D01*
X75929628Y-106522157D01*
X75858200Y-106379300D01*
X75715342Y-106307871D01*
X75572485Y-106307871D01*
X75429628Y-107022157D01*
X74929628Y-105665014D02*
X75929628Y-105665014D01*
X75643914Y-105665014D02*
X75786771Y-105593585D01*
X75858200Y-105522157D01*
X75929628Y-105379300D01*
X75929628Y-105236442D01*
X76501057Y-103665014D02*
X74572485Y-104950728D01*
X75001057Y-103236442D02*
X74929628Y-103022157D01*
X74929628Y-102665014D01*
X75001057Y-102522157D01*
X75072485Y-102450728D01*
X75215342Y-102379300D01*
X75358200Y-102379300D01*
X75501057Y-102450728D01*
X75572485Y-102522157D01*
X75643914Y-102665014D01*
X75715342Y-102950728D01*
X75786771Y-103093585D01*
X75858200Y-103165014D01*
X76001057Y-103236442D01*
X76143914Y-103236442D01*
X76286771Y-103165014D01*
X76358200Y-103093585D01*
X76429628Y-102950728D01*
X76429628Y-102593585D01*
X76358200Y-102379300D01*
X74929628Y-101736442D02*
X75929628Y-101736442D01*
X76429628Y-101736442D02*
X76358200Y-101807871D01*
X76286771Y-101736442D01*
X76358200Y-101665014D01*
X76429628Y-101736442D01*
X76286771Y-101736442D01*
X75929628Y-100379300D02*
X74715342Y-100379300D01*
X74572485Y-100450728D01*
X74501057Y-100522157D01*
X74429628Y-100665014D01*
X74429628Y-100879300D01*
X74501057Y-101022157D01*
X75001057Y-100379300D02*
X74929628Y-100522157D01*
X74929628Y-100807871D01*
X75001057Y-100950728D01*
X75072485Y-101022157D01*
X75215342Y-101093585D01*
X75643914Y-101093585D01*
X75786771Y-101022157D01*
X75858200Y-100950728D01*
X75929628Y-100807871D01*
X75929628Y-100522157D01*
X75858200Y-100379300D01*
X75072485Y-99665014D02*
X75001057Y-99593585D01*
X74929628Y-99665014D01*
X75001057Y-99736442D01*
X75072485Y-99665014D01*
X74929628Y-99665014D01*
X75858200Y-99665014D02*
X75786771Y-99593585D01*
X75715342Y-99665014D01*
X75786771Y-99736442D01*
X75858200Y-99665014D01*
X75715342Y-99665014D01*
X72429628Y-117236442D02*
X72429628Y-118093585D01*
X72429628Y-117665014D02*
X73929628Y-117665014D01*
X73715342Y-117807871D01*
X73572485Y-117950728D01*
X73501057Y-118093585D01*
X73858200Y-114665014D02*
X73929628Y-114807871D01*
X73929628Y-115022157D01*
X73858200Y-115236442D01*
X73715342Y-115379300D01*
X73572485Y-115450728D01*
X73286771Y-115522157D01*
X73072485Y-115522157D01*
X72786771Y-115450728D01*
X72643914Y-115379300D01*
X72501057Y-115236442D01*
X72429628Y-115022157D01*
X72429628Y-114879300D01*
X72501057Y-114665014D01*
X72572485Y-114593585D01*
X73072485Y-114593585D01*
X73072485Y-114879300D01*
X72429628Y-113950728D02*
X73929628Y-113950728D01*
X72429628Y-113093585D01*
X73929628Y-113093585D01*
X72429628Y-112379300D02*
X73929628Y-112379300D01*
X73929628Y-112022157D01*
X73858200Y-111807871D01*
X73715342Y-111665014D01*
X73572485Y-111593585D01*
X73286771Y-111522157D01*
X73072485Y-111522157D01*
X72786771Y-111593585D01*
X72643914Y-111665014D01*
X72501057Y-111807871D01*
X72429628Y-112022157D01*
X72429628Y-112379300D01*
X71286771Y-118093585D02*
X71358200Y-118022157D01*
X71429628Y-117879300D01*
X71429628Y-117522157D01*
X71358200Y-117379300D01*
X71286771Y-117307871D01*
X71143914Y-117236442D01*
X71001057Y-117236442D01*
X70786771Y-117307871D01*
X69929628Y-118165014D01*
X69929628Y-117236442D01*
X70001057Y-115522157D02*
X69929628Y-115379300D01*
X69929628Y-115093585D01*
X70001057Y-114950728D01*
X70143914Y-114879300D01*
X70215342Y-114879300D01*
X70358200Y-114950728D01*
X70429628Y-115093585D01*
X70429628Y-115307871D01*
X70501057Y-115450728D01*
X70643914Y-115522157D01*
X70715342Y-115522157D01*
X70858200Y-115450728D01*
X70929628Y-115307871D01*
X70929628Y-115093585D01*
X70858200Y-114950728D01*
X70001057Y-113665014D02*
X69929628Y-113807871D01*
X69929628Y-114093585D01*
X70001057Y-114236442D01*
X70143914Y-114307871D01*
X70715342Y-114307871D01*
X70858200Y-114236442D01*
X70929628Y-114093585D01*
X70929628Y-113807871D01*
X70858200Y-113665014D01*
X70715342Y-113593585D01*
X70572485Y-113593585D01*
X70429628Y-114307871D01*
X70929628Y-112950728D02*
X69929628Y-112950728D01*
X70786771Y-112950728D02*
X70858200Y-112879300D01*
X70929628Y-112736442D01*
X70929628Y-112522157D01*
X70858200Y-112379300D01*
X70715342Y-112307871D01*
X69929628Y-112307871D01*
X70001057Y-111665014D02*
X69929628Y-111522157D01*
X69929628Y-111236442D01*
X70001057Y-111093585D01*
X70143914Y-111022157D01*
X70215342Y-111022157D01*
X70358200Y-111093585D01*
X70429628Y-111236442D01*
X70429628Y-111450728D01*
X70501057Y-111593585D01*
X70643914Y-111665014D01*
X70715342Y-111665014D01*
X70858200Y-111593585D01*
X70929628Y-111450728D01*
X70929628Y-111236442D01*
X70858200Y-111093585D01*
X69929628Y-110165014D02*
X70001057Y-110307871D01*
X70072485Y-110379300D01*
X70215342Y-110450728D01*
X70643914Y-110450728D01*
X70786771Y-110379300D01*
X70858200Y-110307871D01*
X70929628Y-110165014D01*
X70929628Y-109950728D01*
X70858200Y-109807871D01*
X70786771Y-109736442D01*
X70643914Y-109665014D01*
X70215342Y-109665014D01*
X70072485Y-109736442D01*
X70001057Y-109807871D01*
X69929628Y-109950728D01*
X69929628Y-110165014D01*
X69929628Y-109022157D02*
X70929628Y-109022157D01*
X70643914Y-109022157D02*
X70786771Y-108950728D01*
X70858200Y-108879300D01*
X70929628Y-108736442D01*
X70929628Y-108593585D01*
X70929628Y-106950728D02*
X69429628Y-106950728D01*
X70858200Y-106950728D02*
X70929628Y-106807871D01*
X70929628Y-106522157D01*
X70858200Y-106379300D01*
X70786771Y-106307871D01*
X70643914Y-106236442D01*
X70215342Y-106236442D01*
X70072485Y-106307871D01*
X70001057Y-106379300D01*
X69929628Y-106522157D01*
X69929628Y-106807871D01*
X70001057Y-106950728D01*
X69929628Y-105379300D02*
X70001057Y-105522157D01*
X70072485Y-105593585D01*
X70215342Y-105665014D01*
X70643914Y-105665014D01*
X70786771Y-105593585D01*
X70858200Y-105522157D01*
X70929628Y-105379300D01*
X70929628Y-105165014D01*
X70858200Y-105022157D01*
X70786771Y-104950728D01*
X70643914Y-104879300D01*
X70215342Y-104879300D01*
X70072485Y-104950728D01*
X70001057Y-105022157D01*
X69929628Y-105165014D01*
X69929628Y-105379300D01*
X70929628Y-104379300D02*
X69929628Y-104093585D01*
X70643914Y-103807871D01*
X69929628Y-103522157D01*
X70929628Y-103236442D01*
X70001057Y-102093585D02*
X69929628Y-102236442D01*
X69929628Y-102522157D01*
X70001057Y-102665014D01*
X70143914Y-102736442D01*
X70715342Y-102736442D01*
X70858200Y-102665014D01*
X70929628Y-102522157D01*
X70929628Y-102236442D01*
X70858200Y-102093585D01*
X70715342Y-102022157D01*
X70572485Y-102022157D01*
X70429628Y-102736442D01*
X69929628Y-101379300D02*
X70929628Y-101379300D01*
X70643914Y-101379300D02*
X70786771Y-101307871D01*
X70858200Y-101236442D01*
X70929628Y-101093585D01*
X70929628Y-100950728D01*
X68929628Y-118165014D02*
X68929628Y-117236442D01*
X68358200Y-117736442D01*
X68358200Y-117522157D01*
X68286771Y-117379300D01*
X68215342Y-117307871D01*
X68072485Y-117236442D01*
X67715342Y-117236442D01*
X67572485Y-117307871D01*
X67501057Y-117379300D01*
X67429628Y-117522157D01*
X67429628Y-117950728D01*
X67501057Y-118093585D01*
X67572485Y-118165014D01*
X67501057Y-115522157D02*
X67429628Y-115379300D01*
X67429628Y-115093585D01*
X67501057Y-114950728D01*
X67643914Y-114879300D01*
X67715342Y-114879300D01*
X67858200Y-114950728D01*
X67929628Y-115093585D01*
X67929628Y-115307871D01*
X68001057Y-115450728D01*
X68143914Y-115522157D01*
X68215342Y-115522157D01*
X68358200Y-115450728D01*
X68429628Y-115307871D01*
X68429628Y-115093585D01*
X68358200Y-114950728D01*
X67501057Y-113665014D02*
X67429628Y-113807871D01*
X67429628Y-114093585D01*
X67501057Y-114236442D01*
X67643914Y-114307871D01*
X68215342Y-114307871D01*
X68358200Y-114236442D01*
X68429628Y-114093585D01*
X68429628Y-113807871D01*
X68358200Y-113665014D01*
X68215342Y-113593585D01*
X68072485Y-113593585D01*
X67929628Y-114307871D01*
X68429628Y-112950728D02*
X67429628Y-112950728D01*
X68286771Y-112950728D02*
X68358200Y-112879300D01*
X68429628Y-112736442D01*
X68429628Y-112522157D01*
X68358200Y-112379300D01*
X68215342Y-112307871D01*
X67429628Y-112307871D01*
X67501057Y-111665014D02*
X67429628Y-111522157D01*
X67429628Y-111236442D01*
X67501057Y-111093585D01*
X67643914Y-111022157D01*
X67715342Y-111022157D01*
X67858200Y-111093585D01*
X67929628Y-111236442D01*
X67929628Y-111450728D01*
X68001057Y-111593585D01*
X68143914Y-111665014D01*
X68215342Y-111665014D01*
X68358200Y-111593585D01*
X68429628Y-111450728D01*
X68429628Y-111236442D01*
X68358200Y-111093585D01*
X67429628Y-110165014D02*
X67501057Y-110307871D01*
X67572485Y-110379300D01*
X67715342Y-110450728D01*
X68143914Y-110450728D01*
X68286771Y-110379300D01*
X68358200Y-110307871D01*
X68429628Y-110165014D01*
X68429628Y-109950728D01*
X68358200Y-109807871D01*
X68286771Y-109736442D01*
X68143914Y-109665014D01*
X67715342Y-109665014D01*
X67572485Y-109736442D01*
X67501057Y-109807871D01*
X67429628Y-109950728D01*
X67429628Y-110165014D01*
X67429628Y-109022157D02*
X68429628Y-109022157D01*
X68143914Y-109022157D02*
X68286771Y-108950728D01*
X68358200Y-108879300D01*
X68429628Y-108736442D01*
X68429628Y-108593585D01*
X67501057Y-107022157D02*
X67429628Y-106879300D01*
X67429628Y-106593585D01*
X67501057Y-106450728D01*
X67643914Y-106379300D01*
X67715342Y-106379300D01*
X67858200Y-106450728D01*
X67929628Y-106593585D01*
X67929628Y-106807871D01*
X68001057Y-106950728D01*
X68143914Y-107022157D01*
X68215342Y-107022157D01*
X68358200Y-106950728D01*
X68429628Y-106807871D01*
X68429628Y-106593585D01*
X68358200Y-106450728D01*
X67429628Y-105736442D02*
X68429628Y-105736442D01*
X68929628Y-105736442D02*
X68858200Y-105807871D01*
X68786771Y-105736442D01*
X68858200Y-105665014D01*
X68929628Y-105736442D01*
X68786771Y-105736442D01*
X68429628Y-104379300D02*
X67215342Y-104379300D01*
X67072485Y-104450728D01*
X67001057Y-104522157D01*
X66929628Y-104665014D01*
X66929628Y-104879300D01*
X67001057Y-105022157D01*
X67501057Y-104379300D02*
X67429628Y-104522157D01*
X67429628Y-104807871D01*
X67501057Y-104950728D01*
X67572485Y-105022157D01*
X67715342Y-105093585D01*
X68143914Y-105093585D01*
X68286771Y-105022157D01*
X68358200Y-104950728D01*
X68429628Y-104807871D01*
X68429628Y-104522157D01*
X68358200Y-104379300D01*
X68429628Y-103665014D02*
X67429628Y-103665014D01*
X68286771Y-103665014D02*
X68358200Y-103593585D01*
X68429628Y-103450728D01*
X68429628Y-103236442D01*
X68358200Y-103093585D01*
X68215342Y-103022157D01*
X67429628Y-103022157D01*
X67429628Y-101665014D02*
X68215342Y-101665014D01*
X68358200Y-101736442D01*
X68429628Y-101879300D01*
X68429628Y-102165014D01*
X68358200Y-102307871D01*
X67501057Y-101665014D02*
X67429628Y-101807871D01*
X67429628Y-102165014D01*
X67501057Y-102307871D01*
X67643914Y-102379300D01*
X67786771Y-102379300D01*
X67929628Y-102307871D01*
X68001057Y-102165014D01*
X68001057Y-101807871D01*
X68072485Y-101665014D01*
X67429628Y-100736442D02*
X67501057Y-100879300D01*
X67643914Y-100950728D01*
X68929628Y-100950728D01*
X65929628Y-117379300D02*
X64929628Y-117379300D01*
X66501057Y-117736442D02*
X65429628Y-118093585D01*
X65429628Y-117165014D01*
X65929628Y-115450728D02*
X64429628Y-115450728D01*
X65858200Y-115450728D02*
X65929628Y-115307871D01*
X65929628Y-115022157D01*
X65858200Y-114879300D01*
X65786771Y-114807871D01*
X65643914Y-114736442D01*
X65215342Y-114736442D01*
X65072485Y-114807871D01*
X65001057Y-114879300D01*
X64929628Y-115022157D01*
X64929628Y-115307871D01*
X65001057Y-115450728D01*
X64929628Y-113879300D02*
X65001057Y-114022157D01*
X65072485Y-114093585D01*
X65215342Y-114165014D01*
X65643914Y-114165014D01*
X65786771Y-114093585D01*
X65858200Y-114022157D01*
X65929628Y-113879300D01*
X65929628Y-113665014D01*
X65858200Y-113522157D01*
X65786771Y-113450728D01*
X65643914Y-113379300D01*
X65215342Y-113379300D01*
X65072485Y-113450728D01*
X65001057Y-113522157D01*
X64929628Y-113665014D01*
X64929628Y-113879300D01*
X65929628Y-112879300D02*
X64929628Y-112593585D01*
X65643914Y-112307871D01*
X64929628Y-112022157D01*
X65929628Y-111736442D01*
X65001057Y-110593585D02*
X64929628Y-110736442D01*
X64929628Y-111022157D01*
X65001057Y-111165014D01*
X65143914Y-111236442D01*
X65715342Y-111236442D01*
X65858200Y-111165014D01*
X65929628Y-111022157D01*
X65929628Y-110736442D01*
X65858200Y-110593585D01*
X65715342Y-110522157D01*
X65572485Y-110522157D01*
X65429628Y-111236442D01*
X64929628Y-109879300D02*
X65929628Y-109879300D01*
X65643914Y-109879300D02*
X65786771Y-109807871D01*
X65858200Y-109736442D01*
X65929628Y-109593585D01*
X65929628Y-109450728D01*
X66286771Y-107879300D02*
X66358200Y-107807871D01*
X66429628Y-107665014D01*
X66429628Y-107307871D01*
X66358200Y-107165014D01*
X66286771Y-107093585D01*
X66143914Y-107022157D01*
X66001057Y-107022157D01*
X65786771Y-107093585D01*
X64929628Y-107950728D01*
X64929628Y-107022157D01*
X65929628Y-105736442D02*
X64929628Y-105736442D01*
X66501057Y-106093585D02*
X65429628Y-106450728D01*
X65429628Y-105522157D01*
X66429628Y-105165014D02*
X64929628Y-104665014D01*
X66429628Y-104165014D01*
X63929628Y-117307871D02*
X63929628Y-118022157D01*
X63215342Y-118093585D01*
X63286771Y-118022157D01*
X63358200Y-117879300D01*
X63358200Y-117522157D01*
X63286771Y-117379300D01*
X63215342Y-117307871D01*
X63072485Y-117236442D01*
X62715342Y-117236442D01*
X62572485Y-117307871D01*
X62501057Y-117379300D01*
X62429628Y-117522157D01*
X62429628Y-117879300D01*
X62501057Y-118022157D01*
X62572485Y-118093585D01*
X63429628Y-115450728D02*
X61929628Y-115450728D01*
X63358200Y-115450728D02*
X63429628Y-115307871D01*
X63429628Y-115022157D01*
X63358200Y-114879300D01*
X63286771Y-114807871D01*
X63143914Y-114736442D01*
X62715342Y-114736442D01*
X62572485Y-114807871D01*
X62501057Y-114879300D01*
X62429628Y-115022157D01*
X62429628Y-115307871D01*
X62501057Y-115450728D01*
X62429628Y-113879300D02*
X62501057Y-114022157D01*
X62572485Y-114093585D01*
X62715342Y-114165014D01*
X63143914Y-114165014D01*
X63286771Y-114093585D01*
X63358200Y-114022157D01*
X63429628Y-113879300D01*
X63429628Y-113665014D01*
X63358200Y-113522157D01*
X63286771Y-113450728D01*
X63143914Y-113379300D01*
X62715342Y-113379300D01*
X62572485Y-113450728D01*
X62501057Y-113522157D01*
X62429628Y-113665014D01*
X62429628Y-113879300D01*
X63429628Y-112879300D02*
X62429628Y-112593585D01*
X63143914Y-112307871D01*
X62429628Y-112022157D01*
X63429628Y-111736442D01*
X62501057Y-110593585D02*
X62429628Y-110736442D01*
X62429628Y-111022157D01*
X62501057Y-111165014D01*
X62643914Y-111236442D01*
X63215342Y-111236442D01*
X63358200Y-111165014D01*
X63429628Y-111022157D01*
X63429628Y-110736442D01*
X63358200Y-110593585D01*
X63215342Y-110522157D01*
X63072485Y-110522157D01*
X62929628Y-111236442D01*
X62429628Y-109879300D02*
X63429628Y-109879300D01*
X63143914Y-109879300D02*
X63286771Y-109807871D01*
X63358200Y-109736442D01*
X63429628Y-109593585D01*
X63429628Y-109450728D01*
X63786771Y-107879300D02*
X63858200Y-107807871D01*
X63929628Y-107665014D01*
X63929628Y-107307871D01*
X63858200Y-107165014D01*
X63786771Y-107093585D01*
X63643914Y-107022157D01*
X63501057Y-107022157D01*
X63286771Y-107093585D01*
X62429628Y-107950728D01*
X62429628Y-107022157D01*
X63429628Y-105736442D02*
X62429628Y-105736442D01*
X64001057Y-106093585D02*
X62929628Y-106450728D01*
X62929628Y-105522157D01*
X63929628Y-105165014D02*
X62429628Y-104665014D01*
X63929628Y-104165014D01*
X61429628Y-117379300D02*
X61429628Y-117665014D01*
X61358200Y-117807871D01*
X61286771Y-117879300D01*
X61072485Y-118022157D01*
X60786771Y-118093585D01*
X60215342Y-118093585D01*
X60072485Y-118022157D01*
X60001057Y-117950728D01*
X59929628Y-117807871D01*
X59929628Y-117522157D01*
X60001057Y-117379300D01*
X60072485Y-117307871D01*
X60215342Y-117236442D01*
X60572485Y-117236442D01*
X60715342Y-117307871D01*
X60786771Y-117379300D01*
X60858200Y-117522157D01*
X60858200Y-117807871D01*
X60786771Y-117950728D01*
X60715342Y-118022157D01*
X60572485Y-118093585D01*
X60001057Y-115522157D02*
X59929628Y-115379300D01*
X59929628Y-115093585D01*
X60001057Y-114950728D01*
X60143914Y-114879300D01*
X60215342Y-114879300D01*
X60358200Y-114950728D01*
X60429628Y-115093585D01*
X60429628Y-115307871D01*
X60501057Y-115450728D01*
X60643914Y-115522157D01*
X60715342Y-115522157D01*
X60858200Y-115450728D01*
X60929628Y-115307871D01*
X60929628Y-115093585D01*
X60858200Y-114950728D01*
X60001057Y-113665014D02*
X59929628Y-113807871D01*
X59929628Y-114093585D01*
X60001057Y-114236442D01*
X60143914Y-114307871D01*
X60715342Y-114307871D01*
X60858200Y-114236442D01*
X60929628Y-114093585D01*
X60929628Y-113807871D01*
X60858200Y-113665014D01*
X60715342Y-113593585D01*
X60572485Y-113593585D01*
X60429628Y-114307871D01*
X60929628Y-112950728D02*
X59929628Y-112950728D01*
X60786771Y-112950728D02*
X60858200Y-112879300D01*
X60929628Y-112736442D01*
X60929628Y-112522157D01*
X60858200Y-112379300D01*
X60715342Y-112307871D01*
X59929628Y-112307871D01*
X60001057Y-111665014D02*
X59929628Y-111522157D01*
X59929628Y-111236442D01*
X60001057Y-111093585D01*
X60143914Y-111022157D01*
X60215342Y-111022157D01*
X60358200Y-111093585D01*
X60429628Y-111236442D01*
X60429628Y-111450728D01*
X60501057Y-111593585D01*
X60643914Y-111665014D01*
X60715342Y-111665014D01*
X60858200Y-111593585D01*
X60929628Y-111450728D01*
X60929628Y-111236442D01*
X60858200Y-111093585D01*
X59929628Y-110165014D02*
X60001057Y-110307871D01*
X60072485Y-110379300D01*
X60215342Y-110450728D01*
X60643914Y-110450728D01*
X60786771Y-110379300D01*
X60858200Y-110307871D01*
X60929628Y-110165014D01*
X60929628Y-109950728D01*
X60858200Y-109807871D01*
X60786771Y-109736442D01*
X60643914Y-109665014D01*
X60215342Y-109665014D01*
X60072485Y-109736442D01*
X60001057Y-109807871D01*
X59929628Y-109950728D01*
X59929628Y-110165014D01*
X59929628Y-109022157D02*
X60929628Y-109022157D01*
X60643914Y-109022157D02*
X60786771Y-108950728D01*
X60858200Y-108879300D01*
X60929628Y-108736442D01*
X60929628Y-108593585D01*
X61358200Y-106165014D02*
X61429628Y-106307871D01*
X61429628Y-106522157D01*
X61358200Y-106736442D01*
X61215342Y-106879300D01*
X61072485Y-106950728D01*
X60786771Y-107022157D01*
X60572485Y-107022157D01*
X60286771Y-106950728D01*
X60143914Y-106879300D01*
X60001057Y-106736442D01*
X59929628Y-106522157D01*
X59929628Y-106379300D01*
X60001057Y-106165014D01*
X60072485Y-106093585D01*
X60572485Y-106093585D01*
X60572485Y-106379300D01*
X59929628Y-105450728D02*
X61429628Y-105450728D01*
X59929628Y-104593585D01*
X61429628Y-104593585D01*
X59929628Y-103879300D02*
X61429628Y-103879300D01*
X61429628Y-103522157D01*
X61358200Y-103307871D01*
X61215342Y-103165014D01*
X61072485Y-103093585D01*
X60786771Y-103022157D01*
X60572485Y-103022157D01*
X60286771Y-103093585D01*
X60143914Y-103165014D01*
X60001057Y-103307871D01*
X59929628Y-103522157D01*
X59929628Y-103879300D01*
X58929628Y-118165014D02*
X58929628Y-117165014D01*
X57429628Y-117807871D01*
X58858200Y-114665014D02*
X58929628Y-114807871D01*
X58929628Y-115022157D01*
X58858200Y-115236442D01*
X58715342Y-115379300D01*
X58572485Y-115450728D01*
X58286771Y-115522157D01*
X58072485Y-115522157D01*
X57786771Y-115450728D01*
X57643914Y-115379300D01*
X57501057Y-115236442D01*
X57429628Y-115022157D01*
X57429628Y-114879300D01*
X57501057Y-114665014D01*
X57572485Y-114593585D01*
X58072485Y-114593585D01*
X58072485Y-114879300D01*
X57429628Y-113950728D02*
X58929628Y-113950728D01*
X57429628Y-113093585D01*
X58929628Y-113093585D01*
X57429628Y-112379300D02*
X58929628Y-112379300D01*
X58929628Y-112022157D01*
X58858200Y-111807871D01*
X58715342Y-111665014D01*
X58572485Y-111593585D01*
X58286771Y-111522157D01*
X58072485Y-111522157D01*
X57786771Y-111593585D01*
X57643914Y-111665014D01*
X57501057Y-111807871D01*
X57429628Y-112022157D01*
X57429628Y-112379300D01*
X55786771Y-117807871D02*
X55858200Y-117950728D01*
X55929628Y-118022157D01*
X56072485Y-118093585D01*
X56143914Y-118093585D01*
X56286771Y-118022157D01*
X56358200Y-117950728D01*
X56429628Y-117807871D01*
X56429628Y-117522157D01*
X56358200Y-117379300D01*
X56286771Y-117307871D01*
X56143914Y-117236442D01*
X56072485Y-117236442D01*
X55929628Y-117307871D01*
X55858200Y-117379300D01*
X55786771Y-117522157D01*
X55786771Y-117807871D01*
X55715342Y-117950728D01*
X55643914Y-118022157D01*
X55501057Y-118093585D01*
X55215342Y-118093585D01*
X55072485Y-118022157D01*
X55001057Y-117950728D01*
X54929628Y-117807871D01*
X54929628Y-117522157D01*
X55001057Y-117379300D01*
X55072485Y-117307871D01*
X55215342Y-117236442D01*
X55501057Y-117236442D01*
X55643914Y-117307871D01*
X55715342Y-117379300D01*
X55786771Y-117522157D01*
X56358200Y-114665014D02*
X56429628Y-114807871D01*
X56429628Y-115022157D01*
X56358200Y-115236442D01*
X56215342Y-115379300D01*
X56072485Y-115450728D01*
X55786771Y-115522157D01*
X55572485Y-115522157D01*
X55286771Y-115450728D01*
X55143914Y-115379300D01*
X55001057Y-115236442D01*
X54929628Y-115022157D01*
X54929628Y-114879300D01*
X55001057Y-114665014D01*
X55072485Y-114593585D01*
X55572485Y-114593585D01*
X55572485Y-114879300D01*
X54929628Y-113950728D02*
X56429628Y-113950728D01*
X54929628Y-113093585D01*
X56429628Y-113093585D01*
X54929628Y-112379300D02*
X56429628Y-112379300D01*
X56429628Y-112022157D01*
X56358200Y-111807871D01*
X56215342Y-111665014D01*
X56072485Y-111593585D01*
X55786771Y-111522157D01*
X55572485Y-111522157D01*
X55286771Y-111593585D01*
X55143914Y-111665014D01*
X55001057Y-111807871D01*
X54929628Y-112022157D01*
X54929628Y-112379300D01*
D11*
X95286485Y-120619114D02*
X95286485Y-120238161D01*
X94619819Y-120476257D02*
X95476961Y-120476257D01*
X95572200Y-120428638D01*
X95619819Y-120333400D01*
X95619819Y-120238161D01*
X94619819Y-119761971D02*
X94667438Y-119857209D01*
X94715057Y-119904828D01*
X94810295Y-119952447D01*
X95096009Y-119952447D01*
X95191247Y-119904828D01*
X95238866Y-119857209D01*
X95286485Y-119761971D01*
X95286485Y-119619114D01*
X95238866Y-119523876D01*
X95191247Y-119476257D01*
X95096009Y-119428638D01*
X94810295Y-119428638D01*
X94715057Y-119476257D01*
X94667438Y-119523876D01*
X94619819Y-119619114D01*
X94619819Y-119761971D01*
X94619819Y-119000066D02*
X95286485Y-119000066D01*
X95096009Y-119000066D02*
X95191247Y-118952447D01*
X95238866Y-118904828D01*
X95286485Y-118809590D01*
X95286485Y-118714352D01*
X94619819Y-117619114D02*
X95619819Y-117619114D01*
X94619819Y-117047685D01*
X95619819Y-117047685D01*
X95143628Y-116238161D02*
X95096009Y-116095304D01*
X95048390Y-116047685D01*
X94953152Y-116000066D01*
X94810295Y-116000066D01*
X94715057Y-116047685D01*
X94667438Y-116095304D01*
X94619819Y-116190542D01*
X94619819Y-116571495D01*
X95619819Y-116571495D01*
X95619819Y-116238161D01*
X95572200Y-116142923D01*
X95524580Y-116095304D01*
X95429342Y-116047685D01*
X95334104Y-116047685D01*
X95238866Y-116095304D01*
X95191247Y-116142923D01*
X95143628Y-116238161D01*
X95143628Y-116571495D01*
X95143628Y-115238161D02*
X95143628Y-115571495D01*
X94619819Y-115571495D02*
X95619819Y-115571495D01*
X95619819Y-115095304D01*
X95000771Y-114714352D02*
X95000771Y-113952447D01*
X95619819Y-113571495D02*
X95619819Y-112952447D01*
X95238866Y-113285780D01*
X95238866Y-113142923D01*
X95191247Y-113047685D01*
X95143628Y-113000066D01*
X95048390Y-112952447D01*
X94810295Y-112952447D01*
X94715057Y-113000066D01*
X94667438Y-113047685D01*
X94619819Y-113142923D01*
X94619819Y-113428638D01*
X94667438Y-113523876D01*
X94715057Y-113571495D01*
X95524580Y-112571495D02*
X95572200Y-112523876D01*
X95619819Y-112428638D01*
X95619819Y-112190542D01*
X95572200Y-112095304D01*
X95524580Y-112047685D01*
X95429342Y-112000066D01*
X95334104Y-112000066D01*
X95191247Y-112047685D01*
X94619819Y-112619114D01*
X94619819Y-112000066D01*
X95619819Y-111381019D02*
X95619819Y-111285780D01*
X95572200Y-111190542D01*
X95524580Y-111142923D01*
X95429342Y-111095304D01*
X95238866Y-111047685D01*
X95000771Y-111047685D01*
X94810295Y-111095304D01*
X94715057Y-111142923D01*
X94667438Y-111190542D01*
X94619819Y-111285780D01*
X94619819Y-111381019D01*
X94667438Y-111476257D01*
X94715057Y-111523876D01*
X94810295Y-111571495D01*
X95000771Y-111619114D01*
X95238866Y-111619114D01*
X95429342Y-111571495D01*
X95524580Y-111523876D01*
X95572200Y-111476257D01*
X95619819Y-111381019D01*
X95619819Y-110428638D02*
X95619819Y-110333400D01*
X95572200Y-110238161D01*
X95524580Y-110190542D01*
X95429342Y-110142923D01*
X95238866Y-110095304D01*
X95000771Y-110095304D01*
X94810295Y-110142923D01*
X94715057Y-110190542D01*
X94667438Y-110238161D01*
X94619819Y-110333400D01*
X94619819Y-110428638D01*
X94667438Y-110523876D01*
X94715057Y-110571495D01*
X94810295Y-110619114D01*
X95000771Y-110666733D01*
X95238866Y-110666733D01*
X95429342Y-110619114D01*
X95524580Y-110571495D01*
X95572200Y-110523876D01*
X95619819Y-110428638D01*
X95286485Y-109238161D02*
X94619819Y-109238161D01*
X95667438Y-109476257D02*
X94953152Y-109714352D01*
X94953152Y-109095304D01*
M02*
