G04 #@! TF.GenerationSoftware,KiCad,Pcbnew,(5.1.2)-2*
G04 #@! TF.CreationDate,2020-11-27T11:43:39-06:00*
G04 #@! TF.ProjectId,TempMonitor10PCB,54656d70-4d6f-46e6-9974-6f7231305043,rev?*
G04 #@! TF.SameCoordinates,Original*
G04 #@! TF.FileFunction,Legend,Top*
G04 #@! TF.FilePolarity,Positive*
%FSLAX46Y46*%
G04 Gerber Fmt 4.6, Leading zero omitted, Abs format (unit mm)*
G04 Created by KiCad (PCBNEW (5.1.2)-2) date 2020-11-27 11:43:39*
%MOMM*%
%LPD*%
G04 APERTURE LIST*
%ADD10C,0.150000*%
%ADD11C,0.120000*%
%ADD12C,0.152400*%
%ADD13C,0.100000*%
%ADD14C,0.127000*%
G04 APERTURE END LIST*
D10*
X84085180Y-55705333D02*
X84085180Y-55038666D01*
X85085180Y-55467238D01*
X84085180Y-57665437D02*
X84085180Y-58141628D01*
X84561371Y-58189247D01*
X84513752Y-58141628D01*
X84466133Y-58046390D01*
X84466133Y-57808294D01*
X84513752Y-57713056D01*
X84561371Y-57665437D01*
X84656609Y-57617818D01*
X84894704Y-57617818D01*
X84989942Y-57665437D01*
X85037561Y-57713056D01*
X85085180Y-57808294D01*
X85085180Y-58046390D01*
X85037561Y-58141628D01*
X84989942Y-58189247D01*
X84085180Y-60768399D02*
X84085180Y-60149351D01*
X84466133Y-60482685D01*
X84466133Y-60339827D01*
X84513752Y-60244589D01*
X84561371Y-60196970D01*
X84656609Y-60149351D01*
X84894704Y-60149351D01*
X84989942Y-60196970D01*
X85037561Y-60244589D01*
X85085180Y-60339827D01*
X85085180Y-60625542D01*
X85037561Y-60720780D01*
X84989942Y-60768399D01*
X85085180Y-62680885D02*
X85085180Y-63252314D01*
X85085180Y-62966600D02*
X84085180Y-62966600D01*
X84228038Y-63061838D01*
X84323276Y-63157076D01*
X84370895Y-63252314D01*
X96458114Y-123707114D02*
X97124780Y-123707114D01*
X96077161Y-123945209D02*
X96791447Y-124183304D01*
X96791447Y-123564257D01*
X97029542Y-123183304D02*
X97077161Y-123135685D01*
X97124780Y-123183304D01*
X97077161Y-123230923D01*
X97029542Y-123183304D01*
X97124780Y-123183304D01*
X96124780Y-122230923D02*
X96124780Y-122707114D01*
X96600971Y-122754733D01*
X96553352Y-122707114D01*
X96505733Y-122611876D01*
X96505733Y-122373780D01*
X96553352Y-122278542D01*
X96600971Y-122230923D01*
X96696209Y-122183304D01*
X96934304Y-122183304D01*
X97029542Y-122230923D01*
X97077161Y-122278542D01*
X97124780Y-122373780D01*
X97124780Y-122611876D01*
X97077161Y-122707114D01*
X97029542Y-122754733D01*
X96743828Y-120992828D02*
X96743828Y-120230923D01*
X96220019Y-119040447D02*
X96172400Y-118992828D01*
X96124780Y-118897590D01*
X96124780Y-118659495D01*
X96172400Y-118564257D01*
X96220019Y-118516638D01*
X96315257Y-118469019D01*
X96410495Y-118469019D01*
X96553352Y-118516638D01*
X97124780Y-119088066D01*
X97124780Y-118469019D01*
X96458114Y-117611876D02*
X97124780Y-117611876D01*
X96077161Y-117849971D02*
X96791447Y-118088066D01*
X96791447Y-117469019D01*
X96124780Y-117230923D02*
X97124780Y-116897590D01*
X96124780Y-116564257D01*
X92684695Y-75979400D02*
X92589457Y-75931780D01*
X92446600Y-75931780D01*
X92303742Y-75979400D01*
X92208504Y-76074638D01*
X92160885Y-76169876D01*
X92113266Y-76360352D01*
X92113266Y-76503209D01*
X92160885Y-76693685D01*
X92208504Y-76788923D01*
X92303742Y-76884161D01*
X92446600Y-76931780D01*
X92541838Y-76931780D01*
X92684695Y-76884161D01*
X92732314Y-76836542D01*
X92732314Y-76503209D01*
X92541838Y-76503209D01*
X93160885Y-76931780D02*
X93160885Y-75931780D01*
X93732314Y-76931780D01*
X93732314Y-75931780D01*
X94208504Y-76931780D02*
X94208504Y-75931780D01*
X94446600Y-75931780D01*
X94589457Y-75979400D01*
X94684695Y-76074638D01*
X94732314Y-76169876D01*
X94779933Y-76360352D01*
X94779933Y-76503209D01*
X94732314Y-76693685D01*
X94684695Y-76788923D01*
X94589457Y-76884161D01*
X94446600Y-76931780D01*
X94208504Y-76931780D01*
X92141942Y-71651761D02*
X92284800Y-71699380D01*
X92522895Y-71699380D01*
X92618133Y-71651761D01*
X92665752Y-71604142D01*
X92713371Y-71508904D01*
X92713371Y-71413666D01*
X92665752Y-71318428D01*
X92618133Y-71270809D01*
X92522895Y-71223190D01*
X92332419Y-71175571D01*
X92237180Y-71127952D01*
X92189561Y-71080333D01*
X92141942Y-70985095D01*
X92141942Y-70889857D01*
X92189561Y-70794619D01*
X92237180Y-70747000D01*
X92332419Y-70699380D01*
X92570514Y-70699380D01*
X92713371Y-70747000D01*
X93141942Y-71699380D02*
X93141942Y-71032714D01*
X93141942Y-70699380D02*
X93094323Y-70747000D01*
X93141942Y-70794619D01*
X93189561Y-70747000D01*
X93141942Y-70699380D01*
X93141942Y-70794619D01*
X94046704Y-71032714D02*
X94046704Y-71842238D01*
X93999085Y-71937476D01*
X93951466Y-71985095D01*
X93856228Y-72032714D01*
X93713371Y-72032714D01*
X93618133Y-71985095D01*
X94046704Y-71651761D02*
X93951466Y-71699380D01*
X93760990Y-71699380D01*
X93665752Y-71651761D01*
X93618133Y-71604142D01*
X93570514Y-71508904D01*
X93570514Y-71223190D01*
X93618133Y-71127952D01*
X93665752Y-71080333D01*
X93760990Y-71032714D01*
X93951466Y-71032714D01*
X94046704Y-71080333D01*
X94522895Y-71032714D02*
X94522895Y-71699380D01*
X94522895Y-71127952D02*
X94570514Y-71080333D01*
X94665752Y-71032714D01*
X94808609Y-71032714D01*
X94903847Y-71080333D01*
X94951466Y-71175571D01*
X94951466Y-71699380D01*
X95856228Y-71699380D02*
X95856228Y-71175571D01*
X95808609Y-71080333D01*
X95713371Y-71032714D01*
X95522895Y-71032714D01*
X95427657Y-71080333D01*
X95856228Y-71651761D02*
X95760990Y-71699380D01*
X95522895Y-71699380D01*
X95427657Y-71651761D01*
X95380038Y-71556523D01*
X95380038Y-71461285D01*
X95427657Y-71366047D01*
X95522895Y-71318428D01*
X95760990Y-71318428D01*
X95856228Y-71270809D01*
X96475276Y-71699380D02*
X96380038Y-71651761D01*
X96332419Y-71556523D01*
X96332419Y-70699380D01*
X63134028Y-55370980D02*
X63705457Y-55370980D01*
X63419742Y-56370980D02*
X63419742Y-55370980D01*
X64419742Y-56323361D02*
X64324504Y-56370980D01*
X64134028Y-56370980D01*
X64038790Y-56323361D01*
X63991171Y-56228123D01*
X63991171Y-55847171D01*
X64038790Y-55751933D01*
X64134028Y-55704314D01*
X64324504Y-55704314D01*
X64419742Y-55751933D01*
X64467361Y-55847171D01*
X64467361Y-55942409D01*
X63991171Y-56037647D01*
X64895933Y-56370980D02*
X64895933Y-55704314D01*
X64895933Y-55799552D02*
X64943552Y-55751933D01*
X65038790Y-55704314D01*
X65181647Y-55704314D01*
X65276885Y-55751933D01*
X65324504Y-55847171D01*
X65324504Y-56370980D01*
X65324504Y-55847171D02*
X65372123Y-55751933D01*
X65467361Y-55704314D01*
X65610219Y-55704314D01*
X65705457Y-55751933D01*
X65753076Y-55847171D01*
X65753076Y-56370980D01*
X66229266Y-55704314D02*
X66229266Y-56704314D01*
X66229266Y-55751933D02*
X66324504Y-55704314D01*
X66514980Y-55704314D01*
X66610219Y-55751933D01*
X66657838Y-55799552D01*
X66705457Y-55894790D01*
X66705457Y-56180504D01*
X66657838Y-56275742D01*
X66610219Y-56323361D01*
X66514980Y-56370980D01*
X66324504Y-56370980D01*
X66229266Y-56323361D01*
X67134028Y-56370980D02*
X67134028Y-55370980D01*
X67467361Y-56085266D01*
X67800695Y-55370980D01*
X67800695Y-56370980D01*
X68419742Y-56370980D02*
X68324504Y-56323361D01*
X68276885Y-56275742D01*
X68229266Y-56180504D01*
X68229266Y-55894790D01*
X68276885Y-55799552D01*
X68324504Y-55751933D01*
X68419742Y-55704314D01*
X68562600Y-55704314D01*
X68657838Y-55751933D01*
X68705457Y-55799552D01*
X68753076Y-55894790D01*
X68753076Y-56180504D01*
X68705457Y-56275742D01*
X68657838Y-56323361D01*
X68562600Y-56370980D01*
X68419742Y-56370980D01*
X69181647Y-55704314D02*
X69181647Y-56370980D01*
X69181647Y-55799552D02*
X69229266Y-55751933D01*
X69324504Y-55704314D01*
X69467361Y-55704314D01*
X69562600Y-55751933D01*
X69610219Y-55847171D01*
X69610219Y-56370980D01*
X70086409Y-56370980D02*
X70086409Y-55704314D01*
X70086409Y-55370980D02*
X70038790Y-55418600D01*
X70086409Y-55466219D01*
X70134028Y-55418600D01*
X70086409Y-55370980D01*
X70086409Y-55466219D01*
X70419742Y-55704314D02*
X70800695Y-55704314D01*
X70562600Y-55370980D02*
X70562600Y-56228123D01*
X70610219Y-56323361D01*
X70705457Y-56370980D01*
X70800695Y-56370980D01*
X71276885Y-56370980D02*
X71181647Y-56323361D01*
X71134028Y-56275742D01*
X71086409Y-56180504D01*
X71086409Y-55894790D01*
X71134028Y-55799552D01*
X71181647Y-55751933D01*
X71276885Y-55704314D01*
X71419742Y-55704314D01*
X71514980Y-55751933D01*
X71562600Y-55799552D01*
X71610219Y-55894790D01*
X71610219Y-56180504D01*
X71562600Y-56275742D01*
X71514980Y-56323361D01*
X71419742Y-56370980D01*
X71276885Y-56370980D01*
X72038790Y-56370980D02*
X72038790Y-55704314D01*
X72038790Y-55894790D02*
X72086409Y-55799552D01*
X72134028Y-55751933D01*
X72229266Y-55704314D01*
X72324504Y-55704314D01*
X73943552Y-56370980D02*
X73372123Y-56370980D01*
X73657838Y-56370980D02*
X73657838Y-55370980D01*
X73562600Y-55513838D01*
X73467361Y-55609076D01*
X73372123Y-55656695D01*
X74562600Y-55370980D02*
X74657838Y-55370980D01*
X74753076Y-55418600D01*
X74800695Y-55466219D01*
X74848314Y-55561457D01*
X74895933Y-55751933D01*
X74895933Y-55990028D01*
X74848314Y-56180504D01*
X74800695Y-56275742D01*
X74753076Y-56323361D01*
X74657838Y-56370980D01*
X74562600Y-56370980D01*
X74467361Y-56323361D01*
X74419742Y-56275742D01*
X74372123Y-56180504D01*
X74324504Y-55990028D01*
X74324504Y-55751933D01*
X74372123Y-55561457D01*
X74419742Y-55466219D01*
X74467361Y-55418600D01*
X74562600Y-55370980D01*
X63800695Y-57116219D02*
X63848314Y-57068600D01*
X63943552Y-57020980D01*
X64181647Y-57020980D01*
X64276885Y-57068600D01*
X64324504Y-57116219D01*
X64372123Y-57211457D01*
X64372123Y-57306695D01*
X64324504Y-57449552D01*
X63753076Y-58020980D01*
X64372123Y-58020980D01*
X64705457Y-57020980D02*
X65372123Y-57020980D01*
X64943552Y-58020980D01*
X65753076Y-57640028D02*
X66514980Y-57640028D01*
X66991171Y-58020980D02*
X66991171Y-57020980D01*
X67562600Y-58020980D01*
X67562600Y-57020980D01*
X68181647Y-58020980D02*
X68086409Y-57973361D01*
X68038790Y-57925742D01*
X67991171Y-57830504D01*
X67991171Y-57544790D01*
X68038790Y-57449552D01*
X68086409Y-57401933D01*
X68181647Y-57354314D01*
X68324504Y-57354314D01*
X68419742Y-57401933D01*
X68467361Y-57449552D01*
X68514980Y-57544790D01*
X68514980Y-57830504D01*
X68467361Y-57925742D01*
X68419742Y-57973361D01*
X68324504Y-58020980D01*
X68181647Y-58020980D01*
X68848314Y-57354314D02*
X69086409Y-58020980D01*
X69324504Y-57354314D01*
X69705457Y-57640028D02*
X70467361Y-57640028D01*
X70895933Y-57116219D02*
X70943552Y-57068600D01*
X71038790Y-57020980D01*
X71276885Y-57020980D01*
X71372123Y-57068600D01*
X71419742Y-57116219D01*
X71467361Y-57211457D01*
X71467361Y-57306695D01*
X71419742Y-57449552D01*
X70848314Y-58020980D01*
X71467361Y-58020980D01*
X72086409Y-57020980D02*
X72181647Y-57020980D01*
X72276885Y-57068600D01*
X72324504Y-57116219D01*
X72372123Y-57211457D01*
X72419742Y-57401933D01*
X72419742Y-57640028D01*
X72372123Y-57830504D01*
X72324504Y-57925742D01*
X72276885Y-57973361D01*
X72181647Y-58020980D01*
X72086409Y-58020980D01*
X71991171Y-57973361D01*
X71943552Y-57925742D01*
X71895933Y-57830504D01*
X71848314Y-57640028D01*
X71848314Y-57401933D01*
X71895933Y-57211457D01*
X71943552Y-57116219D01*
X71991171Y-57068600D01*
X72086409Y-57020980D01*
X72800695Y-57116219D02*
X72848314Y-57068600D01*
X72943552Y-57020980D01*
X73181647Y-57020980D01*
X73276885Y-57068600D01*
X73324504Y-57116219D01*
X73372123Y-57211457D01*
X73372123Y-57306695D01*
X73324504Y-57449552D01*
X72753076Y-58020980D01*
X73372123Y-58020980D01*
X73991171Y-57020980D02*
X74086409Y-57020980D01*
X74181647Y-57068600D01*
X74229266Y-57116219D01*
X74276885Y-57211457D01*
X74324504Y-57401933D01*
X74324504Y-57640028D01*
X74276885Y-57830504D01*
X74229266Y-57925742D01*
X74181647Y-57973361D01*
X74086409Y-58020980D01*
X73991171Y-58020980D01*
X73895933Y-57973361D01*
X73848314Y-57925742D01*
X73800695Y-57830504D01*
X73753076Y-57640028D01*
X73753076Y-57401933D01*
X73800695Y-57211457D01*
X73848314Y-57116219D01*
X73895933Y-57068600D01*
X73991171Y-57020980D01*
D11*
X74472800Y-105741600D02*
X74472800Y-104971600D01*
X74472800Y-97661600D02*
X74472800Y-98431600D01*
X75842800Y-104971600D02*
X75842800Y-98431600D01*
X73102800Y-104971600D02*
X75842800Y-104971600D01*
X73102800Y-98431600D02*
X73102800Y-104971600D01*
X75842800Y-98431600D02*
X73102800Y-98431600D01*
X74350800Y-52772400D02*
G75*
G02X76480800Y-54902400I0J-2130000D01*
G01*
X50620800Y-54902400D02*
G75*
G02X52750800Y-52772400I2130000J0D01*
G01*
X53160800Y-80332400D02*
X53160800Y-87232400D01*
X50620800Y-80332400D02*
X53160800Y-80332400D01*
D10*
G36*
X49580800Y-60477400D02*
G01*
X49580800Y-61747400D01*
X50215800Y-61112400D01*
X49580800Y-60477400D01*
G37*
X49580800Y-60477400D02*
X49580800Y-61747400D01*
X50215800Y-61112400D01*
X49580800Y-60477400D01*
D11*
X74360800Y-52772400D02*
X52750800Y-52772400D01*
X76480800Y-87232400D02*
X76480800Y-54902400D01*
X50620800Y-80332400D02*
X50620800Y-54902400D01*
X53160800Y-87232400D02*
X76480800Y-87232400D01*
X50546000Y-100482400D02*
X60546000Y-100482400D01*
X50546000Y-90282400D02*
X60546000Y-90282400D01*
X60546000Y-100482400D02*
X60546000Y-90282400D01*
X50546000Y-100482400D02*
X50546000Y-90282400D01*
X69282000Y-90897400D02*
X70612000Y-90897400D01*
X69282000Y-92227400D02*
X69282000Y-90897400D01*
X69282000Y-93497400D02*
X71942000Y-93497400D01*
X71942000Y-93497400D02*
X71942000Y-96097400D01*
X69282000Y-93497400D02*
X69282000Y-96097400D01*
X69282000Y-96097400D02*
X71942000Y-96097400D01*
D12*
X67691000Y-122682000D02*
X68961000Y-122682000D01*
X68961000Y-122097800D02*
X68961000Y-122682000D01*
X68961000Y-122682000D02*
X70104000Y-122097800D01*
X70104000Y-122097800D02*
X70104000Y-123266200D01*
X70104000Y-123266200D02*
X68961000Y-122682000D01*
X68961000Y-122682000D02*
X71247000Y-122682000D01*
X68961000Y-122682000D02*
X68961000Y-123266200D01*
X63881000Y-125476000D02*
X63881000Y-119888000D01*
X74041000Y-119888000D02*
X74041000Y-125476000D01*
X63881000Y-119888000D02*
X74041000Y-119888000D01*
X74041000Y-125476000D02*
X63881000Y-125476000D01*
D13*
G36*
X64770000Y-125476000D02*
G01*
X65532000Y-125476000D01*
X65532000Y-119888000D01*
X64770000Y-119888000D01*
X64770000Y-125476000D01*
G37*
G36*
X62992000Y-123317000D02*
G01*
X63881000Y-123317000D01*
X63881000Y-122047000D01*
X62992000Y-122047000D01*
X62992000Y-123317000D01*
G37*
G36*
X74041000Y-123317000D02*
G01*
X74930000Y-123317000D01*
X74930000Y-122047000D01*
X74041000Y-122047000D01*
X74041000Y-123317000D01*
G37*
D11*
X80189200Y-125388400D02*
X80189200Y-123648400D01*
X81929200Y-125388400D02*
X80189200Y-125388400D01*
X80429200Y-115948400D02*
X82429200Y-115948400D01*
X80429200Y-118748400D02*
X80429200Y-115948400D01*
X80429200Y-125148400D02*
X80429200Y-122348400D01*
X95029200Y-125148400D02*
X80429200Y-125148400D01*
X95029200Y-115948400D02*
X95029200Y-125148400D01*
X86029200Y-115948400D02*
X95029200Y-115948400D01*
X78786200Y-113239600D02*
X96746200Y-113239600D01*
X78786200Y-97719600D02*
X78786200Y-113239600D01*
X78786200Y-97719600D02*
X96746200Y-97719600D01*
X96746200Y-113239600D02*
X96746200Y-97719600D01*
X82666200Y-113424600D02*
X82166200Y-113924600D01*
X82166200Y-113924600D02*
X83166200Y-113924600D01*
X83166200Y-113924600D02*
X82666200Y-113424600D01*
X78786200Y-95682800D02*
X96746200Y-95682800D01*
X78786200Y-80162800D02*
X78786200Y-95682800D01*
X78786200Y-80162800D02*
X96746200Y-80162800D01*
X96746200Y-95682800D02*
X96746200Y-80162800D01*
X82666200Y-95867800D02*
X82166200Y-96367800D01*
X82166200Y-96367800D02*
X83166200Y-96367800D01*
X83166200Y-96367800D02*
X82666200Y-95867800D01*
X78786200Y-66307000D02*
X96746200Y-66307000D01*
X78786200Y-50787000D02*
X78786200Y-66307000D01*
X78786200Y-50787000D02*
X96746200Y-50787000D01*
X96746200Y-66307000D02*
X96746200Y-50787000D01*
X82666200Y-66492000D02*
X82166200Y-66992000D01*
X82166200Y-66992000D02*
X83166200Y-66992000D01*
X83166200Y-66992000D02*
X82666200Y-66492000D01*
X81517200Y-68097400D02*
X81517200Y-68497400D01*
X82157200Y-68097400D02*
X81517200Y-68097400D01*
X85825200Y-74639400D02*
X85429200Y-74244400D01*
X88471200Y-77285400D02*
X88091200Y-76905400D01*
X85543200Y-74890400D02*
X85163200Y-74510400D01*
X88205200Y-77551400D02*
X87809200Y-77156400D01*
X85536200Y-69349400D02*
X85429200Y-69243400D01*
X88471200Y-72285400D02*
X88364200Y-72178400D01*
X85270200Y-69615400D02*
X85163200Y-69509400D01*
X88205200Y-72551400D02*
X88098200Y-72444400D01*
X90877200Y-78457400D02*
X81757200Y-78457400D01*
X90877200Y-68337400D02*
X81757200Y-68337400D01*
X81757200Y-68337400D02*
X81757200Y-78457400D01*
X90877200Y-68337400D02*
X90877200Y-78457400D01*
X83317200Y-68337400D02*
X83317200Y-78457400D01*
X82217200Y-68337400D02*
X82217200Y-78457400D01*
X88997200Y-75897400D02*
G75*
G03X88997200Y-75897400I-2180000J0D01*
G01*
X88997200Y-70897400D02*
G75*
G03X88997200Y-70897400I-2180000J0D01*
G01*
X68554600Y-77928600D02*
X68554600Y-77158600D01*
X68554600Y-69848600D02*
X68554600Y-70618600D01*
X69924600Y-77158600D02*
X69924600Y-70618600D01*
X67184600Y-77158600D02*
X69924600Y-77158600D01*
X67184600Y-70618600D02*
X67184600Y-77158600D01*
X69924600Y-70618600D02*
X67184600Y-70618600D01*
X61849000Y-77827000D02*
X61849000Y-77057000D01*
X61849000Y-69747000D02*
X61849000Y-70517000D01*
X63219000Y-77057000D02*
X63219000Y-70517000D01*
X60479000Y-77057000D02*
X63219000Y-77057000D01*
X60479000Y-70517000D02*
X60479000Y-77057000D01*
X63219000Y-70517000D02*
X60479000Y-70517000D01*
X58899400Y-105927554D02*
X57899400Y-105927554D01*
X58399400Y-105427554D02*
X58399400Y-106427554D01*
X56123400Y-115988200D02*
X54925400Y-115988200D01*
X56386400Y-115948200D02*
X54662400Y-115948200D01*
X56586400Y-115908200D02*
X54462400Y-115908200D01*
X56754400Y-115868200D02*
X54294400Y-115868200D01*
X56902400Y-115828200D02*
X54146400Y-115828200D01*
X57034400Y-115788200D02*
X54014400Y-115788200D01*
X57154400Y-115748200D02*
X53894400Y-115748200D01*
X57266400Y-115708200D02*
X53782400Y-115708200D01*
X57370400Y-115668200D02*
X53678400Y-115668200D01*
X57468400Y-115628200D02*
X53580400Y-115628200D01*
X57561400Y-115588200D02*
X53487400Y-115588200D01*
X57649400Y-115548200D02*
X53399400Y-115548200D01*
X57733400Y-115508200D02*
X53315400Y-115508200D01*
X57813400Y-115468200D02*
X53235400Y-115468200D01*
X57889400Y-115428200D02*
X53159400Y-115428200D01*
X57963400Y-115388200D02*
X53085400Y-115388200D01*
X58034400Y-115348200D02*
X53014400Y-115348200D01*
X58103400Y-115308200D02*
X52945400Y-115308200D01*
X58169400Y-115268200D02*
X52879400Y-115268200D01*
X58233400Y-115228200D02*
X52815400Y-115228200D01*
X58294400Y-115188200D02*
X52754400Y-115188200D01*
X58354400Y-115148200D02*
X52694400Y-115148200D01*
X58413400Y-115108200D02*
X52635400Y-115108200D01*
X58469400Y-115068200D02*
X52579400Y-115068200D01*
X58524400Y-115028200D02*
X52524400Y-115028200D01*
X58578400Y-114988200D02*
X52470400Y-114988200D01*
X58630400Y-114948200D02*
X52418400Y-114948200D01*
X58680400Y-114908200D02*
X52368400Y-114908200D01*
X58730400Y-114868200D02*
X52318400Y-114868200D01*
X58778400Y-114828200D02*
X52270400Y-114828200D01*
X58825400Y-114788200D02*
X52223400Y-114788200D01*
X58871400Y-114748200D02*
X52177400Y-114748200D01*
X58916400Y-114708200D02*
X52132400Y-114708200D01*
X58960400Y-114668200D02*
X52088400Y-114668200D01*
X54283400Y-114628200D02*
X52046400Y-114628200D01*
X59002400Y-114628200D02*
X56765400Y-114628200D01*
X54283400Y-114588200D02*
X52004400Y-114588200D01*
X59044400Y-114588200D02*
X56765400Y-114588200D01*
X54283400Y-114548200D02*
X51963400Y-114548200D01*
X59085400Y-114548200D02*
X56765400Y-114548200D01*
X54283400Y-114508200D02*
X51923400Y-114508200D01*
X59125400Y-114508200D02*
X56765400Y-114508200D01*
X54283400Y-114468200D02*
X51884400Y-114468200D01*
X59164400Y-114468200D02*
X56765400Y-114468200D01*
X54283400Y-114428200D02*
X51845400Y-114428200D01*
X59203400Y-114428200D02*
X56765400Y-114428200D01*
X54283400Y-114388200D02*
X51808400Y-114388200D01*
X59240400Y-114388200D02*
X56765400Y-114388200D01*
X54283400Y-114348200D02*
X51771400Y-114348200D01*
X59277400Y-114348200D02*
X56765400Y-114348200D01*
X54283400Y-114308200D02*
X51735400Y-114308200D01*
X59313400Y-114308200D02*
X56765400Y-114308200D01*
X54283400Y-114268200D02*
X51700400Y-114268200D01*
X59348400Y-114268200D02*
X56765400Y-114268200D01*
X54283400Y-114228200D02*
X51666400Y-114228200D01*
X59382400Y-114228200D02*
X56765400Y-114228200D01*
X54283400Y-114188200D02*
X51632400Y-114188200D01*
X59416400Y-114188200D02*
X56765400Y-114188200D01*
X54283400Y-114148200D02*
X51599400Y-114148200D01*
X59449400Y-114148200D02*
X56765400Y-114148200D01*
X54283400Y-114108200D02*
X51567400Y-114108200D01*
X59481400Y-114108200D02*
X56765400Y-114108200D01*
X54283400Y-114068200D02*
X51535400Y-114068200D01*
X59513400Y-114068200D02*
X56765400Y-114068200D01*
X54283400Y-114028200D02*
X51504400Y-114028200D01*
X59544400Y-114028200D02*
X56765400Y-114028200D01*
X54283400Y-113988200D02*
X51474400Y-113988200D01*
X59574400Y-113988200D02*
X56765400Y-113988200D01*
X54283400Y-113948200D02*
X51444400Y-113948200D01*
X59604400Y-113948200D02*
X56765400Y-113948200D01*
X54283400Y-113908200D02*
X51414400Y-113908200D01*
X59634400Y-113908200D02*
X56765400Y-113908200D01*
X54283400Y-113868200D02*
X51386400Y-113868200D01*
X59662400Y-113868200D02*
X56765400Y-113868200D01*
X54283400Y-113828200D02*
X51358400Y-113828200D01*
X59690400Y-113828200D02*
X56765400Y-113828200D01*
X54283400Y-113788200D02*
X51330400Y-113788200D01*
X59718400Y-113788200D02*
X56765400Y-113788200D01*
X54283400Y-113748200D02*
X51303400Y-113748200D01*
X59745400Y-113748200D02*
X56765400Y-113748200D01*
X54283400Y-113708200D02*
X51277400Y-113708200D01*
X59771400Y-113708200D02*
X56765400Y-113708200D01*
X54283400Y-113668200D02*
X51251400Y-113668200D01*
X59797400Y-113668200D02*
X56765400Y-113668200D01*
X54283400Y-113628200D02*
X51226400Y-113628200D01*
X59822400Y-113628200D02*
X56765400Y-113628200D01*
X54283400Y-113588200D02*
X51201400Y-113588200D01*
X59847400Y-113588200D02*
X56765400Y-113588200D01*
X54283400Y-113548200D02*
X51177400Y-113548200D01*
X59871400Y-113548200D02*
X56765400Y-113548200D01*
X54283400Y-113508200D02*
X51153400Y-113508200D01*
X59895400Y-113508200D02*
X56765400Y-113508200D01*
X54283400Y-113468200D02*
X51129400Y-113468200D01*
X59919400Y-113468200D02*
X56765400Y-113468200D01*
X54283400Y-113428200D02*
X51107400Y-113428200D01*
X59941400Y-113428200D02*
X56765400Y-113428200D01*
X54283400Y-113388200D02*
X51084400Y-113388200D01*
X59964400Y-113388200D02*
X56765400Y-113388200D01*
X54283400Y-113348200D02*
X51062400Y-113348200D01*
X59986400Y-113348200D02*
X56765400Y-113348200D01*
X54283400Y-113308200D02*
X51041400Y-113308200D01*
X60007400Y-113308200D02*
X56765400Y-113308200D01*
X54283400Y-113268200D02*
X51020400Y-113268200D01*
X60028400Y-113268200D02*
X56765400Y-113268200D01*
X54283400Y-113228200D02*
X50999400Y-113228200D01*
X60049400Y-113228200D02*
X56765400Y-113228200D01*
X54283400Y-113188200D02*
X50979400Y-113188200D01*
X60069400Y-113188200D02*
X56765400Y-113188200D01*
X54283400Y-113148200D02*
X50960400Y-113148200D01*
X60088400Y-113148200D02*
X56765400Y-113148200D01*
X54283400Y-113108200D02*
X50940400Y-113108200D01*
X60108400Y-113108200D02*
X56765400Y-113108200D01*
X54283400Y-113068200D02*
X50921400Y-113068200D01*
X60127400Y-113068200D02*
X56765400Y-113068200D01*
X54283400Y-113028200D02*
X50903400Y-113028200D01*
X60145400Y-113028200D02*
X56765400Y-113028200D01*
X54283400Y-112988200D02*
X50885400Y-112988200D01*
X60163400Y-112988200D02*
X56765400Y-112988200D01*
X54283400Y-112948200D02*
X50867400Y-112948200D01*
X60181400Y-112948200D02*
X56765400Y-112948200D01*
X54283400Y-112908200D02*
X50850400Y-112908200D01*
X60198400Y-112908200D02*
X56765400Y-112908200D01*
X54283400Y-112868200D02*
X50834400Y-112868200D01*
X60214400Y-112868200D02*
X56765400Y-112868200D01*
X54283400Y-112828200D02*
X50817400Y-112828200D01*
X60231400Y-112828200D02*
X56765400Y-112828200D01*
X54283400Y-112788200D02*
X50801400Y-112788200D01*
X60247400Y-112788200D02*
X56765400Y-112788200D01*
X54283400Y-112748200D02*
X50786400Y-112748200D01*
X60262400Y-112748200D02*
X56765400Y-112748200D01*
X54283400Y-112708200D02*
X50770400Y-112708200D01*
X60278400Y-112708200D02*
X56765400Y-112708200D01*
X54283400Y-112668200D02*
X50756400Y-112668200D01*
X60292400Y-112668200D02*
X56765400Y-112668200D01*
X54283400Y-112628200D02*
X50741400Y-112628200D01*
X60307400Y-112628200D02*
X56765400Y-112628200D01*
X54283400Y-112588200D02*
X50727400Y-112588200D01*
X60321400Y-112588200D02*
X56765400Y-112588200D01*
X54283400Y-112548200D02*
X50713400Y-112548200D01*
X60335400Y-112548200D02*
X56765400Y-112548200D01*
X54283400Y-112508200D02*
X50700400Y-112508200D01*
X60348400Y-112508200D02*
X56765400Y-112508200D01*
X54283400Y-112468200D02*
X50687400Y-112468200D01*
X60361400Y-112468200D02*
X56765400Y-112468200D01*
X54283400Y-112428200D02*
X50674400Y-112428200D01*
X60374400Y-112428200D02*
X56765400Y-112428200D01*
X54283400Y-112388200D02*
X50662400Y-112388200D01*
X60386400Y-112388200D02*
X56765400Y-112388200D01*
X54283400Y-112348200D02*
X50650400Y-112348200D01*
X60398400Y-112348200D02*
X56765400Y-112348200D01*
X54283400Y-112308200D02*
X50639400Y-112308200D01*
X60409400Y-112308200D02*
X56765400Y-112308200D01*
X54283400Y-112268200D02*
X50627400Y-112268200D01*
X60421400Y-112268200D02*
X56765400Y-112268200D01*
X54283400Y-112228200D02*
X50617400Y-112228200D01*
X60431400Y-112228200D02*
X56765400Y-112228200D01*
X54283400Y-112188200D02*
X50606400Y-112188200D01*
X60442400Y-112188200D02*
X56765400Y-112188200D01*
X60452400Y-112148200D02*
X50596400Y-112148200D01*
X60462400Y-112108200D02*
X50586400Y-112108200D01*
X60471400Y-112068200D02*
X50577400Y-112068200D01*
X60480400Y-112028200D02*
X50568400Y-112028200D01*
X60489400Y-111988200D02*
X50559400Y-111988200D01*
X60498400Y-111948200D02*
X50550400Y-111948200D01*
X60506400Y-111908200D02*
X50542400Y-111908200D01*
X60514400Y-111868200D02*
X50534400Y-111868200D01*
X60521400Y-111828200D02*
X50527400Y-111828200D01*
X60528400Y-111788200D02*
X50520400Y-111788200D01*
X60535400Y-111748200D02*
X50513400Y-111748200D01*
X60542400Y-111708200D02*
X50506400Y-111708200D01*
X60548400Y-111668200D02*
X50500400Y-111668200D01*
X60554400Y-111628200D02*
X50494400Y-111628200D01*
X60559400Y-111587200D02*
X50489400Y-111587200D01*
X60564400Y-111547200D02*
X50484400Y-111547200D01*
X60569400Y-111507200D02*
X50479400Y-111507200D01*
X60574400Y-111467200D02*
X50474400Y-111467200D01*
X60578400Y-111427200D02*
X50470400Y-111427200D01*
X60582400Y-111387200D02*
X50466400Y-111387200D01*
X60586400Y-111347200D02*
X50462400Y-111347200D01*
X60589400Y-111307200D02*
X50459400Y-111307200D01*
X60592400Y-111267200D02*
X50456400Y-111267200D01*
X60594400Y-111227200D02*
X50454400Y-111227200D01*
X60597400Y-111187200D02*
X50451400Y-111187200D01*
X60599400Y-111147200D02*
X50449400Y-111147200D01*
X60601400Y-111107200D02*
X50447400Y-111107200D01*
X60602400Y-111067200D02*
X50446400Y-111067200D01*
X60603400Y-111027200D02*
X50445400Y-111027200D01*
X60604400Y-110987200D02*
X50444400Y-110987200D01*
X60604400Y-110947200D02*
X50444400Y-110947200D01*
X60604400Y-110907200D02*
X50444400Y-110907200D01*
X60644400Y-110907200D02*
G75*
G03X60644400Y-110907200I-5120000J0D01*
G01*
X55210400Y-105205200D02*
X55210400Y-102465200D01*
X60450400Y-105205200D02*
X60450400Y-102465200D01*
X60450400Y-102465200D02*
X55210400Y-102465200D01*
X60450400Y-105205200D02*
X55210400Y-105205200D01*
X55210400Y-89431800D02*
X55210400Y-86691800D01*
X60450400Y-89431800D02*
X60450400Y-86691800D01*
X60450400Y-86691800D02*
X55210400Y-86691800D01*
X60450400Y-89431800D02*
X55210400Y-89431800D01*
X54408400Y-74997000D02*
X57148400Y-74997000D01*
X54408400Y-80237000D02*
X57148400Y-80237000D01*
X57148400Y-80237000D02*
X57148400Y-74997000D01*
X54408400Y-80237000D02*
X54408400Y-74997000D01*
X74977600Y-108873954D02*
X73977600Y-108873954D01*
X74477600Y-108373954D02*
X74477600Y-109373954D01*
X72201600Y-118934600D02*
X71003600Y-118934600D01*
X72464600Y-118894600D02*
X70740600Y-118894600D01*
X72664600Y-118854600D02*
X70540600Y-118854600D01*
X72832600Y-118814600D02*
X70372600Y-118814600D01*
X72980600Y-118774600D02*
X70224600Y-118774600D01*
X73112600Y-118734600D02*
X70092600Y-118734600D01*
X73232600Y-118694600D02*
X69972600Y-118694600D01*
X73344600Y-118654600D02*
X69860600Y-118654600D01*
X73448600Y-118614600D02*
X69756600Y-118614600D01*
X73546600Y-118574600D02*
X69658600Y-118574600D01*
X73639600Y-118534600D02*
X69565600Y-118534600D01*
X73727600Y-118494600D02*
X69477600Y-118494600D01*
X73811600Y-118454600D02*
X69393600Y-118454600D01*
X73891600Y-118414600D02*
X69313600Y-118414600D01*
X73967600Y-118374600D02*
X69237600Y-118374600D01*
X74041600Y-118334600D02*
X69163600Y-118334600D01*
X74112600Y-118294600D02*
X69092600Y-118294600D01*
X74181600Y-118254600D02*
X69023600Y-118254600D01*
X74247600Y-118214600D02*
X68957600Y-118214600D01*
X74311600Y-118174600D02*
X68893600Y-118174600D01*
X74372600Y-118134600D02*
X68832600Y-118134600D01*
X74432600Y-118094600D02*
X68772600Y-118094600D01*
X74491600Y-118054600D02*
X68713600Y-118054600D01*
X74547600Y-118014600D02*
X68657600Y-118014600D01*
X74602600Y-117974600D02*
X68602600Y-117974600D01*
X74656600Y-117934600D02*
X68548600Y-117934600D01*
X74708600Y-117894600D02*
X68496600Y-117894600D01*
X74758600Y-117854600D02*
X68446600Y-117854600D01*
X74808600Y-117814600D02*
X68396600Y-117814600D01*
X74856600Y-117774600D02*
X68348600Y-117774600D01*
X74903600Y-117734600D02*
X68301600Y-117734600D01*
X74949600Y-117694600D02*
X68255600Y-117694600D01*
X74994600Y-117654600D02*
X68210600Y-117654600D01*
X75038600Y-117614600D02*
X68166600Y-117614600D01*
X70361600Y-117574600D02*
X68124600Y-117574600D01*
X75080600Y-117574600D02*
X72843600Y-117574600D01*
X70361600Y-117534600D02*
X68082600Y-117534600D01*
X75122600Y-117534600D02*
X72843600Y-117534600D01*
X70361600Y-117494600D02*
X68041600Y-117494600D01*
X75163600Y-117494600D02*
X72843600Y-117494600D01*
X70361600Y-117454600D02*
X68001600Y-117454600D01*
X75203600Y-117454600D02*
X72843600Y-117454600D01*
X70361600Y-117414600D02*
X67962600Y-117414600D01*
X75242600Y-117414600D02*
X72843600Y-117414600D01*
X70361600Y-117374600D02*
X67923600Y-117374600D01*
X75281600Y-117374600D02*
X72843600Y-117374600D01*
X70361600Y-117334600D02*
X67886600Y-117334600D01*
X75318600Y-117334600D02*
X72843600Y-117334600D01*
X70361600Y-117294600D02*
X67849600Y-117294600D01*
X75355600Y-117294600D02*
X72843600Y-117294600D01*
X70361600Y-117254600D02*
X67813600Y-117254600D01*
X75391600Y-117254600D02*
X72843600Y-117254600D01*
X70361600Y-117214600D02*
X67778600Y-117214600D01*
X75426600Y-117214600D02*
X72843600Y-117214600D01*
X70361600Y-117174600D02*
X67744600Y-117174600D01*
X75460600Y-117174600D02*
X72843600Y-117174600D01*
X70361600Y-117134600D02*
X67710600Y-117134600D01*
X75494600Y-117134600D02*
X72843600Y-117134600D01*
X70361600Y-117094600D02*
X67677600Y-117094600D01*
X75527600Y-117094600D02*
X72843600Y-117094600D01*
X70361600Y-117054600D02*
X67645600Y-117054600D01*
X75559600Y-117054600D02*
X72843600Y-117054600D01*
X70361600Y-117014600D02*
X67613600Y-117014600D01*
X75591600Y-117014600D02*
X72843600Y-117014600D01*
X70361600Y-116974600D02*
X67582600Y-116974600D01*
X75622600Y-116974600D02*
X72843600Y-116974600D01*
X70361600Y-116934600D02*
X67552600Y-116934600D01*
X75652600Y-116934600D02*
X72843600Y-116934600D01*
X70361600Y-116894600D02*
X67522600Y-116894600D01*
X75682600Y-116894600D02*
X72843600Y-116894600D01*
X70361600Y-116854600D02*
X67492600Y-116854600D01*
X75712600Y-116854600D02*
X72843600Y-116854600D01*
X70361600Y-116814600D02*
X67464600Y-116814600D01*
X75740600Y-116814600D02*
X72843600Y-116814600D01*
X70361600Y-116774600D02*
X67436600Y-116774600D01*
X75768600Y-116774600D02*
X72843600Y-116774600D01*
X70361600Y-116734600D02*
X67408600Y-116734600D01*
X75796600Y-116734600D02*
X72843600Y-116734600D01*
X70361600Y-116694600D02*
X67381600Y-116694600D01*
X75823600Y-116694600D02*
X72843600Y-116694600D01*
X70361600Y-116654600D02*
X67355600Y-116654600D01*
X75849600Y-116654600D02*
X72843600Y-116654600D01*
X70361600Y-116614600D02*
X67329600Y-116614600D01*
X75875600Y-116614600D02*
X72843600Y-116614600D01*
X70361600Y-116574600D02*
X67304600Y-116574600D01*
X75900600Y-116574600D02*
X72843600Y-116574600D01*
X70361600Y-116534600D02*
X67279600Y-116534600D01*
X75925600Y-116534600D02*
X72843600Y-116534600D01*
X70361600Y-116494600D02*
X67255600Y-116494600D01*
X75949600Y-116494600D02*
X72843600Y-116494600D01*
X70361600Y-116454600D02*
X67231600Y-116454600D01*
X75973600Y-116454600D02*
X72843600Y-116454600D01*
X70361600Y-116414600D02*
X67207600Y-116414600D01*
X75997600Y-116414600D02*
X72843600Y-116414600D01*
X70361600Y-116374600D02*
X67185600Y-116374600D01*
X76019600Y-116374600D02*
X72843600Y-116374600D01*
X70361600Y-116334600D02*
X67162600Y-116334600D01*
X76042600Y-116334600D02*
X72843600Y-116334600D01*
X70361600Y-116294600D02*
X67140600Y-116294600D01*
X76064600Y-116294600D02*
X72843600Y-116294600D01*
X70361600Y-116254600D02*
X67119600Y-116254600D01*
X76085600Y-116254600D02*
X72843600Y-116254600D01*
X70361600Y-116214600D02*
X67098600Y-116214600D01*
X76106600Y-116214600D02*
X72843600Y-116214600D01*
X70361600Y-116174600D02*
X67077600Y-116174600D01*
X76127600Y-116174600D02*
X72843600Y-116174600D01*
X70361600Y-116134600D02*
X67057600Y-116134600D01*
X76147600Y-116134600D02*
X72843600Y-116134600D01*
X70361600Y-116094600D02*
X67038600Y-116094600D01*
X76166600Y-116094600D02*
X72843600Y-116094600D01*
X70361600Y-116054600D02*
X67018600Y-116054600D01*
X76186600Y-116054600D02*
X72843600Y-116054600D01*
X70361600Y-116014600D02*
X66999600Y-116014600D01*
X76205600Y-116014600D02*
X72843600Y-116014600D01*
X70361600Y-115974600D02*
X66981600Y-115974600D01*
X76223600Y-115974600D02*
X72843600Y-115974600D01*
X70361600Y-115934600D02*
X66963600Y-115934600D01*
X76241600Y-115934600D02*
X72843600Y-115934600D01*
X70361600Y-115894600D02*
X66945600Y-115894600D01*
X76259600Y-115894600D02*
X72843600Y-115894600D01*
X70361600Y-115854600D02*
X66928600Y-115854600D01*
X76276600Y-115854600D02*
X72843600Y-115854600D01*
X70361600Y-115814600D02*
X66912600Y-115814600D01*
X76292600Y-115814600D02*
X72843600Y-115814600D01*
X70361600Y-115774600D02*
X66895600Y-115774600D01*
X76309600Y-115774600D02*
X72843600Y-115774600D01*
X70361600Y-115734600D02*
X66879600Y-115734600D01*
X76325600Y-115734600D02*
X72843600Y-115734600D01*
X70361600Y-115694600D02*
X66864600Y-115694600D01*
X76340600Y-115694600D02*
X72843600Y-115694600D01*
X70361600Y-115654600D02*
X66848600Y-115654600D01*
X76356600Y-115654600D02*
X72843600Y-115654600D01*
X70361600Y-115614600D02*
X66834600Y-115614600D01*
X76370600Y-115614600D02*
X72843600Y-115614600D01*
X70361600Y-115574600D02*
X66819600Y-115574600D01*
X76385600Y-115574600D02*
X72843600Y-115574600D01*
X70361600Y-115534600D02*
X66805600Y-115534600D01*
X76399600Y-115534600D02*
X72843600Y-115534600D01*
X70361600Y-115494600D02*
X66791600Y-115494600D01*
X76413600Y-115494600D02*
X72843600Y-115494600D01*
X70361600Y-115454600D02*
X66778600Y-115454600D01*
X76426600Y-115454600D02*
X72843600Y-115454600D01*
X70361600Y-115414600D02*
X66765600Y-115414600D01*
X76439600Y-115414600D02*
X72843600Y-115414600D01*
X70361600Y-115374600D02*
X66752600Y-115374600D01*
X76452600Y-115374600D02*
X72843600Y-115374600D01*
X70361600Y-115334600D02*
X66740600Y-115334600D01*
X76464600Y-115334600D02*
X72843600Y-115334600D01*
X70361600Y-115294600D02*
X66728600Y-115294600D01*
X76476600Y-115294600D02*
X72843600Y-115294600D01*
X70361600Y-115254600D02*
X66717600Y-115254600D01*
X76487600Y-115254600D02*
X72843600Y-115254600D01*
X70361600Y-115214600D02*
X66705600Y-115214600D01*
X76499600Y-115214600D02*
X72843600Y-115214600D01*
X70361600Y-115174600D02*
X66695600Y-115174600D01*
X76509600Y-115174600D02*
X72843600Y-115174600D01*
X70361600Y-115134600D02*
X66684600Y-115134600D01*
X76520600Y-115134600D02*
X72843600Y-115134600D01*
X76530600Y-115094600D02*
X66674600Y-115094600D01*
X76540600Y-115054600D02*
X66664600Y-115054600D01*
X76549600Y-115014600D02*
X66655600Y-115014600D01*
X76558600Y-114974600D02*
X66646600Y-114974600D01*
X76567600Y-114934600D02*
X66637600Y-114934600D01*
X76576600Y-114894600D02*
X66628600Y-114894600D01*
X76584600Y-114854600D02*
X66620600Y-114854600D01*
X76592600Y-114814600D02*
X66612600Y-114814600D01*
X76599600Y-114774600D02*
X66605600Y-114774600D01*
X76606600Y-114734600D02*
X66598600Y-114734600D01*
X76613600Y-114694600D02*
X66591600Y-114694600D01*
X76620600Y-114654600D02*
X66584600Y-114654600D01*
X76626600Y-114614600D02*
X66578600Y-114614600D01*
X76632600Y-114574600D02*
X66572600Y-114574600D01*
X76637600Y-114533600D02*
X66567600Y-114533600D01*
X76642600Y-114493600D02*
X66562600Y-114493600D01*
X76647600Y-114453600D02*
X66557600Y-114453600D01*
X76652600Y-114413600D02*
X66552600Y-114413600D01*
X76656600Y-114373600D02*
X66548600Y-114373600D01*
X76660600Y-114333600D02*
X66544600Y-114333600D01*
X76664600Y-114293600D02*
X66540600Y-114293600D01*
X76667600Y-114253600D02*
X66537600Y-114253600D01*
X76670600Y-114213600D02*
X66534600Y-114213600D01*
X76672600Y-114173600D02*
X66532600Y-114173600D01*
X76675600Y-114133600D02*
X66529600Y-114133600D01*
X76677600Y-114093600D02*
X66527600Y-114093600D01*
X76679600Y-114053600D02*
X66525600Y-114053600D01*
X76680600Y-114013600D02*
X66524600Y-114013600D01*
X76681600Y-113973600D02*
X66523600Y-113973600D01*
X76682600Y-113933600D02*
X66522600Y-113933600D01*
X76682600Y-113893600D02*
X66522600Y-113893600D01*
X76682600Y-113853600D02*
X66522600Y-113853600D01*
X76722600Y-113853600D02*
G75*
G03X76722600Y-113853600I-5120000J0D01*
G01*
D10*
X77295180Y-99531466D02*
X76818990Y-99864800D01*
X77295180Y-100102895D02*
X76295180Y-100102895D01*
X76295180Y-99721942D01*
X76342800Y-99626704D01*
X76390419Y-99579085D01*
X76485657Y-99531466D01*
X76628514Y-99531466D01*
X76723752Y-99579085D01*
X76771371Y-99626704D01*
X76818990Y-99721942D01*
X76818990Y-100102895D01*
X76295180Y-99198133D02*
X76295180Y-98579085D01*
X76676133Y-98912419D01*
X76676133Y-98769561D01*
X76723752Y-98674323D01*
X76771371Y-98626704D01*
X76866609Y-98579085D01*
X77104704Y-98579085D01*
X77199942Y-98626704D01*
X77247561Y-98674323D01*
X77295180Y-98769561D01*
X77295180Y-99055276D01*
X77247561Y-99150514D01*
X77199942Y-99198133D01*
X71658219Y-106703380D02*
X71610600Y-106655761D01*
X71562980Y-106560523D01*
X71562980Y-106322428D01*
X71610600Y-106227190D01*
X71658219Y-106179571D01*
X71753457Y-106131952D01*
X71848695Y-106131952D01*
X71991552Y-106179571D01*
X72562980Y-106751000D01*
X72562980Y-106131952D01*
X72467742Y-105703380D02*
X72515361Y-105655761D01*
X72562980Y-105703380D01*
X72515361Y-105751000D01*
X72467742Y-105703380D01*
X72562980Y-105703380D01*
X71658219Y-105274809D02*
X71610600Y-105227190D01*
X71562980Y-105131952D01*
X71562980Y-104893857D01*
X71610600Y-104798619D01*
X71658219Y-104751000D01*
X71753457Y-104703380D01*
X71848695Y-104703380D01*
X71991552Y-104751000D01*
X72562980Y-105322428D01*
X72562980Y-104703380D01*
X72562980Y-104274809D02*
X71562980Y-104274809D01*
X72562980Y-103703380D02*
X71991552Y-104131952D01*
X71562980Y-103703380D02*
X72134409Y-104274809D01*
X72562980Y-102370047D02*
X72515361Y-102465285D01*
X72467742Y-102512904D01*
X72372504Y-102560523D01*
X72086790Y-102560523D01*
X71991552Y-102512904D01*
X71943933Y-102465285D01*
X71896314Y-102370047D01*
X71896314Y-102227190D01*
X71943933Y-102131952D01*
X71991552Y-102084333D01*
X72086790Y-102036714D01*
X72372504Y-102036714D01*
X72467742Y-102084333D01*
X72515361Y-102131952D01*
X72562980Y-102227190D01*
X72562980Y-102370047D01*
X72562980Y-101608142D02*
X71562980Y-101608142D01*
X72562980Y-101179571D02*
X72039171Y-101179571D01*
X71943933Y-101227190D01*
X71896314Y-101322428D01*
X71896314Y-101465285D01*
X71943933Y-101560523D01*
X71991552Y-101608142D01*
X72562980Y-100703380D02*
X71896314Y-100703380D01*
X71991552Y-100703380D02*
X71943933Y-100655761D01*
X71896314Y-100560523D01*
X71896314Y-100417666D01*
X71943933Y-100322428D01*
X72039171Y-100274809D01*
X72562980Y-100274809D01*
X72039171Y-100274809D02*
X71943933Y-100227190D01*
X71896314Y-100131952D01*
X71896314Y-99989095D01*
X71943933Y-99893857D01*
X72039171Y-99846238D01*
X72562980Y-99846238D01*
X73358895Y-87564780D02*
X73358895Y-88374304D01*
X73406514Y-88469542D01*
X73454133Y-88517161D01*
X73549371Y-88564780D01*
X73739847Y-88564780D01*
X73835085Y-88517161D01*
X73882704Y-88469542D01*
X73930323Y-88374304D01*
X73930323Y-87564780D01*
X74930323Y-88564780D02*
X74358895Y-88564780D01*
X74644609Y-88564780D02*
X74644609Y-87564780D01*
X74549371Y-87707638D01*
X74454133Y-87802876D01*
X74358895Y-87850495D01*
X51403333Y-89936580D02*
X51070000Y-89460390D01*
X50831904Y-89936580D02*
X50831904Y-88936580D01*
X51212857Y-88936580D01*
X51308095Y-88984200D01*
X51355714Y-89031819D01*
X51403333Y-89127057D01*
X51403333Y-89269914D01*
X51355714Y-89365152D01*
X51308095Y-89412771D01*
X51212857Y-89460390D01*
X50831904Y-89460390D01*
X52355714Y-88984200D02*
X52260476Y-88936580D01*
X52117619Y-88936580D01*
X51974761Y-88984200D01*
X51879523Y-89079438D01*
X51831904Y-89174676D01*
X51784285Y-89365152D01*
X51784285Y-89508009D01*
X51831904Y-89698485D01*
X51879523Y-89793723D01*
X51974761Y-89888961D01*
X52117619Y-89936580D01*
X52212857Y-89936580D01*
X52355714Y-89888961D01*
X52403333Y-89841342D01*
X52403333Y-89508009D01*
X52212857Y-89508009D01*
X53355714Y-89936580D02*
X52784285Y-89936580D01*
X53070000Y-89936580D02*
X53070000Y-88936580D01*
X52974761Y-89079438D01*
X52879523Y-89174676D01*
X52784285Y-89222295D01*
X50368914Y-102026980D02*
X50368914Y-101360314D01*
X50368914Y-101455552D02*
X50416533Y-101407933D01*
X50511771Y-101360314D01*
X50654628Y-101360314D01*
X50749866Y-101407933D01*
X50797485Y-101503171D01*
X50797485Y-102026980D01*
X50797485Y-101503171D02*
X50845104Y-101407933D01*
X50940342Y-101360314D01*
X51083200Y-101360314D01*
X51178438Y-101407933D01*
X51226057Y-101503171D01*
X51226057Y-102026980D01*
X51702247Y-101503171D02*
X52035580Y-101503171D01*
X52178438Y-102026980D02*
X51702247Y-102026980D01*
X51702247Y-101026980D01*
X52178438Y-101026980D01*
X52511771Y-101026980D02*
X53178438Y-101026980D01*
X52511771Y-102026980D01*
X53178438Y-102026980D01*
X53559390Y-102026980D02*
X53559390Y-101026980D01*
X53797485Y-101026980D01*
X53940342Y-101074600D01*
X54035580Y-101169838D01*
X54083200Y-101265076D01*
X54130819Y-101455552D01*
X54130819Y-101598409D01*
X54083200Y-101788885D01*
X54035580Y-101884123D01*
X53940342Y-101979361D01*
X53797485Y-102026980D01*
X53559390Y-102026980D01*
X54464152Y-101026980D02*
X55130819Y-101026980D01*
X54702247Y-102026980D01*
X56035580Y-102026980D02*
X55464152Y-102026980D01*
X55749866Y-102026980D02*
X55749866Y-101026980D01*
X55654628Y-101169838D01*
X55559390Y-101265076D01*
X55464152Y-101312695D01*
X56416533Y-101122219D02*
X56464152Y-101074600D01*
X56559390Y-101026980D01*
X56797485Y-101026980D01*
X56892723Y-101074600D01*
X56940342Y-101122219D01*
X56987961Y-101217457D01*
X56987961Y-101312695D01*
X56940342Y-101455552D01*
X56368914Y-102026980D01*
X56987961Y-102026980D01*
X57607009Y-101026980D02*
X57702247Y-101026980D01*
X57797485Y-101074600D01*
X57845104Y-101122219D01*
X57892723Y-101217457D01*
X57940342Y-101407933D01*
X57940342Y-101646028D01*
X57892723Y-101836504D01*
X57845104Y-101931742D01*
X57797485Y-101979361D01*
X57702247Y-102026980D01*
X57607009Y-102026980D01*
X57511771Y-101979361D01*
X57464152Y-101931742D01*
X57416533Y-101836504D01*
X57368914Y-101646028D01*
X57368914Y-101407933D01*
X57416533Y-101217457D01*
X57464152Y-101122219D01*
X57511771Y-101074600D01*
X57607009Y-101026980D01*
X58321295Y-101122219D02*
X58368914Y-101074600D01*
X58464152Y-101026980D01*
X58702247Y-101026980D01*
X58797485Y-101074600D01*
X58845104Y-101122219D01*
X58892723Y-101217457D01*
X58892723Y-101312695D01*
X58845104Y-101455552D01*
X58273676Y-102026980D01*
X58892723Y-102026980D01*
X59273676Y-101741266D02*
X59749866Y-101741266D01*
X59178438Y-102026980D02*
X59511771Y-101026980D01*
X59845104Y-102026980D01*
X60178438Y-101646028D02*
X60940342Y-101646028D01*
X61749866Y-101503171D02*
X61416533Y-101503171D01*
X61416533Y-102026980D02*
X61416533Y-101026980D01*
X61892723Y-101026980D01*
X55522190Y-97496380D02*
X55855523Y-98496380D01*
X56188857Y-97496380D01*
X56522190Y-98496380D02*
X56522190Y-97829714D01*
X56522190Y-97496380D02*
X56474571Y-97544000D01*
X56522190Y-97591619D01*
X56569809Y-97544000D01*
X56522190Y-97496380D01*
X56522190Y-97591619D01*
X56998380Y-97829714D02*
X56998380Y-98496380D01*
X56998380Y-97924952D02*
X57046000Y-97877333D01*
X57141238Y-97829714D01*
X57284095Y-97829714D01*
X57379333Y-97877333D01*
X57426952Y-97972571D01*
X57426952Y-98496380D01*
X55379333Y-94978600D02*
X55284095Y-94930980D01*
X55141238Y-94930980D01*
X54998380Y-94978600D01*
X54903142Y-95073838D01*
X54855523Y-95169076D01*
X54807904Y-95359552D01*
X54807904Y-95502409D01*
X54855523Y-95692885D01*
X54903142Y-95788123D01*
X54998380Y-95883361D01*
X55141238Y-95930980D01*
X55236476Y-95930980D01*
X55379333Y-95883361D01*
X55426952Y-95835742D01*
X55426952Y-95502409D01*
X55236476Y-95502409D01*
X55855523Y-95930980D02*
X55855523Y-94930980D01*
X56426952Y-95930980D01*
X56426952Y-94930980D01*
X56903142Y-95930980D02*
X56903142Y-94930980D01*
X57141238Y-94930980D01*
X57284095Y-94978600D01*
X57379333Y-95073838D01*
X57426952Y-95169076D01*
X57474571Y-95359552D01*
X57474571Y-95502409D01*
X57426952Y-95692885D01*
X57379333Y-95788123D01*
X57284095Y-95883361D01*
X57141238Y-95930980D01*
X56903142Y-95930980D01*
X54522190Y-92416380D02*
X54855523Y-93416380D01*
X55188857Y-92416380D01*
X55665047Y-93416380D02*
X55569809Y-93368761D01*
X55522190Y-93321142D01*
X55474571Y-93225904D01*
X55474571Y-92940190D01*
X55522190Y-92844952D01*
X55569809Y-92797333D01*
X55665047Y-92749714D01*
X55807904Y-92749714D01*
X55903142Y-92797333D01*
X55950761Y-92844952D01*
X55998380Y-92940190D01*
X55998380Y-93225904D01*
X55950761Y-93321142D01*
X55903142Y-93368761D01*
X55807904Y-93416380D01*
X55665047Y-93416380D01*
X56855523Y-92749714D02*
X56855523Y-93416380D01*
X56426952Y-92749714D02*
X56426952Y-93273523D01*
X56474571Y-93368761D01*
X56569809Y-93416380D01*
X56712666Y-93416380D01*
X56807904Y-93368761D01*
X56855523Y-93321142D01*
X57188857Y-92749714D02*
X57569809Y-92749714D01*
X57331714Y-92416380D02*
X57331714Y-93273523D01*
X57379333Y-93368761D01*
X57474571Y-93416380D01*
X57569809Y-93416380D01*
X70278666Y-89349780D02*
X70278666Y-90064066D01*
X70231047Y-90206923D01*
X70135809Y-90302161D01*
X69992952Y-90349780D01*
X69897714Y-90349780D01*
X71278666Y-90349780D02*
X70707238Y-90349780D01*
X70992952Y-90349780D02*
X70992952Y-89349780D01*
X70897714Y-89492638D01*
X70802476Y-89587876D01*
X70707238Y-89635495D01*
X68897714Y-97064580D02*
X69135809Y-98064580D01*
X69326285Y-97350295D01*
X69516761Y-98064580D01*
X69754857Y-97064580D01*
X70564380Y-98064580D02*
X70564380Y-97540771D01*
X70516761Y-97445533D01*
X70421523Y-97397914D01*
X70231047Y-97397914D01*
X70135809Y-97445533D01*
X70564380Y-98016961D02*
X70469142Y-98064580D01*
X70231047Y-98064580D01*
X70135809Y-98016961D01*
X70088190Y-97921723D01*
X70088190Y-97826485D01*
X70135809Y-97731247D01*
X70231047Y-97683628D01*
X70469142Y-97683628D01*
X70564380Y-97636009D01*
X71040571Y-98064580D02*
X71040571Y-97064580D01*
X71135809Y-97683628D02*
X71421523Y-98064580D01*
X71421523Y-97397914D02*
X71040571Y-97778866D01*
X72231047Y-98016961D02*
X72135809Y-98064580D01*
X71945333Y-98064580D01*
X71850095Y-98016961D01*
X71802476Y-97921723D01*
X71802476Y-97540771D01*
X71850095Y-97445533D01*
X71945333Y-97397914D01*
X72135809Y-97397914D01*
X72231047Y-97445533D01*
X72278666Y-97540771D01*
X72278666Y-97636009D01*
X71802476Y-97731247D01*
D14*
X58612011Y-125723347D02*
X58612011Y-124516847D01*
X58899273Y-124516847D01*
X59071630Y-124574300D01*
X59186535Y-124689204D01*
X59243988Y-124804109D01*
X59301440Y-125033919D01*
X59301440Y-125206276D01*
X59243988Y-125436085D01*
X59186535Y-125550990D01*
X59071630Y-125665895D01*
X58899273Y-125723347D01*
X58612011Y-125723347D01*
X60450488Y-125723347D02*
X59761059Y-125723347D01*
X60105773Y-125723347D02*
X60105773Y-124516847D01*
X59990869Y-124689204D01*
X59875964Y-124804109D01*
X59761059Y-124861561D01*
X67041788Y-121887947D02*
X66352359Y-121887947D01*
X66697073Y-121887947D02*
X66697073Y-120681447D01*
X66582169Y-120853804D01*
X66467264Y-120968709D01*
X66352359Y-121026161D01*
X67558859Y-121887947D02*
X67558859Y-120681447D01*
X68248288Y-121887947D01*
X68248288Y-120681447D01*
X69397335Y-120681447D02*
X68822811Y-120681447D01*
X68765359Y-121255971D01*
X68822811Y-121198519D01*
X68937716Y-121141066D01*
X69224978Y-121141066D01*
X69339883Y-121198519D01*
X69397335Y-121255971D01*
X69454788Y-121370876D01*
X69454788Y-121658138D01*
X69397335Y-121773042D01*
X69339883Y-121830495D01*
X69224978Y-121887947D01*
X68937716Y-121887947D01*
X68822811Y-121830495D01*
X68765359Y-121773042D01*
X70488930Y-121083614D02*
X70488930Y-121887947D01*
X70201669Y-120623995D02*
X69914407Y-121485780D01*
X70661288Y-121485780D01*
X71350716Y-120681447D02*
X71465621Y-120681447D01*
X71580526Y-120738900D01*
X71637978Y-120796352D01*
X71695430Y-120911257D01*
X71752883Y-121141066D01*
X71752883Y-121428328D01*
X71695430Y-121658138D01*
X71637978Y-121773042D01*
X71580526Y-121830495D01*
X71465621Y-121887947D01*
X71350716Y-121887947D01*
X71235811Y-121830495D01*
X71178359Y-121773042D01*
X71120907Y-121658138D01*
X71063454Y-121428328D01*
X71063454Y-121141066D01*
X71120907Y-120911257D01*
X71178359Y-120796352D01*
X71235811Y-120738900D01*
X71350716Y-120681447D01*
X72499764Y-120681447D02*
X72614669Y-120681447D01*
X72729573Y-120738900D01*
X72787026Y-120796352D01*
X72844478Y-120911257D01*
X72901930Y-121141066D01*
X72901930Y-121428328D01*
X72844478Y-121658138D01*
X72787026Y-121773042D01*
X72729573Y-121830495D01*
X72614669Y-121887947D01*
X72499764Y-121887947D01*
X72384859Y-121830495D01*
X72327407Y-121773042D01*
X72269954Y-121658138D01*
X72212502Y-121428328D01*
X72212502Y-121141066D01*
X72269954Y-120911257D01*
X72327407Y-120796352D01*
X72384859Y-120738900D01*
X72499764Y-120681447D01*
D10*
X78736866Y-124267980D02*
X78736866Y-124982266D01*
X78689247Y-125125123D01*
X78594009Y-125220361D01*
X78451152Y-125267980D01*
X78355914Y-125267980D01*
X79689247Y-124267980D02*
X79213057Y-124267980D01*
X79165438Y-124744171D01*
X79213057Y-124696552D01*
X79308295Y-124648933D01*
X79546390Y-124648933D01*
X79641628Y-124696552D01*
X79689247Y-124744171D01*
X79736866Y-124839409D01*
X79736866Y-125077504D01*
X79689247Y-125172742D01*
X79641628Y-125220361D01*
X79546390Y-125267980D01*
X79308295Y-125267980D01*
X79213057Y-125220361D01*
X79165438Y-125172742D01*
X87066904Y-114761971D02*
X87209761Y-114809590D01*
X87257380Y-114857209D01*
X87305000Y-114952447D01*
X87305000Y-115095304D01*
X87257380Y-115190542D01*
X87209761Y-115238161D01*
X87114523Y-115285780D01*
X86733571Y-115285780D01*
X86733571Y-114285780D01*
X87066904Y-114285780D01*
X87162142Y-114333400D01*
X87209761Y-114381019D01*
X87257380Y-114476257D01*
X87257380Y-114571495D01*
X87209761Y-114666733D01*
X87162142Y-114714352D01*
X87066904Y-114761971D01*
X86733571Y-114761971D01*
X88162142Y-115285780D02*
X88162142Y-114761971D01*
X88114523Y-114666733D01*
X88019285Y-114619114D01*
X87828809Y-114619114D01*
X87733571Y-114666733D01*
X88162142Y-115238161D02*
X88066904Y-115285780D01*
X87828809Y-115285780D01*
X87733571Y-115238161D01*
X87685952Y-115142923D01*
X87685952Y-115047685D01*
X87733571Y-114952447D01*
X87828809Y-114904828D01*
X88066904Y-114904828D01*
X88162142Y-114857209D01*
X88638333Y-115285780D02*
X88638333Y-114619114D01*
X88638333Y-114809590D02*
X88685952Y-114714352D01*
X88733571Y-114666733D01*
X88828809Y-114619114D01*
X88924047Y-114619114D01*
X89257380Y-115285780D02*
X89257380Y-114619114D01*
X89257380Y-114809590D02*
X89305000Y-114714352D01*
X89352619Y-114666733D01*
X89447857Y-114619114D01*
X89543095Y-114619114D01*
X90257380Y-115238161D02*
X90162142Y-115285780D01*
X89971666Y-115285780D01*
X89876428Y-115238161D01*
X89828809Y-115142923D01*
X89828809Y-114761971D01*
X89876428Y-114666733D01*
X89971666Y-114619114D01*
X90162142Y-114619114D01*
X90257380Y-114666733D01*
X90305000Y-114761971D01*
X90305000Y-114857209D01*
X89828809Y-114952447D01*
X90876428Y-115285780D02*
X90781190Y-115238161D01*
X90733571Y-115142923D01*
X90733571Y-114285780D01*
X92305000Y-114285780D02*
X92305000Y-115000066D01*
X92257380Y-115142923D01*
X92162142Y-115238161D01*
X92019285Y-115285780D01*
X91924047Y-115285780D01*
X93209761Y-115285780D02*
X93209761Y-114761971D01*
X93162142Y-114666733D01*
X93066904Y-114619114D01*
X92876428Y-114619114D01*
X92781190Y-114666733D01*
X93209761Y-115238161D02*
X93114523Y-115285780D01*
X92876428Y-115285780D01*
X92781190Y-115238161D01*
X92733571Y-115142923D01*
X92733571Y-115047685D01*
X92781190Y-114952447D01*
X92876428Y-114904828D01*
X93114523Y-114904828D01*
X93209761Y-114857209D01*
X94114523Y-115238161D02*
X94019285Y-115285780D01*
X93828809Y-115285780D01*
X93733571Y-115238161D01*
X93685952Y-115190542D01*
X93638333Y-115095304D01*
X93638333Y-114809590D01*
X93685952Y-114714352D01*
X93733571Y-114666733D01*
X93828809Y-114619114D01*
X94019285Y-114619114D01*
X94114523Y-114666733D01*
X94543095Y-115285780D02*
X94543095Y-114285780D01*
X94638333Y-114904828D02*
X94924047Y-115285780D01*
X94924047Y-114619114D02*
X94543095Y-115000066D01*
X77150980Y-112575933D02*
X77865266Y-112575933D01*
X78008123Y-112623552D01*
X78103361Y-112718790D01*
X78150980Y-112861647D01*
X78150980Y-112956885D01*
X77579552Y-111956885D02*
X77531933Y-112052123D01*
X77484314Y-112099742D01*
X77389076Y-112147361D01*
X77341457Y-112147361D01*
X77246219Y-112099742D01*
X77198600Y-112052123D01*
X77150980Y-111956885D01*
X77150980Y-111766409D01*
X77198600Y-111671171D01*
X77246219Y-111623552D01*
X77341457Y-111575933D01*
X77389076Y-111575933D01*
X77484314Y-111623552D01*
X77531933Y-111671171D01*
X77579552Y-111766409D01*
X77579552Y-111956885D01*
X77627171Y-112052123D01*
X77674790Y-112099742D01*
X77770028Y-112147361D01*
X77960504Y-112147361D01*
X78055742Y-112099742D01*
X78103361Y-112052123D01*
X78150980Y-111956885D01*
X78150980Y-111766409D01*
X78103361Y-111671171D01*
X78055742Y-111623552D01*
X77960504Y-111575933D01*
X77770028Y-111575933D01*
X77674790Y-111623552D01*
X77627171Y-111671171D01*
X77579552Y-111766409D01*
X78100180Y-110245066D02*
X77100180Y-110245066D01*
X77100180Y-109864114D01*
X77147800Y-109768876D01*
X77195419Y-109721257D01*
X77290657Y-109673638D01*
X77433514Y-109673638D01*
X77528752Y-109721257D01*
X77576371Y-109768876D01*
X77623990Y-109864114D01*
X77623990Y-110245066D01*
X78100180Y-109102209D02*
X78052561Y-109197447D01*
X78004942Y-109245066D01*
X77909704Y-109292685D01*
X77623990Y-109292685D01*
X77528752Y-109245066D01*
X77481133Y-109197447D01*
X77433514Y-109102209D01*
X77433514Y-108959352D01*
X77481133Y-108864114D01*
X77528752Y-108816495D01*
X77623990Y-108768876D01*
X77909704Y-108768876D01*
X78004942Y-108816495D01*
X78052561Y-108864114D01*
X78100180Y-108959352D01*
X78100180Y-109102209D01*
X77433514Y-108435542D02*
X78100180Y-108245066D01*
X77623990Y-108054590D01*
X78100180Y-107864114D01*
X77433514Y-107673638D01*
X78052561Y-106911733D02*
X78100180Y-107006971D01*
X78100180Y-107197447D01*
X78052561Y-107292685D01*
X77957323Y-107340304D01*
X77576371Y-107340304D01*
X77481133Y-107292685D01*
X77433514Y-107197447D01*
X77433514Y-107006971D01*
X77481133Y-106911733D01*
X77576371Y-106864114D01*
X77671609Y-106864114D01*
X77766847Y-107340304D01*
X78100180Y-106435542D02*
X77433514Y-106435542D01*
X77623990Y-106435542D02*
X77528752Y-106387923D01*
X77481133Y-106340304D01*
X77433514Y-106245066D01*
X77433514Y-106149828D01*
X77052561Y-105102209D02*
X78338276Y-105959352D01*
X78052561Y-104816495D02*
X78100180Y-104673638D01*
X78100180Y-104435542D01*
X78052561Y-104340304D01*
X78004942Y-104292685D01*
X77909704Y-104245066D01*
X77814466Y-104245066D01*
X77719228Y-104292685D01*
X77671609Y-104340304D01*
X77623990Y-104435542D01*
X77576371Y-104626019D01*
X77528752Y-104721257D01*
X77481133Y-104768876D01*
X77385895Y-104816495D01*
X77290657Y-104816495D01*
X77195419Y-104768876D01*
X77147800Y-104721257D01*
X77100180Y-104626019D01*
X77100180Y-104387923D01*
X77147800Y-104245066D01*
X78100180Y-103816495D02*
X77433514Y-103816495D01*
X77100180Y-103816495D02*
X77147800Y-103864114D01*
X77195419Y-103816495D01*
X77147800Y-103768876D01*
X77100180Y-103816495D01*
X77195419Y-103816495D01*
X77433514Y-102911733D02*
X78243038Y-102911733D01*
X78338276Y-102959352D01*
X78385895Y-103006971D01*
X78433514Y-103102209D01*
X78433514Y-103245066D01*
X78385895Y-103340304D01*
X78052561Y-102911733D02*
X78100180Y-103006971D01*
X78100180Y-103197447D01*
X78052561Y-103292685D01*
X78004942Y-103340304D01*
X77909704Y-103387923D01*
X77623990Y-103387923D01*
X77528752Y-103340304D01*
X77481133Y-103292685D01*
X77433514Y-103197447D01*
X77433514Y-103006971D01*
X77481133Y-102911733D01*
X77150980Y-95176933D02*
X77865266Y-95176933D01*
X78008123Y-95224552D01*
X78103361Y-95319790D01*
X78150980Y-95462647D01*
X78150980Y-95557885D01*
X77150980Y-94795980D02*
X77150980Y-94129314D01*
X78150980Y-94557885D01*
X78150980Y-92501790D02*
X77150980Y-92501790D01*
X77150980Y-92120838D01*
X77198600Y-92025600D01*
X77246219Y-91977980D01*
X77341457Y-91930361D01*
X77484314Y-91930361D01*
X77579552Y-91977980D01*
X77627171Y-92025600D01*
X77674790Y-92120838D01*
X77674790Y-92501790D01*
X78150980Y-91358933D02*
X78103361Y-91454171D01*
X78055742Y-91501790D01*
X77960504Y-91549409D01*
X77674790Y-91549409D01*
X77579552Y-91501790D01*
X77531933Y-91454171D01*
X77484314Y-91358933D01*
X77484314Y-91216076D01*
X77531933Y-91120838D01*
X77579552Y-91073219D01*
X77674790Y-91025600D01*
X77960504Y-91025600D01*
X78055742Y-91073219D01*
X78103361Y-91120838D01*
X78150980Y-91216076D01*
X78150980Y-91358933D01*
X77484314Y-90692266D02*
X78150980Y-90501790D01*
X77674790Y-90311314D01*
X78150980Y-90120838D01*
X77484314Y-89930361D01*
X78103361Y-89168457D02*
X78150980Y-89263695D01*
X78150980Y-89454171D01*
X78103361Y-89549409D01*
X78008123Y-89597028D01*
X77627171Y-89597028D01*
X77531933Y-89549409D01*
X77484314Y-89454171D01*
X77484314Y-89263695D01*
X77531933Y-89168457D01*
X77627171Y-89120838D01*
X77722409Y-89120838D01*
X77817647Y-89597028D01*
X78150980Y-88692266D02*
X77484314Y-88692266D01*
X77674790Y-88692266D02*
X77579552Y-88644647D01*
X77531933Y-88597028D01*
X77484314Y-88501790D01*
X77484314Y-88406552D01*
X77150980Y-65865333D02*
X77865266Y-65865333D01*
X78008123Y-65912952D01*
X78103361Y-66008190D01*
X78150980Y-66151047D01*
X78150980Y-66246285D01*
X77150980Y-64960571D02*
X77150980Y-65151047D01*
X77198600Y-65246285D01*
X77246219Y-65293904D01*
X77389076Y-65389142D01*
X77579552Y-65436761D01*
X77960504Y-65436761D01*
X78055742Y-65389142D01*
X78103361Y-65341523D01*
X78150980Y-65246285D01*
X78150980Y-65055809D01*
X78103361Y-64960571D01*
X78055742Y-64912952D01*
X77960504Y-64865333D01*
X77722409Y-64865333D01*
X77627171Y-64912952D01*
X77579552Y-64960571D01*
X77531933Y-65055809D01*
X77531933Y-65246285D01*
X77579552Y-65341523D01*
X77627171Y-65389142D01*
X77722409Y-65436761D01*
X78103361Y-62798057D02*
X78150980Y-62655200D01*
X78150980Y-62417104D01*
X78103361Y-62321866D01*
X78055742Y-62274247D01*
X77960504Y-62226628D01*
X77865266Y-62226628D01*
X77770028Y-62274247D01*
X77722409Y-62321866D01*
X77674790Y-62417104D01*
X77627171Y-62607580D01*
X77579552Y-62702819D01*
X77531933Y-62750438D01*
X77436695Y-62798057D01*
X77341457Y-62798057D01*
X77246219Y-62750438D01*
X77198600Y-62702819D01*
X77150980Y-62607580D01*
X77150980Y-62369485D01*
X77198600Y-62226628D01*
X78150980Y-61798057D02*
X77484314Y-61798057D01*
X77150980Y-61798057D02*
X77198600Y-61845676D01*
X77246219Y-61798057D01*
X77198600Y-61750438D01*
X77150980Y-61798057D01*
X77246219Y-61798057D01*
X77484314Y-60893295D02*
X78293838Y-60893295D01*
X78389076Y-60940914D01*
X78436695Y-60988533D01*
X78484314Y-61083771D01*
X78484314Y-61226628D01*
X78436695Y-61321866D01*
X78103361Y-60893295D02*
X78150980Y-60988533D01*
X78150980Y-61179009D01*
X78103361Y-61274247D01*
X78055742Y-61321866D01*
X77960504Y-61369485D01*
X77674790Y-61369485D01*
X77579552Y-61321866D01*
X77531933Y-61274247D01*
X77484314Y-61179009D01*
X77484314Y-60988533D01*
X77531933Y-60893295D01*
X77484314Y-60417104D02*
X78150980Y-60417104D01*
X77579552Y-60417104D02*
X77531933Y-60369485D01*
X77484314Y-60274247D01*
X77484314Y-60131390D01*
X77531933Y-60036152D01*
X77627171Y-59988533D01*
X78150980Y-59988533D01*
X78150980Y-59083771D02*
X77627171Y-59083771D01*
X77531933Y-59131390D01*
X77484314Y-59226628D01*
X77484314Y-59417104D01*
X77531933Y-59512342D01*
X78103361Y-59083771D02*
X78150980Y-59179009D01*
X78150980Y-59417104D01*
X78103361Y-59512342D01*
X78008123Y-59559961D01*
X77912885Y-59559961D01*
X77817647Y-59512342D01*
X77770028Y-59417104D01*
X77770028Y-59179009D01*
X77722409Y-59083771D01*
X78150980Y-58464723D02*
X78103361Y-58559961D01*
X78008123Y-58607580D01*
X77150980Y-58607580D01*
X79995780Y-78133533D02*
X80710066Y-78133533D01*
X80852923Y-78181152D01*
X80948161Y-78276390D01*
X80995780Y-78419247D01*
X80995780Y-78514485D01*
X80329114Y-77228771D02*
X80995780Y-77228771D01*
X79948161Y-77466866D02*
X80662447Y-77704961D01*
X80662447Y-77085914D01*
X80944980Y-75105828D02*
X79944980Y-75105828D01*
X79944980Y-74724876D01*
X79992600Y-74629638D01*
X80040219Y-74582019D01*
X80135457Y-74534400D01*
X80278314Y-74534400D01*
X80373552Y-74582019D01*
X80421171Y-74629638D01*
X80468790Y-74724876D01*
X80468790Y-75105828D01*
X80944980Y-73677257D02*
X80421171Y-73677257D01*
X80325933Y-73724876D01*
X80278314Y-73820114D01*
X80278314Y-74010590D01*
X80325933Y-74105828D01*
X80897361Y-73677257D02*
X80944980Y-73772495D01*
X80944980Y-74010590D01*
X80897361Y-74105828D01*
X80802123Y-74153447D01*
X80706885Y-74153447D01*
X80611647Y-74105828D01*
X80564028Y-74010590D01*
X80564028Y-73772495D01*
X80516409Y-73677257D01*
X80944980Y-73201066D02*
X80278314Y-73201066D01*
X80468790Y-73201066D02*
X80373552Y-73153447D01*
X80325933Y-73105828D01*
X80278314Y-73010590D01*
X80278314Y-72915352D01*
X80944980Y-72153447D02*
X80421171Y-72153447D01*
X80325933Y-72201066D01*
X80278314Y-72296304D01*
X80278314Y-72486780D01*
X80325933Y-72582019D01*
X80897361Y-72153447D02*
X80944980Y-72248685D01*
X80944980Y-72486780D01*
X80897361Y-72582019D01*
X80802123Y-72629638D01*
X80706885Y-72629638D01*
X80611647Y-72582019D01*
X80564028Y-72486780D01*
X80564028Y-72248685D01*
X80516409Y-72153447D01*
X80897361Y-71724876D02*
X80944980Y-71629638D01*
X80944980Y-71439161D01*
X80897361Y-71343923D01*
X80802123Y-71296304D01*
X80754504Y-71296304D01*
X80659266Y-71343923D01*
X80611647Y-71439161D01*
X80611647Y-71582019D01*
X80564028Y-71677257D01*
X80468790Y-71724876D01*
X80421171Y-71724876D01*
X80325933Y-71677257D01*
X80278314Y-71582019D01*
X80278314Y-71439161D01*
X80325933Y-71343923D01*
X80944980Y-70867733D02*
X80278314Y-70867733D01*
X79944980Y-70867733D02*
X79992600Y-70915352D01*
X80040219Y-70867733D01*
X79992600Y-70820114D01*
X79944980Y-70867733D01*
X80040219Y-70867733D01*
X80278314Y-70534400D02*
X80278314Y-70153447D01*
X79944980Y-70391542D02*
X80802123Y-70391542D01*
X80897361Y-70343923D01*
X80944980Y-70248685D01*
X80944980Y-70153447D01*
X80944980Y-69820114D02*
X80278314Y-69820114D01*
X79944980Y-69820114D02*
X79992600Y-69867733D01*
X80040219Y-69820114D01*
X79992600Y-69772495D01*
X79944980Y-69820114D01*
X80040219Y-69820114D01*
X80897361Y-68915352D02*
X80944980Y-69010590D01*
X80944980Y-69201066D01*
X80897361Y-69296304D01*
X80849742Y-69343923D01*
X80754504Y-69391542D01*
X80468790Y-69391542D01*
X80373552Y-69343923D01*
X80325933Y-69296304D01*
X80278314Y-69201066D01*
X80278314Y-69010590D01*
X80325933Y-68915352D01*
X66441580Y-68848266D02*
X65965390Y-69181600D01*
X66441580Y-69419695D02*
X65441580Y-69419695D01*
X65441580Y-69038742D01*
X65489200Y-68943504D01*
X65536819Y-68895885D01*
X65632057Y-68848266D01*
X65774914Y-68848266D01*
X65870152Y-68895885D01*
X65917771Y-68943504D01*
X65965390Y-69038742D01*
X65965390Y-69419695D01*
X65536819Y-68467314D02*
X65489200Y-68419695D01*
X65441580Y-68324457D01*
X65441580Y-68086361D01*
X65489200Y-67991123D01*
X65536819Y-67943504D01*
X65632057Y-67895885D01*
X65727295Y-67895885D01*
X65870152Y-67943504D01*
X66441580Y-68514933D01*
X66441580Y-67895885D01*
X65790819Y-78534780D02*
X65743200Y-78487161D01*
X65695580Y-78391923D01*
X65695580Y-78153828D01*
X65743200Y-78058590D01*
X65790819Y-78010971D01*
X65886057Y-77963352D01*
X65981295Y-77963352D01*
X66124152Y-78010971D01*
X66695580Y-78582400D01*
X66695580Y-77963352D01*
X66600342Y-77534780D02*
X66647961Y-77487161D01*
X66695580Y-77534780D01*
X66647961Y-77582400D01*
X66600342Y-77534780D01*
X66695580Y-77534780D01*
X65790819Y-77106209D02*
X65743200Y-77058590D01*
X65695580Y-76963352D01*
X65695580Y-76725257D01*
X65743200Y-76630019D01*
X65790819Y-76582400D01*
X65886057Y-76534780D01*
X65981295Y-76534780D01*
X66124152Y-76582400D01*
X66695580Y-77153828D01*
X66695580Y-76534780D01*
X66695580Y-76106209D02*
X65695580Y-76106209D01*
X66695580Y-75534780D02*
X66124152Y-75963352D01*
X65695580Y-75534780D02*
X66267009Y-76106209D01*
X66695580Y-74201447D02*
X66647961Y-74296685D01*
X66600342Y-74344304D01*
X66505104Y-74391923D01*
X66219390Y-74391923D01*
X66124152Y-74344304D01*
X66076533Y-74296685D01*
X66028914Y-74201447D01*
X66028914Y-74058590D01*
X66076533Y-73963352D01*
X66124152Y-73915733D01*
X66219390Y-73868114D01*
X66505104Y-73868114D01*
X66600342Y-73915733D01*
X66647961Y-73963352D01*
X66695580Y-74058590D01*
X66695580Y-74201447D01*
X66695580Y-73439542D02*
X65695580Y-73439542D01*
X66695580Y-73010971D02*
X66171771Y-73010971D01*
X66076533Y-73058590D01*
X66028914Y-73153828D01*
X66028914Y-73296685D01*
X66076533Y-73391923D01*
X66124152Y-73439542D01*
X66695580Y-72534780D02*
X66028914Y-72534780D01*
X66124152Y-72534780D02*
X66076533Y-72487161D01*
X66028914Y-72391923D01*
X66028914Y-72249066D01*
X66076533Y-72153828D01*
X66171771Y-72106209D01*
X66695580Y-72106209D01*
X66171771Y-72106209D02*
X66076533Y-72058590D01*
X66028914Y-71963352D01*
X66028914Y-71820495D01*
X66076533Y-71725257D01*
X66171771Y-71677638D01*
X66695580Y-71677638D01*
X59812180Y-68645066D02*
X59335990Y-68978400D01*
X59812180Y-69216495D02*
X58812180Y-69216495D01*
X58812180Y-68835542D01*
X58859800Y-68740304D01*
X58907419Y-68692685D01*
X59002657Y-68645066D01*
X59145514Y-68645066D01*
X59240752Y-68692685D01*
X59288371Y-68740304D01*
X59335990Y-68835542D01*
X59335990Y-69216495D01*
X59812180Y-67692685D02*
X59812180Y-68264114D01*
X59812180Y-67978400D02*
X58812180Y-67978400D01*
X58955038Y-68073638D01*
X59050276Y-68168876D01*
X59097895Y-68264114D01*
X59136019Y-78560180D02*
X59088400Y-78512561D01*
X59040780Y-78417323D01*
X59040780Y-78179228D01*
X59088400Y-78083990D01*
X59136019Y-78036371D01*
X59231257Y-77988752D01*
X59326495Y-77988752D01*
X59469352Y-78036371D01*
X60040780Y-78607800D01*
X60040780Y-77988752D01*
X59945542Y-77560180D02*
X59993161Y-77512561D01*
X60040780Y-77560180D01*
X59993161Y-77607800D01*
X59945542Y-77560180D01*
X60040780Y-77560180D01*
X59136019Y-77131609D02*
X59088400Y-77083990D01*
X59040780Y-76988752D01*
X59040780Y-76750657D01*
X59088400Y-76655419D01*
X59136019Y-76607800D01*
X59231257Y-76560180D01*
X59326495Y-76560180D01*
X59469352Y-76607800D01*
X60040780Y-77179228D01*
X60040780Y-76560180D01*
X60040780Y-76131609D02*
X59040780Y-76131609D01*
X60040780Y-75560180D02*
X59469352Y-75988752D01*
X59040780Y-75560180D02*
X59612209Y-76131609D01*
X60040780Y-74226847D02*
X59993161Y-74322085D01*
X59945542Y-74369704D01*
X59850304Y-74417323D01*
X59564590Y-74417323D01*
X59469352Y-74369704D01*
X59421733Y-74322085D01*
X59374114Y-74226847D01*
X59374114Y-74083990D01*
X59421733Y-73988752D01*
X59469352Y-73941133D01*
X59564590Y-73893514D01*
X59850304Y-73893514D01*
X59945542Y-73941133D01*
X59993161Y-73988752D01*
X60040780Y-74083990D01*
X60040780Y-74226847D01*
X60040780Y-73464942D02*
X59040780Y-73464942D01*
X60040780Y-73036371D02*
X59516971Y-73036371D01*
X59421733Y-73083990D01*
X59374114Y-73179228D01*
X59374114Y-73322085D01*
X59421733Y-73417323D01*
X59469352Y-73464942D01*
X60040780Y-72560180D02*
X59374114Y-72560180D01*
X59469352Y-72560180D02*
X59421733Y-72512561D01*
X59374114Y-72417323D01*
X59374114Y-72274466D01*
X59421733Y-72179228D01*
X59516971Y-72131609D01*
X60040780Y-72131609D01*
X59516971Y-72131609D02*
X59421733Y-72083990D01*
X59374114Y-71988752D01*
X59374114Y-71845895D01*
X59421733Y-71750657D01*
X59516971Y-71703038D01*
X60040780Y-71703038D01*
X61301333Y-107570542D02*
X61253714Y-107618161D01*
X61110857Y-107665780D01*
X61015619Y-107665780D01*
X60872761Y-107618161D01*
X60777523Y-107522923D01*
X60729904Y-107427685D01*
X60682285Y-107237209D01*
X60682285Y-107094352D01*
X60729904Y-106903876D01*
X60777523Y-106808638D01*
X60872761Y-106713400D01*
X61015619Y-106665780D01*
X61110857Y-106665780D01*
X61253714Y-106713400D01*
X61301333Y-106761019D01*
X62206095Y-106665780D02*
X61729904Y-106665780D01*
X61682285Y-107141971D01*
X61729904Y-107094352D01*
X61825142Y-107046733D01*
X62063238Y-107046733D01*
X62158476Y-107094352D01*
X62206095Y-107141971D01*
X62253714Y-107237209D01*
X62253714Y-107475304D01*
X62206095Y-107570542D01*
X62158476Y-107618161D01*
X62063238Y-107665780D01*
X61825142Y-107665780D01*
X61729904Y-107618161D01*
X61682285Y-107570542D01*
X61374590Y-109037380D02*
X60803161Y-109037380D01*
X61088876Y-109037380D02*
X61088876Y-108037380D01*
X60993638Y-108180238D01*
X60898400Y-108275476D01*
X60803161Y-108323095D01*
X61993638Y-108037380D02*
X62088876Y-108037380D01*
X62184114Y-108085000D01*
X62231733Y-108132619D01*
X62279352Y-108227857D01*
X62326971Y-108418333D01*
X62326971Y-108656428D01*
X62279352Y-108846904D01*
X62231733Y-108942142D01*
X62184114Y-108989761D01*
X62088876Y-109037380D01*
X61993638Y-109037380D01*
X61898400Y-108989761D01*
X61850780Y-108942142D01*
X61803161Y-108846904D01*
X61755542Y-108656428D01*
X61755542Y-108418333D01*
X61803161Y-108227857D01*
X61850780Y-108132619D01*
X61898400Y-108085000D01*
X61993638Y-108037380D01*
X62946019Y-108037380D02*
X63041257Y-108037380D01*
X63136495Y-108085000D01*
X63184114Y-108132619D01*
X63231733Y-108227857D01*
X63279352Y-108418333D01*
X63279352Y-108656428D01*
X63231733Y-108846904D01*
X63184114Y-108942142D01*
X63136495Y-108989761D01*
X63041257Y-109037380D01*
X62946019Y-109037380D01*
X62850780Y-108989761D01*
X62803161Y-108942142D01*
X62755542Y-108846904D01*
X62707923Y-108656428D01*
X62707923Y-108418333D01*
X62755542Y-108227857D01*
X62803161Y-108132619D01*
X62850780Y-108085000D01*
X62946019Y-108037380D01*
X63898400Y-108037380D02*
X63993638Y-108037380D01*
X64088876Y-108085000D01*
X64136495Y-108132619D01*
X64184114Y-108227857D01*
X64231733Y-108418333D01*
X64231733Y-108656428D01*
X64184114Y-108846904D01*
X64136495Y-108942142D01*
X64088876Y-108989761D01*
X63993638Y-109037380D01*
X63898400Y-109037380D01*
X63803161Y-108989761D01*
X63755542Y-108942142D01*
X63707923Y-108846904D01*
X63660304Y-108656428D01*
X63660304Y-108418333D01*
X63707923Y-108227857D01*
X63755542Y-108132619D01*
X63803161Y-108085000D01*
X63898400Y-108037380D01*
X65088876Y-108370714D02*
X65088876Y-109037380D01*
X64660304Y-108370714D02*
X64660304Y-108894523D01*
X64707923Y-108989761D01*
X64803161Y-109037380D01*
X64946019Y-109037380D01*
X65041257Y-108989761D01*
X65088876Y-108942142D01*
X65898400Y-108513571D02*
X65565066Y-108513571D01*
X65565066Y-109037380D02*
X65565066Y-108037380D01*
X66041257Y-108037380D01*
X61529933Y-103354142D02*
X61482314Y-103401761D01*
X61339457Y-103449380D01*
X61244219Y-103449380D01*
X61101361Y-103401761D01*
X61006123Y-103306523D01*
X60958504Y-103211285D01*
X60910885Y-103020809D01*
X60910885Y-102877952D01*
X60958504Y-102687476D01*
X61006123Y-102592238D01*
X61101361Y-102497000D01*
X61244219Y-102449380D01*
X61339457Y-102449380D01*
X61482314Y-102497000D01*
X61529933Y-102544619D01*
X62387076Y-102782714D02*
X62387076Y-103449380D01*
X62148980Y-102401761D02*
X61910885Y-103116047D01*
X62529933Y-103116047D01*
X61009447Y-104195619D02*
X61057066Y-104148000D01*
X61152304Y-104100380D01*
X61390400Y-104100380D01*
X61485638Y-104148000D01*
X61533257Y-104195619D01*
X61580876Y-104290857D01*
X61580876Y-104386095D01*
X61533257Y-104528952D01*
X60961828Y-105100380D01*
X61580876Y-105100380D01*
X62009447Y-105005142D02*
X62057066Y-105052761D01*
X62009447Y-105100380D01*
X61961828Y-105052761D01*
X62009447Y-105005142D01*
X62009447Y-105100380D01*
X62438019Y-104195619D02*
X62485638Y-104148000D01*
X62580876Y-104100380D01*
X62818971Y-104100380D01*
X62914209Y-104148000D01*
X62961828Y-104195619D01*
X63009447Y-104290857D01*
X63009447Y-104386095D01*
X62961828Y-104528952D01*
X62390400Y-105100380D01*
X63009447Y-105100380D01*
X63866590Y-104433714D02*
X63866590Y-105100380D01*
X63438019Y-104433714D02*
X63438019Y-104957523D01*
X63485638Y-105052761D01*
X63580876Y-105100380D01*
X63723733Y-105100380D01*
X63818971Y-105052761D01*
X63866590Y-105005142D01*
X64676114Y-104576571D02*
X64342780Y-104576571D01*
X64342780Y-105100380D02*
X64342780Y-104100380D01*
X64818971Y-104100380D01*
X61682333Y-87606142D02*
X61634714Y-87653761D01*
X61491857Y-87701380D01*
X61396619Y-87701380D01*
X61253761Y-87653761D01*
X61158523Y-87558523D01*
X61110904Y-87463285D01*
X61063285Y-87272809D01*
X61063285Y-87129952D01*
X61110904Y-86939476D01*
X61158523Y-86844238D01*
X61253761Y-86749000D01*
X61396619Y-86701380D01*
X61491857Y-86701380D01*
X61634714Y-86749000D01*
X61682333Y-86796619D01*
X62015666Y-86701380D02*
X62634714Y-86701380D01*
X62301380Y-87082333D01*
X62444238Y-87082333D01*
X62539476Y-87129952D01*
X62587095Y-87177571D01*
X62634714Y-87272809D01*
X62634714Y-87510904D01*
X62587095Y-87606142D01*
X62539476Y-87653761D01*
X62444238Y-87701380D01*
X62158523Y-87701380D01*
X62063285Y-87653761D01*
X62015666Y-87606142D01*
X61564971Y-89352380D02*
X60993542Y-89352380D01*
X61279257Y-89352380D02*
X61279257Y-88352380D01*
X61184019Y-88495238D01*
X61088780Y-88590476D01*
X60993542Y-88638095D01*
X62184019Y-88352380D02*
X62279257Y-88352380D01*
X62374495Y-88400000D01*
X62422114Y-88447619D01*
X62469733Y-88542857D01*
X62517352Y-88733333D01*
X62517352Y-88971428D01*
X62469733Y-89161904D01*
X62422114Y-89257142D01*
X62374495Y-89304761D01*
X62279257Y-89352380D01*
X62184019Y-89352380D01*
X62088780Y-89304761D01*
X62041161Y-89257142D01*
X61993542Y-89161904D01*
X61945923Y-88971428D01*
X61945923Y-88733333D01*
X61993542Y-88542857D01*
X62041161Y-88447619D01*
X62088780Y-88400000D01*
X62184019Y-88352380D01*
X63374495Y-88685714D02*
X63374495Y-89352380D01*
X62945923Y-88685714D02*
X62945923Y-89209523D01*
X62993542Y-89304761D01*
X63088780Y-89352380D01*
X63231638Y-89352380D01*
X63326876Y-89304761D01*
X63374495Y-89257142D01*
X64184019Y-88828571D02*
X63850685Y-88828571D01*
X63850685Y-89352380D02*
X63850685Y-88352380D01*
X64326876Y-88352380D01*
X56084742Y-73699666D02*
X56132361Y-73747285D01*
X56179980Y-73890142D01*
X56179980Y-73985380D01*
X56132361Y-74128238D01*
X56037123Y-74223476D01*
X55941885Y-74271095D01*
X55751409Y-74318714D01*
X55608552Y-74318714D01*
X55418076Y-74271095D01*
X55322838Y-74223476D01*
X55227600Y-74128238D01*
X55179980Y-73985380D01*
X55179980Y-73890142D01*
X55227600Y-73747285D01*
X55275219Y-73699666D01*
X55275219Y-73318714D02*
X55227600Y-73271095D01*
X55179980Y-73175857D01*
X55179980Y-72937761D01*
X55227600Y-72842523D01*
X55275219Y-72794904D01*
X55370457Y-72747285D01*
X55465695Y-72747285D01*
X55608552Y-72794904D01*
X56179980Y-73366333D01*
X56179980Y-72747285D01*
X55052980Y-84319857D02*
X55052980Y-84224619D01*
X55100600Y-84129380D01*
X55148219Y-84081761D01*
X55243457Y-84034142D01*
X55433933Y-83986523D01*
X55672028Y-83986523D01*
X55862504Y-84034142D01*
X55957742Y-84081761D01*
X56005361Y-84129380D01*
X56052980Y-84224619D01*
X56052980Y-84319857D01*
X56005361Y-84415095D01*
X55957742Y-84462714D01*
X55862504Y-84510333D01*
X55672028Y-84557952D01*
X55433933Y-84557952D01*
X55243457Y-84510333D01*
X55148219Y-84462714D01*
X55100600Y-84415095D01*
X55052980Y-84319857D01*
X55957742Y-83557952D02*
X56005361Y-83510333D01*
X56052980Y-83557952D01*
X56005361Y-83605571D01*
X55957742Y-83557952D01*
X56052980Y-83557952D01*
X56052980Y-82557952D02*
X56052980Y-83129380D01*
X56052980Y-82843666D02*
X55052980Y-82843666D01*
X55195838Y-82938904D01*
X55291076Y-83034142D01*
X55338695Y-83129380D01*
X55386314Y-81700809D02*
X56052980Y-81700809D01*
X55386314Y-82129380D02*
X55910123Y-82129380D01*
X56005361Y-82081761D01*
X56052980Y-81986523D01*
X56052980Y-81843666D01*
X56005361Y-81748428D01*
X55957742Y-81700809D01*
X55529171Y-80891285D02*
X55529171Y-81224619D01*
X56052980Y-81224619D02*
X55052980Y-81224619D01*
X55052980Y-80748428D01*
X65314533Y-116765342D02*
X65266914Y-116812961D01*
X65124057Y-116860580D01*
X65028819Y-116860580D01*
X64885961Y-116812961D01*
X64790723Y-116717723D01*
X64743104Y-116622485D01*
X64695485Y-116432009D01*
X64695485Y-116289152D01*
X64743104Y-116098676D01*
X64790723Y-116003438D01*
X64885961Y-115908200D01*
X65028819Y-115860580D01*
X65124057Y-115860580D01*
X65266914Y-115908200D01*
X65314533Y-115955819D01*
X66266914Y-116860580D02*
X65695485Y-116860580D01*
X65981200Y-116860580D02*
X65981200Y-115860580D01*
X65885961Y-116003438D01*
X65790723Y-116098676D01*
X65695485Y-116146295D01*
X62873190Y-118740180D02*
X62301761Y-118740180D01*
X62587476Y-118740180D02*
X62587476Y-117740180D01*
X62492238Y-117883038D01*
X62397000Y-117978276D01*
X62301761Y-118025895D01*
X63492238Y-117740180D02*
X63587476Y-117740180D01*
X63682714Y-117787800D01*
X63730333Y-117835419D01*
X63777952Y-117930657D01*
X63825571Y-118121133D01*
X63825571Y-118359228D01*
X63777952Y-118549704D01*
X63730333Y-118644942D01*
X63682714Y-118692561D01*
X63587476Y-118740180D01*
X63492238Y-118740180D01*
X63397000Y-118692561D01*
X63349380Y-118644942D01*
X63301761Y-118549704D01*
X63254142Y-118359228D01*
X63254142Y-118121133D01*
X63301761Y-117930657D01*
X63349380Y-117835419D01*
X63397000Y-117787800D01*
X63492238Y-117740180D01*
X64444619Y-117740180D02*
X64539857Y-117740180D01*
X64635095Y-117787800D01*
X64682714Y-117835419D01*
X64730333Y-117930657D01*
X64777952Y-118121133D01*
X64777952Y-118359228D01*
X64730333Y-118549704D01*
X64682714Y-118644942D01*
X64635095Y-118692561D01*
X64539857Y-118740180D01*
X64444619Y-118740180D01*
X64349380Y-118692561D01*
X64301761Y-118644942D01*
X64254142Y-118549704D01*
X64206523Y-118359228D01*
X64206523Y-118121133D01*
X64254142Y-117930657D01*
X64301761Y-117835419D01*
X64349380Y-117787800D01*
X64444619Y-117740180D01*
X65397000Y-117740180D02*
X65492238Y-117740180D01*
X65587476Y-117787800D01*
X65635095Y-117835419D01*
X65682714Y-117930657D01*
X65730333Y-118121133D01*
X65730333Y-118359228D01*
X65682714Y-118549704D01*
X65635095Y-118644942D01*
X65587476Y-118692561D01*
X65492238Y-118740180D01*
X65397000Y-118740180D01*
X65301761Y-118692561D01*
X65254142Y-118644942D01*
X65206523Y-118549704D01*
X65158904Y-118359228D01*
X65158904Y-118121133D01*
X65206523Y-117930657D01*
X65254142Y-117835419D01*
X65301761Y-117787800D01*
X65397000Y-117740180D01*
X66587476Y-118073514D02*
X66587476Y-118740180D01*
X66158904Y-118073514D02*
X66158904Y-118597323D01*
X66206523Y-118692561D01*
X66301761Y-118740180D01*
X66444619Y-118740180D01*
X66539857Y-118692561D01*
X66587476Y-118644942D01*
X67397000Y-118216371D02*
X67063666Y-118216371D01*
X67063666Y-118740180D02*
X67063666Y-117740180D01*
X67539857Y-117740180D01*
M02*
