M48
; DRILL file {KiCad (5.1.2)-2} date 11/27/2020 11:43:37 AM
; FORMAT={-:-/ absolute / inch / decimal}
; #@! TF.CreationDate,2020-11-27T11:43:37-06:00
; #@! TF.GenerationSoftware,Kicad,Pcbnew,(5.1.2)-2
; #@! TF.FileFunction,Plated,1,2,PTH
FMAT,2
INCH
T1C0.0299
T2C0.0315
T3C0.0350
T4C0.0394
T5C0.0492
T6C0.0512
%
G90
G05
T1
X3.1546Y-3.2865
X3.1546Y-3.3865
X3.1546Y-3.4865
X3.1546Y-3.5865
X3.2546Y-3.3365
X3.2546Y-3.4365
X3.2546Y-3.5365
X3.2546Y-3.6365
X3.1546Y-3.9777
X3.1546Y-4.0777
X3.1546Y-4.1777
X3.1546Y-4.2777
X3.2546Y-4.0277
X3.2546Y-4.1277
X3.2546Y-4.2277
X3.2546Y-4.3277
X3.1546Y-2.13
X3.1546Y-2.23
X3.1546Y-2.33
X3.1546Y-2.43
X3.2546Y-2.18
X3.2546Y-2.28
X3.2546Y-2.38
X3.2546Y-2.48
T2
X2.2276Y-3.467
X2.326Y-3.467
X2.435Y-2.705
X2.435Y-3.105
X2.2276Y-4.088
X2.326Y-4.088
X2.699Y-2.709
X2.699Y-3.109
X2.932Y-3.804
X2.932Y-4.204
X2.196Y-3.0066
X2.196Y-3.105
T3
X2.3246Y-3.664
X2.3246Y-3.764
X2.3246Y-3.864
T4
X2.052Y-2.406
X2.052Y-2.506
X2.052Y-2.606
X2.052Y-2.706
X2.052Y-2.806
X2.052Y-2.906
X2.052Y-3.006
X2.052Y-3.106
X2.952Y-2.406
X2.952Y-2.506
X2.952Y-2.606
X2.952Y-2.706
X2.952Y-2.806
X2.952Y-2.906
X2.952Y-3.006
X2.952Y-3.106
X2.78Y-3.631
X2.78Y-3.731
X2.819Y-4.384
X2.819Y-4.5809
X2.186Y-4.268
X2.186Y-4.4649
T5
X2.415Y-4.83
X3.015Y-4.83
T6
X3.418Y-2.7912
X3.418Y-2.9881
T4
G00X3.198Y-4.7952
M15
G01X3.198Y-4.6968
M16
G05
G00X3.2472Y-4.557
M15
G01X3.3456Y-4.557
M16
G05
G00X3.4342Y-4.7952
M15
G01X3.4342Y-4.6968
M16
G05
T0
M30
