%TF.GenerationSoftware,KiCad,Pcbnew,(5.1.9)-1*%
%TF.CreationDate,2021-01-18T22:58:22-06:00*%
%TF.ProjectId,TempPCB11,54656d70-5043-4423-9131-2e6b69636164,rev?*%
%TF.SameCoordinates,Original*%
%TF.FileFunction,Legend,Top*%
%TF.FilePolarity,Positive*%
%FSLAX46Y46*%
G04 Gerber Fmt 4.6, Leading zero omitted, Abs format (unit mm)*
G04 Created by KiCad (PCBNEW (5.1.9)-1) date 2021-01-18 22:58:22*
%MOMM*%
%LPD*%
G01*
G04 APERTURE LIST*
%ADD10C,0.150000*%
%ADD11C,0.120000*%
G04 APERTURE END LIST*
D10*
X66469619Y-50760380D02*
X67041047Y-50760380D01*
X66755333Y-51760380D02*
X66755333Y-50760380D01*
X67374380Y-51760380D02*
X67374380Y-50760380D01*
X67707714Y-51474666D01*
X68041047Y-50760380D01*
X68041047Y-51760380D01*
X69041047Y-51760380D02*
X68469619Y-51760380D01*
X68755333Y-51760380D02*
X68755333Y-50760380D01*
X68660095Y-50903238D01*
X68564857Y-50998476D01*
X68469619Y-51046095D01*
X69993428Y-51760380D02*
X69422000Y-51760380D01*
X69707714Y-51760380D02*
X69707714Y-50760380D01*
X69612476Y-50903238D01*
X69517238Y-50998476D01*
X69422000Y-51046095D01*
X72469619Y-51760380D02*
X71898190Y-51760380D01*
X72183904Y-51760380D02*
X72183904Y-50760380D01*
X72088666Y-50903238D01*
X71993428Y-50998476D01*
X71898190Y-51046095D01*
X73041047Y-51188952D02*
X72945809Y-51141333D01*
X72898190Y-51093714D01*
X72850571Y-50998476D01*
X72850571Y-50950857D01*
X72898190Y-50855619D01*
X72945809Y-50808000D01*
X73041047Y-50760380D01*
X73231523Y-50760380D01*
X73326761Y-50808000D01*
X73374380Y-50855619D01*
X73422000Y-50950857D01*
X73422000Y-50998476D01*
X73374380Y-51093714D01*
X73326761Y-51141333D01*
X73231523Y-51188952D01*
X73041047Y-51188952D01*
X72945809Y-51236571D01*
X72898190Y-51284190D01*
X72850571Y-51379428D01*
X72850571Y-51569904D01*
X72898190Y-51665142D01*
X72945809Y-51712761D01*
X73041047Y-51760380D01*
X73231523Y-51760380D01*
X73326761Y-51712761D01*
X73374380Y-51665142D01*
X73422000Y-51569904D01*
X73422000Y-51379428D01*
X73374380Y-51284190D01*
X73326761Y-51236571D01*
X73231523Y-51188952D01*
X73850571Y-51379428D02*
X74612476Y-51379428D01*
X75374380Y-50760380D02*
X75374380Y-51474666D01*
X75326761Y-51617523D01*
X75231523Y-51712761D01*
X75088666Y-51760380D01*
X74993428Y-51760380D01*
X76279142Y-51760380D02*
X76279142Y-51236571D01*
X76231523Y-51141333D01*
X76136285Y-51093714D01*
X75945809Y-51093714D01*
X75850571Y-51141333D01*
X76279142Y-51712761D02*
X76183904Y-51760380D01*
X75945809Y-51760380D01*
X75850571Y-51712761D01*
X75802952Y-51617523D01*
X75802952Y-51522285D01*
X75850571Y-51427047D01*
X75945809Y-51379428D01*
X76183904Y-51379428D01*
X76279142Y-51331809D01*
X76755333Y-51093714D02*
X76755333Y-51760380D01*
X76755333Y-51188952D02*
X76802952Y-51141333D01*
X76898190Y-51093714D01*
X77041047Y-51093714D01*
X77136285Y-51141333D01*
X77183904Y-51236571D01*
X77183904Y-51760380D01*
X77660095Y-51379428D02*
X78422000Y-51379428D01*
X78850571Y-50855619D02*
X78898190Y-50808000D01*
X78993428Y-50760380D01*
X79231523Y-50760380D01*
X79326761Y-50808000D01*
X79374380Y-50855619D01*
X79422000Y-50950857D01*
X79422000Y-51046095D01*
X79374380Y-51188952D01*
X78802952Y-51760380D01*
X79422000Y-51760380D01*
X80041047Y-50760380D02*
X80136285Y-50760380D01*
X80231523Y-50808000D01*
X80279142Y-50855619D01*
X80326761Y-50950857D01*
X80374380Y-51141333D01*
X80374380Y-51379428D01*
X80326761Y-51569904D01*
X80279142Y-51665142D01*
X80231523Y-51712761D01*
X80136285Y-51760380D01*
X80041047Y-51760380D01*
X79945809Y-51712761D01*
X79898190Y-51665142D01*
X79850571Y-51569904D01*
X79802952Y-51379428D01*
X79802952Y-51141333D01*
X79850571Y-50950857D01*
X79898190Y-50855619D01*
X79945809Y-50808000D01*
X80041047Y-50760380D01*
X80755333Y-50855619D02*
X80802952Y-50808000D01*
X80898190Y-50760380D01*
X81136285Y-50760380D01*
X81231523Y-50808000D01*
X81279142Y-50855619D01*
X81326761Y-50950857D01*
X81326761Y-51046095D01*
X81279142Y-51188952D01*
X80707714Y-51760380D01*
X81326761Y-51760380D01*
X82279142Y-51760380D02*
X81707714Y-51760380D01*
X81993428Y-51760380D02*
X81993428Y-50760380D01*
X81898190Y-50903238D01*
X81802952Y-50998476D01*
X81707714Y-51046095D01*
X107759523Y-88875620D02*
X107283333Y-88875620D01*
X107235714Y-89351811D01*
X107283333Y-89304192D01*
X107378571Y-89256573D01*
X107616666Y-89256573D01*
X107711904Y-89304192D01*
X107759523Y-89351811D01*
X107807142Y-89447049D01*
X107807142Y-89685144D01*
X107759523Y-89780382D01*
X107711904Y-89828001D01*
X107616666Y-89875620D01*
X107378571Y-89875620D01*
X107283333Y-89828001D01*
X107235714Y-89780382D01*
X108092857Y-88875620D02*
X108426190Y-89875620D01*
X108759523Y-88875620D01*
X101367744Y-88875620D02*
X101986792Y-88875620D01*
X101653459Y-89256573D01*
X101796316Y-89256573D01*
X101891554Y-89304192D01*
X101939173Y-89351811D01*
X101986792Y-89447049D01*
X101986792Y-89685144D01*
X101939173Y-89780382D01*
X101891554Y-89828001D01*
X101796316Y-89875620D01*
X101510601Y-89875620D01*
X101415363Y-89828001D01*
X101367744Y-89780382D01*
X102272506Y-88875620D02*
X102605840Y-89875620D01*
X102939173Y-88875620D01*
X103177268Y-88875620D02*
X103796316Y-88875620D01*
X103462982Y-89256573D01*
X103605840Y-89256573D01*
X103701078Y-89304192D01*
X103748697Y-89351811D01*
X103796316Y-89447049D01*
X103796316Y-89685144D01*
X103748697Y-89780382D01*
X103701078Y-89828001D01*
X103605840Y-89875620D01*
X103320125Y-89875620D01*
X103224887Y-89828001D01*
X103177268Y-89780382D01*
X96853523Y-89828001D02*
X96996380Y-89875620D01*
X97234476Y-89875620D01*
X97329714Y-89828001D01*
X97377333Y-89780382D01*
X97424952Y-89685144D01*
X97424952Y-89589906D01*
X97377333Y-89494668D01*
X97329714Y-89447049D01*
X97234476Y-89399430D01*
X97044000Y-89351811D01*
X96948761Y-89304192D01*
X96901142Y-89256573D01*
X96853523Y-89161335D01*
X96853523Y-89066097D01*
X96901142Y-88970859D01*
X96948761Y-88923240D01*
X97044000Y-88875620D01*
X97282095Y-88875620D01*
X97424952Y-88923240D01*
X98424952Y-89780382D02*
X98377333Y-89828001D01*
X98234476Y-89875620D01*
X98139238Y-89875620D01*
X97996380Y-89828001D01*
X97901142Y-89732763D01*
X97853523Y-89637525D01*
X97805904Y-89447049D01*
X97805904Y-89304192D01*
X97853523Y-89113716D01*
X97901142Y-89018478D01*
X97996380Y-88923240D01*
X98139238Y-88875620D01*
X98234476Y-88875620D01*
X98377333Y-88923240D01*
X98424952Y-88970859D01*
X99329714Y-89875620D02*
X98853523Y-89875620D01*
X98853523Y-88875620D01*
X91495714Y-89828001D02*
X91638571Y-89875620D01*
X91876666Y-89875620D01*
X91971904Y-89828001D01*
X92019523Y-89780382D01*
X92067142Y-89685144D01*
X92067142Y-89589906D01*
X92019523Y-89494668D01*
X91971904Y-89447049D01*
X91876666Y-89399430D01*
X91686190Y-89351811D01*
X91590952Y-89304192D01*
X91543333Y-89256573D01*
X91495714Y-89161335D01*
X91495714Y-89066097D01*
X91543333Y-88970859D01*
X91590952Y-88923240D01*
X91686190Y-88875620D01*
X91924285Y-88875620D01*
X92067142Y-88923240D01*
X92495714Y-89875620D02*
X92495714Y-88875620D01*
X92733809Y-88875620D01*
X92876666Y-88923240D01*
X92971904Y-89018478D01*
X93019523Y-89113716D01*
X93067142Y-89304192D01*
X93067142Y-89447049D01*
X93019523Y-89637525D01*
X92971904Y-89732763D01*
X92876666Y-89828001D01*
X92733809Y-89875620D01*
X92495714Y-89875620D01*
X93448095Y-89589906D02*
X93924285Y-89589906D01*
X93352857Y-89875620D02*
X93686190Y-88875620D01*
X94019523Y-89875620D01*
X86907809Y-89828001D02*
X87050666Y-89875620D01*
X87288761Y-89875620D01*
X87384000Y-89828001D01*
X87431619Y-89780382D01*
X87479238Y-89685144D01*
X87479238Y-89589906D01*
X87431619Y-89494668D01*
X87384000Y-89447049D01*
X87288761Y-89399430D01*
X87098285Y-89351811D01*
X87003047Y-89304192D01*
X86955428Y-89256573D01*
X86907809Y-89161335D01*
X86907809Y-89066097D01*
X86955428Y-88970859D01*
X87003047Y-88923240D01*
X87098285Y-88875620D01*
X87336380Y-88875620D01*
X87479238Y-88923240D01*
X87907809Y-89875620D02*
X87907809Y-89208954D01*
X87907809Y-88875620D02*
X87860190Y-88923240D01*
X87907809Y-88970859D01*
X87955428Y-88923240D01*
X87907809Y-88875620D01*
X87907809Y-88970859D01*
X88812571Y-89208954D02*
X88812571Y-90018478D01*
X88764952Y-90113716D01*
X88717333Y-90161335D01*
X88622095Y-90208954D01*
X88479238Y-90208954D01*
X88384000Y-90161335D01*
X88812571Y-89828001D02*
X88717333Y-89875620D01*
X88526857Y-89875620D01*
X88431619Y-89828001D01*
X88384000Y-89780382D01*
X88336380Y-89685144D01*
X88336380Y-89399430D01*
X88384000Y-89304192D01*
X88431619Y-89256573D01*
X88526857Y-89208954D01*
X88717333Y-89208954D01*
X88812571Y-89256573D01*
D11*
%TO.C,J2*%
X66442000Y-60452000D02*
G75*
G03*
X66442000Y-60452000I-2180000J0D01*
G01*
X66442000Y-55452000D02*
G75*
G03*
X66442000Y-55452000I-2180000J0D01*
G01*
X68862000Y-63012000D02*
X68862000Y-52892000D01*
X67762000Y-63012000D02*
X67762000Y-52892000D01*
X60202000Y-63012000D02*
X60202000Y-52892000D01*
X69322000Y-63012000D02*
X69322000Y-52892000D01*
X60202000Y-63012000D02*
X69322000Y-63012000D01*
X60202000Y-52892000D02*
X69322000Y-52892000D01*
X62874000Y-58798000D02*
X62981000Y-58905000D01*
X65809000Y-61734000D02*
X65916000Y-61840000D01*
X62608000Y-59064000D02*
X62715000Y-59171000D01*
X65543000Y-62000000D02*
X65650000Y-62106000D01*
X62874000Y-53798000D02*
X63270000Y-54193000D01*
X65536000Y-56459000D02*
X65916000Y-56839000D01*
X62608000Y-54064000D02*
X62988000Y-54444000D01*
X65254000Y-56710000D02*
X65650000Y-57105000D01*
X68922000Y-63252000D02*
X69562000Y-63252000D01*
X69562000Y-63252000D02*
X69562000Y-62852000D01*
%TO.C,J1*%
X110384000Y-96012000D02*
G75*
G03*
X110384000Y-96012000I-2180000J0D01*
G01*
X105384000Y-96012000D02*
G75*
G03*
X105384000Y-96012000I-2180000J0D01*
G01*
X100384000Y-96012000D02*
G75*
G03*
X100384000Y-96012000I-2180000J0D01*
G01*
X95384000Y-96012000D02*
G75*
G03*
X95384000Y-96012000I-2180000J0D01*
G01*
X90384000Y-96012000D02*
G75*
G03*
X90384000Y-96012000I-2180000J0D01*
G01*
X110764000Y-91412000D02*
X85644000Y-91412000D01*
X110764000Y-92512000D02*
X85644000Y-92512000D01*
X110764000Y-100072000D02*
X85644000Y-100072000D01*
X110764000Y-90952000D02*
X85644000Y-90952000D01*
X110764000Y-100072000D02*
X110764000Y-90952000D01*
X85644000Y-100072000D02*
X85644000Y-90952000D01*
X106550000Y-97400000D02*
X106657000Y-97293000D01*
X109486000Y-94465000D02*
X109592000Y-94358000D01*
X106816000Y-97666000D02*
X106923000Y-97559000D01*
X109752000Y-94731000D02*
X109858000Y-94624000D01*
X101550000Y-97400000D02*
X101945000Y-97004000D01*
X104211000Y-94738000D02*
X104591000Y-94358000D01*
X101816000Y-97666000D02*
X102196000Y-97286000D01*
X104462000Y-95020000D02*
X104857000Y-94624000D01*
X96550000Y-97400000D02*
X96945000Y-97004000D01*
X99211000Y-94738000D02*
X99591000Y-94358000D01*
X96816000Y-97666000D02*
X97196000Y-97286000D01*
X99462000Y-95020000D02*
X99857000Y-94624000D01*
X91550000Y-97400000D02*
X91945000Y-97004000D01*
X94211000Y-94738000D02*
X94591000Y-94358000D01*
X91816000Y-97666000D02*
X92196000Y-97286000D01*
X94462000Y-95020000D02*
X94857000Y-94624000D01*
X86550000Y-97400000D02*
X86945000Y-97004000D01*
X89211000Y-94738000D02*
X89591000Y-94358000D01*
X86816000Y-97666000D02*
X87196000Y-97286000D01*
X89462000Y-95020000D02*
X89857000Y-94624000D01*
X111004000Y-91352000D02*
X111004000Y-90712000D01*
X111004000Y-90712000D02*
X110604000Y-90712000D01*
%TO.C,B1*%
X111760000Y-93980000D02*
X132260000Y-93980000D01*
X111760000Y-50980000D02*
X132260000Y-50980000D01*
X111760000Y-93980000D02*
X111760000Y-50980000D01*
X132260000Y-93980000D02*
X132260000Y-50980000D01*
%TO.C,D1*%
X80826000Y-76108000D02*
X83766000Y-76108000D01*
X80826000Y-75868000D02*
X83766000Y-75868000D01*
X80826000Y-75988000D02*
X83766000Y-75988000D01*
X82296000Y-70428000D02*
X82296000Y-71448000D01*
X82296000Y-77908000D02*
X82296000Y-76888000D01*
X80826000Y-71448000D02*
X80826000Y-76888000D01*
X83766000Y-71448000D02*
X80826000Y-71448000D01*
X83766000Y-76888000D02*
X83766000Y-71448000D01*
X80826000Y-76888000D02*
X83766000Y-76888000D01*
%TO.C,J3*%
X142762000Y-101624000D02*
X141022000Y-101624000D01*
X142762000Y-99884000D02*
X142762000Y-101624000D01*
X133322000Y-101384000D02*
X133322000Y-99384000D01*
X136122000Y-101384000D02*
X133322000Y-101384000D01*
X142522000Y-101384000D02*
X139722000Y-101384000D01*
X142522000Y-86784000D02*
X142522000Y-101384000D01*
X133322000Y-86784000D02*
X142522000Y-86784000D01*
X133322000Y-95784000D02*
X133322000Y-86784000D01*
%TO.C,U1*%
X77894000Y-89892000D02*
X84794000Y-89892000D01*
X77894000Y-92432000D02*
X77894000Y-89892000D01*
D10*
G36*
X58039000Y-93472000D02*
G01*
X59309000Y-93472000D01*
X58674000Y-92837000D01*
X58039000Y-93472000D01*
G37*
X58039000Y-93472000D02*
X59309000Y-93472000D01*
X58674000Y-92837000D01*
X58039000Y-93472000D01*
D11*
X50334000Y-68692000D02*
X50334000Y-90302000D01*
X84794000Y-66572000D02*
X52464000Y-66572000D01*
X77894000Y-92432000D02*
X52464000Y-92432000D01*
X84794000Y-89892000D02*
X84794000Y-66572000D01*
X50334000Y-68702000D02*
G75*
G02*
X52464000Y-66572000I2130000J0D01*
G01*
X52464000Y-92432000D02*
G75*
G02*
X50334000Y-90302000I0J2130000D01*
G01*
%TO.C,R2*%
X60860000Y-82518000D02*
X63600000Y-82518000D01*
X63600000Y-82518000D02*
X63600000Y-75978000D01*
X63600000Y-75978000D02*
X60860000Y-75978000D01*
X60860000Y-75978000D02*
X60860000Y-82518000D01*
X62230000Y-83288000D02*
X62230000Y-82518000D01*
X62230000Y-75208000D02*
X62230000Y-75978000D01*
%TO.C,R1*%
X65940000Y-82518000D02*
X68680000Y-82518000D01*
X68680000Y-82518000D02*
X68680000Y-75978000D01*
X68680000Y-75978000D02*
X65940000Y-75978000D01*
X65940000Y-75978000D02*
X65940000Y-82518000D01*
X67310000Y-83288000D02*
X67310000Y-82518000D01*
X67310000Y-75208000D02*
X67310000Y-75978000D01*
%TO.C,C2*%
X105096000Y-61568000D02*
X105096000Y-58828000D01*
X110336000Y-61568000D02*
X110336000Y-58828000D01*
X110336000Y-58828000D02*
X105096000Y-58828000D01*
X110336000Y-61568000D02*
X105096000Y-61568000D01*
%TO.C,C1*%
X72330000Y-74776000D02*
X72330000Y-72036000D01*
X77570000Y-74776000D02*
X77570000Y-72036000D01*
X77570000Y-72036000D02*
X72330000Y-72036000D01*
X77570000Y-74776000D02*
X72330000Y-74776000D01*
%TO.C,AK1*%
X110744000Y-74422000D02*
X110744000Y-52422000D01*
X110744000Y-52422000D02*
X91744000Y-52422000D01*
X91744000Y-74422000D02*
X91744000Y-52422000D01*
X110744000Y-74422000D02*
X91744000Y-74422000D01*
%TO.C,J2*%
D10*
X58654380Y-58285333D02*
X59368666Y-58285333D01*
X59511523Y-58332952D01*
X59606761Y-58428190D01*
X59654380Y-58571047D01*
X59654380Y-58666285D01*
X58749619Y-57856761D02*
X58702000Y-57809142D01*
X58654380Y-57713904D01*
X58654380Y-57475809D01*
X58702000Y-57380571D01*
X58749619Y-57332952D01*
X58844857Y-57285333D01*
X58940095Y-57285333D01*
X59082952Y-57332952D01*
X59654380Y-57904380D01*
X59654380Y-57285333D01*
X69822000Y-59809142D02*
X69774380Y-59904380D01*
X69774380Y-60047238D01*
X69822000Y-60190095D01*
X69917238Y-60285333D01*
X70012476Y-60332952D01*
X70202952Y-60380571D01*
X70345809Y-60380571D01*
X70536285Y-60332952D01*
X70631523Y-60285333D01*
X70726761Y-60190095D01*
X70774380Y-60047238D01*
X70774380Y-59952000D01*
X70726761Y-59809142D01*
X70679142Y-59761523D01*
X70345809Y-59761523D01*
X70345809Y-59952000D01*
X70774380Y-59332952D02*
X70107714Y-59332952D01*
X70298190Y-59332952D02*
X70202952Y-59285333D01*
X70155333Y-59237714D01*
X70107714Y-59142476D01*
X70107714Y-59047238D01*
X70774380Y-58571047D02*
X70726761Y-58666285D01*
X70679142Y-58713904D01*
X70583904Y-58761523D01*
X70298190Y-58761523D01*
X70202952Y-58713904D01*
X70155333Y-58666285D01*
X70107714Y-58571047D01*
X70107714Y-58428190D01*
X70155333Y-58332952D01*
X70202952Y-58285333D01*
X70298190Y-58237714D01*
X70583904Y-58237714D01*
X70679142Y-58285333D01*
X70726761Y-58332952D01*
X70774380Y-58428190D01*
X70774380Y-58571047D01*
X70107714Y-57380571D02*
X70774380Y-57380571D01*
X70107714Y-57809142D02*
X70631523Y-57809142D01*
X70726761Y-57761523D01*
X70774380Y-57666285D01*
X70774380Y-57523428D01*
X70726761Y-57428190D01*
X70679142Y-57380571D01*
X70107714Y-56904380D02*
X70774380Y-56904380D01*
X70202952Y-56904380D02*
X70155333Y-56856761D01*
X70107714Y-56761523D01*
X70107714Y-56618666D01*
X70155333Y-56523428D01*
X70250571Y-56475809D01*
X70774380Y-56475809D01*
X70774380Y-55571047D02*
X69774380Y-55571047D01*
X70726761Y-55571047D02*
X70774380Y-55666285D01*
X70774380Y-55856761D01*
X70726761Y-55952000D01*
X70679142Y-55999619D01*
X70583904Y-56047238D01*
X70298190Y-56047238D01*
X70202952Y-55999619D01*
X70155333Y-55952000D01*
X70107714Y-55856761D01*
X70107714Y-55666285D01*
X70155333Y-55571047D01*
%TO.C,J1*%
X83740666Y-98512380D02*
X83740666Y-99226666D01*
X83693047Y-99369523D01*
X83597809Y-99464761D01*
X83454952Y-99512380D01*
X83359714Y-99512380D01*
X84740666Y-99512380D02*
X84169238Y-99512380D01*
X84454952Y-99512380D02*
X84454952Y-98512380D01*
X84359714Y-98655238D01*
X84264476Y-98750476D01*
X84169238Y-98798095D01*
%TO.C,B1*%
X113895238Y-95178571D02*
X114038095Y-95226190D01*
X114085714Y-95273809D01*
X114133333Y-95369047D01*
X114133333Y-95511904D01*
X114085714Y-95607142D01*
X114038095Y-95654761D01*
X113942857Y-95702380D01*
X113561904Y-95702380D01*
X113561904Y-94702380D01*
X113895238Y-94702380D01*
X113990476Y-94750000D01*
X114038095Y-94797619D01*
X114085714Y-94892857D01*
X114085714Y-94988095D01*
X114038095Y-95083333D01*
X113990476Y-95130952D01*
X113895238Y-95178571D01*
X113561904Y-95178571D01*
X115085714Y-95702380D02*
X114514285Y-95702380D01*
X114800000Y-95702380D02*
X114800000Y-94702380D01*
X114704761Y-94845238D01*
X114609523Y-94940476D01*
X114514285Y-94988095D01*
X127417580Y-55224133D02*
X127417580Y-55033657D01*
X127465200Y-54938419D01*
X127560438Y-54843180D01*
X127750914Y-54795561D01*
X128084247Y-54795561D01*
X128274723Y-54843180D01*
X128369961Y-54938419D01*
X128417580Y-55033657D01*
X128417580Y-55224133D01*
X128369961Y-55319371D01*
X128274723Y-55414609D01*
X128084247Y-55462228D01*
X127750914Y-55462228D01*
X127560438Y-55414609D01*
X127465200Y-55319371D01*
X127417580Y-55224133D01*
X127750914Y-53938419D02*
X128417580Y-53938419D01*
X127750914Y-54366990D02*
X128274723Y-54366990D01*
X128369961Y-54319371D01*
X128417580Y-54224133D01*
X128417580Y-54081276D01*
X128369961Y-53986038D01*
X128322342Y-53938419D01*
X127750914Y-53605085D02*
X127750914Y-53224133D01*
X127417580Y-53462228D02*
X128274723Y-53462228D01*
X128369961Y-53414609D01*
X128417580Y-53319371D01*
X128417580Y-53224133D01*
X128036628Y-52128895D02*
X128036628Y-51366990D01*
X115835180Y-55427333D02*
X115835180Y-55236857D01*
X115882800Y-55141619D01*
X115978038Y-55046380D01*
X116168514Y-54998761D01*
X116501847Y-54998761D01*
X116692323Y-55046380D01*
X116787561Y-55141619D01*
X116835180Y-55236857D01*
X116835180Y-55427333D01*
X116787561Y-55522571D01*
X116692323Y-55617809D01*
X116501847Y-55665428D01*
X116168514Y-55665428D01*
X115978038Y-55617809D01*
X115882800Y-55522571D01*
X115835180Y-55427333D01*
X116168514Y-54141619D02*
X116835180Y-54141619D01*
X116168514Y-54570190D02*
X116692323Y-54570190D01*
X116787561Y-54522571D01*
X116835180Y-54427333D01*
X116835180Y-54284476D01*
X116787561Y-54189238D01*
X116739942Y-54141619D01*
X116168514Y-53808285D02*
X116168514Y-53427333D01*
X115835180Y-53665428D02*
X116692323Y-53665428D01*
X116787561Y-53617809D01*
X116835180Y-53522571D01*
X116835180Y-53427333D01*
X116454228Y-52332095D02*
X116454228Y-51570190D01*
X116835180Y-51951142D02*
X116073276Y-51951142D01*
X128773180Y-93370209D02*
X127773180Y-93370209D01*
X128773180Y-92894019D02*
X127773180Y-92894019D01*
X128773180Y-92322590D01*
X127773180Y-92322590D01*
X128392228Y-91084495D02*
X128392228Y-90322590D01*
X116403380Y-93421009D02*
X115403380Y-93421009D01*
X116403380Y-92944819D02*
X115403380Y-92944819D01*
X116403380Y-92373390D01*
X115403380Y-92373390D01*
X116022428Y-91135295D02*
X116022428Y-90373390D01*
X116403380Y-90754342D02*
X115641476Y-90754342D01*
%TO.C,D1*%
X82804260Y-82378775D02*
X81804260Y-82378775D01*
X81804260Y-82140680D01*
X81851880Y-81997822D01*
X81947118Y-81902584D01*
X82042356Y-81854965D01*
X82232832Y-81807346D01*
X82375689Y-81807346D01*
X82566165Y-81854965D01*
X82661403Y-81902584D01*
X82756641Y-81997822D01*
X82804260Y-82140680D01*
X82804260Y-82378775D01*
X82804260Y-80854965D02*
X82804260Y-81426394D01*
X82804260Y-81140680D02*
X81804260Y-81140680D01*
X81947118Y-81235918D01*
X82042356Y-81331156D01*
X82089975Y-81426394D01*
X80340460Y-75980657D02*
X80340460Y-76552085D01*
X80340460Y-76266371D02*
X79340460Y-76266371D01*
X79483318Y-76361609D01*
X79578556Y-76456847D01*
X79626175Y-76552085D01*
X80340460Y-75552085D02*
X79340460Y-75552085D01*
X80340460Y-74980657D01*
X79340460Y-74980657D01*
X79673794Y-74075895D02*
X80340460Y-74075895D01*
X79292841Y-74313990D02*
X80007127Y-74552085D01*
X80007127Y-73933038D01*
X79340460Y-73361609D02*
X79340460Y-73266371D01*
X79388080Y-73171133D01*
X79435699Y-73123514D01*
X79530937Y-73075895D01*
X79721413Y-73028276D01*
X79959508Y-73028276D01*
X80149984Y-73075895D01*
X80245222Y-73123514D01*
X80292841Y-73171133D01*
X80340460Y-73266371D01*
X80340460Y-73361609D01*
X80292841Y-73456847D01*
X80245222Y-73504466D01*
X80149984Y-73552085D01*
X79959508Y-73599704D01*
X79721413Y-73599704D01*
X79530937Y-73552085D01*
X79435699Y-73504466D01*
X79388080Y-73456847D01*
X79340460Y-73361609D01*
X79340460Y-72409228D02*
X79340460Y-72313990D01*
X79388080Y-72218752D01*
X79435699Y-72171133D01*
X79530937Y-72123514D01*
X79721413Y-72075895D01*
X79959508Y-72075895D01*
X80149984Y-72123514D01*
X80245222Y-72171133D01*
X80292841Y-72218752D01*
X80340460Y-72313990D01*
X80340460Y-72409228D01*
X80292841Y-72504466D01*
X80245222Y-72552085D01*
X80149984Y-72599704D01*
X79959508Y-72647323D01*
X79721413Y-72647323D01*
X79530937Y-72599704D01*
X79435699Y-72552085D01*
X79388080Y-72504466D01*
X79340460Y-72409228D01*
X79340460Y-71742561D02*
X79340460Y-71075895D01*
X80340460Y-71504466D01*
X80648380Y-79509904D02*
X79648380Y-79509904D01*
X80648380Y-78938476D02*
X80076952Y-79367047D01*
X79648380Y-78938476D02*
X80219809Y-79509904D01*
%TO.C,J3*%
X131354580Y-94897533D02*
X132068866Y-94897533D01*
X132211723Y-94945152D01*
X132306961Y-95040390D01*
X132354580Y-95183247D01*
X132354580Y-95278485D01*
X131354580Y-94516580D02*
X131354580Y-93897533D01*
X131735533Y-94230866D01*
X131735533Y-94088009D01*
X131783152Y-93992771D01*
X131830771Y-93945152D01*
X131926009Y-93897533D01*
X132164104Y-93897533D01*
X132259342Y-93945152D01*
X132306961Y-93992771D01*
X132354580Y-94088009D01*
X132354580Y-94373723D01*
X132306961Y-94468961D01*
X132259342Y-94516580D01*
X134660095Y-85542380D02*
X134660095Y-84542380D01*
X135041047Y-84542380D01*
X135136285Y-84590000D01*
X135183904Y-84637619D01*
X135231523Y-84732857D01*
X135231523Y-84875714D01*
X135183904Y-84970952D01*
X135136285Y-85018571D01*
X135041047Y-85066190D01*
X134660095Y-85066190D01*
X135802952Y-85542380D02*
X135707714Y-85494761D01*
X135660095Y-85447142D01*
X135612476Y-85351904D01*
X135612476Y-85066190D01*
X135660095Y-84970952D01*
X135707714Y-84923333D01*
X135802952Y-84875714D01*
X135945809Y-84875714D01*
X136041047Y-84923333D01*
X136088666Y-84970952D01*
X136136285Y-85066190D01*
X136136285Y-85351904D01*
X136088666Y-85447142D01*
X136041047Y-85494761D01*
X135945809Y-85542380D01*
X135802952Y-85542380D01*
X136469619Y-84875714D02*
X136660095Y-85542380D01*
X136850571Y-85066190D01*
X137041047Y-85542380D01*
X137231523Y-84875714D01*
X137993428Y-85494761D02*
X137898190Y-85542380D01*
X137707714Y-85542380D01*
X137612476Y-85494761D01*
X137564857Y-85399523D01*
X137564857Y-85018571D01*
X137612476Y-84923333D01*
X137707714Y-84875714D01*
X137898190Y-84875714D01*
X137993428Y-84923333D01*
X138041047Y-85018571D01*
X138041047Y-85113809D01*
X137564857Y-85209047D01*
X138469619Y-85542380D02*
X138469619Y-84875714D01*
X138469619Y-85066190D02*
X138517238Y-84970952D01*
X138564857Y-84923333D01*
X138660095Y-84875714D01*
X138755333Y-84875714D01*
X140326761Y-84542380D02*
X139850571Y-84542380D01*
X139802952Y-85018571D01*
X139850571Y-84970952D01*
X139945809Y-84923333D01*
X140183904Y-84923333D01*
X140279142Y-84970952D01*
X140326761Y-85018571D01*
X140374380Y-85113809D01*
X140374380Y-85351904D01*
X140326761Y-85447142D01*
X140279142Y-85494761D01*
X140183904Y-85542380D01*
X139945809Y-85542380D01*
X139850571Y-85494761D01*
X139802952Y-85447142D01*
X140660095Y-84542380D02*
X140993428Y-85542380D01*
X141326761Y-84542380D01*
%TO.C,U1*%
X83291220Y-91917424D02*
X84100744Y-91917424D01*
X84195982Y-91869805D01*
X84243601Y-91822186D01*
X84291220Y-91726948D01*
X84291220Y-91536472D01*
X84243601Y-91441234D01*
X84195982Y-91393615D01*
X84100744Y-91345996D01*
X83291220Y-91345996D01*
X84291220Y-90345996D02*
X84291220Y-90917424D01*
X84291220Y-90631710D02*
X83291220Y-90631710D01*
X83434078Y-90726948D01*
X83529316Y-90822186D01*
X83576935Y-90917424D01*
X58126380Y-84851047D02*
X59126380Y-84612952D01*
X58412095Y-84422476D01*
X59126380Y-84232000D01*
X58126380Y-83993904D01*
X59078761Y-83232000D02*
X59126380Y-83327238D01*
X59126380Y-83517714D01*
X59078761Y-83612952D01*
X58983523Y-83660571D01*
X58602571Y-83660571D01*
X58507333Y-83612952D01*
X58459714Y-83517714D01*
X58459714Y-83327238D01*
X58507333Y-83232000D01*
X58602571Y-83184380D01*
X58697809Y-83184380D01*
X58793047Y-83660571D01*
X59126380Y-82755809D02*
X58126380Y-82755809D01*
X58840666Y-82422476D01*
X58126380Y-82089142D01*
X59126380Y-82089142D01*
X59126380Y-81470095D02*
X59078761Y-81565333D01*
X59031142Y-81612952D01*
X58935904Y-81660571D01*
X58650190Y-81660571D01*
X58554952Y-81612952D01*
X58507333Y-81565333D01*
X58459714Y-81470095D01*
X58459714Y-81327238D01*
X58507333Y-81232000D01*
X58554952Y-81184380D01*
X58650190Y-81136761D01*
X58935904Y-81136761D01*
X59031142Y-81184380D01*
X59078761Y-81232000D01*
X59126380Y-81327238D01*
X59126380Y-81470095D01*
X59078761Y-80755809D02*
X59126380Y-80660571D01*
X59126380Y-80470095D01*
X59078761Y-80374857D01*
X58983523Y-80327238D01*
X58935904Y-80327238D01*
X58840666Y-80374857D01*
X58793047Y-80470095D01*
X58793047Y-80612952D01*
X58745428Y-80708190D01*
X58650190Y-80755809D01*
X58602571Y-80755809D01*
X58507333Y-80708190D01*
X58459714Y-80612952D01*
X58459714Y-80470095D01*
X58507333Y-80374857D01*
X59221619Y-80136761D02*
X59221619Y-79374857D01*
X59126380Y-79136761D02*
X58126380Y-79136761D01*
X58126380Y-78898666D01*
X58174000Y-78755809D01*
X58269238Y-78660571D01*
X58364476Y-78612952D01*
X58554952Y-78565333D01*
X58697809Y-78565333D01*
X58888285Y-78612952D01*
X58983523Y-78660571D01*
X59078761Y-78755809D01*
X59126380Y-78898666D01*
X59126380Y-79136761D01*
X59126380Y-77612952D02*
X59126380Y-78184380D01*
X59126380Y-77898666D02*
X58126380Y-77898666D01*
X58269238Y-77993904D01*
X58364476Y-78089142D01*
X58412095Y-78184380D01*
X59221619Y-77422476D02*
X59221619Y-76660571D01*
X59126380Y-76422476D02*
X58459714Y-76422476D01*
X58554952Y-76422476D02*
X58507333Y-76374857D01*
X58459714Y-76279619D01*
X58459714Y-76136761D01*
X58507333Y-76041523D01*
X58602571Y-75993904D01*
X59126380Y-75993904D01*
X58602571Y-75993904D02*
X58507333Y-75946285D01*
X58459714Y-75851047D01*
X58459714Y-75708190D01*
X58507333Y-75612952D01*
X58602571Y-75565333D01*
X59126380Y-75565333D01*
X59126380Y-75089142D02*
X58459714Y-75089142D01*
X58126380Y-75089142D02*
X58174000Y-75136761D01*
X58221619Y-75089142D01*
X58174000Y-75041523D01*
X58126380Y-75089142D01*
X58221619Y-75089142D01*
X58459714Y-74612952D02*
X59126380Y-74612952D01*
X58554952Y-74612952D02*
X58507333Y-74565333D01*
X58459714Y-74470095D01*
X58459714Y-74327238D01*
X58507333Y-74232000D01*
X58602571Y-74184380D01*
X59126380Y-74184380D01*
X59126380Y-73708190D02*
X58459714Y-73708190D01*
X58126380Y-73708190D02*
X58174000Y-73755809D01*
X58221619Y-73708190D01*
X58174000Y-73660571D01*
X58126380Y-73708190D01*
X58221619Y-73708190D01*
%TO.C,R2*%
X64978540Y-84586106D02*
X64502350Y-84919440D01*
X64978540Y-85157535D02*
X63978540Y-85157535D01*
X63978540Y-84776582D01*
X64026160Y-84681344D01*
X64073779Y-84633725D01*
X64169017Y-84586106D01*
X64311874Y-84586106D01*
X64407112Y-84633725D01*
X64454731Y-84681344D01*
X64502350Y-84776582D01*
X64502350Y-85157535D01*
X64073779Y-84205154D02*
X64026160Y-84157535D01*
X63978540Y-84062297D01*
X63978540Y-83824201D01*
X64026160Y-83728963D01*
X64073779Y-83681344D01*
X64169017Y-83633725D01*
X64264255Y-83633725D01*
X64407112Y-83681344D01*
X64978540Y-84252773D01*
X64978540Y-83633725D01*
X64026819Y-80798800D02*
X63979200Y-80751180D01*
X63931580Y-80655942D01*
X63931580Y-80417847D01*
X63979200Y-80322609D01*
X64026819Y-80274990D01*
X64122057Y-80227371D01*
X64217295Y-80227371D01*
X64360152Y-80274990D01*
X64931580Y-80846419D01*
X64931580Y-80227371D01*
X64836342Y-79798800D02*
X64883961Y-79751180D01*
X64931580Y-79798800D01*
X64883961Y-79846419D01*
X64836342Y-79798800D01*
X64931580Y-79798800D01*
X64026819Y-79370228D02*
X63979200Y-79322609D01*
X63931580Y-79227371D01*
X63931580Y-78989276D01*
X63979200Y-78894038D01*
X64026819Y-78846419D01*
X64122057Y-78798800D01*
X64217295Y-78798800D01*
X64360152Y-78846419D01*
X64931580Y-79417847D01*
X64931580Y-78798800D01*
X64931580Y-78370228D02*
X63931580Y-78370228D01*
X64931580Y-77798800D02*
X64360152Y-78227371D01*
X63931580Y-77798800D02*
X64503009Y-78370228D01*
%TO.C,R1*%
X70155060Y-84682626D02*
X69678870Y-85015960D01*
X70155060Y-85254055D02*
X69155060Y-85254055D01*
X69155060Y-84873102D01*
X69202680Y-84777864D01*
X69250299Y-84730245D01*
X69345537Y-84682626D01*
X69488394Y-84682626D01*
X69583632Y-84730245D01*
X69631251Y-84777864D01*
X69678870Y-84873102D01*
X69678870Y-85254055D01*
X70155060Y-83730245D02*
X70155060Y-84301674D01*
X70155060Y-84015960D02*
X69155060Y-84015960D01*
X69297918Y-84111198D01*
X69393156Y-84206436D01*
X69440775Y-84301674D01*
X68940419Y-80621000D02*
X68892800Y-80573380D01*
X68845180Y-80478142D01*
X68845180Y-80240047D01*
X68892800Y-80144809D01*
X68940419Y-80097190D01*
X69035657Y-80049571D01*
X69130895Y-80049571D01*
X69273752Y-80097190D01*
X69845180Y-80668619D01*
X69845180Y-80049571D01*
X69749942Y-79621000D02*
X69797561Y-79573380D01*
X69845180Y-79621000D01*
X69797561Y-79668619D01*
X69749942Y-79621000D01*
X69845180Y-79621000D01*
X68940419Y-79192428D02*
X68892800Y-79144809D01*
X68845180Y-79049571D01*
X68845180Y-78811476D01*
X68892800Y-78716238D01*
X68940419Y-78668619D01*
X69035657Y-78621000D01*
X69130895Y-78621000D01*
X69273752Y-78668619D01*
X69845180Y-79240047D01*
X69845180Y-78621000D01*
X69845180Y-78192428D02*
X68845180Y-78192428D01*
X69845180Y-77621000D02*
X69273752Y-78049571D01*
X68845180Y-77621000D02*
X69416609Y-78192428D01*
%TO.C,C2*%
X102830333Y-61774342D02*
X102782714Y-61821961D01*
X102639857Y-61869580D01*
X102544619Y-61869580D01*
X102401761Y-61821961D01*
X102306523Y-61726723D01*
X102258904Y-61631485D01*
X102211285Y-61441009D01*
X102211285Y-61298152D01*
X102258904Y-61107676D01*
X102306523Y-61012438D01*
X102401761Y-60917200D01*
X102544619Y-60869580D01*
X102639857Y-60869580D01*
X102782714Y-60917200D01*
X102830333Y-60964819D01*
X103211285Y-60964819D02*
X103258904Y-60917200D01*
X103354142Y-60869580D01*
X103592238Y-60869580D01*
X103687476Y-60917200D01*
X103735095Y-60964819D01*
X103782714Y-61060057D01*
X103782714Y-61155295D01*
X103735095Y-61298152D01*
X103163666Y-61869580D01*
X103782714Y-61869580D01*
X101049342Y-59650380D02*
X101144580Y-59650380D01*
X101239819Y-59698000D01*
X101287438Y-59745619D01*
X101335057Y-59840857D01*
X101382676Y-60031333D01*
X101382676Y-60269428D01*
X101335057Y-60459904D01*
X101287438Y-60555142D01*
X101239819Y-60602761D01*
X101144580Y-60650380D01*
X101049342Y-60650380D01*
X100954104Y-60602761D01*
X100906485Y-60555142D01*
X100858866Y-60459904D01*
X100811247Y-60269428D01*
X100811247Y-60031333D01*
X100858866Y-59840857D01*
X100906485Y-59745619D01*
X100954104Y-59698000D01*
X101049342Y-59650380D01*
X101811247Y-60555142D02*
X101858866Y-60602761D01*
X101811247Y-60650380D01*
X101763628Y-60602761D01*
X101811247Y-60555142D01*
X101811247Y-60650380D01*
X102811247Y-60650380D02*
X102239819Y-60650380D01*
X102525533Y-60650380D02*
X102525533Y-59650380D01*
X102430295Y-59793238D01*
X102335057Y-59888476D01*
X102239819Y-59936095D01*
X103668390Y-59983714D02*
X103668390Y-60650380D01*
X103239819Y-59983714D02*
X103239819Y-60507523D01*
X103287438Y-60602761D01*
X103382676Y-60650380D01*
X103525533Y-60650380D01*
X103620771Y-60602761D01*
X103668390Y-60555142D01*
X104477914Y-60126571D02*
X104144580Y-60126571D01*
X104144580Y-60650380D02*
X104144580Y-59650380D01*
X104620771Y-59650380D01*
%TO.C,C1*%
X74783333Y-76263142D02*
X74735714Y-76310761D01*
X74592857Y-76358380D01*
X74497619Y-76358380D01*
X74354761Y-76310761D01*
X74259523Y-76215523D01*
X74211904Y-76120285D01*
X74164285Y-75929809D01*
X74164285Y-75786952D01*
X74211904Y-75596476D01*
X74259523Y-75501238D01*
X74354761Y-75406000D01*
X74497619Y-75358380D01*
X74592857Y-75358380D01*
X74735714Y-75406000D01*
X74783333Y-75453619D01*
X75735714Y-76358380D02*
X75164285Y-76358380D01*
X75450000Y-76358380D02*
X75450000Y-75358380D01*
X75354761Y-75501238D01*
X75259523Y-75596476D01*
X75164285Y-75644095D01*
X73307142Y-70358380D02*
X73402380Y-70358380D01*
X73497619Y-70406000D01*
X73545238Y-70453619D01*
X73592857Y-70548857D01*
X73640476Y-70739333D01*
X73640476Y-70977428D01*
X73592857Y-71167904D01*
X73545238Y-71263142D01*
X73497619Y-71310761D01*
X73402380Y-71358380D01*
X73307142Y-71358380D01*
X73211904Y-71310761D01*
X73164285Y-71263142D01*
X73116666Y-71167904D01*
X73069047Y-70977428D01*
X73069047Y-70739333D01*
X73116666Y-70548857D01*
X73164285Y-70453619D01*
X73211904Y-70406000D01*
X73307142Y-70358380D01*
X74069047Y-71263142D02*
X74116666Y-71310761D01*
X74069047Y-71358380D01*
X74021428Y-71310761D01*
X74069047Y-71263142D01*
X74069047Y-71358380D01*
X75069047Y-71358380D02*
X74497619Y-71358380D01*
X74783333Y-71358380D02*
X74783333Y-70358380D01*
X74688095Y-70501238D01*
X74592857Y-70596476D01*
X74497619Y-70644095D01*
X75926190Y-70691714D02*
X75926190Y-71358380D01*
X75497619Y-70691714D02*
X75497619Y-71215523D01*
X75545238Y-71310761D01*
X75640476Y-71358380D01*
X75783333Y-71358380D01*
X75878571Y-71310761D01*
X75926190Y-71263142D01*
X76735714Y-70834571D02*
X76402380Y-70834571D01*
X76402380Y-71358380D02*
X76402380Y-70358380D01*
X76878571Y-70358380D01*
%TO.C,AK1*%
X106786514Y-73293266D02*
X107262704Y-73293266D01*
X106691276Y-73578980D02*
X107024609Y-72578980D01*
X107357942Y-73578980D01*
X107691276Y-73578980D02*
X107691276Y-72578980D01*
X108262704Y-73578980D02*
X107834133Y-73007552D01*
X108262704Y-72578980D02*
X107691276Y-73150409D01*
X109215085Y-73578980D02*
X108643657Y-73578980D01*
X108929371Y-73578980D02*
X108929371Y-72578980D01*
X108834133Y-72721838D01*
X108738895Y-72817076D01*
X108643657Y-72864695D01*
X96879304Y-71540666D02*
X97355495Y-71540666D01*
X96784066Y-71826380D02*
X97117400Y-70826380D01*
X97450733Y-71826380D01*
X97784066Y-71826380D02*
X97784066Y-70826380D01*
X98355495Y-71826380D02*
X97926923Y-71254952D01*
X98355495Y-70826380D02*
X97784066Y-71397809D01*
X98784066Y-71445428D02*
X99545971Y-71445428D01*
X100022161Y-71826380D02*
X100022161Y-70826380D01*
X100260257Y-70826380D01*
X100403114Y-70874000D01*
X100498352Y-70969238D01*
X100545971Y-71064476D01*
X100593590Y-71254952D01*
X100593590Y-71397809D01*
X100545971Y-71588285D01*
X100498352Y-71683523D01*
X100403114Y-71778761D01*
X100260257Y-71826380D01*
X100022161Y-71826380D01*
X100974542Y-71778761D02*
X101117400Y-71826380D01*
X101355495Y-71826380D01*
X101450733Y-71778761D01*
X101498352Y-71731142D01*
X101545971Y-71635904D01*
X101545971Y-71540666D01*
X101498352Y-71445428D01*
X101450733Y-71397809D01*
X101355495Y-71350190D01*
X101165019Y-71302571D01*
X101069780Y-71254952D01*
X101022161Y-71207333D01*
X100974542Y-71112095D01*
X100974542Y-71016857D01*
X101022161Y-70921619D01*
X101069780Y-70874000D01*
X101165019Y-70826380D01*
X101403114Y-70826380D01*
X101545971Y-70874000D01*
X101926923Y-70921619D02*
X101974542Y-70874000D01*
X102069780Y-70826380D01*
X102307876Y-70826380D01*
X102403114Y-70874000D01*
X102450733Y-70921619D01*
X102498352Y-71016857D01*
X102498352Y-71112095D01*
X102450733Y-71254952D01*
X101879304Y-71826380D01*
X102498352Y-71826380D01*
X103355495Y-71159714D02*
X103355495Y-71826380D01*
X103117400Y-70778761D02*
X102879304Y-71493047D01*
X103498352Y-71493047D01*
X104022161Y-71254952D02*
X103926923Y-71207333D01*
X103879304Y-71159714D01*
X103831685Y-71064476D01*
X103831685Y-71016857D01*
X103879304Y-70921619D01*
X103926923Y-70874000D01*
X104022161Y-70826380D01*
X104212638Y-70826380D01*
X104307876Y-70874000D01*
X104355495Y-70921619D01*
X104403114Y-71016857D01*
X104403114Y-71064476D01*
X104355495Y-71159714D01*
X104307876Y-71207333D01*
X104212638Y-71254952D01*
X104022161Y-71254952D01*
X103926923Y-71302571D01*
X103879304Y-71350190D01*
X103831685Y-71445428D01*
X103831685Y-71635904D01*
X103879304Y-71731142D01*
X103926923Y-71778761D01*
X104022161Y-71826380D01*
X104212638Y-71826380D01*
X104307876Y-71778761D01*
X104355495Y-71731142D01*
X104403114Y-71635904D01*
X104403114Y-71445428D01*
X104355495Y-71350190D01*
X104307876Y-71302571D01*
X104212638Y-71254952D01*
X104784066Y-70921619D02*
X104831685Y-70874000D01*
X104926923Y-70826380D01*
X105165019Y-70826380D01*
X105260257Y-70874000D01*
X105307876Y-70921619D01*
X105355495Y-71016857D01*
X105355495Y-71112095D01*
X105307876Y-71254952D01*
X104736447Y-71826380D01*
X105355495Y-71826380D01*
X93073600Y-57556304D02*
X93025980Y-57651542D01*
X93025980Y-57794400D01*
X93073600Y-57937257D01*
X93168838Y-58032495D01*
X93264076Y-58080114D01*
X93454552Y-58127733D01*
X93597409Y-58127733D01*
X93787885Y-58080114D01*
X93883123Y-58032495D01*
X93978361Y-57937257D01*
X94025980Y-57794400D01*
X94025980Y-57699161D01*
X93978361Y-57556304D01*
X93930742Y-57508685D01*
X93597409Y-57508685D01*
X93597409Y-57699161D01*
X94025980Y-57080114D02*
X93025980Y-57080114D01*
X94025980Y-56508685D01*
X93025980Y-56508685D01*
X94025980Y-56032495D02*
X93025980Y-56032495D01*
X93025980Y-55794400D01*
X93073600Y-55651542D01*
X93168838Y-55556304D01*
X93264076Y-55508685D01*
X93454552Y-55461066D01*
X93597409Y-55461066D01*
X93787885Y-55508685D01*
X93883123Y-55556304D01*
X93978361Y-55651542D01*
X94025980Y-55794400D01*
X94025980Y-56032495D01*
X96642180Y-59794400D02*
X96642180Y-60365828D01*
X96642180Y-60080114D02*
X95642180Y-60080114D01*
X95785038Y-60175352D01*
X95880276Y-60270590D01*
X95927895Y-60365828D01*
X96261228Y-59365828D02*
X96261228Y-58603924D01*
X95642180Y-58222971D02*
X96642180Y-57984876D01*
X95927895Y-57794400D01*
X96642180Y-57603924D01*
X95642180Y-57365828D01*
X96642180Y-56984876D02*
X95975514Y-56984876D01*
X95642180Y-56984876D02*
X95689800Y-57032495D01*
X95737419Y-56984876D01*
X95689800Y-56937257D01*
X95642180Y-56984876D01*
X95737419Y-56984876D01*
X96642180Y-56508686D02*
X95975514Y-56508686D01*
X96165990Y-56508686D02*
X96070752Y-56461067D01*
X96023133Y-56413448D01*
X95975514Y-56318209D01*
X95975514Y-56222971D01*
X96594561Y-55508686D02*
X96642180Y-55603924D01*
X96642180Y-55794400D01*
X96594561Y-55889638D01*
X96499323Y-55937257D01*
X96118371Y-55937257D01*
X96023133Y-55889638D01*
X95975514Y-55794400D01*
X95975514Y-55603924D01*
X96023133Y-55508686D01*
X96118371Y-55461067D01*
X96213609Y-55461067D01*
X96308847Y-55937257D01*
X98794866Y-56889638D02*
X98794866Y-56413448D01*
X99080580Y-56984876D02*
X98080580Y-56651543D01*
X99080580Y-56318210D01*
X98080580Y-55794400D02*
X98080580Y-55699162D01*
X98128200Y-55603924D01*
X98175819Y-55556305D01*
X98271057Y-55508686D01*
X98461533Y-55461067D01*
X98699628Y-55461067D01*
X98890104Y-55508686D01*
X98985342Y-55556305D01*
X99032961Y-55603924D01*
X99080580Y-55699162D01*
X99080580Y-55794400D01*
X99032961Y-55889638D01*
X98985342Y-55937257D01*
X98890104Y-55984876D01*
X98699628Y-56032495D01*
X98461533Y-56032495D01*
X98271057Y-55984876D01*
X98175819Y-55937257D01*
X98128200Y-55889638D01*
X98080580Y-55794400D01*
X101436466Y-56889638D02*
X101436466Y-56413448D01*
X101722180Y-56984876D02*
X100722180Y-56651543D01*
X101722180Y-56318210D01*
X101722180Y-55461067D02*
X101722180Y-56032495D01*
X101722180Y-55746781D02*
X100722180Y-55746781D01*
X100865038Y-55842019D01*
X100960276Y-55937257D01*
X101007895Y-56032495D01*
X103960561Y-57889638D02*
X104008180Y-57746781D01*
X104008180Y-57508686D01*
X103960561Y-57413448D01*
X103912942Y-57365829D01*
X103817704Y-57318210D01*
X103722466Y-57318210D01*
X103627228Y-57365829D01*
X103579609Y-57413448D01*
X103531990Y-57508686D01*
X103484371Y-57699162D01*
X103436752Y-57794400D01*
X103389133Y-57842019D01*
X103293895Y-57889638D01*
X103198657Y-57889638D01*
X103103419Y-57842019D01*
X103055800Y-57794400D01*
X103008180Y-57699162D01*
X103008180Y-57461067D01*
X103055800Y-57318210D01*
X104008180Y-56889638D02*
X103008180Y-56889638D01*
X103008180Y-56651543D01*
X103055800Y-56508686D01*
X103151038Y-56413448D01*
X103246276Y-56365829D01*
X103436752Y-56318210D01*
X103579609Y-56318210D01*
X103770085Y-56365829D01*
X103865323Y-56413448D01*
X103960561Y-56508686D01*
X104008180Y-56651543D01*
X104008180Y-56889638D01*
X103722466Y-55937257D02*
X103722466Y-55461067D01*
X104008180Y-56032495D02*
X103008180Y-55699162D01*
X104008180Y-55365829D01*
X106500561Y-57842019D02*
X106548180Y-57699162D01*
X106548180Y-57461066D01*
X106500561Y-57365828D01*
X106452942Y-57318209D01*
X106357704Y-57270590D01*
X106262466Y-57270590D01*
X106167228Y-57318209D01*
X106119609Y-57365828D01*
X106071990Y-57461066D01*
X106024371Y-57651543D01*
X105976752Y-57746781D01*
X105929133Y-57794400D01*
X105833895Y-57842019D01*
X105738657Y-57842019D01*
X105643419Y-57794400D01*
X105595800Y-57746781D01*
X105548180Y-57651543D01*
X105548180Y-57413447D01*
X105595800Y-57270590D01*
X106452942Y-56270590D02*
X106500561Y-56318209D01*
X106548180Y-56461066D01*
X106548180Y-56556304D01*
X106500561Y-56699162D01*
X106405323Y-56794400D01*
X106310085Y-56842019D01*
X106119609Y-56889638D01*
X105976752Y-56889638D01*
X105786276Y-56842019D01*
X105691038Y-56794400D01*
X105595800Y-56699162D01*
X105548180Y-56556304D01*
X105548180Y-56461066D01*
X105595800Y-56318209D01*
X105643419Y-56270590D01*
X106548180Y-55365828D02*
X106548180Y-55842019D01*
X105548180Y-55842019D01*
X108215180Y-58032495D02*
X109215180Y-57699162D01*
X108215180Y-57365828D01*
X109119942Y-56461066D02*
X109167561Y-56508685D01*
X109215180Y-56651542D01*
X109215180Y-56746781D01*
X109167561Y-56889638D01*
X109072323Y-56984876D01*
X108977085Y-57032495D01*
X108786609Y-57080114D01*
X108643752Y-57080114D01*
X108453276Y-57032495D01*
X108358038Y-56984876D01*
X108262800Y-56889638D01*
X108215180Y-56746781D01*
X108215180Y-56651542D01*
X108262800Y-56508685D01*
X108310419Y-56461066D01*
X109119942Y-55461066D02*
X109167561Y-55508685D01*
X109215180Y-55651542D01*
X109215180Y-55746781D01*
X109167561Y-55889638D01*
X109072323Y-55984876D01*
X108977085Y-56032495D01*
X108786609Y-56080114D01*
X108643752Y-56080114D01*
X108453276Y-56032495D01*
X108358038Y-55984876D01*
X108262800Y-55889638D01*
X108215180Y-55746781D01*
X108215180Y-55651542D01*
X108262800Y-55508685D01*
X108310419Y-55461066D01*
%TD*%
M02*
