%TF.GenerationSoftware,KiCad,Pcbnew,7.0.9*%
%TF.CreationDate,2023-11-24T07:46:00-06:00*%
%TF.ProjectId,TM13,544d3133-2e6b-4696-9361-645f70636258,rev?*%
%TF.SameCoordinates,Original*%
%TF.FileFunction,Soldermask,Top*%
%TF.FilePolarity,Negative*%
%FSLAX46Y46*%
G04 Gerber Fmt 4.6, Leading zero omitted, Abs format (unit mm)*
G04 Created by KiCad (PCBNEW 7.0.9) date 2023-11-24 07:46:00*
%MOMM*%
%LPD*%
G01*
G04 APERTURE LIST*
G04 Aperture macros list*
%AMRoundRect*
0 Rectangle with rounded corners*
0 $1 Rounding radius*
0 $2 $3 $4 $5 $6 $7 $8 $9 X,Y pos of 4 corners*
0 Add a 4 corners polygon primitive as box body*
4,1,4,$2,$3,$4,$5,$6,$7,$8,$9,$2,$3,0*
0 Add four circle primitives for the rounded corners*
1,1,$1+$1,$2,$3*
1,1,$1+$1,$4,$5*
1,1,$1+$1,$6,$7*
1,1,$1+$1,$8,$9*
0 Add four rect primitives between the rounded corners*
20,1,$1+$1,$2,$3,$4,$5,0*
20,1,$1+$1,$4,$5,$6,$7,0*
20,1,$1+$1,$6,$7,$8,$9,0*
20,1,$1+$1,$8,$9,$2,$3,0*%
G04 Aperture macros list end*
%ADD10R,4.400000X1.800000*%
%ADD11O,4.000000X1.800000*%
%ADD12O,1.800000X4.000000*%
%ADD13RoundRect,0.150000X0.587500X0.150000X-0.587500X0.150000X-0.587500X-0.150000X0.587500X-0.150000X0*%
%ADD14R,0.950000X1.750000*%
%ADD15R,3.250000X1.750000*%
%ADD16RoundRect,0.200000X-0.275000X0.200000X-0.275000X-0.200000X0.275000X-0.200000X0.275000X0.200000X0*%
%ADD17RoundRect,0.200000X0.275000X-0.200000X0.275000X0.200000X-0.275000X0.200000X-0.275000X-0.200000X0*%
%ADD18R,0.850000X0.300000*%
%ADD19R,1.700000X1.700000*%
%ADD20O,1.700000X1.700000*%
%ADD21C,3.200000*%
%ADD22RoundRect,0.250000X-0.475000X0.250000X-0.475000X-0.250000X0.475000X-0.250000X0.475000X0.250000X0*%
%ADD23R,2.600000X2.600000*%
%ADD24C,2.600000*%
%ADD25RoundRect,0.250000X-1.000000X1.950000X-1.000000X-1.950000X1.000000X-1.950000X1.000000X1.950000X0*%
%ADD26RoundRect,0.200000X0.200000X0.275000X-0.200000X0.275000X-0.200000X-0.275000X0.200000X-0.275000X0*%
%ADD27R,1.500000X0.450000*%
%ADD28O,1.100000X2.000000*%
%ADD29O,1.100000X2.200000*%
%ADD30RoundRect,0.102000X-0.609600X0.317500X-0.609600X-0.317500X0.609600X-0.317500X0.609600X0.317500X0*%
%ADD31RoundRect,0.243750X0.456250X-0.243750X0.456250X0.243750X-0.456250X0.243750X-0.456250X-0.243750X0*%
%ADD32RoundRect,0.150000X-0.587500X-0.150000X0.587500X-0.150000X0.587500X0.150000X-0.587500X0.150000X0*%
%ADD33RoundRect,0.250000X0.475000X-0.250000X0.475000X0.250000X-0.475000X0.250000X-0.475000X-0.250000X0*%
%ADD34RoundRect,0.250000X-1.950000X-1.000000X1.950000X-1.000000X1.950000X1.000000X-1.950000X1.000000X0*%
%ADD35RoundRect,0.150000X-0.825000X-0.150000X0.825000X-0.150000X0.825000X0.150000X-0.825000X0.150000X0*%
%ADD36RoundRect,0.250000X-0.250000X-0.475000X0.250000X-0.475000X0.250000X0.475000X-0.250000X0.475000X0*%
%ADD37R,3.000000X3.000000*%
%ADD38C,3.000000*%
%ADD39R,5.400000X2.900000*%
%ADD40R,1.100000X2.600000*%
%ADD41R,1.800000X1.800000*%
%ADD42R,1.460500X0.533400*%
%ADD43R,1.050000X3.210000*%
%ADD44R,10.530000X8.460000*%
%ADD45RoundRect,0.250000X1.000000X0.650000X-1.000000X0.650000X-1.000000X-0.650000X1.000000X-0.650000X0*%
%ADD46RoundRect,0.250000X0.250000X0.475000X-0.250000X0.475000X-0.250000X-0.475000X0.250000X-0.475000X0*%
G04 APERTURE END LIST*
D10*
%TO.C,J4*%
X57800000Y-26750000D03*
D11*
X57800000Y-32550000D03*
D12*
X62600000Y-29750000D03*
%TD*%
D13*
%TO.C,Q3*%
X42037500Y-60550000D03*
X42037500Y-58650000D03*
X40162500Y-59600000D03*
%TD*%
D14*
%TO.C,IC2*%
X84700000Y-80450000D03*
X87000000Y-80450000D03*
X89300000Y-80450000D03*
D15*
X87000000Y-74150000D03*
%TD*%
D16*
%TO.C,R13*%
X77700000Y-57575000D03*
X77700000Y-59225000D03*
%TD*%
D17*
%TO.C,R11*%
X42000000Y-65025000D03*
X42000000Y-63375000D03*
%TD*%
D18*
%TO.C,IC1*%
X61875000Y-57550000D03*
X61875000Y-57050000D03*
X61875000Y-56550000D03*
X61875000Y-56050000D03*
X58725000Y-56050000D03*
X58725000Y-56550000D03*
X58725000Y-57050000D03*
X58725000Y-57550000D03*
%TD*%
D17*
%TO.C,R8*%
X53200000Y-59525000D03*
X53200000Y-57875000D03*
%TD*%
D19*
%TO.C,J2*%
X24800000Y-53575000D03*
D20*
X24800000Y-56115000D03*
X24800000Y-58655000D03*
%TD*%
D21*
%TO.C,*%
X23500000Y-92500000D03*
%TD*%
D22*
%TO.C,C1*%
X64100000Y-87050000D03*
X64100000Y-88950000D03*
%TD*%
D23*
%TO.C,KF2*%
X24821190Y-30015000D03*
X32441190Y-30015000D03*
D24*
X24821190Y-35095000D03*
X32441190Y-35095000D03*
X24821190Y-40175000D03*
X32441190Y-40175000D03*
X24821190Y-45255000D03*
X32441190Y-45255000D03*
%TD*%
D25*
%TO.C,C9*%
X73000000Y-45300000D03*
X73000000Y-53700000D03*
%TD*%
D21*
%TO.C,*%
X92500000Y-23500000D03*
%TD*%
D17*
%TO.C,R12*%
X45500000Y-59525000D03*
X45500000Y-57875000D03*
%TD*%
D26*
%TO.C,R4*%
X67125000Y-57500000D03*
X65475000Y-57500000D03*
%TD*%
D27*
%TO.C,J5*%
X67310000Y-76962000D03*
X67310000Y-77612000D03*
X67310000Y-78262000D03*
X67310000Y-78912000D03*
X67310000Y-79562000D03*
D28*
X67560000Y-75462000D03*
D29*
X67560000Y-81062000D03*
X65410000Y-78262000D03*
%TD*%
D13*
%TO.C,Q4*%
X42137500Y-54450000D03*
X42137500Y-52550000D03*
X40262500Y-53500000D03*
%TD*%
D30*
%TO.C,U4*%
X28499800Y-61630000D03*
X28499800Y-62900000D03*
X28499800Y-64170000D03*
X31700200Y-64170000D03*
X31700200Y-62900000D03*
X31700200Y-61630000D03*
%TD*%
D31*
%TO.C,D4*%
X77700000Y-63637500D03*
X77700000Y-61762500D03*
%TD*%
D26*
%TO.C,R3*%
X67125000Y-60500000D03*
X65475000Y-60500000D03*
%TD*%
D16*
%TO.C,R10*%
X58700000Y-52775000D03*
X58700000Y-54425000D03*
%TD*%
D32*
%TO.C,Q2*%
X76462500Y-86350000D03*
X76462500Y-88250000D03*
X78337500Y-87300000D03*
%TD*%
D33*
%TO.C,C3*%
X81800000Y-72650000D03*
X81800000Y-70750000D03*
%TD*%
D34*
%TO.C,C10*%
X83100000Y-54700000D03*
X91500000Y-54700000D03*
%TD*%
D35*
%TO.C,U2*%
X73050000Y-72610000D03*
X73050000Y-73880000D03*
X73050000Y-75150000D03*
X73050000Y-76420000D03*
X73050000Y-77690000D03*
X73050000Y-78960000D03*
X73050000Y-80230000D03*
X73050000Y-81500000D03*
X78000000Y-81500000D03*
X78000000Y-80230000D03*
X78000000Y-78960000D03*
X78000000Y-77690000D03*
X78000000Y-76420000D03*
X78000000Y-75150000D03*
X78000000Y-73880000D03*
X78000000Y-72610000D03*
%TD*%
D21*
%TO.C,*%
X92500000Y-92500000D03*
%TD*%
D19*
%TO.C,J3*%
X36100000Y-58625000D03*
D20*
X36100000Y-56085000D03*
X36100000Y-53545000D03*
%TD*%
D23*
%TO.C,KF1*%
X24735476Y-67915000D03*
X32355476Y-67915000D03*
D24*
X24735476Y-72995000D03*
X32355476Y-72995000D03*
X24735476Y-78075000D03*
X32355476Y-78075000D03*
X24735476Y-83155000D03*
X32355476Y-83155000D03*
%TD*%
D17*
%TO.C,R7*%
X55800000Y-89800000D03*
X55800000Y-88150000D03*
%TD*%
D36*
%TO.C,C6*%
X87100000Y-84100000D03*
X89000000Y-84100000D03*
%TD*%
D26*
%TO.C,R6*%
X59725000Y-65600000D03*
X58075000Y-65600000D03*
%TD*%
D37*
%TO.C,F1*%
X45495000Y-42305000D03*
D38*
X49495000Y-42305000D03*
X45495000Y-28305000D03*
X49495000Y-28305000D03*
%TD*%
D22*
%TO.C,C7*%
X93000000Y-80450000D03*
X93000000Y-82350000D03*
%TD*%
D39*
%TO.C,L1*%
X88400000Y-35050000D03*
X88400000Y-44950000D03*
%TD*%
D22*
%TO.C,C2*%
X59900000Y-86950000D03*
X59900000Y-88850000D03*
%TD*%
D40*
%TO.C,U1*%
X45900000Y-83400000D03*
X47900000Y-83400000D03*
X49900000Y-83400000D03*
X51900000Y-83400000D03*
X53900000Y-83400000D03*
X55900000Y-83400000D03*
X57900000Y-83400000D03*
X59900000Y-83400000D03*
X59900000Y-68000000D03*
X57900000Y-68000000D03*
X55900000Y-68000000D03*
X53900000Y-68000000D03*
X51900000Y-68000000D03*
X49900000Y-68000000D03*
X47900000Y-68000000D03*
X45900000Y-68000000D03*
%TD*%
D41*
%TO.C,D3*%
X82800000Y-30400000D03*
X82800000Y-26400000D03*
%TD*%
D36*
%TO.C,C4*%
X47350000Y-48300000D03*
X49250000Y-48300000D03*
%TD*%
D42*
%TO.C,U3*%
X49575850Y-50595000D03*
X49575850Y-51865000D03*
X49575850Y-53135000D03*
X49575850Y-54405000D03*
X55024150Y-54405000D03*
X55024150Y-53135000D03*
X55024150Y-51865000D03*
X55024150Y-50595000D03*
%TD*%
D13*
%TO.C,Q1*%
X72337500Y-88250000D03*
X72337500Y-86350000D03*
X70462500Y-87300000D03*
%TD*%
D26*
%TO.C,R5*%
X55725000Y-65600000D03*
X54075000Y-65600000D03*
%TD*%
D17*
%TO.C,R9*%
X49350000Y-59525000D03*
X49350000Y-57875000D03*
%TD*%
D43*
%TO.C,IC3*%
X69000000Y-38730000D03*
X70700000Y-38730000D03*
X72400000Y-38730000D03*
X74100000Y-38730000D03*
X75800000Y-38730000D03*
D44*
X72400000Y-29100000D03*
%TD*%
D16*
%TO.C,R1*%
X45900000Y-88150000D03*
X45900000Y-89800000D03*
%TD*%
%TO.C,R2*%
X49900000Y-88150000D03*
X49900000Y-89800000D03*
%TD*%
D45*
%TO.C,D2*%
X61800000Y-46400000D03*
X57800000Y-46400000D03*
%TD*%
D21*
%TO.C,*%
X23500000Y-23500000D03*
%TD*%
D46*
%TO.C,C8*%
X67550000Y-42500000D03*
X65650000Y-42500000D03*
%TD*%
D33*
%TO.C,C5*%
X67800000Y-88250000D03*
X67800000Y-86350000D03*
%TD*%
M02*
