G04 #@! TF.GenerationSoftware,KiCad,Pcbnew,(5.1.2)-2*
G04 #@! TF.CreationDate,2020-02-16T14:31:34-06:00*
G04 #@! TF.ProjectId,TempMonitor8PCB,54656d70-4d6f-46e6-9974-6f7238504342,rev?*
G04 #@! TF.SameCoordinates,Original*
G04 #@! TF.FileFunction,Copper,L2,Bot*
G04 #@! TF.FilePolarity,Positive*
%FSLAX46Y46*%
G04 Gerber Fmt 4.6, Leading zero omitted, Abs format (unit mm)*
G04 Created by KiCad (PCBNEW (5.1.2)-2) date 2020-02-16 14:31:34*
%MOMM*%
%LPD*%
G04 APERTURE LIST*
%ADD10R,1.600000X1.600000*%
%ADD11O,1.600000X1.600000*%
%ADD12O,1.700000X1.700000*%
%ADD13R,1.700000X1.700000*%
%ADD14C,2.000000*%
%ADD15R,2.000000X2.000000*%
%ADD16C,2.600000*%
%ADD17C,3.500000*%
%ADD18C,1.590000*%
%ADD19C,1.600000*%
%ADD20C,1.700000*%
%ADD21C,1.800000*%
%ADD22R,1.800000X1.800000*%
%ADD23C,1.500000*%
%ADD24R,1.500000X1.500000*%
%ADD25C,1.524000*%
%ADD26C,0.254000*%
G04 APERTURE END LIST*
D10*
X116840000Y-53848000D03*
D11*
X132080000Y-86868000D03*
X116840000Y-56388000D03*
X132080000Y-84328000D03*
X116840000Y-58928000D03*
X132080000Y-81788000D03*
X116840000Y-61468000D03*
X132080000Y-79248000D03*
X116840000Y-64008000D03*
X132080000Y-76708000D03*
X116840000Y-66548000D03*
X132080000Y-74168000D03*
X116840000Y-69088000D03*
X132080000Y-71628000D03*
X116840000Y-71628000D03*
X132080000Y-69088000D03*
X116840000Y-74168000D03*
X132080000Y-66548000D03*
X116840000Y-76708000D03*
X132080000Y-64008000D03*
X116840000Y-79248000D03*
X132080000Y-61468000D03*
X116840000Y-81788000D03*
X132080000Y-58928000D03*
X116840000Y-84328000D03*
X132080000Y-56388000D03*
X116840000Y-86868000D03*
X132080000Y-53848000D03*
X116840000Y-89408000D03*
X132080000Y-89408000D03*
D12*
X153162000Y-111252000D03*
D13*
X153162000Y-108712000D03*
D14*
X145542000Y-60372000D03*
D15*
X145542000Y-55372000D03*
D16*
X168228000Y-107322000D03*
X168228000Y-102322000D03*
D17*
X146812000Y-50000000D03*
X162052000Y-50000000D03*
D18*
X141143524Y-67345000D03*
X143683524Y-67345000D03*
X146223524Y-67345000D03*
D19*
X151130000Y-69048000D03*
X151130000Y-66548000D03*
X136906000Y-63460000D03*
X136906000Y-60960000D03*
D14*
X163322000Y-60372000D03*
D15*
X163322000Y-55372000D03*
D19*
X140208000Y-113244000D03*
X140208000Y-110744000D03*
X136906000Y-52872000D03*
X136906000Y-55372000D03*
D11*
X141732000Y-98298000D03*
D19*
X151892000Y-98298000D03*
D20*
X135666000Y-98714000D03*
X135666000Y-101254000D03*
X135666000Y-103794000D03*
X135666000Y-106334000D03*
X135666000Y-108874000D03*
X135666000Y-111414000D03*
X135666000Y-113954000D03*
D21*
X145034000Y-103378000D03*
D22*
X145034000Y-105918000D03*
D23*
X156449000Y-86245000D03*
X158989000Y-87515000D03*
X156449000Y-88785000D03*
X158989000Y-90055000D03*
X156449000Y-91325000D03*
X158989000Y-92595000D03*
X156449000Y-93865000D03*
D24*
X158989000Y-95135000D03*
D25*
X148590000Y-93472000D03*
X148590000Y-90932000D03*
X148590000Y-88392000D03*
X148590000Y-85852000D03*
X148590000Y-83312000D03*
X148590000Y-80772000D03*
X138430000Y-93472000D03*
X138430000Y-90932000D03*
X138430000Y-88392000D03*
X138430000Y-85852000D03*
X138430000Y-83312000D03*
X138430000Y-80772000D03*
D23*
X156464000Y-67564000D03*
X159004000Y-68834000D03*
X156464000Y-70104000D03*
X159004000Y-71374000D03*
X156464000Y-72644000D03*
X159004000Y-73914000D03*
X156464000Y-75184000D03*
D24*
X159004000Y-76454000D03*
D26*
G36*
X173340001Y-49516962D02*
G01*
X173340000Y-113967721D01*
X173334496Y-114023851D01*
X171417632Y-116294598D01*
X170985664Y-116340000D01*
X118585651Y-116340000D01*
X114660000Y-113635662D01*
X114660000Y-112779872D01*
X116129000Y-112779872D01*
X116129000Y-113220128D01*
X116214890Y-113651925D01*
X116383369Y-114058669D01*
X116627962Y-114424729D01*
X116939271Y-114736038D01*
X117305331Y-114980631D01*
X117712075Y-115149110D01*
X118143872Y-115235000D01*
X118584128Y-115235000D01*
X119015925Y-115149110D01*
X119422669Y-114980631D01*
X119788729Y-114736038D01*
X120100038Y-114424729D01*
X120344631Y-114058669D01*
X120513110Y-113651925D01*
X120599000Y-113220128D01*
X120599000Y-112779872D01*
X120513110Y-112348075D01*
X120344631Y-111941331D01*
X120100038Y-111575271D01*
X119788729Y-111263962D01*
X119422669Y-111019369D01*
X119015925Y-110850890D01*
X118584128Y-110765000D01*
X118143872Y-110765000D01*
X117712075Y-110850890D01*
X117305331Y-111019369D01*
X116939271Y-111263962D01*
X116627962Y-111575271D01*
X116383369Y-111941331D01*
X116214890Y-112348075D01*
X116129000Y-112779872D01*
X114660000Y-112779872D01*
X114660000Y-101107740D01*
X134181000Y-101107740D01*
X134181000Y-101400260D01*
X134238068Y-101687158D01*
X134350010Y-101957411D01*
X134512525Y-102200632D01*
X134719368Y-102407475D01*
X134893760Y-102524000D01*
X134719368Y-102640525D01*
X134512525Y-102847368D01*
X134350010Y-103090589D01*
X134238068Y-103360842D01*
X134181000Y-103647740D01*
X134181000Y-103940260D01*
X134238068Y-104227158D01*
X134350010Y-104497411D01*
X134512525Y-104740632D01*
X134719368Y-104947475D01*
X134893760Y-105064000D01*
X134719368Y-105180525D01*
X134512525Y-105387368D01*
X134350010Y-105630589D01*
X134238068Y-105900842D01*
X134181000Y-106187740D01*
X134181000Y-106480260D01*
X134238068Y-106767158D01*
X134350010Y-107037411D01*
X134512525Y-107280632D01*
X134719368Y-107487475D01*
X134893760Y-107604000D01*
X134719368Y-107720525D01*
X134512525Y-107927368D01*
X134350010Y-108170589D01*
X134238068Y-108440842D01*
X134181000Y-108727740D01*
X134181000Y-109020260D01*
X134238068Y-109307158D01*
X134350010Y-109577411D01*
X134512525Y-109820632D01*
X134719368Y-110027475D01*
X134893760Y-110144000D01*
X134719368Y-110260525D01*
X134512525Y-110467368D01*
X134350010Y-110710589D01*
X134238068Y-110980842D01*
X134181000Y-111267740D01*
X134181000Y-111560260D01*
X134238068Y-111847158D01*
X134350010Y-112117411D01*
X134512525Y-112360632D01*
X134719368Y-112567475D01*
X134893760Y-112684000D01*
X134719368Y-112800525D01*
X134512525Y-113007368D01*
X134350010Y-113250589D01*
X134238068Y-113520842D01*
X134181000Y-113807740D01*
X134181000Y-114100260D01*
X134238068Y-114387158D01*
X134350010Y-114657411D01*
X134512525Y-114900632D01*
X134719368Y-115107475D01*
X134962589Y-115269990D01*
X135232842Y-115381932D01*
X135519740Y-115439000D01*
X135812260Y-115439000D01*
X136099158Y-115381932D01*
X136369411Y-115269990D01*
X136612632Y-115107475D01*
X136819475Y-114900632D01*
X136981990Y-114657411D01*
X137093932Y-114387158D01*
X137123859Y-114236702D01*
X139394903Y-114236702D01*
X139466486Y-114480671D01*
X139721996Y-114601571D01*
X139996184Y-114670300D01*
X140278512Y-114684217D01*
X140558130Y-114642787D01*
X140824292Y-114547603D01*
X140949514Y-114480671D01*
X141021097Y-114236702D01*
X140208000Y-113423605D01*
X139394903Y-114236702D01*
X137123859Y-114236702D01*
X137151000Y-114100260D01*
X137151000Y-113807740D01*
X137093932Y-113520842D01*
X137008468Y-113314512D01*
X138767783Y-113314512D01*
X138809213Y-113594130D01*
X138904397Y-113860292D01*
X138971329Y-113985514D01*
X139215298Y-114057097D01*
X140028395Y-113244000D01*
X140387605Y-113244000D01*
X141200702Y-114057097D01*
X141444671Y-113985514D01*
X141565571Y-113730004D01*
X141634300Y-113455816D01*
X141648217Y-113173488D01*
X141606787Y-112893870D01*
X141566020Y-112779872D01*
X167437000Y-112779872D01*
X167437000Y-113220128D01*
X167522890Y-113651925D01*
X167691369Y-114058669D01*
X167935962Y-114424729D01*
X168247271Y-114736038D01*
X168613331Y-114980631D01*
X169020075Y-115149110D01*
X169451872Y-115235000D01*
X169892128Y-115235000D01*
X170323925Y-115149110D01*
X170730669Y-114980631D01*
X171096729Y-114736038D01*
X171408038Y-114424729D01*
X171652631Y-114058669D01*
X171821110Y-113651925D01*
X171907000Y-113220128D01*
X171907000Y-112779872D01*
X171821110Y-112348075D01*
X171652631Y-111941331D01*
X171408038Y-111575271D01*
X171096729Y-111263962D01*
X170730669Y-111019369D01*
X170323925Y-110850890D01*
X169892128Y-110765000D01*
X169451872Y-110765000D01*
X169020075Y-110850890D01*
X168613331Y-111019369D01*
X168247271Y-111263962D01*
X167935962Y-111575271D01*
X167691369Y-111941331D01*
X167522890Y-112348075D01*
X167437000Y-112779872D01*
X141566020Y-112779872D01*
X141511603Y-112627708D01*
X141444671Y-112502486D01*
X141200702Y-112430903D01*
X140387605Y-113244000D01*
X140028395Y-113244000D01*
X139215298Y-112430903D01*
X138971329Y-112502486D01*
X138850429Y-112757996D01*
X138781700Y-113032184D01*
X138767783Y-113314512D01*
X137008468Y-113314512D01*
X136981990Y-113250589D01*
X136819475Y-113007368D01*
X136612632Y-112800525D01*
X136438240Y-112684000D01*
X136612632Y-112567475D01*
X136819475Y-112360632D01*
X136981990Y-112117411D01*
X137093932Y-111847158D01*
X137151000Y-111560260D01*
X137151000Y-111267740D01*
X137093932Y-110980842D01*
X136981990Y-110710589D01*
X136909878Y-110602665D01*
X138773000Y-110602665D01*
X138773000Y-110885335D01*
X138828147Y-111162574D01*
X138936320Y-111423727D01*
X139093363Y-111658759D01*
X139293241Y-111858637D01*
X139493869Y-111992692D01*
X139466486Y-112007329D01*
X139394903Y-112251298D01*
X140208000Y-113064395D01*
X141021097Y-112251298D01*
X140949514Y-112007329D01*
X140920659Y-111993676D01*
X141122759Y-111858637D01*
X141322637Y-111658759D01*
X141479680Y-111423727D01*
X141550811Y-111252000D01*
X151669815Y-111252000D01*
X151698487Y-111543111D01*
X151783401Y-111823034D01*
X151921294Y-112081014D01*
X152106866Y-112307134D01*
X152332986Y-112492706D01*
X152590966Y-112630599D01*
X152870889Y-112715513D01*
X153089050Y-112737000D01*
X153234950Y-112737000D01*
X153453111Y-112715513D01*
X153733034Y-112630599D01*
X153991014Y-112492706D01*
X154217134Y-112307134D01*
X154402706Y-112081014D01*
X154540599Y-111823034D01*
X154625513Y-111543111D01*
X154654185Y-111252000D01*
X154625513Y-110960889D01*
X154540599Y-110680966D01*
X154402706Y-110422986D01*
X154217134Y-110196866D01*
X154187313Y-110172393D01*
X154256180Y-110151502D01*
X154366494Y-110092537D01*
X154463185Y-110013185D01*
X154542537Y-109916494D01*
X154601502Y-109806180D01*
X154637812Y-109686482D01*
X154650072Y-109562000D01*
X154650072Y-108671224D01*
X167058381Y-108671224D01*
X167190317Y-108966312D01*
X167531045Y-109137159D01*
X167898557Y-109238250D01*
X168278729Y-109265701D01*
X168656951Y-109218457D01*
X169018690Y-109098333D01*
X169265683Y-108966312D01*
X169397619Y-108671224D01*
X168228000Y-107501605D01*
X167058381Y-108671224D01*
X154650072Y-108671224D01*
X154650072Y-107862000D01*
X154637812Y-107737518D01*
X154601502Y-107617820D01*
X154542537Y-107507506D01*
X154463185Y-107410815D01*
X154416777Y-107372729D01*
X166284299Y-107372729D01*
X166331543Y-107750951D01*
X166451667Y-108112690D01*
X166583688Y-108359683D01*
X166878776Y-108491619D01*
X168048395Y-107322000D01*
X168407605Y-107322000D01*
X169577224Y-108491619D01*
X169872312Y-108359683D01*
X170043159Y-108018955D01*
X170144250Y-107651443D01*
X170171701Y-107271271D01*
X170124457Y-106893049D01*
X170004333Y-106531310D01*
X169872312Y-106284317D01*
X169577224Y-106152381D01*
X168407605Y-107322000D01*
X168048395Y-107322000D01*
X166878776Y-106152381D01*
X166583688Y-106284317D01*
X166412841Y-106625045D01*
X166311750Y-106992557D01*
X166284299Y-107372729D01*
X154416777Y-107372729D01*
X154366494Y-107331463D01*
X154256180Y-107272498D01*
X154136482Y-107236188D01*
X154012000Y-107223928D01*
X152312000Y-107223928D01*
X152187518Y-107236188D01*
X152067820Y-107272498D01*
X151957506Y-107331463D01*
X151860815Y-107410815D01*
X151781463Y-107507506D01*
X151722498Y-107617820D01*
X151686188Y-107737518D01*
X151673928Y-107862000D01*
X151673928Y-109562000D01*
X151686188Y-109686482D01*
X151722498Y-109806180D01*
X151781463Y-109916494D01*
X151860815Y-110013185D01*
X151957506Y-110092537D01*
X152067820Y-110151502D01*
X152136687Y-110172393D01*
X152106866Y-110196866D01*
X151921294Y-110422986D01*
X151783401Y-110680966D01*
X151698487Y-110960889D01*
X151669815Y-111252000D01*
X141550811Y-111252000D01*
X141587853Y-111162574D01*
X141643000Y-110885335D01*
X141643000Y-110602665D01*
X141587853Y-110325426D01*
X141479680Y-110064273D01*
X141322637Y-109829241D01*
X141122759Y-109629363D01*
X140887727Y-109472320D01*
X140626574Y-109364147D01*
X140349335Y-109309000D01*
X140066665Y-109309000D01*
X139789426Y-109364147D01*
X139528273Y-109472320D01*
X139293241Y-109629363D01*
X139093363Y-109829241D01*
X138936320Y-110064273D01*
X138828147Y-110325426D01*
X138773000Y-110602665D01*
X136909878Y-110602665D01*
X136819475Y-110467368D01*
X136612632Y-110260525D01*
X136438240Y-110144000D01*
X136612632Y-110027475D01*
X136819475Y-109820632D01*
X136981990Y-109577411D01*
X137093932Y-109307158D01*
X137151000Y-109020260D01*
X137151000Y-108727740D01*
X137093932Y-108440842D01*
X136981990Y-108170589D01*
X136819475Y-107927368D01*
X136612632Y-107720525D01*
X136438240Y-107604000D01*
X136612632Y-107487475D01*
X136819475Y-107280632D01*
X136981990Y-107037411D01*
X137072872Y-106818000D01*
X143495928Y-106818000D01*
X143508188Y-106942482D01*
X143544498Y-107062180D01*
X143603463Y-107172494D01*
X143682815Y-107269185D01*
X143779506Y-107348537D01*
X143889820Y-107407502D01*
X144009518Y-107443812D01*
X144134000Y-107456072D01*
X144748250Y-107453000D01*
X144907000Y-107294250D01*
X144907000Y-106045000D01*
X145161000Y-106045000D01*
X145161000Y-107294250D01*
X145319750Y-107453000D01*
X145934000Y-107456072D01*
X146058482Y-107443812D01*
X146178180Y-107407502D01*
X146288494Y-107348537D01*
X146385185Y-107269185D01*
X146464537Y-107172494D01*
X146523502Y-107062180D01*
X146559812Y-106942482D01*
X146572072Y-106818000D01*
X146569000Y-106203750D01*
X146410250Y-106045000D01*
X145161000Y-106045000D01*
X144907000Y-106045000D01*
X143657750Y-106045000D01*
X143499000Y-106203750D01*
X143495928Y-106818000D01*
X137072872Y-106818000D01*
X137093932Y-106767158D01*
X137151000Y-106480260D01*
X137151000Y-106187740D01*
X137108241Y-105972776D01*
X167058381Y-105972776D01*
X168228000Y-107142395D01*
X169397619Y-105972776D01*
X169265683Y-105677688D01*
X168924955Y-105506841D01*
X168557443Y-105405750D01*
X168177271Y-105378299D01*
X167799049Y-105425543D01*
X167437310Y-105545667D01*
X167190317Y-105677688D01*
X167058381Y-105972776D01*
X137108241Y-105972776D01*
X137093932Y-105900842D01*
X136981990Y-105630589D01*
X136819475Y-105387368D01*
X136612632Y-105180525D01*
X136438240Y-105064000D01*
X136507083Y-105018000D01*
X143495928Y-105018000D01*
X143499000Y-105632250D01*
X143657750Y-105791000D01*
X144907000Y-105791000D01*
X144907000Y-105771000D01*
X145161000Y-105771000D01*
X145161000Y-105791000D01*
X146410250Y-105791000D01*
X146569000Y-105632250D01*
X146572072Y-105018000D01*
X146559812Y-104893518D01*
X146523502Y-104773820D01*
X146464537Y-104663506D01*
X146385185Y-104566815D01*
X146288494Y-104487463D01*
X146178180Y-104428498D01*
X146159873Y-104422944D01*
X146226312Y-104356505D01*
X146394299Y-104105095D01*
X146510011Y-103825743D01*
X146569000Y-103529184D01*
X146569000Y-103226816D01*
X146510011Y-102930257D01*
X146394299Y-102650905D01*
X146226312Y-102399495D01*
X146012505Y-102185688D01*
X145931286Y-102131419D01*
X166293000Y-102131419D01*
X166293000Y-102512581D01*
X166367361Y-102886419D01*
X166513225Y-103238566D01*
X166724987Y-103555491D01*
X166994509Y-103825013D01*
X167311434Y-104036775D01*
X167663581Y-104182639D01*
X168037419Y-104257000D01*
X168418581Y-104257000D01*
X168792419Y-104182639D01*
X169144566Y-104036775D01*
X169461491Y-103825013D01*
X169731013Y-103555491D01*
X169942775Y-103238566D01*
X170088639Y-102886419D01*
X170163000Y-102512581D01*
X170163000Y-102131419D01*
X170088639Y-101757581D01*
X169942775Y-101405434D01*
X169731013Y-101088509D01*
X169461491Y-100818987D01*
X169144566Y-100607225D01*
X168792419Y-100461361D01*
X168418581Y-100387000D01*
X168037419Y-100387000D01*
X167663581Y-100461361D01*
X167311434Y-100607225D01*
X166994509Y-100818987D01*
X166724987Y-101088509D01*
X166513225Y-101405434D01*
X166367361Y-101757581D01*
X166293000Y-102131419D01*
X145931286Y-102131419D01*
X145761095Y-102017701D01*
X145481743Y-101901989D01*
X145185184Y-101843000D01*
X144882816Y-101843000D01*
X144586257Y-101901989D01*
X144306905Y-102017701D01*
X144055495Y-102185688D01*
X143841688Y-102399495D01*
X143673701Y-102650905D01*
X143557989Y-102930257D01*
X143499000Y-103226816D01*
X143499000Y-103529184D01*
X143557989Y-103825743D01*
X143673701Y-104105095D01*
X143841688Y-104356505D01*
X143908127Y-104422944D01*
X143889820Y-104428498D01*
X143779506Y-104487463D01*
X143682815Y-104566815D01*
X143603463Y-104663506D01*
X143544498Y-104773820D01*
X143508188Y-104893518D01*
X143495928Y-105018000D01*
X136507083Y-105018000D01*
X136612632Y-104947475D01*
X136819475Y-104740632D01*
X136981990Y-104497411D01*
X137093932Y-104227158D01*
X137151000Y-103940260D01*
X137151000Y-103647740D01*
X137093932Y-103360842D01*
X136981990Y-103090589D01*
X136819475Y-102847368D01*
X136612632Y-102640525D01*
X136438240Y-102524000D01*
X136612632Y-102407475D01*
X136819475Y-102200632D01*
X136981990Y-101957411D01*
X137093932Y-101687158D01*
X137151000Y-101400260D01*
X137151000Y-101107740D01*
X137093932Y-100820842D01*
X136981990Y-100550589D01*
X136819475Y-100307368D01*
X136612632Y-100100525D01*
X136439271Y-99984689D01*
X136514792Y-99742397D01*
X135666000Y-98893605D01*
X134817208Y-99742397D01*
X134892729Y-99984689D01*
X134719368Y-100100525D01*
X134512525Y-100307368D01*
X134350010Y-100550589D01*
X134238068Y-100820842D01*
X134181000Y-101107740D01*
X114660000Y-101107740D01*
X114660000Y-98782531D01*
X134175389Y-98782531D01*
X134217401Y-99072019D01*
X134315081Y-99347747D01*
X134388528Y-99485157D01*
X134637603Y-99562792D01*
X135486395Y-98714000D01*
X135845605Y-98714000D01*
X136694397Y-99562792D01*
X136943472Y-99485157D01*
X137069371Y-99221117D01*
X137141339Y-98937589D01*
X137156611Y-98645469D01*
X137114599Y-98355981D01*
X137094059Y-98298000D01*
X140290057Y-98298000D01*
X140317764Y-98579309D01*
X140399818Y-98849808D01*
X140533068Y-99099101D01*
X140712392Y-99317608D01*
X140930899Y-99496932D01*
X141180192Y-99630182D01*
X141450691Y-99712236D01*
X141661508Y-99733000D01*
X141802492Y-99733000D01*
X142013309Y-99712236D01*
X142283808Y-99630182D01*
X142533101Y-99496932D01*
X142751608Y-99317608D01*
X142930932Y-99099101D01*
X143064182Y-98849808D01*
X143146236Y-98579309D01*
X143173943Y-98298000D01*
X143160023Y-98156665D01*
X150457000Y-98156665D01*
X150457000Y-98439335D01*
X150512147Y-98716574D01*
X150620320Y-98977727D01*
X150777363Y-99212759D01*
X150977241Y-99412637D01*
X151212273Y-99569680D01*
X151473426Y-99677853D01*
X151750665Y-99733000D01*
X152033335Y-99733000D01*
X152310574Y-99677853D01*
X152571727Y-99569680D01*
X152806759Y-99412637D01*
X153006637Y-99212759D01*
X153163680Y-98977727D01*
X153271853Y-98716574D01*
X153327000Y-98439335D01*
X153327000Y-98156665D01*
X153271853Y-97879426D01*
X153163680Y-97618273D01*
X153006637Y-97383241D01*
X152806759Y-97183363D01*
X152571727Y-97026320D01*
X152310574Y-96918147D01*
X152033335Y-96863000D01*
X151750665Y-96863000D01*
X151473426Y-96918147D01*
X151212273Y-97026320D01*
X150977241Y-97183363D01*
X150777363Y-97383241D01*
X150620320Y-97618273D01*
X150512147Y-97879426D01*
X150457000Y-98156665D01*
X143160023Y-98156665D01*
X143146236Y-98016691D01*
X143064182Y-97746192D01*
X142930932Y-97496899D01*
X142751608Y-97278392D01*
X142533101Y-97099068D01*
X142283808Y-96965818D01*
X142013309Y-96883764D01*
X141802492Y-96863000D01*
X141661508Y-96863000D01*
X141450691Y-96883764D01*
X141180192Y-96965818D01*
X140930899Y-97099068D01*
X140712392Y-97278392D01*
X140533068Y-97496899D01*
X140399818Y-97746192D01*
X140317764Y-98016691D01*
X140290057Y-98298000D01*
X137094059Y-98298000D01*
X137016919Y-98080253D01*
X136943472Y-97942843D01*
X136694397Y-97865208D01*
X135845605Y-98714000D01*
X135486395Y-98714000D01*
X134637603Y-97865208D01*
X134388528Y-97942843D01*
X134262629Y-98206883D01*
X134190661Y-98490411D01*
X134175389Y-98782531D01*
X114660000Y-98782531D01*
X114660000Y-97685603D01*
X134817208Y-97685603D01*
X135666000Y-98534395D01*
X136514792Y-97685603D01*
X136437157Y-97436528D01*
X136173117Y-97310629D01*
X135889589Y-97238661D01*
X135597469Y-97223389D01*
X135307981Y-97265401D01*
X135032253Y-97363081D01*
X134894843Y-97436528D01*
X134817208Y-97685603D01*
X114660000Y-97685603D01*
X114660000Y-64008000D01*
X115398057Y-64008000D01*
X115425764Y-64289309D01*
X115507818Y-64559808D01*
X115641068Y-64809101D01*
X115820392Y-65027608D01*
X116038899Y-65206932D01*
X116171858Y-65278000D01*
X116038899Y-65349068D01*
X115820392Y-65528392D01*
X115641068Y-65746899D01*
X115507818Y-65996192D01*
X115425764Y-66266691D01*
X115398057Y-66548000D01*
X115425764Y-66829309D01*
X115507818Y-67099808D01*
X115641068Y-67349101D01*
X115820392Y-67567608D01*
X116038899Y-67746932D01*
X116171858Y-67818000D01*
X116038899Y-67889068D01*
X115820392Y-68068392D01*
X115641068Y-68286899D01*
X115507818Y-68536192D01*
X115425764Y-68806691D01*
X115398057Y-69088000D01*
X115425764Y-69369309D01*
X115507818Y-69639808D01*
X115641068Y-69889101D01*
X115820392Y-70107608D01*
X116038899Y-70286932D01*
X116171858Y-70358000D01*
X116038899Y-70429068D01*
X115820392Y-70608392D01*
X115641068Y-70826899D01*
X115507818Y-71076192D01*
X115425764Y-71346691D01*
X115398057Y-71628000D01*
X115425764Y-71909309D01*
X115507818Y-72179808D01*
X115641068Y-72429101D01*
X115820392Y-72647608D01*
X116038899Y-72826932D01*
X116171858Y-72898000D01*
X116038899Y-72969068D01*
X115820392Y-73148392D01*
X115641068Y-73366899D01*
X115507818Y-73616192D01*
X115425764Y-73886691D01*
X115398057Y-74168000D01*
X115425764Y-74449309D01*
X115507818Y-74719808D01*
X115641068Y-74969101D01*
X115820392Y-75187608D01*
X116038899Y-75366932D01*
X116171858Y-75438000D01*
X116038899Y-75509068D01*
X115820392Y-75688392D01*
X115641068Y-75906899D01*
X115507818Y-76156192D01*
X115425764Y-76426691D01*
X115398057Y-76708000D01*
X115425764Y-76989309D01*
X115507818Y-77259808D01*
X115641068Y-77509101D01*
X115820392Y-77727608D01*
X116038899Y-77906932D01*
X116171858Y-77978000D01*
X116038899Y-78049068D01*
X115820392Y-78228392D01*
X115641068Y-78446899D01*
X115507818Y-78696192D01*
X115425764Y-78966691D01*
X115398057Y-79248000D01*
X115425764Y-79529309D01*
X115507818Y-79799808D01*
X115641068Y-80049101D01*
X115820392Y-80267608D01*
X116038899Y-80446932D01*
X116171858Y-80518000D01*
X116038899Y-80589068D01*
X115820392Y-80768392D01*
X115641068Y-80986899D01*
X115507818Y-81236192D01*
X115425764Y-81506691D01*
X115398057Y-81788000D01*
X115425764Y-82069309D01*
X115507818Y-82339808D01*
X115641068Y-82589101D01*
X115820392Y-82807608D01*
X116038899Y-82986932D01*
X116171858Y-83058000D01*
X116038899Y-83129068D01*
X115820392Y-83308392D01*
X115641068Y-83526899D01*
X115507818Y-83776192D01*
X115425764Y-84046691D01*
X115398057Y-84328000D01*
X115425764Y-84609309D01*
X115507818Y-84879808D01*
X115641068Y-85129101D01*
X115820392Y-85347608D01*
X116038899Y-85526932D01*
X116171858Y-85598000D01*
X116038899Y-85669068D01*
X115820392Y-85848392D01*
X115641068Y-86066899D01*
X115507818Y-86316192D01*
X115425764Y-86586691D01*
X115398057Y-86868000D01*
X115425764Y-87149309D01*
X115507818Y-87419808D01*
X115641068Y-87669101D01*
X115820392Y-87887608D01*
X116038899Y-88066932D01*
X116171858Y-88138000D01*
X116038899Y-88209068D01*
X115820392Y-88388392D01*
X115641068Y-88606899D01*
X115507818Y-88856192D01*
X115425764Y-89126691D01*
X115398057Y-89408000D01*
X115425764Y-89689309D01*
X115507818Y-89959808D01*
X115641068Y-90209101D01*
X115820392Y-90427608D01*
X116038899Y-90606932D01*
X116288192Y-90740182D01*
X116558691Y-90822236D01*
X116769508Y-90843000D01*
X116910492Y-90843000D01*
X117121309Y-90822236D01*
X117391808Y-90740182D01*
X117641101Y-90606932D01*
X117859608Y-90427608D01*
X118038932Y-90209101D01*
X118172182Y-89959808D01*
X118254236Y-89689309D01*
X118281943Y-89408000D01*
X118254236Y-89126691D01*
X118172182Y-88856192D01*
X118038932Y-88606899D01*
X117859608Y-88388392D01*
X117641101Y-88209068D01*
X117508142Y-88138000D01*
X117641101Y-88066932D01*
X117859608Y-87887608D01*
X118038932Y-87669101D01*
X118172182Y-87419808D01*
X118254236Y-87149309D01*
X118281943Y-86868000D01*
X118254236Y-86586691D01*
X118172182Y-86316192D01*
X118038932Y-86066899D01*
X117859608Y-85848392D01*
X117641101Y-85669068D01*
X117508142Y-85598000D01*
X117641101Y-85526932D01*
X117859608Y-85347608D01*
X118038932Y-85129101D01*
X118172182Y-84879808D01*
X118254236Y-84609309D01*
X118281943Y-84328000D01*
X118254236Y-84046691D01*
X118172182Y-83776192D01*
X118038932Y-83526899D01*
X117859608Y-83308392D01*
X117641101Y-83129068D01*
X117508142Y-83058000D01*
X117641101Y-82986932D01*
X117859608Y-82807608D01*
X118038932Y-82589101D01*
X118172182Y-82339808D01*
X118254236Y-82069309D01*
X118281943Y-81788000D01*
X118254236Y-81506691D01*
X118172182Y-81236192D01*
X118038932Y-80986899D01*
X117859608Y-80768392D01*
X117641101Y-80589068D01*
X117508142Y-80518000D01*
X117641101Y-80446932D01*
X117859608Y-80267608D01*
X118038932Y-80049101D01*
X118172182Y-79799808D01*
X118254236Y-79529309D01*
X118281943Y-79248000D01*
X118254236Y-78966691D01*
X118172182Y-78696192D01*
X118038932Y-78446899D01*
X117859608Y-78228392D01*
X117641101Y-78049068D01*
X117508142Y-77978000D01*
X117641101Y-77906932D01*
X117859608Y-77727608D01*
X118038932Y-77509101D01*
X118172182Y-77259808D01*
X118254236Y-76989309D01*
X118281943Y-76708000D01*
X118254236Y-76426691D01*
X118172182Y-76156192D01*
X118038932Y-75906899D01*
X117859608Y-75688392D01*
X117641101Y-75509068D01*
X117508142Y-75438000D01*
X117641101Y-75366932D01*
X117859608Y-75187608D01*
X118038932Y-74969101D01*
X118172182Y-74719808D01*
X118254236Y-74449309D01*
X118281943Y-74168000D01*
X118254236Y-73886691D01*
X118172182Y-73616192D01*
X118038932Y-73366899D01*
X117859608Y-73148392D01*
X117641101Y-72969068D01*
X117508142Y-72898000D01*
X117641101Y-72826932D01*
X117859608Y-72647608D01*
X118038932Y-72429101D01*
X118172182Y-72179808D01*
X118254236Y-71909309D01*
X118281943Y-71628000D01*
X118254236Y-71346691D01*
X118172182Y-71076192D01*
X118038932Y-70826899D01*
X117859608Y-70608392D01*
X117641101Y-70429068D01*
X117508142Y-70358000D01*
X117641101Y-70286932D01*
X117859608Y-70107608D01*
X118038932Y-69889101D01*
X118172182Y-69639808D01*
X118254236Y-69369309D01*
X118281943Y-69088000D01*
X118254236Y-68806691D01*
X118172182Y-68536192D01*
X118038932Y-68286899D01*
X117859608Y-68068392D01*
X117641101Y-67889068D01*
X117508142Y-67818000D01*
X117641101Y-67746932D01*
X117859608Y-67567608D01*
X118038932Y-67349101D01*
X118172182Y-67099808D01*
X118254236Y-66829309D01*
X118281943Y-66548000D01*
X118254236Y-66266691D01*
X118172182Y-65996192D01*
X118038932Y-65746899D01*
X117859608Y-65528392D01*
X117641101Y-65349068D01*
X117508142Y-65278000D01*
X117641101Y-65206932D01*
X117859608Y-65027608D01*
X118038932Y-64809101D01*
X118172182Y-64559808D01*
X118254236Y-64289309D01*
X118281943Y-64008000D01*
X118254236Y-63726691D01*
X118172182Y-63456192D01*
X118038932Y-63206899D01*
X117859608Y-62988392D01*
X117641101Y-62809068D01*
X117503318Y-62735421D01*
X117695131Y-62620385D01*
X117903519Y-62431414D01*
X118071037Y-62205420D01*
X118191246Y-61951087D01*
X118231904Y-61817039D01*
X118109915Y-61595000D01*
X116967000Y-61595000D01*
X116967000Y-61615000D01*
X116713000Y-61615000D01*
X116713000Y-61595000D01*
X115570085Y-61595000D01*
X115448096Y-61817039D01*
X115488754Y-61951087D01*
X115608963Y-62205420D01*
X115776481Y-62431414D01*
X115984869Y-62620385D01*
X116176682Y-62735421D01*
X116038899Y-62809068D01*
X115820392Y-62988392D01*
X115641068Y-63206899D01*
X115507818Y-63456192D01*
X115425764Y-63726691D01*
X115398057Y-64008000D01*
X114660000Y-64008000D01*
X114660000Y-56591202D01*
X114660604Y-56388000D01*
X115398057Y-56388000D01*
X115425764Y-56669309D01*
X115507818Y-56939808D01*
X115641068Y-57189101D01*
X115820392Y-57407608D01*
X116038899Y-57586932D01*
X116171858Y-57658000D01*
X116038899Y-57729068D01*
X115820392Y-57908392D01*
X115641068Y-58126899D01*
X115507818Y-58376192D01*
X115425764Y-58646691D01*
X115398057Y-58928000D01*
X115425764Y-59209309D01*
X115507818Y-59479808D01*
X115641068Y-59729101D01*
X115820392Y-59947608D01*
X116038899Y-60126932D01*
X116176682Y-60200579D01*
X115984869Y-60315615D01*
X115776481Y-60504586D01*
X115608963Y-60730580D01*
X115488754Y-60984913D01*
X115448096Y-61118961D01*
X115570085Y-61341000D01*
X116713000Y-61341000D01*
X116713000Y-61321000D01*
X116967000Y-61321000D01*
X116967000Y-61341000D01*
X118109915Y-61341000D01*
X118231904Y-61118961D01*
X118191246Y-60984913D01*
X118071037Y-60730580D01*
X117903519Y-60504586D01*
X117695131Y-60315615D01*
X117503318Y-60200579D01*
X117641101Y-60126932D01*
X117859608Y-59947608D01*
X118038932Y-59729101D01*
X118172182Y-59479808D01*
X118254236Y-59209309D01*
X118281943Y-58928000D01*
X130638057Y-58928000D01*
X130665764Y-59209309D01*
X130747818Y-59479808D01*
X130881068Y-59729101D01*
X131060392Y-59947608D01*
X131278899Y-60126932D01*
X131411858Y-60198000D01*
X131278899Y-60269068D01*
X131060392Y-60448392D01*
X130881068Y-60666899D01*
X130747818Y-60916192D01*
X130665764Y-61186691D01*
X130638057Y-61468000D01*
X130665764Y-61749309D01*
X130747818Y-62019808D01*
X130881068Y-62269101D01*
X131060392Y-62487608D01*
X131278899Y-62666932D01*
X131411858Y-62738000D01*
X131278899Y-62809068D01*
X131060392Y-62988392D01*
X130881068Y-63206899D01*
X130747818Y-63456192D01*
X130665764Y-63726691D01*
X130638057Y-64008000D01*
X130665764Y-64289309D01*
X130747818Y-64559808D01*
X130881068Y-64809101D01*
X131060392Y-65027608D01*
X131278899Y-65206932D01*
X131411858Y-65278000D01*
X131278899Y-65349068D01*
X131060392Y-65528392D01*
X130881068Y-65746899D01*
X130747818Y-65996192D01*
X130665764Y-66266691D01*
X130638057Y-66548000D01*
X130665764Y-66829309D01*
X130747818Y-67099808D01*
X130881068Y-67349101D01*
X131060392Y-67567608D01*
X131278899Y-67746932D01*
X131411858Y-67818000D01*
X131278899Y-67889068D01*
X131060392Y-68068392D01*
X130881068Y-68286899D01*
X130747818Y-68536192D01*
X130665764Y-68806691D01*
X130638057Y-69088000D01*
X130665764Y-69369309D01*
X130747818Y-69639808D01*
X130881068Y-69889101D01*
X131060392Y-70107608D01*
X131278899Y-70286932D01*
X131411858Y-70358000D01*
X131278899Y-70429068D01*
X131060392Y-70608392D01*
X130881068Y-70826899D01*
X130747818Y-71076192D01*
X130665764Y-71346691D01*
X130638057Y-71628000D01*
X130665764Y-71909309D01*
X130747818Y-72179808D01*
X130881068Y-72429101D01*
X131060392Y-72647608D01*
X131278899Y-72826932D01*
X131411858Y-72898000D01*
X131278899Y-72969068D01*
X131060392Y-73148392D01*
X130881068Y-73366899D01*
X130747818Y-73616192D01*
X130665764Y-73886691D01*
X130638057Y-74168000D01*
X130665764Y-74449309D01*
X130747818Y-74719808D01*
X130881068Y-74969101D01*
X131060392Y-75187608D01*
X131278899Y-75366932D01*
X131411858Y-75438000D01*
X131278899Y-75509068D01*
X131060392Y-75688392D01*
X130881068Y-75906899D01*
X130747818Y-76156192D01*
X130665764Y-76426691D01*
X130638057Y-76708000D01*
X130665764Y-76989309D01*
X130747818Y-77259808D01*
X130881068Y-77509101D01*
X131060392Y-77727608D01*
X131278899Y-77906932D01*
X131411858Y-77978000D01*
X131278899Y-78049068D01*
X131060392Y-78228392D01*
X130881068Y-78446899D01*
X130747818Y-78696192D01*
X130665764Y-78966691D01*
X130638057Y-79248000D01*
X130665764Y-79529309D01*
X130747818Y-79799808D01*
X130881068Y-80049101D01*
X131060392Y-80267608D01*
X131278899Y-80446932D01*
X131411858Y-80518000D01*
X131278899Y-80589068D01*
X131060392Y-80768392D01*
X130881068Y-80986899D01*
X130747818Y-81236192D01*
X130665764Y-81506691D01*
X130638057Y-81788000D01*
X130665764Y-82069309D01*
X130747818Y-82339808D01*
X130881068Y-82589101D01*
X131060392Y-82807608D01*
X131278899Y-82986932D01*
X131411858Y-83058000D01*
X131278899Y-83129068D01*
X131060392Y-83308392D01*
X130881068Y-83526899D01*
X130747818Y-83776192D01*
X130665764Y-84046691D01*
X130638057Y-84328000D01*
X130665764Y-84609309D01*
X130747818Y-84879808D01*
X130881068Y-85129101D01*
X131060392Y-85347608D01*
X131278899Y-85526932D01*
X131411858Y-85598000D01*
X131278899Y-85669068D01*
X131060392Y-85848392D01*
X130881068Y-86066899D01*
X130747818Y-86316192D01*
X130665764Y-86586691D01*
X130638057Y-86868000D01*
X130665764Y-87149309D01*
X130747818Y-87419808D01*
X130881068Y-87669101D01*
X131060392Y-87887608D01*
X131278899Y-88066932D01*
X131411858Y-88138000D01*
X131278899Y-88209068D01*
X131060392Y-88388392D01*
X130881068Y-88606899D01*
X130747818Y-88856192D01*
X130665764Y-89126691D01*
X130638057Y-89408000D01*
X130665764Y-89689309D01*
X130747818Y-89959808D01*
X130881068Y-90209101D01*
X131060392Y-90427608D01*
X131278899Y-90606932D01*
X131528192Y-90740182D01*
X131798691Y-90822236D01*
X132009508Y-90843000D01*
X132150492Y-90843000D01*
X132361309Y-90822236D01*
X132453046Y-90794408D01*
X137033000Y-90794408D01*
X137033000Y-91069592D01*
X137086686Y-91339490D01*
X137191995Y-91593727D01*
X137344880Y-91822535D01*
X137539465Y-92017120D01*
X137768273Y-92170005D01*
X137845515Y-92202000D01*
X137768273Y-92233995D01*
X137539465Y-92386880D01*
X137344880Y-92581465D01*
X137191995Y-92810273D01*
X137086686Y-93064510D01*
X137033000Y-93334408D01*
X137033000Y-93609592D01*
X137086686Y-93879490D01*
X137191995Y-94133727D01*
X137344880Y-94362535D01*
X137539465Y-94557120D01*
X137768273Y-94710005D01*
X138022510Y-94815314D01*
X138292408Y-94869000D01*
X138567592Y-94869000D01*
X138837490Y-94815314D01*
X139091727Y-94710005D01*
X139320535Y-94557120D01*
X139515120Y-94362535D01*
X139668005Y-94133727D01*
X139773314Y-93879490D01*
X139827000Y-93609592D01*
X139827000Y-93334408D01*
X139773314Y-93064510D01*
X139668005Y-92810273D01*
X139515120Y-92581465D01*
X139320535Y-92386880D01*
X139091727Y-92233995D01*
X139014485Y-92202000D01*
X139091727Y-92170005D01*
X139320535Y-92017120D01*
X139515120Y-91822535D01*
X139668005Y-91593727D01*
X139773314Y-91339490D01*
X139827000Y-91069592D01*
X139827000Y-90794408D01*
X147193000Y-90794408D01*
X147193000Y-91069592D01*
X147246686Y-91339490D01*
X147351995Y-91593727D01*
X147504880Y-91822535D01*
X147699465Y-92017120D01*
X147928273Y-92170005D01*
X148005515Y-92202000D01*
X147928273Y-92233995D01*
X147699465Y-92386880D01*
X147504880Y-92581465D01*
X147351995Y-92810273D01*
X147246686Y-93064510D01*
X147193000Y-93334408D01*
X147193000Y-93609592D01*
X147246686Y-93879490D01*
X147351995Y-94133727D01*
X147504880Y-94362535D01*
X147699465Y-94557120D01*
X147928273Y-94710005D01*
X148182510Y-94815314D01*
X148452408Y-94869000D01*
X148727592Y-94869000D01*
X148997490Y-94815314D01*
X149251727Y-94710005D01*
X149480535Y-94557120D01*
X149675120Y-94362535D01*
X149828005Y-94133727D01*
X149933314Y-93879490D01*
X149987000Y-93609592D01*
X149987000Y-93334408D01*
X149933314Y-93064510D01*
X149828005Y-92810273D01*
X149675120Y-92581465D01*
X149480535Y-92386880D01*
X149251727Y-92233995D01*
X149174485Y-92202000D01*
X149251727Y-92170005D01*
X149480535Y-92017120D01*
X149675120Y-91822535D01*
X149828005Y-91593727D01*
X149933314Y-91339490D01*
X149963330Y-91188589D01*
X155064000Y-91188589D01*
X155064000Y-91461411D01*
X155117225Y-91728989D01*
X155221629Y-91981043D01*
X155373201Y-92207886D01*
X155566114Y-92400799D01*
X155792957Y-92552371D01*
X155895873Y-92595000D01*
X155792957Y-92637629D01*
X155566114Y-92789201D01*
X155373201Y-92982114D01*
X155221629Y-93208957D01*
X155117225Y-93461011D01*
X155064000Y-93728589D01*
X155064000Y-94001411D01*
X155117225Y-94268989D01*
X155221629Y-94521043D01*
X155373201Y-94747886D01*
X155566114Y-94940799D01*
X155792957Y-95092371D01*
X156045011Y-95196775D01*
X156312589Y-95250000D01*
X156585411Y-95250000D01*
X156852989Y-95196775D01*
X157105043Y-95092371D01*
X157331886Y-94940799D01*
X157524799Y-94747886D01*
X157600928Y-94633951D01*
X157600928Y-95885000D01*
X157613188Y-96009482D01*
X157649498Y-96129180D01*
X157708463Y-96239494D01*
X157787815Y-96336185D01*
X157884506Y-96415537D01*
X157994820Y-96474502D01*
X158114518Y-96510812D01*
X158239000Y-96523072D01*
X159739000Y-96523072D01*
X159863482Y-96510812D01*
X159983180Y-96474502D01*
X160093494Y-96415537D01*
X160190185Y-96336185D01*
X160269537Y-96239494D01*
X160298733Y-96184872D01*
X163104000Y-96184872D01*
X163104000Y-96625128D01*
X163189890Y-97056925D01*
X163358369Y-97463669D01*
X163602962Y-97829729D01*
X163914271Y-98141038D01*
X164280331Y-98385631D01*
X164687075Y-98554110D01*
X165118872Y-98640000D01*
X165559128Y-98640000D01*
X165990925Y-98554110D01*
X166397669Y-98385631D01*
X166763729Y-98141038D01*
X167075038Y-97829729D01*
X167319631Y-97463669D01*
X167488110Y-97056925D01*
X167574000Y-96625128D01*
X167574000Y-96184872D01*
X167488110Y-95753075D01*
X167319631Y-95346331D01*
X167075038Y-94980271D01*
X166763729Y-94668962D01*
X166397669Y-94424369D01*
X165990925Y-94255890D01*
X165559128Y-94170000D01*
X165118872Y-94170000D01*
X164687075Y-94255890D01*
X164280331Y-94424369D01*
X163914271Y-94668962D01*
X163602962Y-94980271D01*
X163358369Y-95346331D01*
X163189890Y-95753075D01*
X163104000Y-96184872D01*
X160298733Y-96184872D01*
X160328502Y-96129180D01*
X160364812Y-96009482D01*
X160377072Y-95885000D01*
X160377072Y-94385000D01*
X160364812Y-94260518D01*
X160328502Y-94140820D01*
X160269537Y-94030506D01*
X160190185Y-93933815D01*
X160093494Y-93854463D01*
X159983180Y-93795498D01*
X159863482Y-93759188D01*
X159755517Y-93748555D01*
X159871886Y-93670799D01*
X160064799Y-93477886D01*
X160216371Y-93251043D01*
X160320775Y-92998989D01*
X160374000Y-92731411D01*
X160374000Y-92458589D01*
X160320775Y-92191011D01*
X160216371Y-91938957D01*
X160064799Y-91712114D01*
X159871886Y-91519201D01*
X159645043Y-91367629D01*
X159542127Y-91325000D01*
X159645043Y-91282371D01*
X159871886Y-91130799D01*
X160064799Y-90937886D01*
X160216371Y-90711043D01*
X160320775Y-90458989D01*
X160374000Y-90191411D01*
X160374000Y-89918589D01*
X160320775Y-89651011D01*
X160216371Y-89398957D01*
X160064799Y-89172114D01*
X159871886Y-88979201D01*
X159645043Y-88827629D01*
X159545721Y-88786489D01*
X159587832Y-88771277D01*
X159700863Y-88710860D01*
X159766388Y-88471993D01*
X158989000Y-87694605D01*
X158211612Y-88471993D01*
X158277137Y-88710860D01*
X158435477Y-88785164D01*
X158332957Y-88827629D01*
X158106114Y-88979201D01*
X157913201Y-89172114D01*
X157761629Y-89398957D01*
X157657225Y-89651011D01*
X157604000Y-89918589D01*
X157604000Y-90191411D01*
X157657225Y-90458989D01*
X157761629Y-90711043D01*
X157913201Y-90937886D01*
X158106114Y-91130799D01*
X158332957Y-91282371D01*
X158435873Y-91325000D01*
X158332957Y-91367629D01*
X158106114Y-91519201D01*
X157913201Y-91712114D01*
X157761629Y-91938957D01*
X157657225Y-92191011D01*
X157604000Y-92458589D01*
X157604000Y-92731411D01*
X157657225Y-92998989D01*
X157761629Y-93251043D01*
X157913201Y-93477886D01*
X158106114Y-93670799D01*
X158222483Y-93748555D01*
X158114518Y-93759188D01*
X157994820Y-93795498D01*
X157884506Y-93854463D01*
X157834000Y-93895912D01*
X157834000Y-93728589D01*
X157780775Y-93461011D01*
X157676371Y-93208957D01*
X157524799Y-92982114D01*
X157331886Y-92789201D01*
X157105043Y-92637629D01*
X157002127Y-92595000D01*
X157105043Y-92552371D01*
X157331886Y-92400799D01*
X157524799Y-92207886D01*
X157676371Y-91981043D01*
X157780775Y-91728989D01*
X157834000Y-91461411D01*
X157834000Y-91188589D01*
X157780775Y-90921011D01*
X157676371Y-90668957D01*
X157524799Y-90442114D01*
X157331886Y-90249201D01*
X157105043Y-90097629D01*
X157005721Y-90056489D01*
X157047832Y-90041277D01*
X157160863Y-89980860D01*
X157226388Y-89741993D01*
X156449000Y-88964605D01*
X155671612Y-89741993D01*
X155737137Y-89980860D01*
X155895477Y-90055164D01*
X155792957Y-90097629D01*
X155566114Y-90249201D01*
X155373201Y-90442114D01*
X155221629Y-90668957D01*
X155117225Y-90921011D01*
X155064000Y-91188589D01*
X149963330Y-91188589D01*
X149987000Y-91069592D01*
X149987000Y-90794408D01*
X149933314Y-90524510D01*
X149828005Y-90270273D01*
X149675120Y-90041465D01*
X149480535Y-89846880D01*
X149251727Y-89693995D01*
X149180057Y-89664308D01*
X149193023Y-89659636D01*
X149308980Y-89597656D01*
X149375960Y-89357565D01*
X148590000Y-88571605D01*
X147804040Y-89357565D01*
X147871020Y-89597656D01*
X148006760Y-89661485D01*
X147928273Y-89693995D01*
X147699465Y-89846880D01*
X147504880Y-90041465D01*
X147351995Y-90270273D01*
X147246686Y-90524510D01*
X147193000Y-90794408D01*
X139827000Y-90794408D01*
X139773314Y-90524510D01*
X139668005Y-90270273D01*
X139515120Y-90041465D01*
X139320535Y-89846880D01*
X139091727Y-89693995D01*
X139020057Y-89664308D01*
X139033023Y-89659636D01*
X139148980Y-89597656D01*
X139215960Y-89357565D01*
X138430000Y-88571605D01*
X137644040Y-89357565D01*
X137711020Y-89597656D01*
X137846760Y-89661485D01*
X137768273Y-89693995D01*
X137539465Y-89846880D01*
X137344880Y-90041465D01*
X137191995Y-90270273D01*
X137086686Y-90524510D01*
X137033000Y-90794408D01*
X132453046Y-90794408D01*
X132631808Y-90740182D01*
X132881101Y-90606932D01*
X133099608Y-90427608D01*
X133278932Y-90209101D01*
X133412182Y-89959808D01*
X133494236Y-89689309D01*
X133521943Y-89408000D01*
X133494236Y-89126691D01*
X133412182Y-88856192D01*
X133278932Y-88606899D01*
X133161672Y-88464017D01*
X137028090Y-88464017D01*
X137069078Y-88736133D01*
X137162364Y-88995023D01*
X137224344Y-89110980D01*
X137464435Y-89177960D01*
X138250395Y-88392000D01*
X138609605Y-88392000D01*
X139395565Y-89177960D01*
X139635656Y-89110980D01*
X139752756Y-88861952D01*
X139819023Y-88594865D01*
X139825157Y-88464017D01*
X147188090Y-88464017D01*
X147229078Y-88736133D01*
X147322364Y-88995023D01*
X147384344Y-89110980D01*
X147624435Y-89177960D01*
X148410395Y-88392000D01*
X148769605Y-88392000D01*
X149555565Y-89177960D01*
X149795656Y-89110980D01*
X149912756Y-88861952D01*
X149913862Y-88857492D01*
X155059188Y-88857492D01*
X155100035Y-89127238D01*
X155192723Y-89383832D01*
X155253140Y-89496863D01*
X155492007Y-89562388D01*
X156269395Y-88785000D01*
X156628605Y-88785000D01*
X157405993Y-89562388D01*
X157644860Y-89496863D01*
X157760760Y-89249884D01*
X157826250Y-88985040D01*
X157838812Y-88712508D01*
X157797965Y-88442762D01*
X157705277Y-88186168D01*
X157644860Y-88073137D01*
X157405993Y-88007612D01*
X156628605Y-88785000D01*
X156269395Y-88785000D01*
X155492007Y-88007612D01*
X155253140Y-88073137D01*
X155137240Y-88320116D01*
X155071750Y-88584960D01*
X155059188Y-88857492D01*
X149913862Y-88857492D01*
X149979023Y-88594865D01*
X149991910Y-88319983D01*
X149950922Y-88047867D01*
X149857636Y-87788977D01*
X149795656Y-87673020D01*
X149555565Y-87606040D01*
X148769605Y-88392000D01*
X148410395Y-88392000D01*
X147624435Y-87606040D01*
X147384344Y-87673020D01*
X147267244Y-87922048D01*
X147200977Y-88189135D01*
X147188090Y-88464017D01*
X139825157Y-88464017D01*
X139831910Y-88319983D01*
X139790922Y-88047867D01*
X139697636Y-87788977D01*
X139635656Y-87673020D01*
X139395565Y-87606040D01*
X138609605Y-88392000D01*
X138250395Y-88392000D01*
X137464435Y-87606040D01*
X137224344Y-87673020D01*
X137107244Y-87922048D01*
X137040977Y-88189135D01*
X137028090Y-88464017D01*
X133161672Y-88464017D01*
X133099608Y-88388392D01*
X132881101Y-88209068D01*
X132748142Y-88138000D01*
X132881101Y-88066932D01*
X133099608Y-87887608D01*
X133278932Y-87669101D01*
X133412182Y-87419808D01*
X133494236Y-87149309D01*
X133521943Y-86868000D01*
X133494236Y-86586691D01*
X133412182Y-86316192D01*
X133278932Y-86066899D01*
X133099608Y-85848392D01*
X132881101Y-85669068D01*
X132748142Y-85598000D01*
X132881101Y-85526932D01*
X133099608Y-85347608D01*
X133278932Y-85129101D01*
X133412182Y-84879808D01*
X133494236Y-84609309D01*
X133521943Y-84328000D01*
X133494236Y-84046691D01*
X133412182Y-83776192D01*
X133278932Y-83526899D01*
X133099608Y-83308392D01*
X132881101Y-83129068D01*
X132748142Y-83058000D01*
X132881101Y-82986932D01*
X133099608Y-82807608D01*
X133278932Y-82589101D01*
X133412182Y-82339808D01*
X133494236Y-82069309D01*
X133521943Y-81788000D01*
X133494236Y-81506691D01*
X133412182Y-81236192D01*
X133278932Y-80986899D01*
X133099608Y-80768392D01*
X132936348Y-80634408D01*
X137033000Y-80634408D01*
X137033000Y-80909592D01*
X137086686Y-81179490D01*
X137191995Y-81433727D01*
X137344880Y-81662535D01*
X137539465Y-81857120D01*
X137768273Y-82010005D01*
X137845515Y-82042000D01*
X137768273Y-82073995D01*
X137539465Y-82226880D01*
X137344880Y-82421465D01*
X137191995Y-82650273D01*
X137086686Y-82904510D01*
X137033000Y-83174408D01*
X137033000Y-83449592D01*
X137086686Y-83719490D01*
X137191995Y-83973727D01*
X137344880Y-84202535D01*
X137539465Y-84397120D01*
X137768273Y-84550005D01*
X137845515Y-84582000D01*
X137768273Y-84613995D01*
X137539465Y-84766880D01*
X137344880Y-84961465D01*
X137191995Y-85190273D01*
X137086686Y-85444510D01*
X137033000Y-85714408D01*
X137033000Y-85989592D01*
X137086686Y-86259490D01*
X137191995Y-86513727D01*
X137344880Y-86742535D01*
X137539465Y-86937120D01*
X137768273Y-87090005D01*
X137839943Y-87119692D01*
X137826977Y-87124364D01*
X137711020Y-87186344D01*
X137644040Y-87426435D01*
X138430000Y-88212395D01*
X139215960Y-87426435D01*
X139148980Y-87186344D01*
X139013240Y-87122515D01*
X139091727Y-87090005D01*
X139320535Y-86937120D01*
X139515120Y-86742535D01*
X139668005Y-86513727D01*
X139773314Y-86259490D01*
X139827000Y-85989592D01*
X139827000Y-85714408D01*
X139773314Y-85444510D01*
X139668005Y-85190273D01*
X139515120Y-84961465D01*
X139320535Y-84766880D01*
X139091727Y-84613995D01*
X139014485Y-84582000D01*
X139091727Y-84550005D01*
X139320535Y-84397120D01*
X139515120Y-84202535D01*
X139668005Y-83973727D01*
X139773314Y-83719490D01*
X139827000Y-83449592D01*
X139827000Y-83174408D01*
X139773314Y-82904510D01*
X139668005Y-82650273D01*
X139515120Y-82421465D01*
X139320535Y-82226880D01*
X139091727Y-82073995D01*
X139014485Y-82042000D01*
X139091727Y-82010005D01*
X139320535Y-81857120D01*
X139515120Y-81662535D01*
X139668005Y-81433727D01*
X139773314Y-81179490D01*
X139827000Y-80909592D01*
X139827000Y-80634408D01*
X147193000Y-80634408D01*
X147193000Y-80909592D01*
X147246686Y-81179490D01*
X147351995Y-81433727D01*
X147504880Y-81662535D01*
X147699465Y-81857120D01*
X147928273Y-82010005D01*
X148005515Y-82042000D01*
X147928273Y-82073995D01*
X147699465Y-82226880D01*
X147504880Y-82421465D01*
X147351995Y-82650273D01*
X147246686Y-82904510D01*
X147193000Y-83174408D01*
X147193000Y-83449592D01*
X147246686Y-83719490D01*
X147351995Y-83973727D01*
X147504880Y-84202535D01*
X147699465Y-84397120D01*
X147928273Y-84550005D01*
X148005515Y-84582000D01*
X147928273Y-84613995D01*
X147699465Y-84766880D01*
X147504880Y-84961465D01*
X147351995Y-85190273D01*
X147246686Y-85444510D01*
X147193000Y-85714408D01*
X147193000Y-85989592D01*
X147246686Y-86259490D01*
X147351995Y-86513727D01*
X147504880Y-86742535D01*
X147699465Y-86937120D01*
X147928273Y-87090005D01*
X147999943Y-87119692D01*
X147986977Y-87124364D01*
X147871020Y-87186344D01*
X147804040Y-87426435D01*
X148590000Y-88212395D01*
X149375960Y-87426435D01*
X149313346Y-87201993D01*
X155671612Y-87201993D01*
X155737137Y-87440860D01*
X155892096Y-87513578D01*
X155850168Y-87528723D01*
X155737137Y-87589140D01*
X155671612Y-87828007D01*
X156449000Y-88605395D01*
X157226388Y-87828007D01*
X157160863Y-87589140D01*
X157157352Y-87587492D01*
X157599188Y-87587492D01*
X157640035Y-87857238D01*
X157732723Y-88113832D01*
X157793140Y-88226863D01*
X158032007Y-88292388D01*
X158809395Y-87515000D01*
X159168605Y-87515000D01*
X159945993Y-88292388D01*
X160184860Y-88226863D01*
X160300760Y-87979884D01*
X160366250Y-87715040D01*
X160378812Y-87442508D01*
X160337965Y-87172762D01*
X160245277Y-86916168D01*
X160184860Y-86803137D01*
X159945993Y-86737612D01*
X159168605Y-87515000D01*
X158809395Y-87515000D01*
X158032007Y-86737612D01*
X157793140Y-86803137D01*
X157677240Y-87050116D01*
X157611750Y-87314960D01*
X157599188Y-87587492D01*
X157157352Y-87587492D01*
X157005904Y-87516422D01*
X157047832Y-87501277D01*
X157160863Y-87440860D01*
X157226388Y-87201993D01*
X156449000Y-86424605D01*
X155671612Y-87201993D01*
X149313346Y-87201993D01*
X149308980Y-87186344D01*
X149173240Y-87122515D01*
X149251727Y-87090005D01*
X149480535Y-86937120D01*
X149675120Y-86742535D01*
X149828005Y-86513727D01*
X149909288Y-86317492D01*
X155059188Y-86317492D01*
X155100035Y-86587238D01*
X155192723Y-86843832D01*
X155253140Y-86956863D01*
X155492007Y-87022388D01*
X156269395Y-86245000D01*
X156628605Y-86245000D01*
X157405993Y-87022388D01*
X157644860Y-86956863D01*
X157760760Y-86709884D01*
X157798315Y-86558007D01*
X158211612Y-86558007D01*
X158989000Y-87335395D01*
X159766388Y-86558007D01*
X159700863Y-86319140D01*
X159453884Y-86203240D01*
X159189040Y-86137750D01*
X158916508Y-86125188D01*
X158646762Y-86166035D01*
X158390168Y-86258723D01*
X158277137Y-86319140D01*
X158211612Y-86558007D01*
X157798315Y-86558007D01*
X157826250Y-86445040D01*
X157838812Y-86172508D01*
X157797965Y-85902762D01*
X157705277Y-85646168D01*
X157644860Y-85533137D01*
X157405993Y-85467612D01*
X156628605Y-86245000D01*
X156269395Y-86245000D01*
X155492007Y-85467612D01*
X155253140Y-85533137D01*
X155137240Y-85780116D01*
X155071750Y-86044960D01*
X155059188Y-86317492D01*
X149909288Y-86317492D01*
X149933314Y-86259490D01*
X149987000Y-85989592D01*
X149987000Y-85714408D01*
X149933314Y-85444510D01*
X149868488Y-85288007D01*
X155671612Y-85288007D01*
X156449000Y-86065395D01*
X157226388Y-85288007D01*
X157160863Y-85049140D01*
X156913884Y-84933240D01*
X156649040Y-84867750D01*
X156376508Y-84855188D01*
X156106762Y-84896035D01*
X155850168Y-84988723D01*
X155737137Y-85049140D01*
X155671612Y-85288007D01*
X149868488Y-85288007D01*
X149828005Y-85190273D01*
X149675120Y-84961465D01*
X149480535Y-84766880D01*
X149462564Y-84754872D01*
X163104000Y-84754872D01*
X163104000Y-85195128D01*
X163189890Y-85626925D01*
X163358369Y-86033669D01*
X163602962Y-86399729D01*
X163914271Y-86711038D01*
X164280331Y-86955631D01*
X164687075Y-87124110D01*
X165118872Y-87210000D01*
X165559128Y-87210000D01*
X165990925Y-87124110D01*
X166397669Y-86955631D01*
X166763729Y-86711038D01*
X167075038Y-86399729D01*
X167319631Y-86033669D01*
X167488110Y-85626925D01*
X167574000Y-85195128D01*
X167574000Y-84754872D01*
X167488110Y-84323075D01*
X167319631Y-83916331D01*
X167075038Y-83550271D01*
X166763729Y-83238962D01*
X166397669Y-82994369D01*
X165990925Y-82825890D01*
X165559128Y-82740000D01*
X165118872Y-82740000D01*
X164687075Y-82825890D01*
X164280331Y-82994369D01*
X163914271Y-83238962D01*
X163602962Y-83550271D01*
X163358369Y-83916331D01*
X163189890Y-84323075D01*
X163104000Y-84754872D01*
X149462564Y-84754872D01*
X149251727Y-84613995D01*
X149174485Y-84582000D01*
X149251727Y-84550005D01*
X149480535Y-84397120D01*
X149675120Y-84202535D01*
X149828005Y-83973727D01*
X149933314Y-83719490D01*
X149987000Y-83449592D01*
X149987000Y-83174408D01*
X149933314Y-82904510D01*
X149828005Y-82650273D01*
X149675120Y-82421465D01*
X149480535Y-82226880D01*
X149251727Y-82073995D01*
X149174485Y-82042000D01*
X149251727Y-82010005D01*
X149480535Y-81857120D01*
X149675120Y-81662535D01*
X149828005Y-81433727D01*
X149933314Y-81179490D01*
X149987000Y-80909592D01*
X149987000Y-80634408D01*
X149933314Y-80364510D01*
X149828005Y-80110273D01*
X149675120Y-79881465D01*
X149480535Y-79686880D01*
X149251727Y-79533995D01*
X148997490Y-79428686D01*
X148727592Y-79375000D01*
X148452408Y-79375000D01*
X148182510Y-79428686D01*
X147928273Y-79533995D01*
X147699465Y-79686880D01*
X147504880Y-79881465D01*
X147351995Y-80110273D01*
X147246686Y-80364510D01*
X147193000Y-80634408D01*
X139827000Y-80634408D01*
X139773314Y-80364510D01*
X139668005Y-80110273D01*
X139515120Y-79881465D01*
X139320535Y-79686880D01*
X139091727Y-79533995D01*
X138837490Y-79428686D01*
X138567592Y-79375000D01*
X138292408Y-79375000D01*
X138022510Y-79428686D01*
X137768273Y-79533995D01*
X137539465Y-79686880D01*
X137344880Y-79881465D01*
X137191995Y-80110273D01*
X137086686Y-80364510D01*
X137033000Y-80634408D01*
X132936348Y-80634408D01*
X132881101Y-80589068D01*
X132748142Y-80518000D01*
X132881101Y-80446932D01*
X133099608Y-80267608D01*
X133278932Y-80049101D01*
X133412182Y-79799808D01*
X133494236Y-79529309D01*
X133521943Y-79248000D01*
X133494236Y-78966691D01*
X133412182Y-78696192D01*
X133278932Y-78446899D01*
X133099608Y-78228392D01*
X132881101Y-78049068D01*
X132748142Y-77978000D01*
X132881101Y-77906932D01*
X133099608Y-77727608D01*
X133278932Y-77509101D01*
X133412182Y-77259808D01*
X133494236Y-76989309D01*
X133521943Y-76708000D01*
X133494236Y-76426691D01*
X133412182Y-76156192D01*
X133278932Y-75906899D01*
X133099608Y-75688392D01*
X132881101Y-75509068D01*
X132748142Y-75438000D01*
X132881101Y-75366932D01*
X133099608Y-75187608D01*
X133278932Y-74969101D01*
X133412182Y-74719808D01*
X133494236Y-74449309D01*
X133521943Y-74168000D01*
X133494236Y-73886691D01*
X133412182Y-73616192D01*
X133278932Y-73366899D01*
X133099608Y-73148392D01*
X132881101Y-72969068D01*
X132748142Y-72898000D01*
X132881101Y-72826932D01*
X133099608Y-72647608D01*
X133214518Y-72507589D01*
X155079000Y-72507589D01*
X155079000Y-72780411D01*
X155132225Y-73047989D01*
X155236629Y-73300043D01*
X155388201Y-73526886D01*
X155581114Y-73719799D01*
X155807957Y-73871371D01*
X155910873Y-73914000D01*
X155807957Y-73956629D01*
X155581114Y-74108201D01*
X155388201Y-74301114D01*
X155236629Y-74527957D01*
X155132225Y-74780011D01*
X155079000Y-75047589D01*
X155079000Y-75320411D01*
X155132225Y-75587989D01*
X155236629Y-75840043D01*
X155388201Y-76066886D01*
X155581114Y-76259799D01*
X155807957Y-76411371D01*
X156060011Y-76515775D01*
X156327589Y-76569000D01*
X156600411Y-76569000D01*
X156867989Y-76515775D01*
X157120043Y-76411371D01*
X157346886Y-76259799D01*
X157539799Y-76066886D01*
X157615928Y-75952951D01*
X157615928Y-77204000D01*
X157628188Y-77328482D01*
X157664498Y-77448180D01*
X157723463Y-77558494D01*
X157802815Y-77655185D01*
X157899506Y-77734537D01*
X158009820Y-77793502D01*
X158129518Y-77829812D01*
X158254000Y-77842072D01*
X159754000Y-77842072D01*
X159878482Y-77829812D01*
X159998180Y-77793502D01*
X160108494Y-77734537D01*
X160205185Y-77655185D01*
X160284537Y-77558494D01*
X160313733Y-77503872D01*
X163119000Y-77503872D01*
X163119000Y-77944128D01*
X163204890Y-78375925D01*
X163373369Y-78782669D01*
X163617962Y-79148729D01*
X163929271Y-79460038D01*
X164295331Y-79704631D01*
X164702075Y-79873110D01*
X165133872Y-79959000D01*
X165574128Y-79959000D01*
X166005925Y-79873110D01*
X166412669Y-79704631D01*
X166778729Y-79460038D01*
X167090038Y-79148729D01*
X167334631Y-78782669D01*
X167503110Y-78375925D01*
X167589000Y-77944128D01*
X167589000Y-77503872D01*
X167503110Y-77072075D01*
X167334631Y-76665331D01*
X167090038Y-76299271D01*
X166778729Y-75987962D01*
X166412669Y-75743369D01*
X166005925Y-75574890D01*
X165574128Y-75489000D01*
X165133872Y-75489000D01*
X164702075Y-75574890D01*
X164295331Y-75743369D01*
X163929271Y-75987962D01*
X163617962Y-76299271D01*
X163373369Y-76665331D01*
X163204890Y-77072075D01*
X163119000Y-77503872D01*
X160313733Y-77503872D01*
X160343502Y-77448180D01*
X160379812Y-77328482D01*
X160392072Y-77204000D01*
X160392072Y-75704000D01*
X160379812Y-75579518D01*
X160343502Y-75459820D01*
X160284537Y-75349506D01*
X160205185Y-75252815D01*
X160108494Y-75173463D01*
X159998180Y-75114498D01*
X159878482Y-75078188D01*
X159770517Y-75067555D01*
X159886886Y-74989799D01*
X160079799Y-74796886D01*
X160231371Y-74570043D01*
X160335775Y-74317989D01*
X160389000Y-74050411D01*
X160389000Y-73777589D01*
X160335775Y-73510011D01*
X160231371Y-73257957D01*
X160079799Y-73031114D01*
X159886886Y-72838201D01*
X159660043Y-72686629D01*
X159557127Y-72644000D01*
X159660043Y-72601371D01*
X159886886Y-72449799D01*
X160079799Y-72256886D01*
X160231371Y-72030043D01*
X160335775Y-71777989D01*
X160389000Y-71510411D01*
X160389000Y-71237589D01*
X160335775Y-70970011D01*
X160231371Y-70717957D01*
X160079799Y-70491114D01*
X159886886Y-70298201D01*
X159660043Y-70146629D01*
X159560721Y-70105489D01*
X159602832Y-70090277D01*
X159715863Y-70029860D01*
X159781388Y-69790993D01*
X159004000Y-69013605D01*
X158226612Y-69790993D01*
X158292137Y-70029860D01*
X158450477Y-70104164D01*
X158347957Y-70146629D01*
X158121114Y-70298201D01*
X157928201Y-70491114D01*
X157776629Y-70717957D01*
X157672225Y-70970011D01*
X157619000Y-71237589D01*
X157619000Y-71510411D01*
X157672225Y-71777989D01*
X157776629Y-72030043D01*
X157928201Y-72256886D01*
X158121114Y-72449799D01*
X158347957Y-72601371D01*
X158450873Y-72644000D01*
X158347957Y-72686629D01*
X158121114Y-72838201D01*
X157928201Y-73031114D01*
X157776629Y-73257957D01*
X157672225Y-73510011D01*
X157619000Y-73777589D01*
X157619000Y-74050411D01*
X157672225Y-74317989D01*
X157776629Y-74570043D01*
X157928201Y-74796886D01*
X158121114Y-74989799D01*
X158237483Y-75067555D01*
X158129518Y-75078188D01*
X158009820Y-75114498D01*
X157899506Y-75173463D01*
X157849000Y-75214912D01*
X157849000Y-75047589D01*
X157795775Y-74780011D01*
X157691371Y-74527957D01*
X157539799Y-74301114D01*
X157346886Y-74108201D01*
X157120043Y-73956629D01*
X157017127Y-73914000D01*
X157120043Y-73871371D01*
X157346886Y-73719799D01*
X157539799Y-73526886D01*
X157691371Y-73300043D01*
X157795775Y-73047989D01*
X157849000Y-72780411D01*
X157849000Y-72507589D01*
X157795775Y-72240011D01*
X157691371Y-71987957D01*
X157539799Y-71761114D01*
X157346886Y-71568201D01*
X157120043Y-71416629D01*
X157020721Y-71375489D01*
X157062832Y-71360277D01*
X157175863Y-71299860D01*
X157241388Y-71060993D01*
X156464000Y-70283605D01*
X155686612Y-71060993D01*
X155752137Y-71299860D01*
X155910477Y-71374164D01*
X155807957Y-71416629D01*
X155581114Y-71568201D01*
X155388201Y-71761114D01*
X155236629Y-71987957D01*
X155132225Y-72240011D01*
X155079000Y-72507589D01*
X133214518Y-72507589D01*
X133278932Y-72429101D01*
X133412182Y-72179808D01*
X133494236Y-71909309D01*
X133521943Y-71628000D01*
X133494236Y-71346691D01*
X133412182Y-71076192D01*
X133278932Y-70826899D01*
X133099608Y-70608392D01*
X132881101Y-70429068D01*
X132748142Y-70358000D01*
X132881101Y-70286932D01*
X133099608Y-70107608D01*
X133154516Y-70040702D01*
X150316903Y-70040702D01*
X150388486Y-70284671D01*
X150643996Y-70405571D01*
X150918184Y-70474300D01*
X151200512Y-70488217D01*
X151480130Y-70446787D01*
X151746292Y-70351603D01*
X151871514Y-70284671D01*
X151903254Y-70176492D01*
X155074188Y-70176492D01*
X155115035Y-70446238D01*
X155207723Y-70702832D01*
X155268140Y-70815863D01*
X155507007Y-70881388D01*
X156284395Y-70104000D01*
X156643605Y-70104000D01*
X157420993Y-70881388D01*
X157659860Y-70815863D01*
X157775760Y-70568884D01*
X157841250Y-70304040D01*
X157853812Y-70031508D01*
X157812965Y-69761762D01*
X157720277Y-69505168D01*
X157659860Y-69392137D01*
X157420993Y-69326612D01*
X156643605Y-70104000D01*
X156284395Y-70104000D01*
X155507007Y-69326612D01*
X155268140Y-69392137D01*
X155152240Y-69639116D01*
X155086750Y-69903960D01*
X155074188Y-70176492D01*
X151903254Y-70176492D01*
X151943097Y-70040702D01*
X151130000Y-69227605D01*
X150316903Y-70040702D01*
X133154516Y-70040702D01*
X133278932Y-69889101D01*
X133412182Y-69639808D01*
X133494236Y-69369309D01*
X133518937Y-69118512D01*
X149689783Y-69118512D01*
X149731213Y-69398130D01*
X149826397Y-69664292D01*
X149893329Y-69789514D01*
X150137298Y-69861097D01*
X150950395Y-69048000D01*
X151309605Y-69048000D01*
X152122702Y-69861097D01*
X152366671Y-69789514D01*
X152487571Y-69534004D01*
X152556300Y-69259816D01*
X152570217Y-68977488D01*
X152528787Y-68697870D01*
X152465533Y-68520993D01*
X155686612Y-68520993D01*
X155752137Y-68759860D01*
X155907096Y-68832578D01*
X155865168Y-68847723D01*
X155752137Y-68908140D01*
X155686612Y-69147007D01*
X156464000Y-69924395D01*
X157241388Y-69147007D01*
X157175863Y-68908140D01*
X157172352Y-68906492D01*
X157614188Y-68906492D01*
X157655035Y-69176238D01*
X157747723Y-69432832D01*
X157808140Y-69545863D01*
X158047007Y-69611388D01*
X158824395Y-68834000D01*
X159183605Y-68834000D01*
X159960993Y-69611388D01*
X160199860Y-69545863D01*
X160315760Y-69298884D01*
X160381250Y-69034040D01*
X160393812Y-68761508D01*
X160352965Y-68491762D01*
X160260277Y-68235168D01*
X160199860Y-68122137D01*
X159960993Y-68056612D01*
X159183605Y-68834000D01*
X158824395Y-68834000D01*
X158047007Y-68056612D01*
X157808140Y-68122137D01*
X157692240Y-68369116D01*
X157626750Y-68633960D01*
X157614188Y-68906492D01*
X157172352Y-68906492D01*
X157020904Y-68835422D01*
X157062832Y-68820277D01*
X157175863Y-68759860D01*
X157241388Y-68520993D01*
X156464000Y-67743605D01*
X155686612Y-68520993D01*
X152465533Y-68520993D01*
X152433603Y-68431708D01*
X152366671Y-68306486D01*
X152122702Y-68234903D01*
X151309605Y-69048000D01*
X150950395Y-69048000D01*
X150137298Y-68234903D01*
X149893329Y-68306486D01*
X149772429Y-68561996D01*
X149703700Y-68836184D01*
X149689783Y-69118512D01*
X133518937Y-69118512D01*
X133521943Y-69088000D01*
X133494236Y-68806691D01*
X133412182Y-68536192D01*
X133278932Y-68286899D01*
X133099608Y-68068392D01*
X132881101Y-67889068D01*
X132748142Y-67818000D01*
X132881101Y-67746932D01*
X133099608Y-67567608D01*
X133278932Y-67349101D01*
X133356406Y-67204157D01*
X139713524Y-67204157D01*
X139713524Y-67485843D01*
X139768478Y-67762116D01*
X139876275Y-68022359D01*
X140032771Y-68256572D01*
X140231952Y-68455753D01*
X140466165Y-68612249D01*
X140726408Y-68720046D01*
X141002681Y-68775000D01*
X141284367Y-68775000D01*
X141560640Y-68720046D01*
X141820883Y-68612249D01*
X142055096Y-68455753D01*
X142176717Y-68334132D01*
X142873997Y-68334132D01*
X142944974Y-68577591D01*
X143199632Y-68697992D01*
X143472885Y-68766397D01*
X143754233Y-68780179D01*
X144032864Y-68738808D01*
X144298071Y-68643873D01*
X144422074Y-68577591D01*
X144493051Y-68334132D01*
X143683524Y-67524605D01*
X142873997Y-68334132D01*
X142176717Y-68334132D01*
X142254277Y-68256572D01*
X142410773Y-68022359D01*
X142414027Y-68014504D01*
X142450933Y-68083550D01*
X142694392Y-68154527D01*
X143503919Y-67345000D01*
X143863129Y-67345000D01*
X144672656Y-68154527D01*
X144916115Y-68083550D01*
X144951031Y-68009699D01*
X144956275Y-68022359D01*
X145112771Y-68256572D01*
X145311952Y-68455753D01*
X145546165Y-68612249D01*
X145806408Y-68720046D01*
X146082681Y-68775000D01*
X146364367Y-68775000D01*
X146640640Y-68720046D01*
X146900883Y-68612249D01*
X147135096Y-68455753D01*
X147334277Y-68256572D01*
X147490773Y-68022359D01*
X147598570Y-67762116D01*
X147653524Y-67485843D01*
X147653524Y-67204157D01*
X147598570Y-66927884D01*
X147490773Y-66667641D01*
X147334277Y-66433428D01*
X147307514Y-66406665D01*
X149695000Y-66406665D01*
X149695000Y-66689335D01*
X149750147Y-66966574D01*
X149858320Y-67227727D01*
X150015363Y-67462759D01*
X150215241Y-67662637D01*
X150415869Y-67796692D01*
X150388486Y-67811329D01*
X150316903Y-68055298D01*
X151130000Y-68868395D01*
X151943097Y-68055298D01*
X151871514Y-67811329D01*
X151842659Y-67797676D01*
X152044759Y-67662637D01*
X152070904Y-67636492D01*
X155074188Y-67636492D01*
X155115035Y-67906238D01*
X155207723Y-68162832D01*
X155268140Y-68275863D01*
X155507007Y-68341388D01*
X156284395Y-67564000D01*
X156643605Y-67564000D01*
X157420993Y-68341388D01*
X157659860Y-68275863D01*
X157775760Y-68028884D01*
X157813315Y-67877007D01*
X158226612Y-67877007D01*
X159004000Y-68654395D01*
X159781388Y-67877007D01*
X159715863Y-67638140D01*
X159468884Y-67522240D01*
X159204040Y-67456750D01*
X158931508Y-67444188D01*
X158661762Y-67485035D01*
X158405168Y-67577723D01*
X158292137Y-67638140D01*
X158226612Y-67877007D01*
X157813315Y-67877007D01*
X157841250Y-67764040D01*
X157853812Y-67491508D01*
X157812965Y-67221762D01*
X157720277Y-66965168D01*
X157659860Y-66852137D01*
X157420993Y-66786612D01*
X156643605Y-67564000D01*
X156284395Y-67564000D01*
X155507007Y-66786612D01*
X155268140Y-66852137D01*
X155152240Y-67099116D01*
X155086750Y-67363960D01*
X155074188Y-67636492D01*
X152070904Y-67636492D01*
X152244637Y-67462759D01*
X152401680Y-67227727D01*
X152509853Y-66966574D01*
X152565000Y-66689335D01*
X152565000Y-66607007D01*
X155686612Y-66607007D01*
X156464000Y-67384395D01*
X157241388Y-66607007D01*
X157175863Y-66368140D01*
X156928884Y-66252240D01*
X156664040Y-66186750D01*
X156391508Y-66174188D01*
X156121762Y-66215035D01*
X155865168Y-66307723D01*
X155752137Y-66368140D01*
X155686612Y-66607007D01*
X152565000Y-66607007D01*
X152565000Y-66406665D01*
X152509853Y-66129426D01*
X152486842Y-66073872D01*
X163119000Y-66073872D01*
X163119000Y-66514128D01*
X163204890Y-66945925D01*
X163373369Y-67352669D01*
X163617962Y-67718729D01*
X163929271Y-68030038D01*
X164295331Y-68274631D01*
X164702075Y-68443110D01*
X165133872Y-68529000D01*
X165574128Y-68529000D01*
X166005925Y-68443110D01*
X166412669Y-68274631D01*
X166778729Y-68030038D01*
X167090038Y-67718729D01*
X167334631Y-67352669D01*
X167503110Y-66945925D01*
X167589000Y-66514128D01*
X167589000Y-66073872D01*
X167503110Y-65642075D01*
X167334631Y-65235331D01*
X167090038Y-64869271D01*
X166778729Y-64557962D01*
X166412669Y-64313369D01*
X166005925Y-64144890D01*
X165574128Y-64059000D01*
X165133872Y-64059000D01*
X164702075Y-64144890D01*
X164295331Y-64313369D01*
X163929271Y-64557962D01*
X163617962Y-64869271D01*
X163373369Y-65235331D01*
X163204890Y-65642075D01*
X163119000Y-66073872D01*
X152486842Y-66073872D01*
X152401680Y-65868273D01*
X152244637Y-65633241D01*
X152044759Y-65433363D01*
X151809727Y-65276320D01*
X151548574Y-65168147D01*
X151271335Y-65113000D01*
X150988665Y-65113000D01*
X150711426Y-65168147D01*
X150450273Y-65276320D01*
X150215241Y-65433363D01*
X150015363Y-65633241D01*
X149858320Y-65868273D01*
X149750147Y-66129426D01*
X149695000Y-66406665D01*
X147307514Y-66406665D01*
X147135096Y-66234247D01*
X146900883Y-66077751D01*
X146640640Y-65969954D01*
X146364367Y-65915000D01*
X146082681Y-65915000D01*
X145806408Y-65969954D01*
X145546165Y-66077751D01*
X145311952Y-66234247D01*
X145112771Y-66433428D01*
X144956275Y-66667641D01*
X144953021Y-66675496D01*
X144916115Y-66606450D01*
X144672656Y-66535473D01*
X143863129Y-67345000D01*
X143503919Y-67345000D01*
X142694392Y-66535473D01*
X142450933Y-66606450D01*
X142416017Y-66680301D01*
X142410773Y-66667641D01*
X142254277Y-66433428D01*
X142176717Y-66355868D01*
X142873997Y-66355868D01*
X143683524Y-67165395D01*
X144493051Y-66355868D01*
X144422074Y-66112409D01*
X144167416Y-65992008D01*
X143894163Y-65923603D01*
X143612815Y-65909821D01*
X143334184Y-65951192D01*
X143068977Y-66046127D01*
X142944974Y-66112409D01*
X142873997Y-66355868D01*
X142176717Y-66355868D01*
X142055096Y-66234247D01*
X141820883Y-66077751D01*
X141560640Y-65969954D01*
X141284367Y-65915000D01*
X141002681Y-65915000D01*
X140726408Y-65969954D01*
X140466165Y-66077751D01*
X140231952Y-66234247D01*
X140032771Y-66433428D01*
X139876275Y-66667641D01*
X139768478Y-66927884D01*
X139713524Y-67204157D01*
X133356406Y-67204157D01*
X133412182Y-67099808D01*
X133494236Y-66829309D01*
X133521943Y-66548000D01*
X133494236Y-66266691D01*
X133412182Y-65996192D01*
X133278932Y-65746899D01*
X133099608Y-65528392D01*
X132881101Y-65349068D01*
X132748142Y-65278000D01*
X132881101Y-65206932D01*
X133099608Y-65027608D01*
X133278932Y-64809101D01*
X133412182Y-64559808D01*
X133444671Y-64452702D01*
X136092903Y-64452702D01*
X136164486Y-64696671D01*
X136419996Y-64817571D01*
X136694184Y-64886300D01*
X136976512Y-64900217D01*
X137256130Y-64858787D01*
X137522292Y-64763603D01*
X137647514Y-64696671D01*
X137719097Y-64452702D01*
X136906000Y-63639605D01*
X136092903Y-64452702D01*
X133444671Y-64452702D01*
X133494236Y-64289309D01*
X133521943Y-64008000D01*
X133494236Y-63726691D01*
X133434727Y-63530512D01*
X135465783Y-63530512D01*
X135507213Y-63810130D01*
X135602397Y-64076292D01*
X135669329Y-64201514D01*
X135913298Y-64273097D01*
X136726395Y-63460000D01*
X137085605Y-63460000D01*
X137898702Y-64273097D01*
X138142671Y-64201514D01*
X138263571Y-63946004D01*
X138332300Y-63671816D01*
X138346217Y-63389488D01*
X138304787Y-63109870D01*
X138209603Y-62843708D01*
X138142671Y-62718486D01*
X137898702Y-62646903D01*
X137085605Y-63460000D01*
X136726395Y-63460000D01*
X135913298Y-62646903D01*
X135669329Y-62718486D01*
X135548429Y-62973996D01*
X135479700Y-63248184D01*
X135465783Y-63530512D01*
X133434727Y-63530512D01*
X133412182Y-63456192D01*
X133278932Y-63206899D01*
X133099608Y-62988392D01*
X132881101Y-62809068D01*
X132748142Y-62738000D01*
X132881101Y-62666932D01*
X133099608Y-62487608D01*
X133278932Y-62269101D01*
X133412182Y-62019808D01*
X133494236Y-61749309D01*
X133521943Y-61468000D01*
X133494236Y-61186691D01*
X133412182Y-60916192D01*
X133360053Y-60818665D01*
X135471000Y-60818665D01*
X135471000Y-61101335D01*
X135526147Y-61378574D01*
X135634320Y-61639727D01*
X135791363Y-61874759D01*
X135991241Y-62074637D01*
X136191869Y-62208692D01*
X136164486Y-62223329D01*
X136092903Y-62467298D01*
X136906000Y-63280395D01*
X137719097Y-62467298D01*
X137647514Y-62223329D01*
X137618659Y-62209676D01*
X137820759Y-62074637D01*
X138020637Y-61874759D01*
X138177680Y-61639727D01*
X138232486Y-61507413D01*
X144586192Y-61507413D01*
X144681956Y-61771814D01*
X144971571Y-61912704D01*
X145283108Y-61994384D01*
X145604595Y-62013718D01*
X145923675Y-61969961D01*
X146228088Y-61864795D01*
X146402044Y-61771814D01*
X146497808Y-61507413D01*
X162366192Y-61507413D01*
X162461956Y-61771814D01*
X162751571Y-61912704D01*
X163063108Y-61994384D01*
X163384595Y-62013718D01*
X163703675Y-61969961D01*
X164008088Y-61864795D01*
X164182044Y-61771814D01*
X164277808Y-61507413D01*
X163322000Y-60551605D01*
X162366192Y-61507413D01*
X146497808Y-61507413D01*
X145542000Y-60551605D01*
X144586192Y-61507413D01*
X138232486Y-61507413D01*
X138285853Y-61378574D01*
X138341000Y-61101335D01*
X138341000Y-60818665D01*
X138285853Y-60541426D01*
X138241603Y-60434595D01*
X143900282Y-60434595D01*
X143944039Y-60753675D01*
X144049205Y-61058088D01*
X144142186Y-61232044D01*
X144406587Y-61327808D01*
X145362395Y-60372000D01*
X145721605Y-60372000D01*
X146677413Y-61327808D01*
X146941814Y-61232044D01*
X147082704Y-60942429D01*
X147164384Y-60630892D01*
X147176189Y-60434595D01*
X161680282Y-60434595D01*
X161724039Y-60753675D01*
X161829205Y-61058088D01*
X161922186Y-61232044D01*
X162186587Y-61327808D01*
X163142395Y-60372000D01*
X163501605Y-60372000D01*
X164457413Y-61327808D01*
X164721814Y-61232044D01*
X164862704Y-60942429D01*
X164944384Y-60630892D01*
X164963718Y-60309405D01*
X164919961Y-59990325D01*
X164814795Y-59685912D01*
X164721814Y-59511956D01*
X164457413Y-59416192D01*
X163501605Y-60372000D01*
X163142395Y-60372000D01*
X162186587Y-59416192D01*
X161922186Y-59511956D01*
X161781296Y-59801571D01*
X161699616Y-60113108D01*
X161680282Y-60434595D01*
X147176189Y-60434595D01*
X147183718Y-60309405D01*
X147139961Y-59990325D01*
X147034795Y-59685912D01*
X146941814Y-59511956D01*
X146677413Y-59416192D01*
X145721605Y-60372000D01*
X145362395Y-60372000D01*
X144406587Y-59416192D01*
X144142186Y-59511956D01*
X144001296Y-59801571D01*
X143919616Y-60113108D01*
X143900282Y-60434595D01*
X138241603Y-60434595D01*
X138177680Y-60280273D01*
X138020637Y-60045241D01*
X137820759Y-59845363D01*
X137585727Y-59688320D01*
X137324574Y-59580147D01*
X137047335Y-59525000D01*
X136764665Y-59525000D01*
X136487426Y-59580147D01*
X136226273Y-59688320D01*
X135991241Y-59845363D01*
X135791363Y-60045241D01*
X135634320Y-60280273D01*
X135526147Y-60541426D01*
X135471000Y-60818665D01*
X133360053Y-60818665D01*
X133278932Y-60666899D01*
X133099608Y-60448392D01*
X132881101Y-60269068D01*
X132748142Y-60198000D01*
X132881101Y-60126932D01*
X133099608Y-59947608D01*
X133278932Y-59729101D01*
X133412182Y-59479808D01*
X133485961Y-59236587D01*
X144586192Y-59236587D01*
X145542000Y-60192395D01*
X146497808Y-59236587D01*
X162366192Y-59236587D01*
X163322000Y-60192395D01*
X164277808Y-59236587D01*
X164182044Y-58972186D01*
X163892429Y-58831296D01*
X163580892Y-58749616D01*
X163259405Y-58730282D01*
X162940325Y-58774039D01*
X162635912Y-58879205D01*
X162461956Y-58972186D01*
X162366192Y-59236587D01*
X146497808Y-59236587D01*
X146402044Y-58972186D01*
X146112429Y-58831296D01*
X145800892Y-58749616D01*
X145479405Y-58730282D01*
X145160325Y-58774039D01*
X144855912Y-58879205D01*
X144681956Y-58972186D01*
X144586192Y-59236587D01*
X133485961Y-59236587D01*
X133494236Y-59209309D01*
X133521943Y-58928000D01*
X133494236Y-58646691D01*
X133412182Y-58376192D01*
X133278932Y-58126899D01*
X133099608Y-57908392D01*
X132881101Y-57729068D01*
X132743318Y-57655421D01*
X132935131Y-57540385D01*
X133143519Y-57351414D01*
X133311037Y-57125420D01*
X133431246Y-56871087D01*
X133471904Y-56737039D01*
X133349915Y-56515000D01*
X132207000Y-56515000D01*
X132207000Y-56535000D01*
X131953000Y-56535000D01*
X131953000Y-56515000D01*
X130810085Y-56515000D01*
X130688096Y-56737039D01*
X130728754Y-56871087D01*
X130848963Y-57125420D01*
X131016481Y-57351414D01*
X131224869Y-57540385D01*
X131416682Y-57655421D01*
X131278899Y-57729068D01*
X131060392Y-57908392D01*
X130881068Y-58126899D01*
X130747818Y-58376192D01*
X130665764Y-58646691D01*
X130638057Y-58928000D01*
X118281943Y-58928000D01*
X118254236Y-58646691D01*
X118172182Y-58376192D01*
X118038932Y-58126899D01*
X117859608Y-57908392D01*
X117641101Y-57729068D01*
X117508142Y-57658000D01*
X117641101Y-57586932D01*
X117859608Y-57407608D01*
X118038932Y-57189101D01*
X118172182Y-56939808D01*
X118254236Y-56669309D01*
X118281943Y-56388000D01*
X118254236Y-56106691D01*
X118172182Y-55836192D01*
X118038932Y-55586899D01*
X117859608Y-55368392D01*
X117746518Y-55275581D01*
X117764482Y-55273812D01*
X117884180Y-55237502D01*
X117994494Y-55178537D01*
X118091185Y-55099185D01*
X118170537Y-55002494D01*
X118229502Y-54892180D01*
X118265812Y-54772482D01*
X118278072Y-54648000D01*
X118278072Y-53848000D01*
X130638057Y-53848000D01*
X130665764Y-54129309D01*
X130747818Y-54399808D01*
X130881068Y-54649101D01*
X131060392Y-54867608D01*
X131278899Y-55046932D01*
X131416682Y-55120579D01*
X131224869Y-55235615D01*
X131016481Y-55424586D01*
X130848963Y-55650580D01*
X130728754Y-55904913D01*
X130688096Y-56038961D01*
X130810085Y-56261000D01*
X131953000Y-56261000D01*
X131953000Y-56241000D01*
X132207000Y-56241000D01*
X132207000Y-56261000D01*
X133349915Y-56261000D01*
X133471904Y-56038961D01*
X133431246Y-55904913D01*
X133311037Y-55650580D01*
X133143519Y-55424586D01*
X132935131Y-55235615D01*
X132926878Y-55230665D01*
X135471000Y-55230665D01*
X135471000Y-55513335D01*
X135526147Y-55790574D01*
X135634320Y-56051727D01*
X135791363Y-56286759D01*
X135991241Y-56486637D01*
X136226273Y-56643680D01*
X136487426Y-56751853D01*
X136764665Y-56807000D01*
X137047335Y-56807000D01*
X137324574Y-56751853D01*
X137585727Y-56643680D01*
X137820759Y-56486637D01*
X138020637Y-56286759D01*
X138177680Y-56051727D01*
X138285853Y-55790574D01*
X138341000Y-55513335D01*
X138341000Y-55230665D01*
X138285853Y-54953426D01*
X138177680Y-54692273D01*
X138020637Y-54457241D01*
X137935396Y-54372000D01*
X143903928Y-54372000D01*
X143903928Y-56372000D01*
X143916188Y-56496482D01*
X143952498Y-56616180D01*
X144011463Y-56726494D01*
X144090815Y-56823185D01*
X144187506Y-56902537D01*
X144297820Y-56961502D01*
X144417518Y-56997812D01*
X144542000Y-57010072D01*
X146542000Y-57010072D01*
X146666482Y-56997812D01*
X146786180Y-56961502D01*
X146896494Y-56902537D01*
X146993185Y-56823185D01*
X147072537Y-56726494D01*
X147131502Y-56616180D01*
X147167812Y-56496482D01*
X147180072Y-56372000D01*
X147180072Y-54372000D01*
X161683928Y-54372000D01*
X161683928Y-56372000D01*
X161696188Y-56496482D01*
X161732498Y-56616180D01*
X161791463Y-56726494D01*
X161870815Y-56823185D01*
X161967506Y-56902537D01*
X162077820Y-56961502D01*
X162197518Y-56997812D01*
X162322000Y-57010072D01*
X164322000Y-57010072D01*
X164446482Y-56997812D01*
X164566180Y-56961502D01*
X164676494Y-56902537D01*
X164773185Y-56823185D01*
X164852537Y-56726494D01*
X164911502Y-56616180D01*
X164947812Y-56496482D01*
X164960072Y-56372000D01*
X164960072Y-54372000D01*
X164947812Y-54247518D01*
X164911502Y-54127820D01*
X164852537Y-54017506D01*
X164773185Y-53920815D01*
X164676494Y-53841463D01*
X164566180Y-53782498D01*
X164446482Y-53746188D01*
X164322000Y-53733928D01*
X162322000Y-53733928D01*
X162197518Y-53746188D01*
X162077820Y-53782498D01*
X161967506Y-53841463D01*
X161870815Y-53920815D01*
X161791463Y-54017506D01*
X161732498Y-54127820D01*
X161696188Y-54247518D01*
X161683928Y-54372000D01*
X147180072Y-54372000D01*
X147167812Y-54247518D01*
X147131502Y-54127820D01*
X147072537Y-54017506D01*
X146993185Y-53920815D01*
X146896494Y-53841463D01*
X146786180Y-53782498D01*
X146666482Y-53746188D01*
X146542000Y-53733928D01*
X144542000Y-53733928D01*
X144417518Y-53746188D01*
X144297820Y-53782498D01*
X144187506Y-53841463D01*
X144090815Y-53920815D01*
X144011463Y-54017506D01*
X143952498Y-54127820D01*
X143916188Y-54247518D01*
X143903928Y-54372000D01*
X137935396Y-54372000D01*
X137820759Y-54257363D01*
X137620131Y-54123308D01*
X137647514Y-54108671D01*
X137719097Y-53864702D01*
X136906000Y-53051605D01*
X136092903Y-53864702D01*
X136164486Y-54108671D01*
X136193341Y-54122324D01*
X135991241Y-54257363D01*
X135791363Y-54457241D01*
X135634320Y-54692273D01*
X135526147Y-54953426D01*
X135471000Y-55230665D01*
X132926878Y-55230665D01*
X132743318Y-55120579D01*
X132881101Y-55046932D01*
X133099608Y-54867608D01*
X133278932Y-54649101D01*
X133412182Y-54399808D01*
X133494236Y-54129309D01*
X133521943Y-53848000D01*
X133494236Y-53566691D01*
X133412182Y-53296192D01*
X133278932Y-53046899D01*
X133193264Y-52942512D01*
X135465783Y-52942512D01*
X135507213Y-53222130D01*
X135602397Y-53488292D01*
X135669329Y-53613514D01*
X135913298Y-53685097D01*
X136726395Y-52872000D01*
X137085605Y-52872000D01*
X137898702Y-53685097D01*
X138142671Y-53613514D01*
X138263571Y-53358004D01*
X138332300Y-53083816D01*
X138346217Y-52801488D01*
X138304787Y-52521870D01*
X138209603Y-52255708D01*
X138142671Y-52130486D01*
X137898702Y-52058903D01*
X137085605Y-52872000D01*
X136726395Y-52872000D01*
X135913298Y-52058903D01*
X135669329Y-52130486D01*
X135548429Y-52385996D01*
X135479700Y-52660184D01*
X135465783Y-52942512D01*
X133193264Y-52942512D01*
X133099608Y-52828392D01*
X132881101Y-52649068D01*
X132631808Y-52515818D01*
X132361309Y-52433764D01*
X132150492Y-52413000D01*
X132009508Y-52413000D01*
X131798691Y-52433764D01*
X131528192Y-52515818D01*
X131278899Y-52649068D01*
X131060392Y-52828392D01*
X130881068Y-53046899D01*
X130747818Y-53296192D01*
X130665764Y-53566691D01*
X130638057Y-53848000D01*
X118278072Y-53848000D01*
X118278072Y-53048000D01*
X118265812Y-52923518D01*
X118229502Y-52803820D01*
X118170537Y-52693506D01*
X118091185Y-52596815D01*
X117994494Y-52517463D01*
X117884180Y-52458498D01*
X117764482Y-52422188D01*
X117640000Y-52409928D01*
X116040000Y-52409928D01*
X115915518Y-52422188D01*
X115795820Y-52458498D01*
X115685506Y-52517463D01*
X115588815Y-52596815D01*
X115509463Y-52693506D01*
X115450498Y-52803820D01*
X115414188Y-52923518D01*
X115401928Y-53048000D01*
X115401928Y-54648000D01*
X115414188Y-54772482D01*
X115450498Y-54892180D01*
X115509463Y-55002494D01*
X115588815Y-55099185D01*
X115685506Y-55178537D01*
X115795820Y-55237502D01*
X115915518Y-55273812D01*
X115933482Y-55275581D01*
X115820392Y-55368392D01*
X115641068Y-55586899D01*
X115507818Y-55836192D01*
X115425764Y-56106691D01*
X115398057Y-56388000D01*
X114660604Y-56388000D01*
X114674012Y-51879298D01*
X136092903Y-51879298D01*
X136906000Y-52692395D01*
X137719097Y-51879298D01*
X137647514Y-51635329D01*
X137392004Y-51514429D01*
X137117816Y-51445700D01*
X136835488Y-51431783D01*
X136555870Y-51473213D01*
X136289708Y-51568397D01*
X136164486Y-51635329D01*
X136092903Y-51879298D01*
X114674012Y-51879298D01*
X114680938Y-49550795D01*
X114930579Y-48801872D01*
X116129000Y-48801872D01*
X116129000Y-49242128D01*
X116214890Y-49673925D01*
X116383369Y-50080669D01*
X116627962Y-50446729D01*
X116939271Y-50758038D01*
X117305331Y-51002631D01*
X117712075Y-51171110D01*
X118143872Y-51257000D01*
X118584128Y-51257000D01*
X119015925Y-51171110D01*
X119422669Y-51002631D01*
X119788729Y-50758038D01*
X120100038Y-50446729D01*
X120344631Y-50080669D01*
X120475344Y-49765098D01*
X144427000Y-49765098D01*
X144427000Y-50234902D01*
X144518654Y-50695679D01*
X144698440Y-51129721D01*
X144959450Y-51520349D01*
X145291651Y-51852550D01*
X145682279Y-52113560D01*
X146116321Y-52293346D01*
X146577098Y-52385000D01*
X147046902Y-52385000D01*
X147507679Y-52293346D01*
X147941721Y-52113560D01*
X148332349Y-51852550D01*
X148664550Y-51520349D01*
X148925560Y-51129721D01*
X149105346Y-50695679D01*
X149197000Y-50234902D01*
X149197000Y-49765098D01*
X159667000Y-49765098D01*
X159667000Y-50234902D01*
X159758654Y-50695679D01*
X159938440Y-51129721D01*
X160199450Y-51520349D01*
X160531651Y-51852550D01*
X160922279Y-52113560D01*
X161356321Y-52293346D01*
X161817098Y-52385000D01*
X162286902Y-52385000D01*
X162747679Y-52293346D01*
X163181721Y-52113560D01*
X163572349Y-51852550D01*
X163904550Y-51520349D01*
X164165560Y-51129721D01*
X164345346Y-50695679D01*
X164437000Y-50234902D01*
X164437000Y-49765098D01*
X164345346Y-49304321D01*
X164165560Y-48870279D01*
X164119852Y-48801872D01*
X167437000Y-48801872D01*
X167437000Y-49242128D01*
X167522890Y-49673925D01*
X167691369Y-50080669D01*
X167935962Y-50446729D01*
X168247271Y-50758038D01*
X168613331Y-51002631D01*
X169020075Y-51171110D01*
X169451872Y-51257000D01*
X169892128Y-51257000D01*
X170323925Y-51171110D01*
X170730669Y-51002631D01*
X171096729Y-50758038D01*
X171408038Y-50446729D01*
X171652631Y-50080669D01*
X171821110Y-49673925D01*
X171907000Y-49242128D01*
X171907000Y-48801872D01*
X171821110Y-48370075D01*
X171652631Y-47963331D01*
X171408038Y-47597271D01*
X171096729Y-47285962D01*
X170730669Y-47041369D01*
X170323925Y-46872890D01*
X169892128Y-46787000D01*
X169451872Y-46787000D01*
X169020075Y-46872890D01*
X168613331Y-47041369D01*
X168247271Y-47285962D01*
X167935962Y-47597271D01*
X167691369Y-47963331D01*
X167522890Y-48370075D01*
X167437000Y-48801872D01*
X164119852Y-48801872D01*
X163904550Y-48479651D01*
X163572349Y-48147450D01*
X163181721Y-47886440D01*
X162747679Y-47706654D01*
X162286902Y-47615000D01*
X161817098Y-47615000D01*
X161356321Y-47706654D01*
X160922279Y-47886440D01*
X160531651Y-48147450D01*
X160199450Y-48479651D01*
X159938440Y-48870279D01*
X159758654Y-49304321D01*
X159667000Y-49765098D01*
X149197000Y-49765098D01*
X149105346Y-49304321D01*
X148925560Y-48870279D01*
X148664550Y-48479651D01*
X148332349Y-48147450D01*
X147941721Y-47886440D01*
X147507679Y-47706654D01*
X147046902Y-47615000D01*
X146577098Y-47615000D01*
X146116321Y-47706654D01*
X145682279Y-47886440D01*
X145291651Y-48147450D01*
X144959450Y-48479651D01*
X144698440Y-48870279D01*
X144518654Y-49304321D01*
X144427000Y-49765098D01*
X120475344Y-49765098D01*
X120513110Y-49673925D01*
X120599000Y-49242128D01*
X120599000Y-48801872D01*
X120513110Y-48370075D01*
X120344631Y-47963331D01*
X120100038Y-47597271D01*
X119788729Y-47285962D01*
X119422669Y-47041369D01*
X119015925Y-46872890D01*
X118584128Y-46787000D01*
X118143872Y-46787000D01*
X117712075Y-46872890D01*
X117305331Y-47041369D01*
X116939271Y-47285962D01*
X116627962Y-47597271D01*
X116383369Y-47963331D01*
X116214890Y-48370075D01*
X116129000Y-48801872D01*
X114930579Y-48801872D01*
X115876709Y-45963483D01*
X116092142Y-45847000D01*
X171872016Y-45847000D01*
X173340001Y-49516962D01*
X173340001Y-49516962D01*
G37*
X173340001Y-49516962D02*
X173340000Y-113967721D01*
X173334496Y-114023851D01*
X171417632Y-116294598D01*
X170985664Y-116340000D01*
X118585651Y-116340000D01*
X114660000Y-113635662D01*
X114660000Y-112779872D01*
X116129000Y-112779872D01*
X116129000Y-113220128D01*
X116214890Y-113651925D01*
X116383369Y-114058669D01*
X116627962Y-114424729D01*
X116939271Y-114736038D01*
X117305331Y-114980631D01*
X117712075Y-115149110D01*
X118143872Y-115235000D01*
X118584128Y-115235000D01*
X119015925Y-115149110D01*
X119422669Y-114980631D01*
X119788729Y-114736038D01*
X120100038Y-114424729D01*
X120344631Y-114058669D01*
X120513110Y-113651925D01*
X120599000Y-113220128D01*
X120599000Y-112779872D01*
X120513110Y-112348075D01*
X120344631Y-111941331D01*
X120100038Y-111575271D01*
X119788729Y-111263962D01*
X119422669Y-111019369D01*
X119015925Y-110850890D01*
X118584128Y-110765000D01*
X118143872Y-110765000D01*
X117712075Y-110850890D01*
X117305331Y-111019369D01*
X116939271Y-111263962D01*
X116627962Y-111575271D01*
X116383369Y-111941331D01*
X116214890Y-112348075D01*
X116129000Y-112779872D01*
X114660000Y-112779872D01*
X114660000Y-101107740D01*
X134181000Y-101107740D01*
X134181000Y-101400260D01*
X134238068Y-101687158D01*
X134350010Y-101957411D01*
X134512525Y-102200632D01*
X134719368Y-102407475D01*
X134893760Y-102524000D01*
X134719368Y-102640525D01*
X134512525Y-102847368D01*
X134350010Y-103090589D01*
X134238068Y-103360842D01*
X134181000Y-103647740D01*
X134181000Y-103940260D01*
X134238068Y-104227158D01*
X134350010Y-104497411D01*
X134512525Y-104740632D01*
X134719368Y-104947475D01*
X134893760Y-105064000D01*
X134719368Y-105180525D01*
X134512525Y-105387368D01*
X134350010Y-105630589D01*
X134238068Y-105900842D01*
X134181000Y-106187740D01*
X134181000Y-106480260D01*
X134238068Y-106767158D01*
X134350010Y-107037411D01*
X134512525Y-107280632D01*
X134719368Y-107487475D01*
X134893760Y-107604000D01*
X134719368Y-107720525D01*
X134512525Y-107927368D01*
X134350010Y-108170589D01*
X134238068Y-108440842D01*
X134181000Y-108727740D01*
X134181000Y-109020260D01*
X134238068Y-109307158D01*
X134350010Y-109577411D01*
X134512525Y-109820632D01*
X134719368Y-110027475D01*
X134893760Y-110144000D01*
X134719368Y-110260525D01*
X134512525Y-110467368D01*
X134350010Y-110710589D01*
X134238068Y-110980842D01*
X134181000Y-111267740D01*
X134181000Y-111560260D01*
X134238068Y-111847158D01*
X134350010Y-112117411D01*
X134512525Y-112360632D01*
X134719368Y-112567475D01*
X134893760Y-112684000D01*
X134719368Y-112800525D01*
X134512525Y-113007368D01*
X134350010Y-113250589D01*
X134238068Y-113520842D01*
X134181000Y-113807740D01*
X134181000Y-114100260D01*
X134238068Y-114387158D01*
X134350010Y-114657411D01*
X134512525Y-114900632D01*
X134719368Y-115107475D01*
X134962589Y-115269990D01*
X135232842Y-115381932D01*
X135519740Y-115439000D01*
X135812260Y-115439000D01*
X136099158Y-115381932D01*
X136369411Y-115269990D01*
X136612632Y-115107475D01*
X136819475Y-114900632D01*
X136981990Y-114657411D01*
X137093932Y-114387158D01*
X137123859Y-114236702D01*
X139394903Y-114236702D01*
X139466486Y-114480671D01*
X139721996Y-114601571D01*
X139996184Y-114670300D01*
X140278512Y-114684217D01*
X140558130Y-114642787D01*
X140824292Y-114547603D01*
X140949514Y-114480671D01*
X141021097Y-114236702D01*
X140208000Y-113423605D01*
X139394903Y-114236702D01*
X137123859Y-114236702D01*
X137151000Y-114100260D01*
X137151000Y-113807740D01*
X137093932Y-113520842D01*
X137008468Y-113314512D01*
X138767783Y-113314512D01*
X138809213Y-113594130D01*
X138904397Y-113860292D01*
X138971329Y-113985514D01*
X139215298Y-114057097D01*
X140028395Y-113244000D01*
X140387605Y-113244000D01*
X141200702Y-114057097D01*
X141444671Y-113985514D01*
X141565571Y-113730004D01*
X141634300Y-113455816D01*
X141648217Y-113173488D01*
X141606787Y-112893870D01*
X141566020Y-112779872D01*
X167437000Y-112779872D01*
X167437000Y-113220128D01*
X167522890Y-113651925D01*
X167691369Y-114058669D01*
X167935962Y-114424729D01*
X168247271Y-114736038D01*
X168613331Y-114980631D01*
X169020075Y-115149110D01*
X169451872Y-115235000D01*
X169892128Y-115235000D01*
X170323925Y-115149110D01*
X170730669Y-114980631D01*
X171096729Y-114736038D01*
X171408038Y-114424729D01*
X171652631Y-114058669D01*
X171821110Y-113651925D01*
X171907000Y-113220128D01*
X171907000Y-112779872D01*
X171821110Y-112348075D01*
X171652631Y-111941331D01*
X171408038Y-111575271D01*
X171096729Y-111263962D01*
X170730669Y-111019369D01*
X170323925Y-110850890D01*
X169892128Y-110765000D01*
X169451872Y-110765000D01*
X169020075Y-110850890D01*
X168613331Y-111019369D01*
X168247271Y-111263962D01*
X167935962Y-111575271D01*
X167691369Y-111941331D01*
X167522890Y-112348075D01*
X167437000Y-112779872D01*
X141566020Y-112779872D01*
X141511603Y-112627708D01*
X141444671Y-112502486D01*
X141200702Y-112430903D01*
X140387605Y-113244000D01*
X140028395Y-113244000D01*
X139215298Y-112430903D01*
X138971329Y-112502486D01*
X138850429Y-112757996D01*
X138781700Y-113032184D01*
X138767783Y-113314512D01*
X137008468Y-113314512D01*
X136981990Y-113250589D01*
X136819475Y-113007368D01*
X136612632Y-112800525D01*
X136438240Y-112684000D01*
X136612632Y-112567475D01*
X136819475Y-112360632D01*
X136981990Y-112117411D01*
X137093932Y-111847158D01*
X137151000Y-111560260D01*
X137151000Y-111267740D01*
X137093932Y-110980842D01*
X136981990Y-110710589D01*
X136909878Y-110602665D01*
X138773000Y-110602665D01*
X138773000Y-110885335D01*
X138828147Y-111162574D01*
X138936320Y-111423727D01*
X139093363Y-111658759D01*
X139293241Y-111858637D01*
X139493869Y-111992692D01*
X139466486Y-112007329D01*
X139394903Y-112251298D01*
X140208000Y-113064395D01*
X141021097Y-112251298D01*
X140949514Y-112007329D01*
X140920659Y-111993676D01*
X141122759Y-111858637D01*
X141322637Y-111658759D01*
X141479680Y-111423727D01*
X141550811Y-111252000D01*
X151669815Y-111252000D01*
X151698487Y-111543111D01*
X151783401Y-111823034D01*
X151921294Y-112081014D01*
X152106866Y-112307134D01*
X152332986Y-112492706D01*
X152590966Y-112630599D01*
X152870889Y-112715513D01*
X153089050Y-112737000D01*
X153234950Y-112737000D01*
X153453111Y-112715513D01*
X153733034Y-112630599D01*
X153991014Y-112492706D01*
X154217134Y-112307134D01*
X154402706Y-112081014D01*
X154540599Y-111823034D01*
X154625513Y-111543111D01*
X154654185Y-111252000D01*
X154625513Y-110960889D01*
X154540599Y-110680966D01*
X154402706Y-110422986D01*
X154217134Y-110196866D01*
X154187313Y-110172393D01*
X154256180Y-110151502D01*
X154366494Y-110092537D01*
X154463185Y-110013185D01*
X154542537Y-109916494D01*
X154601502Y-109806180D01*
X154637812Y-109686482D01*
X154650072Y-109562000D01*
X154650072Y-108671224D01*
X167058381Y-108671224D01*
X167190317Y-108966312D01*
X167531045Y-109137159D01*
X167898557Y-109238250D01*
X168278729Y-109265701D01*
X168656951Y-109218457D01*
X169018690Y-109098333D01*
X169265683Y-108966312D01*
X169397619Y-108671224D01*
X168228000Y-107501605D01*
X167058381Y-108671224D01*
X154650072Y-108671224D01*
X154650072Y-107862000D01*
X154637812Y-107737518D01*
X154601502Y-107617820D01*
X154542537Y-107507506D01*
X154463185Y-107410815D01*
X154416777Y-107372729D01*
X166284299Y-107372729D01*
X166331543Y-107750951D01*
X166451667Y-108112690D01*
X166583688Y-108359683D01*
X166878776Y-108491619D01*
X168048395Y-107322000D01*
X168407605Y-107322000D01*
X169577224Y-108491619D01*
X169872312Y-108359683D01*
X170043159Y-108018955D01*
X170144250Y-107651443D01*
X170171701Y-107271271D01*
X170124457Y-106893049D01*
X170004333Y-106531310D01*
X169872312Y-106284317D01*
X169577224Y-106152381D01*
X168407605Y-107322000D01*
X168048395Y-107322000D01*
X166878776Y-106152381D01*
X166583688Y-106284317D01*
X166412841Y-106625045D01*
X166311750Y-106992557D01*
X166284299Y-107372729D01*
X154416777Y-107372729D01*
X154366494Y-107331463D01*
X154256180Y-107272498D01*
X154136482Y-107236188D01*
X154012000Y-107223928D01*
X152312000Y-107223928D01*
X152187518Y-107236188D01*
X152067820Y-107272498D01*
X151957506Y-107331463D01*
X151860815Y-107410815D01*
X151781463Y-107507506D01*
X151722498Y-107617820D01*
X151686188Y-107737518D01*
X151673928Y-107862000D01*
X151673928Y-109562000D01*
X151686188Y-109686482D01*
X151722498Y-109806180D01*
X151781463Y-109916494D01*
X151860815Y-110013185D01*
X151957506Y-110092537D01*
X152067820Y-110151502D01*
X152136687Y-110172393D01*
X152106866Y-110196866D01*
X151921294Y-110422986D01*
X151783401Y-110680966D01*
X151698487Y-110960889D01*
X151669815Y-111252000D01*
X141550811Y-111252000D01*
X141587853Y-111162574D01*
X141643000Y-110885335D01*
X141643000Y-110602665D01*
X141587853Y-110325426D01*
X141479680Y-110064273D01*
X141322637Y-109829241D01*
X141122759Y-109629363D01*
X140887727Y-109472320D01*
X140626574Y-109364147D01*
X140349335Y-109309000D01*
X140066665Y-109309000D01*
X139789426Y-109364147D01*
X139528273Y-109472320D01*
X139293241Y-109629363D01*
X139093363Y-109829241D01*
X138936320Y-110064273D01*
X138828147Y-110325426D01*
X138773000Y-110602665D01*
X136909878Y-110602665D01*
X136819475Y-110467368D01*
X136612632Y-110260525D01*
X136438240Y-110144000D01*
X136612632Y-110027475D01*
X136819475Y-109820632D01*
X136981990Y-109577411D01*
X137093932Y-109307158D01*
X137151000Y-109020260D01*
X137151000Y-108727740D01*
X137093932Y-108440842D01*
X136981990Y-108170589D01*
X136819475Y-107927368D01*
X136612632Y-107720525D01*
X136438240Y-107604000D01*
X136612632Y-107487475D01*
X136819475Y-107280632D01*
X136981990Y-107037411D01*
X137072872Y-106818000D01*
X143495928Y-106818000D01*
X143508188Y-106942482D01*
X143544498Y-107062180D01*
X143603463Y-107172494D01*
X143682815Y-107269185D01*
X143779506Y-107348537D01*
X143889820Y-107407502D01*
X144009518Y-107443812D01*
X144134000Y-107456072D01*
X144748250Y-107453000D01*
X144907000Y-107294250D01*
X144907000Y-106045000D01*
X145161000Y-106045000D01*
X145161000Y-107294250D01*
X145319750Y-107453000D01*
X145934000Y-107456072D01*
X146058482Y-107443812D01*
X146178180Y-107407502D01*
X146288494Y-107348537D01*
X146385185Y-107269185D01*
X146464537Y-107172494D01*
X146523502Y-107062180D01*
X146559812Y-106942482D01*
X146572072Y-106818000D01*
X146569000Y-106203750D01*
X146410250Y-106045000D01*
X145161000Y-106045000D01*
X144907000Y-106045000D01*
X143657750Y-106045000D01*
X143499000Y-106203750D01*
X143495928Y-106818000D01*
X137072872Y-106818000D01*
X137093932Y-106767158D01*
X137151000Y-106480260D01*
X137151000Y-106187740D01*
X137108241Y-105972776D01*
X167058381Y-105972776D01*
X168228000Y-107142395D01*
X169397619Y-105972776D01*
X169265683Y-105677688D01*
X168924955Y-105506841D01*
X168557443Y-105405750D01*
X168177271Y-105378299D01*
X167799049Y-105425543D01*
X167437310Y-105545667D01*
X167190317Y-105677688D01*
X167058381Y-105972776D01*
X137108241Y-105972776D01*
X137093932Y-105900842D01*
X136981990Y-105630589D01*
X136819475Y-105387368D01*
X136612632Y-105180525D01*
X136438240Y-105064000D01*
X136507083Y-105018000D01*
X143495928Y-105018000D01*
X143499000Y-105632250D01*
X143657750Y-105791000D01*
X144907000Y-105791000D01*
X144907000Y-105771000D01*
X145161000Y-105771000D01*
X145161000Y-105791000D01*
X146410250Y-105791000D01*
X146569000Y-105632250D01*
X146572072Y-105018000D01*
X146559812Y-104893518D01*
X146523502Y-104773820D01*
X146464537Y-104663506D01*
X146385185Y-104566815D01*
X146288494Y-104487463D01*
X146178180Y-104428498D01*
X146159873Y-104422944D01*
X146226312Y-104356505D01*
X146394299Y-104105095D01*
X146510011Y-103825743D01*
X146569000Y-103529184D01*
X146569000Y-103226816D01*
X146510011Y-102930257D01*
X146394299Y-102650905D01*
X146226312Y-102399495D01*
X146012505Y-102185688D01*
X145931286Y-102131419D01*
X166293000Y-102131419D01*
X166293000Y-102512581D01*
X166367361Y-102886419D01*
X166513225Y-103238566D01*
X166724987Y-103555491D01*
X166994509Y-103825013D01*
X167311434Y-104036775D01*
X167663581Y-104182639D01*
X168037419Y-104257000D01*
X168418581Y-104257000D01*
X168792419Y-104182639D01*
X169144566Y-104036775D01*
X169461491Y-103825013D01*
X169731013Y-103555491D01*
X169942775Y-103238566D01*
X170088639Y-102886419D01*
X170163000Y-102512581D01*
X170163000Y-102131419D01*
X170088639Y-101757581D01*
X169942775Y-101405434D01*
X169731013Y-101088509D01*
X169461491Y-100818987D01*
X169144566Y-100607225D01*
X168792419Y-100461361D01*
X168418581Y-100387000D01*
X168037419Y-100387000D01*
X167663581Y-100461361D01*
X167311434Y-100607225D01*
X166994509Y-100818987D01*
X166724987Y-101088509D01*
X166513225Y-101405434D01*
X166367361Y-101757581D01*
X166293000Y-102131419D01*
X145931286Y-102131419D01*
X145761095Y-102017701D01*
X145481743Y-101901989D01*
X145185184Y-101843000D01*
X144882816Y-101843000D01*
X144586257Y-101901989D01*
X144306905Y-102017701D01*
X144055495Y-102185688D01*
X143841688Y-102399495D01*
X143673701Y-102650905D01*
X143557989Y-102930257D01*
X143499000Y-103226816D01*
X143499000Y-103529184D01*
X143557989Y-103825743D01*
X143673701Y-104105095D01*
X143841688Y-104356505D01*
X143908127Y-104422944D01*
X143889820Y-104428498D01*
X143779506Y-104487463D01*
X143682815Y-104566815D01*
X143603463Y-104663506D01*
X143544498Y-104773820D01*
X143508188Y-104893518D01*
X143495928Y-105018000D01*
X136507083Y-105018000D01*
X136612632Y-104947475D01*
X136819475Y-104740632D01*
X136981990Y-104497411D01*
X137093932Y-104227158D01*
X137151000Y-103940260D01*
X137151000Y-103647740D01*
X137093932Y-103360842D01*
X136981990Y-103090589D01*
X136819475Y-102847368D01*
X136612632Y-102640525D01*
X136438240Y-102524000D01*
X136612632Y-102407475D01*
X136819475Y-102200632D01*
X136981990Y-101957411D01*
X137093932Y-101687158D01*
X137151000Y-101400260D01*
X137151000Y-101107740D01*
X137093932Y-100820842D01*
X136981990Y-100550589D01*
X136819475Y-100307368D01*
X136612632Y-100100525D01*
X136439271Y-99984689D01*
X136514792Y-99742397D01*
X135666000Y-98893605D01*
X134817208Y-99742397D01*
X134892729Y-99984689D01*
X134719368Y-100100525D01*
X134512525Y-100307368D01*
X134350010Y-100550589D01*
X134238068Y-100820842D01*
X134181000Y-101107740D01*
X114660000Y-101107740D01*
X114660000Y-98782531D01*
X134175389Y-98782531D01*
X134217401Y-99072019D01*
X134315081Y-99347747D01*
X134388528Y-99485157D01*
X134637603Y-99562792D01*
X135486395Y-98714000D01*
X135845605Y-98714000D01*
X136694397Y-99562792D01*
X136943472Y-99485157D01*
X137069371Y-99221117D01*
X137141339Y-98937589D01*
X137156611Y-98645469D01*
X137114599Y-98355981D01*
X137094059Y-98298000D01*
X140290057Y-98298000D01*
X140317764Y-98579309D01*
X140399818Y-98849808D01*
X140533068Y-99099101D01*
X140712392Y-99317608D01*
X140930899Y-99496932D01*
X141180192Y-99630182D01*
X141450691Y-99712236D01*
X141661508Y-99733000D01*
X141802492Y-99733000D01*
X142013309Y-99712236D01*
X142283808Y-99630182D01*
X142533101Y-99496932D01*
X142751608Y-99317608D01*
X142930932Y-99099101D01*
X143064182Y-98849808D01*
X143146236Y-98579309D01*
X143173943Y-98298000D01*
X143160023Y-98156665D01*
X150457000Y-98156665D01*
X150457000Y-98439335D01*
X150512147Y-98716574D01*
X150620320Y-98977727D01*
X150777363Y-99212759D01*
X150977241Y-99412637D01*
X151212273Y-99569680D01*
X151473426Y-99677853D01*
X151750665Y-99733000D01*
X152033335Y-99733000D01*
X152310574Y-99677853D01*
X152571727Y-99569680D01*
X152806759Y-99412637D01*
X153006637Y-99212759D01*
X153163680Y-98977727D01*
X153271853Y-98716574D01*
X153327000Y-98439335D01*
X153327000Y-98156665D01*
X153271853Y-97879426D01*
X153163680Y-97618273D01*
X153006637Y-97383241D01*
X152806759Y-97183363D01*
X152571727Y-97026320D01*
X152310574Y-96918147D01*
X152033335Y-96863000D01*
X151750665Y-96863000D01*
X151473426Y-96918147D01*
X151212273Y-97026320D01*
X150977241Y-97183363D01*
X150777363Y-97383241D01*
X150620320Y-97618273D01*
X150512147Y-97879426D01*
X150457000Y-98156665D01*
X143160023Y-98156665D01*
X143146236Y-98016691D01*
X143064182Y-97746192D01*
X142930932Y-97496899D01*
X142751608Y-97278392D01*
X142533101Y-97099068D01*
X142283808Y-96965818D01*
X142013309Y-96883764D01*
X141802492Y-96863000D01*
X141661508Y-96863000D01*
X141450691Y-96883764D01*
X141180192Y-96965818D01*
X140930899Y-97099068D01*
X140712392Y-97278392D01*
X140533068Y-97496899D01*
X140399818Y-97746192D01*
X140317764Y-98016691D01*
X140290057Y-98298000D01*
X137094059Y-98298000D01*
X137016919Y-98080253D01*
X136943472Y-97942843D01*
X136694397Y-97865208D01*
X135845605Y-98714000D01*
X135486395Y-98714000D01*
X134637603Y-97865208D01*
X134388528Y-97942843D01*
X134262629Y-98206883D01*
X134190661Y-98490411D01*
X134175389Y-98782531D01*
X114660000Y-98782531D01*
X114660000Y-97685603D01*
X134817208Y-97685603D01*
X135666000Y-98534395D01*
X136514792Y-97685603D01*
X136437157Y-97436528D01*
X136173117Y-97310629D01*
X135889589Y-97238661D01*
X135597469Y-97223389D01*
X135307981Y-97265401D01*
X135032253Y-97363081D01*
X134894843Y-97436528D01*
X134817208Y-97685603D01*
X114660000Y-97685603D01*
X114660000Y-64008000D01*
X115398057Y-64008000D01*
X115425764Y-64289309D01*
X115507818Y-64559808D01*
X115641068Y-64809101D01*
X115820392Y-65027608D01*
X116038899Y-65206932D01*
X116171858Y-65278000D01*
X116038899Y-65349068D01*
X115820392Y-65528392D01*
X115641068Y-65746899D01*
X115507818Y-65996192D01*
X115425764Y-66266691D01*
X115398057Y-66548000D01*
X115425764Y-66829309D01*
X115507818Y-67099808D01*
X115641068Y-67349101D01*
X115820392Y-67567608D01*
X116038899Y-67746932D01*
X116171858Y-67818000D01*
X116038899Y-67889068D01*
X115820392Y-68068392D01*
X115641068Y-68286899D01*
X115507818Y-68536192D01*
X115425764Y-68806691D01*
X115398057Y-69088000D01*
X115425764Y-69369309D01*
X115507818Y-69639808D01*
X115641068Y-69889101D01*
X115820392Y-70107608D01*
X116038899Y-70286932D01*
X116171858Y-70358000D01*
X116038899Y-70429068D01*
X115820392Y-70608392D01*
X115641068Y-70826899D01*
X115507818Y-71076192D01*
X115425764Y-71346691D01*
X115398057Y-71628000D01*
X115425764Y-71909309D01*
X115507818Y-72179808D01*
X115641068Y-72429101D01*
X115820392Y-72647608D01*
X116038899Y-72826932D01*
X116171858Y-72898000D01*
X116038899Y-72969068D01*
X115820392Y-73148392D01*
X115641068Y-73366899D01*
X115507818Y-73616192D01*
X115425764Y-73886691D01*
X115398057Y-74168000D01*
X115425764Y-74449309D01*
X115507818Y-74719808D01*
X115641068Y-74969101D01*
X115820392Y-75187608D01*
X116038899Y-75366932D01*
X116171858Y-75438000D01*
X116038899Y-75509068D01*
X115820392Y-75688392D01*
X115641068Y-75906899D01*
X115507818Y-76156192D01*
X115425764Y-76426691D01*
X115398057Y-76708000D01*
X115425764Y-76989309D01*
X115507818Y-77259808D01*
X115641068Y-77509101D01*
X115820392Y-77727608D01*
X116038899Y-77906932D01*
X116171858Y-77978000D01*
X116038899Y-78049068D01*
X115820392Y-78228392D01*
X115641068Y-78446899D01*
X115507818Y-78696192D01*
X115425764Y-78966691D01*
X115398057Y-79248000D01*
X115425764Y-79529309D01*
X115507818Y-79799808D01*
X115641068Y-80049101D01*
X115820392Y-80267608D01*
X116038899Y-80446932D01*
X116171858Y-80518000D01*
X116038899Y-80589068D01*
X115820392Y-80768392D01*
X115641068Y-80986899D01*
X115507818Y-81236192D01*
X115425764Y-81506691D01*
X115398057Y-81788000D01*
X115425764Y-82069309D01*
X115507818Y-82339808D01*
X115641068Y-82589101D01*
X115820392Y-82807608D01*
X116038899Y-82986932D01*
X116171858Y-83058000D01*
X116038899Y-83129068D01*
X115820392Y-83308392D01*
X115641068Y-83526899D01*
X115507818Y-83776192D01*
X115425764Y-84046691D01*
X115398057Y-84328000D01*
X115425764Y-84609309D01*
X115507818Y-84879808D01*
X115641068Y-85129101D01*
X115820392Y-85347608D01*
X116038899Y-85526932D01*
X116171858Y-85598000D01*
X116038899Y-85669068D01*
X115820392Y-85848392D01*
X115641068Y-86066899D01*
X115507818Y-86316192D01*
X115425764Y-86586691D01*
X115398057Y-86868000D01*
X115425764Y-87149309D01*
X115507818Y-87419808D01*
X115641068Y-87669101D01*
X115820392Y-87887608D01*
X116038899Y-88066932D01*
X116171858Y-88138000D01*
X116038899Y-88209068D01*
X115820392Y-88388392D01*
X115641068Y-88606899D01*
X115507818Y-88856192D01*
X115425764Y-89126691D01*
X115398057Y-89408000D01*
X115425764Y-89689309D01*
X115507818Y-89959808D01*
X115641068Y-90209101D01*
X115820392Y-90427608D01*
X116038899Y-90606932D01*
X116288192Y-90740182D01*
X116558691Y-90822236D01*
X116769508Y-90843000D01*
X116910492Y-90843000D01*
X117121309Y-90822236D01*
X117391808Y-90740182D01*
X117641101Y-90606932D01*
X117859608Y-90427608D01*
X118038932Y-90209101D01*
X118172182Y-89959808D01*
X118254236Y-89689309D01*
X118281943Y-89408000D01*
X118254236Y-89126691D01*
X118172182Y-88856192D01*
X118038932Y-88606899D01*
X117859608Y-88388392D01*
X117641101Y-88209068D01*
X117508142Y-88138000D01*
X117641101Y-88066932D01*
X117859608Y-87887608D01*
X118038932Y-87669101D01*
X118172182Y-87419808D01*
X118254236Y-87149309D01*
X118281943Y-86868000D01*
X118254236Y-86586691D01*
X118172182Y-86316192D01*
X118038932Y-86066899D01*
X117859608Y-85848392D01*
X117641101Y-85669068D01*
X117508142Y-85598000D01*
X117641101Y-85526932D01*
X117859608Y-85347608D01*
X118038932Y-85129101D01*
X118172182Y-84879808D01*
X118254236Y-84609309D01*
X118281943Y-84328000D01*
X118254236Y-84046691D01*
X118172182Y-83776192D01*
X118038932Y-83526899D01*
X117859608Y-83308392D01*
X117641101Y-83129068D01*
X117508142Y-83058000D01*
X117641101Y-82986932D01*
X117859608Y-82807608D01*
X118038932Y-82589101D01*
X118172182Y-82339808D01*
X118254236Y-82069309D01*
X118281943Y-81788000D01*
X118254236Y-81506691D01*
X118172182Y-81236192D01*
X118038932Y-80986899D01*
X117859608Y-80768392D01*
X117641101Y-80589068D01*
X117508142Y-80518000D01*
X117641101Y-80446932D01*
X117859608Y-80267608D01*
X118038932Y-80049101D01*
X118172182Y-79799808D01*
X118254236Y-79529309D01*
X118281943Y-79248000D01*
X118254236Y-78966691D01*
X118172182Y-78696192D01*
X118038932Y-78446899D01*
X117859608Y-78228392D01*
X117641101Y-78049068D01*
X117508142Y-77978000D01*
X117641101Y-77906932D01*
X117859608Y-77727608D01*
X118038932Y-77509101D01*
X118172182Y-77259808D01*
X118254236Y-76989309D01*
X118281943Y-76708000D01*
X118254236Y-76426691D01*
X118172182Y-76156192D01*
X118038932Y-75906899D01*
X117859608Y-75688392D01*
X117641101Y-75509068D01*
X117508142Y-75438000D01*
X117641101Y-75366932D01*
X117859608Y-75187608D01*
X118038932Y-74969101D01*
X118172182Y-74719808D01*
X118254236Y-74449309D01*
X118281943Y-74168000D01*
X118254236Y-73886691D01*
X118172182Y-73616192D01*
X118038932Y-73366899D01*
X117859608Y-73148392D01*
X117641101Y-72969068D01*
X117508142Y-72898000D01*
X117641101Y-72826932D01*
X117859608Y-72647608D01*
X118038932Y-72429101D01*
X118172182Y-72179808D01*
X118254236Y-71909309D01*
X118281943Y-71628000D01*
X118254236Y-71346691D01*
X118172182Y-71076192D01*
X118038932Y-70826899D01*
X117859608Y-70608392D01*
X117641101Y-70429068D01*
X117508142Y-70358000D01*
X117641101Y-70286932D01*
X117859608Y-70107608D01*
X118038932Y-69889101D01*
X118172182Y-69639808D01*
X118254236Y-69369309D01*
X118281943Y-69088000D01*
X118254236Y-68806691D01*
X118172182Y-68536192D01*
X118038932Y-68286899D01*
X117859608Y-68068392D01*
X117641101Y-67889068D01*
X117508142Y-67818000D01*
X117641101Y-67746932D01*
X117859608Y-67567608D01*
X118038932Y-67349101D01*
X118172182Y-67099808D01*
X118254236Y-66829309D01*
X118281943Y-66548000D01*
X118254236Y-66266691D01*
X118172182Y-65996192D01*
X118038932Y-65746899D01*
X117859608Y-65528392D01*
X117641101Y-65349068D01*
X117508142Y-65278000D01*
X117641101Y-65206932D01*
X117859608Y-65027608D01*
X118038932Y-64809101D01*
X118172182Y-64559808D01*
X118254236Y-64289309D01*
X118281943Y-64008000D01*
X118254236Y-63726691D01*
X118172182Y-63456192D01*
X118038932Y-63206899D01*
X117859608Y-62988392D01*
X117641101Y-62809068D01*
X117503318Y-62735421D01*
X117695131Y-62620385D01*
X117903519Y-62431414D01*
X118071037Y-62205420D01*
X118191246Y-61951087D01*
X118231904Y-61817039D01*
X118109915Y-61595000D01*
X116967000Y-61595000D01*
X116967000Y-61615000D01*
X116713000Y-61615000D01*
X116713000Y-61595000D01*
X115570085Y-61595000D01*
X115448096Y-61817039D01*
X115488754Y-61951087D01*
X115608963Y-62205420D01*
X115776481Y-62431414D01*
X115984869Y-62620385D01*
X116176682Y-62735421D01*
X116038899Y-62809068D01*
X115820392Y-62988392D01*
X115641068Y-63206899D01*
X115507818Y-63456192D01*
X115425764Y-63726691D01*
X115398057Y-64008000D01*
X114660000Y-64008000D01*
X114660000Y-56591202D01*
X114660604Y-56388000D01*
X115398057Y-56388000D01*
X115425764Y-56669309D01*
X115507818Y-56939808D01*
X115641068Y-57189101D01*
X115820392Y-57407608D01*
X116038899Y-57586932D01*
X116171858Y-57658000D01*
X116038899Y-57729068D01*
X115820392Y-57908392D01*
X115641068Y-58126899D01*
X115507818Y-58376192D01*
X115425764Y-58646691D01*
X115398057Y-58928000D01*
X115425764Y-59209309D01*
X115507818Y-59479808D01*
X115641068Y-59729101D01*
X115820392Y-59947608D01*
X116038899Y-60126932D01*
X116176682Y-60200579D01*
X115984869Y-60315615D01*
X115776481Y-60504586D01*
X115608963Y-60730580D01*
X115488754Y-60984913D01*
X115448096Y-61118961D01*
X115570085Y-61341000D01*
X116713000Y-61341000D01*
X116713000Y-61321000D01*
X116967000Y-61321000D01*
X116967000Y-61341000D01*
X118109915Y-61341000D01*
X118231904Y-61118961D01*
X118191246Y-60984913D01*
X118071037Y-60730580D01*
X117903519Y-60504586D01*
X117695131Y-60315615D01*
X117503318Y-60200579D01*
X117641101Y-60126932D01*
X117859608Y-59947608D01*
X118038932Y-59729101D01*
X118172182Y-59479808D01*
X118254236Y-59209309D01*
X118281943Y-58928000D01*
X130638057Y-58928000D01*
X130665764Y-59209309D01*
X130747818Y-59479808D01*
X130881068Y-59729101D01*
X131060392Y-59947608D01*
X131278899Y-60126932D01*
X131411858Y-60198000D01*
X131278899Y-60269068D01*
X131060392Y-60448392D01*
X130881068Y-60666899D01*
X130747818Y-60916192D01*
X130665764Y-61186691D01*
X130638057Y-61468000D01*
X130665764Y-61749309D01*
X130747818Y-62019808D01*
X130881068Y-62269101D01*
X131060392Y-62487608D01*
X131278899Y-62666932D01*
X131411858Y-62738000D01*
X131278899Y-62809068D01*
X131060392Y-62988392D01*
X130881068Y-63206899D01*
X130747818Y-63456192D01*
X130665764Y-63726691D01*
X130638057Y-64008000D01*
X130665764Y-64289309D01*
X130747818Y-64559808D01*
X130881068Y-64809101D01*
X131060392Y-65027608D01*
X131278899Y-65206932D01*
X131411858Y-65278000D01*
X131278899Y-65349068D01*
X131060392Y-65528392D01*
X130881068Y-65746899D01*
X130747818Y-65996192D01*
X130665764Y-66266691D01*
X130638057Y-66548000D01*
X130665764Y-66829309D01*
X130747818Y-67099808D01*
X130881068Y-67349101D01*
X131060392Y-67567608D01*
X131278899Y-67746932D01*
X131411858Y-67818000D01*
X131278899Y-67889068D01*
X131060392Y-68068392D01*
X130881068Y-68286899D01*
X130747818Y-68536192D01*
X130665764Y-68806691D01*
X130638057Y-69088000D01*
X130665764Y-69369309D01*
X130747818Y-69639808D01*
X130881068Y-69889101D01*
X131060392Y-70107608D01*
X131278899Y-70286932D01*
X131411858Y-70358000D01*
X131278899Y-70429068D01*
X131060392Y-70608392D01*
X130881068Y-70826899D01*
X130747818Y-71076192D01*
X130665764Y-71346691D01*
X130638057Y-71628000D01*
X130665764Y-71909309D01*
X130747818Y-72179808D01*
X130881068Y-72429101D01*
X131060392Y-72647608D01*
X131278899Y-72826932D01*
X131411858Y-72898000D01*
X131278899Y-72969068D01*
X131060392Y-73148392D01*
X130881068Y-73366899D01*
X130747818Y-73616192D01*
X130665764Y-73886691D01*
X130638057Y-74168000D01*
X130665764Y-74449309D01*
X130747818Y-74719808D01*
X130881068Y-74969101D01*
X131060392Y-75187608D01*
X131278899Y-75366932D01*
X131411858Y-75438000D01*
X131278899Y-75509068D01*
X131060392Y-75688392D01*
X130881068Y-75906899D01*
X130747818Y-76156192D01*
X130665764Y-76426691D01*
X130638057Y-76708000D01*
X130665764Y-76989309D01*
X130747818Y-77259808D01*
X130881068Y-77509101D01*
X131060392Y-77727608D01*
X131278899Y-77906932D01*
X131411858Y-77978000D01*
X131278899Y-78049068D01*
X131060392Y-78228392D01*
X130881068Y-78446899D01*
X130747818Y-78696192D01*
X130665764Y-78966691D01*
X130638057Y-79248000D01*
X130665764Y-79529309D01*
X130747818Y-79799808D01*
X130881068Y-80049101D01*
X131060392Y-80267608D01*
X131278899Y-80446932D01*
X131411858Y-80518000D01*
X131278899Y-80589068D01*
X131060392Y-80768392D01*
X130881068Y-80986899D01*
X130747818Y-81236192D01*
X130665764Y-81506691D01*
X130638057Y-81788000D01*
X130665764Y-82069309D01*
X130747818Y-82339808D01*
X130881068Y-82589101D01*
X131060392Y-82807608D01*
X131278899Y-82986932D01*
X131411858Y-83058000D01*
X131278899Y-83129068D01*
X131060392Y-83308392D01*
X130881068Y-83526899D01*
X130747818Y-83776192D01*
X130665764Y-84046691D01*
X130638057Y-84328000D01*
X130665764Y-84609309D01*
X130747818Y-84879808D01*
X130881068Y-85129101D01*
X131060392Y-85347608D01*
X131278899Y-85526932D01*
X131411858Y-85598000D01*
X131278899Y-85669068D01*
X131060392Y-85848392D01*
X130881068Y-86066899D01*
X130747818Y-86316192D01*
X130665764Y-86586691D01*
X130638057Y-86868000D01*
X130665764Y-87149309D01*
X130747818Y-87419808D01*
X130881068Y-87669101D01*
X131060392Y-87887608D01*
X131278899Y-88066932D01*
X131411858Y-88138000D01*
X131278899Y-88209068D01*
X131060392Y-88388392D01*
X130881068Y-88606899D01*
X130747818Y-88856192D01*
X130665764Y-89126691D01*
X130638057Y-89408000D01*
X130665764Y-89689309D01*
X130747818Y-89959808D01*
X130881068Y-90209101D01*
X131060392Y-90427608D01*
X131278899Y-90606932D01*
X131528192Y-90740182D01*
X131798691Y-90822236D01*
X132009508Y-90843000D01*
X132150492Y-90843000D01*
X132361309Y-90822236D01*
X132453046Y-90794408D01*
X137033000Y-90794408D01*
X137033000Y-91069592D01*
X137086686Y-91339490D01*
X137191995Y-91593727D01*
X137344880Y-91822535D01*
X137539465Y-92017120D01*
X137768273Y-92170005D01*
X137845515Y-92202000D01*
X137768273Y-92233995D01*
X137539465Y-92386880D01*
X137344880Y-92581465D01*
X137191995Y-92810273D01*
X137086686Y-93064510D01*
X137033000Y-93334408D01*
X137033000Y-93609592D01*
X137086686Y-93879490D01*
X137191995Y-94133727D01*
X137344880Y-94362535D01*
X137539465Y-94557120D01*
X137768273Y-94710005D01*
X138022510Y-94815314D01*
X138292408Y-94869000D01*
X138567592Y-94869000D01*
X138837490Y-94815314D01*
X139091727Y-94710005D01*
X139320535Y-94557120D01*
X139515120Y-94362535D01*
X139668005Y-94133727D01*
X139773314Y-93879490D01*
X139827000Y-93609592D01*
X139827000Y-93334408D01*
X139773314Y-93064510D01*
X139668005Y-92810273D01*
X139515120Y-92581465D01*
X139320535Y-92386880D01*
X139091727Y-92233995D01*
X139014485Y-92202000D01*
X139091727Y-92170005D01*
X139320535Y-92017120D01*
X139515120Y-91822535D01*
X139668005Y-91593727D01*
X139773314Y-91339490D01*
X139827000Y-91069592D01*
X139827000Y-90794408D01*
X147193000Y-90794408D01*
X147193000Y-91069592D01*
X147246686Y-91339490D01*
X147351995Y-91593727D01*
X147504880Y-91822535D01*
X147699465Y-92017120D01*
X147928273Y-92170005D01*
X148005515Y-92202000D01*
X147928273Y-92233995D01*
X147699465Y-92386880D01*
X147504880Y-92581465D01*
X147351995Y-92810273D01*
X147246686Y-93064510D01*
X147193000Y-93334408D01*
X147193000Y-93609592D01*
X147246686Y-93879490D01*
X147351995Y-94133727D01*
X147504880Y-94362535D01*
X147699465Y-94557120D01*
X147928273Y-94710005D01*
X148182510Y-94815314D01*
X148452408Y-94869000D01*
X148727592Y-94869000D01*
X148997490Y-94815314D01*
X149251727Y-94710005D01*
X149480535Y-94557120D01*
X149675120Y-94362535D01*
X149828005Y-94133727D01*
X149933314Y-93879490D01*
X149987000Y-93609592D01*
X149987000Y-93334408D01*
X149933314Y-93064510D01*
X149828005Y-92810273D01*
X149675120Y-92581465D01*
X149480535Y-92386880D01*
X149251727Y-92233995D01*
X149174485Y-92202000D01*
X149251727Y-92170005D01*
X149480535Y-92017120D01*
X149675120Y-91822535D01*
X149828005Y-91593727D01*
X149933314Y-91339490D01*
X149963330Y-91188589D01*
X155064000Y-91188589D01*
X155064000Y-91461411D01*
X155117225Y-91728989D01*
X155221629Y-91981043D01*
X155373201Y-92207886D01*
X155566114Y-92400799D01*
X155792957Y-92552371D01*
X155895873Y-92595000D01*
X155792957Y-92637629D01*
X155566114Y-92789201D01*
X155373201Y-92982114D01*
X155221629Y-93208957D01*
X155117225Y-93461011D01*
X155064000Y-93728589D01*
X155064000Y-94001411D01*
X155117225Y-94268989D01*
X155221629Y-94521043D01*
X155373201Y-94747886D01*
X155566114Y-94940799D01*
X155792957Y-95092371D01*
X156045011Y-95196775D01*
X156312589Y-95250000D01*
X156585411Y-95250000D01*
X156852989Y-95196775D01*
X157105043Y-95092371D01*
X157331886Y-94940799D01*
X157524799Y-94747886D01*
X157600928Y-94633951D01*
X157600928Y-95885000D01*
X157613188Y-96009482D01*
X157649498Y-96129180D01*
X157708463Y-96239494D01*
X157787815Y-96336185D01*
X157884506Y-96415537D01*
X157994820Y-96474502D01*
X158114518Y-96510812D01*
X158239000Y-96523072D01*
X159739000Y-96523072D01*
X159863482Y-96510812D01*
X159983180Y-96474502D01*
X160093494Y-96415537D01*
X160190185Y-96336185D01*
X160269537Y-96239494D01*
X160298733Y-96184872D01*
X163104000Y-96184872D01*
X163104000Y-96625128D01*
X163189890Y-97056925D01*
X163358369Y-97463669D01*
X163602962Y-97829729D01*
X163914271Y-98141038D01*
X164280331Y-98385631D01*
X164687075Y-98554110D01*
X165118872Y-98640000D01*
X165559128Y-98640000D01*
X165990925Y-98554110D01*
X166397669Y-98385631D01*
X166763729Y-98141038D01*
X167075038Y-97829729D01*
X167319631Y-97463669D01*
X167488110Y-97056925D01*
X167574000Y-96625128D01*
X167574000Y-96184872D01*
X167488110Y-95753075D01*
X167319631Y-95346331D01*
X167075038Y-94980271D01*
X166763729Y-94668962D01*
X166397669Y-94424369D01*
X165990925Y-94255890D01*
X165559128Y-94170000D01*
X165118872Y-94170000D01*
X164687075Y-94255890D01*
X164280331Y-94424369D01*
X163914271Y-94668962D01*
X163602962Y-94980271D01*
X163358369Y-95346331D01*
X163189890Y-95753075D01*
X163104000Y-96184872D01*
X160298733Y-96184872D01*
X160328502Y-96129180D01*
X160364812Y-96009482D01*
X160377072Y-95885000D01*
X160377072Y-94385000D01*
X160364812Y-94260518D01*
X160328502Y-94140820D01*
X160269537Y-94030506D01*
X160190185Y-93933815D01*
X160093494Y-93854463D01*
X159983180Y-93795498D01*
X159863482Y-93759188D01*
X159755517Y-93748555D01*
X159871886Y-93670799D01*
X160064799Y-93477886D01*
X160216371Y-93251043D01*
X160320775Y-92998989D01*
X160374000Y-92731411D01*
X160374000Y-92458589D01*
X160320775Y-92191011D01*
X160216371Y-91938957D01*
X160064799Y-91712114D01*
X159871886Y-91519201D01*
X159645043Y-91367629D01*
X159542127Y-91325000D01*
X159645043Y-91282371D01*
X159871886Y-91130799D01*
X160064799Y-90937886D01*
X160216371Y-90711043D01*
X160320775Y-90458989D01*
X160374000Y-90191411D01*
X160374000Y-89918589D01*
X160320775Y-89651011D01*
X160216371Y-89398957D01*
X160064799Y-89172114D01*
X159871886Y-88979201D01*
X159645043Y-88827629D01*
X159545721Y-88786489D01*
X159587832Y-88771277D01*
X159700863Y-88710860D01*
X159766388Y-88471993D01*
X158989000Y-87694605D01*
X158211612Y-88471993D01*
X158277137Y-88710860D01*
X158435477Y-88785164D01*
X158332957Y-88827629D01*
X158106114Y-88979201D01*
X157913201Y-89172114D01*
X157761629Y-89398957D01*
X157657225Y-89651011D01*
X157604000Y-89918589D01*
X157604000Y-90191411D01*
X157657225Y-90458989D01*
X157761629Y-90711043D01*
X157913201Y-90937886D01*
X158106114Y-91130799D01*
X158332957Y-91282371D01*
X158435873Y-91325000D01*
X158332957Y-91367629D01*
X158106114Y-91519201D01*
X157913201Y-91712114D01*
X157761629Y-91938957D01*
X157657225Y-92191011D01*
X157604000Y-92458589D01*
X157604000Y-92731411D01*
X157657225Y-92998989D01*
X157761629Y-93251043D01*
X157913201Y-93477886D01*
X158106114Y-93670799D01*
X158222483Y-93748555D01*
X158114518Y-93759188D01*
X157994820Y-93795498D01*
X157884506Y-93854463D01*
X157834000Y-93895912D01*
X157834000Y-93728589D01*
X157780775Y-93461011D01*
X157676371Y-93208957D01*
X157524799Y-92982114D01*
X157331886Y-92789201D01*
X157105043Y-92637629D01*
X157002127Y-92595000D01*
X157105043Y-92552371D01*
X157331886Y-92400799D01*
X157524799Y-92207886D01*
X157676371Y-91981043D01*
X157780775Y-91728989D01*
X157834000Y-91461411D01*
X157834000Y-91188589D01*
X157780775Y-90921011D01*
X157676371Y-90668957D01*
X157524799Y-90442114D01*
X157331886Y-90249201D01*
X157105043Y-90097629D01*
X157005721Y-90056489D01*
X157047832Y-90041277D01*
X157160863Y-89980860D01*
X157226388Y-89741993D01*
X156449000Y-88964605D01*
X155671612Y-89741993D01*
X155737137Y-89980860D01*
X155895477Y-90055164D01*
X155792957Y-90097629D01*
X155566114Y-90249201D01*
X155373201Y-90442114D01*
X155221629Y-90668957D01*
X155117225Y-90921011D01*
X155064000Y-91188589D01*
X149963330Y-91188589D01*
X149987000Y-91069592D01*
X149987000Y-90794408D01*
X149933314Y-90524510D01*
X149828005Y-90270273D01*
X149675120Y-90041465D01*
X149480535Y-89846880D01*
X149251727Y-89693995D01*
X149180057Y-89664308D01*
X149193023Y-89659636D01*
X149308980Y-89597656D01*
X149375960Y-89357565D01*
X148590000Y-88571605D01*
X147804040Y-89357565D01*
X147871020Y-89597656D01*
X148006760Y-89661485D01*
X147928273Y-89693995D01*
X147699465Y-89846880D01*
X147504880Y-90041465D01*
X147351995Y-90270273D01*
X147246686Y-90524510D01*
X147193000Y-90794408D01*
X139827000Y-90794408D01*
X139773314Y-90524510D01*
X139668005Y-90270273D01*
X139515120Y-90041465D01*
X139320535Y-89846880D01*
X139091727Y-89693995D01*
X139020057Y-89664308D01*
X139033023Y-89659636D01*
X139148980Y-89597656D01*
X139215960Y-89357565D01*
X138430000Y-88571605D01*
X137644040Y-89357565D01*
X137711020Y-89597656D01*
X137846760Y-89661485D01*
X137768273Y-89693995D01*
X137539465Y-89846880D01*
X137344880Y-90041465D01*
X137191995Y-90270273D01*
X137086686Y-90524510D01*
X137033000Y-90794408D01*
X132453046Y-90794408D01*
X132631808Y-90740182D01*
X132881101Y-90606932D01*
X133099608Y-90427608D01*
X133278932Y-90209101D01*
X133412182Y-89959808D01*
X133494236Y-89689309D01*
X133521943Y-89408000D01*
X133494236Y-89126691D01*
X133412182Y-88856192D01*
X133278932Y-88606899D01*
X133161672Y-88464017D01*
X137028090Y-88464017D01*
X137069078Y-88736133D01*
X137162364Y-88995023D01*
X137224344Y-89110980D01*
X137464435Y-89177960D01*
X138250395Y-88392000D01*
X138609605Y-88392000D01*
X139395565Y-89177960D01*
X139635656Y-89110980D01*
X139752756Y-88861952D01*
X139819023Y-88594865D01*
X139825157Y-88464017D01*
X147188090Y-88464017D01*
X147229078Y-88736133D01*
X147322364Y-88995023D01*
X147384344Y-89110980D01*
X147624435Y-89177960D01*
X148410395Y-88392000D01*
X148769605Y-88392000D01*
X149555565Y-89177960D01*
X149795656Y-89110980D01*
X149912756Y-88861952D01*
X149913862Y-88857492D01*
X155059188Y-88857492D01*
X155100035Y-89127238D01*
X155192723Y-89383832D01*
X155253140Y-89496863D01*
X155492007Y-89562388D01*
X156269395Y-88785000D01*
X156628605Y-88785000D01*
X157405993Y-89562388D01*
X157644860Y-89496863D01*
X157760760Y-89249884D01*
X157826250Y-88985040D01*
X157838812Y-88712508D01*
X157797965Y-88442762D01*
X157705277Y-88186168D01*
X157644860Y-88073137D01*
X157405993Y-88007612D01*
X156628605Y-88785000D01*
X156269395Y-88785000D01*
X155492007Y-88007612D01*
X155253140Y-88073137D01*
X155137240Y-88320116D01*
X155071750Y-88584960D01*
X155059188Y-88857492D01*
X149913862Y-88857492D01*
X149979023Y-88594865D01*
X149991910Y-88319983D01*
X149950922Y-88047867D01*
X149857636Y-87788977D01*
X149795656Y-87673020D01*
X149555565Y-87606040D01*
X148769605Y-88392000D01*
X148410395Y-88392000D01*
X147624435Y-87606040D01*
X147384344Y-87673020D01*
X147267244Y-87922048D01*
X147200977Y-88189135D01*
X147188090Y-88464017D01*
X139825157Y-88464017D01*
X139831910Y-88319983D01*
X139790922Y-88047867D01*
X139697636Y-87788977D01*
X139635656Y-87673020D01*
X139395565Y-87606040D01*
X138609605Y-88392000D01*
X138250395Y-88392000D01*
X137464435Y-87606040D01*
X137224344Y-87673020D01*
X137107244Y-87922048D01*
X137040977Y-88189135D01*
X137028090Y-88464017D01*
X133161672Y-88464017D01*
X133099608Y-88388392D01*
X132881101Y-88209068D01*
X132748142Y-88138000D01*
X132881101Y-88066932D01*
X133099608Y-87887608D01*
X133278932Y-87669101D01*
X133412182Y-87419808D01*
X133494236Y-87149309D01*
X133521943Y-86868000D01*
X133494236Y-86586691D01*
X133412182Y-86316192D01*
X133278932Y-86066899D01*
X133099608Y-85848392D01*
X132881101Y-85669068D01*
X132748142Y-85598000D01*
X132881101Y-85526932D01*
X133099608Y-85347608D01*
X133278932Y-85129101D01*
X133412182Y-84879808D01*
X133494236Y-84609309D01*
X133521943Y-84328000D01*
X133494236Y-84046691D01*
X133412182Y-83776192D01*
X133278932Y-83526899D01*
X133099608Y-83308392D01*
X132881101Y-83129068D01*
X132748142Y-83058000D01*
X132881101Y-82986932D01*
X133099608Y-82807608D01*
X133278932Y-82589101D01*
X133412182Y-82339808D01*
X133494236Y-82069309D01*
X133521943Y-81788000D01*
X133494236Y-81506691D01*
X133412182Y-81236192D01*
X133278932Y-80986899D01*
X133099608Y-80768392D01*
X132936348Y-80634408D01*
X137033000Y-80634408D01*
X137033000Y-80909592D01*
X137086686Y-81179490D01*
X137191995Y-81433727D01*
X137344880Y-81662535D01*
X137539465Y-81857120D01*
X137768273Y-82010005D01*
X137845515Y-82042000D01*
X137768273Y-82073995D01*
X137539465Y-82226880D01*
X137344880Y-82421465D01*
X137191995Y-82650273D01*
X137086686Y-82904510D01*
X137033000Y-83174408D01*
X137033000Y-83449592D01*
X137086686Y-83719490D01*
X137191995Y-83973727D01*
X137344880Y-84202535D01*
X137539465Y-84397120D01*
X137768273Y-84550005D01*
X137845515Y-84582000D01*
X137768273Y-84613995D01*
X137539465Y-84766880D01*
X137344880Y-84961465D01*
X137191995Y-85190273D01*
X137086686Y-85444510D01*
X137033000Y-85714408D01*
X137033000Y-85989592D01*
X137086686Y-86259490D01*
X137191995Y-86513727D01*
X137344880Y-86742535D01*
X137539465Y-86937120D01*
X137768273Y-87090005D01*
X137839943Y-87119692D01*
X137826977Y-87124364D01*
X137711020Y-87186344D01*
X137644040Y-87426435D01*
X138430000Y-88212395D01*
X139215960Y-87426435D01*
X139148980Y-87186344D01*
X139013240Y-87122515D01*
X139091727Y-87090005D01*
X139320535Y-86937120D01*
X139515120Y-86742535D01*
X139668005Y-86513727D01*
X139773314Y-86259490D01*
X139827000Y-85989592D01*
X139827000Y-85714408D01*
X139773314Y-85444510D01*
X139668005Y-85190273D01*
X139515120Y-84961465D01*
X139320535Y-84766880D01*
X139091727Y-84613995D01*
X139014485Y-84582000D01*
X139091727Y-84550005D01*
X139320535Y-84397120D01*
X139515120Y-84202535D01*
X139668005Y-83973727D01*
X139773314Y-83719490D01*
X139827000Y-83449592D01*
X139827000Y-83174408D01*
X139773314Y-82904510D01*
X139668005Y-82650273D01*
X139515120Y-82421465D01*
X139320535Y-82226880D01*
X139091727Y-82073995D01*
X139014485Y-82042000D01*
X139091727Y-82010005D01*
X139320535Y-81857120D01*
X139515120Y-81662535D01*
X139668005Y-81433727D01*
X139773314Y-81179490D01*
X139827000Y-80909592D01*
X139827000Y-80634408D01*
X147193000Y-80634408D01*
X147193000Y-80909592D01*
X147246686Y-81179490D01*
X147351995Y-81433727D01*
X147504880Y-81662535D01*
X147699465Y-81857120D01*
X147928273Y-82010005D01*
X148005515Y-82042000D01*
X147928273Y-82073995D01*
X147699465Y-82226880D01*
X147504880Y-82421465D01*
X147351995Y-82650273D01*
X147246686Y-82904510D01*
X147193000Y-83174408D01*
X147193000Y-83449592D01*
X147246686Y-83719490D01*
X147351995Y-83973727D01*
X147504880Y-84202535D01*
X147699465Y-84397120D01*
X147928273Y-84550005D01*
X148005515Y-84582000D01*
X147928273Y-84613995D01*
X147699465Y-84766880D01*
X147504880Y-84961465D01*
X147351995Y-85190273D01*
X147246686Y-85444510D01*
X147193000Y-85714408D01*
X147193000Y-85989592D01*
X147246686Y-86259490D01*
X147351995Y-86513727D01*
X147504880Y-86742535D01*
X147699465Y-86937120D01*
X147928273Y-87090005D01*
X147999943Y-87119692D01*
X147986977Y-87124364D01*
X147871020Y-87186344D01*
X147804040Y-87426435D01*
X148590000Y-88212395D01*
X149375960Y-87426435D01*
X149313346Y-87201993D01*
X155671612Y-87201993D01*
X155737137Y-87440860D01*
X155892096Y-87513578D01*
X155850168Y-87528723D01*
X155737137Y-87589140D01*
X155671612Y-87828007D01*
X156449000Y-88605395D01*
X157226388Y-87828007D01*
X157160863Y-87589140D01*
X157157352Y-87587492D01*
X157599188Y-87587492D01*
X157640035Y-87857238D01*
X157732723Y-88113832D01*
X157793140Y-88226863D01*
X158032007Y-88292388D01*
X158809395Y-87515000D01*
X159168605Y-87515000D01*
X159945993Y-88292388D01*
X160184860Y-88226863D01*
X160300760Y-87979884D01*
X160366250Y-87715040D01*
X160378812Y-87442508D01*
X160337965Y-87172762D01*
X160245277Y-86916168D01*
X160184860Y-86803137D01*
X159945993Y-86737612D01*
X159168605Y-87515000D01*
X158809395Y-87515000D01*
X158032007Y-86737612D01*
X157793140Y-86803137D01*
X157677240Y-87050116D01*
X157611750Y-87314960D01*
X157599188Y-87587492D01*
X157157352Y-87587492D01*
X157005904Y-87516422D01*
X157047832Y-87501277D01*
X157160863Y-87440860D01*
X157226388Y-87201993D01*
X156449000Y-86424605D01*
X155671612Y-87201993D01*
X149313346Y-87201993D01*
X149308980Y-87186344D01*
X149173240Y-87122515D01*
X149251727Y-87090005D01*
X149480535Y-86937120D01*
X149675120Y-86742535D01*
X149828005Y-86513727D01*
X149909288Y-86317492D01*
X155059188Y-86317492D01*
X155100035Y-86587238D01*
X155192723Y-86843832D01*
X155253140Y-86956863D01*
X155492007Y-87022388D01*
X156269395Y-86245000D01*
X156628605Y-86245000D01*
X157405993Y-87022388D01*
X157644860Y-86956863D01*
X157760760Y-86709884D01*
X157798315Y-86558007D01*
X158211612Y-86558007D01*
X158989000Y-87335395D01*
X159766388Y-86558007D01*
X159700863Y-86319140D01*
X159453884Y-86203240D01*
X159189040Y-86137750D01*
X158916508Y-86125188D01*
X158646762Y-86166035D01*
X158390168Y-86258723D01*
X158277137Y-86319140D01*
X158211612Y-86558007D01*
X157798315Y-86558007D01*
X157826250Y-86445040D01*
X157838812Y-86172508D01*
X157797965Y-85902762D01*
X157705277Y-85646168D01*
X157644860Y-85533137D01*
X157405993Y-85467612D01*
X156628605Y-86245000D01*
X156269395Y-86245000D01*
X155492007Y-85467612D01*
X155253140Y-85533137D01*
X155137240Y-85780116D01*
X155071750Y-86044960D01*
X155059188Y-86317492D01*
X149909288Y-86317492D01*
X149933314Y-86259490D01*
X149987000Y-85989592D01*
X149987000Y-85714408D01*
X149933314Y-85444510D01*
X149868488Y-85288007D01*
X155671612Y-85288007D01*
X156449000Y-86065395D01*
X157226388Y-85288007D01*
X157160863Y-85049140D01*
X156913884Y-84933240D01*
X156649040Y-84867750D01*
X156376508Y-84855188D01*
X156106762Y-84896035D01*
X155850168Y-84988723D01*
X155737137Y-85049140D01*
X155671612Y-85288007D01*
X149868488Y-85288007D01*
X149828005Y-85190273D01*
X149675120Y-84961465D01*
X149480535Y-84766880D01*
X149462564Y-84754872D01*
X163104000Y-84754872D01*
X163104000Y-85195128D01*
X163189890Y-85626925D01*
X163358369Y-86033669D01*
X163602962Y-86399729D01*
X163914271Y-86711038D01*
X164280331Y-86955631D01*
X164687075Y-87124110D01*
X165118872Y-87210000D01*
X165559128Y-87210000D01*
X165990925Y-87124110D01*
X166397669Y-86955631D01*
X166763729Y-86711038D01*
X167075038Y-86399729D01*
X167319631Y-86033669D01*
X167488110Y-85626925D01*
X167574000Y-85195128D01*
X167574000Y-84754872D01*
X167488110Y-84323075D01*
X167319631Y-83916331D01*
X167075038Y-83550271D01*
X166763729Y-83238962D01*
X166397669Y-82994369D01*
X165990925Y-82825890D01*
X165559128Y-82740000D01*
X165118872Y-82740000D01*
X164687075Y-82825890D01*
X164280331Y-82994369D01*
X163914271Y-83238962D01*
X163602962Y-83550271D01*
X163358369Y-83916331D01*
X163189890Y-84323075D01*
X163104000Y-84754872D01*
X149462564Y-84754872D01*
X149251727Y-84613995D01*
X149174485Y-84582000D01*
X149251727Y-84550005D01*
X149480535Y-84397120D01*
X149675120Y-84202535D01*
X149828005Y-83973727D01*
X149933314Y-83719490D01*
X149987000Y-83449592D01*
X149987000Y-83174408D01*
X149933314Y-82904510D01*
X149828005Y-82650273D01*
X149675120Y-82421465D01*
X149480535Y-82226880D01*
X149251727Y-82073995D01*
X149174485Y-82042000D01*
X149251727Y-82010005D01*
X149480535Y-81857120D01*
X149675120Y-81662535D01*
X149828005Y-81433727D01*
X149933314Y-81179490D01*
X149987000Y-80909592D01*
X149987000Y-80634408D01*
X149933314Y-80364510D01*
X149828005Y-80110273D01*
X149675120Y-79881465D01*
X149480535Y-79686880D01*
X149251727Y-79533995D01*
X148997490Y-79428686D01*
X148727592Y-79375000D01*
X148452408Y-79375000D01*
X148182510Y-79428686D01*
X147928273Y-79533995D01*
X147699465Y-79686880D01*
X147504880Y-79881465D01*
X147351995Y-80110273D01*
X147246686Y-80364510D01*
X147193000Y-80634408D01*
X139827000Y-80634408D01*
X139773314Y-80364510D01*
X139668005Y-80110273D01*
X139515120Y-79881465D01*
X139320535Y-79686880D01*
X139091727Y-79533995D01*
X138837490Y-79428686D01*
X138567592Y-79375000D01*
X138292408Y-79375000D01*
X138022510Y-79428686D01*
X137768273Y-79533995D01*
X137539465Y-79686880D01*
X137344880Y-79881465D01*
X137191995Y-80110273D01*
X137086686Y-80364510D01*
X137033000Y-80634408D01*
X132936348Y-80634408D01*
X132881101Y-80589068D01*
X132748142Y-80518000D01*
X132881101Y-80446932D01*
X133099608Y-80267608D01*
X133278932Y-80049101D01*
X133412182Y-79799808D01*
X133494236Y-79529309D01*
X133521943Y-79248000D01*
X133494236Y-78966691D01*
X133412182Y-78696192D01*
X133278932Y-78446899D01*
X133099608Y-78228392D01*
X132881101Y-78049068D01*
X132748142Y-77978000D01*
X132881101Y-77906932D01*
X133099608Y-77727608D01*
X133278932Y-77509101D01*
X133412182Y-77259808D01*
X133494236Y-76989309D01*
X133521943Y-76708000D01*
X133494236Y-76426691D01*
X133412182Y-76156192D01*
X133278932Y-75906899D01*
X133099608Y-75688392D01*
X132881101Y-75509068D01*
X132748142Y-75438000D01*
X132881101Y-75366932D01*
X133099608Y-75187608D01*
X133278932Y-74969101D01*
X133412182Y-74719808D01*
X133494236Y-74449309D01*
X133521943Y-74168000D01*
X133494236Y-73886691D01*
X133412182Y-73616192D01*
X133278932Y-73366899D01*
X133099608Y-73148392D01*
X132881101Y-72969068D01*
X132748142Y-72898000D01*
X132881101Y-72826932D01*
X133099608Y-72647608D01*
X133214518Y-72507589D01*
X155079000Y-72507589D01*
X155079000Y-72780411D01*
X155132225Y-73047989D01*
X155236629Y-73300043D01*
X155388201Y-73526886D01*
X155581114Y-73719799D01*
X155807957Y-73871371D01*
X155910873Y-73914000D01*
X155807957Y-73956629D01*
X155581114Y-74108201D01*
X155388201Y-74301114D01*
X155236629Y-74527957D01*
X155132225Y-74780011D01*
X155079000Y-75047589D01*
X155079000Y-75320411D01*
X155132225Y-75587989D01*
X155236629Y-75840043D01*
X155388201Y-76066886D01*
X155581114Y-76259799D01*
X155807957Y-76411371D01*
X156060011Y-76515775D01*
X156327589Y-76569000D01*
X156600411Y-76569000D01*
X156867989Y-76515775D01*
X157120043Y-76411371D01*
X157346886Y-76259799D01*
X157539799Y-76066886D01*
X157615928Y-75952951D01*
X157615928Y-77204000D01*
X157628188Y-77328482D01*
X157664498Y-77448180D01*
X157723463Y-77558494D01*
X157802815Y-77655185D01*
X157899506Y-77734537D01*
X158009820Y-77793502D01*
X158129518Y-77829812D01*
X158254000Y-77842072D01*
X159754000Y-77842072D01*
X159878482Y-77829812D01*
X159998180Y-77793502D01*
X160108494Y-77734537D01*
X160205185Y-77655185D01*
X160284537Y-77558494D01*
X160313733Y-77503872D01*
X163119000Y-77503872D01*
X163119000Y-77944128D01*
X163204890Y-78375925D01*
X163373369Y-78782669D01*
X163617962Y-79148729D01*
X163929271Y-79460038D01*
X164295331Y-79704631D01*
X164702075Y-79873110D01*
X165133872Y-79959000D01*
X165574128Y-79959000D01*
X166005925Y-79873110D01*
X166412669Y-79704631D01*
X166778729Y-79460038D01*
X167090038Y-79148729D01*
X167334631Y-78782669D01*
X167503110Y-78375925D01*
X167589000Y-77944128D01*
X167589000Y-77503872D01*
X167503110Y-77072075D01*
X167334631Y-76665331D01*
X167090038Y-76299271D01*
X166778729Y-75987962D01*
X166412669Y-75743369D01*
X166005925Y-75574890D01*
X165574128Y-75489000D01*
X165133872Y-75489000D01*
X164702075Y-75574890D01*
X164295331Y-75743369D01*
X163929271Y-75987962D01*
X163617962Y-76299271D01*
X163373369Y-76665331D01*
X163204890Y-77072075D01*
X163119000Y-77503872D01*
X160313733Y-77503872D01*
X160343502Y-77448180D01*
X160379812Y-77328482D01*
X160392072Y-77204000D01*
X160392072Y-75704000D01*
X160379812Y-75579518D01*
X160343502Y-75459820D01*
X160284537Y-75349506D01*
X160205185Y-75252815D01*
X160108494Y-75173463D01*
X159998180Y-75114498D01*
X159878482Y-75078188D01*
X159770517Y-75067555D01*
X159886886Y-74989799D01*
X160079799Y-74796886D01*
X160231371Y-74570043D01*
X160335775Y-74317989D01*
X160389000Y-74050411D01*
X160389000Y-73777589D01*
X160335775Y-73510011D01*
X160231371Y-73257957D01*
X160079799Y-73031114D01*
X159886886Y-72838201D01*
X159660043Y-72686629D01*
X159557127Y-72644000D01*
X159660043Y-72601371D01*
X159886886Y-72449799D01*
X160079799Y-72256886D01*
X160231371Y-72030043D01*
X160335775Y-71777989D01*
X160389000Y-71510411D01*
X160389000Y-71237589D01*
X160335775Y-70970011D01*
X160231371Y-70717957D01*
X160079799Y-70491114D01*
X159886886Y-70298201D01*
X159660043Y-70146629D01*
X159560721Y-70105489D01*
X159602832Y-70090277D01*
X159715863Y-70029860D01*
X159781388Y-69790993D01*
X159004000Y-69013605D01*
X158226612Y-69790993D01*
X158292137Y-70029860D01*
X158450477Y-70104164D01*
X158347957Y-70146629D01*
X158121114Y-70298201D01*
X157928201Y-70491114D01*
X157776629Y-70717957D01*
X157672225Y-70970011D01*
X157619000Y-71237589D01*
X157619000Y-71510411D01*
X157672225Y-71777989D01*
X157776629Y-72030043D01*
X157928201Y-72256886D01*
X158121114Y-72449799D01*
X158347957Y-72601371D01*
X158450873Y-72644000D01*
X158347957Y-72686629D01*
X158121114Y-72838201D01*
X157928201Y-73031114D01*
X157776629Y-73257957D01*
X157672225Y-73510011D01*
X157619000Y-73777589D01*
X157619000Y-74050411D01*
X157672225Y-74317989D01*
X157776629Y-74570043D01*
X157928201Y-74796886D01*
X158121114Y-74989799D01*
X158237483Y-75067555D01*
X158129518Y-75078188D01*
X158009820Y-75114498D01*
X157899506Y-75173463D01*
X157849000Y-75214912D01*
X157849000Y-75047589D01*
X157795775Y-74780011D01*
X157691371Y-74527957D01*
X157539799Y-74301114D01*
X157346886Y-74108201D01*
X157120043Y-73956629D01*
X157017127Y-73914000D01*
X157120043Y-73871371D01*
X157346886Y-73719799D01*
X157539799Y-73526886D01*
X157691371Y-73300043D01*
X157795775Y-73047989D01*
X157849000Y-72780411D01*
X157849000Y-72507589D01*
X157795775Y-72240011D01*
X157691371Y-71987957D01*
X157539799Y-71761114D01*
X157346886Y-71568201D01*
X157120043Y-71416629D01*
X157020721Y-71375489D01*
X157062832Y-71360277D01*
X157175863Y-71299860D01*
X157241388Y-71060993D01*
X156464000Y-70283605D01*
X155686612Y-71060993D01*
X155752137Y-71299860D01*
X155910477Y-71374164D01*
X155807957Y-71416629D01*
X155581114Y-71568201D01*
X155388201Y-71761114D01*
X155236629Y-71987957D01*
X155132225Y-72240011D01*
X155079000Y-72507589D01*
X133214518Y-72507589D01*
X133278932Y-72429101D01*
X133412182Y-72179808D01*
X133494236Y-71909309D01*
X133521943Y-71628000D01*
X133494236Y-71346691D01*
X133412182Y-71076192D01*
X133278932Y-70826899D01*
X133099608Y-70608392D01*
X132881101Y-70429068D01*
X132748142Y-70358000D01*
X132881101Y-70286932D01*
X133099608Y-70107608D01*
X133154516Y-70040702D01*
X150316903Y-70040702D01*
X150388486Y-70284671D01*
X150643996Y-70405571D01*
X150918184Y-70474300D01*
X151200512Y-70488217D01*
X151480130Y-70446787D01*
X151746292Y-70351603D01*
X151871514Y-70284671D01*
X151903254Y-70176492D01*
X155074188Y-70176492D01*
X155115035Y-70446238D01*
X155207723Y-70702832D01*
X155268140Y-70815863D01*
X155507007Y-70881388D01*
X156284395Y-70104000D01*
X156643605Y-70104000D01*
X157420993Y-70881388D01*
X157659860Y-70815863D01*
X157775760Y-70568884D01*
X157841250Y-70304040D01*
X157853812Y-70031508D01*
X157812965Y-69761762D01*
X157720277Y-69505168D01*
X157659860Y-69392137D01*
X157420993Y-69326612D01*
X156643605Y-70104000D01*
X156284395Y-70104000D01*
X155507007Y-69326612D01*
X155268140Y-69392137D01*
X155152240Y-69639116D01*
X155086750Y-69903960D01*
X155074188Y-70176492D01*
X151903254Y-70176492D01*
X151943097Y-70040702D01*
X151130000Y-69227605D01*
X150316903Y-70040702D01*
X133154516Y-70040702D01*
X133278932Y-69889101D01*
X133412182Y-69639808D01*
X133494236Y-69369309D01*
X133518937Y-69118512D01*
X149689783Y-69118512D01*
X149731213Y-69398130D01*
X149826397Y-69664292D01*
X149893329Y-69789514D01*
X150137298Y-69861097D01*
X150950395Y-69048000D01*
X151309605Y-69048000D01*
X152122702Y-69861097D01*
X152366671Y-69789514D01*
X152487571Y-69534004D01*
X152556300Y-69259816D01*
X152570217Y-68977488D01*
X152528787Y-68697870D01*
X152465533Y-68520993D01*
X155686612Y-68520993D01*
X155752137Y-68759860D01*
X155907096Y-68832578D01*
X155865168Y-68847723D01*
X155752137Y-68908140D01*
X155686612Y-69147007D01*
X156464000Y-69924395D01*
X157241388Y-69147007D01*
X157175863Y-68908140D01*
X157172352Y-68906492D01*
X157614188Y-68906492D01*
X157655035Y-69176238D01*
X157747723Y-69432832D01*
X157808140Y-69545863D01*
X158047007Y-69611388D01*
X158824395Y-68834000D01*
X159183605Y-68834000D01*
X159960993Y-69611388D01*
X160199860Y-69545863D01*
X160315760Y-69298884D01*
X160381250Y-69034040D01*
X160393812Y-68761508D01*
X160352965Y-68491762D01*
X160260277Y-68235168D01*
X160199860Y-68122137D01*
X159960993Y-68056612D01*
X159183605Y-68834000D01*
X158824395Y-68834000D01*
X158047007Y-68056612D01*
X157808140Y-68122137D01*
X157692240Y-68369116D01*
X157626750Y-68633960D01*
X157614188Y-68906492D01*
X157172352Y-68906492D01*
X157020904Y-68835422D01*
X157062832Y-68820277D01*
X157175863Y-68759860D01*
X157241388Y-68520993D01*
X156464000Y-67743605D01*
X155686612Y-68520993D01*
X152465533Y-68520993D01*
X152433603Y-68431708D01*
X152366671Y-68306486D01*
X152122702Y-68234903D01*
X151309605Y-69048000D01*
X150950395Y-69048000D01*
X150137298Y-68234903D01*
X149893329Y-68306486D01*
X149772429Y-68561996D01*
X149703700Y-68836184D01*
X149689783Y-69118512D01*
X133518937Y-69118512D01*
X133521943Y-69088000D01*
X133494236Y-68806691D01*
X133412182Y-68536192D01*
X133278932Y-68286899D01*
X133099608Y-68068392D01*
X132881101Y-67889068D01*
X132748142Y-67818000D01*
X132881101Y-67746932D01*
X133099608Y-67567608D01*
X133278932Y-67349101D01*
X133356406Y-67204157D01*
X139713524Y-67204157D01*
X139713524Y-67485843D01*
X139768478Y-67762116D01*
X139876275Y-68022359D01*
X140032771Y-68256572D01*
X140231952Y-68455753D01*
X140466165Y-68612249D01*
X140726408Y-68720046D01*
X141002681Y-68775000D01*
X141284367Y-68775000D01*
X141560640Y-68720046D01*
X141820883Y-68612249D01*
X142055096Y-68455753D01*
X142176717Y-68334132D01*
X142873997Y-68334132D01*
X142944974Y-68577591D01*
X143199632Y-68697992D01*
X143472885Y-68766397D01*
X143754233Y-68780179D01*
X144032864Y-68738808D01*
X144298071Y-68643873D01*
X144422074Y-68577591D01*
X144493051Y-68334132D01*
X143683524Y-67524605D01*
X142873997Y-68334132D01*
X142176717Y-68334132D01*
X142254277Y-68256572D01*
X142410773Y-68022359D01*
X142414027Y-68014504D01*
X142450933Y-68083550D01*
X142694392Y-68154527D01*
X143503919Y-67345000D01*
X143863129Y-67345000D01*
X144672656Y-68154527D01*
X144916115Y-68083550D01*
X144951031Y-68009699D01*
X144956275Y-68022359D01*
X145112771Y-68256572D01*
X145311952Y-68455753D01*
X145546165Y-68612249D01*
X145806408Y-68720046D01*
X146082681Y-68775000D01*
X146364367Y-68775000D01*
X146640640Y-68720046D01*
X146900883Y-68612249D01*
X147135096Y-68455753D01*
X147334277Y-68256572D01*
X147490773Y-68022359D01*
X147598570Y-67762116D01*
X147653524Y-67485843D01*
X147653524Y-67204157D01*
X147598570Y-66927884D01*
X147490773Y-66667641D01*
X147334277Y-66433428D01*
X147307514Y-66406665D01*
X149695000Y-66406665D01*
X149695000Y-66689335D01*
X149750147Y-66966574D01*
X149858320Y-67227727D01*
X150015363Y-67462759D01*
X150215241Y-67662637D01*
X150415869Y-67796692D01*
X150388486Y-67811329D01*
X150316903Y-68055298D01*
X151130000Y-68868395D01*
X151943097Y-68055298D01*
X151871514Y-67811329D01*
X151842659Y-67797676D01*
X152044759Y-67662637D01*
X152070904Y-67636492D01*
X155074188Y-67636492D01*
X155115035Y-67906238D01*
X155207723Y-68162832D01*
X155268140Y-68275863D01*
X155507007Y-68341388D01*
X156284395Y-67564000D01*
X156643605Y-67564000D01*
X157420993Y-68341388D01*
X157659860Y-68275863D01*
X157775760Y-68028884D01*
X157813315Y-67877007D01*
X158226612Y-67877007D01*
X159004000Y-68654395D01*
X159781388Y-67877007D01*
X159715863Y-67638140D01*
X159468884Y-67522240D01*
X159204040Y-67456750D01*
X158931508Y-67444188D01*
X158661762Y-67485035D01*
X158405168Y-67577723D01*
X158292137Y-67638140D01*
X158226612Y-67877007D01*
X157813315Y-67877007D01*
X157841250Y-67764040D01*
X157853812Y-67491508D01*
X157812965Y-67221762D01*
X157720277Y-66965168D01*
X157659860Y-66852137D01*
X157420993Y-66786612D01*
X156643605Y-67564000D01*
X156284395Y-67564000D01*
X155507007Y-66786612D01*
X155268140Y-66852137D01*
X155152240Y-67099116D01*
X155086750Y-67363960D01*
X155074188Y-67636492D01*
X152070904Y-67636492D01*
X152244637Y-67462759D01*
X152401680Y-67227727D01*
X152509853Y-66966574D01*
X152565000Y-66689335D01*
X152565000Y-66607007D01*
X155686612Y-66607007D01*
X156464000Y-67384395D01*
X157241388Y-66607007D01*
X157175863Y-66368140D01*
X156928884Y-66252240D01*
X156664040Y-66186750D01*
X156391508Y-66174188D01*
X156121762Y-66215035D01*
X155865168Y-66307723D01*
X155752137Y-66368140D01*
X155686612Y-66607007D01*
X152565000Y-66607007D01*
X152565000Y-66406665D01*
X152509853Y-66129426D01*
X152486842Y-66073872D01*
X163119000Y-66073872D01*
X163119000Y-66514128D01*
X163204890Y-66945925D01*
X163373369Y-67352669D01*
X163617962Y-67718729D01*
X163929271Y-68030038D01*
X164295331Y-68274631D01*
X164702075Y-68443110D01*
X165133872Y-68529000D01*
X165574128Y-68529000D01*
X166005925Y-68443110D01*
X166412669Y-68274631D01*
X166778729Y-68030038D01*
X167090038Y-67718729D01*
X167334631Y-67352669D01*
X167503110Y-66945925D01*
X167589000Y-66514128D01*
X167589000Y-66073872D01*
X167503110Y-65642075D01*
X167334631Y-65235331D01*
X167090038Y-64869271D01*
X166778729Y-64557962D01*
X166412669Y-64313369D01*
X166005925Y-64144890D01*
X165574128Y-64059000D01*
X165133872Y-64059000D01*
X164702075Y-64144890D01*
X164295331Y-64313369D01*
X163929271Y-64557962D01*
X163617962Y-64869271D01*
X163373369Y-65235331D01*
X163204890Y-65642075D01*
X163119000Y-66073872D01*
X152486842Y-66073872D01*
X152401680Y-65868273D01*
X152244637Y-65633241D01*
X152044759Y-65433363D01*
X151809727Y-65276320D01*
X151548574Y-65168147D01*
X151271335Y-65113000D01*
X150988665Y-65113000D01*
X150711426Y-65168147D01*
X150450273Y-65276320D01*
X150215241Y-65433363D01*
X150015363Y-65633241D01*
X149858320Y-65868273D01*
X149750147Y-66129426D01*
X149695000Y-66406665D01*
X147307514Y-66406665D01*
X147135096Y-66234247D01*
X146900883Y-66077751D01*
X146640640Y-65969954D01*
X146364367Y-65915000D01*
X146082681Y-65915000D01*
X145806408Y-65969954D01*
X145546165Y-66077751D01*
X145311952Y-66234247D01*
X145112771Y-66433428D01*
X144956275Y-66667641D01*
X144953021Y-66675496D01*
X144916115Y-66606450D01*
X144672656Y-66535473D01*
X143863129Y-67345000D01*
X143503919Y-67345000D01*
X142694392Y-66535473D01*
X142450933Y-66606450D01*
X142416017Y-66680301D01*
X142410773Y-66667641D01*
X142254277Y-66433428D01*
X142176717Y-66355868D01*
X142873997Y-66355868D01*
X143683524Y-67165395D01*
X144493051Y-66355868D01*
X144422074Y-66112409D01*
X144167416Y-65992008D01*
X143894163Y-65923603D01*
X143612815Y-65909821D01*
X143334184Y-65951192D01*
X143068977Y-66046127D01*
X142944974Y-66112409D01*
X142873997Y-66355868D01*
X142176717Y-66355868D01*
X142055096Y-66234247D01*
X141820883Y-66077751D01*
X141560640Y-65969954D01*
X141284367Y-65915000D01*
X141002681Y-65915000D01*
X140726408Y-65969954D01*
X140466165Y-66077751D01*
X140231952Y-66234247D01*
X140032771Y-66433428D01*
X139876275Y-66667641D01*
X139768478Y-66927884D01*
X139713524Y-67204157D01*
X133356406Y-67204157D01*
X133412182Y-67099808D01*
X133494236Y-66829309D01*
X133521943Y-66548000D01*
X133494236Y-66266691D01*
X133412182Y-65996192D01*
X133278932Y-65746899D01*
X133099608Y-65528392D01*
X132881101Y-65349068D01*
X132748142Y-65278000D01*
X132881101Y-65206932D01*
X133099608Y-65027608D01*
X133278932Y-64809101D01*
X133412182Y-64559808D01*
X133444671Y-64452702D01*
X136092903Y-64452702D01*
X136164486Y-64696671D01*
X136419996Y-64817571D01*
X136694184Y-64886300D01*
X136976512Y-64900217D01*
X137256130Y-64858787D01*
X137522292Y-64763603D01*
X137647514Y-64696671D01*
X137719097Y-64452702D01*
X136906000Y-63639605D01*
X136092903Y-64452702D01*
X133444671Y-64452702D01*
X133494236Y-64289309D01*
X133521943Y-64008000D01*
X133494236Y-63726691D01*
X133434727Y-63530512D01*
X135465783Y-63530512D01*
X135507213Y-63810130D01*
X135602397Y-64076292D01*
X135669329Y-64201514D01*
X135913298Y-64273097D01*
X136726395Y-63460000D01*
X137085605Y-63460000D01*
X137898702Y-64273097D01*
X138142671Y-64201514D01*
X138263571Y-63946004D01*
X138332300Y-63671816D01*
X138346217Y-63389488D01*
X138304787Y-63109870D01*
X138209603Y-62843708D01*
X138142671Y-62718486D01*
X137898702Y-62646903D01*
X137085605Y-63460000D01*
X136726395Y-63460000D01*
X135913298Y-62646903D01*
X135669329Y-62718486D01*
X135548429Y-62973996D01*
X135479700Y-63248184D01*
X135465783Y-63530512D01*
X133434727Y-63530512D01*
X133412182Y-63456192D01*
X133278932Y-63206899D01*
X133099608Y-62988392D01*
X132881101Y-62809068D01*
X132748142Y-62738000D01*
X132881101Y-62666932D01*
X133099608Y-62487608D01*
X133278932Y-62269101D01*
X133412182Y-62019808D01*
X133494236Y-61749309D01*
X133521943Y-61468000D01*
X133494236Y-61186691D01*
X133412182Y-60916192D01*
X133360053Y-60818665D01*
X135471000Y-60818665D01*
X135471000Y-61101335D01*
X135526147Y-61378574D01*
X135634320Y-61639727D01*
X135791363Y-61874759D01*
X135991241Y-62074637D01*
X136191869Y-62208692D01*
X136164486Y-62223329D01*
X136092903Y-62467298D01*
X136906000Y-63280395D01*
X137719097Y-62467298D01*
X137647514Y-62223329D01*
X137618659Y-62209676D01*
X137820759Y-62074637D01*
X138020637Y-61874759D01*
X138177680Y-61639727D01*
X138232486Y-61507413D01*
X144586192Y-61507413D01*
X144681956Y-61771814D01*
X144971571Y-61912704D01*
X145283108Y-61994384D01*
X145604595Y-62013718D01*
X145923675Y-61969961D01*
X146228088Y-61864795D01*
X146402044Y-61771814D01*
X146497808Y-61507413D01*
X162366192Y-61507413D01*
X162461956Y-61771814D01*
X162751571Y-61912704D01*
X163063108Y-61994384D01*
X163384595Y-62013718D01*
X163703675Y-61969961D01*
X164008088Y-61864795D01*
X164182044Y-61771814D01*
X164277808Y-61507413D01*
X163322000Y-60551605D01*
X162366192Y-61507413D01*
X146497808Y-61507413D01*
X145542000Y-60551605D01*
X144586192Y-61507413D01*
X138232486Y-61507413D01*
X138285853Y-61378574D01*
X138341000Y-61101335D01*
X138341000Y-60818665D01*
X138285853Y-60541426D01*
X138241603Y-60434595D01*
X143900282Y-60434595D01*
X143944039Y-60753675D01*
X144049205Y-61058088D01*
X144142186Y-61232044D01*
X144406587Y-61327808D01*
X145362395Y-60372000D01*
X145721605Y-60372000D01*
X146677413Y-61327808D01*
X146941814Y-61232044D01*
X147082704Y-60942429D01*
X147164384Y-60630892D01*
X147176189Y-60434595D01*
X161680282Y-60434595D01*
X161724039Y-60753675D01*
X161829205Y-61058088D01*
X161922186Y-61232044D01*
X162186587Y-61327808D01*
X163142395Y-60372000D01*
X163501605Y-60372000D01*
X164457413Y-61327808D01*
X164721814Y-61232044D01*
X164862704Y-60942429D01*
X164944384Y-60630892D01*
X164963718Y-60309405D01*
X164919961Y-59990325D01*
X164814795Y-59685912D01*
X164721814Y-59511956D01*
X164457413Y-59416192D01*
X163501605Y-60372000D01*
X163142395Y-60372000D01*
X162186587Y-59416192D01*
X161922186Y-59511956D01*
X161781296Y-59801571D01*
X161699616Y-60113108D01*
X161680282Y-60434595D01*
X147176189Y-60434595D01*
X147183718Y-60309405D01*
X147139961Y-59990325D01*
X147034795Y-59685912D01*
X146941814Y-59511956D01*
X146677413Y-59416192D01*
X145721605Y-60372000D01*
X145362395Y-60372000D01*
X144406587Y-59416192D01*
X144142186Y-59511956D01*
X144001296Y-59801571D01*
X143919616Y-60113108D01*
X143900282Y-60434595D01*
X138241603Y-60434595D01*
X138177680Y-60280273D01*
X138020637Y-60045241D01*
X137820759Y-59845363D01*
X137585727Y-59688320D01*
X137324574Y-59580147D01*
X137047335Y-59525000D01*
X136764665Y-59525000D01*
X136487426Y-59580147D01*
X136226273Y-59688320D01*
X135991241Y-59845363D01*
X135791363Y-60045241D01*
X135634320Y-60280273D01*
X135526147Y-60541426D01*
X135471000Y-60818665D01*
X133360053Y-60818665D01*
X133278932Y-60666899D01*
X133099608Y-60448392D01*
X132881101Y-60269068D01*
X132748142Y-60198000D01*
X132881101Y-60126932D01*
X133099608Y-59947608D01*
X133278932Y-59729101D01*
X133412182Y-59479808D01*
X133485961Y-59236587D01*
X144586192Y-59236587D01*
X145542000Y-60192395D01*
X146497808Y-59236587D01*
X162366192Y-59236587D01*
X163322000Y-60192395D01*
X164277808Y-59236587D01*
X164182044Y-58972186D01*
X163892429Y-58831296D01*
X163580892Y-58749616D01*
X163259405Y-58730282D01*
X162940325Y-58774039D01*
X162635912Y-58879205D01*
X162461956Y-58972186D01*
X162366192Y-59236587D01*
X146497808Y-59236587D01*
X146402044Y-58972186D01*
X146112429Y-58831296D01*
X145800892Y-58749616D01*
X145479405Y-58730282D01*
X145160325Y-58774039D01*
X144855912Y-58879205D01*
X144681956Y-58972186D01*
X144586192Y-59236587D01*
X133485961Y-59236587D01*
X133494236Y-59209309D01*
X133521943Y-58928000D01*
X133494236Y-58646691D01*
X133412182Y-58376192D01*
X133278932Y-58126899D01*
X133099608Y-57908392D01*
X132881101Y-57729068D01*
X132743318Y-57655421D01*
X132935131Y-57540385D01*
X133143519Y-57351414D01*
X133311037Y-57125420D01*
X133431246Y-56871087D01*
X133471904Y-56737039D01*
X133349915Y-56515000D01*
X132207000Y-56515000D01*
X132207000Y-56535000D01*
X131953000Y-56535000D01*
X131953000Y-56515000D01*
X130810085Y-56515000D01*
X130688096Y-56737039D01*
X130728754Y-56871087D01*
X130848963Y-57125420D01*
X131016481Y-57351414D01*
X131224869Y-57540385D01*
X131416682Y-57655421D01*
X131278899Y-57729068D01*
X131060392Y-57908392D01*
X130881068Y-58126899D01*
X130747818Y-58376192D01*
X130665764Y-58646691D01*
X130638057Y-58928000D01*
X118281943Y-58928000D01*
X118254236Y-58646691D01*
X118172182Y-58376192D01*
X118038932Y-58126899D01*
X117859608Y-57908392D01*
X117641101Y-57729068D01*
X117508142Y-57658000D01*
X117641101Y-57586932D01*
X117859608Y-57407608D01*
X118038932Y-57189101D01*
X118172182Y-56939808D01*
X118254236Y-56669309D01*
X118281943Y-56388000D01*
X118254236Y-56106691D01*
X118172182Y-55836192D01*
X118038932Y-55586899D01*
X117859608Y-55368392D01*
X117746518Y-55275581D01*
X117764482Y-55273812D01*
X117884180Y-55237502D01*
X117994494Y-55178537D01*
X118091185Y-55099185D01*
X118170537Y-55002494D01*
X118229502Y-54892180D01*
X118265812Y-54772482D01*
X118278072Y-54648000D01*
X118278072Y-53848000D01*
X130638057Y-53848000D01*
X130665764Y-54129309D01*
X130747818Y-54399808D01*
X130881068Y-54649101D01*
X131060392Y-54867608D01*
X131278899Y-55046932D01*
X131416682Y-55120579D01*
X131224869Y-55235615D01*
X131016481Y-55424586D01*
X130848963Y-55650580D01*
X130728754Y-55904913D01*
X130688096Y-56038961D01*
X130810085Y-56261000D01*
X131953000Y-56261000D01*
X131953000Y-56241000D01*
X132207000Y-56241000D01*
X132207000Y-56261000D01*
X133349915Y-56261000D01*
X133471904Y-56038961D01*
X133431246Y-55904913D01*
X133311037Y-55650580D01*
X133143519Y-55424586D01*
X132935131Y-55235615D01*
X132926878Y-55230665D01*
X135471000Y-55230665D01*
X135471000Y-55513335D01*
X135526147Y-55790574D01*
X135634320Y-56051727D01*
X135791363Y-56286759D01*
X135991241Y-56486637D01*
X136226273Y-56643680D01*
X136487426Y-56751853D01*
X136764665Y-56807000D01*
X137047335Y-56807000D01*
X137324574Y-56751853D01*
X137585727Y-56643680D01*
X137820759Y-56486637D01*
X138020637Y-56286759D01*
X138177680Y-56051727D01*
X138285853Y-55790574D01*
X138341000Y-55513335D01*
X138341000Y-55230665D01*
X138285853Y-54953426D01*
X138177680Y-54692273D01*
X138020637Y-54457241D01*
X137935396Y-54372000D01*
X143903928Y-54372000D01*
X143903928Y-56372000D01*
X143916188Y-56496482D01*
X143952498Y-56616180D01*
X144011463Y-56726494D01*
X144090815Y-56823185D01*
X144187506Y-56902537D01*
X144297820Y-56961502D01*
X144417518Y-56997812D01*
X144542000Y-57010072D01*
X146542000Y-57010072D01*
X146666482Y-56997812D01*
X146786180Y-56961502D01*
X146896494Y-56902537D01*
X146993185Y-56823185D01*
X147072537Y-56726494D01*
X147131502Y-56616180D01*
X147167812Y-56496482D01*
X147180072Y-56372000D01*
X147180072Y-54372000D01*
X161683928Y-54372000D01*
X161683928Y-56372000D01*
X161696188Y-56496482D01*
X161732498Y-56616180D01*
X161791463Y-56726494D01*
X161870815Y-56823185D01*
X161967506Y-56902537D01*
X162077820Y-56961502D01*
X162197518Y-56997812D01*
X162322000Y-57010072D01*
X164322000Y-57010072D01*
X164446482Y-56997812D01*
X164566180Y-56961502D01*
X164676494Y-56902537D01*
X164773185Y-56823185D01*
X164852537Y-56726494D01*
X164911502Y-56616180D01*
X164947812Y-56496482D01*
X164960072Y-56372000D01*
X164960072Y-54372000D01*
X164947812Y-54247518D01*
X164911502Y-54127820D01*
X164852537Y-54017506D01*
X164773185Y-53920815D01*
X164676494Y-53841463D01*
X164566180Y-53782498D01*
X164446482Y-53746188D01*
X164322000Y-53733928D01*
X162322000Y-53733928D01*
X162197518Y-53746188D01*
X162077820Y-53782498D01*
X161967506Y-53841463D01*
X161870815Y-53920815D01*
X161791463Y-54017506D01*
X161732498Y-54127820D01*
X161696188Y-54247518D01*
X161683928Y-54372000D01*
X147180072Y-54372000D01*
X147167812Y-54247518D01*
X147131502Y-54127820D01*
X147072537Y-54017506D01*
X146993185Y-53920815D01*
X146896494Y-53841463D01*
X146786180Y-53782498D01*
X146666482Y-53746188D01*
X146542000Y-53733928D01*
X144542000Y-53733928D01*
X144417518Y-53746188D01*
X144297820Y-53782498D01*
X144187506Y-53841463D01*
X144090815Y-53920815D01*
X144011463Y-54017506D01*
X143952498Y-54127820D01*
X143916188Y-54247518D01*
X143903928Y-54372000D01*
X137935396Y-54372000D01*
X137820759Y-54257363D01*
X137620131Y-54123308D01*
X137647514Y-54108671D01*
X137719097Y-53864702D01*
X136906000Y-53051605D01*
X136092903Y-53864702D01*
X136164486Y-54108671D01*
X136193341Y-54122324D01*
X135991241Y-54257363D01*
X135791363Y-54457241D01*
X135634320Y-54692273D01*
X135526147Y-54953426D01*
X135471000Y-55230665D01*
X132926878Y-55230665D01*
X132743318Y-55120579D01*
X132881101Y-55046932D01*
X133099608Y-54867608D01*
X133278932Y-54649101D01*
X133412182Y-54399808D01*
X133494236Y-54129309D01*
X133521943Y-53848000D01*
X133494236Y-53566691D01*
X133412182Y-53296192D01*
X133278932Y-53046899D01*
X133193264Y-52942512D01*
X135465783Y-52942512D01*
X135507213Y-53222130D01*
X135602397Y-53488292D01*
X135669329Y-53613514D01*
X135913298Y-53685097D01*
X136726395Y-52872000D01*
X137085605Y-52872000D01*
X137898702Y-53685097D01*
X138142671Y-53613514D01*
X138263571Y-53358004D01*
X138332300Y-53083816D01*
X138346217Y-52801488D01*
X138304787Y-52521870D01*
X138209603Y-52255708D01*
X138142671Y-52130486D01*
X137898702Y-52058903D01*
X137085605Y-52872000D01*
X136726395Y-52872000D01*
X135913298Y-52058903D01*
X135669329Y-52130486D01*
X135548429Y-52385996D01*
X135479700Y-52660184D01*
X135465783Y-52942512D01*
X133193264Y-52942512D01*
X133099608Y-52828392D01*
X132881101Y-52649068D01*
X132631808Y-52515818D01*
X132361309Y-52433764D01*
X132150492Y-52413000D01*
X132009508Y-52413000D01*
X131798691Y-52433764D01*
X131528192Y-52515818D01*
X131278899Y-52649068D01*
X131060392Y-52828392D01*
X130881068Y-53046899D01*
X130747818Y-53296192D01*
X130665764Y-53566691D01*
X130638057Y-53848000D01*
X118278072Y-53848000D01*
X118278072Y-53048000D01*
X118265812Y-52923518D01*
X118229502Y-52803820D01*
X118170537Y-52693506D01*
X118091185Y-52596815D01*
X117994494Y-52517463D01*
X117884180Y-52458498D01*
X117764482Y-52422188D01*
X117640000Y-52409928D01*
X116040000Y-52409928D01*
X115915518Y-52422188D01*
X115795820Y-52458498D01*
X115685506Y-52517463D01*
X115588815Y-52596815D01*
X115509463Y-52693506D01*
X115450498Y-52803820D01*
X115414188Y-52923518D01*
X115401928Y-53048000D01*
X115401928Y-54648000D01*
X115414188Y-54772482D01*
X115450498Y-54892180D01*
X115509463Y-55002494D01*
X115588815Y-55099185D01*
X115685506Y-55178537D01*
X115795820Y-55237502D01*
X115915518Y-55273812D01*
X115933482Y-55275581D01*
X115820392Y-55368392D01*
X115641068Y-55586899D01*
X115507818Y-55836192D01*
X115425764Y-56106691D01*
X115398057Y-56388000D01*
X114660604Y-56388000D01*
X114674012Y-51879298D01*
X136092903Y-51879298D01*
X136906000Y-52692395D01*
X137719097Y-51879298D01*
X137647514Y-51635329D01*
X137392004Y-51514429D01*
X137117816Y-51445700D01*
X136835488Y-51431783D01*
X136555870Y-51473213D01*
X136289708Y-51568397D01*
X136164486Y-51635329D01*
X136092903Y-51879298D01*
X114674012Y-51879298D01*
X114680938Y-49550795D01*
X114930579Y-48801872D01*
X116129000Y-48801872D01*
X116129000Y-49242128D01*
X116214890Y-49673925D01*
X116383369Y-50080669D01*
X116627962Y-50446729D01*
X116939271Y-50758038D01*
X117305331Y-51002631D01*
X117712075Y-51171110D01*
X118143872Y-51257000D01*
X118584128Y-51257000D01*
X119015925Y-51171110D01*
X119422669Y-51002631D01*
X119788729Y-50758038D01*
X120100038Y-50446729D01*
X120344631Y-50080669D01*
X120475344Y-49765098D01*
X144427000Y-49765098D01*
X144427000Y-50234902D01*
X144518654Y-50695679D01*
X144698440Y-51129721D01*
X144959450Y-51520349D01*
X145291651Y-51852550D01*
X145682279Y-52113560D01*
X146116321Y-52293346D01*
X146577098Y-52385000D01*
X147046902Y-52385000D01*
X147507679Y-52293346D01*
X147941721Y-52113560D01*
X148332349Y-51852550D01*
X148664550Y-51520349D01*
X148925560Y-51129721D01*
X149105346Y-50695679D01*
X149197000Y-50234902D01*
X149197000Y-49765098D01*
X159667000Y-49765098D01*
X159667000Y-50234902D01*
X159758654Y-50695679D01*
X159938440Y-51129721D01*
X160199450Y-51520349D01*
X160531651Y-51852550D01*
X160922279Y-52113560D01*
X161356321Y-52293346D01*
X161817098Y-52385000D01*
X162286902Y-52385000D01*
X162747679Y-52293346D01*
X163181721Y-52113560D01*
X163572349Y-51852550D01*
X163904550Y-51520349D01*
X164165560Y-51129721D01*
X164345346Y-50695679D01*
X164437000Y-50234902D01*
X164437000Y-49765098D01*
X164345346Y-49304321D01*
X164165560Y-48870279D01*
X164119852Y-48801872D01*
X167437000Y-48801872D01*
X167437000Y-49242128D01*
X167522890Y-49673925D01*
X167691369Y-50080669D01*
X167935962Y-50446729D01*
X168247271Y-50758038D01*
X168613331Y-51002631D01*
X169020075Y-51171110D01*
X169451872Y-51257000D01*
X169892128Y-51257000D01*
X170323925Y-51171110D01*
X170730669Y-51002631D01*
X171096729Y-50758038D01*
X171408038Y-50446729D01*
X171652631Y-50080669D01*
X171821110Y-49673925D01*
X171907000Y-49242128D01*
X171907000Y-48801872D01*
X171821110Y-48370075D01*
X171652631Y-47963331D01*
X171408038Y-47597271D01*
X171096729Y-47285962D01*
X170730669Y-47041369D01*
X170323925Y-46872890D01*
X169892128Y-46787000D01*
X169451872Y-46787000D01*
X169020075Y-46872890D01*
X168613331Y-47041369D01*
X168247271Y-47285962D01*
X167935962Y-47597271D01*
X167691369Y-47963331D01*
X167522890Y-48370075D01*
X167437000Y-48801872D01*
X164119852Y-48801872D01*
X163904550Y-48479651D01*
X163572349Y-48147450D01*
X163181721Y-47886440D01*
X162747679Y-47706654D01*
X162286902Y-47615000D01*
X161817098Y-47615000D01*
X161356321Y-47706654D01*
X160922279Y-47886440D01*
X160531651Y-48147450D01*
X160199450Y-48479651D01*
X159938440Y-48870279D01*
X159758654Y-49304321D01*
X159667000Y-49765098D01*
X149197000Y-49765098D01*
X149105346Y-49304321D01*
X148925560Y-48870279D01*
X148664550Y-48479651D01*
X148332349Y-48147450D01*
X147941721Y-47886440D01*
X147507679Y-47706654D01*
X147046902Y-47615000D01*
X146577098Y-47615000D01*
X146116321Y-47706654D01*
X145682279Y-47886440D01*
X145291651Y-48147450D01*
X144959450Y-48479651D01*
X144698440Y-48870279D01*
X144518654Y-49304321D01*
X144427000Y-49765098D01*
X120475344Y-49765098D01*
X120513110Y-49673925D01*
X120599000Y-49242128D01*
X120599000Y-48801872D01*
X120513110Y-48370075D01*
X120344631Y-47963331D01*
X120100038Y-47597271D01*
X119788729Y-47285962D01*
X119422669Y-47041369D01*
X119015925Y-46872890D01*
X118584128Y-46787000D01*
X118143872Y-46787000D01*
X117712075Y-46872890D01*
X117305331Y-47041369D01*
X116939271Y-47285962D01*
X116627962Y-47597271D01*
X116383369Y-47963331D01*
X116214890Y-48370075D01*
X116129000Y-48801872D01*
X114930579Y-48801872D01*
X115876709Y-45963483D01*
X116092142Y-45847000D01*
X171872016Y-45847000D01*
X173340001Y-49516962D01*
M02*
