G04 #@! TF.GenerationSoftware,KiCad,Pcbnew,(5.1.2)-2*
G04 #@! TF.CreationDate,2020-02-16T14:31:34-06:00*
G04 #@! TF.ProjectId,TempMonitor8PCB,54656d70-4d6f-46e6-9974-6f7238504342,rev?*
G04 #@! TF.SameCoordinates,Original*
G04 #@! TF.FileFunction,Soldermask,Bot*
G04 #@! TF.FilePolarity,Negative*
%FSLAX46Y46*%
G04 Gerber Fmt 4.6, Leading zero omitted, Abs format (unit mm)*
G04 Created by KiCad (PCBNEW (5.1.2)-2) date 2020-02-16 14:31:34*
%MOMM*%
%LPD*%
G04 APERTURE LIST*
%ADD10C,0.100000*%
G04 APERTURE END LIST*
D10*
G36*
X135779512Y-113057927D02*
G01*
X135928812Y-113087624D01*
X136092784Y-113155544D01*
X136240354Y-113254147D01*
X136365853Y-113379646D01*
X136464456Y-113527216D01*
X136532376Y-113691188D01*
X136567000Y-113865259D01*
X136567000Y-114042741D01*
X136532376Y-114216812D01*
X136464456Y-114380784D01*
X136365853Y-114528354D01*
X136240354Y-114653853D01*
X136092784Y-114752456D01*
X135928812Y-114820376D01*
X135779512Y-114850073D01*
X135754742Y-114855000D01*
X135577258Y-114855000D01*
X135552488Y-114850073D01*
X135403188Y-114820376D01*
X135239216Y-114752456D01*
X135091646Y-114653853D01*
X134966147Y-114528354D01*
X134867544Y-114380784D01*
X134799624Y-114216812D01*
X134765000Y-114042741D01*
X134765000Y-113865259D01*
X134799624Y-113691188D01*
X134867544Y-113527216D01*
X134966147Y-113379646D01*
X135091646Y-113254147D01*
X135239216Y-113155544D01*
X135403188Y-113087624D01*
X135552488Y-113057927D01*
X135577258Y-113053000D01*
X135754742Y-113053000D01*
X135779512Y-113057927D01*
X135779512Y-113057927D01*
G37*
G36*
X170047256Y-111391298D02*
G01*
X170153579Y-111412447D01*
X170454042Y-111536903D01*
X170724451Y-111717585D01*
X170954415Y-111947549D01*
X171135097Y-112217958D01*
X171259553Y-112518421D01*
X171280702Y-112624744D01*
X171295974Y-112701519D01*
X171323000Y-112837391D01*
X171323000Y-113162609D01*
X171259553Y-113481579D01*
X171135097Y-113782042D01*
X170954415Y-114052451D01*
X170724451Y-114282415D01*
X170454042Y-114463097D01*
X170153579Y-114587553D01*
X170047256Y-114608702D01*
X169834611Y-114651000D01*
X169509389Y-114651000D01*
X169296744Y-114608702D01*
X169190421Y-114587553D01*
X168889958Y-114463097D01*
X168619549Y-114282415D01*
X168389585Y-114052451D01*
X168208903Y-113782042D01*
X168084447Y-113481579D01*
X168021000Y-113162609D01*
X168021000Y-112837391D01*
X168048027Y-112701519D01*
X168063298Y-112624744D01*
X168084447Y-112518421D01*
X168208903Y-112217958D01*
X168389585Y-111947549D01*
X168619549Y-111717585D01*
X168889958Y-111536903D01*
X169190421Y-111412447D01*
X169296744Y-111391298D01*
X169509389Y-111349000D01*
X169834611Y-111349000D01*
X170047256Y-111391298D01*
X170047256Y-111391298D01*
G37*
G36*
X118739256Y-111391298D02*
G01*
X118845579Y-111412447D01*
X119146042Y-111536903D01*
X119416451Y-111717585D01*
X119646415Y-111947549D01*
X119827097Y-112217958D01*
X119951553Y-112518421D01*
X119972702Y-112624744D01*
X119987974Y-112701519D01*
X120015000Y-112837391D01*
X120015000Y-113162609D01*
X119951553Y-113481579D01*
X119827097Y-113782042D01*
X119646415Y-114052451D01*
X119416451Y-114282415D01*
X119146042Y-114463097D01*
X118845579Y-114587553D01*
X118739256Y-114608702D01*
X118526611Y-114651000D01*
X118201389Y-114651000D01*
X117988744Y-114608702D01*
X117882421Y-114587553D01*
X117581958Y-114463097D01*
X117311549Y-114282415D01*
X117081585Y-114052451D01*
X116900903Y-113782042D01*
X116776447Y-113481579D01*
X116713000Y-113162609D01*
X116713000Y-112837391D01*
X116740027Y-112701519D01*
X116755298Y-112624744D01*
X116776447Y-112518421D01*
X116900903Y-112217958D01*
X117081585Y-111947549D01*
X117311549Y-111717585D01*
X117581958Y-111536903D01*
X117882421Y-111412447D01*
X117988744Y-111391298D01*
X118201389Y-111349000D01*
X118526611Y-111349000D01*
X118739256Y-111391298D01*
X118739256Y-111391298D01*
G37*
G36*
X140456228Y-112425703D02*
G01*
X140611100Y-112489853D01*
X140750481Y-112582985D01*
X140869015Y-112701519D01*
X140962147Y-112840900D01*
X141026297Y-112995772D01*
X141059000Y-113160184D01*
X141059000Y-113327816D01*
X141026297Y-113492228D01*
X140962147Y-113647100D01*
X140869015Y-113786481D01*
X140750481Y-113905015D01*
X140611100Y-113998147D01*
X140456228Y-114062297D01*
X140291816Y-114095000D01*
X140124184Y-114095000D01*
X139959772Y-114062297D01*
X139804900Y-113998147D01*
X139665519Y-113905015D01*
X139546985Y-113786481D01*
X139453853Y-113647100D01*
X139389703Y-113492228D01*
X139357000Y-113327816D01*
X139357000Y-113160184D01*
X139389703Y-112995772D01*
X139453853Y-112840900D01*
X139546985Y-112701519D01*
X139665519Y-112582985D01*
X139804900Y-112489853D01*
X139959772Y-112425703D01*
X140124184Y-112393000D01*
X140291816Y-112393000D01*
X140456228Y-112425703D01*
X140456228Y-112425703D01*
G37*
G36*
X135779512Y-110517927D02*
G01*
X135928812Y-110547624D01*
X136092784Y-110615544D01*
X136240354Y-110714147D01*
X136365853Y-110839646D01*
X136464456Y-110987216D01*
X136532376Y-111151188D01*
X136567000Y-111325259D01*
X136567000Y-111502741D01*
X136532376Y-111676812D01*
X136464456Y-111840784D01*
X136365853Y-111988354D01*
X136240354Y-112113853D01*
X136092784Y-112212456D01*
X135928812Y-112280376D01*
X135779512Y-112310073D01*
X135754742Y-112315000D01*
X135577258Y-112315000D01*
X135552488Y-112310073D01*
X135403188Y-112280376D01*
X135239216Y-112212456D01*
X135091646Y-112113853D01*
X134966147Y-111988354D01*
X134867544Y-111840784D01*
X134799624Y-111676812D01*
X134765000Y-111502741D01*
X134765000Y-111325259D01*
X134799624Y-111151188D01*
X134867544Y-110987216D01*
X134966147Y-110839646D01*
X135091646Y-110714147D01*
X135239216Y-110615544D01*
X135403188Y-110547624D01*
X135552488Y-110517927D01*
X135577258Y-110513000D01*
X135754742Y-110513000D01*
X135779512Y-110517927D01*
X135779512Y-110517927D01*
G37*
G36*
X153272443Y-110357519D02*
G01*
X153338627Y-110364037D01*
X153508466Y-110415557D01*
X153664991Y-110499222D01*
X153681779Y-110513000D01*
X153802186Y-110611814D01*
X153841882Y-110660185D01*
X153914778Y-110749009D01*
X153998443Y-110905534D01*
X154049963Y-111075373D01*
X154067359Y-111252000D01*
X154049963Y-111428627D01*
X153998443Y-111598466D01*
X153914778Y-111754991D01*
X153885448Y-111790729D01*
X153802186Y-111892186D01*
X153700729Y-111975448D01*
X153664991Y-112004778D01*
X153508466Y-112088443D01*
X153338627Y-112139963D01*
X153272443Y-112146481D01*
X153206260Y-112153000D01*
X153117740Y-112153000D01*
X153051557Y-112146481D01*
X152985373Y-112139963D01*
X152815534Y-112088443D01*
X152659009Y-112004778D01*
X152623271Y-111975448D01*
X152521814Y-111892186D01*
X152438552Y-111790729D01*
X152409222Y-111754991D01*
X152325557Y-111598466D01*
X152274037Y-111428627D01*
X152256641Y-111252000D01*
X152274037Y-111075373D01*
X152325557Y-110905534D01*
X152409222Y-110749009D01*
X152482118Y-110660185D01*
X152521814Y-110611814D01*
X152642221Y-110513000D01*
X152659009Y-110499222D01*
X152815534Y-110415557D01*
X152985373Y-110364037D01*
X153051557Y-110357519D01*
X153117740Y-110351000D01*
X153206260Y-110351000D01*
X153272443Y-110357519D01*
X153272443Y-110357519D01*
G37*
G36*
X140456228Y-109925703D02*
G01*
X140611100Y-109989853D01*
X140750481Y-110082985D01*
X140869015Y-110201519D01*
X140962147Y-110340900D01*
X141026297Y-110495772D01*
X141059000Y-110660184D01*
X141059000Y-110827816D01*
X141026297Y-110992228D01*
X140962147Y-111147100D01*
X140869015Y-111286481D01*
X140750481Y-111405015D01*
X140611100Y-111498147D01*
X140456228Y-111562297D01*
X140291816Y-111595000D01*
X140124184Y-111595000D01*
X139959772Y-111562297D01*
X139804900Y-111498147D01*
X139665519Y-111405015D01*
X139546985Y-111286481D01*
X139453853Y-111147100D01*
X139389703Y-110992228D01*
X139357000Y-110827816D01*
X139357000Y-110660184D01*
X139389703Y-110495772D01*
X139453853Y-110340900D01*
X139546985Y-110201519D01*
X139665519Y-110082985D01*
X139804900Y-109989853D01*
X139959772Y-109925703D01*
X140124184Y-109893000D01*
X140291816Y-109893000D01*
X140456228Y-109925703D01*
X140456228Y-109925703D01*
G37*
G36*
X135779512Y-107977927D02*
G01*
X135928812Y-108007624D01*
X136092784Y-108075544D01*
X136240354Y-108174147D01*
X136365853Y-108299646D01*
X136464456Y-108447216D01*
X136532376Y-108611188D01*
X136567000Y-108785259D01*
X136567000Y-108962741D01*
X136532376Y-109136812D01*
X136464456Y-109300784D01*
X136365853Y-109448354D01*
X136240354Y-109573853D01*
X136092784Y-109672456D01*
X135928812Y-109740376D01*
X135779512Y-109770073D01*
X135754742Y-109775000D01*
X135577258Y-109775000D01*
X135552488Y-109770073D01*
X135403188Y-109740376D01*
X135239216Y-109672456D01*
X135091646Y-109573853D01*
X134966147Y-109448354D01*
X134867544Y-109300784D01*
X134799624Y-109136812D01*
X134765000Y-108962741D01*
X134765000Y-108785259D01*
X134799624Y-108611188D01*
X134867544Y-108447216D01*
X134966147Y-108299646D01*
X135091646Y-108174147D01*
X135239216Y-108075544D01*
X135403188Y-108007624D01*
X135552488Y-107977927D01*
X135577258Y-107973000D01*
X135754742Y-107973000D01*
X135779512Y-107977927D01*
X135779512Y-107977927D01*
G37*
G36*
X154063000Y-109613000D02*
G01*
X152261000Y-109613000D01*
X152261000Y-107811000D01*
X154063000Y-107811000D01*
X154063000Y-109613000D01*
X154063000Y-109613000D01*
G37*
G36*
X168622072Y-106022918D02*
G01*
X168867939Y-106124759D01*
X168979328Y-106199187D01*
X169089211Y-106272609D01*
X169277391Y-106460789D01*
X169425242Y-106682063D01*
X169527082Y-106927928D01*
X169579000Y-107188937D01*
X169579000Y-107455063D01*
X169527082Y-107716072D01*
X169425242Y-107961937D01*
X169283447Y-108174148D01*
X169277390Y-108183212D01*
X169089212Y-108371390D01*
X168867939Y-108519241D01*
X168867938Y-108519242D01*
X168867937Y-108519242D01*
X168622072Y-108621082D01*
X168361063Y-108673000D01*
X168094937Y-108673000D01*
X167833928Y-108621082D01*
X167588063Y-108519242D01*
X167588062Y-108519242D01*
X167588061Y-108519241D01*
X167366788Y-108371390D01*
X167178610Y-108183212D01*
X167172554Y-108174148D01*
X167030758Y-107961937D01*
X166928918Y-107716072D01*
X166877000Y-107455063D01*
X166877000Y-107188937D01*
X166928918Y-106927928D01*
X167030758Y-106682063D01*
X167178609Y-106460789D01*
X167366789Y-106272609D01*
X167476672Y-106199187D01*
X167588061Y-106124759D01*
X167833928Y-106022918D01*
X168094937Y-105971000D01*
X168361063Y-105971000D01*
X168622072Y-106022918D01*
X168622072Y-106022918D01*
G37*
G36*
X135779512Y-105437927D02*
G01*
X135928812Y-105467624D01*
X136092784Y-105535544D01*
X136240354Y-105634147D01*
X136365853Y-105759646D01*
X136464456Y-105907216D01*
X136532376Y-106071188D01*
X136567000Y-106245259D01*
X136567000Y-106422741D01*
X136532376Y-106596812D01*
X136464456Y-106760784D01*
X136365853Y-106908354D01*
X136240354Y-107033853D01*
X136092784Y-107132456D01*
X135928812Y-107200376D01*
X135779512Y-107230073D01*
X135754742Y-107235000D01*
X135577258Y-107235000D01*
X135552488Y-107230073D01*
X135403188Y-107200376D01*
X135239216Y-107132456D01*
X135091646Y-107033853D01*
X134966147Y-106908354D01*
X134867544Y-106760784D01*
X134799624Y-106596812D01*
X134765000Y-106422741D01*
X134765000Y-106245259D01*
X134799624Y-106071188D01*
X134867544Y-105907216D01*
X134966147Y-105759646D01*
X135091646Y-105634147D01*
X135239216Y-105535544D01*
X135403188Y-105467624D01*
X135552488Y-105437927D01*
X135577258Y-105433000D01*
X135754742Y-105433000D01*
X135779512Y-105437927D01*
X135779512Y-105437927D01*
G37*
G36*
X145985000Y-106869000D02*
G01*
X144083000Y-106869000D01*
X144083000Y-104967000D01*
X145985000Y-104967000D01*
X145985000Y-106869000D01*
X145985000Y-106869000D01*
G37*
G36*
X135779512Y-102897927D02*
G01*
X135928812Y-102927624D01*
X136092784Y-102995544D01*
X136240354Y-103094147D01*
X136365853Y-103219646D01*
X136464456Y-103367216D01*
X136532376Y-103531188D01*
X136567000Y-103705259D01*
X136567000Y-103882741D01*
X136532376Y-104056812D01*
X136464456Y-104220784D01*
X136365853Y-104368354D01*
X136240354Y-104493853D01*
X136092784Y-104592456D01*
X135928812Y-104660376D01*
X135779512Y-104690073D01*
X135754742Y-104695000D01*
X135577258Y-104695000D01*
X135552488Y-104690073D01*
X135403188Y-104660376D01*
X135239216Y-104592456D01*
X135091646Y-104493853D01*
X134966147Y-104368354D01*
X134867544Y-104220784D01*
X134799624Y-104056812D01*
X134765000Y-103882741D01*
X134765000Y-103705259D01*
X134799624Y-103531188D01*
X134867544Y-103367216D01*
X134966147Y-103219646D01*
X135091646Y-103094147D01*
X135239216Y-102995544D01*
X135403188Y-102927624D01*
X135552488Y-102897927D01*
X135577258Y-102893000D01*
X135754742Y-102893000D01*
X135779512Y-102897927D01*
X135779512Y-102897927D01*
G37*
G36*
X145311395Y-102463546D02*
G01*
X145484466Y-102535234D01*
X145484467Y-102535235D01*
X145640227Y-102639310D01*
X145772690Y-102771773D01*
X145772691Y-102771775D01*
X145876766Y-102927534D01*
X145948454Y-103100605D01*
X145985000Y-103284333D01*
X145985000Y-103471667D01*
X145948454Y-103655395D01*
X145876766Y-103828466D01*
X145840500Y-103882742D01*
X145772690Y-103984227D01*
X145640227Y-104116690D01*
X145561818Y-104169081D01*
X145484466Y-104220766D01*
X145311395Y-104292454D01*
X145127667Y-104329000D01*
X144940333Y-104329000D01*
X144756605Y-104292454D01*
X144583534Y-104220766D01*
X144506182Y-104169081D01*
X144427773Y-104116690D01*
X144295310Y-103984227D01*
X144227500Y-103882742D01*
X144191234Y-103828466D01*
X144119546Y-103655395D01*
X144083000Y-103471667D01*
X144083000Y-103284333D01*
X144119546Y-103100605D01*
X144191234Y-102927534D01*
X144295309Y-102771775D01*
X144295310Y-102771773D01*
X144427773Y-102639310D01*
X144583533Y-102535235D01*
X144583534Y-102535234D01*
X144756605Y-102463546D01*
X144940333Y-102427000D01*
X145127667Y-102427000D01*
X145311395Y-102463546D01*
X145311395Y-102463546D01*
G37*
G36*
X168622072Y-101022918D02*
G01*
X168867939Y-101124759D01*
X169089212Y-101272610D01*
X169277390Y-101460788D01*
X169424388Y-101680784D01*
X169425242Y-101682063D01*
X169527082Y-101927928D01*
X169579000Y-102188937D01*
X169579000Y-102455063D01*
X169527082Y-102716072D01*
X169439493Y-102927533D01*
X169425241Y-102961939D01*
X169277390Y-103183212D01*
X169089212Y-103371390D01*
X168867939Y-103519241D01*
X168867938Y-103519242D01*
X168867937Y-103519242D01*
X168622072Y-103621082D01*
X168361063Y-103673000D01*
X168094937Y-103673000D01*
X167833928Y-103621082D01*
X167588063Y-103519242D01*
X167588062Y-103519242D01*
X167588061Y-103519241D01*
X167366788Y-103371390D01*
X167178610Y-103183212D01*
X167030759Y-102961939D01*
X167016508Y-102927533D01*
X166928918Y-102716072D01*
X166877000Y-102455063D01*
X166877000Y-102188937D01*
X166928918Y-101927928D01*
X167030758Y-101682063D01*
X167031613Y-101680784D01*
X167178610Y-101460788D01*
X167366788Y-101272610D01*
X167588061Y-101124759D01*
X167833928Y-101022918D01*
X168094937Y-100971000D01*
X168361063Y-100971000D01*
X168622072Y-101022918D01*
X168622072Y-101022918D01*
G37*
G36*
X135779512Y-100357927D02*
G01*
X135928812Y-100387624D01*
X136092784Y-100455544D01*
X136240354Y-100554147D01*
X136365853Y-100679646D01*
X136464456Y-100827216D01*
X136532376Y-100991188D01*
X136567000Y-101165259D01*
X136567000Y-101342741D01*
X136532376Y-101516812D01*
X136464456Y-101680784D01*
X136365853Y-101828354D01*
X136240354Y-101953853D01*
X136092784Y-102052456D01*
X135928812Y-102120376D01*
X135779512Y-102150073D01*
X135754742Y-102155000D01*
X135577258Y-102155000D01*
X135552488Y-102150073D01*
X135403188Y-102120376D01*
X135239216Y-102052456D01*
X135091646Y-101953853D01*
X134966147Y-101828354D01*
X134867544Y-101680784D01*
X134799624Y-101516812D01*
X134765000Y-101342741D01*
X134765000Y-101165259D01*
X134799624Y-100991188D01*
X134867544Y-100827216D01*
X134966147Y-100679646D01*
X135091646Y-100554147D01*
X135239216Y-100455544D01*
X135403188Y-100387624D01*
X135552488Y-100357927D01*
X135577258Y-100353000D01*
X135754742Y-100353000D01*
X135779512Y-100357927D01*
X135779512Y-100357927D01*
G37*
G36*
X135779512Y-97817927D02*
G01*
X135928812Y-97847624D01*
X136092784Y-97915544D01*
X136240354Y-98014147D01*
X136365853Y-98139646D01*
X136464456Y-98287216D01*
X136532376Y-98451188D01*
X136567000Y-98625259D01*
X136567000Y-98802741D01*
X136532376Y-98976812D01*
X136464456Y-99140784D01*
X136365853Y-99288354D01*
X136240354Y-99413853D01*
X136092784Y-99512456D01*
X135928812Y-99580376D01*
X135779512Y-99610073D01*
X135754742Y-99615000D01*
X135577258Y-99615000D01*
X135552488Y-99610073D01*
X135403188Y-99580376D01*
X135239216Y-99512456D01*
X135091646Y-99413853D01*
X134966147Y-99288354D01*
X134867544Y-99140784D01*
X134799624Y-98976812D01*
X134765000Y-98802741D01*
X134765000Y-98625259D01*
X134799624Y-98451188D01*
X134867544Y-98287216D01*
X134966147Y-98139646D01*
X135091646Y-98014147D01*
X135239216Y-97915544D01*
X135403188Y-97847624D01*
X135552488Y-97817927D01*
X135577258Y-97813000D01*
X135754742Y-97813000D01*
X135779512Y-97817927D01*
X135779512Y-97817927D01*
G37*
G36*
X152140228Y-97479703D02*
G01*
X152295100Y-97543853D01*
X152434481Y-97636985D01*
X152553015Y-97755519D01*
X152646147Y-97894900D01*
X152710297Y-98049772D01*
X152743000Y-98214184D01*
X152743000Y-98381816D01*
X152710297Y-98546228D01*
X152646147Y-98701100D01*
X152553015Y-98840481D01*
X152434481Y-98959015D01*
X152295100Y-99052147D01*
X152140228Y-99116297D01*
X151975816Y-99149000D01*
X151808184Y-99149000D01*
X151643772Y-99116297D01*
X151488900Y-99052147D01*
X151349519Y-98959015D01*
X151230985Y-98840481D01*
X151137853Y-98701100D01*
X151073703Y-98546228D01*
X151041000Y-98381816D01*
X151041000Y-98214184D01*
X151073703Y-98049772D01*
X151137853Y-97894900D01*
X151230985Y-97755519D01*
X151349519Y-97636985D01*
X151488900Y-97543853D01*
X151643772Y-97479703D01*
X151808184Y-97447000D01*
X151975816Y-97447000D01*
X152140228Y-97479703D01*
X152140228Y-97479703D01*
G37*
G36*
X141898823Y-97459313D02*
G01*
X142059242Y-97507976D01*
X142126361Y-97543852D01*
X142207078Y-97586996D01*
X142336659Y-97693341D01*
X142443004Y-97822922D01*
X142443005Y-97822924D01*
X142522024Y-97970758D01*
X142522025Y-97970761D01*
X142531083Y-98000620D01*
X142570687Y-98131177D01*
X142587117Y-98298000D01*
X142570687Y-98464823D01*
X142522024Y-98625242D01*
X142481477Y-98701100D01*
X142443004Y-98773078D01*
X142336659Y-98902659D01*
X142207078Y-99009004D01*
X142207076Y-99009005D01*
X142059242Y-99088024D01*
X141898823Y-99136687D01*
X141773804Y-99149000D01*
X141690196Y-99149000D01*
X141565177Y-99136687D01*
X141404758Y-99088024D01*
X141256924Y-99009005D01*
X141256922Y-99009004D01*
X141127341Y-98902659D01*
X141020996Y-98773078D01*
X140982523Y-98701100D01*
X140941976Y-98625242D01*
X140893313Y-98464823D01*
X140876883Y-98298000D01*
X140893313Y-98131177D01*
X140932917Y-98000620D01*
X140941975Y-97970761D01*
X140941976Y-97970758D01*
X141020995Y-97822924D01*
X141020996Y-97822922D01*
X141127341Y-97693341D01*
X141256922Y-97586996D01*
X141337639Y-97543852D01*
X141404758Y-97507976D01*
X141565177Y-97459313D01*
X141690196Y-97447000D01*
X141773804Y-97447000D01*
X141898823Y-97459313D01*
X141898823Y-97459313D01*
G37*
G36*
X165714256Y-94796298D02*
G01*
X165820579Y-94817447D01*
X166121042Y-94941903D01*
X166391451Y-95122585D01*
X166621415Y-95352549D01*
X166802097Y-95622958D01*
X166926553Y-95923421D01*
X166990000Y-96242391D01*
X166990000Y-96567609D01*
X166926553Y-96886579D01*
X166802097Y-97187042D01*
X166621415Y-97457451D01*
X166391451Y-97687415D01*
X166121042Y-97868097D01*
X165820579Y-97992553D01*
X165714256Y-98013702D01*
X165501611Y-98056000D01*
X165176389Y-98056000D01*
X164963744Y-98013702D01*
X164857421Y-97992553D01*
X164556958Y-97868097D01*
X164286549Y-97687415D01*
X164056585Y-97457451D01*
X163875903Y-97187042D01*
X163751447Y-96886579D01*
X163688000Y-96567609D01*
X163688000Y-96242391D01*
X163751447Y-95923421D01*
X163875903Y-95622958D01*
X164056585Y-95352549D01*
X164286549Y-95122585D01*
X164556958Y-94941903D01*
X164857421Y-94817447D01*
X164963744Y-94796298D01*
X165176389Y-94754000D01*
X165501611Y-94754000D01*
X165714256Y-94796298D01*
X165714256Y-94796298D01*
G37*
G36*
X159790000Y-95936000D02*
G01*
X158188000Y-95936000D01*
X158188000Y-94334000D01*
X159790000Y-94334000D01*
X159790000Y-95936000D01*
X159790000Y-95936000D01*
G37*
G36*
X156682642Y-93094781D02*
G01*
X156828414Y-93155162D01*
X156828416Y-93155163D01*
X156959608Y-93242822D01*
X157071178Y-93354392D01*
X157096257Y-93391926D01*
X157158838Y-93485586D01*
X157219219Y-93631358D01*
X157250000Y-93786107D01*
X157250000Y-93943893D01*
X157219219Y-94098642D01*
X157158838Y-94244414D01*
X157158837Y-94244416D01*
X157071178Y-94375608D01*
X156959608Y-94487178D01*
X156828416Y-94574837D01*
X156828415Y-94574838D01*
X156828414Y-94574838D01*
X156682642Y-94635219D01*
X156527893Y-94666000D01*
X156370107Y-94666000D01*
X156215358Y-94635219D01*
X156069586Y-94574838D01*
X156069585Y-94574838D01*
X156069584Y-94574837D01*
X155938392Y-94487178D01*
X155826822Y-94375608D01*
X155739163Y-94244416D01*
X155739162Y-94244414D01*
X155678781Y-94098642D01*
X155648000Y-93943893D01*
X155648000Y-93786107D01*
X155678781Y-93631358D01*
X155739162Y-93485586D01*
X155801743Y-93391926D01*
X155826822Y-93354392D01*
X155938392Y-93242822D01*
X156069584Y-93155163D01*
X156069586Y-93155162D01*
X156215358Y-93094781D01*
X156370107Y-93064000D01*
X156527893Y-93064000D01*
X156682642Y-93094781D01*
X156682642Y-93094781D01*
G37*
G36*
X138667142Y-92690242D02*
G01*
X138815101Y-92751529D01*
X138948255Y-92840499D01*
X139061501Y-92953745D01*
X139150471Y-93086899D01*
X139211758Y-93234858D01*
X139243000Y-93391925D01*
X139243000Y-93552075D01*
X139211758Y-93709142D01*
X139150471Y-93857101D01*
X139061501Y-93990255D01*
X138948255Y-94103501D01*
X138815101Y-94192471D01*
X138667142Y-94253758D01*
X138510075Y-94285000D01*
X138349925Y-94285000D01*
X138192858Y-94253758D01*
X138044899Y-94192471D01*
X137911745Y-94103501D01*
X137798499Y-93990255D01*
X137709529Y-93857101D01*
X137648242Y-93709142D01*
X137617000Y-93552075D01*
X137617000Y-93391925D01*
X137648242Y-93234858D01*
X137709529Y-93086899D01*
X137798499Y-92953745D01*
X137911745Y-92840499D01*
X138044899Y-92751529D01*
X138192858Y-92690242D01*
X138349925Y-92659000D01*
X138510075Y-92659000D01*
X138667142Y-92690242D01*
X138667142Y-92690242D01*
G37*
G36*
X148827142Y-92690242D02*
G01*
X148975101Y-92751529D01*
X149108255Y-92840499D01*
X149221501Y-92953745D01*
X149310471Y-93086899D01*
X149371758Y-93234858D01*
X149403000Y-93391925D01*
X149403000Y-93552075D01*
X149371758Y-93709142D01*
X149310471Y-93857101D01*
X149221501Y-93990255D01*
X149108255Y-94103501D01*
X148975101Y-94192471D01*
X148827142Y-94253758D01*
X148670075Y-94285000D01*
X148509925Y-94285000D01*
X148352858Y-94253758D01*
X148204899Y-94192471D01*
X148071745Y-94103501D01*
X147958499Y-93990255D01*
X147869529Y-93857101D01*
X147808242Y-93709142D01*
X147777000Y-93552075D01*
X147777000Y-93391925D01*
X147808242Y-93234858D01*
X147869529Y-93086899D01*
X147958499Y-92953745D01*
X148071745Y-92840499D01*
X148204899Y-92751529D01*
X148352858Y-92690242D01*
X148509925Y-92659000D01*
X148670075Y-92659000D01*
X148827142Y-92690242D01*
X148827142Y-92690242D01*
G37*
G36*
X159222642Y-91824781D02*
G01*
X159368414Y-91885162D01*
X159368416Y-91885163D01*
X159499608Y-91972822D01*
X159611178Y-92084392D01*
X159618412Y-92095219D01*
X159698838Y-92215586D01*
X159759219Y-92361358D01*
X159790000Y-92516107D01*
X159790000Y-92673893D01*
X159759219Y-92828642D01*
X159707400Y-92953743D01*
X159698837Y-92974416D01*
X159611178Y-93105608D01*
X159499608Y-93217178D01*
X159368416Y-93304837D01*
X159368415Y-93304838D01*
X159368414Y-93304838D01*
X159222642Y-93365219D01*
X159067893Y-93396000D01*
X158910107Y-93396000D01*
X158755358Y-93365219D01*
X158609586Y-93304838D01*
X158609585Y-93304838D01*
X158609584Y-93304837D01*
X158478392Y-93217178D01*
X158366822Y-93105608D01*
X158279163Y-92974416D01*
X158270600Y-92953743D01*
X158218781Y-92828642D01*
X158188000Y-92673893D01*
X158188000Y-92516107D01*
X158218781Y-92361358D01*
X158279162Y-92215586D01*
X158359588Y-92095219D01*
X158366822Y-92084392D01*
X158478392Y-91972822D01*
X158609584Y-91885163D01*
X158609586Y-91885162D01*
X158755358Y-91824781D01*
X158910107Y-91794000D01*
X159067893Y-91794000D01*
X159222642Y-91824781D01*
X159222642Y-91824781D01*
G37*
G36*
X156682642Y-90554781D02*
G01*
X156828414Y-90615162D01*
X156828416Y-90615163D01*
X156959608Y-90702822D01*
X157071178Y-90814392D01*
X157096257Y-90851926D01*
X157158838Y-90945586D01*
X157219219Y-91091358D01*
X157250000Y-91246107D01*
X157250000Y-91403893D01*
X157219219Y-91558642D01*
X157158838Y-91704414D01*
X157158837Y-91704416D01*
X157071178Y-91835608D01*
X156959608Y-91947178D01*
X156828416Y-92034837D01*
X156828415Y-92034838D01*
X156828414Y-92034838D01*
X156682642Y-92095219D01*
X156527893Y-92126000D01*
X156370107Y-92126000D01*
X156215358Y-92095219D01*
X156069586Y-92034838D01*
X156069585Y-92034838D01*
X156069584Y-92034837D01*
X155938392Y-91947178D01*
X155826822Y-91835608D01*
X155739163Y-91704416D01*
X155739162Y-91704414D01*
X155678781Y-91558642D01*
X155648000Y-91403893D01*
X155648000Y-91246107D01*
X155678781Y-91091358D01*
X155739162Y-90945586D01*
X155801743Y-90851926D01*
X155826822Y-90814392D01*
X155938392Y-90702822D01*
X156069584Y-90615163D01*
X156069586Y-90615162D01*
X156215358Y-90554781D01*
X156370107Y-90524000D01*
X156527893Y-90524000D01*
X156682642Y-90554781D01*
X156682642Y-90554781D01*
G37*
G36*
X138667142Y-90150242D02*
G01*
X138815101Y-90211529D01*
X138948255Y-90300499D01*
X139061501Y-90413745D01*
X139150471Y-90546899D01*
X139211758Y-90694858D01*
X139243000Y-90851925D01*
X139243000Y-91012075D01*
X139211758Y-91169142D01*
X139150471Y-91317101D01*
X139061501Y-91450255D01*
X138948255Y-91563501D01*
X138815101Y-91652471D01*
X138667142Y-91713758D01*
X138510075Y-91745000D01*
X138349925Y-91745000D01*
X138192858Y-91713758D01*
X138044899Y-91652471D01*
X137911745Y-91563501D01*
X137798499Y-91450255D01*
X137709529Y-91317101D01*
X137648242Y-91169142D01*
X137617000Y-91012075D01*
X137617000Y-90851925D01*
X137648242Y-90694858D01*
X137709529Y-90546899D01*
X137798499Y-90413745D01*
X137911745Y-90300499D01*
X138044899Y-90211529D01*
X138192858Y-90150242D01*
X138349925Y-90119000D01*
X138510075Y-90119000D01*
X138667142Y-90150242D01*
X138667142Y-90150242D01*
G37*
G36*
X148827142Y-90150242D02*
G01*
X148975101Y-90211529D01*
X149108255Y-90300499D01*
X149221501Y-90413745D01*
X149310471Y-90546899D01*
X149371758Y-90694858D01*
X149403000Y-90851925D01*
X149403000Y-91012075D01*
X149371758Y-91169142D01*
X149310471Y-91317101D01*
X149221501Y-91450255D01*
X149108255Y-91563501D01*
X148975101Y-91652471D01*
X148827142Y-91713758D01*
X148670075Y-91745000D01*
X148509925Y-91745000D01*
X148352858Y-91713758D01*
X148204899Y-91652471D01*
X148071745Y-91563501D01*
X147958499Y-91450255D01*
X147869529Y-91317101D01*
X147808242Y-91169142D01*
X147777000Y-91012075D01*
X147777000Y-90851925D01*
X147808242Y-90694858D01*
X147869529Y-90546899D01*
X147958499Y-90413745D01*
X148071745Y-90300499D01*
X148204899Y-90211529D01*
X148352858Y-90150242D01*
X148509925Y-90119000D01*
X148670075Y-90119000D01*
X148827142Y-90150242D01*
X148827142Y-90150242D01*
G37*
G36*
X159222642Y-89284781D02*
G01*
X159368414Y-89345162D01*
X159368416Y-89345163D01*
X159499608Y-89432822D01*
X159611178Y-89544392D01*
X159638979Y-89586000D01*
X159698838Y-89675586D01*
X159759219Y-89821358D01*
X159790000Y-89976107D01*
X159790000Y-90133893D01*
X159759219Y-90288642D01*
X159707400Y-90413743D01*
X159698837Y-90434416D01*
X159611178Y-90565608D01*
X159499608Y-90677178D01*
X159368416Y-90764837D01*
X159368415Y-90764838D01*
X159368414Y-90764838D01*
X159222642Y-90825219D01*
X159067893Y-90856000D01*
X158910107Y-90856000D01*
X158755358Y-90825219D01*
X158609586Y-90764838D01*
X158609585Y-90764838D01*
X158609584Y-90764837D01*
X158478392Y-90677178D01*
X158366822Y-90565608D01*
X158279163Y-90434416D01*
X158270600Y-90413743D01*
X158218781Y-90288642D01*
X158188000Y-90133893D01*
X158188000Y-89976107D01*
X158218781Y-89821358D01*
X158279162Y-89675586D01*
X158339021Y-89586000D01*
X158366822Y-89544392D01*
X158478392Y-89432822D01*
X158609584Y-89345163D01*
X158609586Y-89345162D01*
X158755358Y-89284781D01*
X158910107Y-89254000D01*
X159067893Y-89254000D01*
X159222642Y-89284781D01*
X159222642Y-89284781D01*
G37*
G36*
X132246823Y-88569313D02*
G01*
X132407242Y-88617976D01*
X132539906Y-88688886D01*
X132555078Y-88696996D01*
X132684659Y-88803341D01*
X132791004Y-88932922D01*
X132791005Y-88932924D01*
X132870024Y-89080758D01*
X132918687Y-89241177D01*
X132935117Y-89408000D01*
X132918687Y-89574823D01*
X132870024Y-89735242D01*
X132823994Y-89821358D01*
X132791004Y-89883078D01*
X132684659Y-90012659D01*
X132555078Y-90119004D01*
X132555076Y-90119005D01*
X132407242Y-90198024D01*
X132246823Y-90246687D01*
X132121804Y-90259000D01*
X132038196Y-90259000D01*
X131913177Y-90246687D01*
X131752758Y-90198024D01*
X131604924Y-90119005D01*
X131604922Y-90119004D01*
X131475341Y-90012659D01*
X131368996Y-89883078D01*
X131336006Y-89821358D01*
X131289976Y-89735242D01*
X131241313Y-89574823D01*
X131224883Y-89408000D01*
X131241313Y-89241177D01*
X131289976Y-89080758D01*
X131368995Y-88932924D01*
X131368996Y-88932922D01*
X131475341Y-88803341D01*
X131604922Y-88696996D01*
X131620094Y-88688886D01*
X131752758Y-88617976D01*
X131913177Y-88569313D01*
X132038196Y-88557000D01*
X132121804Y-88557000D01*
X132246823Y-88569313D01*
X132246823Y-88569313D01*
G37*
G36*
X117006823Y-88569313D02*
G01*
X117167242Y-88617976D01*
X117299906Y-88688886D01*
X117315078Y-88696996D01*
X117444659Y-88803341D01*
X117551004Y-88932922D01*
X117551005Y-88932924D01*
X117630024Y-89080758D01*
X117678687Y-89241177D01*
X117695117Y-89408000D01*
X117678687Y-89574823D01*
X117630024Y-89735242D01*
X117583994Y-89821358D01*
X117551004Y-89883078D01*
X117444659Y-90012659D01*
X117315078Y-90119004D01*
X117315076Y-90119005D01*
X117167242Y-90198024D01*
X117006823Y-90246687D01*
X116881804Y-90259000D01*
X116798196Y-90259000D01*
X116673177Y-90246687D01*
X116512758Y-90198024D01*
X116364924Y-90119005D01*
X116364922Y-90119004D01*
X116235341Y-90012659D01*
X116128996Y-89883078D01*
X116096006Y-89821358D01*
X116049976Y-89735242D01*
X116001313Y-89574823D01*
X115984883Y-89408000D01*
X116001313Y-89241177D01*
X116049976Y-89080758D01*
X116128995Y-88932924D01*
X116128996Y-88932922D01*
X116235341Y-88803341D01*
X116364922Y-88696996D01*
X116380094Y-88688886D01*
X116512758Y-88617976D01*
X116673177Y-88569313D01*
X116798196Y-88557000D01*
X116881804Y-88557000D01*
X117006823Y-88569313D01*
X117006823Y-88569313D01*
G37*
G36*
X156682642Y-88014781D02*
G01*
X156828414Y-88075162D01*
X156828416Y-88075163D01*
X156959608Y-88162822D01*
X157071178Y-88274392D01*
X157096257Y-88311926D01*
X157158838Y-88405586D01*
X157219219Y-88551358D01*
X157250000Y-88706107D01*
X157250000Y-88863893D01*
X157219219Y-89018642D01*
X157158838Y-89164414D01*
X157158837Y-89164416D01*
X157071178Y-89295608D01*
X156959608Y-89407178D01*
X156828416Y-89494837D01*
X156828415Y-89494838D01*
X156828414Y-89494838D01*
X156682642Y-89555219D01*
X156527893Y-89586000D01*
X156370107Y-89586000D01*
X156215358Y-89555219D01*
X156069586Y-89494838D01*
X156069585Y-89494838D01*
X156069584Y-89494837D01*
X155938392Y-89407178D01*
X155826822Y-89295608D01*
X155739163Y-89164416D01*
X155739162Y-89164414D01*
X155678781Y-89018642D01*
X155648000Y-88863893D01*
X155648000Y-88706107D01*
X155678781Y-88551358D01*
X155739162Y-88405586D01*
X155801743Y-88311926D01*
X155826822Y-88274392D01*
X155938392Y-88162822D01*
X156069584Y-88075163D01*
X156069586Y-88075162D01*
X156215358Y-88014781D01*
X156370107Y-87984000D01*
X156527893Y-87984000D01*
X156682642Y-88014781D01*
X156682642Y-88014781D01*
G37*
G36*
X138667142Y-87610242D02*
G01*
X138815101Y-87671529D01*
X138948255Y-87760499D01*
X139061501Y-87873745D01*
X139150471Y-88006899D01*
X139211758Y-88154858D01*
X139243000Y-88311925D01*
X139243000Y-88472075D01*
X139211758Y-88629142D01*
X139150471Y-88777101D01*
X139061501Y-88910255D01*
X138948255Y-89023501D01*
X138815101Y-89112471D01*
X138667142Y-89173758D01*
X138510075Y-89205000D01*
X138349925Y-89205000D01*
X138192858Y-89173758D01*
X138044899Y-89112471D01*
X137911745Y-89023501D01*
X137798499Y-88910255D01*
X137709529Y-88777101D01*
X137648242Y-88629142D01*
X137617000Y-88472075D01*
X137617000Y-88311925D01*
X137648242Y-88154858D01*
X137709529Y-88006899D01*
X137798499Y-87873745D01*
X137911745Y-87760499D01*
X138044899Y-87671529D01*
X138192858Y-87610242D01*
X138349925Y-87579000D01*
X138510075Y-87579000D01*
X138667142Y-87610242D01*
X138667142Y-87610242D01*
G37*
G36*
X148827142Y-87610242D02*
G01*
X148975101Y-87671529D01*
X149108255Y-87760499D01*
X149221501Y-87873745D01*
X149310471Y-88006899D01*
X149371758Y-88154858D01*
X149403000Y-88311925D01*
X149403000Y-88472075D01*
X149371758Y-88629142D01*
X149310471Y-88777101D01*
X149221501Y-88910255D01*
X149108255Y-89023501D01*
X148975101Y-89112471D01*
X148827142Y-89173758D01*
X148670075Y-89205000D01*
X148509925Y-89205000D01*
X148352858Y-89173758D01*
X148204899Y-89112471D01*
X148071745Y-89023501D01*
X147958499Y-88910255D01*
X147869529Y-88777101D01*
X147808242Y-88629142D01*
X147777000Y-88472075D01*
X147777000Y-88311925D01*
X147808242Y-88154858D01*
X147869529Y-88006899D01*
X147958499Y-87873745D01*
X148071745Y-87760499D01*
X148204899Y-87671529D01*
X148352858Y-87610242D01*
X148509925Y-87579000D01*
X148670075Y-87579000D01*
X148827142Y-87610242D01*
X148827142Y-87610242D01*
G37*
G36*
X159222642Y-86744781D02*
G01*
X159368414Y-86805162D01*
X159368416Y-86805163D01*
X159499608Y-86892822D01*
X159611178Y-87004392D01*
X159638979Y-87046000D01*
X159698838Y-87135586D01*
X159759219Y-87281358D01*
X159790000Y-87436107D01*
X159790000Y-87593893D01*
X159759219Y-87748642D01*
X159707400Y-87873743D01*
X159698837Y-87894416D01*
X159611178Y-88025608D01*
X159499608Y-88137178D01*
X159368416Y-88224837D01*
X159368415Y-88224838D01*
X159368414Y-88224838D01*
X159222642Y-88285219D01*
X159067893Y-88316000D01*
X158910107Y-88316000D01*
X158755358Y-88285219D01*
X158609586Y-88224838D01*
X158609585Y-88224838D01*
X158609584Y-88224837D01*
X158478392Y-88137178D01*
X158366822Y-88025608D01*
X158279163Y-87894416D01*
X158270600Y-87873743D01*
X158218781Y-87748642D01*
X158188000Y-87593893D01*
X158188000Y-87436107D01*
X158218781Y-87281358D01*
X158279162Y-87135586D01*
X158339021Y-87046000D01*
X158366822Y-87004392D01*
X158478392Y-86892822D01*
X158609584Y-86805163D01*
X158609586Y-86805162D01*
X158755358Y-86744781D01*
X158910107Y-86714000D01*
X159067893Y-86714000D01*
X159222642Y-86744781D01*
X159222642Y-86744781D01*
G37*
G36*
X132246823Y-86029313D02*
G01*
X132407242Y-86077976D01*
X132539906Y-86148886D01*
X132555078Y-86156996D01*
X132684659Y-86263341D01*
X132791004Y-86392922D01*
X132791005Y-86392924D01*
X132870024Y-86540758D01*
X132870025Y-86540761D01*
X132879083Y-86570620D01*
X132918687Y-86701177D01*
X132935117Y-86868000D01*
X132918687Y-87034823D01*
X132870024Y-87195242D01*
X132823994Y-87281358D01*
X132791004Y-87343078D01*
X132684659Y-87472659D01*
X132555078Y-87579004D01*
X132555076Y-87579005D01*
X132407242Y-87658024D01*
X132246823Y-87706687D01*
X132121804Y-87719000D01*
X132038196Y-87719000D01*
X131913177Y-87706687D01*
X131752758Y-87658024D01*
X131604924Y-87579005D01*
X131604922Y-87579004D01*
X131475341Y-87472659D01*
X131368996Y-87343078D01*
X131336006Y-87281358D01*
X131289976Y-87195242D01*
X131241313Y-87034823D01*
X131224883Y-86868000D01*
X131241313Y-86701177D01*
X131280917Y-86570620D01*
X131289975Y-86540761D01*
X131289976Y-86540758D01*
X131368995Y-86392924D01*
X131368996Y-86392922D01*
X131475341Y-86263341D01*
X131604922Y-86156996D01*
X131620094Y-86148886D01*
X131752758Y-86077976D01*
X131913177Y-86029313D01*
X132038196Y-86017000D01*
X132121804Y-86017000D01*
X132246823Y-86029313D01*
X132246823Y-86029313D01*
G37*
G36*
X117006823Y-86029313D02*
G01*
X117167242Y-86077976D01*
X117299906Y-86148886D01*
X117315078Y-86156996D01*
X117444659Y-86263341D01*
X117551004Y-86392922D01*
X117551005Y-86392924D01*
X117630024Y-86540758D01*
X117630025Y-86540761D01*
X117639083Y-86570620D01*
X117678687Y-86701177D01*
X117695117Y-86868000D01*
X117678687Y-87034823D01*
X117630024Y-87195242D01*
X117583994Y-87281358D01*
X117551004Y-87343078D01*
X117444659Y-87472659D01*
X117315078Y-87579004D01*
X117315076Y-87579005D01*
X117167242Y-87658024D01*
X117006823Y-87706687D01*
X116881804Y-87719000D01*
X116798196Y-87719000D01*
X116673177Y-87706687D01*
X116512758Y-87658024D01*
X116364924Y-87579005D01*
X116364922Y-87579004D01*
X116235341Y-87472659D01*
X116128996Y-87343078D01*
X116096006Y-87281358D01*
X116049976Y-87195242D01*
X116001313Y-87034823D01*
X115984883Y-86868000D01*
X116001313Y-86701177D01*
X116040917Y-86570620D01*
X116049975Y-86540761D01*
X116049976Y-86540758D01*
X116128995Y-86392924D01*
X116128996Y-86392922D01*
X116235341Y-86263341D01*
X116364922Y-86156996D01*
X116380094Y-86148886D01*
X116512758Y-86077976D01*
X116673177Y-86029313D01*
X116798196Y-86017000D01*
X116881804Y-86017000D01*
X117006823Y-86029313D01*
X117006823Y-86029313D01*
G37*
G36*
X156682642Y-85474781D02*
G01*
X156828414Y-85535162D01*
X156828416Y-85535163D01*
X156959608Y-85622822D01*
X157071178Y-85734392D01*
X157096257Y-85771926D01*
X157158838Y-85865586D01*
X157219219Y-86011358D01*
X157250000Y-86166107D01*
X157250000Y-86323893D01*
X157219219Y-86478642D01*
X157158838Y-86624414D01*
X157158837Y-86624416D01*
X157071178Y-86755608D01*
X156959608Y-86867178D01*
X156828416Y-86954837D01*
X156828415Y-86954838D01*
X156828414Y-86954838D01*
X156682642Y-87015219D01*
X156527893Y-87046000D01*
X156370107Y-87046000D01*
X156215358Y-87015219D01*
X156069586Y-86954838D01*
X156069585Y-86954838D01*
X156069584Y-86954837D01*
X155938392Y-86867178D01*
X155826822Y-86755608D01*
X155739163Y-86624416D01*
X155739162Y-86624414D01*
X155678781Y-86478642D01*
X155648000Y-86323893D01*
X155648000Y-86166107D01*
X155678781Y-86011358D01*
X155739162Y-85865586D01*
X155801743Y-85771926D01*
X155826822Y-85734392D01*
X155938392Y-85622822D01*
X156069584Y-85535163D01*
X156069586Y-85535162D01*
X156215358Y-85474781D01*
X156370107Y-85444000D01*
X156527893Y-85444000D01*
X156682642Y-85474781D01*
X156682642Y-85474781D01*
G37*
G36*
X148827142Y-85070242D02*
G01*
X148975101Y-85131529D01*
X149108255Y-85220499D01*
X149221501Y-85333745D01*
X149310471Y-85466899D01*
X149371758Y-85614858D01*
X149403000Y-85771925D01*
X149403000Y-85932075D01*
X149371758Y-86089142D01*
X149310471Y-86237101D01*
X149221501Y-86370255D01*
X149108255Y-86483501D01*
X148975101Y-86572471D01*
X148827142Y-86633758D01*
X148670075Y-86665000D01*
X148509925Y-86665000D01*
X148352858Y-86633758D01*
X148204899Y-86572471D01*
X148071745Y-86483501D01*
X147958499Y-86370255D01*
X147869529Y-86237101D01*
X147808242Y-86089142D01*
X147777000Y-85932075D01*
X147777000Y-85771925D01*
X147808242Y-85614858D01*
X147869529Y-85466899D01*
X147958499Y-85333745D01*
X148071745Y-85220499D01*
X148204899Y-85131529D01*
X148352858Y-85070242D01*
X148509925Y-85039000D01*
X148670075Y-85039000D01*
X148827142Y-85070242D01*
X148827142Y-85070242D01*
G37*
G36*
X138667142Y-85070242D02*
G01*
X138815101Y-85131529D01*
X138948255Y-85220499D01*
X139061501Y-85333745D01*
X139150471Y-85466899D01*
X139211758Y-85614858D01*
X139243000Y-85771925D01*
X139243000Y-85932075D01*
X139211758Y-86089142D01*
X139150471Y-86237101D01*
X139061501Y-86370255D01*
X138948255Y-86483501D01*
X138815101Y-86572471D01*
X138667142Y-86633758D01*
X138510075Y-86665000D01*
X138349925Y-86665000D01*
X138192858Y-86633758D01*
X138044899Y-86572471D01*
X137911745Y-86483501D01*
X137798499Y-86370255D01*
X137709529Y-86237101D01*
X137648242Y-86089142D01*
X137617000Y-85932075D01*
X137617000Y-85771925D01*
X137648242Y-85614858D01*
X137709529Y-85466899D01*
X137798499Y-85333745D01*
X137911745Y-85220499D01*
X138044899Y-85131529D01*
X138192858Y-85070242D01*
X138349925Y-85039000D01*
X138510075Y-85039000D01*
X138667142Y-85070242D01*
X138667142Y-85070242D01*
G37*
G36*
X165714256Y-83366298D02*
G01*
X165820579Y-83387447D01*
X166033037Y-83475450D01*
X166066508Y-83489314D01*
X166121042Y-83511903D01*
X166391451Y-83692585D01*
X166621415Y-83922549D01*
X166802097Y-84192958D01*
X166802098Y-84192960D01*
X166926553Y-84493422D01*
X166990000Y-84812389D01*
X166990000Y-85137611D01*
X166984216Y-85166687D01*
X166926553Y-85456579D01*
X166802097Y-85757042D01*
X166621415Y-86027451D01*
X166391451Y-86257415D01*
X166121042Y-86438097D01*
X165820579Y-86562553D01*
X165714256Y-86583702D01*
X165501611Y-86626000D01*
X165176389Y-86626000D01*
X164963744Y-86583702D01*
X164857421Y-86562553D01*
X164556958Y-86438097D01*
X164286549Y-86257415D01*
X164056585Y-86027451D01*
X163875903Y-85757042D01*
X163751447Y-85456579D01*
X163693784Y-85166687D01*
X163688000Y-85137611D01*
X163688000Y-84812389D01*
X163751447Y-84493422D01*
X163875902Y-84192960D01*
X163875903Y-84192958D01*
X164056585Y-83922549D01*
X164286549Y-83692585D01*
X164556958Y-83511903D01*
X164611493Y-83489314D01*
X164644963Y-83475450D01*
X164857421Y-83387447D01*
X164963744Y-83366298D01*
X165176389Y-83324000D01*
X165501611Y-83324000D01*
X165714256Y-83366298D01*
X165714256Y-83366298D01*
G37*
G36*
X117006823Y-83489313D02*
G01*
X117167242Y-83537976D01*
X117299906Y-83608886D01*
X117315078Y-83616996D01*
X117444659Y-83723341D01*
X117551004Y-83852922D01*
X117551005Y-83852924D01*
X117630024Y-84000758D01*
X117678687Y-84161177D01*
X117695117Y-84328000D01*
X117678687Y-84494823D01*
X117630024Y-84655242D01*
X117559114Y-84787906D01*
X117551004Y-84803078D01*
X117444659Y-84932659D01*
X117315078Y-85039004D01*
X117315076Y-85039005D01*
X117167242Y-85118024D01*
X117006823Y-85166687D01*
X116881804Y-85179000D01*
X116798196Y-85179000D01*
X116673177Y-85166687D01*
X116512758Y-85118024D01*
X116364924Y-85039005D01*
X116364922Y-85039004D01*
X116235341Y-84932659D01*
X116128996Y-84803078D01*
X116120886Y-84787906D01*
X116049976Y-84655242D01*
X116001313Y-84494823D01*
X115984883Y-84328000D01*
X116001313Y-84161177D01*
X116049976Y-84000758D01*
X116128995Y-83852924D01*
X116128996Y-83852922D01*
X116235341Y-83723341D01*
X116364922Y-83616996D01*
X116380094Y-83608886D01*
X116512758Y-83537976D01*
X116673177Y-83489313D01*
X116798196Y-83477000D01*
X116881804Y-83477000D01*
X117006823Y-83489313D01*
X117006823Y-83489313D01*
G37*
G36*
X132246823Y-83489313D02*
G01*
X132407242Y-83537976D01*
X132539906Y-83608886D01*
X132555078Y-83616996D01*
X132684659Y-83723341D01*
X132791004Y-83852922D01*
X132791005Y-83852924D01*
X132870024Y-84000758D01*
X132918687Y-84161177D01*
X132935117Y-84328000D01*
X132918687Y-84494823D01*
X132870024Y-84655242D01*
X132799114Y-84787906D01*
X132791004Y-84803078D01*
X132684659Y-84932659D01*
X132555078Y-85039004D01*
X132555076Y-85039005D01*
X132407242Y-85118024D01*
X132246823Y-85166687D01*
X132121804Y-85179000D01*
X132038196Y-85179000D01*
X131913177Y-85166687D01*
X131752758Y-85118024D01*
X131604924Y-85039005D01*
X131604922Y-85039004D01*
X131475341Y-84932659D01*
X131368996Y-84803078D01*
X131360886Y-84787906D01*
X131289976Y-84655242D01*
X131241313Y-84494823D01*
X131224883Y-84328000D01*
X131241313Y-84161177D01*
X131289976Y-84000758D01*
X131368995Y-83852924D01*
X131368996Y-83852922D01*
X131475341Y-83723341D01*
X131604922Y-83616996D01*
X131620094Y-83608886D01*
X131752758Y-83537976D01*
X131913177Y-83489313D01*
X132038196Y-83477000D01*
X132121804Y-83477000D01*
X132246823Y-83489313D01*
X132246823Y-83489313D01*
G37*
G36*
X148827142Y-82530242D02*
G01*
X148975101Y-82591529D01*
X149108255Y-82680499D01*
X149221501Y-82793745D01*
X149310471Y-82926899D01*
X149371758Y-83074858D01*
X149403000Y-83231925D01*
X149403000Y-83392075D01*
X149371758Y-83549142D01*
X149310471Y-83697101D01*
X149221501Y-83830255D01*
X149108255Y-83943501D01*
X148975101Y-84032471D01*
X148827142Y-84093758D01*
X148670075Y-84125000D01*
X148509925Y-84125000D01*
X148352858Y-84093758D01*
X148204899Y-84032471D01*
X148071745Y-83943501D01*
X147958499Y-83830255D01*
X147869529Y-83697101D01*
X147808242Y-83549142D01*
X147777000Y-83392075D01*
X147777000Y-83231925D01*
X147808242Y-83074858D01*
X147869529Y-82926899D01*
X147958499Y-82793745D01*
X148071745Y-82680499D01*
X148204899Y-82591529D01*
X148352858Y-82530242D01*
X148509925Y-82499000D01*
X148670075Y-82499000D01*
X148827142Y-82530242D01*
X148827142Y-82530242D01*
G37*
G36*
X138667142Y-82530242D02*
G01*
X138815101Y-82591529D01*
X138948255Y-82680499D01*
X139061501Y-82793745D01*
X139150471Y-82926899D01*
X139211758Y-83074858D01*
X139243000Y-83231925D01*
X139243000Y-83392075D01*
X139211758Y-83549142D01*
X139150471Y-83697101D01*
X139061501Y-83830255D01*
X138948255Y-83943501D01*
X138815101Y-84032471D01*
X138667142Y-84093758D01*
X138510075Y-84125000D01*
X138349925Y-84125000D01*
X138192858Y-84093758D01*
X138044899Y-84032471D01*
X137911745Y-83943501D01*
X137798499Y-83830255D01*
X137709529Y-83697101D01*
X137648242Y-83549142D01*
X137617000Y-83392075D01*
X137617000Y-83231925D01*
X137648242Y-83074858D01*
X137709529Y-82926899D01*
X137798499Y-82793745D01*
X137911745Y-82680499D01*
X138044899Y-82591529D01*
X138192858Y-82530242D01*
X138349925Y-82499000D01*
X138510075Y-82499000D01*
X138667142Y-82530242D01*
X138667142Y-82530242D01*
G37*
G36*
X117006823Y-80949313D02*
G01*
X117167242Y-80997976D01*
X117299906Y-81068886D01*
X117315078Y-81076996D01*
X117444659Y-81183341D01*
X117551004Y-81312922D01*
X117551005Y-81312924D01*
X117630024Y-81460758D01*
X117678687Y-81621177D01*
X117695117Y-81788000D01*
X117678687Y-81954823D01*
X117630024Y-82115242D01*
X117559114Y-82247906D01*
X117551004Y-82263078D01*
X117444659Y-82392659D01*
X117315078Y-82499004D01*
X117315076Y-82499005D01*
X117167242Y-82578024D01*
X117006823Y-82626687D01*
X116881804Y-82639000D01*
X116798196Y-82639000D01*
X116673177Y-82626687D01*
X116512758Y-82578024D01*
X116364924Y-82499005D01*
X116364922Y-82499004D01*
X116235341Y-82392659D01*
X116128996Y-82263078D01*
X116120886Y-82247906D01*
X116049976Y-82115242D01*
X116001313Y-81954823D01*
X115984883Y-81788000D01*
X116001313Y-81621177D01*
X116049976Y-81460758D01*
X116128995Y-81312924D01*
X116128996Y-81312922D01*
X116235341Y-81183341D01*
X116364922Y-81076996D01*
X116380094Y-81068886D01*
X116512758Y-80997976D01*
X116673177Y-80949313D01*
X116798196Y-80937000D01*
X116881804Y-80937000D01*
X117006823Y-80949313D01*
X117006823Y-80949313D01*
G37*
G36*
X132246823Y-80949313D02*
G01*
X132407242Y-80997976D01*
X132539906Y-81068886D01*
X132555078Y-81076996D01*
X132684659Y-81183341D01*
X132791004Y-81312922D01*
X132791005Y-81312924D01*
X132870024Y-81460758D01*
X132918687Y-81621177D01*
X132935117Y-81788000D01*
X132918687Y-81954823D01*
X132870024Y-82115242D01*
X132799114Y-82247906D01*
X132791004Y-82263078D01*
X132684659Y-82392659D01*
X132555078Y-82499004D01*
X132555076Y-82499005D01*
X132407242Y-82578024D01*
X132246823Y-82626687D01*
X132121804Y-82639000D01*
X132038196Y-82639000D01*
X131913177Y-82626687D01*
X131752758Y-82578024D01*
X131604924Y-82499005D01*
X131604922Y-82499004D01*
X131475341Y-82392659D01*
X131368996Y-82263078D01*
X131360886Y-82247906D01*
X131289976Y-82115242D01*
X131241313Y-81954823D01*
X131224883Y-81788000D01*
X131241313Y-81621177D01*
X131289976Y-81460758D01*
X131368995Y-81312924D01*
X131368996Y-81312922D01*
X131475341Y-81183341D01*
X131604922Y-81076996D01*
X131620094Y-81068886D01*
X131752758Y-80997976D01*
X131913177Y-80949313D01*
X132038196Y-80937000D01*
X132121804Y-80937000D01*
X132246823Y-80949313D01*
X132246823Y-80949313D01*
G37*
G36*
X138667142Y-79990242D02*
G01*
X138815101Y-80051529D01*
X138948255Y-80140499D01*
X139061501Y-80253745D01*
X139150471Y-80386899D01*
X139211758Y-80534858D01*
X139243000Y-80691925D01*
X139243000Y-80852075D01*
X139211758Y-81009142D01*
X139150471Y-81157101D01*
X139061501Y-81290255D01*
X138948255Y-81403501D01*
X138815101Y-81492471D01*
X138667142Y-81553758D01*
X138510075Y-81585000D01*
X138349925Y-81585000D01*
X138192858Y-81553758D01*
X138044899Y-81492471D01*
X137911745Y-81403501D01*
X137798499Y-81290255D01*
X137709529Y-81157101D01*
X137648242Y-81009142D01*
X137617000Y-80852075D01*
X137617000Y-80691925D01*
X137648242Y-80534858D01*
X137709529Y-80386899D01*
X137798499Y-80253745D01*
X137911745Y-80140499D01*
X138044899Y-80051529D01*
X138192858Y-79990242D01*
X138349925Y-79959000D01*
X138510075Y-79959000D01*
X138667142Y-79990242D01*
X138667142Y-79990242D01*
G37*
G36*
X148827142Y-79990242D02*
G01*
X148975101Y-80051529D01*
X149108255Y-80140499D01*
X149221501Y-80253745D01*
X149310471Y-80386899D01*
X149371758Y-80534858D01*
X149403000Y-80691925D01*
X149403000Y-80852075D01*
X149371758Y-81009142D01*
X149310471Y-81157101D01*
X149221501Y-81290255D01*
X149108255Y-81403501D01*
X148975101Y-81492471D01*
X148827142Y-81553758D01*
X148670075Y-81585000D01*
X148509925Y-81585000D01*
X148352858Y-81553758D01*
X148204899Y-81492471D01*
X148071745Y-81403501D01*
X147958499Y-81290255D01*
X147869529Y-81157101D01*
X147808242Y-81009142D01*
X147777000Y-80852075D01*
X147777000Y-80691925D01*
X147808242Y-80534858D01*
X147869529Y-80386899D01*
X147958499Y-80253745D01*
X148071745Y-80140499D01*
X148204899Y-80051529D01*
X148352858Y-79990242D01*
X148509925Y-79959000D01*
X148670075Y-79959000D01*
X148827142Y-79990242D01*
X148827142Y-79990242D01*
G37*
G36*
X117006823Y-78409313D02*
G01*
X117167242Y-78457976D01*
X117257163Y-78506040D01*
X117315078Y-78536996D01*
X117444659Y-78643341D01*
X117551004Y-78772922D01*
X117551005Y-78772924D01*
X117630024Y-78920758D01*
X117678687Y-79081177D01*
X117695117Y-79248000D01*
X117678687Y-79414823D01*
X117630024Y-79575242D01*
X117559114Y-79707906D01*
X117551004Y-79723078D01*
X117444659Y-79852659D01*
X117315078Y-79959004D01*
X117315076Y-79959005D01*
X117167242Y-80038024D01*
X117006823Y-80086687D01*
X116881804Y-80099000D01*
X116798196Y-80099000D01*
X116673177Y-80086687D01*
X116512758Y-80038024D01*
X116364924Y-79959005D01*
X116364922Y-79959004D01*
X116235341Y-79852659D01*
X116128996Y-79723078D01*
X116120886Y-79707906D01*
X116049976Y-79575242D01*
X116001313Y-79414823D01*
X115984883Y-79248000D01*
X116001313Y-79081177D01*
X116049976Y-78920758D01*
X116128995Y-78772924D01*
X116128996Y-78772922D01*
X116235341Y-78643341D01*
X116364922Y-78536996D01*
X116422837Y-78506040D01*
X116512758Y-78457976D01*
X116673177Y-78409313D01*
X116798196Y-78397000D01*
X116881804Y-78397000D01*
X117006823Y-78409313D01*
X117006823Y-78409313D01*
G37*
G36*
X132246823Y-78409313D02*
G01*
X132407242Y-78457976D01*
X132497163Y-78506040D01*
X132555078Y-78536996D01*
X132684659Y-78643341D01*
X132791004Y-78772922D01*
X132791005Y-78772924D01*
X132870024Y-78920758D01*
X132918687Y-79081177D01*
X132935117Y-79248000D01*
X132918687Y-79414823D01*
X132870024Y-79575242D01*
X132799114Y-79707906D01*
X132791004Y-79723078D01*
X132684659Y-79852659D01*
X132555078Y-79959004D01*
X132555076Y-79959005D01*
X132407242Y-80038024D01*
X132246823Y-80086687D01*
X132121804Y-80099000D01*
X132038196Y-80099000D01*
X131913177Y-80086687D01*
X131752758Y-80038024D01*
X131604924Y-79959005D01*
X131604922Y-79959004D01*
X131475341Y-79852659D01*
X131368996Y-79723078D01*
X131360886Y-79707906D01*
X131289976Y-79575242D01*
X131241313Y-79414823D01*
X131224883Y-79248000D01*
X131241313Y-79081177D01*
X131289976Y-78920758D01*
X131368995Y-78772924D01*
X131368996Y-78772922D01*
X131475341Y-78643341D01*
X131604922Y-78536996D01*
X131662837Y-78506040D01*
X131752758Y-78457976D01*
X131913177Y-78409313D01*
X132038196Y-78397000D01*
X132121804Y-78397000D01*
X132246823Y-78409313D01*
X132246823Y-78409313D01*
G37*
G36*
X165669144Y-76103341D02*
G01*
X165835579Y-76136447D01*
X166136042Y-76260903D01*
X166406451Y-76441585D01*
X166636415Y-76671549D01*
X166772240Y-76874825D01*
X166817098Y-76941960D01*
X166941553Y-77242422D01*
X167004525Y-77559000D01*
X167005000Y-77561391D01*
X167005000Y-77886609D01*
X166941553Y-78205579D01*
X166817097Y-78506042D01*
X166636415Y-78776451D01*
X166406451Y-79006415D01*
X166136042Y-79187097D01*
X165835579Y-79311553D01*
X165729256Y-79332702D01*
X165516611Y-79375000D01*
X165191389Y-79375000D01*
X164978744Y-79332702D01*
X164872421Y-79311553D01*
X164571958Y-79187097D01*
X164301549Y-79006415D01*
X164071585Y-78776451D01*
X163890903Y-78506042D01*
X163766447Y-78205579D01*
X163703000Y-77886609D01*
X163703000Y-77561391D01*
X163703476Y-77559000D01*
X163766447Y-77242422D01*
X163890902Y-76941960D01*
X163935760Y-76874825D01*
X164071585Y-76671549D01*
X164301549Y-76441585D01*
X164571958Y-76260903D01*
X164872421Y-76136447D01*
X165038856Y-76103341D01*
X165191389Y-76073000D01*
X165516611Y-76073000D01*
X165669144Y-76103341D01*
X165669144Y-76103341D01*
G37*
G36*
X117006823Y-75869313D02*
G01*
X117167242Y-75917976D01*
X117292635Y-75985000D01*
X117315078Y-75996996D01*
X117444659Y-76103341D01*
X117551004Y-76232922D01*
X117551005Y-76232924D01*
X117630024Y-76380758D01*
X117678687Y-76541177D01*
X117695117Y-76708000D01*
X117678687Y-76874823D01*
X117630024Y-77035242D01*
X117559114Y-77167906D01*
X117551004Y-77183078D01*
X117444659Y-77312659D01*
X117315078Y-77419004D01*
X117315076Y-77419005D01*
X117167242Y-77498024D01*
X117006823Y-77546687D01*
X116881804Y-77559000D01*
X116798196Y-77559000D01*
X116673177Y-77546687D01*
X116512758Y-77498024D01*
X116364924Y-77419005D01*
X116364922Y-77419004D01*
X116235341Y-77312659D01*
X116128996Y-77183078D01*
X116120886Y-77167906D01*
X116049976Y-77035242D01*
X116001313Y-76874823D01*
X115984883Y-76708000D01*
X116001313Y-76541177D01*
X116049976Y-76380758D01*
X116128995Y-76232924D01*
X116128996Y-76232922D01*
X116235341Y-76103341D01*
X116364922Y-75996996D01*
X116387365Y-75985000D01*
X116512758Y-75917976D01*
X116673177Y-75869313D01*
X116798196Y-75857000D01*
X116881804Y-75857000D01*
X117006823Y-75869313D01*
X117006823Y-75869313D01*
G37*
G36*
X132246823Y-75869313D02*
G01*
X132407242Y-75917976D01*
X132532635Y-75985000D01*
X132555078Y-75996996D01*
X132684659Y-76103341D01*
X132791004Y-76232922D01*
X132791005Y-76232924D01*
X132870024Y-76380758D01*
X132918687Y-76541177D01*
X132935117Y-76708000D01*
X132918687Y-76874823D01*
X132870024Y-77035242D01*
X132799114Y-77167906D01*
X132791004Y-77183078D01*
X132684659Y-77312659D01*
X132555078Y-77419004D01*
X132555076Y-77419005D01*
X132407242Y-77498024D01*
X132246823Y-77546687D01*
X132121804Y-77559000D01*
X132038196Y-77559000D01*
X131913177Y-77546687D01*
X131752758Y-77498024D01*
X131604924Y-77419005D01*
X131604922Y-77419004D01*
X131475341Y-77312659D01*
X131368996Y-77183078D01*
X131360886Y-77167906D01*
X131289976Y-77035242D01*
X131241313Y-76874823D01*
X131224883Y-76708000D01*
X131241313Y-76541177D01*
X131289976Y-76380758D01*
X131368995Y-76232924D01*
X131368996Y-76232922D01*
X131475341Y-76103341D01*
X131604922Y-75996996D01*
X131627365Y-75985000D01*
X131752758Y-75917976D01*
X131913177Y-75869313D01*
X132038196Y-75857000D01*
X132121804Y-75857000D01*
X132246823Y-75869313D01*
X132246823Y-75869313D01*
G37*
G36*
X159805000Y-77255000D02*
G01*
X158203000Y-77255000D01*
X158203000Y-75653000D01*
X159805000Y-75653000D01*
X159805000Y-77255000D01*
X159805000Y-77255000D01*
G37*
G36*
X156697642Y-74413781D02*
G01*
X156843414Y-74474162D01*
X156843416Y-74474163D01*
X156974608Y-74561822D01*
X157086178Y-74673392D01*
X157173837Y-74804584D01*
X157173838Y-74804586D01*
X157234219Y-74950358D01*
X157265000Y-75105107D01*
X157265000Y-75262893D01*
X157234219Y-75417642D01*
X157173838Y-75563414D01*
X157173837Y-75563416D01*
X157086178Y-75694608D01*
X156974608Y-75806178D01*
X156843416Y-75893837D01*
X156843415Y-75893838D01*
X156843414Y-75893838D01*
X156697642Y-75954219D01*
X156542893Y-75985000D01*
X156385107Y-75985000D01*
X156230358Y-75954219D01*
X156084586Y-75893838D01*
X156084585Y-75893838D01*
X156084584Y-75893837D01*
X155953392Y-75806178D01*
X155841822Y-75694608D01*
X155754163Y-75563416D01*
X155754162Y-75563414D01*
X155693781Y-75417642D01*
X155663000Y-75262893D01*
X155663000Y-75105107D01*
X155693781Y-74950358D01*
X155754162Y-74804586D01*
X155754163Y-74804584D01*
X155841822Y-74673392D01*
X155953392Y-74561822D01*
X156084584Y-74474163D01*
X156084586Y-74474162D01*
X156230358Y-74413781D01*
X156385107Y-74383000D01*
X156542893Y-74383000D01*
X156697642Y-74413781D01*
X156697642Y-74413781D01*
G37*
G36*
X117006823Y-73329313D02*
G01*
X117167242Y-73377976D01*
X117292635Y-73445000D01*
X117315078Y-73456996D01*
X117444659Y-73563341D01*
X117551004Y-73692922D01*
X117551005Y-73692924D01*
X117630024Y-73840758D01*
X117678687Y-74001177D01*
X117695117Y-74168000D01*
X117678687Y-74334823D01*
X117630024Y-74495242D01*
X117608143Y-74536178D01*
X117551004Y-74643078D01*
X117444659Y-74772659D01*
X117315078Y-74879004D01*
X117315076Y-74879005D01*
X117167242Y-74958024D01*
X117006823Y-75006687D01*
X116881804Y-75019000D01*
X116798196Y-75019000D01*
X116673177Y-75006687D01*
X116512758Y-74958024D01*
X116364924Y-74879005D01*
X116364922Y-74879004D01*
X116235341Y-74772659D01*
X116128996Y-74643078D01*
X116071857Y-74536178D01*
X116049976Y-74495242D01*
X116001313Y-74334823D01*
X115984883Y-74168000D01*
X116001313Y-74001177D01*
X116049976Y-73840758D01*
X116128995Y-73692924D01*
X116128996Y-73692922D01*
X116235341Y-73563341D01*
X116364922Y-73456996D01*
X116387365Y-73445000D01*
X116512758Y-73377976D01*
X116673177Y-73329313D01*
X116798196Y-73317000D01*
X116881804Y-73317000D01*
X117006823Y-73329313D01*
X117006823Y-73329313D01*
G37*
G36*
X132246823Y-73329313D02*
G01*
X132407242Y-73377976D01*
X132532635Y-73445000D01*
X132555078Y-73456996D01*
X132684659Y-73563341D01*
X132791004Y-73692922D01*
X132791005Y-73692924D01*
X132870024Y-73840758D01*
X132918687Y-74001177D01*
X132935117Y-74168000D01*
X132918687Y-74334823D01*
X132870024Y-74495242D01*
X132848143Y-74536178D01*
X132791004Y-74643078D01*
X132684659Y-74772659D01*
X132555078Y-74879004D01*
X132555076Y-74879005D01*
X132407242Y-74958024D01*
X132246823Y-75006687D01*
X132121804Y-75019000D01*
X132038196Y-75019000D01*
X131913177Y-75006687D01*
X131752758Y-74958024D01*
X131604924Y-74879005D01*
X131604922Y-74879004D01*
X131475341Y-74772659D01*
X131368996Y-74643078D01*
X131311857Y-74536178D01*
X131289976Y-74495242D01*
X131241313Y-74334823D01*
X131224883Y-74168000D01*
X131241313Y-74001177D01*
X131289976Y-73840758D01*
X131368995Y-73692924D01*
X131368996Y-73692922D01*
X131475341Y-73563341D01*
X131604922Y-73456996D01*
X131627365Y-73445000D01*
X131752758Y-73377976D01*
X131913177Y-73329313D01*
X132038196Y-73317000D01*
X132121804Y-73317000D01*
X132246823Y-73329313D01*
X132246823Y-73329313D01*
G37*
G36*
X159237642Y-73143781D02*
G01*
X159383414Y-73204162D01*
X159383416Y-73204163D01*
X159514608Y-73291822D01*
X159626178Y-73403392D01*
X159713837Y-73534584D01*
X159713838Y-73534586D01*
X159774219Y-73680358D01*
X159805000Y-73835107D01*
X159805000Y-73992893D01*
X159774219Y-74147642D01*
X159765786Y-74168000D01*
X159713837Y-74293416D01*
X159626178Y-74424608D01*
X159514608Y-74536178D01*
X159383416Y-74623837D01*
X159383415Y-74623838D01*
X159383414Y-74623838D01*
X159237642Y-74684219D01*
X159082893Y-74715000D01*
X158925107Y-74715000D01*
X158770358Y-74684219D01*
X158624586Y-74623838D01*
X158624585Y-74623838D01*
X158624584Y-74623837D01*
X158493392Y-74536178D01*
X158381822Y-74424608D01*
X158294163Y-74293416D01*
X158242214Y-74168000D01*
X158233781Y-74147642D01*
X158203000Y-73992893D01*
X158203000Y-73835107D01*
X158233781Y-73680358D01*
X158294162Y-73534586D01*
X158294163Y-73534584D01*
X158381822Y-73403392D01*
X158493392Y-73291822D01*
X158624584Y-73204163D01*
X158624586Y-73204162D01*
X158770358Y-73143781D01*
X158925107Y-73113000D01*
X159082893Y-73113000D01*
X159237642Y-73143781D01*
X159237642Y-73143781D01*
G37*
G36*
X156697642Y-71873781D02*
G01*
X156843414Y-71934162D01*
X156843416Y-71934163D01*
X156974608Y-72021822D01*
X157086178Y-72133392D01*
X157173837Y-72264584D01*
X157173838Y-72264586D01*
X157234219Y-72410358D01*
X157265000Y-72565107D01*
X157265000Y-72722893D01*
X157234219Y-72877642D01*
X157173838Y-73023414D01*
X157173837Y-73023416D01*
X157086178Y-73154608D01*
X156974608Y-73266178D01*
X156843416Y-73353837D01*
X156843415Y-73353838D01*
X156843414Y-73353838D01*
X156697642Y-73414219D01*
X156542893Y-73445000D01*
X156385107Y-73445000D01*
X156230358Y-73414219D01*
X156084586Y-73353838D01*
X156084585Y-73353838D01*
X156084584Y-73353837D01*
X155953392Y-73266178D01*
X155841822Y-73154608D01*
X155754163Y-73023416D01*
X155754162Y-73023414D01*
X155693781Y-72877642D01*
X155663000Y-72722893D01*
X155663000Y-72565107D01*
X155693781Y-72410358D01*
X155754162Y-72264586D01*
X155754163Y-72264584D01*
X155841822Y-72133392D01*
X155953392Y-72021822D01*
X156084584Y-71934163D01*
X156084586Y-71934162D01*
X156230358Y-71873781D01*
X156385107Y-71843000D01*
X156542893Y-71843000D01*
X156697642Y-71873781D01*
X156697642Y-71873781D01*
G37*
G36*
X117006823Y-70789313D02*
G01*
X117167242Y-70837976D01*
X117292635Y-70905000D01*
X117315078Y-70916996D01*
X117444659Y-71023341D01*
X117551004Y-71152922D01*
X117551005Y-71152924D01*
X117630024Y-71300758D01*
X117678687Y-71461177D01*
X117695117Y-71628000D01*
X117678687Y-71794823D01*
X117630024Y-71955242D01*
X117608143Y-71996178D01*
X117551004Y-72103078D01*
X117444659Y-72232659D01*
X117315078Y-72339004D01*
X117315076Y-72339005D01*
X117167242Y-72418024D01*
X117006823Y-72466687D01*
X116881804Y-72479000D01*
X116798196Y-72479000D01*
X116673177Y-72466687D01*
X116512758Y-72418024D01*
X116364924Y-72339005D01*
X116364922Y-72339004D01*
X116235341Y-72232659D01*
X116128996Y-72103078D01*
X116071857Y-71996178D01*
X116049976Y-71955242D01*
X116001313Y-71794823D01*
X115984883Y-71628000D01*
X116001313Y-71461177D01*
X116049976Y-71300758D01*
X116128995Y-71152924D01*
X116128996Y-71152922D01*
X116235341Y-71023341D01*
X116364922Y-70916996D01*
X116387365Y-70905000D01*
X116512758Y-70837976D01*
X116673177Y-70789313D01*
X116798196Y-70777000D01*
X116881804Y-70777000D01*
X117006823Y-70789313D01*
X117006823Y-70789313D01*
G37*
G36*
X132246823Y-70789313D02*
G01*
X132407242Y-70837976D01*
X132532635Y-70905000D01*
X132555078Y-70916996D01*
X132684659Y-71023341D01*
X132791004Y-71152922D01*
X132791005Y-71152924D01*
X132870024Y-71300758D01*
X132918687Y-71461177D01*
X132935117Y-71628000D01*
X132918687Y-71794823D01*
X132870024Y-71955242D01*
X132848143Y-71996178D01*
X132791004Y-72103078D01*
X132684659Y-72232659D01*
X132555078Y-72339004D01*
X132555076Y-72339005D01*
X132407242Y-72418024D01*
X132246823Y-72466687D01*
X132121804Y-72479000D01*
X132038196Y-72479000D01*
X131913177Y-72466687D01*
X131752758Y-72418024D01*
X131604924Y-72339005D01*
X131604922Y-72339004D01*
X131475341Y-72232659D01*
X131368996Y-72103078D01*
X131311857Y-71996178D01*
X131289976Y-71955242D01*
X131241313Y-71794823D01*
X131224883Y-71628000D01*
X131241313Y-71461177D01*
X131289976Y-71300758D01*
X131368995Y-71152924D01*
X131368996Y-71152922D01*
X131475341Y-71023341D01*
X131604922Y-70916996D01*
X131627365Y-70905000D01*
X131752758Y-70837976D01*
X131913177Y-70789313D01*
X132038196Y-70777000D01*
X132121804Y-70777000D01*
X132246823Y-70789313D01*
X132246823Y-70789313D01*
G37*
G36*
X159237642Y-70603781D02*
G01*
X159383414Y-70664162D01*
X159383416Y-70664163D01*
X159514608Y-70751822D01*
X159626178Y-70863392D01*
X159713837Y-70994584D01*
X159713838Y-70994586D01*
X159774219Y-71140358D01*
X159805000Y-71295107D01*
X159805000Y-71452893D01*
X159774219Y-71607642D01*
X159765786Y-71628000D01*
X159713837Y-71753416D01*
X159626178Y-71884608D01*
X159514608Y-71996178D01*
X159383416Y-72083837D01*
X159383415Y-72083838D01*
X159383414Y-72083838D01*
X159237642Y-72144219D01*
X159082893Y-72175000D01*
X158925107Y-72175000D01*
X158770358Y-72144219D01*
X158624586Y-72083838D01*
X158624585Y-72083838D01*
X158624584Y-72083837D01*
X158493392Y-71996178D01*
X158381822Y-71884608D01*
X158294163Y-71753416D01*
X158242214Y-71628000D01*
X158233781Y-71607642D01*
X158203000Y-71452893D01*
X158203000Y-71295107D01*
X158233781Y-71140358D01*
X158294162Y-70994586D01*
X158294163Y-70994584D01*
X158381822Y-70863392D01*
X158493392Y-70751822D01*
X158624584Y-70664163D01*
X158624586Y-70664162D01*
X158770358Y-70603781D01*
X158925107Y-70573000D01*
X159082893Y-70573000D01*
X159237642Y-70603781D01*
X159237642Y-70603781D01*
G37*
G36*
X156697642Y-69333781D02*
G01*
X156843414Y-69394162D01*
X156843416Y-69394163D01*
X156974608Y-69481822D01*
X157086178Y-69593392D01*
X157163434Y-69709015D01*
X157173838Y-69724586D01*
X157234219Y-69870358D01*
X157265000Y-70025107D01*
X157265000Y-70182893D01*
X157234219Y-70337642D01*
X157173838Y-70483414D01*
X157173837Y-70483416D01*
X157086178Y-70614608D01*
X156974608Y-70726178D01*
X156843416Y-70813837D01*
X156843415Y-70813838D01*
X156843414Y-70813838D01*
X156697642Y-70874219D01*
X156542893Y-70905000D01*
X156385107Y-70905000D01*
X156230358Y-70874219D01*
X156084586Y-70813838D01*
X156084585Y-70813838D01*
X156084584Y-70813837D01*
X155953392Y-70726178D01*
X155841822Y-70614608D01*
X155754163Y-70483416D01*
X155754162Y-70483414D01*
X155693781Y-70337642D01*
X155663000Y-70182893D01*
X155663000Y-70025107D01*
X155693781Y-69870358D01*
X155754162Y-69724586D01*
X155764566Y-69709015D01*
X155841822Y-69593392D01*
X155953392Y-69481822D01*
X156084584Y-69394163D01*
X156084586Y-69394162D01*
X156230358Y-69333781D01*
X156385107Y-69303000D01*
X156542893Y-69303000D01*
X156697642Y-69333781D01*
X156697642Y-69333781D01*
G37*
G36*
X132246823Y-68249313D02*
G01*
X132327667Y-68273837D01*
X132393651Y-68293853D01*
X132407242Y-68297976D01*
X132532635Y-68365000D01*
X132555078Y-68376996D01*
X132684659Y-68483341D01*
X132791004Y-68612922D01*
X132791005Y-68612924D01*
X132870024Y-68760758D01*
X132918687Y-68921177D01*
X132935117Y-69088000D01*
X132918687Y-69254823D01*
X132870024Y-69415242D01*
X132850859Y-69451097D01*
X132791004Y-69563078D01*
X132684659Y-69692659D01*
X132555078Y-69799004D01*
X132555076Y-69799005D01*
X132407242Y-69878024D01*
X132246823Y-69926687D01*
X132121804Y-69939000D01*
X132038196Y-69939000D01*
X131913177Y-69926687D01*
X131752758Y-69878024D01*
X131604924Y-69799005D01*
X131604922Y-69799004D01*
X131475341Y-69692659D01*
X131368996Y-69563078D01*
X131309141Y-69451097D01*
X131289976Y-69415242D01*
X131241313Y-69254823D01*
X131224883Y-69088000D01*
X131241313Y-68921177D01*
X131289976Y-68760758D01*
X131368995Y-68612924D01*
X131368996Y-68612922D01*
X131475341Y-68483341D01*
X131604922Y-68376996D01*
X131627365Y-68365000D01*
X131752758Y-68297976D01*
X131766350Y-68293853D01*
X131832333Y-68273837D01*
X131913177Y-68249313D01*
X132038196Y-68237000D01*
X132121804Y-68237000D01*
X132246823Y-68249313D01*
X132246823Y-68249313D01*
G37*
G36*
X117006823Y-68249313D02*
G01*
X117087667Y-68273837D01*
X117153651Y-68293853D01*
X117167242Y-68297976D01*
X117292635Y-68365000D01*
X117315078Y-68376996D01*
X117444659Y-68483341D01*
X117551004Y-68612922D01*
X117551005Y-68612924D01*
X117630024Y-68760758D01*
X117678687Y-68921177D01*
X117695117Y-69088000D01*
X117678687Y-69254823D01*
X117630024Y-69415242D01*
X117610859Y-69451097D01*
X117551004Y-69563078D01*
X117444659Y-69692659D01*
X117315078Y-69799004D01*
X117315076Y-69799005D01*
X117167242Y-69878024D01*
X117006823Y-69926687D01*
X116881804Y-69939000D01*
X116798196Y-69939000D01*
X116673177Y-69926687D01*
X116512758Y-69878024D01*
X116364924Y-69799005D01*
X116364922Y-69799004D01*
X116235341Y-69692659D01*
X116128996Y-69563078D01*
X116069141Y-69451097D01*
X116049976Y-69415242D01*
X116001313Y-69254823D01*
X115984883Y-69088000D01*
X116001313Y-68921177D01*
X116049976Y-68760758D01*
X116128995Y-68612924D01*
X116128996Y-68612922D01*
X116235341Y-68483341D01*
X116364922Y-68376996D01*
X116387365Y-68365000D01*
X116512758Y-68297976D01*
X116526350Y-68293853D01*
X116592333Y-68273837D01*
X116673177Y-68249313D01*
X116798196Y-68237000D01*
X116881804Y-68237000D01*
X117006823Y-68249313D01*
X117006823Y-68249313D01*
G37*
G36*
X151378228Y-68229703D02*
G01*
X151533100Y-68293853D01*
X151672481Y-68386985D01*
X151791015Y-68505519D01*
X151884147Y-68644900D01*
X151948297Y-68799772D01*
X151981000Y-68964184D01*
X151981000Y-69131816D01*
X151948297Y-69296228D01*
X151884147Y-69451100D01*
X151791015Y-69590481D01*
X151672481Y-69709015D01*
X151533100Y-69802147D01*
X151378228Y-69866297D01*
X151213816Y-69899000D01*
X151046184Y-69899000D01*
X150881772Y-69866297D01*
X150726900Y-69802147D01*
X150587519Y-69709015D01*
X150468985Y-69590481D01*
X150375853Y-69451100D01*
X150311703Y-69296228D01*
X150279000Y-69131816D01*
X150279000Y-68964184D01*
X150311703Y-68799772D01*
X150375853Y-68644900D01*
X150468985Y-68505519D01*
X150587519Y-68386985D01*
X150726900Y-68293853D01*
X150881772Y-68229703D01*
X151046184Y-68197000D01*
X151213816Y-68197000D01*
X151378228Y-68229703D01*
X151378228Y-68229703D01*
G37*
G36*
X159237642Y-68063781D02*
G01*
X159383414Y-68124162D01*
X159383416Y-68124163D01*
X159514608Y-68211822D01*
X159626178Y-68323392D01*
X159668669Y-68386985D01*
X159713838Y-68454586D01*
X159774219Y-68600358D01*
X159805000Y-68755107D01*
X159805000Y-68912893D01*
X159774219Y-69067642D01*
X159747637Y-69131816D01*
X159713837Y-69213416D01*
X159626178Y-69344608D01*
X159514608Y-69456178D01*
X159383416Y-69543837D01*
X159383415Y-69543838D01*
X159383414Y-69543838D01*
X159237642Y-69604219D01*
X159082893Y-69635000D01*
X158925107Y-69635000D01*
X158770358Y-69604219D01*
X158624586Y-69543838D01*
X158624585Y-69543838D01*
X158624584Y-69543837D01*
X158493392Y-69456178D01*
X158381822Y-69344608D01*
X158294163Y-69213416D01*
X158260363Y-69131816D01*
X158233781Y-69067642D01*
X158203000Y-68912893D01*
X158203000Y-68755107D01*
X158233781Y-68600358D01*
X158294162Y-68454586D01*
X158339331Y-68386985D01*
X158381822Y-68323392D01*
X158493392Y-68211822D01*
X158624584Y-68124163D01*
X158624586Y-68124162D01*
X158770358Y-68063781D01*
X158925107Y-68033000D01*
X159082893Y-68033000D01*
X159237642Y-68063781D01*
X159237642Y-68063781D01*
G37*
G36*
X156697642Y-66793781D02*
G01*
X156843414Y-66854162D01*
X156843416Y-66854163D01*
X156974608Y-66941822D01*
X157086178Y-67053392D01*
X157173837Y-67184584D01*
X157173838Y-67184586D01*
X157234219Y-67330358D01*
X157265000Y-67485107D01*
X157265000Y-67642893D01*
X157234219Y-67797642D01*
X157173838Y-67943414D01*
X157173837Y-67943416D01*
X157086178Y-68074608D01*
X156974608Y-68186178D01*
X156843416Y-68273837D01*
X156843415Y-68273838D01*
X156843414Y-68273838D01*
X156697642Y-68334219D01*
X156542893Y-68365000D01*
X156385107Y-68365000D01*
X156230358Y-68334219D01*
X156084586Y-68273838D01*
X156084585Y-68273838D01*
X156084584Y-68273837D01*
X155953392Y-68186178D01*
X155841822Y-68074608D01*
X155754163Y-67943416D01*
X155754162Y-67943414D01*
X155693781Y-67797642D01*
X155663000Y-67642893D01*
X155663000Y-67485107D01*
X155693781Y-67330358D01*
X155754162Y-67184586D01*
X155754163Y-67184584D01*
X155841822Y-67053392D01*
X155953392Y-66941822D01*
X156084584Y-66854163D01*
X156084586Y-66854162D01*
X156230358Y-66793781D01*
X156385107Y-66763000D01*
X156542893Y-66763000D01*
X156697642Y-66793781D01*
X156697642Y-66793781D01*
G37*
G36*
X141390292Y-66531511D02*
G01*
X141544253Y-66595284D01*
X141544255Y-66595285D01*
X141682817Y-66687869D01*
X141800655Y-66805707D01*
X141833032Y-66854162D01*
X141893240Y-66944271D01*
X141957013Y-67098232D01*
X141989524Y-67261675D01*
X141989524Y-67428325D01*
X141957013Y-67591768D01*
X141935836Y-67642893D01*
X141893239Y-67745731D01*
X141800655Y-67884293D01*
X141682817Y-68002131D01*
X141544255Y-68094715D01*
X141544254Y-68094716D01*
X141544253Y-68094716D01*
X141390292Y-68158489D01*
X141226849Y-68191000D01*
X141060199Y-68191000D01*
X140896756Y-68158489D01*
X140742795Y-68094716D01*
X140742794Y-68094716D01*
X140742793Y-68094715D01*
X140604231Y-68002131D01*
X140486393Y-67884293D01*
X140393809Y-67745731D01*
X140351212Y-67642893D01*
X140330035Y-67591768D01*
X140297524Y-67428325D01*
X140297524Y-67261675D01*
X140330035Y-67098232D01*
X140393808Y-66944271D01*
X140454017Y-66854162D01*
X140486393Y-66805707D01*
X140604231Y-66687869D01*
X140742793Y-66595285D01*
X140742795Y-66595284D01*
X140896756Y-66531511D01*
X141060199Y-66499000D01*
X141226849Y-66499000D01*
X141390292Y-66531511D01*
X141390292Y-66531511D01*
G37*
G36*
X143930292Y-66531511D02*
G01*
X144084253Y-66595284D01*
X144084255Y-66595285D01*
X144222817Y-66687869D01*
X144340655Y-66805707D01*
X144373032Y-66854162D01*
X144433240Y-66944271D01*
X144497013Y-67098232D01*
X144529524Y-67261675D01*
X144529524Y-67428325D01*
X144497013Y-67591768D01*
X144475836Y-67642893D01*
X144433239Y-67745731D01*
X144340655Y-67884293D01*
X144222817Y-68002131D01*
X144084255Y-68094715D01*
X144084254Y-68094716D01*
X144084253Y-68094716D01*
X143930292Y-68158489D01*
X143766849Y-68191000D01*
X143600199Y-68191000D01*
X143436756Y-68158489D01*
X143282795Y-68094716D01*
X143282794Y-68094716D01*
X143282793Y-68094715D01*
X143144231Y-68002131D01*
X143026393Y-67884293D01*
X142933809Y-67745731D01*
X142891212Y-67642893D01*
X142870035Y-67591768D01*
X142837524Y-67428325D01*
X142837524Y-67261675D01*
X142870035Y-67098232D01*
X142933808Y-66944271D01*
X142994017Y-66854162D01*
X143026393Y-66805707D01*
X143144231Y-66687869D01*
X143282793Y-66595285D01*
X143282795Y-66595284D01*
X143436756Y-66531511D01*
X143600199Y-66499000D01*
X143766849Y-66499000D01*
X143930292Y-66531511D01*
X143930292Y-66531511D01*
G37*
G36*
X146470292Y-66531511D02*
G01*
X146624253Y-66595284D01*
X146624255Y-66595285D01*
X146762817Y-66687869D01*
X146880655Y-66805707D01*
X146913032Y-66854162D01*
X146973240Y-66944271D01*
X147037013Y-67098232D01*
X147069524Y-67261675D01*
X147069524Y-67428325D01*
X147037013Y-67591768D01*
X147015836Y-67642893D01*
X146973239Y-67745731D01*
X146880655Y-67884293D01*
X146762817Y-68002131D01*
X146624255Y-68094715D01*
X146624254Y-68094716D01*
X146624253Y-68094716D01*
X146470292Y-68158489D01*
X146306849Y-68191000D01*
X146140199Y-68191000D01*
X145976756Y-68158489D01*
X145822795Y-68094716D01*
X145822794Y-68094716D01*
X145822793Y-68094715D01*
X145684231Y-68002131D01*
X145566393Y-67884293D01*
X145473809Y-67745731D01*
X145431212Y-67642893D01*
X145410035Y-67591768D01*
X145377524Y-67428325D01*
X145377524Y-67261675D01*
X145410035Y-67098232D01*
X145473808Y-66944271D01*
X145534017Y-66854162D01*
X145566393Y-66805707D01*
X145684231Y-66687869D01*
X145822793Y-66595285D01*
X145822795Y-66595284D01*
X145976756Y-66531511D01*
X146140199Y-66499000D01*
X146306849Y-66499000D01*
X146470292Y-66531511D01*
X146470292Y-66531511D01*
G37*
G36*
X165729256Y-64685298D02*
G01*
X165835579Y-64706447D01*
X166136042Y-64830903D01*
X166406451Y-65011585D01*
X166636415Y-65241549D01*
X166817097Y-65511958D01*
X166933862Y-65793853D01*
X166941553Y-65812422D01*
X167005000Y-66131389D01*
X167005000Y-66456611D01*
X167003493Y-66464185D01*
X166941553Y-66775579D01*
X166909003Y-66854162D01*
X166839036Y-67023078D01*
X166817097Y-67076042D01*
X166636415Y-67346451D01*
X166406451Y-67576415D01*
X166136042Y-67757097D01*
X165835579Y-67881553D01*
X165729256Y-67902702D01*
X165516611Y-67945000D01*
X165191389Y-67945000D01*
X164978744Y-67902702D01*
X164872421Y-67881553D01*
X164571958Y-67757097D01*
X164301549Y-67576415D01*
X164071585Y-67346451D01*
X163890903Y-67076042D01*
X163868965Y-67023078D01*
X163798997Y-66854162D01*
X163766447Y-66775579D01*
X163704507Y-66464185D01*
X163703000Y-66456611D01*
X163703000Y-66131389D01*
X163766447Y-65812422D01*
X163774139Y-65793853D01*
X163890903Y-65511958D01*
X164071585Y-65241549D01*
X164301549Y-65011585D01*
X164571958Y-64830903D01*
X164872421Y-64706447D01*
X164978744Y-64685298D01*
X165191389Y-64643000D01*
X165516611Y-64643000D01*
X165729256Y-64685298D01*
X165729256Y-64685298D01*
G37*
G36*
X117006823Y-65709313D02*
G01*
X117167242Y-65757976D01*
X117234361Y-65793852D01*
X117315078Y-65836996D01*
X117444659Y-65943341D01*
X117551004Y-66072922D01*
X117551005Y-66072924D01*
X117630024Y-66220758D01*
X117678687Y-66381177D01*
X117695117Y-66548000D01*
X117678687Y-66714823D01*
X117630024Y-66875242D01*
X117589477Y-66951100D01*
X117551004Y-67023078D01*
X117444659Y-67152659D01*
X117315078Y-67259004D01*
X117315076Y-67259005D01*
X117167242Y-67338024D01*
X117006823Y-67386687D01*
X116881804Y-67399000D01*
X116798196Y-67399000D01*
X116673177Y-67386687D01*
X116512758Y-67338024D01*
X116364924Y-67259005D01*
X116364922Y-67259004D01*
X116235341Y-67152659D01*
X116128996Y-67023078D01*
X116090523Y-66951100D01*
X116049976Y-66875242D01*
X116001313Y-66714823D01*
X115984883Y-66548000D01*
X116001313Y-66381177D01*
X116049976Y-66220758D01*
X116128995Y-66072924D01*
X116128996Y-66072922D01*
X116235341Y-65943341D01*
X116364922Y-65836996D01*
X116445639Y-65793852D01*
X116512758Y-65757976D01*
X116673177Y-65709313D01*
X116798196Y-65697000D01*
X116881804Y-65697000D01*
X117006823Y-65709313D01*
X117006823Y-65709313D01*
G37*
G36*
X132246823Y-65709313D02*
G01*
X132407242Y-65757976D01*
X132474361Y-65793852D01*
X132555078Y-65836996D01*
X132684659Y-65943341D01*
X132791004Y-66072922D01*
X132791005Y-66072924D01*
X132870024Y-66220758D01*
X132918687Y-66381177D01*
X132935117Y-66548000D01*
X132918687Y-66714823D01*
X132870024Y-66875242D01*
X132829477Y-66951100D01*
X132791004Y-67023078D01*
X132684659Y-67152659D01*
X132555078Y-67259004D01*
X132555076Y-67259005D01*
X132407242Y-67338024D01*
X132246823Y-67386687D01*
X132121804Y-67399000D01*
X132038196Y-67399000D01*
X131913177Y-67386687D01*
X131752758Y-67338024D01*
X131604924Y-67259005D01*
X131604922Y-67259004D01*
X131475341Y-67152659D01*
X131368996Y-67023078D01*
X131330523Y-66951100D01*
X131289976Y-66875242D01*
X131241313Y-66714823D01*
X131224883Y-66548000D01*
X131241313Y-66381177D01*
X131289976Y-66220758D01*
X131368995Y-66072924D01*
X131368996Y-66072922D01*
X131475341Y-65943341D01*
X131604922Y-65836996D01*
X131685639Y-65793852D01*
X131752758Y-65757976D01*
X131913177Y-65709313D01*
X132038196Y-65697000D01*
X132121804Y-65697000D01*
X132246823Y-65709313D01*
X132246823Y-65709313D01*
G37*
G36*
X151378228Y-65729703D02*
G01*
X151533100Y-65793853D01*
X151672481Y-65886985D01*
X151791015Y-66005519D01*
X151884147Y-66144900D01*
X151948297Y-66299772D01*
X151981000Y-66464184D01*
X151981000Y-66631816D01*
X151948297Y-66796228D01*
X151884147Y-66951100D01*
X151791015Y-67090481D01*
X151672481Y-67209015D01*
X151533100Y-67302147D01*
X151378228Y-67366297D01*
X151213816Y-67399000D01*
X151046184Y-67399000D01*
X150881772Y-67366297D01*
X150726900Y-67302147D01*
X150587519Y-67209015D01*
X150468985Y-67090481D01*
X150375853Y-66951100D01*
X150311703Y-66796228D01*
X150279000Y-66631816D01*
X150279000Y-66464184D01*
X150311703Y-66299772D01*
X150375853Y-66144900D01*
X150468985Y-66005519D01*
X150587519Y-65886985D01*
X150726900Y-65793853D01*
X150881772Y-65729703D01*
X151046184Y-65697000D01*
X151213816Y-65697000D01*
X151378228Y-65729703D01*
X151378228Y-65729703D01*
G37*
G36*
X132246823Y-63169313D02*
G01*
X132407242Y-63217976D01*
X132539906Y-63288886D01*
X132555078Y-63296996D01*
X132684659Y-63403341D01*
X132791004Y-63532922D01*
X132791005Y-63532924D01*
X132870024Y-63680758D01*
X132918687Y-63841177D01*
X132935117Y-64008000D01*
X132918687Y-64174823D01*
X132870024Y-64335242D01*
X132799114Y-64467906D01*
X132791004Y-64483078D01*
X132684659Y-64612659D01*
X132555078Y-64719004D01*
X132555076Y-64719005D01*
X132407242Y-64798024D01*
X132246823Y-64846687D01*
X132121804Y-64859000D01*
X132038196Y-64859000D01*
X131913177Y-64846687D01*
X131752758Y-64798024D01*
X131604924Y-64719005D01*
X131604922Y-64719004D01*
X131475341Y-64612659D01*
X131368996Y-64483078D01*
X131360886Y-64467906D01*
X131289976Y-64335242D01*
X131241313Y-64174823D01*
X131224883Y-64008000D01*
X131241313Y-63841177D01*
X131289976Y-63680758D01*
X131368995Y-63532924D01*
X131368996Y-63532922D01*
X131475341Y-63403341D01*
X131604922Y-63296996D01*
X131620094Y-63288886D01*
X131752758Y-63217976D01*
X131913177Y-63169313D01*
X132038196Y-63157000D01*
X132121804Y-63157000D01*
X132246823Y-63169313D01*
X132246823Y-63169313D01*
G37*
G36*
X117006823Y-63169313D02*
G01*
X117167242Y-63217976D01*
X117299906Y-63288886D01*
X117315078Y-63296996D01*
X117444659Y-63403341D01*
X117551004Y-63532922D01*
X117551005Y-63532924D01*
X117630024Y-63680758D01*
X117678687Y-63841177D01*
X117695117Y-64008000D01*
X117678687Y-64174823D01*
X117630024Y-64335242D01*
X117559114Y-64467906D01*
X117551004Y-64483078D01*
X117444659Y-64612659D01*
X117315078Y-64719004D01*
X117315076Y-64719005D01*
X117167242Y-64798024D01*
X117006823Y-64846687D01*
X116881804Y-64859000D01*
X116798196Y-64859000D01*
X116673177Y-64846687D01*
X116512758Y-64798024D01*
X116364924Y-64719005D01*
X116364922Y-64719004D01*
X116235341Y-64612659D01*
X116128996Y-64483078D01*
X116120886Y-64467906D01*
X116049976Y-64335242D01*
X116001313Y-64174823D01*
X115984883Y-64008000D01*
X116001313Y-63841177D01*
X116049976Y-63680758D01*
X116128995Y-63532924D01*
X116128996Y-63532922D01*
X116235341Y-63403341D01*
X116364922Y-63296996D01*
X116380094Y-63288886D01*
X116512758Y-63217976D01*
X116673177Y-63169313D01*
X116798196Y-63157000D01*
X116881804Y-63157000D01*
X117006823Y-63169313D01*
X117006823Y-63169313D01*
G37*
G36*
X137154228Y-62641703D02*
G01*
X137309100Y-62705853D01*
X137448481Y-62798985D01*
X137567015Y-62917519D01*
X137660147Y-63056900D01*
X137724297Y-63211772D01*
X137757000Y-63376184D01*
X137757000Y-63543816D01*
X137724297Y-63708228D01*
X137660147Y-63863100D01*
X137567015Y-64002481D01*
X137448481Y-64121015D01*
X137309100Y-64214147D01*
X137154228Y-64278297D01*
X136989816Y-64311000D01*
X136822184Y-64311000D01*
X136657772Y-64278297D01*
X136502900Y-64214147D01*
X136363519Y-64121015D01*
X136244985Y-64002481D01*
X136151853Y-63863100D01*
X136087703Y-63708228D01*
X136055000Y-63543816D01*
X136055000Y-63376184D01*
X136087703Y-63211772D01*
X136151853Y-63056900D01*
X136244985Y-62917519D01*
X136363519Y-62798985D01*
X136502900Y-62705853D01*
X136657772Y-62641703D01*
X136822184Y-62609000D01*
X136989816Y-62609000D01*
X137154228Y-62641703D01*
X137154228Y-62641703D01*
G37*
G36*
X132246823Y-60629313D02*
G01*
X132407242Y-60677976D01*
X132539906Y-60748886D01*
X132555078Y-60756996D01*
X132684659Y-60863341D01*
X132791004Y-60992922D01*
X132791005Y-60992924D01*
X132870024Y-61140758D01*
X132918687Y-61301177D01*
X132935117Y-61468000D01*
X132918687Y-61634823D01*
X132870024Y-61795242D01*
X132861601Y-61811000D01*
X132791004Y-61943078D01*
X132684659Y-62072659D01*
X132555078Y-62179004D01*
X132555076Y-62179005D01*
X132407242Y-62258024D01*
X132246823Y-62306687D01*
X132121804Y-62319000D01*
X132038196Y-62319000D01*
X131913177Y-62306687D01*
X131752758Y-62258024D01*
X131604924Y-62179005D01*
X131604922Y-62179004D01*
X131475341Y-62072659D01*
X131368996Y-61943078D01*
X131298399Y-61811000D01*
X131289976Y-61795242D01*
X131241313Y-61634823D01*
X131224883Y-61468000D01*
X131241313Y-61301177D01*
X131289976Y-61140758D01*
X131368995Y-60992924D01*
X131368996Y-60992922D01*
X131475341Y-60863341D01*
X131604922Y-60756996D01*
X131620094Y-60748886D01*
X131752758Y-60677976D01*
X131913177Y-60629313D01*
X132038196Y-60617000D01*
X132121804Y-60617000D01*
X132246823Y-60629313D01*
X132246823Y-60629313D01*
G37*
G36*
X117006823Y-60629313D02*
G01*
X117167242Y-60677976D01*
X117299906Y-60748886D01*
X117315078Y-60756996D01*
X117444659Y-60863341D01*
X117551004Y-60992922D01*
X117551005Y-60992924D01*
X117630024Y-61140758D01*
X117678687Y-61301177D01*
X117695117Y-61468000D01*
X117678687Y-61634823D01*
X117630024Y-61795242D01*
X117621601Y-61811000D01*
X117551004Y-61943078D01*
X117444659Y-62072659D01*
X117315078Y-62179004D01*
X117315076Y-62179005D01*
X117167242Y-62258024D01*
X117006823Y-62306687D01*
X116881804Y-62319000D01*
X116798196Y-62319000D01*
X116673177Y-62306687D01*
X116512758Y-62258024D01*
X116364924Y-62179005D01*
X116364922Y-62179004D01*
X116235341Y-62072659D01*
X116128996Y-61943078D01*
X116058399Y-61811000D01*
X116049976Y-61795242D01*
X116001313Y-61634823D01*
X115984883Y-61468000D01*
X116001313Y-61301177D01*
X116049976Y-61140758D01*
X116128995Y-60992924D01*
X116128996Y-60992922D01*
X116235341Y-60863341D01*
X116364922Y-60756996D01*
X116380094Y-60748886D01*
X116512758Y-60677976D01*
X116673177Y-60629313D01*
X116798196Y-60617000D01*
X116881804Y-60617000D01*
X117006823Y-60629313D01*
X117006823Y-60629313D01*
G37*
G36*
X137154228Y-60141703D02*
G01*
X137309100Y-60205853D01*
X137448481Y-60298985D01*
X137567015Y-60417519D01*
X137660147Y-60556900D01*
X137724297Y-60711772D01*
X137757000Y-60876184D01*
X137757000Y-61043816D01*
X137724297Y-61208228D01*
X137660147Y-61363100D01*
X137567015Y-61502481D01*
X137448481Y-61621015D01*
X137309100Y-61714147D01*
X137154228Y-61778297D01*
X136989816Y-61811000D01*
X136822184Y-61811000D01*
X136657772Y-61778297D01*
X136502900Y-61714147D01*
X136363519Y-61621015D01*
X136244985Y-61502481D01*
X136151853Y-61363100D01*
X136087703Y-61208228D01*
X136055000Y-61043816D01*
X136055000Y-60876184D01*
X136087703Y-60711772D01*
X136151853Y-60556900D01*
X136244985Y-60417519D01*
X136363519Y-60298985D01*
X136502900Y-60205853D01*
X136657772Y-60141703D01*
X136822184Y-60109000D01*
X136989816Y-60109000D01*
X137154228Y-60141703D01*
X137154228Y-60141703D01*
G37*
G36*
X163628564Y-59361389D02*
G01*
X163729210Y-59403078D01*
X163819835Y-59440616D01*
X163991973Y-59555635D01*
X164138365Y-59702027D01*
X164149055Y-59718025D01*
X164253385Y-59874167D01*
X164332611Y-60065436D01*
X164373000Y-60268484D01*
X164373000Y-60475516D01*
X164332611Y-60678564D01*
X164300123Y-60756996D01*
X164253384Y-60869835D01*
X164138365Y-61041973D01*
X163991973Y-61188365D01*
X163819835Y-61303384D01*
X163819834Y-61303385D01*
X163819833Y-61303385D01*
X163628564Y-61382611D01*
X163425516Y-61423000D01*
X163218484Y-61423000D01*
X163015436Y-61382611D01*
X162824167Y-61303385D01*
X162824166Y-61303385D01*
X162824165Y-61303384D01*
X162652027Y-61188365D01*
X162505635Y-61041973D01*
X162390616Y-60869835D01*
X162343877Y-60756996D01*
X162311389Y-60678564D01*
X162271000Y-60475516D01*
X162271000Y-60268484D01*
X162311389Y-60065436D01*
X162390615Y-59874167D01*
X162494946Y-59718025D01*
X162505635Y-59702027D01*
X162652027Y-59555635D01*
X162824165Y-59440616D01*
X162914790Y-59403078D01*
X163015436Y-59361389D01*
X163218484Y-59321000D01*
X163425516Y-59321000D01*
X163628564Y-59361389D01*
X163628564Y-59361389D01*
G37*
G36*
X145848564Y-59361389D02*
G01*
X145949210Y-59403078D01*
X146039835Y-59440616D01*
X146211973Y-59555635D01*
X146358365Y-59702027D01*
X146369055Y-59718025D01*
X146473385Y-59874167D01*
X146552611Y-60065436D01*
X146593000Y-60268484D01*
X146593000Y-60475516D01*
X146552611Y-60678564D01*
X146520123Y-60756996D01*
X146473384Y-60869835D01*
X146358365Y-61041973D01*
X146211973Y-61188365D01*
X146039835Y-61303384D01*
X146039834Y-61303385D01*
X146039833Y-61303385D01*
X145848564Y-61382611D01*
X145645516Y-61423000D01*
X145438484Y-61423000D01*
X145235436Y-61382611D01*
X145044167Y-61303385D01*
X145044166Y-61303385D01*
X145044165Y-61303384D01*
X144872027Y-61188365D01*
X144725635Y-61041973D01*
X144610616Y-60869835D01*
X144563877Y-60756996D01*
X144531389Y-60678564D01*
X144491000Y-60475516D01*
X144491000Y-60268484D01*
X144531389Y-60065436D01*
X144610615Y-59874167D01*
X144714946Y-59718025D01*
X144725635Y-59702027D01*
X144872027Y-59555635D01*
X145044165Y-59440616D01*
X145134790Y-59403078D01*
X145235436Y-59361389D01*
X145438484Y-59321000D01*
X145645516Y-59321000D01*
X145848564Y-59361389D01*
X145848564Y-59361389D01*
G37*
G36*
X132246823Y-58089313D02*
G01*
X132407242Y-58137976D01*
X132539906Y-58208886D01*
X132555078Y-58216996D01*
X132684659Y-58323341D01*
X132791004Y-58452922D01*
X132791005Y-58452924D01*
X132870024Y-58600758D01*
X132918687Y-58761177D01*
X132935117Y-58928000D01*
X132918687Y-59094823D01*
X132870024Y-59255242D01*
X132813287Y-59361389D01*
X132791004Y-59403078D01*
X132684659Y-59532659D01*
X132555078Y-59639004D01*
X132555076Y-59639005D01*
X132407242Y-59718024D01*
X132246823Y-59766687D01*
X132121804Y-59779000D01*
X132038196Y-59779000D01*
X131913177Y-59766687D01*
X131752758Y-59718024D01*
X131604924Y-59639005D01*
X131604922Y-59639004D01*
X131475341Y-59532659D01*
X131368996Y-59403078D01*
X131346713Y-59361389D01*
X131289976Y-59255242D01*
X131241313Y-59094823D01*
X131224883Y-58928000D01*
X131241313Y-58761177D01*
X131289976Y-58600758D01*
X131368995Y-58452924D01*
X131368996Y-58452922D01*
X131475341Y-58323341D01*
X131604922Y-58216996D01*
X131620094Y-58208886D01*
X131752758Y-58137976D01*
X131913177Y-58089313D01*
X132038196Y-58077000D01*
X132121804Y-58077000D01*
X132246823Y-58089313D01*
X132246823Y-58089313D01*
G37*
G36*
X117006823Y-58089313D02*
G01*
X117167242Y-58137976D01*
X117299906Y-58208886D01*
X117315078Y-58216996D01*
X117444659Y-58323341D01*
X117551004Y-58452922D01*
X117551005Y-58452924D01*
X117630024Y-58600758D01*
X117678687Y-58761177D01*
X117695117Y-58928000D01*
X117678687Y-59094823D01*
X117630024Y-59255242D01*
X117573287Y-59361389D01*
X117551004Y-59403078D01*
X117444659Y-59532659D01*
X117315078Y-59639004D01*
X117315076Y-59639005D01*
X117167242Y-59718024D01*
X117006823Y-59766687D01*
X116881804Y-59779000D01*
X116798196Y-59779000D01*
X116673177Y-59766687D01*
X116512758Y-59718024D01*
X116364924Y-59639005D01*
X116364922Y-59639004D01*
X116235341Y-59532659D01*
X116128996Y-59403078D01*
X116106713Y-59361389D01*
X116049976Y-59255242D01*
X116001313Y-59094823D01*
X115984883Y-58928000D01*
X116001313Y-58761177D01*
X116049976Y-58600758D01*
X116128995Y-58452924D01*
X116128996Y-58452922D01*
X116235341Y-58323341D01*
X116364922Y-58216996D01*
X116380094Y-58208886D01*
X116512758Y-58137976D01*
X116673177Y-58089313D01*
X116798196Y-58077000D01*
X116881804Y-58077000D01*
X117006823Y-58089313D01*
X117006823Y-58089313D01*
G37*
G36*
X132246823Y-55549313D02*
G01*
X132407242Y-55597976D01*
X132448874Y-55620229D01*
X132555078Y-55676996D01*
X132684659Y-55783341D01*
X132791004Y-55912922D01*
X132791005Y-55912924D01*
X132870024Y-56060758D01*
X132918687Y-56221177D01*
X132935117Y-56388000D01*
X132918687Y-56554823D01*
X132870024Y-56715242D01*
X132799114Y-56847906D01*
X132791004Y-56863078D01*
X132684659Y-56992659D01*
X132555078Y-57099004D01*
X132555076Y-57099005D01*
X132407242Y-57178024D01*
X132246823Y-57226687D01*
X132121804Y-57239000D01*
X132038196Y-57239000D01*
X131913177Y-57226687D01*
X131752758Y-57178024D01*
X131604924Y-57099005D01*
X131604922Y-57099004D01*
X131475341Y-56992659D01*
X131368996Y-56863078D01*
X131360886Y-56847906D01*
X131289976Y-56715242D01*
X131241313Y-56554823D01*
X131224883Y-56388000D01*
X131241313Y-56221177D01*
X131289976Y-56060758D01*
X131368995Y-55912924D01*
X131368996Y-55912922D01*
X131475341Y-55783341D01*
X131604922Y-55676996D01*
X131711126Y-55620229D01*
X131752758Y-55597976D01*
X131913177Y-55549313D01*
X132038196Y-55537000D01*
X132121804Y-55537000D01*
X132246823Y-55549313D01*
X132246823Y-55549313D01*
G37*
G36*
X117006823Y-55549313D02*
G01*
X117167242Y-55597976D01*
X117208874Y-55620229D01*
X117315078Y-55676996D01*
X117444659Y-55783341D01*
X117551004Y-55912922D01*
X117551005Y-55912924D01*
X117630024Y-56060758D01*
X117678687Y-56221177D01*
X117695117Y-56388000D01*
X117678687Y-56554823D01*
X117630024Y-56715242D01*
X117559114Y-56847906D01*
X117551004Y-56863078D01*
X117444659Y-56992659D01*
X117315078Y-57099004D01*
X117315076Y-57099005D01*
X117167242Y-57178024D01*
X117006823Y-57226687D01*
X116881804Y-57239000D01*
X116798196Y-57239000D01*
X116673177Y-57226687D01*
X116512758Y-57178024D01*
X116364924Y-57099005D01*
X116364922Y-57099004D01*
X116235341Y-56992659D01*
X116128996Y-56863078D01*
X116120886Y-56847906D01*
X116049976Y-56715242D01*
X116001313Y-56554823D01*
X115984883Y-56388000D01*
X116001313Y-56221177D01*
X116049976Y-56060758D01*
X116128995Y-55912924D01*
X116128996Y-55912922D01*
X116235341Y-55783341D01*
X116364922Y-55676996D01*
X116471126Y-55620229D01*
X116512758Y-55597976D01*
X116673177Y-55549313D01*
X116798196Y-55537000D01*
X116881804Y-55537000D01*
X117006823Y-55549313D01*
X117006823Y-55549313D01*
G37*
G36*
X164373000Y-56423000D02*
G01*
X162271000Y-56423000D01*
X162271000Y-54321000D01*
X164373000Y-54321000D01*
X164373000Y-56423000D01*
X164373000Y-56423000D01*
G37*
G36*
X146593000Y-56423000D02*
G01*
X144491000Y-56423000D01*
X144491000Y-54321000D01*
X146593000Y-54321000D01*
X146593000Y-56423000D01*
X146593000Y-56423000D01*
G37*
G36*
X137154228Y-54553703D02*
G01*
X137309100Y-54617853D01*
X137448481Y-54710985D01*
X137567015Y-54829519D01*
X137660147Y-54968900D01*
X137724297Y-55123772D01*
X137757000Y-55288184D01*
X137757000Y-55455816D01*
X137724297Y-55620228D01*
X137660147Y-55775100D01*
X137567015Y-55914481D01*
X137448481Y-56033015D01*
X137309100Y-56126147D01*
X137154228Y-56190297D01*
X136989816Y-56223000D01*
X136822184Y-56223000D01*
X136657772Y-56190297D01*
X136502900Y-56126147D01*
X136363519Y-56033015D01*
X136244985Y-55914481D01*
X136151853Y-55775100D01*
X136087703Y-55620228D01*
X136055000Y-55455816D01*
X136055000Y-55288184D01*
X136087703Y-55123772D01*
X136151853Y-54968900D01*
X136244985Y-54829519D01*
X136363519Y-54710985D01*
X136502900Y-54617853D01*
X136657772Y-54553703D01*
X136822184Y-54521000D01*
X136989816Y-54521000D01*
X137154228Y-54553703D01*
X137154228Y-54553703D01*
G37*
G36*
X117691000Y-54699000D02*
G01*
X115989000Y-54699000D01*
X115989000Y-52997000D01*
X117691000Y-52997000D01*
X117691000Y-54699000D01*
X117691000Y-54699000D01*
G37*
G36*
X132246823Y-53009313D02*
G01*
X132407242Y-53057976D01*
X132523707Y-53120228D01*
X132555078Y-53136996D01*
X132684659Y-53243341D01*
X132791004Y-53372922D01*
X132791005Y-53372924D01*
X132870024Y-53520758D01*
X132918687Y-53681177D01*
X132935117Y-53847999D01*
X132918687Y-54014823D01*
X132870024Y-54175242D01*
X132799114Y-54307906D01*
X132791004Y-54323078D01*
X132684659Y-54452659D01*
X132555078Y-54559004D01*
X132555076Y-54559005D01*
X132407242Y-54638024D01*
X132246823Y-54686687D01*
X132121804Y-54699000D01*
X132038196Y-54699000D01*
X131913177Y-54686687D01*
X131752758Y-54638024D01*
X131604924Y-54559005D01*
X131604922Y-54559004D01*
X131475341Y-54452659D01*
X131368996Y-54323078D01*
X131360886Y-54307906D01*
X131289976Y-54175242D01*
X131241313Y-54014823D01*
X131224883Y-53847999D01*
X131241313Y-53681177D01*
X131289976Y-53520758D01*
X131368995Y-53372924D01*
X131368996Y-53372922D01*
X131475341Y-53243341D01*
X131604922Y-53136996D01*
X131636293Y-53120228D01*
X131752758Y-53057976D01*
X131913177Y-53009313D01*
X132038196Y-52997000D01*
X132121804Y-52997000D01*
X132246823Y-53009313D01*
X132246823Y-53009313D01*
G37*
G36*
X137154228Y-52053703D02*
G01*
X137309100Y-52117853D01*
X137448481Y-52210985D01*
X137567015Y-52329519D01*
X137660147Y-52468900D01*
X137724297Y-52623772D01*
X137757000Y-52788184D01*
X137757000Y-52955816D01*
X137724297Y-53120228D01*
X137660147Y-53275100D01*
X137567015Y-53414481D01*
X137448481Y-53533015D01*
X137309100Y-53626147D01*
X137154228Y-53690297D01*
X136989816Y-53723000D01*
X136822184Y-53723000D01*
X136657772Y-53690297D01*
X136502900Y-53626147D01*
X136363519Y-53533015D01*
X136244985Y-53414481D01*
X136151853Y-53275100D01*
X136087703Y-53120228D01*
X136055000Y-52955816D01*
X136055000Y-52788184D01*
X136087703Y-52623772D01*
X136151853Y-52468900D01*
X136244985Y-52329519D01*
X136363519Y-52210985D01*
X136502900Y-52117853D01*
X136657772Y-52053703D01*
X136822184Y-52021000D01*
X136989816Y-52021000D01*
X137154228Y-52053703D01*
X137154228Y-52053703D01*
G37*
G36*
X162413229Y-48183978D02*
G01*
X162592092Y-48219556D01*
X162929061Y-48359133D01*
X163232326Y-48561768D01*
X163490232Y-48819674D01*
X163692867Y-49122939D01*
X163832444Y-49459908D01*
X163903600Y-49817633D01*
X163903600Y-50182367D01*
X163832444Y-50540092D01*
X163692867Y-50877061D01*
X163490232Y-51180326D01*
X163232326Y-51438232D01*
X162929061Y-51640867D01*
X162592092Y-51780444D01*
X162413229Y-51816022D01*
X162234368Y-51851600D01*
X161869632Y-51851600D01*
X161511908Y-51780444D01*
X161174939Y-51640867D01*
X160871674Y-51438232D01*
X160613768Y-51180326D01*
X160411133Y-50877061D01*
X160271556Y-50540092D01*
X160200400Y-50182367D01*
X160200400Y-49817633D01*
X160271556Y-49459908D01*
X160411133Y-49122939D01*
X160613768Y-48819674D01*
X160871674Y-48561768D01*
X161174939Y-48359133D01*
X161511908Y-48219556D01*
X161869632Y-48148400D01*
X162234368Y-48148400D01*
X162413229Y-48183978D01*
X162413229Y-48183978D01*
G37*
G36*
X147173229Y-48183978D02*
G01*
X147352092Y-48219556D01*
X147689061Y-48359133D01*
X147992326Y-48561768D01*
X148250232Y-48819674D01*
X148452867Y-49122939D01*
X148592444Y-49459908D01*
X148663600Y-49817633D01*
X148663600Y-50182367D01*
X148592444Y-50540092D01*
X148452867Y-50877061D01*
X148250232Y-51180326D01*
X147992326Y-51438232D01*
X147689061Y-51640867D01*
X147352092Y-51780444D01*
X147173229Y-51816022D01*
X146994368Y-51851600D01*
X146629632Y-51851600D01*
X146271908Y-51780444D01*
X145934939Y-51640867D01*
X145631674Y-51438232D01*
X145373768Y-51180326D01*
X145171133Y-50877061D01*
X145031556Y-50540092D01*
X144960400Y-50182367D01*
X144960400Y-49817633D01*
X145031556Y-49459908D01*
X145171133Y-49122939D01*
X145373768Y-48819674D01*
X145631674Y-48561768D01*
X145934939Y-48359133D01*
X146271908Y-48219556D01*
X146629632Y-48148400D01*
X146994368Y-48148400D01*
X147173229Y-48183978D01*
X147173229Y-48183978D01*
G37*
G36*
X170047256Y-47413298D02*
G01*
X170153579Y-47434447D01*
X170454042Y-47558903D01*
X170724451Y-47739585D01*
X170954415Y-47969549D01*
X171135097Y-48239958D01*
X171259553Y-48540421D01*
X171323000Y-48859391D01*
X171323000Y-49184609D01*
X171259553Y-49503579D01*
X171135097Y-49804042D01*
X170954415Y-50074451D01*
X170724451Y-50304415D01*
X170454042Y-50485097D01*
X170153579Y-50609553D01*
X170047256Y-50630702D01*
X169834611Y-50673000D01*
X169509389Y-50673000D01*
X169296744Y-50630702D01*
X169190421Y-50609553D01*
X168889958Y-50485097D01*
X168619549Y-50304415D01*
X168389585Y-50074451D01*
X168208903Y-49804042D01*
X168084447Y-49503579D01*
X168021000Y-49184609D01*
X168021000Y-48859391D01*
X168084447Y-48540421D01*
X168208903Y-48239958D01*
X168389585Y-47969549D01*
X168619549Y-47739585D01*
X168889958Y-47558903D01*
X169190421Y-47434447D01*
X169296744Y-47413298D01*
X169509389Y-47371000D01*
X169834611Y-47371000D01*
X170047256Y-47413298D01*
X170047256Y-47413298D01*
G37*
G36*
X118739256Y-47413298D02*
G01*
X118845579Y-47434447D01*
X119146042Y-47558903D01*
X119416451Y-47739585D01*
X119646415Y-47969549D01*
X119827097Y-48239958D01*
X119951553Y-48540421D01*
X120015000Y-48859391D01*
X120015000Y-49184609D01*
X119951553Y-49503579D01*
X119827097Y-49804042D01*
X119646415Y-50074451D01*
X119416451Y-50304415D01*
X119146042Y-50485097D01*
X118845579Y-50609553D01*
X118739256Y-50630702D01*
X118526611Y-50673000D01*
X118201389Y-50673000D01*
X117988744Y-50630702D01*
X117882421Y-50609553D01*
X117581958Y-50485097D01*
X117311549Y-50304415D01*
X117081585Y-50074451D01*
X116900903Y-49804042D01*
X116776447Y-49503579D01*
X116713000Y-49184609D01*
X116713000Y-48859391D01*
X116776447Y-48540421D01*
X116900903Y-48239958D01*
X117081585Y-47969549D01*
X117311549Y-47739585D01*
X117581958Y-47558903D01*
X117882421Y-47434447D01*
X117988744Y-47413298D01*
X118201389Y-47371000D01*
X118526611Y-47371000D01*
X118739256Y-47413298D01*
X118739256Y-47413298D01*
G37*
M02*
