G04 #@! TF.GenerationSoftware,KiCad,Pcbnew,(5.1.2)-2*
G04 #@! TF.CreationDate,2020-02-16T14:31:34-06:00*
G04 #@! TF.ProjectId,TempMonitor8PCB,54656d70-4d6f-46e6-9974-6f7238504342,rev?*
G04 #@! TF.SameCoordinates,Original*
G04 #@! TF.FileFunction,Copper,L1,Top*
G04 #@! TF.FilePolarity,Positive*
%FSLAX46Y46*%
G04 Gerber Fmt 4.6, Leading zero omitted, Abs format (unit mm)*
G04 Created by KiCad (PCBNEW (5.1.2)-2) date 2020-02-16 14:31:34*
%MOMM*%
%LPD*%
G04 APERTURE LIST*
%ADD10R,1.600000X1.600000*%
%ADD11O,1.600000X1.600000*%
%ADD12O,1.700000X1.700000*%
%ADD13R,1.700000X1.700000*%
%ADD14C,2.000000*%
%ADD15R,2.000000X2.000000*%
%ADD16C,2.600000*%
%ADD17C,3.500000*%
%ADD18C,1.590000*%
%ADD19C,1.600000*%
%ADD20C,1.700000*%
%ADD21C,1.800000*%
%ADD22R,1.800000X1.800000*%
%ADD23C,1.500000*%
%ADD24R,1.500000X1.500000*%
%ADD25C,1.524000*%
%ADD26C,1.000000*%
G04 APERTURE END LIST*
D10*
X116840000Y-53848000D03*
D11*
X132080000Y-86868000D03*
X116840000Y-56388000D03*
X132080000Y-84328000D03*
X116840000Y-58928000D03*
X132080000Y-81788000D03*
X116840000Y-61468000D03*
X132080000Y-79248000D03*
X116840000Y-64008000D03*
X132080000Y-76708000D03*
X116840000Y-66548000D03*
X132080000Y-74168000D03*
X116840000Y-69088000D03*
X132080000Y-71628000D03*
X116840000Y-71628000D03*
X132080000Y-69088000D03*
X116840000Y-74168000D03*
X132080000Y-66548000D03*
X116840000Y-76708000D03*
X132080000Y-64008000D03*
X116840000Y-79248000D03*
X132080000Y-61468000D03*
X116840000Y-81788000D03*
X132080000Y-58928000D03*
X116840000Y-84328000D03*
X132080000Y-56388000D03*
X116840000Y-86868000D03*
X132080000Y-53848000D03*
X116840000Y-89408000D03*
X132080000Y-89408000D03*
D12*
X153162000Y-111252000D03*
D13*
X153162000Y-108712000D03*
D14*
X145542000Y-60372000D03*
D15*
X145542000Y-55372000D03*
D16*
X168228000Y-107322000D03*
X168228000Y-102322000D03*
D17*
X146812000Y-50000000D03*
X162052000Y-50000000D03*
D18*
X141143524Y-67345000D03*
X143683524Y-67345000D03*
X146223524Y-67345000D03*
D19*
X151130000Y-69048000D03*
X151130000Y-66548000D03*
X136906000Y-63460000D03*
X136906000Y-60960000D03*
D14*
X163322000Y-60372000D03*
D15*
X163322000Y-55372000D03*
D19*
X140208000Y-113244000D03*
X140208000Y-110744000D03*
X136906000Y-52872000D03*
X136906000Y-55372000D03*
D11*
X141732000Y-98298000D03*
D19*
X151892000Y-98298000D03*
D20*
X135666000Y-98714000D03*
X135666000Y-101254000D03*
X135666000Y-103794000D03*
X135666000Y-106334000D03*
X135666000Y-108874000D03*
X135666000Y-111414000D03*
X135666000Y-113954000D03*
D21*
X145034000Y-103378000D03*
D22*
X145034000Y-105918000D03*
D23*
X156449000Y-86245000D03*
X158989000Y-87515000D03*
X156449000Y-88785000D03*
X158989000Y-90055000D03*
X156449000Y-91325000D03*
X158989000Y-92595000D03*
X156449000Y-93865000D03*
D24*
X158989000Y-95135000D03*
D25*
X148590000Y-93472000D03*
X148590000Y-90932000D03*
X148590000Y-88392000D03*
X148590000Y-85852000D03*
X148590000Y-83312000D03*
X148590000Y-80772000D03*
X138430000Y-93472000D03*
X138430000Y-90932000D03*
X138430000Y-88392000D03*
X138430000Y-85852000D03*
X138430000Y-83312000D03*
X138430000Y-80772000D03*
D23*
X156464000Y-67564000D03*
X159004000Y-68834000D03*
X156464000Y-70104000D03*
X159004000Y-71374000D03*
X156464000Y-72644000D03*
X159004000Y-73914000D03*
X156464000Y-75184000D03*
D24*
X159004000Y-76454000D03*
D26*
X159298000Y-111252000D02*
X153162000Y-111252000D01*
X168228000Y-102322000D02*
X159298000Y-111252000D01*
X134816001Y-102103999D02*
X135666000Y-101254000D01*
X134115999Y-102804001D02*
X134816001Y-102103999D01*
X134115999Y-114698001D02*
X134115999Y-102804001D01*
X134921999Y-115504001D02*
X134115999Y-114698001D01*
X148909999Y-115504001D02*
X134921999Y-115504001D01*
X153162000Y-111252000D02*
X148909999Y-115504001D01*
X159753999Y-74663999D02*
X159004000Y-73914000D01*
X160454001Y-75364001D02*
X159753999Y-74663999D01*
X160454001Y-76228003D02*
X160454001Y-75364001D01*
X169527999Y-85302001D02*
X160454001Y-76228003D01*
X169527999Y-101022001D02*
X169527999Y-85302001D01*
X168228000Y-102322000D02*
X169527999Y-101022001D01*
X139892001Y-89469999D02*
X147828001Y-81533999D01*
X147828001Y-81533999D02*
X148590000Y-80772000D01*
X139892001Y-94173761D02*
X139892001Y-89469999D01*
X137216001Y-96849761D02*
X139892001Y-94173761D01*
X137216001Y-107323999D02*
X137216001Y-96849761D01*
X135666000Y-108874000D02*
X137216001Y-107323999D01*
X141331988Y-94430845D02*
X141331988Y-90570012D01*
X147828001Y-84073999D02*
X148590000Y-83312000D01*
X138416012Y-97346821D02*
X141331988Y-94430845D01*
X138416012Y-108663988D02*
X138416012Y-97346821D01*
X135666000Y-111414000D02*
X138416012Y-108663988D01*
X141331988Y-90570012D02*
X147828001Y-84073999D01*
X146812000Y-103378000D02*
X151892000Y-98298000D01*
X145034000Y-103378000D02*
X146812000Y-103378000D01*
X157734000Y-71374000D02*
X156464000Y-72644000D01*
X159004000Y-71374000D02*
X157734000Y-71374000D01*
X155699001Y-90575001D02*
X156449000Y-91325000D01*
X154998999Y-89874999D02*
X155699001Y-90575001D01*
X154998999Y-74109001D02*
X154998999Y-89874999D01*
X156464000Y-72644000D02*
X154998999Y-74109001D01*
X157719000Y-91325000D02*
X158989000Y-90055000D01*
X156449000Y-91325000D02*
X157719000Y-91325000D01*
X163801999Y-51749999D02*
X162052000Y-50000000D01*
X165022001Y-52970001D02*
X163801999Y-51749999D01*
X165022001Y-61188001D02*
X165022001Y-52970001D01*
X163053999Y-63156003D02*
X165022001Y-61188001D01*
X163053999Y-67324001D02*
X163053999Y-63156003D01*
X159004000Y-71374000D02*
X163053999Y-67324001D01*
X150333000Y-67345000D02*
X151130000Y-66548000D01*
X146223524Y-67345000D02*
X150333000Y-67345000D01*
X162306000Y-55372000D02*
X163322000Y-55372000D01*
X151130000Y-66548000D02*
X162306000Y-55372000D01*
X152184000Y-55372000D02*
X146812000Y-50000000D01*
X163322000Y-55372000D02*
X152184000Y-55372000D01*
X159738999Y-93344999D02*
X158989000Y-92595000D01*
X160439001Y-94045001D02*
X159738999Y-93344999D01*
X160439001Y-103284999D02*
X160439001Y-94045001D01*
X155012000Y-108712000D02*
X160439001Y-103284999D01*
X153162000Y-108712000D02*
X155012000Y-108712000D01*
X133096000Y-85852000D02*
X132080000Y-86868000D01*
X138430000Y-85852000D02*
X133096000Y-85852000D01*
X132879999Y-72427999D02*
X132080000Y-71628000D01*
X138430000Y-77978000D02*
X132879999Y-72427999D01*
X138430000Y-80772000D02*
X138430000Y-77978000D01*
X132879999Y-69887999D02*
X132080000Y-69088000D01*
X139892001Y-76900001D02*
X132879999Y-69887999D01*
X139892001Y-81849999D02*
X139892001Y-76900001D01*
X138430000Y-83312000D02*
X139892001Y-81849999D01*
X136998000Y-113954000D02*
X140208000Y-110744000D01*
X135666000Y-113954000D02*
X136998000Y-113954000D01*
X140208000Y-99822000D02*
X141732000Y-98298000D01*
X140208000Y-110744000D02*
X140208000Y-99822000D01*
X147828001Y-86613999D02*
X148590000Y-85852000D01*
X142531999Y-91910001D02*
X147828001Y-86613999D01*
X142531999Y-97498001D02*
X142531999Y-91910001D01*
X141732000Y-98298000D02*
X142531999Y-97498001D01*
X141938523Y-68139999D02*
X141143524Y-67345000D01*
X150052001Y-76253477D02*
X141938523Y-68139999D01*
X150052001Y-84389999D02*
X150052001Y-76253477D01*
X148590000Y-85852000D02*
X150052001Y-84389999D01*
X141143524Y-65197524D02*
X136906000Y-60960000D01*
X141143524Y-67345000D02*
X141143524Y-65197524D01*
X133604000Y-55372000D02*
X132080000Y-53848000D01*
X136906000Y-55372000D02*
X133604000Y-55372000D01*
X142494000Y-55372000D02*
X136906000Y-60960000D01*
X145542000Y-55372000D02*
X142494000Y-55372000D01*
X145542000Y-55372000D02*
X136906000Y-55372000D01*
M02*
