M48
; DRILL file {KiCad (5.1.2)-2} date 2020-02-16 2:31:37 PM
; FORMAT={-:-/ absolute / inch / decimal}
; #@! TF.CreationDate,2020-02-16T14:31:37-06:00
; #@! TF.GenerationSoftware,Kicad,Pcbnew,(5.1.2)-2
; #@! TF.FileFunction,Plated,1,2,PTH
FMAT,2
INCH
T1C0.0299
T2C0.0300
T3C0.0315
T4C0.0350
T5C0.0354
T6C0.0390
T7C0.0394
T8C0.0492
T9C0.0512
%
G90
G05
T1
X6.1594Y-3.3955
X6.1594Y-3.4955
X6.1594Y-3.5955
X6.1594Y-3.6955
X6.2594Y-3.4455
X6.2594Y-3.5455
X6.2594Y-3.6455
X6.2594Y-3.7455
X6.16Y-2.66
X6.16Y-2.76
X6.16Y-2.86
X6.16Y-2.96
X6.26Y-2.71
X6.26Y-2.81
X6.26Y-2.91
X6.26Y-3.01
T2
X5.45Y-3.18
X5.45Y-3.28
X5.45Y-3.38
X5.45Y-3.48
X5.45Y-3.58
X5.45Y-3.68
X5.85Y-3.18
X5.85Y-3.28
X5.85Y-3.38
X5.85Y-3.48
X5.85Y-3.58
X5.85Y-3.68
T3
X5.39Y-2.4
X5.39Y-2.4984
X5.52Y-4.36
X5.52Y-4.4584
X5.58Y-3.87
X5.98Y-3.87
X5.95Y-2.62
X5.95Y-2.7184
X5.39Y-2.0816
X5.39Y-2.18
T4
X5.5568Y-2.6514
X5.6568Y-2.6514
X5.7568Y-2.6514
T5
X5.71Y-4.07
X5.71Y-4.17
T6
X4.6Y-2.12
X4.6Y-2.22
X4.6Y-2.32
X4.6Y-2.42
X4.6Y-2.52
X4.6Y-2.62
X4.6Y-2.72
X4.6Y-2.82
X4.6Y-2.92
X4.6Y-3.02
X4.6Y-3.12
X4.6Y-3.22
X4.6Y-3.32
X4.6Y-3.42
X4.6Y-3.52
X5.2Y-2.12
X5.2Y-2.22
X5.2Y-2.32
X5.2Y-2.42
X5.2Y-2.52
X5.2Y-2.62
X5.2Y-2.72
X5.2Y-2.82
X5.2Y-2.92
X5.2Y-3.02
X5.2Y-3.12
X5.2Y-3.22
X5.2Y-3.32
X5.2Y-3.42
X5.2Y-3.52
T7
X6.43Y-2.18
X6.43Y-2.3769
X6.03Y-4.28
X6.03Y-4.38
X5.3412Y-3.8864
X5.3412Y-3.9864
X5.3412Y-4.0864
X5.3412Y-4.1864
X5.3412Y-4.2864
X5.3412Y-4.3864
X5.3412Y-4.4864
X5.73Y-2.18
X5.73Y-2.3769
T8
X5.78Y-1.9685
X6.38Y-1.9685
T9
X6.6231Y-4.0284
X6.6231Y-4.2253
T0
M30
