%TF.GenerationSoftware,KiCad,Pcbnew,(5.1.9)-1*%
%TF.CreationDate,2021-01-18T22:58:22-06:00*%
%TF.ProjectId,TempPCB11,54656d70-5043-4423-9131-2e6b69636164,rev?*%
%TF.SameCoordinates,Original*%
%TF.FileFunction,Soldermask,Top*%
%TF.FilePolarity,Negative*%
%FSLAX46Y46*%
G04 Gerber Fmt 4.6, Leading zero omitted, Abs format (unit mm)*
G04 Created by KiCad (PCBNEW (5.1.9)-1) date 2021-01-18 22:58:22*
%MOMM*%
%LPD*%
G01*
G04 APERTURE LIST*
%ADD10C,2.600000*%
%ADD11R,2.600000X2.600000*%
%ADD12C,4.000000*%
%ADD13R,3.000000X3.000000*%
%ADD14C,4.500000*%
%ADD15O,2.200000X2.200000*%
%ADD16R,2.200000X2.200000*%
%ADD17O,2.000000X4.500000*%
%ADD18O,4.500000X2.000000*%
%ADD19R,4.500000X2.000000*%
%ADD20O,1.600000X2.000000*%
%ADD21R,2.000000X2.000000*%
%ADD22O,1.600000X1.600000*%
%ADD23C,1.600000*%
%ADD24C,1.700000*%
G04 APERTURE END LIST*
D10*
%TO.C,J2*%
X64262000Y-55452000D03*
D11*
X64262000Y-60452000D03*
%TD*%
D10*
%TO.C,J1*%
X88204000Y-96012000D03*
X93204000Y-96012000D03*
X98204000Y-96012000D03*
X103204000Y-96012000D03*
D11*
X108204000Y-96012000D03*
%TD*%
D12*
%TO.C,B1*%
X130260000Y-57980000D03*
X113760000Y-87480000D03*
D13*
X130760000Y-92480000D03*
X130760000Y-52480000D03*
X113260000Y-52480000D03*
X113260000Y-92480000D03*
%TD*%
D14*
%TO.C, *%
X54000000Y-62500000D03*
%TD*%
D15*
%TO.C,D1*%
X82296000Y-69088000D03*
D16*
X82296000Y-79248000D03*
%TD*%
D17*
%TO.C,J3*%
X133122000Y-98084000D03*
D18*
X137922000Y-94584000D03*
D19*
X137922000Y-100584000D03*
%TD*%
D20*
%TO.C,U1*%
X58674000Y-68072000D03*
X61214000Y-68072000D03*
X63754000Y-68072000D03*
X66294000Y-68072000D03*
X68834000Y-68072000D03*
X71374000Y-68072000D03*
X73914000Y-68072000D03*
X76454000Y-68072000D03*
X76454000Y-90932000D03*
X73914000Y-90932000D03*
X71374000Y-90932000D03*
X68834000Y-90932000D03*
X66294000Y-90932000D03*
X63754000Y-90932000D03*
D21*
X58674000Y-90932000D03*
D20*
X61214000Y-90932000D03*
%TD*%
D22*
%TO.C,R2*%
X62230000Y-74168000D03*
D23*
X62230000Y-84328000D03*
%TD*%
D22*
%TO.C,R1*%
X67310000Y-74168000D03*
D23*
X67310000Y-84328000D03*
%TD*%
D14*
%TO.C, *%
X149000000Y-90500000D03*
%TD*%
D23*
%TO.C,C2*%
X106466000Y-60198000D03*
X108966000Y-60198000D03*
%TD*%
%TO.C,C1*%
X73700000Y-73406000D03*
X76200000Y-73406000D03*
%TD*%
D24*
%TO.C,AK1*%
X93634000Y-54072000D03*
X96174000Y-54072000D03*
X98714000Y-54072000D03*
X101254000Y-54072000D03*
X103794000Y-54072000D03*
X106334000Y-54072000D03*
X108874000Y-54072000D03*
%TD*%
M02*
