M48
; DRILL file {KiCad (5.1.9)-1} date 01/18/21 22:58:21
; FORMAT={-:-/ absolute / inch / decimal}
; #@! TF.CreationDate,2021-01-18T22:58:21-06:00
; #@! TF.GenerationSoftware,Kicad,Pcbnew,(5.1.9)-1
; #@! TF.FileFunction,Plated,1,2,PTH
FMAT,2
INCH
T1C0.0315
T2C0.0394
T3C0.0433
T4C0.0512
T5C0.1181
%
G90
G05
T1
X2.45Y-2.92
X2.45Y-3.32
X2.65Y-2.92
X2.65Y-3.32
X2.9016Y-2.89
X3.0Y-2.89
X4.1916Y-2.37
X4.29Y-2.37
T2
X2.31Y-2.68
X2.31Y-3.58
X2.41Y-2.68
X2.41Y-3.58
X2.51Y-2.68
X2.51Y-3.58
X2.61Y-2.68
X2.61Y-3.58
X2.71Y-2.68
X2.71Y-3.58
X2.81Y-2.68
X2.81Y-3.58
X2.91Y-2.68
X2.91Y-3.58
X3.01Y-2.68
X3.01Y-3.58
X3.6864Y-2.1288
X3.7864Y-2.1288
X3.8864Y-2.1288
X3.9864Y-2.1288
X4.0864Y-2.1288
X4.1864Y-2.1288
X4.2864Y-2.1288
X4.4591Y-2.0661
X4.4591Y-3.6409
X5.148Y-2.0661
X5.148Y-3.6409
T3
X3.24Y-2.72
X3.24Y-3.12
T4
X2.53Y-2.1831
X2.53Y-2.38
X3.4726Y-3.78
X3.6694Y-3.78
X3.8663Y-3.78
X4.0631Y-3.78
X4.26Y-3.78
T5
X4.4787Y-3.4441
X5.1283Y-2.2827
T2
G00X5.241Y-3.9108
M15
G01X5.241Y-3.8124
M16
G05
G00X5.4792Y-3.7238
M15
G01X5.3808Y-3.7238
M16
G05
G00X5.4792Y-3.96
M15
G01X5.3808Y-3.96
M16
G05
T0
M30
