M48
; DRILL file {KiCad 7.0.9} date Fri Nov 24 07:46:00 2023
; FORMAT={-:-/ absolute / inch / decimal}
; #@! TF.CreationDate,2023-11-24T07:46:00-06:00
; #@! TF.GenerationSoftware,Kicad,Pcbnew,7.0.9
; #@! TF.FileFunction,Plated,1,2,PTH
FMAT,2
INCH
; #@! TA.AperFunction,Plated,PTH,ViaDrill
T1C0.0157
; #@! TA.AperFunction,Plated,PTH,ComponentDrill
T2C0.0197
; #@! TA.AperFunction,Plated,PTH,ComponentDrill
T3C0.0315
; #@! TA.AperFunction,Plated,PTH,ComponentDrill
T4C0.0394
; #@! TA.AperFunction,Plated,PTH,ComponentDrill
T5C0.0512
; #@! TA.AperFunction,Plated,PTH,ComponentDrill
T6C0.0709
%
G90
G05
T1
X1.3583Y-2.4803
X1.8031Y-1.8937
X1.8465Y-3.3622
X1.8583Y-3.4685
X1.8898Y-2.0906
X1.9143Y-2.1937
X1.9932Y-2.1967
X2.0039Y-3.3622
X2.0222Y-3.4702
X2.0685Y-3.584
X2.1299Y-3.4333
X2.1378Y-2.4803
X2.1735Y-3.364
X2.1908Y-2.4685
X2.2283Y-2.0433
X2.2913Y-3.563
X2.3152Y-2.3066
X2.3506Y-2.342
X2.3658Y-2.3816
X2.368Y-2.4734
X2.3966Y-2.5745
X2.437Y-2.315
X2.4449Y-2.6614
X2.4685Y-3.5591
X2.4882Y-2.3189
X2.5197Y-2.2008
X2.5436Y-2.4878
X2.5551Y-1.748
X2.5787Y-3.6063
X2.5866Y-1.0079
X2.6347Y-3.3776
X2.6654Y-3.5354
X2.7805Y-2.8565
X2.8504Y-1.6339
X2.9213Y-3.3465
X2.9331Y-3.437
X2.9803Y-2.2126
X3.0433Y-1.5276
X3.0591Y-2.5709
X3.1181Y-0.9724
X3.1575Y-2.7717
X3.3346Y-3.2598
X3.3937Y-1.0197
X3.5571Y-3.311
X3.6614Y-3.2953
X3.7047Y-2.2756
T4
X0.9764Y-2.1093
X0.9764Y-2.2093
X0.9764Y-2.3093
X1.4213Y-2.1081
X1.4213Y-2.2081
X1.4213Y-2.3081
T5
X0.9738Y-2.6738
X0.9738Y-2.8738
X0.9738Y-3.0738
X0.9738Y-3.2738
X0.9772Y-1.1817
X0.9772Y-1.3817
X0.9772Y-1.5817
X0.9772Y-1.7817
X1.2738Y-2.6738
X1.2738Y-2.8738
X1.2738Y-3.0738
X1.2738Y-3.2738
X1.2772Y-1.1817
X1.2772Y-1.3817
X1.2772Y-1.5817
X1.2772Y-1.7817
T6
X1.7911Y-1.1144
X1.7911Y-1.6656
X1.9486Y-1.1144
X1.9486Y-1.6656
T2
G00X2.5752Y-3.0595
M15
G01X2.5752Y-3.1028
M16
G05
G00X2.6598Y-2.9572
M15
G01X2.6598Y-2.9847
M16
G05
G00X2.6598Y-3.1776
M15
G01X2.6598Y-3.2052
M16
G05
T3
G00X2.2244Y-1.0531
M15
G01X2.3268Y-1.0531
M16
G05
G00X2.2323Y-1.2815
M15
G01X2.3189Y-1.2815
M16
G05
G00X2.4646Y-1.2146
M15
G01X2.4646Y-1.128
M16
G05
T0
M30
