G04 #@! TF.GenerationSoftware,KiCad,Pcbnew,(5.1.2)-2*
G04 #@! TF.CreationDate,2020-11-08T21:10:06-06:00*
G04 #@! TF.ProjectId,TempMonitor10PCB,54656d70-4d6f-46e6-9974-6f7231305043,rev?*
G04 #@! TF.SameCoordinates,Original*
G04 #@! TF.FileFunction,Legend,Top*
G04 #@! TF.FilePolarity,Positive*
%FSLAX46Y46*%
G04 Gerber Fmt 4.6, Leading zero omitted, Abs format (unit mm)*
G04 Created by KiCad (PCBNEW (5.1.2)-2) date 2020-11-08 21:10:06*
%MOMM*%
%LPD*%
G04 APERTURE LIST*
%ADD10C,0.150000*%
%ADD11C,0.120000*%
%ADD12C,0.152400*%
%ADD13C,0.100000*%
%ADD14C,0.127000*%
G04 APERTURE END LIST*
D10*
X84141085Y-117362314D02*
X84141085Y-118028980D01*
X83902990Y-116981361D02*
X83664895Y-117695647D01*
X84283942Y-117695647D01*
X84664895Y-117933742D02*
X84712514Y-117981361D01*
X84664895Y-118028980D01*
X84617276Y-117981361D01*
X84664895Y-117933742D01*
X84664895Y-118028980D01*
X85617276Y-117028980D02*
X85141085Y-117028980D01*
X85093466Y-117505171D01*
X85141085Y-117457552D01*
X85236323Y-117409933D01*
X85474419Y-117409933D01*
X85569657Y-117457552D01*
X85617276Y-117505171D01*
X85664895Y-117600409D01*
X85664895Y-117838504D01*
X85617276Y-117933742D01*
X85569657Y-117981361D01*
X85474419Y-118028980D01*
X85236323Y-118028980D01*
X85141085Y-117981361D01*
X85093466Y-117933742D01*
X86855371Y-117648028D02*
X87617276Y-117648028D01*
X88807752Y-117124219D02*
X88855371Y-117076600D01*
X88950609Y-117028980D01*
X89188704Y-117028980D01*
X89283942Y-117076600D01*
X89331561Y-117124219D01*
X89379180Y-117219457D01*
X89379180Y-117314695D01*
X89331561Y-117457552D01*
X88760133Y-118028980D01*
X89379180Y-118028980D01*
X90236323Y-117362314D02*
X90236323Y-118028980D01*
X89998228Y-116981361D02*
X89760133Y-117695647D01*
X90379180Y-117695647D01*
X90617276Y-117028980D02*
X90950609Y-118028980D01*
X91283942Y-117028980D01*
X84353495Y-122258200D02*
X84258257Y-122210580D01*
X84115400Y-122210580D01*
X83972542Y-122258200D01*
X83877304Y-122353438D01*
X83829685Y-122448676D01*
X83782066Y-122639152D01*
X83782066Y-122782009D01*
X83829685Y-122972485D01*
X83877304Y-123067723D01*
X83972542Y-123162961D01*
X84115400Y-123210580D01*
X84210638Y-123210580D01*
X84353495Y-123162961D01*
X84401114Y-123115342D01*
X84401114Y-122782009D01*
X84210638Y-122782009D01*
X84829685Y-123210580D02*
X84829685Y-122210580D01*
X85401114Y-123210580D01*
X85401114Y-122210580D01*
X85877304Y-123210580D02*
X85877304Y-122210580D01*
X86115400Y-122210580D01*
X86258257Y-122258200D01*
X86353495Y-122353438D01*
X86401114Y-122448676D01*
X86448733Y-122639152D01*
X86448733Y-122782009D01*
X86401114Y-122972485D01*
X86353495Y-123067723D01*
X86258257Y-123162961D01*
X86115400Y-123210580D01*
X85877304Y-123210580D01*
X84709095Y-57716800D02*
X84613857Y-57669180D01*
X84471000Y-57669180D01*
X84328142Y-57716800D01*
X84232904Y-57812038D01*
X84185285Y-57907276D01*
X84137666Y-58097752D01*
X84137666Y-58240609D01*
X84185285Y-58431085D01*
X84232904Y-58526323D01*
X84328142Y-58621561D01*
X84471000Y-58669180D01*
X84566238Y-58669180D01*
X84709095Y-58621561D01*
X84756714Y-58573942D01*
X84756714Y-58240609D01*
X84566238Y-58240609D01*
X85185285Y-58669180D02*
X85185285Y-57669180D01*
X85756714Y-58669180D01*
X85756714Y-57669180D01*
X86232904Y-58669180D02*
X86232904Y-57669180D01*
X86471000Y-57669180D01*
X86613857Y-57716800D01*
X86709095Y-57812038D01*
X86756714Y-57907276D01*
X86804333Y-58097752D01*
X86804333Y-58240609D01*
X86756714Y-58431085D01*
X86709095Y-58526323D01*
X86613857Y-58621561D01*
X86471000Y-58669180D01*
X86232904Y-58669180D01*
X84166342Y-53389161D02*
X84309200Y-53436780D01*
X84547295Y-53436780D01*
X84642533Y-53389161D01*
X84690152Y-53341542D01*
X84737771Y-53246304D01*
X84737771Y-53151066D01*
X84690152Y-53055828D01*
X84642533Y-53008209D01*
X84547295Y-52960590D01*
X84356819Y-52912971D01*
X84261580Y-52865352D01*
X84213961Y-52817733D01*
X84166342Y-52722495D01*
X84166342Y-52627257D01*
X84213961Y-52532019D01*
X84261580Y-52484400D01*
X84356819Y-52436780D01*
X84594914Y-52436780D01*
X84737771Y-52484400D01*
X85166342Y-53436780D02*
X85166342Y-52770114D01*
X85166342Y-52436780D02*
X85118723Y-52484400D01*
X85166342Y-52532019D01*
X85213961Y-52484400D01*
X85166342Y-52436780D01*
X85166342Y-52532019D01*
X86071104Y-52770114D02*
X86071104Y-53579638D01*
X86023485Y-53674876D01*
X85975866Y-53722495D01*
X85880628Y-53770114D01*
X85737771Y-53770114D01*
X85642533Y-53722495D01*
X86071104Y-53389161D02*
X85975866Y-53436780D01*
X85785390Y-53436780D01*
X85690152Y-53389161D01*
X85642533Y-53341542D01*
X85594914Y-53246304D01*
X85594914Y-52960590D01*
X85642533Y-52865352D01*
X85690152Y-52817733D01*
X85785390Y-52770114D01*
X85975866Y-52770114D01*
X86071104Y-52817733D01*
X86547295Y-52770114D02*
X86547295Y-53436780D01*
X86547295Y-52865352D02*
X86594914Y-52817733D01*
X86690152Y-52770114D01*
X86833009Y-52770114D01*
X86928247Y-52817733D01*
X86975866Y-52912971D01*
X86975866Y-53436780D01*
X87880628Y-53436780D02*
X87880628Y-52912971D01*
X87833009Y-52817733D01*
X87737771Y-52770114D01*
X87547295Y-52770114D01*
X87452057Y-52817733D01*
X87880628Y-53389161D02*
X87785390Y-53436780D01*
X87547295Y-53436780D01*
X87452057Y-53389161D01*
X87404438Y-53293923D01*
X87404438Y-53198685D01*
X87452057Y-53103447D01*
X87547295Y-53055828D01*
X87785390Y-53055828D01*
X87880628Y-53008209D01*
X88499676Y-53436780D02*
X88404438Y-53389161D01*
X88356819Y-53293923D01*
X88356819Y-52436780D01*
X59371980Y-125841971D02*
X59371980Y-125270542D01*
X60371980Y-125556257D02*
X59371980Y-125556257D01*
X60324361Y-124556257D02*
X60371980Y-124651495D01*
X60371980Y-124841971D01*
X60324361Y-124937209D01*
X60229123Y-124984828D01*
X59848171Y-124984828D01*
X59752933Y-124937209D01*
X59705314Y-124841971D01*
X59705314Y-124651495D01*
X59752933Y-124556257D01*
X59848171Y-124508638D01*
X59943409Y-124508638D01*
X60038647Y-124984828D01*
X60371980Y-124080066D02*
X59705314Y-124080066D01*
X59800552Y-124080066D02*
X59752933Y-124032447D01*
X59705314Y-123937209D01*
X59705314Y-123794352D01*
X59752933Y-123699114D01*
X59848171Y-123651495D01*
X60371980Y-123651495D01*
X59848171Y-123651495D02*
X59752933Y-123603876D01*
X59705314Y-123508638D01*
X59705314Y-123365780D01*
X59752933Y-123270542D01*
X59848171Y-123222923D01*
X60371980Y-123222923D01*
X59705314Y-122746733D02*
X60705314Y-122746733D01*
X59752933Y-122746733D02*
X59705314Y-122651495D01*
X59705314Y-122461019D01*
X59752933Y-122365780D01*
X59800552Y-122318161D01*
X59895790Y-122270542D01*
X60181504Y-122270542D01*
X60276742Y-122318161D01*
X60324361Y-122365780D01*
X60371980Y-122461019D01*
X60371980Y-122651495D01*
X60324361Y-122746733D01*
X60371980Y-121841971D02*
X59371980Y-121841971D01*
X60086266Y-121508638D01*
X59371980Y-121175304D01*
X60371980Y-121175304D01*
X60371980Y-120556257D02*
X60324361Y-120651495D01*
X60276742Y-120699114D01*
X60181504Y-120746733D01*
X59895790Y-120746733D01*
X59800552Y-120699114D01*
X59752933Y-120651495D01*
X59705314Y-120556257D01*
X59705314Y-120413400D01*
X59752933Y-120318161D01*
X59800552Y-120270542D01*
X59895790Y-120222923D01*
X60181504Y-120222923D01*
X60276742Y-120270542D01*
X60324361Y-120318161D01*
X60371980Y-120413400D01*
X60371980Y-120556257D01*
X59705314Y-119794352D02*
X60371980Y-119794352D01*
X59800552Y-119794352D02*
X59752933Y-119746733D01*
X59705314Y-119651495D01*
X59705314Y-119508638D01*
X59752933Y-119413400D01*
X59848171Y-119365780D01*
X60371980Y-119365780D01*
X60371980Y-118889590D02*
X59705314Y-118889590D01*
X59371980Y-118889590D02*
X59419600Y-118937209D01*
X59467219Y-118889590D01*
X59419600Y-118841971D01*
X59371980Y-118889590D01*
X59467219Y-118889590D01*
X59705314Y-118556257D02*
X59705314Y-118175304D01*
X59371980Y-118413400D02*
X60229123Y-118413400D01*
X60324361Y-118365780D01*
X60371980Y-118270542D01*
X60371980Y-118175304D01*
X60371980Y-117699114D02*
X60324361Y-117794352D01*
X60276742Y-117841971D01*
X60181504Y-117889590D01*
X59895790Y-117889590D01*
X59800552Y-117841971D01*
X59752933Y-117794352D01*
X59705314Y-117699114D01*
X59705314Y-117556257D01*
X59752933Y-117461019D01*
X59800552Y-117413400D01*
X59895790Y-117365780D01*
X60181504Y-117365780D01*
X60276742Y-117413400D01*
X60324361Y-117461019D01*
X60371980Y-117556257D01*
X60371980Y-117699114D01*
X60371980Y-116937209D02*
X59705314Y-116937209D01*
X59895790Y-116937209D02*
X59800552Y-116889590D01*
X59752933Y-116841971D01*
X59705314Y-116746733D01*
X59705314Y-116651495D01*
X60371980Y-115032447D02*
X60371980Y-115603876D01*
X60371980Y-115318161D02*
X59371980Y-115318161D01*
X59514838Y-115413400D01*
X59610076Y-115508638D01*
X59657695Y-115603876D01*
X59371980Y-114413400D02*
X59371980Y-114318161D01*
X59419600Y-114222923D01*
X59467219Y-114175304D01*
X59562457Y-114127685D01*
X59752933Y-114080066D01*
X59991028Y-114080066D01*
X60181504Y-114127685D01*
X60276742Y-114175304D01*
X60324361Y-114222923D01*
X60371980Y-114318161D01*
X60371980Y-114413400D01*
X60324361Y-114508638D01*
X60276742Y-114556257D01*
X60181504Y-114603876D01*
X59991028Y-114651495D01*
X59752933Y-114651495D01*
X59562457Y-114603876D01*
X59467219Y-114556257D01*
X59419600Y-114508638D01*
X59371980Y-114413400D01*
X61450552Y-124508638D02*
X61402933Y-124603876D01*
X61355314Y-124651495D01*
X61260076Y-124699114D01*
X61212457Y-124699114D01*
X61117219Y-124651495D01*
X61069600Y-124603876D01*
X61021980Y-124508638D01*
X61021980Y-124318161D01*
X61069600Y-124222923D01*
X61117219Y-124175304D01*
X61212457Y-124127685D01*
X61260076Y-124127685D01*
X61355314Y-124175304D01*
X61402933Y-124222923D01*
X61450552Y-124318161D01*
X61450552Y-124508638D01*
X61498171Y-124603876D01*
X61545790Y-124651495D01*
X61641028Y-124699114D01*
X61831504Y-124699114D01*
X61926742Y-124651495D01*
X61974361Y-124603876D01*
X62021980Y-124508638D01*
X62021980Y-124318161D01*
X61974361Y-124222923D01*
X61926742Y-124175304D01*
X61831504Y-124127685D01*
X61641028Y-124127685D01*
X61545790Y-124175304D01*
X61498171Y-124222923D01*
X61450552Y-124318161D01*
X61641028Y-123699114D02*
X61641028Y-122937209D01*
X62021980Y-122461019D02*
X61021980Y-122461019D01*
X62021980Y-121889590D01*
X61021980Y-121889590D01*
X62021980Y-121270542D02*
X61974361Y-121365780D01*
X61926742Y-121413400D01*
X61831504Y-121461019D01*
X61545790Y-121461019D01*
X61450552Y-121413400D01*
X61402933Y-121365780D01*
X61355314Y-121270542D01*
X61355314Y-121127685D01*
X61402933Y-121032447D01*
X61450552Y-120984828D01*
X61545790Y-120937209D01*
X61831504Y-120937209D01*
X61926742Y-120984828D01*
X61974361Y-121032447D01*
X62021980Y-121127685D01*
X62021980Y-121270542D01*
X61355314Y-120603876D02*
X62021980Y-120365780D01*
X61355314Y-120127685D01*
X61641028Y-119746733D02*
X61641028Y-118984828D01*
X61117219Y-118556257D02*
X61069600Y-118508638D01*
X61021980Y-118413400D01*
X61021980Y-118175304D01*
X61069600Y-118080066D01*
X61117219Y-118032447D01*
X61212457Y-117984828D01*
X61307695Y-117984828D01*
X61450552Y-118032447D01*
X62021980Y-118603876D01*
X62021980Y-117984828D01*
X61021980Y-117365780D02*
X61021980Y-117270542D01*
X61069600Y-117175304D01*
X61117219Y-117127685D01*
X61212457Y-117080066D01*
X61402933Y-117032447D01*
X61641028Y-117032447D01*
X61831504Y-117080066D01*
X61926742Y-117127685D01*
X61974361Y-117175304D01*
X62021980Y-117270542D01*
X62021980Y-117365780D01*
X61974361Y-117461019D01*
X61926742Y-117508638D01*
X61831504Y-117556257D01*
X61641028Y-117603876D01*
X61402933Y-117603876D01*
X61212457Y-117556257D01*
X61117219Y-117508638D01*
X61069600Y-117461019D01*
X61021980Y-117365780D01*
X61117219Y-116651495D02*
X61069600Y-116603876D01*
X61021980Y-116508638D01*
X61021980Y-116270542D01*
X61069600Y-116175304D01*
X61117219Y-116127685D01*
X61212457Y-116080066D01*
X61307695Y-116080066D01*
X61450552Y-116127685D01*
X62021980Y-116699114D01*
X62021980Y-116080066D01*
X61021980Y-115461019D02*
X61021980Y-115365780D01*
X61069600Y-115270542D01*
X61117219Y-115222923D01*
X61212457Y-115175304D01*
X61402933Y-115127685D01*
X61641028Y-115127685D01*
X61831504Y-115175304D01*
X61926742Y-115222923D01*
X61974361Y-115270542D01*
X62021980Y-115365780D01*
X62021980Y-115461019D01*
X61974361Y-115556257D01*
X61926742Y-115603876D01*
X61831504Y-115651495D01*
X61641028Y-115699114D01*
X61402933Y-115699114D01*
X61212457Y-115651495D01*
X61117219Y-115603876D01*
X61069600Y-115556257D01*
X61021980Y-115461019D01*
X63005314Y-125699114D02*
X63005314Y-125318161D01*
X63671980Y-125556257D02*
X62814838Y-125556257D01*
X62719600Y-125508638D01*
X62671980Y-125413400D01*
X62671980Y-125318161D01*
X63671980Y-124841971D02*
X63624361Y-124937209D01*
X63576742Y-124984828D01*
X63481504Y-125032447D01*
X63195790Y-125032447D01*
X63100552Y-124984828D01*
X63052933Y-124937209D01*
X63005314Y-124841971D01*
X63005314Y-124699114D01*
X63052933Y-124603876D01*
X63100552Y-124556257D01*
X63195790Y-124508638D01*
X63481504Y-124508638D01*
X63576742Y-124556257D01*
X63624361Y-124603876D01*
X63671980Y-124699114D01*
X63671980Y-124841971D01*
X63671980Y-124080066D02*
X63005314Y-124080066D01*
X63195790Y-124080066D02*
X63100552Y-124032447D01*
X63052933Y-123984828D01*
X63005314Y-123889590D01*
X63005314Y-123794352D01*
X63671980Y-122699114D02*
X62671980Y-122699114D01*
X63671980Y-122127685D01*
X62671980Y-122127685D01*
X63148171Y-121318161D02*
X63195790Y-121175304D01*
X63243409Y-121127685D01*
X63338647Y-121080066D01*
X63481504Y-121080066D01*
X63576742Y-121127685D01*
X63624361Y-121175304D01*
X63671980Y-121270542D01*
X63671980Y-121651495D01*
X62671980Y-121651495D01*
X62671980Y-121318161D01*
X62719600Y-121222923D01*
X62767219Y-121175304D01*
X62862457Y-121127685D01*
X62957695Y-121127685D01*
X63052933Y-121175304D01*
X63100552Y-121222923D01*
X63148171Y-121318161D01*
X63148171Y-121651495D01*
X63148171Y-120318161D02*
X63148171Y-120651495D01*
X63671980Y-120651495D02*
X62671980Y-120651495D01*
X62671980Y-120175304D01*
X63291028Y-119794352D02*
X63291028Y-119032447D01*
X62671980Y-118651495D02*
X62671980Y-118032447D01*
X63052933Y-118365780D01*
X63052933Y-118222923D01*
X63100552Y-118127685D01*
X63148171Y-118080066D01*
X63243409Y-118032447D01*
X63481504Y-118032447D01*
X63576742Y-118080066D01*
X63624361Y-118127685D01*
X63671980Y-118222923D01*
X63671980Y-118508638D01*
X63624361Y-118603876D01*
X63576742Y-118651495D01*
X62767219Y-117651495D02*
X62719600Y-117603876D01*
X62671980Y-117508638D01*
X62671980Y-117270542D01*
X62719600Y-117175304D01*
X62767219Y-117127685D01*
X62862457Y-117080066D01*
X62957695Y-117080066D01*
X63100552Y-117127685D01*
X63671980Y-117699114D01*
X63671980Y-117080066D01*
X62671980Y-116461019D02*
X62671980Y-116365780D01*
X62719600Y-116270542D01*
X62767219Y-116222923D01*
X62862457Y-116175304D01*
X63052933Y-116127685D01*
X63291028Y-116127685D01*
X63481504Y-116175304D01*
X63576742Y-116222923D01*
X63624361Y-116270542D01*
X63671980Y-116365780D01*
X63671980Y-116461019D01*
X63624361Y-116556257D01*
X63576742Y-116603876D01*
X63481504Y-116651495D01*
X63291028Y-116699114D01*
X63052933Y-116699114D01*
X62862457Y-116651495D01*
X62767219Y-116603876D01*
X62719600Y-116556257D01*
X62671980Y-116461019D01*
X62671980Y-115508638D02*
X62671980Y-115413400D01*
X62719600Y-115318161D01*
X62767219Y-115270542D01*
X62862457Y-115222923D01*
X63052933Y-115175304D01*
X63291028Y-115175304D01*
X63481504Y-115222923D01*
X63576742Y-115270542D01*
X63624361Y-115318161D01*
X63671980Y-115413400D01*
X63671980Y-115508638D01*
X63624361Y-115603876D01*
X63576742Y-115651495D01*
X63481504Y-115699114D01*
X63291028Y-115746733D01*
X63052933Y-115746733D01*
X62862457Y-115699114D01*
X62767219Y-115651495D01*
X62719600Y-115603876D01*
X62671980Y-115508638D01*
X63005314Y-114318161D02*
X63671980Y-114318161D01*
X62624361Y-114556257D02*
X63338647Y-114794352D01*
X63338647Y-114175304D01*
D11*
X73516200Y-114954400D02*
X73516200Y-115354400D01*
X74156200Y-114954400D02*
X73516200Y-114954400D01*
X77824200Y-121496400D02*
X77428200Y-121101400D01*
X80470200Y-124142400D02*
X80090200Y-123762400D01*
X77542200Y-121747400D02*
X77162200Y-121367400D01*
X80204200Y-124408400D02*
X79808200Y-124013400D01*
X77535200Y-116206400D02*
X77428200Y-116100400D01*
X80470200Y-119142400D02*
X80363200Y-119035400D01*
X77269200Y-116472400D02*
X77162200Y-116366400D01*
X80204200Y-119408400D02*
X80097200Y-119301400D01*
X82876200Y-125314400D02*
X73756200Y-125314400D01*
X82876200Y-115194400D02*
X73756200Y-115194400D01*
X73756200Y-115194400D02*
X73756200Y-125314400D01*
X82876200Y-115194400D02*
X82876200Y-125314400D01*
X75316200Y-115194400D02*
X75316200Y-125314400D01*
X74216200Y-115194400D02*
X74216200Y-125314400D01*
X80996200Y-122754400D02*
G75*
G03X80996200Y-122754400I-2180000J0D01*
G01*
X80996200Y-117754400D02*
G75*
G03X80996200Y-117754400I-2180000J0D01*
G01*
X73706200Y-113112600D02*
X91666200Y-113112600D01*
X73706200Y-97592600D02*
X73706200Y-113112600D01*
X73706200Y-97592600D02*
X91666200Y-97592600D01*
X91666200Y-113112600D02*
X91666200Y-97592600D01*
X77586200Y-113297600D02*
X77086200Y-113797600D01*
X77086200Y-113797600D02*
X78086200Y-113797600D01*
X78086200Y-113797600D02*
X77586200Y-113297600D01*
X73706200Y-95555800D02*
X91666200Y-95555800D01*
X73706200Y-80035800D02*
X73706200Y-95555800D01*
X73706200Y-80035800D02*
X91666200Y-80035800D01*
X91666200Y-95555800D02*
X91666200Y-80035800D01*
X77586200Y-95740800D02*
X77086200Y-96240800D01*
X77086200Y-96240800D02*
X78086200Y-96240800D01*
X78086200Y-96240800D02*
X77586200Y-95740800D01*
X73706200Y-77999000D02*
X91666200Y-77999000D01*
X73706200Y-62479000D02*
X73706200Y-77999000D01*
X73706200Y-62479000D02*
X91666200Y-62479000D01*
X91666200Y-77999000D02*
X91666200Y-62479000D01*
X77586200Y-78184000D02*
X77086200Y-78684000D01*
X77086200Y-78684000D02*
X78086200Y-78684000D01*
X78086200Y-78684000D02*
X77586200Y-78184000D01*
X73516200Y-50362200D02*
X73516200Y-50762200D01*
X74156200Y-50362200D02*
X73516200Y-50362200D01*
X77824200Y-56904200D02*
X77428200Y-56509200D01*
X80470200Y-59550200D02*
X80090200Y-59170200D01*
X77542200Y-57155200D02*
X77162200Y-56775200D01*
X80204200Y-59816200D02*
X79808200Y-59421200D01*
X77535200Y-51614200D02*
X77428200Y-51508200D01*
X80470200Y-54550200D02*
X80363200Y-54443200D01*
X77269200Y-51880200D02*
X77162200Y-51774200D01*
X80204200Y-54816200D02*
X80097200Y-54709200D01*
X82876200Y-60722200D02*
X73756200Y-60722200D01*
X82876200Y-50602200D02*
X73756200Y-50602200D01*
X73756200Y-50602200D02*
X73756200Y-60722200D01*
X82876200Y-50602200D02*
X82876200Y-60722200D01*
X75316200Y-50602200D02*
X75316200Y-60722200D01*
X74216200Y-50602200D02*
X74216200Y-60722200D01*
X80996200Y-58162200D02*
G75*
G03X80996200Y-58162200I-2180000J0D01*
G01*
X80996200Y-53162200D02*
G75*
G03X80996200Y-53162200I-2180000J0D01*
G01*
X50441599Y-99835401D02*
X60441599Y-99835401D01*
X50441599Y-89635401D02*
X60441599Y-89635401D01*
X60441599Y-99835401D02*
X60441599Y-89635401D01*
X50441599Y-99835401D02*
X50441599Y-89635401D01*
X55472200Y-77012800D02*
X56242200Y-77012800D01*
X63552200Y-77012800D02*
X62782200Y-77012800D01*
X56242200Y-78382800D02*
X62782200Y-78382800D01*
X56242200Y-75642800D02*
X56242200Y-78382800D01*
X62782200Y-75642800D02*
X56242200Y-75642800D01*
X62782200Y-78382800D02*
X62782200Y-75642800D01*
X55472200Y-82677000D02*
X56242200Y-82677000D01*
X63552200Y-82677000D02*
X62782200Y-82677000D01*
X56242200Y-84047000D02*
X62782200Y-84047000D01*
X56242200Y-81307000D02*
X56242200Y-84047000D01*
X62782200Y-81307000D02*
X56242200Y-81307000D01*
X62782200Y-84047000D02*
X62782200Y-81307000D01*
X61238000Y-57505600D02*
X62008000Y-57505600D01*
X69318000Y-57505600D02*
X68548000Y-57505600D01*
X62008000Y-58875600D02*
X68548000Y-58875600D01*
X62008000Y-56135600D02*
X62008000Y-58875600D01*
X68548000Y-56135600D02*
X62008000Y-56135600D01*
X68548000Y-58875600D02*
X68548000Y-56135600D01*
X66446200Y-59486800D02*
X66446200Y-84286800D01*
X52146200Y-59486800D02*
X52146200Y-84286800D01*
X52146200Y-84286800D02*
X66446200Y-84286800D01*
X52146200Y-59486800D02*
X66446200Y-59486800D01*
D12*
X66598800Y-107823000D02*
X66598800Y-109093000D01*
X67183000Y-109093000D02*
X66598800Y-109093000D01*
X66598800Y-109093000D02*
X67183000Y-110236000D01*
X67183000Y-110236000D02*
X66014600Y-110236000D01*
X66014600Y-110236000D02*
X66598800Y-109093000D01*
X66598800Y-109093000D02*
X66598800Y-111379000D01*
X66598800Y-109093000D02*
X66014600Y-109093000D01*
X63804800Y-104013000D02*
X69392800Y-104013000D01*
X69392800Y-114173000D02*
X63804800Y-114173000D01*
X69392800Y-104013000D02*
X69392800Y-114173000D01*
X63804800Y-114173000D02*
X63804800Y-104013000D01*
D13*
G36*
X63804800Y-104902000D02*
G01*
X63804800Y-105664000D01*
X69392800Y-105664000D01*
X69392800Y-104902000D01*
X63804800Y-104902000D01*
G37*
G36*
X65963800Y-103124000D02*
G01*
X65963800Y-104013000D01*
X67233800Y-104013000D01*
X67233800Y-103124000D01*
X65963800Y-103124000D01*
G37*
G36*
X65963800Y-114173000D02*
G01*
X65963800Y-115062000D01*
X67233800Y-115062000D01*
X67233800Y-114173000D01*
X65963800Y-114173000D01*
G37*
D11*
X70041000Y-54671400D02*
X70197000Y-54671400D01*
X67725000Y-54671400D02*
X67881000Y-54671400D01*
X70040837Y-52070270D02*
G75*
G02X70041000Y-54152361I-1079837J-1041130D01*
G01*
X67881163Y-52070270D02*
G75*
G03X67881000Y-54152361I1079837J-1041130D01*
G01*
X70039608Y-51439065D02*
G75*
G02X70196516Y-54671400I-1078608J-1672335D01*
G01*
X67882392Y-51439065D02*
G75*
G03X67725484Y-54671400I1078608J-1672335D01*
G01*
X58797800Y-105698954D02*
X57797800Y-105698954D01*
X58297800Y-105198954D02*
X58297800Y-106198954D01*
X56021800Y-115759600D02*
X54823800Y-115759600D01*
X56284800Y-115719600D02*
X54560800Y-115719600D01*
X56484800Y-115679600D02*
X54360800Y-115679600D01*
X56652800Y-115639600D02*
X54192800Y-115639600D01*
X56800800Y-115599600D02*
X54044800Y-115599600D01*
X56932800Y-115559600D02*
X53912800Y-115559600D01*
X57052800Y-115519600D02*
X53792800Y-115519600D01*
X57164800Y-115479600D02*
X53680800Y-115479600D01*
X57268800Y-115439600D02*
X53576800Y-115439600D01*
X57366800Y-115399600D02*
X53478800Y-115399600D01*
X57459800Y-115359600D02*
X53385800Y-115359600D01*
X57547800Y-115319600D02*
X53297800Y-115319600D01*
X57631800Y-115279600D02*
X53213800Y-115279600D01*
X57711800Y-115239600D02*
X53133800Y-115239600D01*
X57787800Y-115199600D02*
X53057800Y-115199600D01*
X57861800Y-115159600D02*
X52983800Y-115159600D01*
X57932800Y-115119600D02*
X52912800Y-115119600D01*
X58001800Y-115079600D02*
X52843800Y-115079600D01*
X58067800Y-115039600D02*
X52777800Y-115039600D01*
X58131800Y-114999600D02*
X52713800Y-114999600D01*
X58192800Y-114959600D02*
X52652800Y-114959600D01*
X58252800Y-114919600D02*
X52592800Y-114919600D01*
X58311800Y-114879600D02*
X52533800Y-114879600D01*
X58367800Y-114839600D02*
X52477800Y-114839600D01*
X58422800Y-114799600D02*
X52422800Y-114799600D01*
X58476800Y-114759600D02*
X52368800Y-114759600D01*
X58528800Y-114719600D02*
X52316800Y-114719600D01*
X58578800Y-114679600D02*
X52266800Y-114679600D01*
X58628800Y-114639600D02*
X52216800Y-114639600D01*
X58676800Y-114599600D02*
X52168800Y-114599600D01*
X58723800Y-114559600D02*
X52121800Y-114559600D01*
X58769800Y-114519600D02*
X52075800Y-114519600D01*
X58814800Y-114479600D02*
X52030800Y-114479600D01*
X58858800Y-114439600D02*
X51986800Y-114439600D01*
X54181800Y-114399600D02*
X51944800Y-114399600D01*
X58900800Y-114399600D02*
X56663800Y-114399600D01*
X54181800Y-114359600D02*
X51902800Y-114359600D01*
X58942800Y-114359600D02*
X56663800Y-114359600D01*
X54181800Y-114319600D02*
X51861800Y-114319600D01*
X58983800Y-114319600D02*
X56663800Y-114319600D01*
X54181800Y-114279600D02*
X51821800Y-114279600D01*
X59023800Y-114279600D02*
X56663800Y-114279600D01*
X54181800Y-114239600D02*
X51782800Y-114239600D01*
X59062800Y-114239600D02*
X56663800Y-114239600D01*
X54181800Y-114199600D02*
X51743800Y-114199600D01*
X59101800Y-114199600D02*
X56663800Y-114199600D01*
X54181800Y-114159600D02*
X51706800Y-114159600D01*
X59138800Y-114159600D02*
X56663800Y-114159600D01*
X54181800Y-114119600D02*
X51669800Y-114119600D01*
X59175800Y-114119600D02*
X56663800Y-114119600D01*
X54181800Y-114079600D02*
X51633800Y-114079600D01*
X59211800Y-114079600D02*
X56663800Y-114079600D01*
X54181800Y-114039600D02*
X51598800Y-114039600D01*
X59246800Y-114039600D02*
X56663800Y-114039600D01*
X54181800Y-113999600D02*
X51564800Y-113999600D01*
X59280800Y-113999600D02*
X56663800Y-113999600D01*
X54181800Y-113959600D02*
X51530800Y-113959600D01*
X59314800Y-113959600D02*
X56663800Y-113959600D01*
X54181800Y-113919600D02*
X51497800Y-113919600D01*
X59347800Y-113919600D02*
X56663800Y-113919600D01*
X54181800Y-113879600D02*
X51465800Y-113879600D01*
X59379800Y-113879600D02*
X56663800Y-113879600D01*
X54181800Y-113839600D02*
X51433800Y-113839600D01*
X59411800Y-113839600D02*
X56663800Y-113839600D01*
X54181800Y-113799600D02*
X51402800Y-113799600D01*
X59442800Y-113799600D02*
X56663800Y-113799600D01*
X54181800Y-113759600D02*
X51372800Y-113759600D01*
X59472800Y-113759600D02*
X56663800Y-113759600D01*
X54181800Y-113719600D02*
X51342800Y-113719600D01*
X59502800Y-113719600D02*
X56663800Y-113719600D01*
X54181800Y-113679600D02*
X51312800Y-113679600D01*
X59532800Y-113679600D02*
X56663800Y-113679600D01*
X54181800Y-113639600D02*
X51284800Y-113639600D01*
X59560800Y-113639600D02*
X56663800Y-113639600D01*
X54181800Y-113599600D02*
X51256800Y-113599600D01*
X59588800Y-113599600D02*
X56663800Y-113599600D01*
X54181800Y-113559600D02*
X51228800Y-113559600D01*
X59616800Y-113559600D02*
X56663800Y-113559600D01*
X54181800Y-113519600D02*
X51201800Y-113519600D01*
X59643800Y-113519600D02*
X56663800Y-113519600D01*
X54181800Y-113479600D02*
X51175800Y-113479600D01*
X59669800Y-113479600D02*
X56663800Y-113479600D01*
X54181800Y-113439600D02*
X51149800Y-113439600D01*
X59695800Y-113439600D02*
X56663800Y-113439600D01*
X54181800Y-113399600D02*
X51124800Y-113399600D01*
X59720800Y-113399600D02*
X56663800Y-113399600D01*
X54181800Y-113359600D02*
X51099800Y-113359600D01*
X59745800Y-113359600D02*
X56663800Y-113359600D01*
X54181800Y-113319600D02*
X51075800Y-113319600D01*
X59769800Y-113319600D02*
X56663800Y-113319600D01*
X54181800Y-113279600D02*
X51051800Y-113279600D01*
X59793800Y-113279600D02*
X56663800Y-113279600D01*
X54181800Y-113239600D02*
X51027800Y-113239600D01*
X59817800Y-113239600D02*
X56663800Y-113239600D01*
X54181800Y-113199600D02*
X51005800Y-113199600D01*
X59839800Y-113199600D02*
X56663800Y-113199600D01*
X54181800Y-113159600D02*
X50982800Y-113159600D01*
X59862800Y-113159600D02*
X56663800Y-113159600D01*
X54181800Y-113119600D02*
X50960800Y-113119600D01*
X59884800Y-113119600D02*
X56663800Y-113119600D01*
X54181800Y-113079600D02*
X50939800Y-113079600D01*
X59905800Y-113079600D02*
X56663800Y-113079600D01*
X54181800Y-113039600D02*
X50918800Y-113039600D01*
X59926800Y-113039600D02*
X56663800Y-113039600D01*
X54181800Y-112999600D02*
X50897800Y-112999600D01*
X59947800Y-112999600D02*
X56663800Y-112999600D01*
X54181800Y-112959600D02*
X50877800Y-112959600D01*
X59967800Y-112959600D02*
X56663800Y-112959600D01*
X54181800Y-112919600D02*
X50858800Y-112919600D01*
X59986800Y-112919600D02*
X56663800Y-112919600D01*
X54181800Y-112879600D02*
X50838800Y-112879600D01*
X60006800Y-112879600D02*
X56663800Y-112879600D01*
X54181800Y-112839600D02*
X50819800Y-112839600D01*
X60025800Y-112839600D02*
X56663800Y-112839600D01*
X54181800Y-112799600D02*
X50801800Y-112799600D01*
X60043800Y-112799600D02*
X56663800Y-112799600D01*
X54181800Y-112759600D02*
X50783800Y-112759600D01*
X60061800Y-112759600D02*
X56663800Y-112759600D01*
X54181800Y-112719600D02*
X50765800Y-112719600D01*
X60079800Y-112719600D02*
X56663800Y-112719600D01*
X54181800Y-112679600D02*
X50748800Y-112679600D01*
X60096800Y-112679600D02*
X56663800Y-112679600D01*
X54181800Y-112639600D02*
X50732800Y-112639600D01*
X60112800Y-112639600D02*
X56663800Y-112639600D01*
X54181800Y-112599600D02*
X50715800Y-112599600D01*
X60129800Y-112599600D02*
X56663800Y-112599600D01*
X54181800Y-112559600D02*
X50699800Y-112559600D01*
X60145800Y-112559600D02*
X56663800Y-112559600D01*
X54181800Y-112519600D02*
X50684800Y-112519600D01*
X60160800Y-112519600D02*
X56663800Y-112519600D01*
X54181800Y-112479600D02*
X50668800Y-112479600D01*
X60176800Y-112479600D02*
X56663800Y-112479600D01*
X54181800Y-112439600D02*
X50654800Y-112439600D01*
X60190800Y-112439600D02*
X56663800Y-112439600D01*
X54181800Y-112399600D02*
X50639800Y-112399600D01*
X60205800Y-112399600D02*
X56663800Y-112399600D01*
X54181800Y-112359600D02*
X50625800Y-112359600D01*
X60219800Y-112359600D02*
X56663800Y-112359600D01*
X54181800Y-112319600D02*
X50611800Y-112319600D01*
X60233800Y-112319600D02*
X56663800Y-112319600D01*
X54181800Y-112279600D02*
X50598800Y-112279600D01*
X60246800Y-112279600D02*
X56663800Y-112279600D01*
X54181800Y-112239600D02*
X50585800Y-112239600D01*
X60259800Y-112239600D02*
X56663800Y-112239600D01*
X54181800Y-112199600D02*
X50572800Y-112199600D01*
X60272800Y-112199600D02*
X56663800Y-112199600D01*
X54181800Y-112159600D02*
X50560800Y-112159600D01*
X60284800Y-112159600D02*
X56663800Y-112159600D01*
X54181800Y-112119600D02*
X50548800Y-112119600D01*
X60296800Y-112119600D02*
X56663800Y-112119600D01*
X54181800Y-112079600D02*
X50537800Y-112079600D01*
X60307800Y-112079600D02*
X56663800Y-112079600D01*
X54181800Y-112039600D02*
X50525800Y-112039600D01*
X60319800Y-112039600D02*
X56663800Y-112039600D01*
X54181800Y-111999600D02*
X50515800Y-111999600D01*
X60329800Y-111999600D02*
X56663800Y-111999600D01*
X54181800Y-111959600D02*
X50504800Y-111959600D01*
X60340800Y-111959600D02*
X56663800Y-111959600D01*
X60350800Y-111919600D02*
X50494800Y-111919600D01*
X60360800Y-111879600D02*
X50484800Y-111879600D01*
X60369800Y-111839600D02*
X50475800Y-111839600D01*
X60378800Y-111799600D02*
X50466800Y-111799600D01*
X60387800Y-111759600D02*
X50457800Y-111759600D01*
X60396800Y-111719600D02*
X50448800Y-111719600D01*
X60404800Y-111679600D02*
X50440800Y-111679600D01*
X60412800Y-111639600D02*
X50432800Y-111639600D01*
X60419800Y-111599600D02*
X50425800Y-111599600D01*
X60426800Y-111559600D02*
X50418800Y-111559600D01*
X60433800Y-111519600D02*
X50411800Y-111519600D01*
X60440800Y-111479600D02*
X50404800Y-111479600D01*
X60446800Y-111439600D02*
X50398800Y-111439600D01*
X60452800Y-111399600D02*
X50392800Y-111399600D01*
X60457800Y-111358600D02*
X50387800Y-111358600D01*
X60462800Y-111318600D02*
X50382800Y-111318600D01*
X60467800Y-111278600D02*
X50377800Y-111278600D01*
X60472800Y-111238600D02*
X50372800Y-111238600D01*
X60476800Y-111198600D02*
X50368800Y-111198600D01*
X60480800Y-111158600D02*
X50364800Y-111158600D01*
X60484800Y-111118600D02*
X50360800Y-111118600D01*
X60487800Y-111078600D02*
X50357800Y-111078600D01*
X60490800Y-111038600D02*
X50354800Y-111038600D01*
X60492800Y-110998600D02*
X50352800Y-110998600D01*
X60495800Y-110958600D02*
X50349800Y-110958600D01*
X60497800Y-110918600D02*
X50347800Y-110918600D01*
X60499800Y-110878600D02*
X50345800Y-110878600D01*
X60500800Y-110838600D02*
X50344800Y-110838600D01*
X60501800Y-110798600D02*
X50343800Y-110798600D01*
X60502800Y-110758600D02*
X50342800Y-110758600D01*
X60502800Y-110718600D02*
X50342800Y-110718600D01*
X60502800Y-110678600D02*
X50342800Y-110678600D01*
X60542800Y-110678600D02*
G75*
G03X60542800Y-110678600I-5120000J0D01*
G01*
X52492600Y-105256000D02*
X52492600Y-102516000D01*
X57732600Y-105256000D02*
X57732600Y-102516000D01*
X57732600Y-102516000D02*
X52492600Y-102516000D01*
X57732600Y-105256000D02*
X52492600Y-105256000D01*
X52726600Y-88139524D02*
X52726600Y-85399524D01*
X57966600Y-88139524D02*
X57966600Y-85399524D01*
X57966600Y-85399524D02*
X52726600Y-85399524D01*
X57966600Y-88139524D02*
X52726600Y-88139524D01*
X56310200Y-73262800D02*
X53570200Y-73262800D01*
X56310200Y-68022800D02*
X53570200Y-68022800D01*
X53570200Y-68022800D02*
X53570200Y-73262800D01*
X56310200Y-68022800D02*
X56310200Y-73262800D01*
X69542000Y-87639554D02*
X68542000Y-87639554D01*
X69042000Y-87139554D02*
X69042000Y-88139554D01*
X66766000Y-97700200D02*
X65568000Y-97700200D01*
X67029000Y-97660200D02*
X65305000Y-97660200D01*
X67229000Y-97620200D02*
X65105000Y-97620200D01*
X67397000Y-97580200D02*
X64937000Y-97580200D01*
X67545000Y-97540200D02*
X64789000Y-97540200D01*
X67677000Y-97500200D02*
X64657000Y-97500200D01*
X67797000Y-97460200D02*
X64537000Y-97460200D01*
X67909000Y-97420200D02*
X64425000Y-97420200D01*
X68013000Y-97380200D02*
X64321000Y-97380200D01*
X68111000Y-97340200D02*
X64223000Y-97340200D01*
X68204000Y-97300200D02*
X64130000Y-97300200D01*
X68292000Y-97260200D02*
X64042000Y-97260200D01*
X68376000Y-97220200D02*
X63958000Y-97220200D01*
X68456000Y-97180200D02*
X63878000Y-97180200D01*
X68532000Y-97140200D02*
X63802000Y-97140200D01*
X68606000Y-97100200D02*
X63728000Y-97100200D01*
X68677000Y-97060200D02*
X63657000Y-97060200D01*
X68746000Y-97020200D02*
X63588000Y-97020200D01*
X68812000Y-96980200D02*
X63522000Y-96980200D01*
X68876000Y-96940200D02*
X63458000Y-96940200D01*
X68937000Y-96900200D02*
X63397000Y-96900200D01*
X68997000Y-96860200D02*
X63337000Y-96860200D01*
X69056000Y-96820200D02*
X63278000Y-96820200D01*
X69112000Y-96780200D02*
X63222000Y-96780200D01*
X69167000Y-96740200D02*
X63167000Y-96740200D01*
X69221000Y-96700200D02*
X63113000Y-96700200D01*
X69273000Y-96660200D02*
X63061000Y-96660200D01*
X69323000Y-96620200D02*
X63011000Y-96620200D01*
X69373000Y-96580200D02*
X62961000Y-96580200D01*
X69421000Y-96540200D02*
X62913000Y-96540200D01*
X69468000Y-96500200D02*
X62866000Y-96500200D01*
X69514000Y-96460200D02*
X62820000Y-96460200D01*
X69559000Y-96420200D02*
X62775000Y-96420200D01*
X69603000Y-96380200D02*
X62731000Y-96380200D01*
X64926000Y-96340200D02*
X62689000Y-96340200D01*
X69645000Y-96340200D02*
X67408000Y-96340200D01*
X64926000Y-96300200D02*
X62647000Y-96300200D01*
X69687000Y-96300200D02*
X67408000Y-96300200D01*
X64926000Y-96260200D02*
X62606000Y-96260200D01*
X69728000Y-96260200D02*
X67408000Y-96260200D01*
X64926000Y-96220200D02*
X62566000Y-96220200D01*
X69768000Y-96220200D02*
X67408000Y-96220200D01*
X64926000Y-96180200D02*
X62527000Y-96180200D01*
X69807000Y-96180200D02*
X67408000Y-96180200D01*
X64926000Y-96140200D02*
X62488000Y-96140200D01*
X69846000Y-96140200D02*
X67408000Y-96140200D01*
X64926000Y-96100200D02*
X62451000Y-96100200D01*
X69883000Y-96100200D02*
X67408000Y-96100200D01*
X64926000Y-96060200D02*
X62414000Y-96060200D01*
X69920000Y-96060200D02*
X67408000Y-96060200D01*
X64926000Y-96020200D02*
X62378000Y-96020200D01*
X69956000Y-96020200D02*
X67408000Y-96020200D01*
X64926000Y-95980200D02*
X62343000Y-95980200D01*
X69991000Y-95980200D02*
X67408000Y-95980200D01*
X64926000Y-95940200D02*
X62309000Y-95940200D01*
X70025000Y-95940200D02*
X67408000Y-95940200D01*
X64926000Y-95900200D02*
X62275000Y-95900200D01*
X70059000Y-95900200D02*
X67408000Y-95900200D01*
X64926000Y-95860200D02*
X62242000Y-95860200D01*
X70092000Y-95860200D02*
X67408000Y-95860200D01*
X64926000Y-95820200D02*
X62210000Y-95820200D01*
X70124000Y-95820200D02*
X67408000Y-95820200D01*
X64926000Y-95780200D02*
X62178000Y-95780200D01*
X70156000Y-95780200D02*
X67408000Y-95780200D01*
X64926000Y-95740200D02*
X62147000Y-95740200D01*
X70187000Y-95740200D02*
X67408000Y-95740200D01*
X64926000Y-95700200D02*
X62117000Y-95700200D01*
X70217000Y-95700200D02*
X67408000Y-95700200D01*
X64926000Y-95660200D02*
X62087000Y-95660200D01*
X70247000Y-95660200D02*
X67408000Y-95660200D01*
X64926000Y-95620200D02*
X62057000Y-95620200D01*
X70277000Y-95620200D02*
X67408000Y-95620200D01*
X64926000Y-95580200D02*
X62029000Y-95580200D01*
X70305000Y-95580200D02*
X67408000Y-95580200D01*
X64926000Y-95540200D02*
X62001000Y-95540200D01*
X70333000Y-95540200D02*
X67408000Y-95540200D01*
X64926000Y-95500200D02*
X61973000Y-95500200D01*
X70361000Y-95500200D02*
X67408000Y-95500200D01*
X64926000Y-95460200D02*
X61946000Y-95460200D01*
X70388000Y-95460200D02*
X67408000Y-95460200D01*
X64926000Y-95420200D02*
X61920000Y-95420200D01*
X70414000Y-95420200D02*
X67408000Y-95420200D01*
X64926000Y-95380200D02*
X61894000Y-95380200D01*
X70440000Y-95380200D02*
X67408000Y-95380200D01*
X64926000Y-95340200D02*
X61869000Y-95340200D01*
X70465000Y-95340200D02*
X67408000Y-95340200D01*
X64926000Y-95300200D02*
X61844000Y-95300200D01*
X70490000Y-95300200D02*
X67408000Y-95300200D01*
X64926000Y-95260200D02*
X61820000Y-95260200D01*
X70514000Y-95260200D02*
X67408000Y-95260200D01*
X64926000Y-95220200D02*
X61796000Y-95220200D01*
X70538000Y-95220200D02*
X67408000Y-95220200D01*
X64926000Y-95180200D02*
X61772000Y-95180200D01*
X70562000Y-95180200D02*
X67408000Y-95180200D01*
X64926000Y-95140200D02*
X61750000Y-95140200D01*
X70584000Y-95140200D02*
X67408000Y-95140200D01*
X64926000Y-95100200D02*
X61727000Y-95100200D01*
X70607000Y-95100200D02*
X67408000Y-95100200D01*
X64926000Y-95060200D02*
X61705000Y-95060200D01*
X70629000Y-95060200D02*
X67408000Y-95060200D01*
X64926000Y-95020200D02*
X61684000Y-95020200D01*
X70650000Y-95020200D02*
X67408000Y-95020200D01*
X64926000Y-94980200D02*
X61663000Y-94980200D01*
X70671000Y-94980200D02*
X67408000Y-94980200D01*
X64926000Y-94940200D02*
X61642000Y-94940200D01*
X70692000Y-94940200D02*
X67408000Y-94940200D01*
X64926000Y-94900200D02*
X61622000Y-94900200D01*
X70712000Y-94900200D02*
X67408000Y-94900200D01*
X64926000Y-94860200D02*
X61603000Y-94860200D01*
X70731000Y-94860200D02*
X67408000Y-94860200D01*
X64926000Y-94820200D02*
X61583000Y-94820200D01*
X70751000Y-94820200D02*
X67408000Y-94820200D01*
X64926000Y-94780200D02*
X61564000Y-94780200D01*
X70770000Y-94780200D02*
X67408000Y-94780200D01*
X64926000Y-94740200D02*
X61546000Y-94740200D01*
X70788000Y-94740200D02*
X67408000Y-94740200D01*
X64926000Y-94700200D02*
X61528000Y-94700200D01*
X70806000Y-94700200D02*
X67408000Y-94700200D01*
X64926000Y-94660200D02*
X61510000Y-94660200D01*
X70824000Y-94660200D02*
X67408000Y-94660200D01*
X64926000Y-94620200D02*
X61493000Y-94620200D01*
X70841000Y-94620200D02*
X67408000Y-94620200D01*
X64926000Y-94580200D02*
X61477000Y-94580200D01*
X70857000Y-94580200D02*
X67408000Y-94580200D01*
X64926000Y-94540200D02*
X61460000Y-94540200D01*
X70874000Y-94540200D02*
X67408000Y-94540200D01*
X64926000Y-94500200D02*
X61444000Y-94500200D01*
X70890000Y-94500200D02*
X67408000Y-94500200D01*
X64926000Y-94460200D02*
X61429000Y-94460200D01*
X70905000Y-94460200D02*
X67408000Y-94460200D01*
X64926000Y-94420200D02*
X61413000Y-94420200D01*
X70921000Y-94420200D02*
X67408000Y-94420200D01*
X64926000Y-94380200D02*
X61399000Y-94380200D01*
X70935000Y-94380200D02*
X67408000Y-94380200D01*
X64926000Y-94340200D02*
X61384000Y-94340200D01*
X70950000Y-94340200D02*
X67408000Y-94340200D01*
X64926000Y-94300200D02*
X61370000Y-94300200D01*
X70964000Y-94300200D02*
X67408000Y-94300200D01*
X64926000Y-94260200D02*
X61356000Y-94260200D01*
X70978000Y-94260200D02*
X67408000Y-94260200D01*
X64926000Y-94220200D02*
X61343000Y-94220200D01*
X70991000Y-94220200D02*
X67408000Y-94220200D01*
X64926000Y-94180200D02*
X61330000Y-94180200D01*
X71004000Y-94180200D02*
X67408000Y-94180200D01*
X64926000Y-94140200D02*
X61317000Y-94140200D01*
X71017000Y-94140200D02*
X67408000Y-94140200D01*
X64926000Y-94100200D02*
X61305000Y-94100200D01*
X71029000Y-94100200D02*
X67408000Y-94100200D01*
X64926000Y-94060200D02*
X61293000Y-94060200D01*
X71041000Y-94060200D02*
X67408000Y-94060200D01*
X64926000Y-94020200D02*
X61282000Y-94020200D01*
X71052000Y-94020200D02*
X67408000Y-94020200D01*
X64926000Y-93980200D02*
X61270000Y-93980200D01*
X71064000Y-93980200D02*
X67408000Y-93980200D01*
X64926000Y-93940200D02*
X61260000Y-93940200D01*
X71074000Y-93940200D02*
X67408000Y-93940200D01*
X64926000Y-93900200D02*
X61249000Y-93900200D01*
X71085000Y-93900200D02*
X67408000Y-93900200D01*
X71095000Y-93860200D02*
X61239000Y-93860200D01*
X71105000Y-93820200D02*
X61229000Y-93820200D01*
X71114000Y-93780200D02*
X61220000Y-93780200D01*
X71123000Y-93740200D02*
X61211000Y-93740200D01*
X71132000Y-93700200D02*
X61202000Y-93700200D01*
X71141000Y-93660200D02*
X61193000Y-93660200D01*
X71149000Y-93620200D02*
X61185000Y-93620200D01*
X71157000Y-93580200D02*
X61177000Y-93580200D01*
X71164000Y-93540200D02*
X61170000Y-93540200D01*
X71171000Y-93500200D02*
X61163000Y-93500200D01*
X71178000Y-93460200D02*
X61156000Y-93460200D01*
X71185000Y-93420200D02*
X61149000Y-93420200D01*
X71191000Y-93380200D02*
X61143000Y-93380200D01*
X71197000Y-93340200D02*
X61137000Y-93340200D01*
X71202000Y-93299200D02*
X61132000Y-93299200D01*
X71207000Y-93259200D02*
X61127000Y-93259200D01*
X71212000Y-93219200D02*
X61122000Y-93219200D01*
X71217000Y-93179200D02*
X61117000Y-93179200D01*
X71221000Y-93139200D02*
X61113000Y-93139200D01*
X71225000Y-93099200D02*
X61109000Y-93099200D01*
X71229000Y-93059200D02*
X61105000Y-93059200D01*
X71232000Y-93019200D02*
X61102000Y-93019200D01*
X71235000Y-92979200D02*
X61099000Y-92979200D01*
X71237000Y-92939200D02*
X61097000Y-92939200D01*
X71240000Y-92899200D02*
X61094000Y-92899200D01*
X71242000Y-92859200D02*
X61092000Y-92859200D01*
X71244000Y-92819200D02*
X61090000Y-92819200D01*
X71245000Y-92779200D02*
X61089000Y-92779200D01*
X71246000Y-92739200D02*
X61088000Y-92739200D01*
X71247000Y-92699200D02*
X61087000Y-92699200D01*
X71247000Y-92659200D02*
X61087000Y-92659200D01*
X71247000Y-92619200D02*
X61087000Y-92619200D01*
X71287000Y-92619200D02*
G75*
G03X71287000Y-92619200I-5120000J0D01*
G01*
D10*
X70419980Y-125504533D02*
X71134266Y-125504533D01*
X71277123Y-125552152D01*
X71372361Y-125647390D01*
X71419980Y-125790247D01*
X71419980Y-125885485D01*
X70515219Y-125075961D02*
X70467600Y-125028342D01*
X70419980Y-124933104D01*
X70419980Y-124695009D01*
X70467600Y-124599771D01*
X70515219Y-124552152D01*
X70610457Y-124504533D01*
X70705695Y-124504533D01*
X70848552Y-124552152D01*
X71419980Y-125123580D01*
X71419980Y-124504533D01*
X72684771Y-125492495D02*
X72732390Y-125349638D01*
X72780009Y-125302019D01*
X72875247Y-125254400D01*
X73018104Y-125254400D01*
X73113342Y-125302019D01*
X73160961Y-125349638D01*
X73208580Y-125444876D01*
X73208580Y-125825828D01*
X72208580Y-125825828D01*
X72208580Y-125492495D01*
X72256200Y-125397257D01*
X72303819Y-125349638D01*
X72399057Y-125302019D01*
X72494295Y-125302019D01*
X72589533Y-125349638D01*
X72637152Y-125397257D01*
X72684771Y-125492495D01*
X72684771Y-125825828D01*
X72541914Y-124397257D02*
X73208580Y-124397257D01*
X72541914Y-124825828D02*
X73065723Y-124825828D01*
X73160961Y-124778209D01*
X73208580Y-124682971D01*
X73208580Y-124540114D01*
X73160961Y-124444876D01*
X73113342Y-124397257D01*
X73160961Y-123968685D02*
X73208580Y-123873447D01*
X73208580Y-123682971D01*
X73160961Y-123587733D01*
X73065723Y-123540114D01*
X73018104Y-123540114D01*
X72922866Y-123587733D01*
X72875247Y-123682971D01*
X72875247Y-123825828D01*
X72827628Y-123921066D01*
X72732390Y-123968685D01*
X72684771Y-123968685D01*
X72589533Y-123921066D01*
X72541914Y-123825828D01*
X72541914Y-123682971D01*
X72589533Y-123587733D01*
X72208580Y-121873447D02*
X72208580Y-122349638D01*
X72684771Y-122397257D01*
X72637152Y-122349638D01*
X72589533Y-122254400D01*
X72589533Y-122016304D01*
X72637152Y-121921066D01*
X72684771Y-121873447D01*
X72780009Y-121825828D01*
X73018104Y-121825828D01*
X73113342Y-121873447D01*
X73160961Y-121921066D01*
X73208580Y-122016304D01*
X73208580Y-122254400D01*
X73160961Y-122349638D01*
X73113342Y-122397257D01*
X72827628Y-120635352D02*
X72827628Y-119873447D01*
X73208580Y-118635352D02*
X72208580Y-118635352D01*
X72208580Y-118254400D01*
X72256200Y-118159161D01*
X72303819Y-118111542D01*
X72399057Y-118063923D01*
X72541914Y-118063923D01*
X72637152Y-118111542D01*
X72684771Y-118159161D01*
X72732390Y-118254400D01*
X72732390Y-118635352D01*
X73208580Y-117492495D02*
X73160961Y-117587733D01*
X73113342Y-117635352D01*
X73018104Y-117682971D01*
X72732390Y-117682971D01*
X72637152Y-117635352D01*
X72589533Y-117587733D01*
X72541914Y-117492495D01*
X72541914Y-117349638D01*
X72589533Y-117254400D01*
X72637152Y-117206780D01*
X72732390Y-117159161D01*
X73018104Y-117159161D01*
X73113342Y-117206780D01*
X73160961Y-117254400D01*
X73208580Y-117349638D01*
X73208580Y-117492495D01*
X72541914Y-116825828D02*
X73208580Y-116635352D01*
X72732390Y-116444876D01*
X73208580Y-116254400D01*
X72541914Y-116063923D01*
X73160961Y-115302019D02*
X73208580Y-115397257D01*
X73208580Y-115587733D01*
X73160961Y-115682971D01*
X73065723Y-115730590D01*
X72684771Y-115730590D01*
X72589533Y-115682971D01*
X72541914Y-115587733D01*
X72541914Y-115397257D01*
X72589533Y-115302019D01*
X72684771Y-115254400D01*
X72780009Y-115254400D01*
X72875247Y-115730590D01*
X73208580Y-114825828D02*
X72541914Y-114825828D01*
X72732390Y-114825828D02*
X72637152Y-114778209D01*
X72589533Y-114730590D01*
X72541914Y-114635352D01*
X72541914Y-114540114D01*
X70318380Y-112696333D02*
X71032666Y-112696333D01*
X71175523Y-112743952D01*
X71270761Y-112839190D01*
X71318380Y-112982047D01*
X71318380Y-113077285D01*
X70318380Y-111743952D02*
X70318380Y-112220142D01*
X70794571Y-112267761D01*
X70746952Y-112220142D01*
X70699333Y-112124904D01*
X70699333Y-111886809D01*
X70746952Y-111791571D01*
X70794571Y-111743952D01*
X70889809Y-111696333D01*
X71127904Y-111696333D01*
X71223142Y-111743952D01*
X71270761Y-111791571D01*
X71318380Y-111886809D01*
X71318380Y-112124904D01*
X71270761Y-112220142D01*
X71223142Y-112267761D01*
X72409371Y-112600476D02*
X72456990Y-112457619D01*
X72504609Y-112410000D01*
X72599847Y-112362380D01*
X72742704Y-112362380D01*
X72837942Y-112410000D01*
X72885561Y-112457619D01*
X72933180Y-112552857D01*
X72933180Y-112933809D01*
X71933180Y-112933809D01*
X71933180Y-112600476D01*
X71980800Y-112505238D01*
X72028419Y-112457619D01*
X72123657Y-112410000D01*
X72218895Y-112410000D01*
X72314133Y-112457619D01*
X72361752Y-112505238D01*
X72409371Y-112600476D01*
X72409371Y-112933809D01*
X72266514Y-111505238D02*
X72933180Y-111505238D01*
X72266514Y-111933809D02*
X72790323Y-111933809D01*
X72885561Y-111886190D01*
X72933180Y-111790952D01*
X72933180Y-111648095D01*
X72885561Y-111552857D01*
X72837942Y-111505238D01*
X72885561Y-111076666D02*
X72933180Y-110981428D01*
X72933180Y-110790952D01*
X72885561Y-110695714D01*
X72790323Y-110648095D01*
X72742704Y-110648095D01*
X72647466Y-110695714D01*
X72599847Y-110790952D01*
X72599847Y-110933809D01*
X72552228Y-111029047D01*
X72456990Y-111076666D01*
X72409371Y-111076666D01*
X72314133Y-111029047D01*
X72266514Y-110933809D01*
X72266514Y-110790952D01*
X72314133Y-110695714D01*
X72266514Y-109029047D02*
X72933180Y-109029047D01*
X71885561Y-109267142D02*
X72599847Y-109505238D01*
X72599847Y-108886190D01*
X72552228Y-107743333D02*
X72552228Y-106981428D01*
X72266514Y-105743333D02*
X73266514Y-105743333D01*
X72314133Y-105743333D02*
X72266514Y-105648095D01*
X72266514Y-105457619D01*
X72314133Y-105362380D01*
X72361752Y-105314761D01*
X72456990Y-105267142D01*
X72742704Y-105267142D01*
X72837942Y-105314761D01*
X72885561Y-105362380D01*
X72933180Y-105457619D01*
X72933180Y-105648095D01*
X72885561Y-105743333D01*
X72933180Y-104695714D02*
X72885561Y-104790952D01*
X72837942Y-104838571D01*
X72742704Y-104886190D01*
X72456990Y-104886190D01*
X72361752Y-104838571D01*
X72314133Y-104790952D01*
X72266514Y-104695714D01*
X72266514Y-104552857D01*
X72314133Y-104457619D01*
X72361752Y-104410000D01*
X72456990Y-104362380D01*
X72742704Y-104362380D01*
X72837942Y-104410000D01*
X72885561Y-104457619D01*
X72933180Y-104552857D01*
X72933180Y-104695714D01*
X72266514Y-104029047D02*
X72933180Y-103838571D01*
X72456990Y-103648095D01*
X72933180Y-103457619D01*
X72266514Y-103267142D01*
X72885561Y-102505238D02*
X72933180Y-102600476D01*
X72933180Y-102790952D01*
X72885561Y-102886190D01*
X72790323Y-102933809D01*
X72409371Y-102933809D01*
X72314133Y-102886190D01*
X72266514Y-102790952D01*
X72266514Y-102600476D01*
X72314133Y-102505238D01*
X72409371Y-102457619D01*
X72504609Y-102457619D01*
X72599847Y-102933809D01*
X72933180Y-102029047D02*
X72266514Y-102029047D01*
X72456990Y-102029047D02*
X72361752Y-101981428D01*
X72314133Y-101933809D01*
X72266514Y-101838571D01*
X72266514Y-101743333D01*
X70242180Y-95655133D02*
X70956466Y-95655133D01*
X71099323Y-95702752D01*
X71194561Y-95797990D01*
X71242180Y-95940847D01*
X71242180Y-96036085D01*
X70575514Y-94750371D02*
X71242180Y-94750371D01*
X70194561Y-94988466D02*
X70908847Y-95226561D01*
X70908847Y-94607514D01*
X72342571Y-95500876D02*
X72390190Y-95358019D01*
X72437809Y-95310400D01*
X72533047Y-95262780D01*
X72675904Y-95262780D01*
X72771142Y-95310400D01*
X72818761Y-95358019D01*
X72866380Y-95453257D01*
X72866380Y-95834209D01*
X71866380Y-95834209D01*
X71866380Y-95500876D01*
X71914000Y-95405638D01*
X71961619Y-95358019D01*
X72056857Y-95310400D01*
X72152095Y-95310400D01*
X72247333Y-95358019D01*
X72294952Y-95405638D01*
X72342571Y-95500876D01*
X72342571Y-95834209D01*
X72199714Y-94405638D02*
X72866380Y-94405638D01*
X72199714Y-94834209D02*
X72723523Y-94834209D01*
X72818761Y-94786590D01*
X72866380Y-94691352D01*
X72866380Y-94548495D01*
X72818761Y-94453257D01*
X72771142Y-94405638D01*
X72818761Y-93977066D02*
X72866380Y-93881828D01*
X72866380Y-93691352D01*
X72818761Y-93596114D01*
X72723523Y-93548495D01*
X72675904Y-93548495D01*
X72580666Y-93596114D01*
X72533047Y-93691352D01*
X72533047Y-93834209D01*
X72485428Y-93929447D01*
X72390190Y-93977066D01*
X72342571Y-93977066D01*
X72247333Y-93929447D01*
X72199714Y-93834209D01*
X72199714Y-93691352D01*
X72247333Y-93596114D01*
X71866380Y-92453257D02*
X71866380Y-91834209D01*
X72247333Y-92167542D01*
X72247333Y-92024685D01*
X72294952Y-91929447D01*
X72342571Y-91881828D01*
X72437809Y-91834209D01*
X72675904Y-91834209D01*
X72771142Y-91881828D01*
X72818761Y-91929447D01*
X72866380Y-92024685D01*
X72866380Y-92310400D01*
X72818761Y-92405638D01*
X72771142Y-92453257D01*
X72485428Y-90643733D02*
X72485428Y-89881828D01*
X72199714Y-88643733D02*
X73199714Y-88643733D01*
X72247333Y-88643733D02*
X72199714Y-88548495D01*
X72199714Y-88358019D01*
X72247333Y-88262780D01*
X72294952Y-88215161D01*
X72390190Y-88167542D01*
X72675904Y-88167542D01*
X72771142Y-88215161D01*
X72818761Y-88262780D01*
X72866380Y-88358019D01*
X72866380Y-88548495D01*
X72818761Y-88643733D01*
X72866380Y-87596114D02*
X72818761Y-87691352D01*
X72771142Y-87738971D01*
X72675904Y-87786590D01*
X72390190Y-87786590D01*
X72294952Y-87738971D01*
X72247333Y-87691352D01*
X72199714Y-87596114D01*
X72199714Y-87453257D01*
X72247333Y-87358019D01*
X72294952Y-87310400D01*
X72390190Y-87262780D01*
X72675904Y-87262780D01*
X72771142Y-87310400D01*
X72818761Y-87358019D01*
X72866380Y-87453257D01*
X72866380Y-87596114D01*
X72199714Y-86929447D02*
X72866380Y-86738971D01*
X72390190Y-86548495D01*
X72866380Y-86358019D01*
X72199714Y-86167542D01*
X72818761Y-85405638D02*
X72866380Y-85500876D01*
X72866380Y-85691352D01*
X72818761Y-85786590D01*
X72723523Y-85834209D01*
X72342571Y-85834209D01*
X72247333Y-85786590D01*
X72199714Y-85691352D01*
X72199714Y-85500876D01*
X72247333Y-85405638D01*
X72342571Y-85358019D01*
X72437809Y-85358019D01*
X72533047Y-85834209D01*
X72866380Y-84929447D02*
X72199714Y-84929447D01*
X72390190Y-84929447D02*
X72294952Y-84881828D01*
X72247333Y-84834209D01*
X72199714Y-84738971D01*
X72199714Y-84643733D01*
X70140580Y-74905533D02*
X70854866Y-74905533D01*
X70997723Y-74953152D01*
X71092961Y-75048390D01*
X71140580Y-75191247D01*
X71140580Y-75286485D01*
X70140580Y-74524580D02*
X70140580Y-73905533D01*
X70521533Y-74238866D01*
X70521533Y-74096009D01*
X70569152Y-74000771D01*
X70616771Y-73953152D01*
X70712009Y-73905533D01*
X70950104Y-73905533D01*
X71045342Y-73953152D01*
X71092961Y-74000771D01*
X71140580Y-74096009D01*
X71140580Y-74381723D01*
X71092961Y-74476961D01*
X71045342Y-74524580D01*
X72342571Y-77861514D02*
X72390190Y-77718657D01*
X72437809Y-77671038D01*
X72533047Y-77623419D01*
X72675904Y-77623419D01*
X72771142Y-77671038D01*
X72818761Y-77718657D01*
X72866380Y-77813895D01*
X72866380Y-78194847D01*
X71866380Y-78194847D01*
X71866380Y-77861514D01*
X71914000Y-77766276D01*
X71961619Y-77718657D01*
X72056857Y-77671038D01*
X72152095Y-77671038D01*
X72247333Y-77718657D01*
X72294952Y-77766276D01*
X72342571Y-77861514D01*
X72342571Y-78194847D01*
X72199714Y-76766276D02*
X72866380Y-76766276D01*
X72199714Y-77194847D02*
X72723523Y-77194847D01*
X72818761Y-77147228D01*
X72866380Y-77051990D01*
X72866380Y-76909133D01*
X72818761Y-76813895D01*
X72771142Y-76766276D01*
X72818761Y-76337704D02*
X72866380Y-76242466D01*
X72866380Y-76051990D01*
X72818761Y-75956752D01*
X72723523Y-75909133D01*
X72675904Y-75909133D01*
X72580666Y-75956752D01*
X72533047Y-76051990D01*
X72533047Y-76194847D01*
X72485428Y-76290085D01*
X72390190Y-76337704D01*
X72342571Y-76337704D01*
X72247333Y-76290085D01*
X72199714Y-76194847D01*
X72199714Y-76051990D01*
X72247333Y-75956752D01*
X71961619Y-74766276D02*
X71914000Y-74718657D01*
X71866380Y-74623419D01*
X71866380Y-74385323D01*
X71914000Y-74290085D01*
X71961619Y-74242466D01*
X72056857Y-74194847D01*
X72152095Y-74194847D01*
X72294952Y-74242466D01*
X72866380Y-74813895D01*
X72866380Y-74194847D01*
X72485428Y-73004371D02*
X72485428Y-72242466D01*
X72818761Y-71051990D02*
X72866380Y-70956752D01*
X72866380Y-70766276D01*
X72818761Y-70671038D01*
X72723523Y-70623419D01*
X72675904Y-70623419D01*
X72580666Y-70671038D01*
X72533047Y-70766276D01*
X72533047Y-70909133D01*
X72485428Y-71004371D01*
X72390190Y-71051990D01*
X72342571Y-71051990D01*
X72247333Y-71004371D01*
X72199714Y-70909133D01*
X72199714Y-70766276D01*
X72247333Y-70671038D01*
X72866380Y-70194847D02*
X72199714Y-70194847D01*
X71866380Y-70194847D02*
X71914000Y-70242466D01*
X71961619Y-70194847D01*
X71914000Y-70147228D01*
X71866380Y-70194847D01*
X71961619Y-70194847D01*
X72199714Y-69290085D02*
X73009238Y-69290085D01*
X73104476Y-69337704D01*
X73152095Y-69385323D01*
X73199714Y-69480561D01*
X73199714Y-69623419D01*
X73152095Y-69718657D01*
X72818761Y-69290085D02*
X72866380Y-69385323D01*
X72866380Y-69575800D01*
X72818761Y-69671038D01*
X72771142Y-69718657D01*
X72675904Y-69766276D01*
X72390190Y-69766276D01*
X72294952Y-69718657D01*
X72247333Y-69671038D01*
X72199714Y-69575800D01*
X72199714Y-69385323D01*
X72247333Y-69290085D01*
X72199714Y-68813895D02*
X72866380Y-68813895D01*
X72294952Y-68813895D02*
X72247333Y-68766276D01*
X72199714Y-68671038D01*
X72199714Y-68528180D01*
X72247333Y-68432942D01*
X72342571Y-68385323D01*
X72866380Y-68385323D01*
X72866380Y-67480561D02*
X72342571Y-67480561D01*
X72247333Y-67528180D01*
X72199714Y-67623419D01*
X72199714Y-67813895D01*
X72247333Y-67909133D01*
X72818761Y-67480561D02*
X72866380Y-67575800D01*
X72866380Y-67813895D01*
X72818761Y-67909133D01*
X72723523Y-67956752D01*
X72628285Y-67956752D01*
X72533047Y-67909133D01*
X72485428Y-67813895D01*
X72485428Y-67575800D01*
X72437809Y-67480561D01*
X72866380Y-66861514D02*
X72818761Y-66956752D01*
X72723523Y-67004371D01*
X71866380Y-67004371D01*
X70140580Y-61979133D02*
X70854866Y-61979133D01*
X70997723Y-62026752D01*
X71092961Y-62121990D01*
X71140580Y-62264847D01*
X71140580Y-62360085D01*
X71140580Y-60979133D02*
X71140580Y-61550561D01*
X71140580Y-61264847D02*
X70140580Y-61264847D01*
X70283438Y-61360085D01*
X70378676Y-61455323D01*
X70426295Y-61550561D01*
X72293171Y-63232514D02*
X72340790Y-63089657D01*
X72388409Y-63042038D01*
X72483647Y-62994419D01*
X72626504Y-62994419D01*
X72721742Y-63042038D01*
X72769361Y-63089657D01*
X72816980Y-63184895D01*
X72816980Y-63565847D01*
X71816980Y-63565847D01*
X71816980Y-63232514D01*
X71864600Y-63137276D01*
X71912219Y-63089657D01*
X72007457Y-63042038D01*
X72102695Y-63042038D01*
X72197933Y-63089657D01*
X72245552Y-63137276D01*
X72293171Y-63232514D01*
X72293171Y-63565847D01*
X72150314Y-62137276D02*
X72816980Y-62137276D01*
X72150314Y-62565847D02*
X72674123Y-62565847D01*
X72769361Y-62518228D01*
X72816980Y-62422990D01*
X72816980Y-62280133D01*
X72769361Y-62184895D01*
X72721742Y-62137276D01*
X72769361Y-61708704D02*
X72816980Y-61613466D01*
X72816980Y-61422990D01*
X72769361Y-61327752D01*
X72674123Y-61280133D01*
X72626504Y-61280133D01*
X72531266Y-61327752D01*
X72483647Y-61422990D01*
X72483647Y-61565847D01*
X72436028Y-61661085D01*
X72340790Y-61708704D01*
X72293171Y-61708704D01*
X72197933Y-61661085D01*
X72150314Y-61565847D01*
X72150314Y-61422990D01*
X72197933Y-61327752D01*
X72816980Y-59565847D02*
X72816980Y-60137276D01*
X72816980Y-59851561D02*
X71816980Y-59851561D01*
X71959838Y-59946800D01*
X72055076Y-60042038D01*
X72102695Y-60137276D01*
X72436028Y-58375371D02*
X72436028Y-57613466D01*
X72150314Y-56375371D02*
X73150314Y-56375371D01*
X72197933Y-56375371D02*
X72150314Y-56280133D01*
X72150314Y-56089657D01*
X72197933Y-55994419D01*
X72245552Y-55946800D01*
X72340790Y-55899180D01*
X72626504Y-55899180D01*
X72721742Y-55946800D01*
X72769361Y-55994419D01*
X72816980Y-56089657D01*
X72816980Y-56280133D01*
X72769361Y-56375371D01*
X72816980Y-55042038D02*
X72293171Y-55042038D01*
X72197933Y-55089657D01*
X72150314Y-55184895D01*
X72150314Y-55375371D01*
X72197933Y-55470609D01*
X72769361Y-55042038D02*
X72816980Y-55137276D01*
X72816980Y-55375371D01*
X72769361Y-55470609D01*
X72674123Y-55518228D01*
X72578885Y-55518228D01*
X72483647Y-55470609D01*
X72436028Y-55375371D01*
X72436028Y-55137276D01*
X72388409Y-55042038D01*
X72816980Y-54565847D02*
X72150314Y-54565847D01*
X72340790Y-54565847D02*
X72245552Y-54518228D01*
X72197933Y-54470609D01*
X72150314Y-54375371D01*
X72150314Y-54280133D01*
X72816980Y-53518228D02*
X72293171Y-53518228D01*
X72197933Y-53565847D01*
X72150314Y-53661085D01*
X72150314Y-53851561D01*
X72197933Y-53946800D01*
X72769361Y-53518228D02*
X72816980Y-53613466D01*
X72816980Y-53851561D01*
X72769361Y-53946800D01*
X72674123Y-53994419D01*
X72578885Y-53994419D01*
X72483647Y-53946800D01*
X72436028Y-53851561D01*
X72436028Y-53613466D01*
X72388409Y-53518228D01*
X72769361Y-53089657D02*
X72816980Y-52994419D01*
X72816980Y-52803942D01*
X72769361Y-52708704D01*
X72674123Y-52661085D01*
X72626504Y-52661085D01*
X72531266Y-52708704D01*
X72483647Y-52803942D01*
X72483647Y-52946800D01*
X72436028Y-53042038D01*
X72340790Y-53089657D01*
X72293171Y-53089657D01*
X72197933Y-53042038D01*
X72150314Y-52946800D01*
X72150314Y-52803942D01*
X72197933Y-52708704D01*
X72816980Y-52232514D02*
X72150314Y-52232514D01*
X71816980Y-52232514D02*
X71864600Y-52280133D01*
X71912219Y-52232514D01*
X71864600Y-52184895D01*
X71816980Y-52232514D01*
X71912219Y-52232514D01*
X72150314Y-51899180D02*
X72150314Y-51518228D01*
X71816980Y-51756323D02*
X72674123Y-51756323D01*
X72769361Y-51708704D01*
X72816980Y-51613466D01*
X72816980Y-51518228D01*
X72816980Y-51184895D02*
X72150314Y-51184895D01*
X71816980Y-51184895D02*
X71864600Y-51232514D01*
X71912219Y-51184895D01*
X71864600Y-51137276D01*
X71816980Y-51184895D01*
X71912219Y-51184895D01*
X72769361Y-50280133D02*
X72816980Y-50375371D01*
X72816980Y-50565847D01*
X72769361Y-50661085D01*
X72721742Y-50708704D01*
X72626504Y-50756323D01*
X72340790Y-50756323D01*
X72245552Y-50708704D01*
X72197933Y-50661085D01*
X72150314Y-50565847D01*
X72150314Y-50375371D01*
X72197933Y-50280133D01*
X50946133Y-89276180D02*
X50612800Y-88799990D01*
X50374704Y-89276180D02*
X50374704Y-88276180D01*
X50755657Y-88276180D01*
X50850895Y-88323800D01*
X50898514Y-88371419D01*
X50946133Y-88466657D01*
X50946133Y-88609514D01*
X50898514Y-88704752D01*
X50850895Y-88752371D01*
X50755657Y-88799990D01*
X50374704Y-88799990D01*
X51898514Y-88323800D02*
X51803276Y-88276180D01*
X51660419Y-88276180D01*
X51517561Y-88323800D01*
X51422323Y-88419038D01*
X51374704Y-88514276D01*
X51327085Y-88704752D01*
X51327085Y-88847609D01*
X51374704Y-89038085D01*
X51422323Y-89133323D01*
X51517561Y-89228561D01*
X51660419Y-89276180D01*
X51755657Y-89276180D01*
X51898514Y-89228561D01*
X51946133Y-89180942D01*
X51946133Y-88847609D01*
X51755657Y-88847609D01*
X52898514Y-89276180D02*
X52327085Y-89276180D01*
X52612800Y-89276180D02*
X52612800Y-88276180D01*
X52517561Y-88419038D01*
X52422323Y-88514276D01*
X52327085Y-88561895D01*
X50343609Y-101315780D02*
X50343609Y-100649114D01*
X50343609Y-100744352D02*
X50391228Y-100696733D01*
X50486466Y-100649114D01*
X50629323Y-100649114D01*
X50724561Y-100696733D01*
X50772180Y-100791971D01*
X50772180Y-101315780D01*
X50772180Y-100791971D02*
X50819800Y-100696733D01*
X50915038Y-100649114D01*
X51057895Y-100649114D01*
X51153133Y-100696733D01*
X51200752Y-100791971D01*
X51200752Y-101315780D01*
X51676942Y-100791971D02*
X52010276Y-100791971D01*
X52153133Y-101315780D02*
X51676942Y-101315780D01*
X51676942Y-100315780D01*
X52153133Y-100315780D01*
X52486466Y-100315780D02*
X53153133Y-100315780D01*
X52486466Y-101315780D01*
X53153133Y-101315780D01*
X53534085Y-101315780D02*
X53534085Y-100315780D01*
X53772180Y-100315780D01*
X53915038Y-100363400D01*
X54010276Y-100458638D01*
X54057895Y-100553876D01*
X54105514Y-100744352D01*
X54105514Y-100887209D01*
X54057895Y-101077685D01*
X54010276Y-101172923D01*
X53915038Y-101268161D01*
X53772180Y-101315780D01*
X53534085Y-101315780D01*
X54438847Y-100315780D02*
X55105514Y-100315780D01*
X54676942Y-101315780D01*
X56010276Y-101315780D02*
X55438847Y-101315780D01*
X55724561Y-101315780D02*
X55724561Y-100315780D01*
X55629323Y-100458638D01*
X55534085Y-100553876D01*
X55438847Y-100601495D01*
X56391228Y-100411019D02*
X56438847Y-100363400D01*
X56534085Y-100315780D01*
X56772180Y-100315780D01*
X56867419Y-100363400D01*
X56915038Y-100411019D01*
X56962657Y-100506257D01*
X56962657Y-100601495D01*
X56915038Y-100744352D01*
X56343609Y-101315780D01*
X56962657Y-101315780D01*
X57581704Y-100315780D02*
X57676942Y-100315780D01*
X57772180Y-100363400D01*
X57819800Y-100411019D01*
X57867419Y-100506257D01*
X57915038Y-100696733D01*
X57915038Y-100934828D01*
X57867419Y-101125304D01*
X57819800Y-101220542D01*
X57772180Y-101268161D01*
X57676942Y-101315780D01*
X57581704Y-101315780D01*
X57486466Y-101268161D01*
X57438847Y-101220542D01*
X57391228Y-101125304D01*
X57343609Y-100934828D01*
X57343609Y-100696733D01*
X57391228Y-100506257D01*
X57438847Y-100411019D01*
X57486466Y-100363400D01*
X57581704Y-100315780D01*
X58295990Y-100411019D02*
X58343609Y-100363400D01*
X58438847Y-100315780D01*
X58676942Y-100315780D01*
X58772180Y-100363400D01*
X58819800Y-100411019D01*
X58867419Y-100506257D01*
X58867419Y-100601495D01*
X58819800Y-100744352D01*
X58248371Y-101315780D01*
X58867419Y-101315780D01*
X59248371Y-101030066D02*
X59724561Y-101030066D01*
X59153133Y-101315780D02*
X59486466Y-100315780D01*
X59819800Y-101315780D01*
X60915038Y-100934828D02*
X61676942Y-100934828D01*
X63248371Y-100791971D02*
X62915038Y-100791971D01*
X62915038Y-101315780D02*
X62915038Y-100315780D01*
X63391228Y-100315780D01*
X55417789Y-96849381D02*
X55751122Y-97849381D01*
X56084456Y-96849381D01*
X56417789Y-97849381D02*
X56417789Y-97182715D01*
X56417789Y-96849381D02*
X56370170Y-96897001D01*
X56417789Y-96944620D01*
X56465408Y-96897001D01*
X56417789Y-96849381D01*
X56417789Y-96944620D01*
X56893979Y-97182715D02*
X56893979Y-97849381D01*
X56893979Y-97277953D02*
X56941599Y-97230334D01*
X57036837Y-97182715D01*
X57179694Y-97182715D01*
X57274932Y-97230334D01*
X57322551Y-97325572D01*
X57322551Y-97849381D01*
X55274932Y-94331601D02*
X55179694Y-94283981D01*
X55036837Y-94283981D01*
X54893979Y-94331601D01*
X54798741Y-94426839D01*
X54751122Y-94522077D01*
X54703503Y-94712553D01*
X54703503Y-94855410D01*
X54751122Y-95045886D01*
X54798741Y-95141124D01*
X54893979Y-95236362D01*
X55036837Y-95283981D01*
X55132075Y-95283981D01*
X55274932Y-95236362D01*
X55322551Y-95188743D01*
X55322551Y-94855410D01*
X55132075Y-94855410D01*
X55751122Y-95283981D02*
X55751122Y-94283981D01*
X56322551Y-95283981D01*
X56322551Y-94283981D01*
X56798741Y-95283981D02*
X56798741Y-94283981D01*
X57036837Y-94283981D01*
X57179694Y-94331601D01*
X57274932Y-94426839D01*
X57322551Y-94522077D01*
X57370170Y-94712553D01*
X57370170Y-94855410D01*
X57322551Y-95045886D01*
X57274932Y-95141124D01*
X57179694Y-95236362D01*
X57036837Y-95283981D01*
X56798741Y-95283981D01*
X54417789Y-91769381D02*
X54751122Y-92769381D01*
X55084456Y-91769381D01*
X55560646Y-92769381D02*
X55465408Y-92721762D01*
X55417789Y-92674143D01*
X55370170Y-92578905D01*
X55370170Y-92293191D01*
X55417789Y-92197953D01*
X55465408Y-92150334D01*
X55560646Y-92102715D01*
X55703503Y-92102715D01*
X55798741Y-92150334D01*
X55846360Y-92197953D01*
X55893979Y-92293191D01*
X55893979Y-92578905D01*
X55846360Y-92674143D01*
X55798741Y-92721762D01*
X55703503Y-92769381D01*
X55560646Y-92769381D01*
X56751122Y-92102715D02*
X56751122Y-92769381D01*
X56322551Y-92102715D02*
X56322551Y-92626524D01*
X56370170Y-92721762D01*
X56465408Y-92769381D01*
X56608265Y-92769381D01*
X56703503Y-92721762D01*
X56751122Y-92674143D01*
X57084456Y-92102715D02*
X57465408Y-92102715D01*
X57227313Y-91769381D02*
X57227313Y-92626524D01*
X57274932Y-92721762D01*
X57370170Y-92769381D01*
X57465408Y-92769381D01*
X64552533Y-74899780D02*
X64219200Y-74423590D01*
X63981104Y-74899780D02*
X63981104Y-73899780D01*
X64362057Y-73899780D01*
X64457295Y-73947400D01*
X64504914Y-73995019D01*
X64552533Y-74090257D01*
X64552533Y-74233114D01*
X64504914Y-74328352D01*
X64457295Y-74375971D01*
X64362057Y-74423590D01*
X63981104Y-74423590D01*
X64885866Y-73899780D02*
X65504914Y-73899780D01*
X65171580Y-74280733D01*
X65314438Y-74280733D01*
X65409676Y-74328352D01*
X65457295Y-74375971D01*
X65504914Y-74471209D01*
X65504914Y-74709304D01*
X65457295Y-74804542D01*
X65409676Y-74852161D01*
X65314438Y-74899780D01*
X65028723Y-74899780D01*
X64933485Y-74852161D01*
X64885866Y-74804542D01*
X53469019Y-74045819D02*
X53516638Y-73998200D01*
X53611876Y-73950580D01*
X53849971Y-73950580D01*
X53945209Y-73998200D01*
X53992828Y-74045819D01*
X54040447Y-74141057D01*
X54040447Y-74236295D01*
X53992828Y-74379152D01*
X53421400Y-74950580D01*
X54040447Y-74950580D01*
X54469019Y-74855342D02*
X54516638Y-74902961D01*
X54469019Y-74950580D01*
X54421400Y-74902961D01*
X54469019Y-74855342D01*
X54469019Y-74950580D01*
X54897590Y-74045819D02*
X54945209Y-73998200D01*
X55040447Y-73950580D01*
X55278542Y-73950580D01*
X55373780Y-73998200D01*
X55421400Y-74045819D01*
X55469019Y-74141057D01*
X55469019Y-74236295D01*
X55421400Y-74379152D01*
X54849971Y-74950580D01*
X55469019Y-74950580D01*
X55897590Y-74950580D02*
X55897590Y-73950580D01*
X56469019Y-74950580D02*
X56040447Y-74379152D01*
X56469019Y-73950580D02*
X55897590Y-74522009D01*
X57802352Y-74950580D02*
X57707114Y-74902961D01*
X57659495Y-74855342D01*
X57611876Y-74760104D01*
X57611876Y-74474390D01*
X57659495Y-74379152D01*
X57707114Y-74331533D01*
X57802352Y-74283914D01*
X57945209Y-74283914D01*
X58040447Y-74331533D01*
X58088066Y-74379152D01*
X58135685Y-74474390D01*
X58135685Y-74760104D01*
X58088066Y-74855342D01*
X58040447Y-74902961D01*
X57945209Y-74950580D01*
X57802352Y-74950580D01*
X58564257Y-74950580D02*
X58564257Y-73950580D01*
X58992828Y-74950580D02*
X58992828Y-74426771D01*
X58945209Y-74331533D01*
X58849971Y-74283914D01*
X58707114Y-74283914D01*
X58611876Y-74331533D01*
X58564257Y-74379152D01*
X59469019Y-74950580D02*
X59469019Y-74283914D01*
X59469019Y-74379152D02*
X59516638Y-74331533D01*
X59611876Y-74283914D01*
X59754733Y-74283914D01*
X59849971Y-74331533D01*
X59897590Y-74426771D01*
X59897590Y-74950580D01*
X59897590Y-74426771D02*
X59945209Y-74331533D01*
X60040447Y-74283914D01*
X60183304Y-74283914D01*
X60278542Y-74331533D01*
X60326161Y-74426771D01*
X60326161Y-74950580D01*
X64654133Y-80640180D02*
X64320800Y-80163990D01*
X64082704Y-80640180D02*
X64082704Y-79640180D01*
X64463657Y-79640180D01*
X64558895Y-79687800D01*
X64606514Y-79735419D01*
X64654133Y-79830657D01*
X64654133Y-79973514D01*
X64606514Y-80068752D01*
X64558895Y-80116371D01*
X64463657Y-80163990D01*
X64082704Y-80163990D01*
X65035085Y-79735419D02*
X65082704Y-79687800D01*
X65177942Y-79640180D01*
X65416038Y-79640180D01*
X65511276Y-79687800D01*
X65558895Y-79735419D01*
X65606514Y-79830657D01*
X65606514Y-79925895D01*
X65558895Y-80068752D01*
X64987466Y-80640180D01*
X65606514Y-80640180D01*
X53392819Y-79786219D02*
X53440438Y-79738600D01*
X53535676Y-79690980D01*
X53773771Y-79690980D01*
X53869009Y-79738600D01*
X53916628Y-79786219D01*
X53964247Y-79881457D01*
X53964247Y-79976695D01*
X53916628Y-80119552D01*
X53345200Y-80690980D01*
X53964247Y-80690980D01*
X54392819Y-80595742D02*
X54440438Y-80643361D01*
X54392819Y-80690980D01*
X54345200Y-80643361D01*
X54392819Y-80595742D01*
X54392819Y-80690980D01*
X54821390Y-79786219D02*
X54869009Y-79738600D01*
X54964247Y-79690980D01*
X55202342Y-79690980D01*
X55297580Y-79738600D01*
X55345200Y-79786219D01*
X55392819Y-79881457D01*
X55392819Y-79976695D01*
X55345200Y-80119552D01*
X54773771Y-80690980D01*
X55392819Y-80690980D01*
X55821390Y-80690980D02*
X55821390Y-79690980D01*
X56392819Y-80690980D02*
X55964247Y-80119552D01*
X56392819Y-79690980D02*
X55821390Y-80262409D01*
X57726152Y-80690980D02*
X57630914Y-80643361D01*
X57583295Y-80595742D01*
X57535676Y-80500504D01*
X57535676Y-80214790D01*
X57583295Y-80119552D01*
X57630914Y-80071933D01*
X57726152Y-80024314D01*
X57869009Y-80024314D01*
X57964247Y-80071933D01*
X58011866Y-80119552D01*
X58059485Y-80214790D01*
X58059485Y-80500504D01*
X58011866Y-80595742D01*
X57964247Y-80643361D01*
X57869009Y-80690980D01*
X57726152Y-80690980D01*
X58488057Y-80690980D02*
X58488057Y-79690980D01*
X58916628Y-80690980D02*
X58916628Y-80167171D01*
X58869009Y-80071933D01*
X58773771Y-80024314D01*
X58630914Y-80024314D01*
X58535676Y-80071933D01*
X58488057Y-80119552D01*
X59392819Y-80690980D02*
X59392819Y-80024314D01*
X59392819Y-80119552D02*
X59440438Y-80071933D01*
X59535676Y-80024314D01*
X59678533Y-80024314D01*
X59773771Y-80071933D01*
X59821390Y-80167171D01*
X59821390Y-80690980D01*
X59821390Y-80167171D02*
X59869009Y-80071933D01*
X59964247Y-80024314D01*
X60107104Y-80024314D01*
X60202342Y-80071933D01*
X60249961Y-80167171D01*
X60249961Y-80690980D01*
X60107533Y-54097180D02*
X59774200Y-53620990D01*
X59536104Y-54097180D02*
X59536104Y-53097180D01*
X59917057Y-53097180D01*
X60012295Y-53144800D01*
X60059914Y-53192419D01*
X60107533Y-53287657D01*
X60107533Y-53430514D01*
X60059914Y-53525752D01*
X60012295Y-53573371D01*
X59917057Y-53620990D01*
X59536104Y-53620990D01*
X61059914Y-54097180D02*
X60488485Y-54097180D01*
X60774200Y-54097180D02*
X60774200Y-53097180D01*
X60678961Y-53240038D01*
X60583723Y-53335276D01*
X60488485Y-53382895D01*
X60012533Y-55621180D02*
X59441104Y-55621180D01*
X59726819Y-55621180D02*
X59726819Y-54621180D01*
X59631580Y-54764038D01*
X59536342Y-54859276D01*
X59441104Y-54906895D01*
X60441104Y-55621180D02*
X60441104Y-54621180D01*
X61012533Y-55621180D02*
X60583961Y-55049752D01*
X61012533Y-54621180D02*
X60441104Y-55192609D01*
X62345866Y-55621180D02*
X62250628Y-55573561D01*
X62203009Y-55525942D01*
X62155390Y-55430704D01*
X62155390Y-55144990D01*
X62203009Y-55049752D01*
X62250628Y-55002133D01*
X62345866Y-54954514D01*
X62488723Y-54954514D01*
X62583961Y-55002133D01*
X62631580Y-55049752D01*
X62679200Y-55144990D01*
X62679200Y-55430704D01*
X62631580Y-55525942D01*
X62583961Y-55573561D01*
X62488723Y-55621180D01*
X62345866Y-55621180D01*
X63107771Y-55621180D02*
X63107771Y-54621180D01*
X63536342Y-55621180D02*
X63536342Y-55097371D01*
X63488723Y-55002133D01*
X63393485Y-54954514D01*
X63250628Y-54954514D01*
X63155390Y-55002133D01*
X63107771Y-55049752D01*
X64012533Y-55621180D02*
X64012533Y-54954514D01*
X64012533Y-55049752D02*
X64060152Y-55002133D01*
X64155390Y-54954514D01*
X64298247Y-54954514D01*
X64393485Y-55002133D01*
X64441104Y-55097371D01*
X64441104Y-55621180D01*
X64441104Y-55097371D02*
X64488723Y-55002133D01*
X64583961Y-54954514D01*
X64726819Y-54954514D01*
X64822057Y-55002133D01*
X64869676Y-55097371D01*
X64869676Y-55621180D01*
X61350733Y-69524571D02*
X61684066Y-69524571D01*
X61826923Y-70048380D02*
X61350733Y-70048380D01*
X61350733Y-69048380D01*
X61826923Y-69048380D01*
X62207876Y-70000761D02*
X62350733Y-70048380D01*
X62588828Y-70048380D01*
X62684066Y-70000761D01*
X62731685Y-69953142D01*
X62779304Y-69857904D01*
X62779304Y-69762666D01*
X62731685Y-69667428D01*
X62684066Y-69619809D01*
X62588828Y-69572190D01*
X62398352Y-69524571D01*
X62303114Y-69476952D01*
X62255495Y-69429333D01*
X62207876Y-69334095D01*
X62207876Y-69238857D01*
X62255495Y-69143619D01*
X62303114Y-69096000D01*
X62398352Y-69048380D01*
X62636447Y-69048380D01*
X62779304Y-69096000D01*
X63207876Y-70048380D02*
X63207876Y-69048380D01*
X63588828Y-69048380D01*
X63684066Y-69096000D01*
X63731685Y-69143619D01*
X63779304Y-69238857D01*
X63779304Y-69381714D01*
X63731685Y-69476952D01*
X63684066Y-69524571D01*
X63588828Y-69572190D01*
X63207876Y-69572190D01*
X64731685Y-70048380D02*
X64160257Y-70048380D01*
X64445971Y-70048380D02*
X64445971Y-69048380D01*
X64350733Y-69191238D01*
X64255495Y-69286476D01*
X64160257Y-69334095D01*
X59877390Y-66178180D02*
X59972628Y-66178180D01*
X60067866Y-66225800D01*
X60115485Y-66273419D01*
X60163104Y-66368657D01*
X60210723Y-66559133D01*
X60210723Y-66797228D01*
X60163104Y-66987704D01*
X60115485Y-67082942D01*
X60067866Y-67130561D01*
X59972628Y-67178180D01*
X59877390Y-67178180D01*
X59782152Y-67130561D01*
X59734533Y-67082942D01*
X59686914Y-66987704D01*
X59639295Y-66797228D01*
X59639295Y-66559133D01*
X59686914Y-66368657D01*
X59734533Y-66273419D01*
X59782152Y-66225800D01*
X59877390Y-66178180D01*
X60591676Y-66273419D02*
X60639295Y-66225800D01*
X60734533Y-66178180D01*
X60972628Y-66178180D01*
X61067866Y-66225800D01*
X61115485Y-66273419D01*
X61163104Y-66368657D01*
X61163104Y-66463895D01*
X61115485Y-66606752D01*
X60544057Y-67178180D01*
X61163104Y-67178180D01*
X57337390Y-66178180D02*
X57432628Y-66178180D01*
X57527866Y-66225800D01*
X57575485Y-66273419D01*
X57623104Y-66368657D01*
X57670723Y-66559133D01*
X57670723Y-66797228D01*
X57623104Y-66987704D01*
X57575485Y-67082942D01*
X57527866Y-67130561D01*
X57432628Y-67178180D01*
X57337390Y-67178180D01*
X57242152Y-67130561D01*
X57194533Y-67082942D01*
X57146914Y-66987704D01*
X57099295Y-66797228D01*
X57099295Y-66559133D01*
X57146914Y-66368657D01*
X57194533Y-66273419D01*
X57242152Y-66225800D01*
X57337390Y-66178180D01*
X58289771Y-66178180D02*
X58385009Y-66178180D01*
X58480247Y-66225800D01*
X58527866Y-66273419D01*
X58575485Y-66368657D01*
X58623104Y-66559133D01*
X58623104Y-66797228D01*
X58575485Y-66987704D01*
X58527866Y-67082942D01*
X58480247Y-67130561D01*
X58385009Y-67178180D01*
X58289771Y-67178180D01*
X58194533Y-67130561D01*
X58146914Y-67082942D01*
X58099295Y-66987704D01*
X58051676Y-66797228D01*
X58051676Y-66559133D01*
X58099295Y-66368657D01*
X58146914Y-66273419D01*
X58194533Y-66225800D01*
X58289771Y-66178180D01*
X54519533Y-67305180D02*
X54186200Y-66828990D01*
X53948104Y-67305180D02*
X53948104Y-66305180D01*
X54329057Y-66305180D01*
X54424295Y-66352800D01*
X54471914Y-66400419D01*
X54519533Y-66495657D01*
X54519533Y-66638514D01*
X54471914Y-66733752D01*
X54424295Y-66781371D01*
X54329057Y-66828990D01*
X53948104Y-66828990D01*
X54852866Y-66305180D02*
X55519533Y-67305180D01*
X55519533Y-66305180D02*
X54852866Y-67305180D01*
X62052295Y-59828180D02*
X62623723Y-59828180D01*
X62338009Y-60828180D02*
X62338009Y-59828180D01*
X62861819Y-59828180D02*
X63528485Y-60828180D01*
X63528485Y-59828180D02*
X62861819Y-60828180D01*
X62814295Y-66352800D02*
X62719057Y-66305180D01*
X62576200Y-66305180D01*
X62433342Y-66352800D01*
X62338104Y-66448038D01*
X62290485Y-66543276D01*
X62242866Y-66733752D01*
X62242866Y-66876609D01*
X62290485Y-67067085D01*
X62338104Y-67162323D01*
X62433342Y-67257561D01*
X62576200Y-67305180D01*
X62671438Y-67305180D01*
X62814295Y-67257561D01*
X62861914Y-67209942D01*
X62861914Y-66876609D01*
X62671438Y-66876609D01*
X63290485Y-67305180D02*
X63290485Y-66305180D01*
X63861914Y-67305180D01*
X63861914Y-66305180D01*
X64338104Y-67305180D02*
X64338104Y-66305180D01*
X64576200Y-66305180D01*
X64719057Y-66352800D01*
X64814295Y-66448038D01*
X64861914Y-66543276D01*
X64909533Y-66733752D01*
X64909533Y-66876609D01*
X64861914Y-67067085D01*
X64814295Y-67162323D01*
X64719057Y-67257561D01*
X64576200Y-67305180D01*
X64338104Y-67305180D01*
X60059914Y-60732942D02*
X60012295Y-60780561D01*
X59869438Y-60828180D01*
X59774200Y-60828180D01*
X59631342Y-60780561D01*
X59536104Y-60685323D01*
X59488485Y-60590085D01*
X59440866Y-60399609D01*
X59440866Y-60256752D01*
X59488485Y-60066276D01*
X59536104Y-59971038D01*
X59631342Y-59875800D01*
X59774200Y-59828180D01*
X59869438Y-59828180D01*
X60012295Y-59875800D01*
X60059914Y-59923419D01*
X60488485Y-60828180D02*
X60488485Y-59828180D01*
X60488485Y-60304371D02*
X61059914Y-60304371D01*
X61059914Y-60828180D02*
X61059914Y-59828180D01*
X57543723Y-60828180D02*
X56972295Y-60828180D01*
X57258009Y-60828180D02*
X57258009Y-59828180D01*
X57162771Y-59971038D01*
X57067533Y-60066276D01*
X56972295Y-60113895D01*
X58400866Y-59828180D02*
X58210390Y-59828180D01*
X58115152Y-59875800D01*
X58067533Y-59923419D01*
X57972295Y-60066276D01*
X57924676Y-60256752D01*
X57924676Y-60637704D01*
X57972295Y-60732942D01*
X58019914Y-60780561D01*
X58115152Y-60828180D01*
X58305628Y-60828180D01*
X58400866Y-60780561D01*
X58448485Y-60732942D01*
X58496104Y-60637704D01*
X58496104Y-60399609D01*
X58448485Y-60304371D01*
X58400866Y-60256752D01*
X58305628Y-60209133D01*
X58115152Y-60209133D01*
X58019914Y-60256752D01*
X57972295Y-60304371D01*
X57924676Y-60399609D01*
X53098866Y-59955180D02*
X53432200Y-60955180D01*
X53765533Y-59955180D01*
X54670295Y-60859942D02*
X54622676Y-60907561D01*
X54479819Y-60955180D01*
X54384580Y-60955180D01*
X54241723Y-60907561D01*
X54146485Y-60812323D01*
X54098866Y-60717085D01*
X54051247Y-60526609D01*
X54051247Y-60383752D01*
X54098866Y-60193276D01*
X54146485Y-60098038D01*
X54241723Y-60002800D01*
X54384580Y-59955180D01*
X54479819Y-59955180D01*
X54622676Y-60002800D01*
X54670295Y-60050419D01*
X55670295Y-60859942D02*
X55622676Y-60907561D01*
X55479819Y-60955180D01*
X55384580Y-60955180D01*
X55241723Y-60907561D01*
X55146485Y-60812323D01*
X55098866Y-60717085D01*
X55051247Y-60526609D01*
X55051247Y-60383752D01*
X55098866Y-60193276D01*
X55146485Y-60098038D01*
X55241723Y-60002800D01*
X55384580Y-59955180D01*
X55479819Y-59955180D01*
X55622676Y-60002800D01*
X55670295Y-60050419D01*
D14*
X63239347Y-109719835D02*
X62032847Y-109719835D01*
X62032847Y-109432573D01*
X62090300Y-109260216D01*
X62205204Y-109145311D01*
X62320109Y-109087859D01*
X62549919Y-109030407D01*
X62722276Y-109030407D01*
X62952085Y-109087859D01*
X63066990Y-109145311D01*
X63181895Y-109260216D01*
X63239347Y-109432573D01*
X63239347Y-109719835D01*
X62147752Y-108570788D02*
X62090300Y-108513335D01*
X62032847Y-108398430D01*
X62032847Y-108111169D01*
X62090300Y-107996264D01*
X62147752Y-107938811D01*
X62262657Y-107881359D01*
X62377561Y-107881359D01*
X62549919Y-107938811D01*
X63239347Y-108628240D01*
X63239347Y-107881359D01*
X65601547Y-112496902D02*
X65601547Y-113186330D01*
X65601547Y-112841616D02*
X64395047Y-112841616D01*
X64567404Y-112956521D01*
X64682309Y-113071426D01*
X64739761Y-113186330D01*
X65601547Y-111979830D02*
X64395047Y-111979830D01*
X65601547Y-111290402D01*
X64395047Y-111290402D01*
X64395047Y-110141354D02*
X64395047Y-110715878D01*
X64969571Y-110773330D01*
X64912119Y-110715878D01*
X64854666Y-110600973D01*
X64854666Y-110313711D01*
X64912119Y-110198807D01*
X64969571Y-110141354D01*
X65084476Y-110083902D01*
X65371738Y-110083902D01*
X65486642Y-110141354D01*
X65544095Y-110198807D01*
X65601547Y-110313711D01*
X65601547Y-110600973D01*
X65544095Y-110715878D01*
X65486642Y-110773330D01*
X64797214Y-109049759D02*
X65601547Y-109049759D01*
X64337595Y-109337021D02*
X65199380Y-109624283D01*
X65199380Y-108877402D01*
X64395047Y-108187973D02*
X64395047Y-108073069D01*
X64452500Y-107958164D01*
X64509952Y-107900711D01*
X64624857Y-107843259D01*
X64854666Y-107785807D01*
X65141928Y-107785807D01*
X65371738Y-107843259D01*
X65486642Y-107900711D01*
X65544095Y-107958164D01*
X65601547Y-108073069D01*
X65601547Y-108187973D01*
X65544095Y-108302878D01*
X65486642Y-108360330D01*
X65371738Y-108417783D01*
X65141928Y-108475235D01*
X64854666Y-108475235D01*
X64624857Y-108417783D01*
X64509952Y-108360330D01*
X64452500Y-108302878D01*
X64395047Y-108187973D01*
X64395047Y-107038926D02*
X64395047Y-106924021D01*
X64452500Y-106809116D01*
X64509952Y-106751664D01*
X64624857Y-106694211D01*
X64854666Y-106636759D01*
X65141928Y-106636759D01*
X65371738Y-106694211D01*
X65486642Y-106751664D01*
X65544095Y-106809116D01*
X65601547Y-106924021D01*
X65601547Y-107038926D01*
X65544095Y-107153830D01*
X65486642Y-107211283D01*
X65371738Y-107268735D01*
X65141928Y-107326188D01*
X64854666Y-107326188D01*
X64624857Y-107268735D01*
X64509952Y-107211283D01*
X64452500Y-107153830D01*
X64395047Y-107038926D01*
D10*
X64692304Y-53512980D02*
X64692304Y-52512980D01*
X64930400Y-52512980D01*
X65073257Y-52560600D01*
X65168495Y-52655838D01*
X65216114Y-52751076D01*
X65263733Y-52941552D01*
X65263733Y-53084409D01*
X65216114Y-53274885D01*
X65168495Y-53370123D01*
X65073257Y-53465361D01*
X64930400Y-53512980D01*
X64692304Y-53512980D01*
X66216114Y-53512980D02*
X65644685Y-53512980D01*
X65930400Y-53512980D02*
X65930400Y-52512980D01*
X65835161Y-52655838D01*
X65739923Y-52751076D01*
X65644685Y-52798695D01*
X50836533Y-115419142D02*
X50788914Y-115466761D01*
X50646057Y-115514380D01*
X50550819Y-115514380D01*
X50407961Y-115466761D01*
X50312723Y-115371523D01*
X50265104Y-115276285D01*
X50217485Y-115085809D01*
X50217485Y-114942952D01*
X50265104Y-114752476D01*
X50312723Y-114657238D01*
X50407961Y-114562000D01*
X50550819Y-114514380D01*
X50646057Y-114514380D01*
X50788914Y-114562000D01*
X50836533Y-114609619D01*
X51741295Y-114514380D02*
X51265104Y-114514380D01*
X51217485Y-114990571D01*
X51265104Y-114942952D01*
X51360342Y-114895333D01*
X51598438Y-114895333D01*
X51693676Y-114942952D01*
X51741295Y-114990571D01*
X51788914Y-115085809D01*
X51788914Y-115323904D01*
X51741295Y-115419142D01*
X51693676Y-115466761D01*
X51598438Y-115514380D01*
X51360342Y-115514380D01*
X51265104Y-115466761D01*
X51217485Y-115419142D01*
X51671790Y-116962180D02*
X51100361Y-116962180D01*
X51386076Y-116962180D02*
X51386076Y-115962180D01*
X51290838Y-116105038D01*
X51195600Y-116200276D01*
X51100361Y-116247895D01*
X52290838Y-115962180D02*
X52386076Y-115962180D01*
X52481314Y-116009800D01*
X52528933Y-116057419D01*
X52576552Y-116152657D01*
X52624171Y-116343133D01*
X52624171Y-116581228D01*
X52576552Y-116771704D01*
X52528933Y-116866942D01*
X52481314Y-116914561D01*
X52386076Y-116962180D01*
X52290838Y-116962180D01*
X52195600Y-116914561D01*
X52147980Y-116866942D01*
X52100361Y-116771704D01*
X52052742Y-116581228D01*
X52052742Y-116343133D01*
X52100361Y-116152657D01*
X52147980Y-116057419D01*
X52195600Y-116009800D01*
X52290838Y-115962180D01*
X53243219Y-115962180D02*
X53338457Y-115962180D01*
X53433695Y-116009800D01*
X53481314Y-116057419D01*
X53528933Y-116152657D01*
X53576552Y-116343133D01*
X53576552Y-116581228D01*
X53528933Y-116771704D01*
X53481314Y-116866942D01*
X53433695Y-116914561D01*
X53338457Y-116962180D01*
X53243219Y-116962180D01*
X53147980Y-116914561D01*
X53100361Y-116866942D01*
X53052742Y-116771704D01*
X53005123Y-116581228D01*
X53005123Y-116343133D01*
X53052742Y-116152657D01*
X53100361Y-116057419D01*
X53147980Y-116009800D01*
X53243219Y-115962180D01*
X54195600Y-115962180D02*
X54290838Y-115962180D01*
X54386076Y-116009800D01*
X54433695Y-116057419D01*
X54481314Y-116152657D01*
X54528933Y-116343133D01*
X54528933Y-116581228D01*
X54481314Y-116771704D01*
X54433695Y-116866942D01*
X54386076Y-116914561D01*
X54290838Y-116962180D01*
X54195600Y-116962180D01*
X54100361Y-116914561D01*
X54052742Y-116866942D01*
X54005123Y-116771704D01*
X53957504Y-116581228D01*
X53957504Y-116343133D01*
X54005123Y-116152657D01*
X54052742Y-116057419D01*
X54100361Y-116009800D01*
X54195600Y-115962180D01*
X55386076Y-116295514D02*
X55386076Y-116962180D01*
X54957504Y-116295514D02*
X54957504Y-116819323D01*
X55005123Y-116914561D01*
X55100361Y-116962180D01*
X55243219Y-116962180D01*
X55338457Y-116914561D01*
X55386076Y-116866942D01*
X56195600Y-116438371D02*
X55862266Y-116438371D01*
X55862266Y-116962180D02*
X55862266Y-115962180D01*
X56338457Y-115962180D01*
X51034333Y-104547942D02*
X50986714Y-104595561D01*
X50843857Y-104643180D01*
X50748619Y-104643180D01*
X50605761Y-104595561D01*
X50510523Y-104500323D01*
X50462904Y-104405085D01*
X50415285Y-104214609D01*
X50415285Y-104071752D01*
X50462904Y-103881276D01*
X50510523Y-103786038D01*
X50605761Y-103690800D01*
X50748619Y-103643180D01*
X50843857Y-103643180D01*
X50986714Y-103690800D01*
X51034333Y-103738419D01*
X51891476Y-103976514D02*
X51891476Y-104643180D01*
X51653380Y-103595561D02*
X51415285Y-104309847D01*
X52034333Y-104309847D01*
X58210047Y-103408219D02*
X58257666Y-103360600D01*
X58352904Y-103312980D01*
X58591000Y-103312980D01*
X58686238Y-103360600D01*
X58733857Y-103408219D01*
X58781476Y-103503457D01*
X58781476Y-103598695D01*
X58733857Y-103741552D01*
X58162428Y-104312980D01*
X58781476Y-104312980D01*
X59210047Y-104217742D02*
X59257666Y-104265361D01*
X59210047Y-104312980D01*
X59162428Y-104265361D01*
X59210047Y-104217742D01*
X59210047Y-104312980D01*
X59638619Y-103408219D02*
X59686238Y-103360600D01*
X59781476Y-103312980D01*
X60019571Y-103312980D01*
X60114809Y-103360600D01*
X60162428Y-103408219D01*
X60210047Y-103503457D01*
X60210047Y-103598695D01*
X60162428Y-103741552D01*
X59591000Y-104312980D01*
X60210047Y-104312980D01*
X61067190Y-103646314D02*
X61067190Y-104312980D01*
X60638619Y-103646314D02*
X60638619Y-104170123D01*
X60686238Y-104265361D01*
X60781476Y-104312980D01*
X60924333Y-104312980D01*
X61019571Y-104265361D01*
X61067190Y-104217742D01*
X61876714Y-103789171D02*
X61543380Y-103789171D01*
X61543380Y-104312980D02*
X61543380Y-103312980D01*
X62019571Y-103312980D01*
X58989933Y-85650342D02*
X58942314Y-85697961D01*
X58799457Y-85745580D01*
X58704219Y-85745580D01*
X58561361Y-85697961D01*
X58466123Y-85602723D01*
X58418504Y-85507485D01*
X58370885Y-85317009D01*
X58370885Y-85174152D01*
X58418504Y-84983676D01*
X58466123Y-84888438D01*
X58561361Y-84793200D01*
X58704219Y-84745580D01*
X58799457Y-84745580D01*
X58942314Y-84793200D01*
X58989933Y-84840819D01*
X59323266Y-84745580D02*
X59942314Y-84745580D01*
X59608980Y-85126533D01*
X59751838Y-85126533D01*
X59847076Y-85174152D01*
X59894695Y-85221771D01*
X59942314Y-85317009D01*
X59942314Y-85555104D01*
X59894695Y-85650342D01*
X59847076Y-85697961D01*
X59751838Y-85745580D01*
X59466123Y-85745580D01*
X59370885Y-85697961D01*
X59323266Y-85650342D01*
X59202771Y-87269580D02*
X58631342Y-87269580D01*
X58917057Y-87269580D02*
X58917057Y-86269580D01*
X58821819Y-86412438D01*
X58726580Y-86507676D01*
X58631342Y-86555295D01*
X59821819Y-86269580D02*
X59917057Y-86269580D01*
X60012295Y-86317200D01*
X60059914Y-86364819D01*
X60107533Y-86460057D01*
X60155152Y-86650533D01*
X60155152Y-86888628D01*
X60107533Y-87079104D01*
X60059914Y-87174342D01*
X60012295Y-87221961D01*
X59917057Y-87269580D01*
X59821819Y-87269580D01*
X59726580Y-87221961D01*
X59678961Y-87174342D01*
X59631342Y-87079104D01*
X59583723Y-86888628D01*
X59583723Y-86650533D01*
X59631342Y-86460057D01*
X59678961Y-86364819D01*
X59726580Y-86317200D01*
X59821819Y-86269580D01*
X61012295Y-86602914D02*
X61012295Y-87269580D01*
X60583723Y-86602914D02*
X60583723Y-87126723D01*
X60631342Y-87221961D01*
X60726580Y-87269580D01*
X60869438Y-87269580D01*
X60964676Y-87221961D01*
X61012295Y-87174342D01*
X61821819Y-86745771D02*
X61488485Y-86745771D01*
X61488485Y-87269580D02*
X61488485Y-86269580D01*
X61964676Y-86269580D01*
X57797342Y-70809466D02*
X57844961Y-70857085D01*
X57892580Y-70999942D01*
X57892580Y-71095180D01*
X57844961Y-71238038D01*
X57749723Y-71333276D01*
X57654485Y-71380895D01*
X57464009Y-71428514D01*
X57321152Y-71428514D01*
X57130676Y-71380895D01*
X57035438Y-71333276D01*
X56940200Y-71238038D01*
X56892580Y-71095180D01*
X56892580Y-70999942D01*
X56940200Y-70857085D01*
X56987819Y-70809466D01*
X56987819Y-70428514D02*
X56940200Y-70380895D01*
X56892580Y-70285657D01*
X56892580Y-70047561D01*
X56940200Y-69952323D01*
X56987819Y-69904704D01*
X57083057Y-69857085D01*
X57178295Y-69857085D01*
X57321152Y-69904704D01*
X57892580Y-70476133D01*
X57892580Y-69857085D01*
X51892580Y-72285657D02*
X51892580Y-72190419D01*
X51940200Y-72095180D01*
X51987819Y-72047561D01*
X52083057Y-71999942D01*
X52273533Y-71952323D01*
X52511628Y-71952323D01*
X52702104Y-71999942D01*
X52797342Y-72047561D01*
X52844961Y-72095180D01*
X52892580Y-72190419D01*
X52892580Y-72285657D01*
X52844961Y-72380895D01*
X52797342Y-72428514D01*
X52702104Y-72476133D01*
X52511628Y-72523752D01*
X52273533Y-72523752D01*
X52083057Y-72476133D01*
X51987819Y-72428514D01*
X51940200Y-72380895D01*
X51892580Y-72285657D01*
X52797342Y-71523752D02*
X52844961Y-71476133D01*
X52892580Y-71523752D01*
X52844961Y-71571371D01*
X52797342Y-71523752D01*
X52892580Y-71523752D01*
X52892580Y-70523752D02*
X52892580Y-71095180D01*
X52892580Y-70809466D02*
X51892580Y-70809466D01*
X52035438Y-70904704D01*
X52130676Y-70999942D01*
X52178295Y-71095180D01*
X52225914Y-69666609D02*
X52892580Y-69666609D01*
X52225914Y-70095180D02*
X52749723Y-70095180D01*
X52844961Y-70047561D01*
X52892580Y-69952323D01*
X52892580Y-69809466D01*
X52844961Y-69714228D01*
X52797342Y-69666609D01*
X52368771Y-68857085D02*
X52368771Y-69190419D01*
X52892580Y-69190419D02*
X51892580Y-69190419D01*
X51892580Y-68714228D01*
X65695533Y-86971142D02*
X65647914Y-87018761D01*
X65505057Y-87066380D01*
X65409819Y-87066380D01*
X65266961Y-87018761D01*
X65171723Y-86923523D01*
X65124104Y-86828285D01*
X65076485Y-86637809D01*
X65076485Y-86494952D01*
X65124104Y-86304476D01*
X65171723Y-86209238D01*
X65266961Y-86114000D01*
X65409819Y-86066380D01*
X65505057Y-86066380D01*
X65647914Y-86114000D01*
X65695533Y-86161619D01*
X66647914Y-87066380D02*
X66076485Y-87066380D01*
X66362200Y-87066380D02*
X66362200Y-86066380D01*
X66266961Y-86209238D01*
X66171723Y-86304476D01*
X66076485Y-86352095D01*
X64422590Y-99309180D02*
X63851161Y-99309180D01*
X64136876Y-99309180D02*
X64136876Y-98309180D01*
X64041638Y-98452038D01*
X63946400Y-98547276D01*
X63851161Y-98594895D01*
X65041638Y-98309180D02*
X65136876Y-98309180D01*
X65232114Y-98356800D01*
X65279733Y-98404419D01*
X65327352Y-98499657D01*
X65374971Y-98690133D01*
X65374971Y-98928228D01*
X65327352Y-99118704D01*
X65279733Y-99213942D01*
X65232114Y-99261561D01*
X65136876Y-99309180D01*
X65041638Y-99309180D01*
X64946400Y-99261561D01*
X64898780Y-99213942D01*
X64851161Y-99118704D01*
X64803542Y-98928228D01*
X64803542Y-98690133D01*
X64851161Y-98499657D01*
X64898780Y-98404419D01*
X64946400Y-98356800D01*
X65041638Y-98309180D01*
X65994019Y-98309180D02*
X66089257Y-98309180D01*
X66184495Y-98356800D01*
X66232114Y-98404419D01*
X66279733Y-98499657D01*
X66327352Y-98690133D01*
X66327352Y-98928228D01*
X66279733Y-99118704D01*
X66232114Y-99213942D01*
X66184495Y-99261561D01*
X66089257Y-99309180D01*
X65994019Y-99309180D01*
X65898780Y-99261561D01*
X65851161Y-99213942D01*
X65803542Y-99118704D01*
X65755923Y-98928228D01*
X65755923Y-98690133D01*
X65803542Y-98499657D01*
X65851161Y-98404419D01*
X65898780Y-98356800D01*
X65994019Y-98309180D01*
X66946400Y-98309180D02*
X67041638Y-98309180D01*
X67136876Y-98356800D01*
X67184495Y-98404419D01*
X67232114Y-98499657D01*
X67279733Y-98690133D01*
X67279733Y-98928228D01*
X67232114Y-99118704D01*
X67184495Y-99213942D01*
X67136876Y-99261561D01*
X67041638Y-99309180D01*
X66946400Y-99309180D01*
X66851161Y-99261561D01*
X66803542Y-99213942D01*
X66755923Y-99118704D01*
X66708304Y-98928228D01*
X66708304Y-98690133D01*
X66755923Y-98499657D01*
X66803542Y-98404419D01*
X66851161Y-98356800D01*
X66946400Y-98309180D01*
X68136876Y-98642514D02*
X68136876Y-99309180D01*
X67708304Y-98642514D02*
X67708304Y-99166323D01*
X67755923Y-99261561D01*
X67851161Y-99309180D01*
X67994019Y-99309180D01*
X68089257Y-99261561D01*
X68136876Y-99213942D01*
X68946400Y-98785371D02*
X68613066Y-98785371D01*
X68613066Y-99309180D02*
X68613066Y-98309180D01*
X69089257Y-98309180D01*
M02*
