G04 #@! TF.GenerationSoftware,KiCad,Pcbnew,(5.1.2)-2*
G04 #@! TF.CreationDate,2020-11-08T21:10:06-06:00*
G04 #@! TF.ProjectId,TempMonitor10PCB,54656d70-4d6f-46e6-9974-6f7231305043,rev?*
G04 #@! TF.SameCoordinates,Original*
G04 #@! TF.FileFunction,Copper,L1,Top*
G04 #@! TF.FilePolarity,Positive*
%FSLAX46Y46*%
G04 Gerber Fmt 4.6, Leading zero omitted, Abs format (unit mm)*
G04 Created by KiCad (PCBNEW (5.1.2)-2) date 2020-11-08 21:10:06*
%MOMM*%
%LPD*%
G04 APERTURE LIST*
%ADD10C,2.600000*%
%ADD11R,2.600000X2.600000*%
%ADD12C,1.500000*%
%ADD13R,1.500000X1.500000*%
%ADD14C,1.590000*%
%ADD15O,1.600000X1.600000*%
%ADD16C,1.600000*%
%ADD17C,1.524000*%
%ADD18C,3.500000*%
%ADD19C,1.800000*%
%ADD20R,1.800000X1.800000*%
%ADD21C,2.000000*%
%ADD22R,2.000000X2.000000*%
%ADD23C,2.032000*%
G04 APERTURE END LIST*
D10*
X78816200Y-122754400D03*
D11*
X78816200Y-117754400D03*
D12*
X75046200Y-100907600D03*
X77586200Y-102177600D03*
X75046200Y-103447600D03*
X77586200Y-104717600D03*
X75046200Y-105987600D03*
X77586200Y-107257600D03*
X75046200Y-108527600D03*
D13*
X77586200Y-109797600D03*
D12*
X75046200Y-83350800D03*
X77586200Y-84620800D03*
X75046200Y-85890800D03*
X77586200Y-87160800D03*
X75046200Y-88430800D03*
X77586200Y-89700800D03*
X75046200Y-90970800D03*
D13*
X77586200Y-92240800D03*
D12*
X75046200Y-65794000D03*
X77586200Y-67064000D03*
X75046200Y-68334000D03*
X77586200Y-69604000D03*
X75046200Y-70874000D03*
X77586200Y-72144000D03*
X75046200Y-73414000D03*
D13*
X77586200Y-74684000D03*
D10*
X78816200Y-58162200D03*
D11*
X78816200Y-53162200D03*
D14*
X58941599Y-92418601D03*
X58941599Y-94958601D03*
X58941599Y-97498601D03*
D15*
X54432200Y-77012800D03*
D16*
X64592200Y-77012800D03*
D15*
X54432200Y-82677000D03*
D16*
X64592200Y-82677000D03*
D15*
X60198000Y-57505600D03*
D16*
X70358000Y-57505600D03*
D17*
X62941200Y-64566800D03*
X60401200Y-64566800D03*
X57861200Y-64566800D03*
X55321200Y-64566800D03*
X62941200Y-62026800D03*
X60401200Y-62026800D03*
X57861200Y-62026800D03*
X55321200Y-62026800D03*
D18*
X66598800Y-101473000D03*
X66598800Y-116713000D03*
D19*
X68961000Y-51841400D03*
D20*
X68961000Y-54381400D03*
D21*
X55422800Y-113178600D03*
D22*
X55422800Y-108178600D03*
D16*
X53862600Y-103886000D03*
X56362600Y-103886000D03*
X54096600Y-86769524D03*
X56596600Y-86769524D03*
X54940200Y-71892800D03*
X54940200Y-69392800D03*
D21*
X66167000Y-95119200D03*
D22*
X66167000Y-90119200D03*
D23*
X70233792Y-51841400D02*
X68961000Y-51841400D01*
X71157999Y-52765607D02*
X70233792Y-51841400D01*
X71157999Y-56705601D02*
X71157999Y-52765607D01*
X70358000Y-57505600D02*
X71157999Y-56705601D01*
X75620199Y-87856801D02*
X75046200Y-88430800D01*
X76890199Y-87856801D02*
X75620199Y-87856801D01*
X77586200Y-87160800D02*
X76890199Y-87856801D01*
X78646860Y-104717600D02*
X77586200Y-104717600D01*
X79552201Y-103812259D02*
X78646860Y-104717600D01*
X79552201Y-88066141D02*
X79552201Y-103812259D01*
X78646860Y-87160800D02*
X79552201Y-88066141D01*
X77586200Y-87160800D02*
X78646860Y-87160800D01*
X75620199Y-105413601D02*
X75046200Y-105987600D01*
X76890199Y-105413601D02*
X75620199Y-105413601D01*
X77586200Y-104717600D02*
X76890199Y-105413601D01*
X75484200Y-117754400D02*
X78816200Y-117754400D01*
X73080199Y-115350399D02*
X75484200Y-117754400D01*
X73080199Y-106892941D02*
X73080199Y-115350399D01*
X73985540Y-105987600D02*
X73080199Y-106892941D01*
X75046200Y-105987600D02*
X73985540Y-105987600D01*
X70436274Y-115350399D02*
X73080199Y-115350399D01*
X69073673Y-116713000D02*
X70436274Y-115350399D01*
X66598800Y-116713000D02*
X69073673Y-116713000D01*
X58941599Y-89114523D02*
X56596600Y-86769524D01*
X55321200Y-60949170D02*
X55321200Y-62026800D01*
X56221571Y-60048799D02*
X55321200Y-60949170D01*
X59500829Y-60048799D02*
X56221571Y-60048799D01*
X60401200Y-60949170D02*
X59500829Y-60048799D01*
X60401200Y-62026800D02*
X60401200Y-60949170D01*
X54140201Y-68592801D02*
X54940200Y-69392800D01*
X53343199Y-67795799D02*
X54140201Y-68592801D01*
X53343199Y-62927171D02*
X53343199Y-67795799D01*
X54243570Y-62026800D02*
X53343199Y-62927171D01*
X55321200Y-62026800D02*
X54243570Y-62026800D01*
X53632201Y-76212801D02*
X54432200Y-77012800D01*
X52924199Y-75504799D02*
X53632201Y-76212801D01*
X52924199Y-70277431D02*
X52924199Y-75504799D01*
X53808830Y-69392800D02*
X52924199Y-70277431D01*
X54940200Y-69392800D02*
X53808830Y-69392800D01*
X54432200Y-77012800D02*
X54432200Y-82677000D01*
X56596600Y-84841400D02*
X56596600Y-86769524D01*
X54432200Y-82677000D02*
X56596600Y-84841400D01*
X66167000Y-87087200D02*
X66167000Y-90119200D01*
X73080199Y-80174001D02*
X66167000Y-87087200D01*
X73080199Y-75380001D02*
X73080199Y-80174001D01*
X75046200Y-73414000D02*
X73080199Y-75380001D01*
X63072399Y-90056599D02*
X58941599Y-90056599D01*
X63135000Y-90119200D02*
X63072399Y-90056599D01*
X66167000Y-90119200D02*
X63135000Y-90119200D01*
X58941599Y-92418601D02*
X58941599Y-90056599D01*
X58941599Y-90056599D02*
X58941599Y-89114523D01*
X60401200Y-58840170D02*
X60401200Y-60949170D01*
X60198000Y-58636970D02*
X60401200Y-58840170D01*
X60198000Y-57505600D02*
X60198000Y-58636970D01*
X62915998Y-101473000D02*
X58941599Y-97498601D01*
X66598800Y-101473000D02*
X62915998Y-101473000D01*
X58941599Y-101307001D02*
X56362600Y-103886000D01*
X58941599Y-97498601D02*
X58941599Y-101307001D01*
X56362600Y-107238800D02*
X55422800Y-108178600D01*
X56362600Y-103886000D02*
X56362600Y-107238800D01*
X64592200Y-77012800D02*
X60401200Y-72821800D01*
X78816200Y-53976002D02*
X66247401Y-66544801D01*
X78816200Y-53162200D02*
X78816200Y-53976002D01*
X60779001Y-66544801D02*
X60401200Y-66167000D01*
X66247401Y-66544801D02*
X60779001Y-66544801D01*
X60401200Y-72821800D02*
X60401200Y-66167000D01*
X60401200Y-66167000D02*
X60401200Y-64566800D01*
X57861200Y-65644430D02*
X57861200Y-64566800D01*
X57861200Y-74814630D02*
X57861200Y-65644430D01*
X64592200Y-81545630D02*
X57861200Y-74814630D01*
X64592200Y-82677000D02*
X64592200Y-81545630D01*
X64592200Y-80169338D02*
X64592200Y-82677000D01*
X66824209Y-77937329D02*
X64592200Y-80169338D01*
X66824209Y-72955331D02*
X66824209Y-77937329D01*
X73985540Y-65794000D02*
X66824209Y-72955331D01*
X75046200Y-65794000D02*
X73985540Y-65794000D01*
M02*
