M48
; DRILL file {KiCad (5.1.2)-2} date 11/8/2020 9:10:04 PM
; FORMAT={-:-/ absolute / inch / decimal}
; #@! TF.CreationDate,2020-11-08T21:10:04-06:00
; #@! TF.GenerationSoftware,Kicad,Pcbnew,(5.1.2)-2
; #@! TF.FileFunction,Plated,1,2,PTH
FMAT,2
INCH
T1C0.0299
T2C0.0300
T3C0.0315
T4C0.0350
T5C0.0354
T6C0.0394
T7C0.0492
T8C0.0512
%
G90
G05
T1
X2.9546Y-3.2815
X2.9546Y-3.3815
X2.9546Y-3.4815
X2.9546Y-3.5815
X3.0546Y-3.3315
X3.0546Y-3.4315
X3.0546Y-3.5315
X3.0546Y-3.6315
X2.9546Y-2.5903
X2.9546Y-2.6903
X2.9546Y-2.7903
X2.9546Y-2.8903
X3.0546Y-2.6403
X3.0546Y-2.7403
X3.0546Y-2.8403
X3.0546Y-2.9403
X2.9546Y-3.9727
X2.9546Y-4.0727
X2.9546Y-4.1727
X2.9546Y-4.2727
X3.0546Y-4.0227
X3.0546Y-4.1227
X3.0546Y-4.2227
X3.0546Y-4.3227
T2
X2.178Y-2.442
X2.178Y-2.542
X2.278Y-2.442
X2.278Y-2.542
X2.378Y-2.442
X2.378Y-2.542
X2.478Y-2.442
X2.478Y-2.542
T3
X2.143Y-3.255
X2.543Y-3.255
X2.163Y-2.732
X2.163Y-2.8304
X2.1298Y-3.4161
X2.2282Y-3.4161
X2.1206Y-4.09
X2.219Y-4.09
X2.37Y-2.264
X2.77Y-2.264
X2.143Y-3.032
X2.543Y-3.032
T4
X2.3205Y-3.6385
X2.3205Y-3.7385
X2.3205Y-3.8385
T5
X2.715Y-2.041
X2.715Y-2.141
T6
X2.182Y-4.259
X2.182Y-4.4559
X2.605Y-3.548
X2.605Y-3.7449
T7
X2.622Y-3.995
X2.622Y-4.595
T8
X3.103Y-2.093
X3.103Y-2.2899
X3.103Y-4.636
X3.103Y-4.8329
T0
M30
