G04 #@! TF.GenerationSoftware,KiCad,Pcbnew,(5.1.2)-2*
G04 #@! TF.CreationDate,2020-11-08T21:10:06-06:00*
G04 #@! TF.ProjectId,TempMonitor10PCB,54656d70-4d6f-46e6-9974-6f7231305043,rev?*
G04 #@! TF.SameCoordinates,Original*
G04 #@! TF.FileFunction,Legend,Bot*
G04 #@! TF.FilePolarity,Positive*
%FSLAX46Y46*%
G04 Gerber Fmt 4.6, Leading zero omitted, Abs format (unit mm)*
G04 Created by KiCad (PCBNEW (5.1.2)-2) date 2020-11-08 21:10:06*
%MOMM*%
%LPD*%
G04 APERTURE LIST*
%ADD10C,0.250000*%
G04 APERTURE END LIST*
D10*
X77702028Y-93568414D02*
X78416314Y-94068414D01*
X77702028Y-94425557D02*
X79202028Y-94425557D01*
X79202028Y-93854128D01*
X79130600Y-93711271D01*
X79059171Y-93639842D01*
X78916314Y-93568414D01*
X78702028Y-93568414D01*
X78559171Y-93639842D01*
X78487742Y-93711271D01*
X78416314Y-93854128D01*
X78416314Y-94425557D01*
X79202028Y-92496985D02*
X78130600Y-92496985D01*
X77916314Y-92568414D01*
X77773457Y-92711271D01*
X77702028Y-92925557D01*
X77702028Y-93068414D01*
X78702028Y-91139842D02*
X77702028Y-91139842D01*
X79273457Y-91496985D02*
X78202028Y-91854128D01*
X78202028Y-90925557D01*
X79202028Y-89639842D02*
X79202028Y-90354128D01*
X78487742Y-90425557D01*
X78559171Y-90354128D01*
X78630600Y-90211271D01*
X78630600Y-89854128D01*
X78559171Y-89711271D01*
X78487742Y-89639842D01*
X78344885Y-89568414D01*
X77987742Y-89568414D01*
X77844885Y-89639842D01*
X77773457Y-89711271D01*
X77702028Y-89854128D01*
X77702028Y-90211271D01*
X77773457Y-90354128D01*
X77844885Y-90425557D01*
X78702028Y-87782700D02*
X77202028Y-87782700D01*
X78630600Y-87782700D02*
X78702028Y-87639842D01*
X78702028Y-87354128D01*
X78630600Y-87211271D01*
X78559171Y-87139842D01*
X78416314Y-87068414D01*
X77987742Y-87068414D01*
X77844885Y-87139842D01*
X77773457Y-87211271D01*
X77702028Y-87354128D01*
X77702028Y-87639842D01*
X77773457Y-87782700D01*
X77702028Y-86211271D02*
X77773457Y-86354128D01*
X77844885Y-86425557D01*
X77987742Y-86496985D01*
X78416314Y-86496985D01*
X78559171Y-86425557D01*
X78630600Y-86354128D01*
X78702028Y-86211271D01*
X78702028Y-85996985D01*
X78630600Y-85854128D01*
X78559171Y-85782700D01*
X78416314Y-85711271D01*
X77987742Y-85711271D01*
X77844885Y-85782700D01*
X77773457Y-85854128D01*
X77702028Y-85996985D01*
X77702028Y-86211271D01*
X78702028Y-85211271D02*
X77702028Y-84925557D01*
X78416314Y-84639842D01*
X77702028Y-84354128D01*
X78702028Y-84068414D01*
X77773457Y-82925557D02*
X77702028Y-83068414D01*
X77702028Y-83354128D01*
X77773457Y-83496985D01*
X77916314Y-83568414D01*
X78487742Y-83568414D01*
X78630600Y-83496985D01*
X78702028Y-83354128D01*
X78702028Y-83068414D01*
X78630600Y-82925557D01*
X78487742Y-82854128D01*
X78344885Y-82854128D01*
X78202028Y-83568414D01*
X77702028Y-82211271D02*
X78702028Y-82211271D01*
X78416314Y-82211271D02*
X78559171Y-82139842D01*
X78630600Y-82068414D01*
X78702028Y-81925557D01*
X78702028Y-81782700D01*
X77844885Y-81282700D02*
X77773457Y-81211271D01*
X77702028Y-81282700D01*
X77773457Y-81354128D01*
X77844885Y-81282700D01*
X77702028Y-81282700D01*
X78630600Y-81282700D02*
X78559171Y-81211271D01*
X78487742Y-81282700D01*
X78559171Y-81354128D01*
X78630600Y-81282700D01*
X78487742Y-81282700D01*
X76202028Y-93782700D02*
X75202028Y-93782700D01*
X76773457Y-94139842D02*
X75702028Y-94496985D01*
X75702028Y-93568414D01*
X75202028Y-90711271D02*
X76702028Y-90711271D01*
X76130600Y-90711271D02*
X76202028Y-90568414D01*
X76202028Y-90282700D01*
X76130600Y-90139842D01*
X76059171Y-90068414D01*
X75916314Y-89996985D01*
X75487742Y-89996985D01*
X75344885Y-90068414D01*
X75273457Y-90139842D01*
X75202028Y-90282700D01*
X75202028Y-90568414D01*
X75273457Y-90711271D01*
X75202028Y-89139842D02*
X75273457Y-89282700D01*
X75416314Y-89354128D01*
X76702028Y-89354128D01*
X76202028Y-87925557D02*
X75202028Y-87925557D01*
X76202028Y-88568414D02*
X75416314Y-88568414D01*
X75273457Y-88496985D01*
X75202028Y-88354128D01*
X75202028Y-88139842D01*
X75273457Y-87996985D01*
X75344885Y-87925557D01*
X75273457Y-86639842D02*
X75202028Y-86782700D01*
X75202028Y-87068414D01*
X75273457Y-87211271D01*
X75416314Y-87282700D01*
X75987742Y-87282700D01*
X76130600Y-87211271D01*
X76202028Y-87068414D01*
X76202028Y-86782700D01*
X76130600Y-86639842D01*
X75987742Y-86568414D01*
X75844885Y-86568414D01*
X75702028Y-87282700D01*
X76559171Y-83711271D02*
X76630600Y-83639842D01*
X76702028Y-83496985D01*
X76702028Y-83139842D01*
X76630600Y-82996985D01*
X76559171Y-82925557D01*
X76416314Y-82854128D01*
X76273457Y-82854128D01*
X76059171Y-82925557D01*
X75202028Y-83782700D01*
X75202028Y-82854128D01*
X76202028Y-81568414D02*
X75202028Y-81568414D01*
X76773457Y-81925557D02*
X75702028Y-82282700D01*
X75702028Y-81354128D01*
X76702028Y-80996985D02*
X75202028Y-80496985D01*
X76702028Y-79996985D01*
X74202028Y-93711271D02*
X74202028Y-94425557D01*
X73487742Y-94496985D01*
X73559171Y-94425557D01*
X73630600Y-94282700D01*
X73630600Y-93925557D01*
X73559171Y-93782700D01*
X73487742Y-93711271D01*
X73344885Y-93639842D01*
X72987742Y-93639842D01*
X72844885Y-93711271D01*
X72773457Y-93782700D01*
X72702028Y-93925557D01*
X72702028Y-94282700D01*
X72773457Y-94425557D01*
X72844885Y-94496985D01*
X72702028Y-90711271D02*
X74202028Y-90711271D01*
X73630600Y-90711271D02*
X73702028Y-90568414D01*
X73702028Y-90282700D01*
X73630600Y-90139842D01*
X73559171Y-90068414D01*
X73416314Y-89996985D01*
X72987742Y-89996985D01*
X72844885Y-90068414D01*
X72773457Y-90139842D01*
X72702028Y-90282700D01*
X72702028Y-90568414D01*
X72773457Y-90711271D01*
X72702028Y-89139842D02*
X72773457Y-89282700D01*
X72916314Y-89354128D01*
X74202028Y-89354128D01*
X73702028Y-87925557D02*
X72702028Y-87925557D01*
X73702028Y-88568414D02*
X72916314Y-88568414D01*
X72773457Y-88496985D01*
X72702028Y-88354128D01*
X72702028Y-88139842D01*
X72773457Y-87996985D01*
X72844885Y-87925557D01*
X72773457Y-86639842D02*
X72702028Y-86782700D01*
X72702028Y-87068414D01*
X72773457Y-87211271D01*
X72916314Y-87282700D01*
X73487742Y-87282700D01*
X73630600Y-87211271D01*
X73702028Y-87068414D01*
X73702028Y-86782700D01*
X73630600Y-86639842D01*
X73487742Y-86568414D01*
X73344885Y-86568414D01*
X73202028Y-87282700D01*
X74273457Y-84854128D02*
X72344885Y-86139842D01*
X73702028Y-84496985D02*
X72702028Y-84211271D01*
X73416314Y-83925557D01*
X72702028Y-83639842D01*
X73702028Y-83354128D01*
X72702028Y-82782700D02*
X74202028Y-82782700D01*
X72702028Y-82139842D02*
X73487742Y-82139842D01*
X73630600Y-82211271D01*
X73702028Y-82354128D01*
X73702028Y-82568414D01*
X73630600Y-82711271D01*
X73559171Y-82782700D01*
X73702028Y-81639842D02*
X73702028Y-81068414D01*
X74202028Y-81425557D02*
X72916314Y-81425557D01*
X72773457Y-81354128D01*
X72702028Y-81211271D01*
X72702028Y-81068414D01*
X74059171Y-78354128D02*
X74130600Y-78282700D01*
X74202028Y-78139842D01*
X74202028Y-77782700D01*
X74130600Y-77639842D01*
X74059171Y-77568414D01*
X73916314Y-77496985D01*
X73773457Y-77496985D01*
X73559171Y-77568414D01*
X72702028Y-78425557D01*
X72702028Y-77496985D01*
X73702028Y-76211271D02*
X72702028Y-76211271D01*
X74273457Y-76568414D02*
X73202028Y-76925557D01*
X73202028Y-75996985D01*
X74202028Y-75639842D02*
X72702028Y-75139842D01*
X74202028Y-74639842D01*
X71702028Y-94568414D02*
X71702028Y-93568414D01*
X70202028Y-94211271D01*
X70202028Y-90711271D02*
X71702028Y-90711271D01*
X71130600Y-90711271D02*
X71202028Y-90568414D01*
X71202028Y-90282700D01*
X71130600Y-90139842D01*
X71059171Y-90068414D01*
X70916314Y-89996985D01*
X70487742Y-89996985D01*
X70344885Y-90068414D01*
X70273457Y-90139842D01*
X70202028Y-90282700D01*
X70202028Y-90568414D01*
X70273457Y-90711271D01*
X70202028Y-89354128D02*
X71202028Y-89354128D01*
X70916314Y-89354128D02*
X71059171Y-89282700D01*
X71130600Y-89211271D01*
X71202028Y-89068414D01*
X71202028Y-88925557D01*
X70202028Y-88211271D02*
X70273457Y-88354128D01*
X70344885Y-88425557D01*
X70487742Y-88496985D01*
X70916314Y-88496985D01*
X71059171Y-88425557D01*
X71130600Y-88354128D01*
X71202028Y-88211271D01*
X71202028Y-87996985D01*
X71130600Y-87854128D01*
X71059171Y-87782700D01*
X70916314Y-87711271D01*
X70487742Y-87711271D01*
X70344885Y-87782700D01*
X70273457Y-87854128D01*
X70202028Y-87996985D01*
X70202028Y-88211271D01*
X71202028Y-87211271D02*
X70202028Y-86925557D01*
X70916314Y-86639842D01*
X70202028Y-86354128D01*
X71202028Y-86068414D01*
X71202028Y-85496985D02*
X70202028Y-85496985D01*
X71059171Y-85496985D02*
X71130600Y-85425557D01*
X71202028Y-85282700D01*
X71202028Y-85068414D01*
X71130600Y-84925557D01*
X70987742Y-84854128D01*
X70202028Y-84854128D01*
X71773457Y-83068414D02*
X69844885Y-84354128D01*
X71202028Y-82711271D02*
X70202028Y-82425557D01*
X70916314Y-82139842D01*
X70202028Y-81854128D01*
X71202028Y-81568414D01*
X70202028Y-80996985D02*
X71702028Y-80996985D01*
X70202028Y-80354128D02*
X70987742Y-80354128D01*
X71130600Y-80425557D01*
X71202028Y-80568414D01*
X71202028Y-80782700D01*
X71130600Y-80925557D01*
X71059171Y-80996985D01*
X71202028Y-79854128D02*
X71202028Y-79282700D01*
X71702028Y-79639842D02*
X70416314Y-79639842D01*
X70273457Y-79568414D01*
X70202028Y-79425557D01*
X70202028Y-79282700D01*
X71630600Y-75711271D02*
X71702028Y-75854128D01*
X71702028Y-76068414D01*
X71630600Y-76282700D01*
X71487742Y-76425557D01*
X71344885Y-76496985D01*
X71059171Y-76568414D01*
X70844885Y-76568414D01*
X70559171Y-76496985D01*
X70416314Y-76425557D01*
X70273457Y-76282700D01*
X70202028Y-76068414D01*
X70202028Y-75925557D01*
X70273457Y-75711271D01*
X70344885Y-75639842D01*
X70844885Y-75639842D01*
X70844885Y-75925557D01*
X70202028Y-74996985D02*
X71702028Y-74996985D01*
X70202028Y-74139842D01*
X71702028Y-74139842D01*
X70202028Y-73425557D02*
X71702028Y-73425557D01*
X71702028Y-73068414D01*
X71630600Y-72854128D01*
X71487742Y-72711271D01*
X71344885Y-72639842D01*
X71059171Y-72568414D01*
X70844885Y-72568414D01*
X70559171Y-72639842D01*
X70416314Y-72711271D01*
X70273457Y-72854128D01*
X70202028Y-73068414D01*
X70202028Y-73425557D01*
X68559171Y-94211271D02*
X68630600Y-94354128D01*
X68702028Y-94425557D01*
X68844885Y-94496985D01*
X68916314Y-94496985D01*
X69059171Y-94425557D01*
X69130600Y-94354128D01*
X69202028Y-94211271D01*
X69202028Y-93925557D01*
X69130600Y-93782700D01*
X69059171Y-93711271D01*
X68916314Y-93639842D01*
X68844885Y-93639842D01*
X68702028Y-93711271D01*
X68630600Y-93782700D01*
X68559171Y-93925557D01*
X68559171Y-94211271D01*
X68487742Y-94354128D01*
X68416314Y-94425557D01*
X68273457Y-94496985D01*
X67987742Y-94496985D01*
X67844885Y-94425557D01*
X67773457Y-94354128D01*
X67702028Y-94211271D01*
X67702028Y-93925557D01*
X67773457Y-93782700D01*
X67844885Y-93711271D01*
X67987742Y-93639842D01*
X68273457Y-93639842D01*
X68416314Y-93711271D01*
X68487742Y-93782700D01*
X68559171Y-93925557D01*
X67702028Y-90711271D02*
X69202028Y-90711271D01*
X68630600Y-90711271D02*
X68702028Y-90568414D01*
X68702028Y-90282700D01*
X68630600Y-90139842D01*
X68559171Y-90068414D01*
X68416314Y-89996985D01*
X67987742Y-89996985D01*
X67844885Y-90068414D01*
X67773457Y-90139842D01*
X67702028Y-90282700D01*
X67702028Y-90568414D01*
X67773457Y-90711271D01*
X67702028Y-89354128D02*
X68702028Y-89354128D01*
X68416314Y-89354128D02*
X68559171Y-89282700D01*
X68630600Y-89211271D01*
X68702028Y-89068414D01*
X68702028Y-88925557D01*
X67702028Y-88211271D02*
X67773457Y-88354128D01*
X67844885Y-88425557D01*
X67987742Y-88496985D01*
X68416314Y-88496985D01*
X68559171Y-88425557D01*
X68630600Y-88354128D01*
X68702028Y-88211271D01*
X68702028Y-87996985D01*
X68630600Y-87854128D01*
X68559171Y-87782700D01*
X68416314Y-87711271D01*
X67987742Y-87711271D01*
X67844885Y-87782700D01*
X67773457Y-87854128D01*
X67702028Y-87996985D01*
X67702028Y-88211271D01*
X68702028Y-87211271D02*
X67702028Y-86925557D01*
X68416314Y-86639842D01*
X67702028Y-86354128D01*
X68702028Y-86068414D01*
X68702028Y-85496985D02*
X67702028Y-85496985D01*
X68559171Y-85496985D02*
X68630600Y-85425557D01*
X68702028Y-85282700D01*
X68702028Y-85068414D01*
X68630600Y-84925557D01*
X68487742Y-84854128D01*
X67702028Y-84854128D01*
X69130600Y-81068414D02*
X69202028Y-81211271D01*
X69202028Y-81425557D01*
X69130600Y-81639842D01*
X68987742Y-81782700D01*
X68844885Y-81854128D01*
X68559171Y-81925557D01*
X68344885Y-81925557D01*
X68059171Y-81854128D01*
X67916314Y-81782700D01*
X67773457Y-81639842D01*
X67702028Y-81425557D01*
X67702028Y-81282700D01*
X67773457Y-81068414D01*
X67844885Y-80996985D01*
X68344885Y-80996985D01*
X68344885Y-81282700D01*
X67702028Y-80354128D02*
X69202028Y-80354128D01*
X67702028Y-79496985D01*
X69202028Y-79496985D01*
X67702028Y-78782700D02*
X69202028Y-78782700D01*
X69202028Y-78425557D01*
X69130600Y-78211271D01*
X68987742Y-78068414D01*
X68844885Y-77996985D01*
X68559171Y-77925557D01*
X68344885Y-77925557D01*
X68059171Y-77996985D01*
X67916314Y-78068414D01*
X67773457Y-78211271D01*
X67702028Y-78425557D01*
X67702028Y-78782700D01*
X76452028Y-123388014D02*
X77166314Y-123888014D01*
X76452028Y-124245157D02*
X77952028Y-124245157D01*
X77952028Y-123673728D01*
X77880600Y-123530871D01*
X77809171Y-123459442D01*
X77666314Y-123388014D01*
X77452028Y-123388014D01*
X77309171Y-123459442D01*
X77237742Y-123530871D01*
X77166314Y-123673728D01*
X77166314Y-124245157D01*
X77952028Y-122316585D02*
X76880600Y-122316585D01*
X76666314Y-122388014D01*
X76523457Y-122530871D01*
X76452028Y-122745157D01*
X76452028Y-122888014D01*
X77452028Y-120959442D02*
X76452028Y-120959442D01*
X78023457Y-121316585D02*
X76952028Y-121673728D01*
X76952028Y-120745157D01*
X77952028Y-119459442D02*
X77952028Y-120173728D01*
X77237742Y-120245157D01*
X77309171Y-120173728D01*
X77380600Y-120030871D01*
X77380600Y-119673728D01*
X77309171Y-119530871D01*
X77237742Y-119459442D01*
X77094885Y-119388014D01*
X76737742Y-119388014D01*
X76594885Y-119459442D01*
X76523457Y-119530871D01*
X76452028Y-119673728D01*
X76452028Y-120030871D01*
X76523457Y-120173728D01*
X76594885Y-120245157D01*
X76523457Y-117673728D02*
X76452028Y-117530871D01*
X76452028Y-117245157D01*
X76523457Y-117102300D01*
X76666314Y-117030871D01*
X76737742Y-117030871D01*
X76880600Y-117102300D01*
X76952028Y-117245157D01*
X76952028Y-117459442D01*
X77023457Y-117602300D01*
X77166314Y-117673728D01*
X77237742Y-117673728D01*
X77380600Y-117602300D01*
X77452028Y-117459442D01*
X77452028Y-117245157D01*
X77380600Y-117102300D01*
X76452028Y-116388014D02*
X77452028Y-116388014D01*
X77952028Y-116388014D02*
X77880600Y-116459442D01*
X77809171Y-116388014D01*
X77880600Y-116316585D01*
X77952028Y-116388014D01*
X77809171Y-116388014D01*
X77452028Y-115030871D02*
X76237742Y-115030871D01*
X76094885Y-115102300D01*
X76023457Y-115173728D01*
X75952028Y-115316585D01*
X75952028Y-115530871D01*
X76023457Y-115673728D01*
X76523457Y-115030871D02*
X76452028Y-115173728D01*
X76452028Y-115459442D01*
X76523457Y-115602300D01*
X76594885Y-115673728D01*
X76737742Y-115745157D01*
X77166314Y-115745157D01*
X77309171Y-115673728D01*
X77380600Y-115602300D01*
X77452028Y-115459442D01*
X77452028Y-115173728D01*
X77380600Y-115030871D01*
X77452028Y-114316585D02*
X76452028Y-114316585D01*
X77309171Y-114316585D02*
X77380600Y-114245157D01*
X77452028Y-114102300D01*
X77452028Y-113888014D01*
X77380600Y-113745157D01*
X77237742Y-113673728D01*
X76452028Y-113673728D01*
X76452028Y-112316585D02*
X77237742Y-112316585D01*
X77380600Y-112388014D01*
X77452028Y-112530871D01*
X77452028Y-112816585D01*
X77380600Y-112959442D01*
X76523457Y-112316585D02*
X76452028Y-112459442D01*
X76452028Y-112816585D01*
X76523457Y-112959442D01*
X76666314Y-113030871D01*
X76809171Y-113030871D01*
X76952028Y-112959442D01*
X77023457Y-112816585D01*
X77023457Y-112459442D01*
X77094885Y-112316585D01*
X76452028Y-111388014D02*
X76523457Y-111530871D01*
X76666314Y-111602300D01*
X77952028Y-111602300D01*
X76594885Y-110816585D02*
X76523457Y-110745157D01*
X76452028Y-110816585D01*
X76523457Y-110888014D01*
X76594885Y-110816585D01*
X76452028Y-110816585D01*
X77380600Y-110816585D02*
X77309171Y-110745157D01*
X77237742Y-110816585D01*
X77309171Y-110888014D01*
X77380600Y-110816585D01*
X77237742Y-110816585D01*
X75309171Y-124316585D02*
X75380600Y-124245157D01*
X75452028Y-124102300D01*
X75452028Y-123745157D01*
X75380600Y-123602300D01*
X75309171Y-123530871D01*
X75166314Y-123459442D01*
X75023457Y-123459442D01*
X74809171Y-123530871D01*
X73952028Y-124388014D01*
X73952028Y-123459442D01*
X73952028Y-120316585D02*
X74023457Y-120459442D01*
X74094885Y-120530871D01*
X74237742Y-120602300D01*
X74666314Y-120602300D01*
X74809171Y-120530871D01*
X74880600Y-120459442D01*
X74952028Y-120316585D01*
X74952028Y-120102300D01*
X74880600Y-119959442D01*
X74809171Y-119888014D01*
X74666314Y-119816585D01*
X74237742Y-119816585D01*
X74094885Y-119888014D01*
X74023457Y-119959442D01*
X73952028Y-120102300D01*
X73952028Y-120316585D01*
X73952028Y-119173728D02*
X74952028Y-119173728D01*
X74666314Y-119173728D02*
X74809171Y-119102300D01*
X74880600Y-119030871D01*
X74952028Y-118888014D01*
X74952028Y-118745157D01*
X73952028Y-117602300D02*
X74737742Y-117602300D01*
X74880600Y-117673728D01*
X74952028Y-117816585D01*
X74952028Y-118102300D01*
X74880600Y-118245157D01*
X74023457Y-117602300D02*
X73952028Y-117745157D01*
X73952028Y-118102300D01*
X74023457Y-118245157D01*
X74166314Y-118316585D01*
X74309171Y-118316585D01*
X74452028Y-118245157D01*
X74523457Y-118102300D01*
X74523457Y-117745157D01*
X74594885Y-117602300D01*
X74952028Y-116888014D02*
X73952028Y-116888014D01*
X74809171Y-116888014D02*
X74880600Y-116816585D01*
X74952028Y-116673728D01*
X74952028Y-116459442D01*
X74880600Y-116316585D01*
X74737742Y-116245157D01*
X73952028Y-116245157D01*
X74952028Y-114888014D02*
X73737742Y-114888014D01*
X73594885Y-114959442D01*
X73523457Y-115030871D01*
X73452028Y-115173728D01*
X73452028Y-115388014D01*
X73523457Y-115530871D01*
X74023457Y-114888014D02*
X73952028Y-115030871D01*
X73952028Y-115316585D01*
X74023457Y-115459442D01*
X74094885Y-115530871D01*
X74237742Y-115602300D01*
X74666314Y-115602300D01*
X74809171Y-115530871D01*
X74880600Y-115459442D01*
X74952028Y-115316585D01*
X74952028Y-115030871D01*
X74880600Y-114888014D01*
X74023457Y-113602300D02*
X73952028Y-113745157D01*
X73952028Y-114030871D01*
X74023457Y-114173728D01*
X74166314Y-114245157D01*
X74737742Y-114245157D01*
X74880600Y-114173728D01*
X74952028Y-114030871D01*
X74952028Y-113745157D01*
X74880600Y-113602300D01*
X74737742Y-113530871D01*
X74594885Y-113530871D01*
X74452028Y-114245157D01*
X75452028Y-110816585D02*
X73952028Y-110316585D01*
X75452028Y-109816585D01*
X74094885Y-108459442D02*
X74023457Y-108530871D01*
X73952028Y-108745157D01*
X73952028Y-108888014D01*
X74023457Y-109102300D01*
X74166314Y-109245157D01*
X74309171Y-109316585D01*
X74594885Y-109388014D01*
X74809171Y-109388014D01*
X75094885Y-109316585D01*
X75237742Y-109245157D01*
X75380600Y-109102300D01*
X75452028Y-108888014D01*
X75452028Y-108745157D01*
X75380600Y-108530871D01*
X75309171Y-108459442D01*
X74094885Y-106959442D02*
X74023457Y-107030871D01*
X73952028Y-107245157D01*
X73952028Y-107388014D01*
X74023457Y-107602300D01*
X74166314Y-107745157D01*
X74309171Y-107816585D01*
X74594885Y-107888014D01*
X74809171Y-107888014D01*
X75094885Y-107816585D01*
X75237742Y-107745157D01*
X75380600Y-107602300D01*
X75452028Y-107388014D01*
X75452028Y-107245157D01*
X75380600Y-107030871D01*
X75309171Y-106959442D01*
X72452028Y-123602300D02*
X71452028Y-123602300D01*
X73023457Y-123959442D02*
X71952028Y-124316585D01*
X71952028Y-123388014D01*
X71452028Y-120530871D02*
X72952028Y-120530871D01*
X72380600Y-120530871D02*
X72452028Y-120388014D01*
X72452028Y-120102300D01*
X72380600Y-119959442D01*
X72309171Y-119888014D01*
X72166314Y-119816585D01*
X71737742Y-119816585D01*
X71594885Y-119888014D01*
X71523457Y-119959442D01*
X71452028Y-120102300D01*
X71452028Y-120388014D01*
X71523457Y-120530871D01*
X71452028Y-118959442D02*
X71523457Y-119102300D01*
X71666314Y-119173728D01*
X72952028Y-119173728D01*
X72452028Y-117745157D02*
X71452028Y-117745157D01*
X72452028Y-118388014D02*
X71666314Y-118388014D01*
X71523457Y-118316585D01*
X71452028Y-118173728D01*
X71452028Y-117959442D01*
X71523457Y-117816585D01*
X71594885Y-117745157D01*
X71523457Y-116459442D02*
X71452028Y-116602300D01*
X71452028Y-116888014D01*
X71523457Y-117030871D01*
X71666314Y-117102300D01*
X72237742Y-117102300D01*
X72380600Y-117030871D01*
X72452028Y-116888014D01*
X72452028Y-116602300D01*
X72380600Y-116459442D01*
X72237742Y-116388014D01*
X72094885Y-116388014D01*
X71952028Y-117102300D01*
X72880600Y-112673728D02*
X72952028Y-112816585D01*
X72952028Y-113030871D01*
X72880600Y-113245157D01*
X72737742Y-113388014D01*
X72594885Y-113459442D01*
X72309171Y-113530871D01*
X72094885Y-113530871D01*
X71809171Y-113459442D01*
X71666314Y-113388014D01*
X71523457Y-113245157D01*
X71452028Y-113030871D01*
X71452028Y-112888014D01*
X71523457Y-112673728D01*
X71594885Y-112602300D01*
X72094885Y-112602300D01*
X72094885Y-112888014D01*
X71452028Y-111959442D02*
X72952028Y-111959442D01*
X71452028Y-111102300D01*
X72952028Y-111102300D01*
X71452028Y-110388014D02*
X72952028Y-110388014D01*
X72952028Y-110030871D01*
X72880600Y-109816585D01*
X72737742Y-109673728D01*
X72594885Y-109602300D01*
X72309171Y-109530871D01*
X72094885Y-109530871D01*
X71809171Y-109602300D01*
X71666314Y-109673728D01*
X71523457Y-109816585D01*
X71452028Y-110030871D01*
X71452028Y-110388014D01*
X69809171Y-124030871D02*
X69880600Y-124173728D01*
X69952028Y-124245157D01*
X70094885Y-124316585D01*
X70166314Y-124316585D01*
X70309171Y-124245157D01*
X70380600Y-124173728D01*
X70452028Y-124030871D01*
X70452028Y-123745157D01*
X70380600Y-123602300D01*
X70309171Y-123530871D01*
X70166314Y-123459442D01*
X70094885Y-123459442D01*
X69952028Y-123530871D01*
X69880600Y-123602300D01*
X69809171Y-123745157D01*
X69809171Y-124030871D01*
X69737742Y-124173728D01*
X69666314Y-124245157D01*
X69523457Y-124316585D01*
X69237742Y-124316585D01*
X69094885Y-124245157D01*
X69023457Y-124173728D01*
X68952028Y-124030871D01*
X68952028Y-123745157D01*
X69023457Y-123602300D01*
X69094885Y-123530871D01*
X69237742Y-123459442D01*
X69523457Y-123459442D01*
X69666314Y-123530871D01*
X69737742Y-123602300D01*
X69809171Y-123745157D01*
X68952028Y-120530871D02*
X70452028Y-120530871D01*
X69880600Y-120530871D02*
X69952028Y-120388014D01*
X69952028Y-120102300D01*
X69880600Y-119959442D01*
X69809171Y-119888014D01*
X69666314Y-119816585D01*
X69237742Y-119816585D01*
X69094885Y-119888014D01*
X69023457Y-119959442D01*
X68952028Y-120102300D01*
X68952028Y-120388014D01*
X69023457Y-120530871D01*
X68952028Y-119173728D02*
X69952028Y-119173728D01*
X69666314Y-119173728D02*
X69809171Y-119102300D01*
X69880600Y-119030871D01*
X69952028Y-118888014D01*
X69952028Y-118745157D01*
X68952028Y-118030871D02*
X69023457Y-118173728D01*
X69094885Y-118245157D01*
X69237742Y-118316585D01*
X69666314Y-118316585D01*
X69809171Y-118245157D01*
X69880600Y-118173728D01*
X69952028Y-118030871D01*
X69952028Y-117816585D01*
X69880600Y-117673728D01*
X69809171Y-117602300D01*
X69666314Y-117530871D01*
X69237742Y-117530871D01*
X69094885Y-117602300D01*
X69023457Y-117673728D01*
X68952028Y-117816585D01*
X68952028Y-118030871D01*
X69952028Y-117030871D02*
X68952028Y-116745157D01*
X69666314Y-116459442D01*
X68952028Y-116173728D01*
X69952028Y-115888014D01*
X69952028Y-115316585D02*
X68952028Y-115316585D01*
X69809171Y-115316585D02*
X69880600Y-115245157D01*
X69952028Y-115102300D01*
X69952028Y-114888014D01*
X69880600Y-114745157D01*
X69737742Y-114673728D01*
X68952028Y-114673728D01*
X69023457Y-111745157D02*
X68952028Y-111530871D01*
X68952028Y-111173728D01*
X69023457Y-111030871D01*
X69094885Y-110959442D01*
X69237742Y-110888014D01*
X69380600Y-110888014D01*
X69523457Y-110959442D01*
X69594885Y-111030871D01*
X69666314Y-111173728D01*
X69737742Y-111459442D01*
X69809171Y-111602300D01*
X69880600Y-111673728D01*
X70023457Y-111745157D01*
X70166314Y-111745157D01*
X70309171Y-111673728D01*
X70380600Y-111602300D01*
X70452028Y-111459442D01*
X70452028Y-111102300D01*
X70380600Y-110888014D01*
X68952028Y-110245157D02*
X69952028Y-110245157D01*
X70452028Y-110245157D02*
X70380600Y-110316585D01*
X70309171Y-110245157D01*
X70380600Y-110173728D01*
X70452028Y-110245157D01*
X70309171Y-110245157D01*
X69952028Y-108888014D02*
X68737742Y-108888014D01*
X68594885Y-108959442D01*
X68523457Y-109030871D01*
X68452028Y-109173728D01*
X68452028Y-109388014D01*
X68523457Y-109530871D01*
X69023457Y-108888014D02*
X68952028Y-109030871D01*
X68952028Y-109316585D01*
X69023457Y-109459442D01*
X69094885Y-109530871D01*
X69237742Y-109602300D01*
X69666314Y-109602300D01*
X69809171Y-109530871D01*
X69880600Y-109459442D01*
X69952028Y-109316585D01*
X69952028Y-109030871D01*
X69880600Y-108888014D01*
X69952028Y-108173728D02*
X68952028Y-108173728D01*
X69809171Y-108173728D02*
X69880600Y-108102300D01*
X69952028Y-107959442D01*
X69952028Y-107745157D01*
X69880600Y-107602300D01*
X69737742Y-107530871D01*
X68952028Y-107530871D01*
X68952028Y-106173728D02*
X69737742Y-106173728D01*
X69880600Y-106245157D01*
X69952028Y-106388014D01*
X69952028Y-106673728D01*
X69880600Y-106816585D01*
X69023457Y-106173728D02*
X68952028Y-106316585D01*
X68952028Y-106673728D01*
X69023457Y-106816585D01*
X69166314Y-106888014D01*
X69309171Y-106888014D01*
X69452028Y-106816585D01*
X69523457Y-106673728D01*
X69523457Y-106316585D01*
X69594885Y-106173728D01*
X68952028Y-105245157D02*
X69023457Y-105388014D01*
X69166314Y-105459442D01*
X70452028Y-105459442D01*
M02*
