G04 #@! TF.GenerationSoftware,KiCad,Pcbnew,(5.1.2)-2*
G04 #@! TF.CreationDate,2020-11-08T21:10:06-06:00*
G04 #@! TF.ProjectId,TempMonitor10PCB,54656d70-4d6f-46e6-9974-6f7231305043,rev?*
G04 #@! TF.SameCoordinates,Original*
G04 #@! TF.FileFunction,Soldermask,Top*
G04 #@! TF.FilePolarity,Negative*
%FSLAX46Y46*%
G04 Gerber Fmt 4.6, Leading zero omitted, Abs format (unit mm)*
G04 Created by KiCad (PCBNEW (5.1.2)-2) date 2020-11-08 21:10:06*
%MOMM*%
%LPD*%
G04 APERTURE LIST*
%ADD10C,0.100000*%
G04 APERTURE END LIST*
D10*
G36*
X79210272Y-121455318D02*
G01*
X79456139Y-121557159D01*
X79677412Y-121705010D01*
X79865590Y-121893188D01*
X80013441Y-122114461D01*
X80115282Y-122360328D01*
X80167200Y-122621338D01*
X80167200Y-122887462D01*
X80115282Y-123148472D01*
X80013441Y-123394339D01*
X79865590Y-123615612D01*
X79677412Y-123803790D01*
X79456139Y-123951641D01*
X79456138Y-123951642D01*
X79456137Y-123951642D01*
X79210272Y-124053482D01*
X78949263Y-124105400D01*
X78683137Y-124105400D01*
X78422128Y-124053482D01*
X78176263Y-123951642D01*
X78176262Y-123951642D01*
X78176261Y-123951641D01*
X77954988Y-123803790D01*
X77766810Y-123615612D01*
X77618959Y-123394339D01*
X77517118Y-123148472D01*
X77465200Y-122887462D01*
X77465200Y-122621338D01*
X77517118Y-122360328D01*
X77618959Y-122114461D01*
X77766810Y-121893188D01*
X77954988Y-121705010D01*
X78176261Y-121557159D01*
X78422128Y-121455318D01*
X78683137Y-121403400D01*
X78949263Y-121403400D01*
X79210272Y-121455318D01*
X79210272Y-121455318D01*
G37*
G36*
X55277407Y-118983582D02*
G01*
X55571501Y-119105400D01*
X55677965Y-119149499D01*
X56038456Y-119390371D01*
X56345029Y-119696944D01*
X56585901Y-120057435D01*
X56585902Y-120057437D01*
X56751818Y-120457993D01*
X56836400Y-120883219D01*
X56836400Y-121316781D01*
X56751818Y-121742007D01*
X56689196Y-121893189D01*
X56585901Y-122142565D01*
X56345029Y-122503056D01*
X56038456Y-122809629D01*
X55677965Y-123050501D01*
X55677964Y-123050502D01*
X55677963Y-123050502D01*
X55277407Y-123216418D01*
X54852181Y-123301000D01*
X54418619Y-123301000D01*
X53993393Y-123216418D01*
X53592837Y-123050502D01*
X53592836Y-123050502D01*
X53592835Y-123050501D01*
X53232344Y-122809629D01*
X52925771Y-122503056D01*
X52684899Y-122142565D01*
X52581604Y-121893189D01*
X52518982Y-121742007D01*
X52434400Y-121316781D01*
X52434400Y-120883219D01*
X52518982Y-120457993D01*
X52684898Y-120057437D01*
X52684899Y-120057435D01*
X52925771Y-119696944D01*
X53232344Y-119390371D01*
X53592835Y-119149499D01*
X53699299Y-119105400D01*
X53993393Y-118983582D01*
X54418619Y-118899000D01*
X54852181Y-118899000D01*
X55277407Y-118983582D01*
X55277407Y-118983582D01*
G37*
G36*
X80167200Y-119105400D02*
G01*
X77465200Y-119105400D01*
X77465200Y-116403400D01*
X80167200Y-116403400D01*
X80167200Y-119105400D01*
X80167200Y-119105400D01*
G37*
G36*
X67138892Y-114932556D02*
G01*
X67475861Y-115072133D01*
X67779126Y-115274768D01*
X68037032Y-115532674D01*
X68239667Y-115835939D01*
X68379244Y-116172908D01*
X68450400Y-116530633D01*
X68450400Y-116895367D01*
X68379244Y-117253092D01*
X68239667Y-117590061D01*
X68037032Y-117893326D01*
X67779126Y-118151232D01*
X67475861Y-118353867D01*
X67138892Y-118493444D01*
X66781168Y-118564600D01*
X66416432Y-118564600D01*
X66058708Y-118493444D01*
X65721739Y-118353867D01*
X65418474Y-118151232D01*
X65160568Y-117893326D01*
X64957933Y-117590061D01*
X64818356Y-117253092D01*
X64747200Y-116895367D01*
X64747200Y-116530633D01*
X64818356Y-116172908D01*
X64957933Y-115835939D01*
X65160568Y-115532674D01*
X65418474Y-115274768D01*
X65721739Y-115072133D01*
X66058708Y-114932556D01*
X66416432Y-114861400D01*
X66781168Y-114861400D01*
X67138892Y-114932556D01*
X67138892Y-114932556D01*
G37*
G36*
X55729364Y-112167989D02*
G01*
X55920633Y-112247215D01*
X55920635Y-112247216D01*
X56092773Y-112362235D01*
X56239165Y-112508627D01*
X56337071Y-112655153D01*
X56354185Y-112680767D01*
X56433411Y-112872036D01*
X56473800Y-113075084D01*
X56473800Y-113282116D01*
X56433411Y-113485164D01*
X56354185Y-113676433D01*
X56354184Y-113676435D01*
X56239165Y-113848573D01*
X56092773Y-113994965D01*
X55920635Y-114109984D01*
X55920634Y-114109985D01*
X55920633Y-114109985D01*
X55729364Y-114189211D01*
X55526316Y-114229600D01*
X55319284Y-114229600D01*
X55116236Y-114189211D01*
X54924967Y-114109985D01*
X54924966Y-114109985D01*
X54924965Y-114109984D01*
X54752827Y-113994965D01*
X54606435Y-113848573D01*
X54491416Y-113676435D01*
X54491415Y-113676433D01*
X54412189Y-113485164D01*
X54371800Y-113282116D01*
X54371800Y-113075084D01*
X54412189Y-112872036D01*
X54491415Y-112680767D01*
X54508530Y-112655153D01*
X54606435Y-112508627D01*
X54752827Y-112362235D01*
X54924965Y-112247216D01*
X54924967Y-112247215D01*
X55116236Y-112167989D01*
X55319284Y-112127600D01*
X55526316Y-112127600D01*
X55729364Y-112167989D01*
X55729364Y-112167989D01*
G37*
G36*
X84311456Y-109458898D02*
G01*
X84417779Y-109480047D01*
X84718242Y-109604503D01*
X84988651Y-109785185D01*
X85218615Y-110015149D01*
X85399297Y-110285558D01*
X85523753Y-110586021D01*
X85587200Y-110904991D01*
X85587200Y-111230209D01*
X85523753Y-111549179D01*
X85399297Y-111849642D01*
X85218615Y-112120051D01*
X84988651Y-112350015D01*
X84718242Y-112530697D01*
X84417779Y-112655153D01*
X84311456Y-112676302D01*
X84098811Y-112718600D01*
X83773589Y-112718600D01*
X83560944Y-112676302D01*
X83454621Y-112655153D01*
X83154158Y-112530697D01*
X82883749Y-112350015D01*
X82653785Y-112120051D01*
X82473103Y-111849642D01*
X82348647Y-111549179D01*
X82285200Y-111230209D01*
X82285200Y-110904991D01*
X82348647Y-110586021D01*
X82473103Y-110285558D01*
X82653785Y-110015149D01*
X82883749Y-109785185D01*
X83154158Y-109604503D01*
X83454621Y-109480047D01*
X83560944Y-109458898D01*
X83773589Y-109416600D01*
X84098811Y-109416600D01*
X84311456Y-109458898D01*
X84311456Y-109458898D01*
G37*
G36*
X78387200Y-110598600D02*
G01*
X76785200Y-110598600D01*
X76785200Y-108996600D01*
X78387200Y-108996600D01*
X78387200Y-110598600D01*
X78387200Y-110598600D01*
G37*
G36*
X75279842Y-107757381D02*
G01*
X75425614Y-107817762D01*
X75425616Y-107817763D01*
X75556808Y-107905422D01*
X75668378Y-108016992D01*
X75675612Y-108027819D01*
X75756038Y-108148186D01*
X75816419Y-108293958D01*
X75847200Y-108448707D01*
X75847200Y-108606493D01*
X75816419Y-108761242D01*
X75756038Y-108907014D01*
X75756037Y-108907016D01*
X75668378Y-109038208D01*
X75556808Y-109149778D01*
X75425616Y-109237437D01*
X75425615Y-109237438D01*
X75425614Y-109237438D01*
X75279842Y-109297819D01*
X75125093Y-109328600D01*
X74967307Y-109328600D01*
X74812558Y-109297819D01*
X74666786Y-109237438D01*
X74666785Y-109237438D01*
X74666784Y-109237437D01*
X74535592Y-109149778D01*
X74424022Y-109038208D01*
X74336363Y-108907016D01*
X74336362Y-108907014D01*
X74275981Y-108761242D01*
X74245200Y-108606493D01*
X74245200Y-108448707D01*
X74275981Y-108293958D01*
X74336362Y-108148186D01*
X74416788Y-108027819D01*
X74424022Y-108016992D01*
X74535592Y-107905422D01*
X74666784Y-107817763D01*
X74666786Y-107817762D01*
X74812558Y-107757381D01*
X74967307Y-107726600D01*
X75125093Y-107726600D01*
X75279842Y-107757381D01*
X75279842Y-107757381D01*
G37*
G36*
X56473800Y-109229600D02*
G01*
X54371800Y-109229600D01*
X54371800Y-107127600D01*
X56473800Y-107127600D01*
X56473800Y-109229600D01*
X56473800Y-109229600D01*
G37*
G36*
X77819842Y-106487381D02*
G01*
X77965614Y-106547762D01*
X77965616Y-106547763D01*
X78096808Y-106635422D01*
X78208378Y-106746992D01*
X78215612Y-106757819D01*
X78296038Y-106878186D01*
X78356419Y-107023958D01*
X78387200Y-107178707D01*
X78387200Y-107336493D01*
X78356419Y-107491242D01*
X78296038Y-107637014D01*
X78296037Y-107637016D01*
X78208378Y-107768208D01*
X78096808Y-107879778D01*
X77965616Y-107967437D01*
X77965615Y-107967438D01*
X77965614Y-107967438D01*
X77819842Y-108027819D01*
X77665093Y-108058600D01*
X77507307Y-108058600D01*
X77352558Y-108027819D01*
X77206786Y-107967438D01*
X77206785Y-107967438D01*
X77206784Y-107967437D01*
X77075592Y-107879778D01*
X76964022Y-107768208D01*
X76876363Y-107637016D01*
X76876362Y-107637014D01*
X76815981Y-107491242D01*
X76785200Y-107336493D01*
X76785200Y-107178707D01*
X76815981Y-107023958D01*
X76876362Y-106878186D01*
X76956788Y-106757819D01*
X76964022Y-106746992D01*
X77075592Y-106635422D01*
X77206784Y-106547763D01*
X77206786Y-106547762D01*
X77352558Y-106487381D01*
X77507307Y-106456600D01*
X77665093Y-106456600D01*
X77819842Y-106487381D01*
X77819842Y-106487381D01*
G37*
G36*
X75279842Y-105217381D02*
G01*
X75425614Y-105277762D01*
X75425616Y-105277763D01*
X75556808Y-105365422D01*
X75668378Y-105476992D01*
X75675612Y-105487819D01*
X75756038Y-105608186D01*
X75816419Y-105753958D01*
X75847200Y-105908707D01*
X75847200Y-106066493D01*
X75816419Y-106221242D01*
X75756038Y-106367014D01*
X75756037Y-106367016D01*
X75668378Y-106498208D01*
X75556808Y-106609778D01*
X75425616Y-106697437D01*
X75425615Y-106697438D01*
X75425614Y-106697438D01*
X75279842Y-106757819D01*
X75125093Y-106788600D01*
X74967307Y-106788600D01*
X74812558Y-106757819D01*
X74666786Y-106697438D01*
X74666785Y-106697438D01*
X74666784Y-106697437D01*
X74535592Y-106609778D01*
X74424022Y-106498208D01*
X74336363Y-106367016D01*
X74336362Y-106367014D01*
X74275981Y-106221242D01*
X74245200Y-106066493D01*
X74245200Y-105908707D01*
X74275981Y-105753958D01*
X74336362Y-105608186D01*
X74416788Y-105487819D01*
X74424022Y-105476992D01*
X74535592Y-105365422D01*
X74666784Y-105277763D01*
X74666786Y-105277762D01*
X74812558Y-105217381D01*
X74967307Y-105186600D01*
X75125093Y-105186600D01*
X75279842Y-105217381D01*
X75279842Y-105217381D01*
G37*
G36*
X77819842Y-103947381D02*
G01*
X77965614Y-104007762D01*
X77965616Y-104007763D01*
X78096808Y-104095422D01*
X78208378Y-104206992D01*
X78215612Y-104217819D01*
X78296038Y-104338186D01*
X78356419Y-104483958D01*
X78387200Y-104638707D01*
X78387200Y-104796493D01*
X78356419Y-104951242D01*
X78296038Y-105097014D01*
X78296037Y-105097016D01*
X78208378Y-105228208D01*
X78096808Y-105339778D01*
X77965616Y-105427437D01*
X77965615Y-105427438D01*
X77965614Y-105427438D01*
X77819842Y-105487819D01*
X77665093Y-105518600D01*
X77507307Y-105518600D01*
X77352558Y-105487819D01*
X77206786Y-105427438D01*
X77206785Y-105427438D01*
X77206784Y-105427437D01*
X77075592Y-105339778D01*
X76964022Y-105228208D01*
X76876363Y-105097016D01*
X76876362Y-105097014D01*
X76815981Y-104951242D01*
X76785200Y-104796493D01*
X76785200Y-104638707D01*
X76815981Y-104483958D01*
X76876362Y-104338186D01*
X76956788Y-104217819D01*
X76964022Y-104206992D01*
X77075592Y-104095422D01*
X77206784Y-104007763D01*
X77206786Y-104007762D01*
X77352558Y-103947381D01*
X77507307Y-103916600D01*
X77665093Y-103916600D01*
X77819842Y-103947381D01*
X77819842Y-103947381D01*
G37*
G36*
X54110828Y-103067703D02*
G01*
X54265700Y-103131853D01*
X54405081Y-103224985D01*
X54523615Y-103343519D01*
X54616747Y-103482900D01*
X54680897Y-103637772D01*
X54713600Y-103802184D01*
X54713600Y-103969816D01*
X54680897Y-104134228D01*
X54616747Y-104289100D01*
X54523615Y-104428481D01*
X54405081Y-104547015D01*
X54265700Y-104640147D01*
X54110828Y-104704297D01*
X53946416Y-104737000D01*
X53778784Y-104737000D01*
X53614372Y-104704297D01*
X53459500Y-104640147D01*
X53320119Y-104547015D01*
X53201585Y-104428481D01*
X53108453Y-104289100D01*
X53044303Y-104134228D01*
X53011600Y-103969816D01*
X53011600Y-103802184D01*
X53044303Y-103637772D01*
X53108453Y-103482900D01*
X53201585Y-103343519D01*
X53320119Y-103224985D01*
X53459500Y-103131853D01*
X53614372Y-103067703D01*
X53778784Y-103035000D01*
X53946416Y-103035000D01*
X54110828Y-103067703D01*
X54110828Y-103067703D01*
G37*
G36*
X56610828Y-103067703D02*
G01*
X56765700Y-103131853D01*
X56905081Y-103224985D01*
X57023615Y-103343519D01*
X57116747Y-103482900D01*
X57180897Y-103637772D01*
X57213600Y-103802184D01*
X57213600Y-103969816D01*
X57180897Y-104134228D01*
X57116747Y-104289100D01*
X57023615Y-104428481D01*
X56905081Y-104547015D01*
X56765700Y-104640147D01*
X56610828Y-104704297D01*
X56446416Y-104737000D01*
X56278784Y-104737000D01*
X56114372Y-104704297D01*
X55959500Y-104640147D01*
X55820119Y-104547015D01*
X55701585Y-104428481D01*
X55608453Y-104289100D01*
X55544303Y-104134228D01*
X55511600Y-103969816D01*
X55511600Y-103802184D01*
X55544303Y-103637772D01*
X55608453Y-103482900D01*
X55701585Y-103343519D01*
X55820119Y-103224985D01*
X55959500Y-103131853D01*
X56114372Y-103067703D01*
X56278784Y-103035000D01*
X56446416Y-103035000D01*
X56610828Y-103067703D01*
X56610828Y-103067703D01*
G37*
G36*
X75279842Y-102677381D02*
G01*
X75425614Y-102737762D01*
X75425616Y-102737763D01*
X75556808Y-102825422D01*
X75668378Y-102936992D01*
X75755717Y-103067705D01*
X75756038Y-103068186D01*
X75816419Y-103213958D01*
X75847200Y-103368707D01*
X75847200Y-103526493D01*
X75816419Y-103681242D01*
X75756038Y-103827014D01*
X75756037Y-103827016D01*
X75668378Y-103958208D01*
X75556808Y-104069778D01*
X75425616Y-104157437D01*
X75425615Y-104157438D01*
X75425614Y-104157438D01*
X75279842Y-104217819D01*
X75125093Y-104248600D01*
X74967307Y-104248600D01*
X74812558Y-104217819D01*
X74666786Y-104157438D01*
X74666785Y-104157438D01*
X74666784Y-104157437D01*
X74535592Y-104069778D01*
X74424022Y-103958208D01*
X74336363Y-103827016D01*
X74336362Y-103827014D01*
X74275981Y-103681242D01*
X74245200Y-103526493D01*
X74245200Y-103368707D01*
X74275981Y-103213958D01*
X74336362Y-103068186D01*
X74336683Y-103067705D01*
X74424022Y-102936992D01*
X74535592Y-102825422D01*
X74666784Y-102737763D01*
X74666786Y-102737762D01*
X74812558Y-102677381D01*
X74967307Y-102646600D01*
X75125093Y-102646600D01*
X75279842Y-102677381D01*
X75279842Y-102677381D01*
G37*
G36*
X67138892Y-99692556D02*
G01*
X67475861Y-99832133D01*
X67779126Y-100034768D01*
X68037032Y-100292674D01*
X68239667Y-100595939D01*
X68379244Y-100932908D01*
X68389903Y-100986493D01*
X68450400Y-101290632D01*
X68450400Y-101655368D01*
X68445934Y-101677818D01*
X68379244Y-102013092D01*
X68239667Y-102350061D01*
X68037032Y-102653326D01*
X67779126Y-102911232D01*
X67475861Y-103113867D01*
X67138892Y-103253444D01*
X66781168Y-103324600D01*
X66416432Y-103324600D01*
X66237571Y-103289022D01*
X66058708Y-103253444D01*
X65721739Y-103113867D01*
X65418474Y-102911232D01*
X65160568Y-102653326D01*
X64957933Y-102350061D01*
X64818356Y-102013092D01*
X64751666Y-101677818D01*
X64747200Y-101655368D01*
X64747200Y-101290632D01*
X64807697Y-100986493D01*
X64818356Y-100932908D01*
X64957933Y-100595939D01*
X65160568Y-100292674D01*
X65418474Y-100034768D01*
X65721739Y-99832133D01*
X66058708Y-99692556D01*
X66416432Y-99621400D01*
X66781168Y-99621400D01*
X67138892Y-99692556D01*
X67138892Y-99692556D01*
G37*
G36*
X77819842Y-101407381D02*
G01*
X77965614Y-101467762D01*
X77965616Y-101467763D01*
X78096808Y-101555422D01*
X78208378Y-101666992D01*
X78215612Y-101677819D01*
X78296038Y-101798186D01*
X78356419Y-101943958D01*
X78387200Y-102098707D01*
X78387200Y-102256493D01*
X78356419Y-102411242D01*
X78296038Y-102557014D01*
X78296037Y-102557016D01*
X78208378Y-102688208D01*
X78096808Y-102799778D01*
X77965616Y-102887437D01*
X77965615Y-102887438D01*
X77965614Y-102887438D01*
X77819842Y-102947819D01*
X77665093Y-102978600D01*
X77507307Y-102978600D01*
X77352558Y-102947819D01*
X77206786Y-102887438D01*
X77206785Y-102887438D01*
X77206784Y-102887437D01*
X77075592Y-102799778D01*
X76964022Y-102688208D01*
X76876363Y-102557016D01*
X76876362Y-102557014D01*
X76815981Y-102411242D01*
X76785200Y-102256493D01*
X76785200Y-102098707D01*
X76815981Y-101943958D01*
X76876362Y-101798186D01*
X76956788Y-101677819D01*
X76964022Y-101666992D01*
X77075592Y-101555422D01*
X77206784Y-101467763D01*
X77206786Y-101467762D01*
X77352558Y-101407381D01*
X77507307Y-101376600D01*
X77665093Y-101376600D01*
X77819842Y-101407381D01*
X77819842Y-101407381D01*
G37*
G36*
X75279842Y-100137381D02*
G01*
X75425614Y-100197762D01*
X75425616Y-100197763D01*
X75556808Y-100285422D01*
X75668378Y-100396992D01*
X75683512Y-100419642D01*
X75756038Y-100528186D01*
X75816419Y-100673958D01*
X75847200Y-100828707D01*
X75847200Y-100986493D01*
X75816419Y-101141242D01*
X75756038Y-101287014D01*
X75756037Y-101287016D01*
X75668378Y-101418208D01*
X75556808Y-101529778D01*
X75425616Y-101617437D01*
X75425615Y-101617438D01*
X75425614Y-101617438D01*
X75279842Y-101677819D01*
X75125093Y-101708600D01*
X74967307Y-101708600D01*
X74812558Y-101677819D01*
X74666786Y-101617438D01*
X74666785Y-101617438D01*
X74666784Y-101617437D01*
X74535592Y-101529778D01*
X74424022Y-101418208D01*
X74336363Y-101287016D01*
X74336362Y-101287014D01*
X74275981Y-101141242D01*
X74245200Y-100986493D01*
X74245200Y-100828707D01*
X74275981Y-100673958D01*
X74336362Y-100528186D01*
X74408888Y-100419642D01*
X74424022Y-100396992D01*
X74535592Y-100285422D01*
X74666784Y-100197763D01*
X74666786Y-100197762D01*
X74812558Y-100137381D01*
X74967307Y-100106600D01*
X75125093Y-100106600D01*
X75279842Y-100137381D01*
X75279842Y-100137381D01*
G37*
G36*
X84311456Y-98028898D02*
G01*
X84417779Y-98050047D01*
X84718242Y-98174503D01*
X84988651Y-98355185D01*
X85218615Y-98585149D01*
X85399297Y-98855558D01*
X85523753Y-99156021D01*
X85587200Y-99474991D01*
X85587200Y-99800209D01*
X85523753Y-100119179D01*
X85399297Y-100419642D01*
X85218615Y-100690051D01*
X84988651Y-100920015D01*
X84718242Y-101100697D01*
X84417779Y-101225153D01*
X84311456Y-101246302D01*
X84098811Y-101288600D01*
X83773589Y-101288600D01*
X83560944Y-101246302D01*
X83454621Y-101225153D01*
X83154158Y-101100697D01*
X82883749Y-100920015D01*
X82653785Y-100690051D01*
X82473103Y-100419642D01*
X82348647Y-100119179D01*
X82285200Y-99800209D01*
X82285200Y-99474991D01*
X82348647Y-99156021D01*
X82473103Y-98855558D01*
X82653785Y-98585149D01*
X82883749Y-98355185D01*
X83154158Y-98174503D01*
X83454621Y-98050047D01*
X83560944Y-98028898D01*
X83773589Y-97986600D01*
X84098811Y-97986600D01*
X84311456Y-98028898D01*
X84311456Y-98028898D01*
G37*
G36*
X59188367Y-96685112D02*
G01*
X59342328Y-96748885D01*
X59342330Y-96748886D01*
X59480892Y-96841470D01*
X59598730Y-96959308D01*
X59691315Y-97097872D01*
X59755088Y-97251833D01*
X59787599Y-97415276D01*
X59787599Y-97581926D01*
X59755088Y-97745369D01*
X59691315Y-97899330D01*
X59691314Y-97899332D01*
X59598730Y-98037894D01*
X59480892Y-98155732D01*
X59342330Y-98248316D01*
X59342329Y-98248317D01*
X59342328Y-98248317D01*
X59188367Y-98312090D01*
X59024924Y-98344601D01*
X58858274Y-98344601D01*
X58694831Y-98312090D01*
X58540870Y-98248317D01*
X58540869Y-98248317D01*
X58540868Y-98248316D01*
X58402306Y-98155732D01*
X58284468Y-98037894D01*
X58191884Y-97899332D01*
X58191883Y-97899330D01*
X58128110Y-97745369D01*
X58095599Y-97581926D01*
X58095599Y-97415276D01*
X58128110Y-97251833D01*
X58191883Y-97097872D01*
X58284468Y-96959308D01*
X58402306Y-96841470D01*
X58540868Y-96748886D01*
X58540870Y-96748885D01*
X58694831Y-96685112D01*
X58858274Y-96652601D01*
X59024924Y-96652601D01*
X59188367Y-96685112D01*
X59188367Y-96685112D01*
G37*
G36*
X66473564Y-94108589D02*
G01*
X66664833Y-94187815D01*
X66664835Y-94187816D01*
X66696367Y-94208885D01*
X66836973Y-94302835D01*
X66983365Y-94449227D01*
X67098385Y-94621367D01*
X67177611Y-94812636D01*
X67218000Y-95015684D01*
X67218000Y-95222716D01*
X67177611Y-95425764D01*
X67098924Y-95615732D01*
X67098384Y-95617035D01*
X66983365Y-95789173D01*
X66836973Y-95935565D01*
X66664835Y-96050584D01*
X66664834Y-96050585D01*
X66664833Y-96050585D01*
X66473564Y-96129811D01*
X66270516Y-96170200D01*
X66063484Y-96170200D01*
X65860436Y-96129811D01*
X65669167Y-96050585D01*
X65669166Y-96050585D01*
X65669165Y-96050584D01*
X65497027Y-95935565D01*
X65350635Y-95789173D01*
X65235616Y-95617035D01*
X65235076Y-95615732D01*
X65156389Y-95425764D01*
X65116000Y-95222716D01*
X65116000Y-95015684D01*
X65156389Y-94812636D01*
X65235615Y-94621367D01*
X65350635Y-94449227D01*
X65497027Y-94302835D01*
X65637633Y-94208885D01*
X65669165Y-94187816D01*
X65669167Y-94187815D01*
X65860436Y-94108589D01*
X66063484Y-94068200D01*
X66270516Y-94068200D01*
X66473564Y-94108589D01*
X66473564Y-94108589D01*
G37*
G36*
X59188367Y-94145112D02*
G01*
X59342328Y-94208885D01*
X59342330Y-94208886D01*
X59467976Y-94292840D01*
X59480892Y-94301470D01*
X59598730Y-94419308D01*
X59691315Y-94557872D01*
X59755088Y-94711833D01*
X59787599Y-94875276D01*
X59787599Y-95041926D01*
X59755088Y-95205369D01*
X59691315Y-95359330D01*
X59691314Y-95359332D01*
X59598730Y-95497894D01*
X59480892Y-95615732D01*
X59342330Y-95708316D01*
X59342329Y-95708317D01*
X59342328Y-95708317D01*
X59188367Y-95772090D01*
X59024924Y-95804601D01*
X58858274Y-95804601D01*
X58694831Y-95772090D01*
X58540870Y-95708317D01*
X58540869Y-95708317D01*
X58540868Y-95708316D01*
X58402306Y-95615732D01*
X58284468Y-95497894D01*
X58191884Y-95359332D01*
X58191883Y-95359330D01*
X58128110Y-95205369D01*
X58095599Y-95041926D01*
X58095599Y-94875276D01*
X58128110Y-94711833D01*
X58191883Y-94557872D01*
X58284468Y-94419308D01*
X58402306Y-94301470D01*
X58415222Y-94292840D01*
X58540868Y-94208886D01*
X58540870Y-94208885D01*
X58694831Y-94145112D01*
X58858274Y-94112601D01*
X59024924Y-94112601D01*
X59188367Y-94145112D01*
X59188367Y-94145112D01*
G37*
G36*
X84311456Y-91902098D02*
G01*
X84417779Y-91923247D01*
X84718242Y-92047703D01*
X84988651Y-92228385D01*
X85218615Y-92458349D01*
X85399297Y-92728758D01*
X85523753Y-93029221D01*
X85587200Y-93348191D01*
X85587200Y-93673409D01*
X85523753Y-93992379D01*
X85399297Y-94292842D01*
X85218615Y-94563251D01*
X84988651Y-94793215D01*
X84718242Y-94973897D01*
X84417779Y-95098353D01*
X84311456Y-95119502D01*
X84098811Y-95161800D01*
X83773589Y-95161800D01*
X83560944Y-95119502D01*
X83454621Y-95098353D01*
X83154158Y-94973897D01*
X82883749Y-94793215D01*
X82653785Y-94563251D01*
X82473103Y-94292842D01*
X82348647Y-93992379D01*
X82285200Y-93673409D01*
X82285200Y-93348191D01*
X82348647Y-93029221D01*
X82473103Y-92728758D01*
X82653785Y-92458349D01*
X82883749Y-92228385D01*
X83154158Y-92047703D01*
X83454621Y-91923247D01*
X83560944Y-91902098D01*
X83773589Y-91859800D01*
X84098811Y-91859800D01*
X84311456Y-91902098D01*
X84311456Y-91902098D01*
G37*
G36*
X59188367Y-91605112D02*
G01*
X59342328Y-91668885D01*
X59342330Y-91668886D01*
X59359918Y-91680638D01*
X59480892Y-91761470D01*
X59598730Y-91879308D01*
X59691315Y-92017872D01*
X59755088Y-92171833D01*
X59787599Y-92335276D01*
X59787599Y-92501926D01*
X59755088Y-92665369D01*
X59728831Y-92728758D01*
X59691314Y-92819332D01*
X59598730Y-92957894D01*
X59480892Y-93075732D01*
X59342330Y-93168316D01*
X59342329Y-93168317D01*
X59342328Y-93168317D01*
X59188367Y-93232090D01*
X59024924Y-93264601D01*
X58858274Y-93264601D01*
X58694831Y-93232090D01*
X58540870Y-93168317D01*
X58540869Y-93168317D01*
X58540868Y-93168316D01*
X58402306Y-93075732D01*
X58284468Y-92957894D01*
X58191884Y-92819332D01*
X58154367Y-92728758D01*
X58128110Y-92665369D01*
X58095599Y-92501926D01*
X58095599Y-92335276D01*
X58128110Y-92171833D01*
X58191883Y-92017872D01*
X58284468Y-91879308D01*
X58402306Y-91761470D01*
X58523280Y-91680638D01*
X58540868Y-91668886D01*
X58540870Y-91668885D01*
X58694831Y-91605112D01*
X58858274Y-91572601D01*
X59024924Y-91572601D01*
X59188367Y-91605112D01*
X59188367Y-91605112D01*
G37*
G36*
X78387200Y-93041800D02*
G01*
X76785200Y-93041800D01*
X76785200Y-91439800D01*
X78387200Y-91439800D01*
X78387200Y-93041800D01*
X78387200Y-93041800D01*
G37*
G36*
X75279842Y-90200581D02*
G01*
X75425614Y-90260962D01*
X75425616Y-90260963D01*
X75556808Y-90348622D01*
X75668378Y-90460192D01*
X75675612Y-90471019D01*
X75756038Y-90591386D01*
X75816419Y-90737158D01*
X75847200Y-90891907D01*
X75847200Y-91049693D01*
X75816419Y-91204442D01*
X75756038Y-91350214D01*
X75756037Y-91350216D01*
X75668378Y-91481408D01*
X75556808Y-91592978D01*
X75425616Y-91680637D01*
X75425615Y-91680638D01*
X75425614Y-91680638D01*
X75279842Y-91741019D01*
X75125093Y-91771800D01*
X74967307Y-91771800D01*
X74812558Y-91741019D01*
X74666786Y-91680638D01*
X74666785Y-91680638D01*
X74666784Y-91680637D01*
X74535592Y-91592978D01*
X74424022Y-91481408D01*
X74336363Y-91350216D01*
X74336362Y-91350214D01*
X74275981Y-91204442D01*
X74245200Y-91049693D01*
X74245200Y-90891907D01*
X74275981Y-90737158D01*
X74336362Y-90591386D01*
X74416788Y-90471019D01*
X74424022Y-90460192D01*
X74535592Y-90348622D01*
X74666784Y-90260963D01*
X74666786Y-90260962D01*
X74812558Y-90200581D01*
X74967307Y-90169800D01*
X75125093Y-90169800D01*
X75279842Y-90200581D01*
X75279842Y-90200581D01*
G37*
G36*
X67218000Y-91170200D02*
G01*
X65116000Y-91170200D01*
X65116000Y-89068200D01*
X67218000Y-89068200D01*
X67218000Y-91170200D01*
X67218000Y-91170200D01*
G37*
G36*
X77819842Y-88930581D02*
G01*
X77965614Y-88990962D01*
X77965616Y-88990963D01*
X78096808Y-89078622D01*
X78208378Y-89190192D01*
X78215612Y-89201019D01*
X78296038Y-89321386D01*
X78356419Y-89467158D01*
X78387200Y-89621907D01*
X78387200Y-89779693D01*
X78356419Y-89934442D01*
X78296038Y-90080214D01*
X78296037Y-90080216D01*
X78208378Y-90211408D01*
X78096808Y-90322978D01*
X77965616Y-90410637D01*
X77965615Y-90410638D01*
X77965614Y-90410638D01*
X77819842Y-90471019D01*
X77665093Y-90501800D01*
X77507307Y-90501800D01*
X77352558Y-90471019D01*
X77206786Y-90410638D01*
X77206785Y-90410638D01*
X77206784Y-90410637D01*
X77075592Y-90322978D01*
X76964022Y-90211408D01*
X76876363Y-90080216D01*
X76876362Y-90080214D01*
X76815981Y-89934442D01*
X76785200Y-89779693D01*
X76785200Y-89621907D01*
X76815981Y-89467158D01*
X76876362Y-89321386D01*
X76956788Y-89201019D01*
X76964022Y-89190192D01*
X77075592Y-89078622D01*
X77206784Y-88990963D01*
X77206786Y-88990962D01*
X77352558Y-88930581D01*
X77507307Y-88899800D01*
X77665093Y-88899800D01*
X77819842Y-88930581D01*
X77819842Y-88930581D01*
G37*
G36*
X75279842Y-87660581D02*
G01*
X75425614Y-87720962D01*
X75425616Y-87720963D01*
X75556808Y-87808622D01*
X75668378Y-87920192D01*
X75675612Y-87931019D01*
X75756038Y-88051386D01*
X75816419Y-88197158D01*
X75847200Y-88351907D01*
X75847200Y-88509693D01*
X75816419Y-88664442D01*
X75756038Y-88810214D01*
X75756037Y-88810216D01*
X75668378Y-88941408D01*
X75556808Y-89052978D01*
X75425616Y-89140637D01*
X75425615Y-89140638D01*
X75425614Y-89140638D01*
X75279842Y-89201019D01*
X75125093Y-89231800D01*
X74967307Y-89231800D01*
X74812558Y-89201019D01*
X74666786Y-89140638D01*
X74666785Y-89140638D01*
X74666784Y-89140637D01*
X74535592Y-89052978D01*
X74424022Y-88941408D01*
X74336363Y-88810216D01*
X74336362Y-88810214D01*
X74275981Y-88664442D01*
X74245200Y-88509693D01*
X74245200Y-88351907D01*
X74275981Y-88197158D01*
X74336362Y-88051386D01*
X74416788Y-87931019D01*
X74424022Y-87920192D01*
X74535592Y-87808622D01*
X74666784Y-87720963D01*
X74666786Y-87720962D01*
X74812558Y-87660581D01*
X74967307Y-87629800D01*
X75125093Y-87629800D01*
X75279842Y-87660581D01*
X75279842Y-87660581D01*
G37*
G36*
X77819842Y-86390581D02*
G01*
X77965614Y-86450962D01*
X77965616Y-86450963D01*
X78096808Y-86538622D01*
X78208378Y-86650192D01*
X78236179Y-86691800D01*
X78296038Y-86781386D01*
X78356419Y-86927158D01*
X78387200Y-87081907D01*
X78387200Y-87239693D01*
X78356419Y-87394442D01*
X78341467Y-87430539D01*
X78296037Y-87540216D01*
X78208378Y-87671408D01*
X78096808Y-87782978D01*
X77965616Y-87870637D01*
X77965615Y-87870638D01*
X77965614Y-87870638D01*
X77819842Y-87931019D01*
X77665093Y-87961800D01*
X77507307Y-87961800D01*
X77352558Y-87931019D01*
X77206786Y-87870638D01*
X77206785Y-87870638D01*
X77206784Y-87870637D01*
X77075592Y-87782978D01*
X76964022Y-87671408D01*
X76876363Y-87540216D01*
X76830933Y-87430539D01*
X76815981Y-87394442D01*
X76785200Y-87239693D01*
X76785200Y-87081907D01*
X76815981Y-86927158D01*
X76876362Y-86781386D01*
X76936221Y-86691800D01*
X76964022Y-86650192D01*
X77075592Y-86538622D01*
X77206784Y-86450963D01*
X77206786Y-86450962D01*
X77352558Y-86390581D01*
X77507307Y-86359800D01*
X77665093Y-86359800D01*
X77819842Y-86390581D01*
X77819842Y-86390581D01*
G37*
G36*
X56844828Y-85951227D02*
G01*
X56999700Y-86015377D01*
X57139081Y-86108509D01*
X57257615Y-86227043D01*
X57350747Y-86366424D01*
X57414897Y-86521296D01*
X57447600Y-86685708D01*
X57447600Y-86853340D01*
X57414897Y-87017752D01*
X57350747Y-87172624D01*
X57257615Y-87312005D01*
X57139081Y-87430539D01*
X56999700Y-87523671D01*
X56844828Y-87587821D01*
X56680416Y-87620524D01*
X56512784Y-87620524D01*
X56348372Y-87587821D01*
X56193500Y-87523671D01*
X56054119Y-87430539D01*
X55935585Y-87312005D01*
X55842453Y-87172624D01*
X55778303Y-87017752D01*
X55745600Y-86853340D01*
X55745600Y-86685708D01*
X55778303Y-86521296D01*
X55842453Y-86366424D01*
X55935585Y-86227043D01*
X56054119Y-86108509D01*
X56193500Y-86015377D01*
X56348372Y-85951227D01*
X56512784Y-85918524D01*
X56680416Y-85918524D01*
X56844828Y-85951227D01*
X56844828Y-85951227D01*
G37*
G36*
X54344828Y-85951227D02*
G01*
X54499700Y-86015377D01*
X54639081Y-86108509D01*
X54757615Y-86227043D01*
X54850747Y-86366424D01*
X54914897Y-86521296D01*
X54947600Y-86685708D01*
X54947600Y-86853340D01*
X54914897Y-87017752D01*
X54850747Y-87172624D01*
X54757615Y-87312005D01*
X54639081Y-87430539D01*
X54499700Y-87523671D01*
X54344828Y-87587821D01*
X54180416Y-87620524D01*
X54012784Y-87620524D01*
X53848372Y-87587821D01*
X53693500Y-87523671D01*
X53554119Y-87430539D01*
X53435585Y-87312005D01*
X53342453Y-87172624D01*
X53278303Y-87017752D01*
X53245600Y-86853340D01*
X53245600Y-86685708D01*
X53278303Y-86521296D01*
X53342453Y-86366424D01*
X53435585Y-86227043D01*
X53554119Y-86108509D01*
X53693500Y-86015377D01*
X53848372Y-85951227D01*
X54012784Y-85918524D01*
X54180416Y-85918524D01*
X54344828Y-85951227D01*
X54344828Y-85951227D01*
G37*
G36*
X75279842Y-85120581D02*
G01*
X75425614Y-85180962D01*
X75425616Y-85180963D01*
X75556808Y-85268622D01*
X75668378Y-85380192D01*
X75675612Y-85391019D01*
X75756038Y-85511386D01*
X75816419Y-85657158D01*
X75847200Y-85811907D01*
X75847200Y-85969693D01*
X75816419Y-86124442D01*
X75756038Y-86270214D01*
X75756037Y-86270216D01*
X75668378Y-86401408D01*
X75556808Y-86512978D01*
X75425616Y-86600637D01*
X75425615Y-86600638D01*
X75425614Y-86600638D01*
X75279842Y-86661019D01*
X75125093Y-86691800D01*
X74967307Y-86691800D01*
X74812558Y-86661019D01*
X74666786Y-86600638D01*
X74666785Y-86600638D01*
X74666784Y-86600637D01*
X74535592Y-86512978D01*
X74424022Y-86401408D01*
X74336363Y-86270216D01*
X74336362Y-86270214D01*
X74275981Y-86124442D01*
X74245200Y-85969693D01*
X74245200Y-85811907D01*
X74275981Y-85657158D01*
X74336362Y-85511386D01*
X74416788Y-85391019D01*
X74424022Y-85380192D01*
X74535592Y-85268622D01*
X74666784Y-85180963D01*
X74666786Y-85180962D01*
X74812558Y-85120581D01*
X74967307Y-85089800D01*
X75125093Y-85089800D01*
X75279842Y-85120581D01*
X75279842Y-85120581D01*
G37*
G36*
X77819842Y-83850581D02*
G01*
X77965614Y-83910962D01*
X77965616Y-83910963D01*
X78096808Y-83998622D01*
X78208378Y-84110192D01*
X78215612Y-84121019D01*
X78296038Y-84241386D01*
X78356419Y-84387158D01*
X78387200Y-84541907D01*
X78387200Y-84699693D01*
X78356419Y-84854442D01*
X78296038Y-85000214D01*
X78296037Y-85000216D01*
X78208378Y-85131408D01*
X78096808Y-85242978D01*
X77965616Y-85330637D01*
X77965615Y-85330638D01*
X77965614Y-85330638D01*
X77819842Y-85391019D01*
X77665093Y-85421800D01*
X77507307Y-85421800D01*
X77352558Y-85391019D01*
X77206786Y-85330638D01*
X77206785Y-85330638D01*
X77206784Y-85330637D01*
X77075592Y-85242978D01*
X76964022Y-85131408D01*
X76876363Y-85000216D01*
X76876362Y-85000214D01*
X76815981Y-84854442D01*
X76785200Y-84699693D01*
X76785200Y-84541907D01*
X76815981Y-84387158D01*
X76876362Y-84241386D01*
X76956788Y-84121019D01*
X76964022Y-84110192D01*
X77075592Y-83998622D01*
X77206784Y-83910963D01*
X77206786Y-83910962D01*
X77352558Y-83850581D01*
X77507307Y-83819800D01*
X77665093Y-83819800D01*
X77819842Y-83850581D01*
X77819842Y-83850581D01*
G37*
G36*
X75279842Y-82580581D02*
G01*
X75425614Y-82640962D01*
X75425616Y-82640963D01*
X75556808Y-82728622D01*
X75668378Y-82840192D01*
X75725197Y-82925229D01*
X75756038Y-82971386D01*
X75816419Y-83117158D01*
X75847200Y-83271907D01*
X75847200Y-83429693D01*
X75816419Y-83584442D01*
X75756038Y-83730214D01*
X75756037Y-83730216D01*
X75668378Y-83861408D01*
X75556808Y-83972978D01*
X75425616Y-84060637D01*
X75425615Y-84060638D01*
X75425614Y-84060638D01*
X75279842Y-84121019D01*
X75125093Y-84151800D01*
X74967307Y-84151800D01*
X74812558Y-84121019D01*
X74666786Y-84060638D01*
X74666785Y-84060638D01*
X74666784Y-84060637D01*
X74535592Y-83972978D01*
X74424022Y-83861408D01*
X74336363Y-83730216D01*
X74336362Y-83730214D01*
X74275981Y-83584442D01*
X74245200Y-83429693D01*
X74245200Y-83271907D01*
X74275981Y-83117158D01*
X74336362Y-82971386D01*
X74367203Y-82925229D01*
X74424022Y-82840192D01*
X74535592Y-82728622D01*
X74666784Y-82640963D01*
X74666786Y-82640962D01*
X74812558Y-82580581D01*
X74967307Y-82549800D01*
X75125093Y-82549800D01*
X75279842Y-82580581D01*
X75279842Y-82580581D01*
G37*
G36*
X84311456Y-80472098D02*
G01*
X84417779Y-80493247D01*
X84718242Y-80617703D01*
X84988651Y-80798385D01*
X85218615Y-81028349D01*
X85218616Y-81028351D01*
X85399298Y-81298760D01*
X85523753Y-81599222D01*
X85587200Y-81918189D01*
X85587200Y-82243411D01*
X85566046Y-82349758D01*
X85523753Y-82562379D01*
X85399297Y-82862842D01*
X85218615Y-83133251D01*
X84988651Y-83363215D01*
X84718242Y-83543897D01*
X84417779Y-83668353D01*
X84311456Y-83689502D01*
X84098811Y-83731800D01*
X83773589Y-83731800D01*
X83560944Y-83689502D01*
X83454621Y-83668353D01*
X83154158Y-83543897D01*
X82883749Y-83363215D01*
X82653785Y-83133251D01*
X82473103Y-82862842D01*
X82348647Y-82562379D01*
X82306354Y-82349758D01*
X82285200Y-82243411D01*
X82285200Y-81918189D01*
X82348647Y-81599222D01*
X82473102Y-81298760D01*
X82653784Y-81028351D01*
X82653785Y-81028349D01*
X82883749Y-80798385D01*
X83154158Y-80617703D01*
X83454621Y-80493247D01*
X83560944Y-80472098D01*
X83773589Y-80429800D01*
X84098811Y-80429800D01*
X84311456Y-80472098D01*
X84311456Y-80472098D01*
G37*
G36*
X54599023Y-81838313D02*
G01*
X54759442Y-81886976D01*
X54826561Y-81922852D01*
X54907278Y-81965996D01*
X55036859Y-82072341D01*
X55143204Y-82201922D01*
X55143205Y-82201924D01*
X55222224Y-82349758D01*
X55270887Y-82510177D01*
X55287317Y-82677000D01*
X55270887Y-82843823D01*
X55222224Y-83004242D01*
X55181677Y-83080100D01*
X55143204Y-83152078D01*
X55036859Y-83281659D01*
X54907278Y-83388004D01*
X54907276Y-83388005D01*
X54759442Y-83467024D01*
X54599023Y-83515687D01*
X54474004Y-83528000D01*
X54390396Y-83528000D01*
X54265377Y-83515687D01*
X54104958Y-83467024D01*
X53957124Y-83388005D01*
X53957122Y-83388004D01*
X53827541Y-83281659D01*
X53721196Y-83152078D01*
X53682723Y-83080100D01*
X53642176Y-83004242D01*
X53593513Y-82843823D01*
X53577083Y-82677000D01*
X53593513Y-82510177D01*
X53642176Y-82349758D01*
X53721195Y-82201924D01*
X53721196Y-82201922D01*
X53827541Y-82072341D01*
X53957122Y-81965996D01*
X54037839Y-81922852D01*
X54104958Y-81886976D01*
X54265377Y-81838313D01*
X54390396Y-81826000D01*
X54474004Y-81826000D01*
X54599023Y-81838313D01*
X54599023Y-81838313D01*
G37*
G36*
X64840428Y-81858703D02*
G01*
X64995300Y-81922853D01*
X65134681Y-82015985D01*
X65253215Y-82134519D01*
X65346347Y-82273900D01*
X65410497Y-82428772D01*
X65443200Y-82593184D01*
X65443200Y-82760816D01*
X65410497Y-82925228D01*
X65346347Y-83080100D01*
X65253215Y-83219481D01*
X65134681Y-83338015D01*
X64995300Y-83431147D01*
X64840428Y-83495297D01*
X64676016Y-83528000D01*
X64508384Y-83528000D01*
X64343972Y-83495297D01*
X64189100Y-83431147D01*
X64049719Y-83338015D01*
X63931185Y-83219481D01*
X63838053Y-83080100D01*
X63773903Y-82925228D01*
X63741200Y-82760816D01*
X63741200Y-82593184D01*
X63773903Y-82428772D01*
X63838053Y-82273900D01*
X63931185Y-82134519D01*
X64049719Y-82015985D01*
X64189100Y-81922853D01*
X64343972Y-81858703D01*
X64508384Y-81826000D01*
X64676016Y-81826000D01*
X64840428Y-81858703D01*
X64840428Y-81858703D01*
G37*
G36*
X64840428Y-76194503D02*
G01*
X64995300Y-76258653D01*
X65134681Y-76351785D01*
X65253215Y-76470319D01*
X65346347Y-76609700D01*
X65410497Y-76764572D01*
X65443200Y-76928984D01*
X65443200Y-77096616D01*
X65410497Y-77261028D01*
X65346347Y-77415900D01*
X65253215Y-77555281D01*
X65134681Y-77673815D01*
X64995300Y-77766947D01*
X64840428Y-77831097D01*
X64676016Y-77863800D01*
X64508384Y-77863800D01*
X64343972Y-77831097D01*
X64189100Y-77766947D01*
X64049719Y-77673815D01*
X63931185Y-77555281D01*
X63838053Y-77415900D01*
X63773903Y-77261028D01*
X63741200Y-77096616D01*
X63741200Y-76928984D01*
X63773903Y-76764572D01*
X63838053Y-76609700D01*
X63931185Y-76470319D01*
X64049719Y-76351785D01*
X64189100Y-76258653D01*
X64343972Y-76194503D01*
X64508384Y-76161800D01*
X64676016Y-76161800D01*
X64840428Y-76194503D01*
X64840428Y-76194503D01*
G37*
G36*
X54599023Y-76174113D02*
G01*
X54759442Y-76222776D01*
X54826561Y-76258652D01*
X54907278Y-76301796D01*
X55036859Y-76408141D01*
X55143204Y-76537722D01*
X55143205Y-76537724D01*
X55222224Y-76685558D01*
X55270887Y-76845977D01*
X55287317Y-77012800D01*
X55270887Y-77179623D01*
X55222224Y-77340042D01*
X55151314Y-77472706D01*
X55143204Y-77487878D01*
X55036859Y-77617459D01*
X54907278Y-77723804D01*
X54907276Y-77723805D01*
X54759442Y-77802824D01*
X54599023Y-77851487D01*
X54474004Y-77863800D01*
X54390396Y-77863800D01*
X54265377Y-77851487D01*
X54104958Y-77802824D01*
X53957124Y-77723805D01*
X53957122Y-77723804D01*
X53827541Y-77617459D01*
X53721196Y-77487878D01*
X53713086Y-77472706D01*
X53642176Y-77340042D01*
X53593513Y-77179623D01*
X53577083Y-77012800D01*
X53593513Y-76845977D01*
X53642176Y-76685558D01*
X53721195Y-76537724D01*
X53721196Y-76537722D01*
X53827541Y-76408141D01*
X53957122Y-76301796D01*
X54037839Y-76258652D01*
X54104958Y-76222776D01*
X54265377Y-76174113D01*
X54390396Y-76161800D01*
X54474004Y-76161800D01*
X54599023Y-76174113D01*
X54599023Y-76174113D01*
G37*
G36*
X84311456Y-74345298D02*
G01*
X84417779Y-74366447D01*
X84718242Y-74490903D01*
X84988651Y-74671585D01*
X85218615Y-74901549D01*
X85399297Y-75171958D01*
X85523753Y-75472421D01*
X85587200Y-75791391D01*
X85587200Y-76116609D01*
X85523753Y-76435579D01*
X85399297Y-76736042D01*
X85218615Y-77006451D01*
X84988651Y-77236415D01*
X84718242Y-77417097D01*
X84417779Y-77541553D01*
X84311456Y-77562702D01*
X84098811Y-77605000D01*
X83773589Y-77605000D01*
X83560944Y-77562702D01*
X83454621Y-77541553D01*
X83154158Y-77417097D01*
X82883749Y-77236415D01*
X82653785Y-77006451D01*
X82473103Y-76736042D01*
X82348647Y-76435579D01*
X82285200Y-76116609D01*
X82285200Y-75791391D01*
X82348647Y-75472421D01*
X82473103Y-75171958D01*
X82653785Y-74901549D01*
X82883749Y-74671585D01*
X83154158Y-74490903D01*
X83454621Y-74366447D01*
X83560944Y-74345298D01*
X83773589Y-74303000D01*
X84098811Y-74303000D01*
X84311456Y-74345298D01*
X84311456Y-74345298D01*
G37*
G36*
X78387200Y-75485000D02*
G01*
X76785200Y-75485000D01*
X76785200Y-73883000D01*
X78387200Y-73883000D01*
X78387200Y-75485000D01*
X78387200Y-75485000D01*
G37*
G36*
X75279842Y-72643781D02*
G01*
X75425614Y-72704162D01*
X75425616Y-72704163D01*
X75556808Y-72791822D01*
X75668378Y-72903392D01*
X75675612Y-72914219D01*
X75756038Y-73034586D01*
X75816419Y-73180358D01*
X75847200Y-73335107D01*
X75847200Y-73492893D01*
X75816419Y-73647642D01*
X75756038Y-73793414D01*
X75756037Y-73793416D01*
X75668378Y-73924608D01*
X75556808Y-74036178D01*
X75425616Y-74123837D01*
X75425615Y-74123838D01*
X75425614Y-74123838D01*
X75279842Y-74184219D01*
X75125093Y-74215000D01*
X74967307Y-74215000D01*
X74812558Y-74184219D01*
X74666786Y-74123838D01*
X74666785Y-74123838D01*
X74666784Y-74123837D01*
X74535592Y-74036178D01*
X74424022Y-73924608D01*
X74336363Y-73793416D01*
X74336362Y-73793414D01*
X74275981Y-73647642D01*
X74245200Y-73492893D01*
X74245200Y-73335107D01*
X74275981Y-73180358D01*
X74336362Y-73034586D01*
X74416788Y-72914219D01*
X74424022Y-72903392D01*
X74535592Y-72791822D01*
X74666784Y-72704163D01*
X74666786Y-72704162D01*
X74812558Y-72643781D01*
X74967307Y-72613000D01*
X75125093Y-72613000D01*
X75279842Y-72643781D01*
X75279842Y-72643781D01*
G37*
G36*
X77819842Y-71373781D02*
G01*
X77965614Y-71434162D01*
X77965616Y-71434163D01*
X78096808Y-71521822D01*
X78208378Y-71633392D01*
X78215848Y-71644572D01*
X78296038Y-71764586D01*
X78356419Y-71910358D01*
X78387200Y-72065107D01*
X78387200Y-72222893D01*
X78356419Y-72377642D01*
X78332544Y-72435280D01*
X78296037Y-72523416D01*
X78208378Y-72654608D01*
X78096808Y-72766178D01*
X77965616Y-72853837D01*
X77965615Y-72853838D01*
X77965614Y-72853838D01*
X77819842Y-72914219D01*
X77665093Y-72945000D01*
X77507307Y-72945000D01*
X77352558Y-72914219D01*
X77206786Y-72853838D01*
X77206785Y-72853838D01*
X77206784Y-72853837D01*
X77075592Y-72766178D01*
X76964022Y-72654608D01*
X76876363Y-72523416D01*
X76839856Y-72435280D01*
X76815981Y-72377642D01*
X76785200Y-72222893D01*
X76785200Y-72065107D01*
X76815981Y-71910358D01*
X76876362Y-71764586D01*
X76956552Y-71644572D01*
X76964022Y-71633392D01*
X77075592Y-71521822D01*
X77206784Y-71434163D01*
X77206786Y-71434162D01*
X77352558Y-71373781D01*
X77507307Y-71343000D01*
X77665093Y-71343000D01*
X77819842Y-71373781D01*
X77819842Y-71373781D01*
G37*
G36*
X55188428Y-71074503D02*
G01*
X55343300Y-71138653D01*
X55482681Y-71231785D01*
X55601215Y-71350319D01*
X55694347Y-71489700D01*
X55758497Y-71644572D01*
X55791200Y-71808984D01*
X55791200Y-71976616D01*
X55758497Y-72141028D01*
X55694347Y-72295900D01*
X55601215Y-72435281D01*
X55482681Y-72553815D01*
X55343300Y-72646947D01*
X55188428Y-72711097D01*
X55024016Y-72743800D01*
X54856384Y-72743800D01*
X54691972Y-72711097D01*
X54537100Y-72646947D01*
X54397719Y-72553815D01*
X54279185Y-72435281D01*
X54186053Y-72295900D01*
X54121903Y-72141028D01*
X54089200Y-71976616D01*
X54089200Y-71808984D01*
X54121903Y-71644572D01*
X54186053Y-71489700D01*
X54279185Y-71350319D01*
X54397719Y-71231785D01*
X54537100Y-71138653D01*
X54691972Y-71074503D01*
X54856384Y-71041800D01*
X55024016Y-71041800D01*
X55188428Y-71074503D01*
X55188428Y-71074503D01*
G37*
G36*
X75279842Y-70103781D02*
G01*
X75425614Y-70164162D01*
X75425616Y-70164163D01*
X75556808Y-70251822D01*
X75668378Y-70363392D01*
X75675612Y-70374219D01*
X75756038Y-70494586D01*
X75816419Y-70640358D01*
X75847200Y-70795107D01*
X75847200Y-70952893D01*
X75816419Y-71107642D01*
X75764997Y-71231785D01*
X75756037Y-71253416D01*
X75668378Y-71384608D01*
X75556808Y-71496178D01*
X75425616Y-71583837D01*
X75425615Y-71583838D01*
X75425614Y-71583838D01*
X75279842Y-71644219D01*
X75125093Y-71675000D01*
X74967307Y-71675000D01*
X74812558Y-71644219D01*
X74666786Y-71583838D01*
X74666785Y-71583838D01*
X74666784Y-71583837D01*
X74535592Y-71496178D01*
X74424022Y-71384608D01*
X74336363Y-71253416D01*
X74327403Y-71231785D01*
X74275981Y-71107642D01*
X74245200Y-70952893D01*
X74245200Y-70795107D01*
X74275981Y-70640358D01*
X74336362Y-70494586D01*
X74416788Y-70374219D01*
X74424022Y-70363392D01*
X74535592Y-70251822D01*
X74666784Y-70164163D01*
X74666786Y-70164162D01*
X74812558Y-70103781D01*
X74967307Y-70073000D01*
X75125093Y-70073000D01*
X75279842Y-70103781D01*
X75279842Y-70103781D01*
G37*
G36*
X77819842Y-68833781D02*
G01*
X77965614Y-68894162D01*
X77965616Y-68894163D01*
X78096808Y-68981822D01*
X78208378Y-69093392D01*
X78215612Y-69104219D01*
X78296038Y-69224586D01*
X78356419Y-69370358D01*
X78387200Y-69525107D01*
X78387200Y-69682893D01*
X78356419Y-69837642D01*
X78315976Y-69935280D01*
X78296037Y-69983416D01*
X78208378Y-70114608D01*
X78096808Y-70226178D01*
X77965616Y-70313837D01*
X77965615Y-70313838D01*
X77965614Y-70313838D01*
X77819842Y-70374219D01*
X77665093Y-70405000D01*
X77507307Y-70405000D01*
X77352558Y-70374219D01*
X77206786Y-70313838D01*
X77206785Y-70313838D01*
X77206784Y-70313837D01*
X77075592Y-70226178D01*
X76964022Y-70114608D01*
X76876363Y-69983416D01*
X76856424Y-69935280D01*
X76815981Y-69837642D01*
X76785200Y-69682893D01*
X76785200Y-69525107D01*
X76815981Y-69370358D01*
X76876362Y-69224586D01*
X76956788Y-69104219D01*
X76964022Y-69093392D01*
X77075592Y-68981822D01*
X77206784Y-68894163D01*
X77206786Y-68894162D01*
X77352558Y-68833781D01*
X77507307Y-68803000D01*
X77665093Y-68803000D01*
X77819842Y-68833781D01*
X77819842Y-68833781D01*
G37*
G36*
X55188428Y-68574503D02*
G01*
X55343300Y-68638653D01*
X55482681Y-68731785D01*
X55601215Y-68850319D01*
X55694347Y-68989700D01*
X55758497Y-69144572D01*
X55791200Y-69308984D01*
X55791200Y-69476616D01*
X55758497Y-69641028D01*
X55694347Y-69795900D01*
X55601215Y-69935281D01*
X55482681Y-70053815D01*
X55343300Y-70146947D01*
X55188428Y-70211097D01*
X55024016Y-70243800D01*
X54856384Y-70243800D01*
X54691972Y-70211097D01*
X54537100Y-70146947D01*
X54397719Y-70053815D01*
X54279185Y-69935281D01*
X54186053Y-69795900D01*
X54121903Y-69641028D01*
X54089200Y-69476616D01*
X54089200Y-69308984D01*
X54121903Y-69144572D01*
X54186053Y-68989700D01*
X54279185Y-68850319D01*
X54397719Y-68731785D01*
X54537100Y-68638653D01*
X54691972Y-68574503D01*
X54856384Y-68541800D01*
X55024016Y-68541800D01*
X55188428Y-68574503D01*
X55188428Y-68574503D01*
G37*
G36*
X75279842Y-67563781D02*
G01*
X75425614Y-67624162D01*
X75425616Y-67624163D01*
X75556808Y-67711822D01*
X75668378Y-67823392D01*
X75675612Y-67834219D01*
X75756038Y-67954586D01*
X75816419Y-68100358D01*
X75847200Y-68255107D01*
X75847200Y-68412893D01*
X75816419Y-68567642D01*
X75787005Y-68638653D01*
X75756037Y-68713416D01*
X75668378Y-68844608D01*
X75556808Y-68956178D01*
X75425616Y-69043837D01*
X75425615Y-69043838D01*
X75425614Y-69043838D01*
X75279842Y-69104219D01*
X75125093Y-69135000D01*
X74967307Y-69135000D01*
X74812558Y-69104219D01*
X74666786Y-69043838D01*
X74666785Y-69043838D01*
X74666784Y-69043837D01*
X74535592Y-68956178D01*
X74424022Y-68844608D01*
X74336363Y-68713416D01*
X74305395Y-68638653D01*
X74275981Y-68567642D01*
X74245200Y-68412893D01*
X74245200Y-68255107D01*
X74275981Y-68100358D01*
X74336362Y-67954586D01*
X74416788Y-67834219D01*
X74424022Y-67823392D01*
X74535592Y-67711822D01*
X74666784Y-67624163D01*
X74666786Y-67624162D01*
X74812558Y-67563781D01*
X74967307Y-67533000D01*
X75125093Y-67533000D01*
X75279842Y-67563781D01*
X75279842Y-67563781D01*
G37*
G36*
X77819842Y-66293781D02*
G01*
X77965614Y-66354162D01*
X77965616Y-66354163D01*
X78096808Y-66441822D01*
X78208378Y-66553392D01*
X78215612Y-66564219D01*
X78296038Y-66684586D01*
X78356419Y-66830358D01*
X78387200Y-66985107D01*
X78387200Y-67142893D01*
X78356419Y-67297642D01*
X78296038Y-67443414D01*
X78296037Y-67443416D01*
X78208378Y-67574608D01*
X78096808Y-67686178D01*
X77965616Y-67773837D01*
X77965615Y-67773838D01*
X77965614Y-67773838D01*
X77819842Y-67834219D01*
X77665093Y-67865000D01*
X77507307Y-67865000D01*
X77352558Y-67834219D01*
X77206786Y-67773838D01*
X77206785Y-67773838D01*
X77206784Y-67773837D01*
X77075592Y-67686178D01*
X76964022Y-67574608D01*
X76876363Y-67443416D01*
X76876362Y-67443414D01*
X76815981Y-67297642D01*
X76785200Y-67142893D01*
X76785200Y-66985107D01*
X76815981Y-66830358D01*
X76876362Y-66684586D01*
X76956788Y-66564219D01*
X76964022Y-66553392D01*
X77075592Y-66441822D01*
X77206784Y-66354163D01*
X77206786Y-66354162D01*
X77352558Y-66293781D01*
X77507307Y-66263000D01*
X77665093Y-66263000D01*
X77819842Y-66293781D01*
X77819842Y-66293781D01*
G37*
G36*
X75279842Y-65023781D02*
G01*
X75425614Y-65084162D01*
X75425616Y-65084163D01*
X75556808Y-65171822D01*
X75668378Y-65283392D01*
X75711920Y-65348558D01*
X75756038Y-65414586D01*
X75816419Y-65560358D01*
X75847200Y-65715107D01*
X75847200Y-65872893D01*
X75816419Y-66027642D01*
X75756038Y-66173414D01*
X75756037Y-66173416D01*
X75668378Y-66304608D01*
X75556808Y-66416178D01*
X75425616Y-66503837D01*
X75425615Y-66503838D01*
X75425614Y-66503838D01*
X75279842Y-66564219D01*
X75125093Y-66595000D01*
X74967307Y-66595000D01*
X74812558Y-66564219D01*
X74666786Y-66503838D01*
X74666785Y-66503838D01*
X74666784Y-66503837D01*
X74535592Y-66416178D01*
X74424022Y-66304608D01*
X74336363Y-66173416D01*
X74336362Y-66173414D01*
X74275981Y-66027642D01*
X74245200Y-65872893D01*
X74245200Y-65715107D01*
X74275981Y-65560358D01*
X74336362Y-65414586D01*
X74380480Y-65348558D01*
X74424022Y-65283392D01*
X74535592Y-65171822D01*
X74666784Y-65084163D01*
X74666786Y-65084162D01*
X74812558Y-65023781D01*
X74967307Y-64993000D01*
X75125093Y-64993000D01*
X75279842Y-65023781D01*
X75279842Y-65023781D01*
G37*
G36*
X84311456Y-62915298D02*
G01*
X84417779Y-62936447D01*
X84718242Y-63060903D01*
X84988651Y-63241585D01*
X85218615Y-63471549D01*
X85218616Y-63471551D01*
X85399298Y-63741960D01*
X85435750Y-63829963D01*
X85523753Y-64042421D01*
X85587200Y-64361391D01*
X85587200Y-64686609D01*
X85523753Y-65005579D01*
X85399297Y-65306042D01*
X85218615Y-65576451D01*
X84988651Y-65806415D01*
X84718242Y-65987097D01*
X84417779Y-66111553D01*
X84311456Y-66132702D01*
X84098811Y-66175000D01*
X83773589Y-66175000D01*
X83560944Y-66132702D01*
X83454621Y-66111553D01*
X83154158Y-65987097D01*
X82883749Y-65806415D01*
X82653785Y-65576451D01*
X82473103Y-65306042D01*
X82348647Y-65005579D01*
X82285200Y-64686609D01*
X82285200Y-64361391D01*
X82348647Y-64042421D01*
X82436650Y-63829963D01*
X82473102Y-63741960D01*
X82653784Y-63471551D01*
X82653785Y-63471549D01*
X82883749Y-63241585D01*
X83154158Y-63060903D01*
X83454621Y-62936447D01*
X83560944Y-62915298D01*
X83773589Y-62873000D01*
X84098811Y-62873000D01*
X84311456Y-62915298D01*
X84311456Y-62915298D01*
G37*
G36*
X58098342Y-63785042D02*
G01*
X58246301Y-63846329D01*
X58379455Y-63935299D01*
X58492701Y-64048545D01*
X58581671Y-64181699D01*
X58642958Y-64329658D01*
X58674200Y-64486725D01*
X58674200Y-64646875D01*
X58642958Y-64803942D01*
X58581671Y-64951901D01*
X58492701Y-65085055D01*
X58379455Y-65198301D01*
X58246301Y-65287271D01*
X58098342Y-65348558D01*
X57941275Y-65379800D01*
X57781125Y-65379800D01*
X57624058Y-65348558D01*
X57476099Y-65287271D01*
X57342945Y-65198301D01*
X57229699Y-65085055D01*
X57140729Y-64951901D01*
X57079442Y-64803942D01*
X57048200Y-64646875D01*
X57048200Y-64486725D01*
X57079442Y-64329658D01*
X57140729Y-64181699D01*
X57229699Y-64048545D01*
X57342945Y-63935299D01*
X57476099Y-63846329D01*
X57624058Y-63785042D01*
X57781125Y-63753800D01*
X57941275Y-63753800D01*
X58098342Y-63785042D01*
X58098342Y-63785042D01*
G37*
G36*
X55558342Y-63785042D02*
G01*
X55706301Y-63846329D01*
X55839455Y-63935299D01*
X55952701Y-64048545D01*
X56041671Y-64181699D01*
X56102958Y-64329658D01*
X56134200Y-64486725D01*
X56134200Y-64646875D01*
X56102958Y-64803942D01*
X56041671Y-64951901D01*
X55952701Y-65085055D01*
X55839455Y-65198301D01*
X55706301Y-65287271D01*
X55558342Y-65348558D01*
X55401275Y-65379800D01*
X55241125Y-65379800D01*
X55084058Y-65348558D01*
X54936099Y-65287271D01*
X54802945Y-65198301D01*
X54689699Y-65085055D01*
X54600729Y-64951901D01*
X54539442Y-64803942D01*
X54508200Y-64646875D01*
X54508200Y-64486725D01*
X54539442Y-64329658D01*
X54600729Y-64181699D01*
X54689699Y-64048545D01*
X54802945Y-63935299D01*
X54936099Y-63846329D01*
X55084058Y-63785042D01*
X55241125Y-63753800D01*
X55401275Y-63753800D01*
X55558342Y-63785042D01*
X55558342Y-63785042D01*
G37*
G36*
X60638342Y-63785042D02*
G01*
X60786301Y-63846329D01*
X60919455Y-63935299D01*
X61032701Y-64048545D01*
X61121671Y-64181699D01*
X61182958Y-64329658D01*
X61214200Y-64486725D01*
X61214200Y-64646875D01*
X61182958Y-64803942D01*
X61121671Y-64951901D01*
X61032701Y-65085055D01*
X60919455Y-65198301D01*
X60786301Y-65287271D01*
X60638342Y-65348558D01*
X60481275Y-65379800D01*
X60321125Y-65379800D01*
X60164058Y-65348558D01*
X60016099Y-65287271D01*
X59882945Y-65198301D01*
X59769699Y-65085055D01*
X59680729Y-64951901D01*
X59619442Y-64803942D01*
X59588200Y-64646875D01*
X59588200Y-64486725D01*
X59619442Y-64329658D01*
X59680729Y-64181699D01*
X59769699Y-64048545D01*
X59882945Y-63935299D01*
X60016099Y-63846329D01*
X60164058Y-63785042D01*
X60321125Y-63753800D01*
X60481275Y-63753800D01*
X60638342Y-63785042D01*
X60638342Y-63785042D01*
G37*
G36*
X63178342Y-63785042D02*
G01*
X63326301Y-63846329D01*
X63459455Y-63935299D01*
X63572701Y-64048545D01*
X63661671Y-64181699D01*
X63722958Y-64329658D01*
X63754200Y-64486725D01*
X63754200Y-64646875D01*
X63722958Y-64803942D01*
X63661671Y-64951901D01*
X63572701Y-65085055D01*
X63459455Y-65198301D01*
X63326301Y-65287271D01*
X63178342Y-65348558D01*
X63021275Y-65379800D01*
X62861125Y-65379800D01*
X62704058Y-65348558D01*
X62556099Y-65287271D01*
X62422945Y-65198301D01*
X62309699Y-65085055D01*
X62220729Y-64951901D01*
X62159442Y-64803942D01*
X62128200Y-64646875D01*
X62128200Y-64486725D01*
X62159442Y-64329658D01*
X62220729Y-64181699D01*
X62309699Y-64048545D01*
X62422945Y-63935299D01*
X62556099Y-63846329D01*
X62704058Y-63785042D01*
X62861125Y-63753800D01*
X63021275Y-63753800D01*
X63178342Y-63785042D01*
X63178342Y-63785042D01*
G37*
G36*
X63178342Y-61245042D02*
G01*
X63326301Y-61306329D01*
X63459455Y-61395299D01*
X63572701Y-61508545D01*
X63661671Y-61641699D01*
X63722958Y-61789658D01*
X63754200Y-61946725D01*
X63754200Y-62106875D01*
X63722958Y-62263942D01*
X63661671Y-62411901D01*
X63572701Y-62545055D01*
X63459455Y-62658301D01*
X63326301Y-62747271D01*
X63178342Y-62808558D01*
X63021275Y-62839800D01*
X62861125Y-62839800D01*
X62704058Y-62808558D01*
X62556099Y-62747271D01*
X62422945Y-62658301D01*
X62309699Y-62545055D01*
X62220729Y-62411901D01*
X62159442Y-62263942D01*
X62128200Y-62106875D01*
X62128200Y-61946725D01*
X62159442Y-61789658D01*
X62220729Y-61641699D01*
X62309699Y-61508545D01*
X62422945Y-61395299D01*
X62556099Y-61306329D01*
X62704058Y-61245042D01*
X62861125Y-61213800D01*
X63021275Y-61213800D01*
X63178342Y-61245042D01*
X63178342Y-61245042D01*
G37*
G36*
X60638342Y-61245042D02*
G01*
X60786301Y-61306329D01*
X60919455Y-61395299D01*
X61032701Y-61508545D01*
X61121671Y-61641699D01*
X61182958Y-61789658D01*
X61214200Y-61946725D01*
X61214200Y-62106875D01*
X61182958Y-62263942D01*
X61121671Y-62411901D01*
X61032701Y-62545055D01*
X60919455Y-62658301D01*
X60786301Y-62747271D01*
X60638342Y-62808558D01*
X60481275Y-62839800D01*
X60321125Y-62839800D01*
X60164058Y-62808558D01*
X60016099Y-62747271D01*
X59882945Y-62658301D01*
X59769699Y-62545055D01*
X59680729Y-62411901D01*
X59619442Y-62263942D01*
X59588200Y-62106875D01*
X59588200Y-61946725D01*
X59619442Y-61789658D01*
X59680729Y-61641699D01*
X59769699Y-61508545D01*
X59882945Y-61395299D01*
X60016099Y-61306329D01*
X60164058Y-61245042D01*
X60321125Y-61213800D01*
X60481275Y-61213800D01*
X60638342Y-61245042D01*
X60638342Y-61245042D01*
G37*
G36*
X58098342Y-61245042D02*
G01*
X58246301Y-61306329D01*
X58379455Y-61395299D01*
X58492701Y-61508545D01*
X58581671Y-61641699D01*
X58642958Y-61789658D01*
X58674200Y-61946725D01*
X58674200Y-62106875D01*
X58642958Y-62263942D01*
X58581671Y-62411901D01*
X58492701Y-62545055D01*
X58379455Y-62658301D01*
X58246301Y-62747271D01*
X58098342Y-62808558D01*
X57941275Y-62839800D01*
X57781125Y-62839800D01*
X57624058Y-62808558D01*
X57476099Y-62747271D01*
X57342945Y-62658301D01*
X57229699Y-62545055D01*
X57140729Y-62411901D01*
X57079442Y-62263942D01*
X57048200Y-62106875D01*
X57048200Y-61946725D01*
X57079442Y-61789658D01*
X57140729Y-61641699D01*
X57229699Y-61508545D01*
X57342945Y-61395299D01*
X57476099Y-61306329D01*
X57624058Y-61245042D01*
X57781125Y-61213800D01*
X57941275Y-61213800D01*
X58098342Y-61245042D01*
X58098342Y-61245042D01*
G37*
G36*
X55558342Y-61245042D02*
G01*
X55706301Y-61306329D01*
X55839455Y-61395299D01*
X55952701Y-61508545D01*
X56041671Y-61641699D01*
X56102958Y-61789658D01*
X56134200Y-61946725D01*
X56134200Y-62106875D01*
X56102958Y-62263942D01*
X56041671Y-62411901D01*
X55952701Y-62545055D01*
X55839455Y-62658301D01*
X55706301Y-62747271D01*
X55558342Y-62808558D01*
X55401275Y-62839800D01*
X55241125Y-62839800D01*
X55084058Y-62808558D01*
X54936099Y-62747271D01*
X54802945Y-62658301D01*
X54689699Y-62545055D01*
X54600729Y-62411901D01*
X54539442Y-62263942D01*
X54508200Y-62106875D01*
X54508200Y-61946725D01*
X54539442Y-61789658D01*
X54600729Y-61641699D01*
X54689699Y-61508545D01*
X54802945Y-61395299D01*
X54936099Y-61306329D01*
X55084058Y-61245042D01*
X55241125Y-61213800D01*
X55401275Y-61213800D01*
X55558342Y-61245042D01*
X55558342Y-61245042D01*
G37*
G36*
X79210272Y-56863118D02*
G01*
X79451700Y-56963120D01*
X79456139Y-56964959D01*
X79554260Y-57030522D01*
X79677411Y-57112809D01*
X79865591Y-57300989D01*
X80013442Y-57522263D01*
X80115282Y-57768128D01*
X80167200Y-58029137D01*
X80167200Y-58295263D01*
X80154999Y-58356600D01*
X80115282Y-58556272D01*
X80013441Y-58802139D01*
X79865590Y-59023412D01*
X79677412Y-59211590D01*
X79456139Y-59359441D01*
X79456138Y-59359442D01*
X79456137Y-59359442D01*
X79210272Y-59461282D01*
X78949263Y-59513200D01*
X78683137Y-59513200D01*
X78422128Y-59461282D01*
X78176263Y-59359442D01*
X78176262Y-59359442D01*
X78176261Y-59359441D01*
X77954988Y-59211590D01*
X77766810Y-59023412D01*
X77618959Y-58802139D01*
X77517118Y-58556272D01*
X77477401Y-58356600D01*
X77465200Y-58295263D01*
X77465200Y-58029137D01*
X77517118Y-57768128D01*
X77618958Y-57522263D01*
X77766809Y-57300989D01*
X77954989Y-57112809D01*
X78078140Y-57030522D01*
X78176261Y-56964959D01*
X78180701Y-56963120D01*
X78422128Y-56863118D01*
X78683137Y-56811200D01*
X78949263Y-56811200D01*
X79210272Y-56863118D01*
X79210272Y-56863118D01*
G37*
G36*
X60364823Y-56666913D02*
G01*
X60525242Y-56715576D01*
X60592361Y-56751452D01*
X60673078Y-56794596D01*
X60802659Y-56900941D01*
X60909004Y-57030522D01*
X60909005Y-57030524D01*
X60988024Y-57178358D01*
X61036687Y-57338777D01*
X61053117Y-57505600D01*
X61036687Y-57672423D01*
X60988024Y-57832842D01*
X60947477Y-57908700D01*
X60909004Y-57980678D01*
X60802659Y-58110259D01*
X60673078Y-58216604D01*
X60673076Y-58216605D01*
X60525242Y-58295624D01*
X60364823Y-58344287D01*
X60239804Y-58356600D01*
X60156196Y-58356600D01*
X60031177Y-58344287D01*
X59870758Y-58295624D01*
X59722924Y-58216605D01*
X59722922Y-58216604D01*
X59593341Y-58110259D01*
X59486996Y-57980678D01*
X59448523Y-57908700D01*
X59407976Y-57832842D01*
X59359313Y-57672423D01*
X59342883Y-57505600D01*
X59359313Y-57338777D01*
X59407976Y-57178358D01*
X59486995Y-57030524D01*
X59486996Y-57030522D01*
X59593341Y-56900941D01*
X59722922Y-56794596D01*
X59803639Y-56751452D01*
X59870758Y-56715576D01*
X60031177Y-56666913D01*
X60156196Y-56654600D01*
X60239804Y-56654600D01*
X60364823Y-56666913D01*
X60364823Y-56666913D01*
G37*
G36*
X70606228Y-56687303D02*
G01*
X70761100Y-56751453D01*
X70900481Y-56844585D01*
X71019015Y-56963119D01*
X71112147Y-57102500D01*
X71176297Y-57257372D01*
X71209000Y-57421784D01*
X71209000Y-57589416D01*
X71176297Y-57753828D01*
X71112147Y-57908700D01*
X71019015Y-58048081D01*
X70900481Y-58166615D01*
X70761100Y-58259747D01*
X70606228Y-58323897D01*
X70441816Y-58356600D01*
X70274184Y-58356600D01*
X70109772Y-58323897D01*
X69954900Y-58259747D01*
X69815519Y-58166615D01*
X69696985Y-58048081D01*
X69603853Y-57908700D01*
X69539703Y-57753828D01*
X69507000Y-57589416D01*
X69507000Y-57421784D01*
X69539703Y-57257372D01*
X69603853Y-57102500D01*
X69696985Y-56963119D01*
X69815519Y-56844585D01*
X69954900Y-56751453D01*
X70109772Y-56687303D01*
X70274184Y-56654600D01*
X70441816Y-56654600D01*
X70606228Y-56687303D01*
X70606228Y-56687303D01*
G37*
G36*
X55277407Y-52483582D02*
G01*
X55677963Y-52649498D01*
X55677965Y-52649499D01*
X56038456Y-52890371D01*
X56345029Y-53196944D01*
X56501019Y-53430400D01*
X56585902Y-53557437D01*
X56751818Y-53957993D01*
X56836400Y-54383219D01*
X56836400Y-54816781D01*
X56751818Y-55242007D01*
X56585902Y-55642563D01*
X56585901Y-55642565D01*
X56345029Y-56003056D01*
X56038456Y-56309629D01*
X55677965Y-56550501D01*
X55677964Y-56550502D01*
X55677963Y-56550502D01*
X55277407Y-56716418D01*
X54852181Y-56801000D01*
X54418619Y-56801000D01*
X53993393Y-56716418D01*
X53592837Y-56550502D01*
X53592836Y-56550502D01*
X53592835Y-56550501D01*
X53232344Y-56309629D01*
X52925771Y-56003056D01*
X52684899Y-55642565D01*
X52684898Y-55642563D01*
X52518982Y-55242007D01*
X52434400Y-54816781D01*
X52434400Y-54383219D01*
X52518982Y-53957993D01*
X52684898Y-53557437D01*
X52769781Y-53430400D01*
X52925771Y-53196944D01*
X53232344Y-52890371D01*
X53592835Y-52649499D01*
X53592837Y-52649498D01*
X53993393Y-52483582D01*
X54418619Y-52399000D01*
X54852181Y-52399000D01*
X55277407Y-52483582D01*
X55277407Y-52483582D01*
G37*
G36*
X69912000Y-55332400D02*
G01*
X68010000Y-55332400D01*
X68010000Y-53430400D01*
X69912000Y-53430400D01*
X69912000Y-55332400D01*
X69912000Y-55332400D01*
G37*
G36*
X80167200Y-54513200D02*
G01*
X77465200Y-54513200D01*
X77465200Y-51811200D01*
X80167200Y-51811200D01*
X80167200Y-54513200D01*
X80167200Y-54513200D01*
G37*
G36*
X69238395Y-50926946D02*
G01*
X69411466Y-50998634D01*
X69411467Y-50998635D01*
X69567227Y-51102710D01*
X69699690Y-51235173D01*
X69699691Y-51235175D01*
X69803766Y-51390934D01*
X69875454Y-51564005D01*
X69912000Y-51747733D01*
X69912000Y-51935067D01*
X69875454Y-52118795D01*
X69803766Y-52291866D01*
X69803765Y-52291867D01*
X69699690Y-52447627D01*
X69567227Y-52580090D01*
X69488818Y-52632481D01*
X69411466Y-52684166D01*
X69238395Y-52755854D01*
X69054667Y-52792400D01*
X68867333Y-52792400D01*
X68683605Y-52755854D01*
X68510534Y-52684166D01*
X68433182Y-52632481D01*
X68354773Y-52580090D01*
X68222310Y-52447627D01*
X68118235Y-52291867D01*
X68118234Y-52291866D01*
X68046546Y-52118795D01*
X68010000Y-51935067D01*
X68010000Y-51747733D01*
X68046546Y-51564005D01*
X68118234Y-51390934D01*
X68222309Y-51235175D01*
X68222310Y-51235173D01*
X68354773Y-51102710D01*
X68510533Y-50998635D01*
X68510534Y-50998634D01*
X68683605Y-50926946D01*
X68867333Y-50890400D01*
X69054667Y-50890400D01*
X69238395Y-50926946D01*
X69238395Y-50926946D01*
G37*
M02*
